<?xml version="1.0" encoding="UTF-8"?>
<!--Generator: Apple Native CoreSVG 149-->
<!DOCTYPE svg
PUBLIC "-//W3C//DTD SVG 1.1//EN"
       "http://www.w3.org/Graphics/SVG/1.1/DTD/svg11.dtd">
<svg version="1.1" xmlns="http://www.w3.org/2000/svg" xmlns:xlink="http://www.w3.org/1999/xlink" width="3300" height="2200">
 <!--glyph: "uni100263.medium", point size: 100.0, font version: "17.0d9e1", template writer version: "59"-->
 <g id="Notes">
  <rect height="2200" id="artboard" style="fill:white;opacity:1" width="3300" x="0" y="0"/>
  <line style="fill:none;stroke:black;opacity:1;stroke-width:0.5;" x1="263" x2="3036" y1="292" y2="292"/>
  <text style="stroke:none;fill:black;font-family:sans-serif;font-size:13;font-weight:bold;" transform="matrix(1 0 0 1 263 322)">Weight/Scale Variations</text>
  <text style="stroke:none;fill:black;font-family:sans-serif;font-size:13;text-anchor:middle;" transform="matrix(1 0 0 1 559.711 322)">Ultralight</text>
  <text style="stroke:none;fill:black;font-family:sans-serif;font-size:13;text-anchor:middle;" transform="matrix(1 0 0 1 856.422 322)">Thin</text>
  <text style="stroke:none;fill:black;font-family:sans-serif;font-size:13;text-anchor:middle;" transform="matrix(1 0 0 1 1153.13 322)">Light</text>
  <text style="stroke:none;fill:black;font-family:sans-serif;font-size:13;text-anchor:middle;" transform="matrix(1 0 0 1 1449.84 322)">Regular</text>
  <text style="stroke:none;fill:black;font-family:sans-serif;font-size:13;text-anchor:middle;" transform="matrix(1 0 0 1 1746.56 322)">Medium</text>
  <text style="stroke:none;fill:black;font-family:sans-serif;font-size:13;text-anchor:middle;" transform="matrix(1 0 0 1 2043.27 322)">Semibold</text>
  <text style="stroke:none;fill:black;font-family:sans-serif;font-size:13;text-anchor:middle;" transform="matrix(1 0 0 1 2339.98 322)">Bold</text>
  <text style="stroke:none;fill:black;font-family:sans-serif;font-size:13;text-anchor:middle;" transform="matrix(1 0 0 1 2636.69 322)">Heavy</text>
  <text style="stroke:none;fill:black;font-family:sans-serif;font-size:13;text-anchor:middle;" transform="matrix(1 0 0 1 2933.4 322)">Black</text>
  <line style="fill:none;stroke:black;opacity:1;stroke-width:0.5;" x1="263" x2="3036" y1="1903" y2="1903"/>
  <g transform="matrix(1 0 0 1 263 1933)">
   <path d="M9.24805 0.830078Q10.8691 0.830078 12.2949 0.214844Q13.7207-0.400391 14.8096-1.49414Q15.8984-2.58789 16.5186-4.01367Q17.1387-5.43945 17.1387-7.05078Q17.1387-8.66211 16.5186-10.0879Q15.8984-11.5137 14.8047-12.6074Q13.7109-13.7012 12.2852-14.3164Q10.8594-14.9316 9.23828-14.9316Q7.62695-14.9316 6.20117-14.3164Q4.77539-13.7012 3.69141-12.6074Q2.60742-11.5137 1.9873-10.0879Q1.36719-8.66211 1.36719-7.05078Q1.36719-5.43945 1.9873-4.01367Q2.60742-2.58789 3.69629-1.49414Q4.78516-0.400391 6.21094 0.214844Q7.63672 0.830078 9.24805 0.830078ZM9.24805-0.654297Q7.91992-0.654297 6.7627-1.14746Q5.60547-1.64062 4.73145-2.51953Q3.85742-3.39844 3.36426-4.56055Q2.87109-5.72266 2.87109-7.05078Q2.87109-8.37891 3.35938-9.54102Q3.84766-10.7031 4.72168-11.582Q5.5957-12.4609 6.75293-12.9541Q7.91016-13.4473 9.23828-13.4473Q10.5762-13.4473 11.7334-12.9541Q12.8906-12.4609 13.7695-11.582Q14.6484-10.7031 15.1465-9.54102Q15.6445-8.37891 15.6445-7.05078Q15.6445-5.72266 15.1514-4.56055Q14.6582-3.39844 13.7842-2.51953Q12.9102-1.64062 11.748-1.14746Q10.5859-0.654297 9.24805-0.654297ZM5.83984-7.04102Q5.83984-6.71875 6.04492-6.51855Q6.25-6.31836 6.5918-6.31836L8.50586-6.31836L8.50586-4.39453Q8.50586-4.0625 8.70605-3.85742Q8.90625-3.65234 9.22852-3.65234Q9.56055-3.65234 9.76562-3.85742Q9.9707-4.0625 9.9707-4.39453L9.9707-6.31836L11.8945-6.31836Q12.2266-6.31836 12.4316-6.51855Q12.6367-6.71875 12.6367-7.04102Q12.6367-7.37305 12.4316-7.57812Q12.2266-7.7832 11.8945-7.7832L9.9707-7.7832L9.9707-9.69727Q9.9707-10.0391 9.76562-10.2441Q9.56055-10.4492 9.22852-10.4492Q8.90625-10.4492 8.70605-10.2441Q8.50586-10.0391 8.50586-9.69727L8.50586-7.7832L6.5918-7.7832Q6.25-7.7832 6.04492-7.57812Q5.83984-7.37305 5.83984-7.04102Z"/>
  </g>
  <g transform="matrix(1 0 0 1 281.867 1933)">
   <path d="M11.709 2.91016Q13.75 2.91016 15.5518 2.12891Q17.3535 1.34766 18.7305-0.0292969Q20.1074-1.40625 20.8887-3.20801Q21.6699-5.00977 21.6699-7.05078Q21.6699-9.0918 20.8887-10.8936Q20.1074-12.6953 18.7305-14.0723Q17.3535-15.4492 15.5469-16.2305Q13.7402-17.0117 11.6992-17.0117Q9.6582-17.0117 7.85645-16.2305Q6.05469-15.4492 4.68262-14.0723Q3.31055-12.6953 2.5293-10.8936Q1.74805-9.0918 1.74805-7.05078Q1.74805-5.00977 2.5293-3.20801Q3.31055-1.40625 4.6875-0.0292969Q6.06445 1.34766 7.86621 2.12891Q9.66797 2.91016 11.709 2.91016ZM11.709 1.25Q9.98047 1.25 8.47656 0.605469Q6.97266-0.0390625 5.83496-1.17676Q4.69727-2.31445 4.05762-3.81836Q3.41797-5.32227 3.41797-7.05078Q3.41797-8.7793 4.05762-10.2832Q4.69727-11.7871 5.83008-12.9297Q6.96289-14.0723 8.4668-14.7119Q9.9707-15.3516 11.6992-15.3516Q13.4277-15.3516 14.9316-14.7119Q16.4355-14.0723 17.5781-12.9297Q18.7207-11.7871 19.3652-10.2832Q20.0098-8.7793 20.0098-7.05078Q20.0098-5.32227 19.3701-3.81836Q18.7305-2.31445 17.5928-1.17676Q16.4551-0.0390625 14.9463 0.605469Q13.4375 1.25 11.709 1.25ZM7.39258-7.04102Q7.39258-6.68945 7.62695-6.46484Q7.86133-6.24023 8.23242-6.24023L10.8789-6.24023L10.8789-3.57422Q10.8789-3.21289 11.1035-2.9834Q11.3281-2.75391 11.6797-2.75391Q12.0508-2.75391 12.2852-2.9834Q12.5195-3.21289 12.5195-3.57422L12.5195-6.24023L15.1758-6.24023Q15.5371-6.24023 15.7715-6.46484Q16.0059-6.68945 16.0059-7.04102Q16.0059-7.41211 15.7715-7.6416Q15.5371-7.87109 15.1758-7.87109L12.5195-7.87109L12.5195-10.5176Q12.5195-10.8984 12.2852-11.1279Q12.0508-11.3574 11.6797-11.3574Q11.3281-11.3574 11.1035-11.1279Q10.8789-10.8984 10.8789-10.5176L10.8789-7.87109L8.23242-7.87109Q7.85156-7.87109 7.62207-7.6416Q7.39258-7.41211 7.39258-7.04102Z"/>
  </g>
  <g transform="matrix(1 0 0 1 305.646 1933)">
   <path d="M14.9707 5.66406Q17.0605 5.66406 18.96 5.01465Q20.8594 4.36523 22.4512 3.19336Q24.043 2.02148 25.2197 0.429688Q26.3965-1.16211 27.0459-3.06641Q27.6953-4.9707 27.6953-7.05078Q27.6953-9.14062 27.0459-11.04Q26.3965-12.9395 25.2197-14.5312Q24.043-16.123 22.4512-17.2998Q20.8594-18.4766 18.9551-19.126Q17.0508-19.7754 14.9609-19.7754Q12.8711-19.7754 10.9717-19.126Q9.07227-18.4766 7.48535-17.2998Q5.89844-16.123 4.72168-14.5312Q3.54492-12.9395 2.90039-11.04Q2.25586-9.14062 2.25586-7.05078Q2.25586-4.9707 2.90527-3.06641Q3.55469-1.16211 4.72656 0.429688Q5.89844 2.02148 7.49023 3.19336Q9.08203 4.36523 10.9814 5.01465Q12.8809 5.66406 14.9707 5.66406ZM14.9707 3.84766Q13.1641 3.84766 11.5283 3.2959Q9.89258 2.74414 8.53516 1.74805Q7.17773 0.751953 6.17676-0.610352Q5.17578-1.97266 4.62891-3.6084Q4.08203-5.24414 4.08203-7.05078Q4.08203-8.86719 4.62891-10.5029Q5.17578-12.1387 6.17188-13.501Q7.16797-14.8633 8.52539-15.8594Q9.88281-16.8555 11.5186-17.4023Q13.1543-17.9492 14.9609-17.9492Q16.7773-17.9492 18.4131-17.4023Q20.0488-16.8555 21.4111-15.8594Q22.7734-14.8633 23.7695-13.501Q24.7656-12.1387 25.3174-10.5029Q25.8691-8.86719 25.8691-7.05078Q25.8789-5.24414 25.332-3.6084Q24.7852-1.97266 23.7842-0.610352Q22.7832 0.751953 21.4209 1.74805Q20.0586 2.74414 18.4229 3.2959Q16.7871 3.84766 14.9707 3.84766ZM9.45312-7.04102Q9.45312-6.66016 9.71191-6.41113Q9.9707-6.16211 10.3711-6.16211L14.0625-6.16211L14.0625-2.46094Q14.0625-2.06055 14.3115-1.80664Q14.5605-1.55273 14.9414-1.55273Q15.3516-1.55273 15.6055-1.80664Q15.8594-2.06055 15.8594-2.46094L15.8594-6.16211L19.5605-6.16211Q19.9609-6.16211 20.2148-6.41113Q20.4688-6.66016 20.4688-7.04102Q20.4688-7.45117 20.2148-7.70508Q19.9609-7.95898 19.5605-7.95898L15.8594-7.95898L15.8594-11.6504Q15.8594-12.0605 15.6055-12.3145Q15.3516-12.5684 14.9414-12.5684Q14.5605-12.5684 14.3115-12.3096Q14.0625-12.0508 14.0625-11.6504L14.0625-7.95898L10.3711-7.95898Q9.96094-7.95898 9.70703-7.70508Q9.45312-7.45117 9.45312-7.04102Z"/>
  </g>
  <text style="stroke:none;fill:black;font-family:sans-serif;font-size:13;font-weight:bold;" transform="matrix(1 0 0 1 263 1953)">Design Variations</text>
  <text style="stroke:none;fill:black;font-family:sans-serif;font-size:13;" transform="matrix(1 0 0 1 263 1971)">Symbols are supported in up to nine weights and three scales.</text>
  <text style="stroke:none;fill:black;font-family:sans-serif;font-size:13;" transform="matrix(1 0 0 1 263 1989)">For optimal layout with text and other symbols, vertically align</text>
  <text style="stroke:none;fill:black;font-family:sans-serif;font-size:13;" transform="matrix(1 0 0 1 263 2007)">symbols with the adjacent text.</text>
  <line style="fill:none;stroke:#00AEEF;stroke-width:0.5;opacity:1.0;" x1="776" x2="776" y1="1919" y2="1933"/>
  <g transform="matrix(1 0 0 1 776 1933)">
   <path d="M3.31055 0.15625Q3.70117 0.15625 3.91602-0.00976562Q4.13086-0.175781 4.26758-0.585938L5.52734-4.0332L11.2891-4.0332L12.5488-0.585938Q12.6855-0.175781 12.9004-0.00976562Q13.1152 0.15625 13.4961 0.15625Q13.8867 0.15625 14.1162-0.0585938Q14.3457-0.273438 14.3457-0.644531Q14.3457-0.869141 14.2383-1.17188L9.6582-13.3691Q9.48242-13.8184 9.17969-14.043Q8.87695-14.2676 8.4082-14.2676Q7.5-14.2676 7.17773-13.3789L2.59766-1.16211Q2.49023-0.859375 2.49023-0.634766Q2.49023-0.263672 2.70996-0.0537109Q2.92969 0.15625 3.31055 0.15625ZM6.00586-5.51758L8.37891-12.0898L8.42773-12.0898L10.8008-5.51758Z"/>
  </g>
  <line style="fill:none;stroke:#00AEEF;stroke-width:0.5;opacity:1.0;" x1="793.197" x2="793.197" y1="1919" y2="1933"/>
  <text style="stroke:none;fill:black;font-family:sans-serif;font-size:13;font-weight:bold;" transform="matrix(1 0 0 1 776 1953)">Margins</text>
  <text style="stroke:none;fill:black;font-family:sans-serif;font-size:13;" transform="matrix(1 0 0 1 776 1971)">Leading and trailing margins on the left and right side of each symbol</text>
  <text style="stroke:none;fill:black;font-family:sans-serif;font-size:13;" transform="matrix(1 0 0 1 776 1989)">can be adjusted by modifying the x-location of the margin guidelines.</text>
  <text style="stroke:none;fill:black;font-family:sans-serif;font-size:13;" transform="matrix(1 0 0 1 776 2007)">Modifications are automatically applied proportionally to all</text>
  <text style="stroke:none;fill:black;font-family:sans-serif;font-size:13;" transform="matrix(1 0 0 1 776 2025)">scales and weights.</text>
  <g transform="matrix(1 0 0 1 1289 1933)">
   <path d="M2.8418 1.86523L4.54102 3.57422Q5.18555 4.22852 5.90332 4.17969Q6.62109 4.13086 7.31445 3.35938L18.0078-8.42773L17.041-9.4043L6.42578 2.27539Q6.16211 2.57812 5.89355 2.61719Q5.625 2.65625 5.27344 2.30469L4.10156 1.14258Q3.75 0.791016 3.79395 0.522461Q3.83789 0.253906 4.14062-0.0195312L15.6152-10.8203L14.6387-11.7871L3.04688-0.898438Q2.30469-0.214844 2.25098 0.498047Q2.19727 1.21094 2.8418 1.86523ZM9.25781-16.3281Q8.94531-16.0254 8.90625-15.6348Q8.86719-15.2441 9.04297-14.9512Q9.21875-14.6777 9.55566-14.541Q9.89258-14.4043 10.3809-14.5215Q11.4746-14.7754 12.5977-14.7314Q13.7207-14.6875 14.7949-13.9844L14.209-12.5293Q13.9551-11.9043 14.0674-11.4404Q14.1797-10.9766 14.5801-10.5664L16.875-8.25195Q17.2363-7.88086 17.5781-7.82227Q17.9199-7.76367 18.3398-7.8418L19.4043-8.03711L20.0684-7.36328L20.0293-6.80664Q20-6.43555 20.1221-6.12305Q20.2441-5.81055 20.6055-5.44922L21.3672-4.70703Q21.7285-4.3457 22.1533-4.33105Q22.5781-4.31641 22.9297-4.66797L25.8398-7.58789Q26.1914-7.93945 26.1816-8.35449Q26.1719-8.76953 25.8105-9.13086L25.0391-9.89258Q24.6875-10.2539 24.3799-10.3857Q24.0723-10.5176 23.7109-10.4883L23.1348-10.4395L22.4902-11.0742L22.7344-12.1973Q22.832-12.6172 22.6953-12.9834Q22.5586-13.3496 22.1191-13.7891L19.9219-15.9766Q18.6719-17.2168 17.2607-17.8369Q15.8496-18.457 14.4189-18.4814Q12.9883-18.5059 11.665-17.959Q10.3418-17.4121 9.25781-16.3281ZM10.752-15.957Q11.6602-16.6211 12.7002-16.9043Q13.7402-17.1875 14.8047-17.085Q15.8691-16.9824 16.8701-16.5137Q17.8711-16.0449 18.7012-15.2051L21.1328-12.793Q21.3086-12.6172 21.3525-12.4512Q21.3965-12.2852 21.3379-12.0312L21.0156-10.5469L22.5195-9.0625L23.5059-9.12109Q23.6914-9.13086 23.7891-9.09668Q23.8867-9.0625 24.0332-8.91602L24.6094-8.33984L22.168-5.89844L21.5918-6.47461Q21.4453-6.62109 21.4062-6.71875Q21.3672-6.81641 21.377-7.01172L21.4453-7.98828L19.9512-9.47266L18.4277-9.21875Q18.1836-9.16992 18.042-9.2041Q17.9004-9.23828 17.7148-9.41406L15.7129-11.416Q15.5176-11.5918 15.4932-11.7529Q15.4688-11.9141 15.5859-12.1875L16.4648-14.2773Q15.293-15.3711 13.8281-15.791Q12.3633-16.2109 10.8398-15.7617Q10.7227-15.7324 10.6885-15.8057Q10.6543-15.8789 10.752-15.957Z"/>
  </g>
  <text style="stroke:none;fill:black;font-family:sans-serif;font-size:13;font-weight:bold;" transform="matrix(1 0 0 1 1289 1953)">Exporting</text>
  <text style="stroke:none;fill:black;font-family:sans-serif;font-size:13;" transform="matrix(1 0 0 1 1289 1971)">Symbols should be outlined when exporting to ensure the</text>
  <text style="stroke:none;fill:black;font-family:sans-serif;font-size:13;" transform="matrix(1 0 0 1 1289 1989)">design is preserved when submitting to Xcode.</text>
  <text id="template-version" style="stroke:none;fill:black;font-family:sans-serif;font-size:13;text-anchor:end;" transform="matrix(1 0 0 1 3036 1933)">Template v.2.0</text>
  <text style="stroke:none;fill:black;font-family:sans-serif;font-size:13;text-anchor:end;" transform="matrix(1 0 0 1 3036 1951)">Requires Xcode 13 or greater</text>
  <text id="descriptive-name" style="stroke:none;fill:black;font-family:sans-serif;font-size:13;text-anchor:end;" transform="matrix(1 0 0 1 3036 1969)">Generated from link</text>
  <text style="stroke:none;fill:black;font-family:sans-serif;font-size:13;text-anchor:end;" transform="matrix(1 0 0 1 3036 1987)">Typeset at 100 points</text>
  <text style="stroke:none;fill:black;font-family:sans-serif;font-size:13;" transform="matrix(1 0 0 1 263 726)">Small</text>
  <text style="stroke:none;fill:black;font-family:sans-serif;font-size:13;" transform="matrix(1 0 0 1 263 1156)">Medium</text>
  <text style="stroke:none;fill:black;font-family:sans-serif;font-size:13;" transform="matrix(1 0 0 1 263 1586)">Large</text>
 </g>
 <g id="Guides">
  <g id="H-reference" style="fill:#27AAE1;stroke:none;" transform="matrix(1 0 0 1 339 696)">
   <path d="M0.976562 0L3.66211 0L29.3457-67.1387L30.0293-67.1387L30.0293-70.459L28.125-70.459ZM11.6699-24.4629L46.9727-24.4629L46.2402-26.709L12.4512-26.709ZM55.127 0L57.7637 0L30.6152-70.459L29.4434-70.459L29.4434-67.1387Z"/>
  </g>
  <line id="Baseline-S" style="fill:none;stroke:#27AAE1;opacity:1;stroke-width:0.5;" x1="263" x2="3036" y1="696" y2="696"/>
  <line id="Capline-S" style="fill:none;stroke:#27AAE1;opacity:1;stroke-width:0.5;" x1="263" x2="3036" y1="625.541" y2="625.541"/>
  <g id="H-reference" style="fill:#27AAE1;stroke:none;" transform="matrix(1 0 0 1 339 1126)">
   <path d="M0.976562 0L3.66211 0L29.3457-67.1387L30.0293-67.1387L30.0293-70.459L28.125-70.459ZM11.6699-24.4629L46.9727-24.4629L46.2402-26.709L12.4512-26.709ZM55.127 0L57.7637 0L30.6152-70.459L29.4434-70.459L29.4434-67.1387Z"/>
  </g>
  <line id="Baseline-M" style="fill:none;stroke:#27AAE1;opacity:1;stroke-width:0.5;" x1="263" x2="3036" y1="1126" y2="1126"/>
  <line id="Capline-M" style="fill:none;stroke:#27AAE1;opacity:1;stroke-width:0.5;" x1="263" x2="3036" y1="1055.54" y2="1055.54"/>
  <g id="H-reference" style="fill:#27AAE1;stroke:none;" transform="matrix(1 0 0 1 339 1556)">
   <path d="M0.976562 0L3.66211 0L29.3457-67.1387L30.0293-67.1387L30.0293-70.459L28.125-70.459ZM11.6699-24.4629L46.9727-24.4629L46.2402-26.709L12.4512-26.709ZM55.127 0L57.7637 0L30.6152-70.459L29.4434-70.459L29.4434-67.1387Z"/>
  </g>
  <line id="Baseline-L" style="fill:none;stroke:#27AAE1;opacity:1;stroke-width:0.5;" x1="263" x2="3036" y1="1556" y2="1556"/>
  <line id="Capline-L" style="fill:none;stroke:#27AAE1;opacity:1;stroke-width:0.5;" x1="263" x2="3036" y1="1485.54" y2="1485.54"/>
  <line id="left-margin" style="fill:none;stroke:#00AEEF;stroke-width:0.5;opacity:1.0;" x1="1386.83" x2="1386.83" y1="1030.79" y2="1150.12"/>
  <line id="right-margin" style="fill:none;stroke:#00AEEF;stroke-width:0.5;opacity:1.0;" x1="1512.86" x2="1512.86" y1="1030.79" y2="1150.12"/>
 </g>
 <g id="Symbols">
  <g id="Black-L" transform="matrix(1 0 0 1 2847.71 1556)">
   <path d="M95.8008-64.2578L81.9336-50.4395Q85.498-49.8047 88.916-48.2178Q92.334-46.6309 94.4824-44.5312Q99.2676-39.7461 100.879-34.0576Q102.49-28.3691 100.928-22.7051Q99.3652-17.041 94.6289-12.2559L72.5586 9.76562Q67.7734 14.502 62.1094 16.0889Q56.4453 17.6758 50.7812 16.0645Q45.1172 14.4531 40.332 9.66797Q35.5469 4.88281 33.9355-0.805664Q32.3242-6.49414 33.8867-12.1582Q35.4492-17.8223 40.1855-22.5586L45.3613-27.7344Q43.2129-32.7637 42.4316-38.9893Q41.6504-45.2148 43.5547-50.8789L27.0996-34.6191Q20.752-28.3691 17.627-21.0205Q14.502-13.6719 14.502-5.95703Q14.502 1.75781 17.7002 9.13086Q20.8984 16.5039 27.1973 22.8027Q33.4961 29.1504 40.8691 32.2998Q48.2422 35.4492 55.9326 35.4492Q63.623 35.4492 70.9717 32.2998Q78.3203 29.1504 84.6191 22.9004L107.715-0.195312Q114.014-6.49414 117.163-13.8428Q120.312-21.1914 120.288-28.9062Q120.264-36.6211 117.114-43.9697Q113.965-51.3184 107.666-57.6172Q105.713-59.6191 102.466-61.4502Q99.2188-63.2812 95.8008-64.2578ZM75.5859-6.93359L89.4531-20.8008Q85.8887-21.4355 82.4707-22.998Q79.0527-24.5605 76.9043-26.709Q72.1191-31.4941 70.5078-37.1826Q68.8965-42.8711 70.459-48.5352Q72.0215-54.1992 76.7578-58.9355L98.8281-80.957Q103.613-85.7422 109.277-87.3047Q114.941-88.8672 120.605-87.2559Q126.27-85.6445 131.055-80.9082Q135.84-76.0742 137.451-70.4102Q139.062-64.7461 137.5-59.082Q135.938-53.418 131.201-48.6816L126.025-43.5059Q128.174-38.4277 128.955-32.2266Q129.736-26.0254 127.832-20.3125L144.287-36.5723Q150.635-42.8223 153.76-50.1709Q156.885-57.5195 156.885-65.2344Q156.885-72.9492 153.687-80.3223Q150.488-87.6953 144.189-93.9941Q137.891-100.342 130.518-103.516Q123.145-106.689 115.454-106.689Q107.764-106.689 100.415-103.54Q93.0664-100.391 86.7676-94.0918L63.6719-70.9961Q57.373-64.6973 54.2236-57.3486Q51.0742-50 51.0986-42.3096Q51.123-34.6191 54.2725-27.2461Q57.4219-19.873 63.7207-13.5742Q65.6738-11.6211 68.9209-9.76562Q72.168-7.91016 75.5859-6.93359Z"/>
  </g>
  <g id="Heavy-L" transform="matrix(1 0 0 1 2552.27 1556)">
   <path d="M91.7969-63.5742L79.4922-51.2695Q83.8379-50.7324 87.5488-49.0723Q91.2598-47.4121 93.7012-45.0195Q98.6816-40.0391 100.342-34.082Q102.002-28.125 100.366-22.1924Q98.7305-16.2598 93.7988-11.2793L72.0703 10.4004Q67.0898 15.332 61.1572 16.9922Q55.2246 18.6523 49.292 16.9922Q43.3594 15.332 38.3789 10.3516Q33.3984 5.37109 31.7383-0.585938Q30.0781-6.54297 31.7139-12.4756Q33.3496-18.4082 38.2812-23.3398L45.5078-30.5664Q43.6035-35.0098 42.9443-40.4541Q42.2852-45.8984 43.8965-50.8789L26.7578-33.8867Q20.6055-27.832 17.5537-20.6787Q14.502-13.5254 14.502-6.03027Q14.502 1.46484 17.6025 8.61816Q20.7031 15.7715 26.8066 21.9238Q32.959 28.0762 40.1367 31.1523Q47.3145 34.2285 54.7852 34.2285Q62.2559 34.2285 69.3848 31.1523Q76.5137 28.0762 82.6172 22.0215L105.371-0.732422Q111.475-6.83594 114.526-13.9893Q117.578-21.1426 117.578-28.6133Q117.578-36.084 114.502-43.2373Q111.426-50.3906 105.322-56.543Q103.027-58.8379 99.5117-60.7422Q95.9961-62.6465 91.7969-63.5742ZM77.0508-7.71484L89.3555-20.0195Q85.0098-20.5566 81.2988-22.1924Q77.5879-23.8281 75.1465-26.3184Q70.166-31.2988 68.5059-37.2559Q66.8457-43.2129 68.4814-49.1455Q70.1172-55.0781 75.0488-60.0098L96.7773-81.6895Q101.758-86.6699 107.69-88.3057Q113.623-89.9414 119.556-88.2812Q125.488-86.6211 130.469-81.6895Q135.449-76.6602 137.109-70.7031Q138.77-64.7461 137.134-58.8379Q135.498-52.9297 130.566-47.9492L123.34-40.7227Q125.244-36.2793 125.903-30.835Q126.562-25.3906 124.951-20.4102L142.09-37.4023Q148.242-43.457 151.294-50.5859Q154.346-57.7148 154.346-65.21Q154.346-72.7051 151.245-79.8828Q148.145-87.0605 142.041-93.1641Q135.889-99.3652 128.711-102.441Q121.533-105.518 114.062-105.518Q106.592-105.518 99.4629-102.441Q92.334-99.3652 86.2305-93.2617L63.4766-70.5566Q57.373-64.4531 54.3213-57.2998Q51.2695-50.1465 51.2939-42.6758Q51.3184-35.2051 54.3701-28.0518Q57.4219-20.8984 63.5254-14.7461Q65.8203-12.4512 69.3359-10.5469Q72.8516-8.64258 77.0508-7.71484Z"/>
  </g>
  <g id="Bold-L" transform="matrix(1 0 0 1 2256.97 1556)">
   <path d="M87.3535-62.793L76.7578-52.2461Q81.9336-51.8066 85.9863-50.0732Q90.0391-48.3398 92.8223-45.5566Q98.0469-40.3809 99.7803-34.1064Q101.514-27.832 99.7803-21.6064Q98.0469-15.3809 92.8711-10.2051L71.582 11.1328Q66.3574 16.3086 60.1318 18.042Q53.9062 19.7754 47.6562 18.042Q41.4062 16.3086 36.2305 11.1328Q31.0059 5.9082 29.2725-0.341797Q27.5391-6.5918 29.2725-12.8174Q31.0059-19.043 36.1816-24.2188L45.7031-33.7891Q44.0918-37.5488 43.5547-42.1143Q43.0176-46.6797 44.2383-50.8789L26.3672-33.0566Q20.4102-27.1973 17.4561-20.2881Q14.502-13.3789 14.502-6.12793Q14.502 1.12305 17.4805 8.05664Q20.459 14.9902 26.416 20.9473Q32.373 26.9043 39.3066 29.8584Q46.2402 32.8125 53.4668 32.8125Q60.6934 32.8125 67.6025 29.8584Q74.5117 26.9043 80.4199 20.9961L102.734-1.31836Q108.643-7.22656 111.597-14.1357Q114.551-21.0449 114.551-28.2959Q114.551-35.5469 111.597-42.4561Q108.643-49.3652 102.686-55.3223Q100.049-58.0078 96.2158-59.9854Q92.3828-61.9629 87.3535-62.793ZM78.7109-8.59375L89.2578-19.1895Q84.082-19.5801 80.0293-21.3135Q75.9766-23.0469 73.1934-25.8789Q68.0176-31.0547 66.2842-37.3047Q64.5508-43.5547 66.2598-49.8047Q67.9688-56.0547 73.1445-61.1816L94.4824-82.4707Q99.6582-87.6953 105.908-89.4287Q112.158-91.1621 118.384-89.4287Q124.609-87.6953 129.785-82.5195Q135.01-77.2949 136.743-71.0449Q138.477-64.7949 136.743-58.5693Q135.01-52.3438 129.834-47.168L120.312-37.6465Q121.924-33.8379 122.461-29.2969Q122.998-24.7559 121.777-20.5078L139.697-38.3301Q145.605-44.1895 148.56-51.0986Q151.514-58.0078 151.514-65.2344Q151.514-72.4609 148.535-79.3945Q145.557-86.3281 139.6-92.2852Q133.643-98.291 126.709-101.245Q119.775-104.199 112.549-104.199Q105.322-104.199 98.4131-101.245Q91.5039-98.291 85.6445-92.3828L63.3301-70.0684Q57.4219-64.1602 54.4434-57.251Q51.4648-50.3418 51.4893-43.1152Q51.5137-35.8887 54.4678-28.9551Q57.4219-22.0215 63.3789-16.0645Q66.0156-13.4277 69.8486-11.4258Q73.6816-9.42383 78.7109-8.59375Z"/>
  </g>
  <g id="Semibold-L" transform="matrix(1 0 0 1 1961.24 1556)">
   <path d="M84.2285-62.2559L74.8535-52.8809Q80.6152-52.5391 84.9121-50.7324Q89.209-48.9258 92.2363-45.8984Q97.5586-40.5762 99.3408-34.1064Q101.123-27.6367 99.3408-21.1914Q97.5586-14.7461 92.2363-9.42383L71.1914 11.6211Q65.8203 16.9434 59.375 18.75Q52.9297 20.5566 46.4844 18.7744Q40.0391 16.9922 34.7168 11.6699Q29.3457 6.29883 27.5635-0.170898Q25.7812-6.64062 27.5879-13.0615Q29.3945-19.4824 34.7168-24.8047L45.8496-35.9375Q44.4336-39.2578 43.9697-43.2129Q43.5059-47.168 44.4824-50.8301L26.0742-32.4707Q20.2637-26.7578 17.3828-20.0195Q14.502-13.2812 14.502-6.20117Q14.502 0.878906 17.4072 7.6416Q20.3125 14.4043 26.123 20.2148Q31.9824 26.0742 38.7451 28.9551Q45.5078 31.8359 52.5635 31.8359Q59.6191 31.8359 66.3818 28.9551Q73.1445 26.0742 78.8574 20.3125L100.879-1.70898Q106.641-7.4707 109.546-14.2334Q112.451-20.9961 112.451-28.0518Q112.451-35.1074 109.57-41.8701Q106.689-48.6328 100.83-54.4922Q97.9492-57.373 93.8965-59.3994Q89.8438-61.4258 84.2285-62.2559ZM79.834-9.17969L89.1602-18.5547Q83.3984-18.8965 79.126-20.7031Q74.8535-22.5098 71.8262-25.5371Q66.5039-30.8594 64.7217-37.3291Q62.9395-43.7988 64.7217-50.2441Q66.5039-56.6895 71.8262-62.0117L92.8711-83.0078Q98.2422-88.3789 104.688-90.1611Q111.133-91.9434 117.554-90.1855Q123.975-88.4277 129.346-83.1055Q134.668-77.6855 136.45-71.2402Q138.232-64.7949 136.45-58.374Q134.668-51.9531 129.346-46.6309L118.213-35.498Q119.629-32.1777 120.093-28.2227Q120.557-24.2676 119.58-20.5566L137.988-38.916Q143.799-44.6777 146.68-51.416Q149.561-58.1543 149.561-65.21Q149.561-72.2656 146.655-79.0527Q143.75-85.8398 137.939-91.6504Q132.08-97.5098 125.317-100.391Q118.555-103.271 111.475-103.271Q104.395-103.271 97.6562-100.391Q90.918-97.5098 85.2051-91.748L63.1836-69.6777Q57.4219-63.916 54.5166-57.1777Q51.6113-50.4395 51.6113-43.3838Q51.6113-36.3281 54.4922-29.541Q57.373-22.7539 63.2324-16.9434Q66.1133-14.0625 70.166-12.0117Q74.2188-9.96094 79.834-9.17969Z"/>
  </g>
  <g id="Medium-L" transform="matrix(1 0 0 1 1665.26 1556)">
   <path d="M81.8848-61.8652L73.4375-53.3691Q79.6387-53.0762 84.1064-51.2451Q88.5742-49.4141 91.748-46.1914Q97.2168-40.7715 99.0234-34.1309Q100.83-27.4902 99.0234-20.874Q97.2168-14.2578 91.748-8.83789L70.8984 11.9629Q65.4297 17.4316 58.8379 19.2871Q52.2461 21.1426 45.6299 19.3115Q39.0137 17.4805 33.5938 12.0605Q28.0762 6.54297 26.2695-0.0488281Q24.4629-6.64062 26.3184-13.2324Q28.1738-19.8242 33.6426-25.293L45.8984-37.6465Q44.6777-40.5762 44.2871-44.0674Q43.8965-47.5586 44.6777-50.8301L25.8789-32.0801Q20.2148-26.4648 17.3584-19.8242Q14.502-13.1836 14.502-6.25Q14.502 0.683594 17.334 7.32422Q20.166 13.9648 25.9277 19.7266Q31.6406 25.4883 38.3057 28.2959Q44.9707 31.1035 51.9043 31.1035Q58.8379 31.1035 65.4541 28.2715Q72.0703 25.4395 77.6855 19.7754L99.5117-2.05078Q105.176-7.71484 108.008-14.3311Q110.84-20.9473 110.84-27.8809Q110.84-34.8145 108.008-41.4551Q105.176-48.0957 99.4629-53.8574Q96.3867-56.9336 92.1875-59.0088Q87.9883-61.084 81.8848-61.8652ZM80.6641-9.61914L89.1113-18.1152Q82.8613-18.4082 78.4424-20.2393Q74.0234-22.0703 70.8008-25.293Q65.332-30.7129 63.5254-37.3535Q61.7188-43.9941 63.5498-50.6104Q65.3809-57.2266 70.8496-62.5977L91.6504-83.4473Q97.1191-88.916 103.735-90.7471Q110.352-92.5781 116.919-90.7715Q123.486-88.9648 128.955-83.5449Q134.424-78.0273 136.23-71.4355Q138.037-64.8438 136.23-58.252Q134.424-51.6602 128.955-46.1914L116.65-33.8379Q117.92-30.9082 118.311-27.417Q118.701-23.9258 117.92-20.6543L136.719-39.4043Q142.383-45.0195 145.239-51.6602Q148.096-58.3008 148.096-65.2344Q148.096-72.168 145.239-78.8086Q142.383-85.4492 136.67-91.2109Q130.908-96.9238 124.268-99.7559Q117.627-102.588 110.669-102.588Q103.711-102.588 97.1191-99.7559Q90.5273-96.9238 84.8633-91.2598L63.0859-69.4336Q57.4219-63.7695 54.5654-57.1533Q51.709-50.5371 51.709-43.6035Q51.709-36.6699 54.541-30.0049Q57.373-23.3398 63.1348-17.627Q66.2109-14.5508 70.4102-12.4756Q74.6094-10.4004 80.6641-9.61914Z"/>
  </g>
  <g id="Regular-L" transform="matrix(1 0 0 1 1369.52 1556)">
   <path d="M78.8574-61.3281L71.582-54.0039Q78.3691-53.8086 83.0566-51.9043Q87.7441-50 91.1621-46.5332Q96.7773-40.9668 98.6328-34.1309Q100.488-27.2949 98.6084-20.4834Q96.7285-13.6719 91.1133-8.10547L70.5566 12.4512Q64.9414 18.0664 58.1299 19.9707Q51.3184 21.875 44.5068 20.0195Q37.6953 18.1641 32.1289 12.5977Q26.4648 6.93359 24.6094 0.12207Q22.7539-6.68945 24.6582-13.4766Q26.5625-20.2637 32.1777-25.8789L46.0449-39.7949Q44.9707-42.2852 44.6777-45.1904Q44.3848-48.0957 44.9219-50.8301L25.5859-31.4941Q20.0684-26.0254 17.2852-19.5557Q14.502-13.0859 14.502-6.32324Q14.502 0.439453 17.2607 6.93359Q20.0195 13.4277 25.6348 19.043Q31.25 24.6582 37.7441 27.417Q44.2383 30.1758 51.001 30.1758Q57.7637 30.1758 64.2334 27.3926Q70.7031 24.6094 76.1719 19.0918L97.7051-2.44141Q103.223-7.95898 106.006-14.4287Q108.789-20.8984 108.789-27.6611Q108.789-34.4238 106.03-40.918Q103.271-47.4121 97.6562-53.0273Q94.3359-56.3477 89.917-58.4717Q85.498-60.5957 78.8574-61.3281ZM81.7871-10.2051L89.0137-17.5293Q82.2266-17.7246 77.5635-19.6289Q72.9004-21.5332 69.4824-25Q63.8672-30.5664 62.0117-37.4023Q60.1562-44.2383 62.0361-51.0498Q63.916-57.8613 69.5312-63.4277L90.0879-83.9844Q95.7031-89.5996 102.515-91.5039Q109.326-93.4082 116.113-91.5527Q122.9-89.6973 128.516-84.1309Q134.131-78.4668 135.986-71.6553Q137.842-64.8438 135.962-58.0566Q134.082-51.2695 128.467-45.6543L114.6-31.7383Q115.674-29.248 115.967-26.3428Q116.26-23.4375 115.723-20.7031L135.059-40.0391Q140.576-45.5078 143.359-51.9775Q146.143-58.4473 146.143-65.21Q146.143-71.9727 143.359-78.4668Q140.576-84.9609 135.01-90.5762Q129.395-96.1914 122.9-98.9502Q116.406-101.709 109.619-101.709Q102.832-101.709 96.3867-98.9258Q89.9414-96.1426 84.4727-90.625L62.9395-69.0918Q57.4219-63.5742 54.6387-57.1045Q51.8555-50.6348 51.8555-43.8721Q51.8555-37.1094 54.6143-30.6152Q57.373-24.1211 62.9883-18.5059Q66.3086-15.1855 70.7275-13.0615Q75.1465-10.9375 81.7871-10.2051Z"/>
  </g>
  <g id="Light-L" transform="matrix(1 0 0 1 1074.18 1556)">
   <path d="M74.4141-60.791L68.6523-55.0781Q76.2207-55.2734 81.4697-53.2959Q86.7188-51.3184 90.625-47.3633Q96.3867-41.6504 98.2666-34.5703Q100.146-27.4902 98.1934-20.4346Q96.2402-13.3789 90.4297-7.61719L69.873 12.8906Q64.0625 18.7012 57.0068 20.6787Q49.9512 22.6562 42.9199 20.7764Q35.8887 18.8965 30.1758 13.1348Q24.3652 7.37305 22.4609 0.317383Q20.5566-6.73828 22.5342-13.7695Q24.5117-20.8008 30.3223-26.6113L46.2891-42.627Q45.5078-44.3848 45.3125-46.7041Q45.1172-49.0234 45.7031-51.3184L25.1953-30.8105Q19.873-25.4883 17.1875-19.2627Q14.502-13.0371 14.4775-6.49414Q14.4531 0.0488281 17.1387 6.32324Q19.8242 12.5977 25.2441 18.0664Q30.6641 23.4863 36.9385 26.1475Q43.2129 28.8086 49.7559 28.7842Q56.2988 28.7598 62.5488 26.0742Q68.7988 23.3887 74.0723 18.1152L95.5566-3.41797Q100.879-8.74023 103.564-14.9902Q106.25-21.2402 106.274-27.7588Q106.299-34.2773 103.638-40.5762Q100.977-46.875 95.5566-52.2949Q91.748-56.0547 86.792-58.2764Q81.8359-60.498 74.4141-60.791ZM83.4961-10.7422L89.209-16.5039Q81.6406-16.2598 76.416-18.2617Q71.1914-20.2637 67.2852-24.1699Q61.5234-29.9316 59.6191-36.9873Q57.7148-44.043 59.6924-51.0986Q61.6699-58.1543 67.4805-63.916L88.0371-84.4238Q93.8477-90.2344 100.879-92.2119Q107.91-94.1895 114.941-92.3096Q121.973-90.4297 127.734-84.7168Q133.496-78.9062 135.4-71.875Q137.305-64.8438 135.327-57.7881Q133.35-50.7324 127.539-44.9219L111.572-28.9551Q112.354-27.1484 112.573-24.8535Q112.793-22.5586 112.207-20.2637L132.715-40.7715Q138.037-46.0449 140.723-52.2949Q143.408-58.5449 143.408-65.0879Q143.408-71.6309 140.747-77.9053Q138.086-84.1797 132.666-89.5996Q127.246-95.0195 120.947-97.6807Q114.648-100.342 108.105-100.342Q101.562-100.342 95.3369-97.6562Q89.1113-94.9707 83.8379-89.6484L62.3047-68.1152Q57.0312-62.8418 54.3213-56.5918Q51.6113-50.3418 51.6113-43.7988Q51.6113-37.2559 54.2725-30.9814Q56.9336-24.707 62.3535-19.2871Q66.1621-15.4785 71.0938-13.2568Q76.0254-11.0352 83.4961-10.7422Z"/>
  </g>
  <g id="Thin-L" transform="matrix(1 0 0 1 779.298 1556)">
   <path d="M68.5547-60.1562L64.7949-56.4453Q73.3887-57.2266 79.3701-55.127Q85.3516-53.0273 89.8438-48.4863Q95.8496-42.5293 97.8027-35.1562Q99.7559-27.7832 97.6807-20.3857Q95.6055-12.9883 89.502-6.98242L68.9941 13.4766Q62.9395 19.5312 55.542 21.6064Q48.1445 23.6816 40.8203 21.7773Q33.4961 19.873 27.5391 13.916Q21.582 7.91016 19.6289 0.585938Q17.6758-6.73828 19.751-14.1357Q21.8262-21.5332 27.9297-27.5879L46.6309-46.3379Q46.2402-47.2168 46.1426-48.7061Q46.0449-50.1953 46.7285-51.9043L24.6582-29.8828Q19.6289-24.8535 17.0654-18.8965Q14.502-12.9395 14.4775-6.71387Q14.4531-0.488281 16.9922 5.51758Q19.5312 11.5234 24.707 16.6992Q29.8828 21.9238 35.8887 24.4385Q41.8945 26.9531 48.1445 26.9531Q54.3945 26.9531 60.3271 24.3652Q66.2598 21.7773 71.2891 16.748L92.7246-4.6875Q97.8027-9.76562 100.366-15.6982Q102.93-21.6309 102.954-27.8809Q102.979-34.1309 100.464-40.1367Q97.9492-46.1426 92.7246-51.3184Q88.3301-55.7129 82.666-58.0322Q77.002-60.3516 68.5547-60.1562ZM85.7422-11.4258L89.4531-15.1367Q80.8594-14.3555 74.9023-16.4551Q68.9453-18.5547 64.4043-23.0957Q58.3984-29.0527 56.4697-36.4258Q54.541-43.7988 56.6162-51.1719Q58.6914-58.5449 64.7461-64.5996L85.2539-85.0586Q91.3574-91.1133 98.7305-93.1885Q106.104-95.2637 113.428-93.335Q120.752-91.4062 126.709-85.498Q132.666-79.4922 134.619-72.1436Q136.572-64.7949 134.497-57.4219Q132.422-50.0488 126.367-43.9453L107.617-25.2441Q108.008-24.4141 108.105-22.9004Q108.203-21.3867 107.568-19.6289L129.59-41.6992Q134.619-46.7285 137.207-52.6855Q139.795-58.6426 139.795-64.8926Q139.795-71.1426 137.256-77.1484Q134.717-83.1543 129.59-88.2812Q124.414-93.5059 118.384-96.0449Q112.354-98.584 106.104-98.5352Q99.8535-98.4863 93.9209-95.9473Q87.9883-93.4082 83.0078-88.3789L61.4746-66.8945Q56.4941-61.8652 53.9062-55.9082Q51.3184-49.9512 51.2939-43.7012Q51.2695-37.4512 53.8086-31.4453Q56.3477-25.4395 61.5234-20.3125Q65.918-15.8691 71.5576-13.5498Q77.1973-11.2305 85.7422-11.4258Z"/>
  </g>
  <g id="Ultralight-L" transform="matrix(1 0 0 1 483.515 1556)">
   <path d="M65.5762-59.7656L62.8418-57.1777Q71.9238-58.2031 78.2959-56.0547Q84.668-53.9062 89.502-49.0234Q95.5566-42.9688 97.5342-35.4492Q99.5117-27.9297 97.3877-20.3613Q95.2637-12.793 89.0137-6.64062L68.5547 13.7695Q62.3535 19.9219 54.7852 22.0459Q47.2168 24.1699 39.7217 22.2656Q32.2266 20.3613 26.2207 14.2578Q20.166 8.20312 18.1885 0.708008Q16.2109-6.78711 18.3105-14.3311Q20.4102-21.875 26.6602-28.125L46.8262-48.2422Q46.582-48.6328 46.5576-49.7314Q46.5332-50.8301 47.2168-52.2461L24.4141-29.3945Q19.4824-24.4629 16.9922-18.6768Q14.502-12.8906 14.4531-6.81152Q14.4043-0.732422 16.8945 5.12695Q19.3848 10.9863 24.4141 16.0645Q29.4922 21.0938 35.3516 23.5596Q41.2109 26.0254 47.3145 26.001Q53.418 25.9766 59.2041 23.4863Q64.9902 20.9961 69.873 16.1133L91.3086-5.37109Q96.2402-10.2539 98.7305-16.0645Q101.221-21.875 101.27-27.9541Q101.318-34.0332 98.8525-39.917Q96.3867-45.8008 91.3086-50.7812Q86.5723-55.5176 80.5664-57.8857Q74.5605-60.2539 65.5762-59.7656ZM86.8652-11.8164L89.5508-14.4531Q80.4688-13.3789 74.1211-15.5273Q67.7734-17.6758 62.8906-22.5586Q56.8359-28.6133 54.8584-36.1328Q52.8809-43.6523 55.0049-51.2207Q57.1289-58.7891 63.3789-64.9414L83.8867-85.3516Q90.0879-91.5527 97.6074-93.6768Q105.127-95.8008 112.622-93.8721Q120.117-91.9434 126.172-85.8887Q132.275-79.7852 134.253-72.29Q136.23-64.7949 134.082-57.2266Q131.934-49.6582 125.732-43.457L105.566-23.3398Q105.762-22.998 105.811-21.8994Q105.859-20.8008 105.176-19.3359L127.979-42.1875Q132.91-47.1191 135.425-52.9053Q137.939-58.6914 137.964-64.7949Q137.988-70.8984 135.522-76.7578Q133.057-82.6172 128.027-87.6465Q122.949-92.6758 117.065-95.166Q111.182-97.6562 105.078-97.6074Q98.9746-97.5586 93.2129-95.0684Q87.4512-92.5781 82.5684-87.6953L61.084-66.2109Q56.2012-61.3281 53.6865-55.5176Q51.1719-49.707 51.123-43.6279Q51.0742-37.5488 53.5645-31.6895Q56.0547-25.8301 61.084-20.8008Q65.8203-16.0645 71.8262-13.6719Q77.832-11.2793 86.8652-11.8164Z"/>
  </g>
  <g id="Black-M" transform="matrix(1 0 0 1 2866.38 1126)">
   <path d="M76.1719-58.1543L64.5508-46.6309Q66.9434-46.1914 69.5557-45.0195Q72.168-43.8477 73.6816-42.2852Q77.2949-38.7207 78.5156-34.4482Q79.7363-30.1758 78.5645-25.9277Q77.3926-21.6797 73.8281-18.1152L56.3965-0.732422Q52.832 2.83203 48.584 4.00391Q44.3359 5.17578 40.0879 3.97949Q35.8398 2.7832 32.2754-0.830078Q28.6621-4.39453 27.4414-8.66699Q26.2207-12.9395 27.3926-17.1631Q28.5645-21.3867 32.1289-25L35.1074-27.9297Q33.3008-32.1289 32.6416-37.4023Q31.9824-42.6758 33.7402-47.5098L21.1914-35.1562Q14.502-28.6133 12.3047-20.5811Q10.1074-12.5488 12.3535-4.49219Q14.5996 3.56445 21.2402 10.1562Q27.8809 16.8457 35.9131 19.043Q43.9453 21.2402 51.9531 19.043Q59.9609 16.8457 66.5527 10.2539L84.8145-7.95898Q91.4062-14.5508 93.6035-22.583Q95.8008-30.6152 93.5791-38.6475Q91.3574-46.6797 84.7168-53.2715Q83.3496-54.6875 80.9082-56.0791Q78.4668-57.4707 76.1719-58.1543ZM57.8613-12.8418L69.4824-24.3652Q67.0898-24.8047 64.502-25.9766Q61.9141-27.1484 60.3516-28.6621Q56.7383-32.2754 55.5176-36.5479Q54.2969-40.8203 55.4932-45.0439Q56.6895-49.2676 60.2539-52.832L77.6855-70.2148Q81.25-73.8281 85.498-75Q89.7461-76.1719 93.9697-74.9512Q98.1934-73.7305 101.807-70.166Q105.371-66.5527 106.592-62.3047Q107.812-58.0566 106.641-53.8086Q105.469-49.5605 101.904-45.9961L98.9746-43.0664Q100.781-38.8672 101.44-33.5938Q102.1-28.3203 100.342-23.4375L112.891-35.8398Q119.58-42.3828 121.753-50.415Q123.926-58.4473 121.68-66.4795Q119.434-74.5117 112.842-81.1523Q106.152-87.793 98.1445-90.0146Q90.1367-92.2363 82.1289-90.0391Q74.1211-87.8418 67.4805-81.2012L49.2676-63.0371Q42.627-56.3965 40.4541-48.3887Q38.2812-40.3809 40.4785-32.3486Q42.6758-24.3164 49.3164-17.7246Q50.7324-16.3086 53.1738-14.8926Q55.6152-13.4766 57.8613-12.8418Z"/>
  </g>
  <g id="Heavy-M" transform="matrix(1 0 0 1 2570.62 1126)">
   <path d="M73.1934-57.5684L62.793-47.2168Q65.7715-46.8262 68.5547-45.5811Q71.3379-44.3359 73.0469-42.5781Q76.8066-38.8672 78.0762-34.375Q79.3457-29.8828 78.125-25.4395Q76.9043-20.9961 73.1445-17.2363L56.0547-0.195312Q52.3438 3.51562 47.9004 4.73633Q43.457 5.95703 38.9893 4.71191Q34.5215 3.4668 30.8105-0.292969Q27.002-4.00391 25.7568-8.49609Q24.5117-12.9883 25.7324-17.4072Q26.9531-21.8262 30.6641-25.6348L35.2051-30.127Q33.5938-33.8379 33.0322-38.501Q32.4707-43.1641 33.8867-47.4121L20.8984-34.5703Q14.4531-28.2227 12.3047-20.4102Q10.1562-12.5977 12.3291-4.76074Q14.502 3.07617 20.9473 9.52148Q27.4414 16.0156 35.2539 18.1641Q43.0664 20.3125 50.8545 18.1641Q58.6426 16.0156 65.0391 9.61914L82.959-8.25195Q89.3555-14.6973 91.5039-22.5098Q93.6523-30.3223 91.5039-38.1348Q89.3555-45.9473 82.8613-52.3438Q81.2988-54.0039 78.6865-55.4443Q76.0742-56.8848 73.1934-57.5684ZM58.9355-13.4766L69.3359-23.8281Q66.3574-24.2676 63.623-25.4883Q60.8887-26.709 59.1309-28.4668Q55.3223-32.2266 54.0527-36.6943Q52.7832-41.1621 54.0283-45.6055Q55.2734-50.0488 59.0332-53.7598L76.0742-70.8008Q79.834-74.5605 84.2773-75.8057Q88.7207-77.0508 93.1641-75.7812Q97.6074-74.5117 101.416-70.8008Q105.127-66.9922 106.396-62.5488Q107.666-58.1055 106.421-53.6377Q105.176-49.1699 101.465-45.459L96.9727-40.9668Q98.584-37.207 99.1455-32.5684Q99.707-27.9297 98.291-23.6328L111.279-36.4746Q117.725-42.8711 119.873-50.6592Q122.021-58.4473 119.824-66.2842Q117.627-74.1211 111.23-80.5664Q104.688-87.0605 96.8994-89.209Q89.1113-91.3574 81.3232-89.209Q73.5352-87.0605 67.0898-80.6152L49.2188-62.793Q42.7734-56.3477 40.6494-48.5596Q38.5254-40.7715 40.6738-32.959Q42.8223-25.1465 49.2676-18.7012Q50.9277-17.0898 53.5156-15.625Q56.1035-14.1602 58.9355-13.4766Z"/>
  </g>
  <g id="Bold-M" transform="matrix(1 0 0 1 2274.96 1126)">
   <path d="M69.9219-56.9824L60.8398-47.9004Q64.4531-47.5098 67.4072-46.2158Q70.3613-44.9219 72.3145-42.9199Q76.2695-39.0137 77.5879-34.3018Q78.9062-29.5898 77.6123-24.9023Q76.3184-20.2148 72.4121-16.3086L55.7129 0.390625Q51.8066 4.29688 47.1191 5.59082Q42.4316 6.88477 37.7441 5.59082Q33.0566 4.29688 29.1504 0.341797Q25.1953-3.61328 23.877-8.3252Q22.5586-13.0371 23.8525-17.7002Q25.1465-22.3633 29.0527-26.3184L35.3516-32.5684Q33.9355-35.791 33.4717-39.7461Q33.0078-43.7012 34.082-47.3145L20.6055-33.9844Q14.3555-27.7832 12.2803-20.2148Q10.2051-12.6465 12.3047-5.05371Q14.4043 2.53906 20.6543 8.78906Q26.9531 15.0879 34.5215 17.1631Q42.0898 19.2383 49.6338 17.1631Q57.1777 15.0879 63.3789 8.88672L80.8594-8.64258Q87.1094-14.8438 89.1846-22.4121Q91.2598-29.9805 89.1846-37.5488Q87.1094-45.1172 80.8105-51.3672Q78.9551-53.2227 76.1719-54.7119Q73.3887-56.2012 69.9219-56.9824ZM60.1562-14.209L69.1895-23.2422Q65.5762-23.6816 62.6465-24.9756Q59.7168-26.2695 57.7148-28.2227Q53.7598-32.1777 52.4414-36.8896Q51.123-41.6016 52.4414-46.2646Q53.7598-50.9277 57.666-54.834L74.3164-71.4844Q78.2715-75.4395 82.959-76.7334Q87.6465-78.0273 92.3096-76.709Q96.9727-75.3906 100.928-71.4844Q104.834-67.5293 106.152-62.8418Q107.471-58.1543 106.177-53.4668Q104.883-48.7793 100.977-44.873L94.7266-38.623Q96.1426-35.3516 96.6064-31.4209Q97.0703-27.4902 95.9961-23.8281L109.473-37.207Q115.723-43.4082 117.798-50.9521Q119.873-58.4961 117.773-66.0645Q115.674-73.6328 109.424-79.9316Q103.076-86.2305 95.5322-88.3057Q87.9883-90.3809 80.4443-88.3057Q72.9004-86.2305 66.6504-79.9805L49.2188-62.5488Q42.9688-56.2988 40.8936-48.7549Q38.8184-41.2109 40.8936-33.6426Q42.9688-26.0742 49.2676-19.8242Q51.123-17.9199 53.9062-16.4307Q56.6895-14.9414 60.1562-14.209Z"/>
  </g>
  <g id="Semibold-M" transform="matrix(1 0 0 1 1978.98 1126)">
   <path d="M67.627-56.543L59.4727-48.3398Q63.5254-47.9492 66.626-46.6064Q69.7266-45.2637 71.8262-43.1641Q75.8789-39.1113 77.2217-34.2285Q78.5645-29.3457 77.2461-24.4873Q75.9277-19.6289 71.875-15.625L55.4688 0.78125Q51.416 4.78516 46.582 6.12793Q41.748 7.4707 36.8896 6.15234Q32.0312 4.83398 27.9785 0.78125Q23.9258-3.27148 22.583-8.1543Q21.2402-13.0371 22.583-17.8711Q23.9258-22.7051 27.9297-26.7578L35.4004-34.2285Q34.1309-37.1094 33.7402-40.5762Q33.3496-44.043 34.1797-47.2168L20.4102-33.5449Q14.3066-27.4414 12.2559-20.0684Q10.2051-12.6953 12.2559-5.27344Q14.3066 2.14844 20.459 8.25195Q26.6113 14.4531 34.0088 16.4795Q41.4062 18.5059 48.7793 16.4551Q56.1523 14.4043 62.207 8.34961L79.4434-8.83789Q85.498-14.9414 87.5488-22.3389Q89.5996-29.7363 87.5732-37.1338Q85.5469-44.5312 79.3457-50.6348Q77.3438-52.6855 74.4385-54.2236Q71.5332-55.7617 67.627-56.543ZM60.9375-14.6973L69.0918-22.8516Q65.0391-23.2422 61.9629-24.585Q58.8867-25.9277 56.7383-28.0273Q52.6855-32.1289 51.3184-36.9873Q49.9512-41.8457 51.2939-46.6797Q52.6367-51.5137 56.6895-55.5664L73.0957-71.9238Q77.1484-75.9766 82.0068-77.3193Q86.8652-78.6621 91.6992-77.3193Q96.5332-75.9766 100.586-71.9238Q104.639-67.8711 105.981-63.0127Q107.324-58.1543 106.006-53.2959Q104.688-48.4375 100.635-44.4336L93.1641-36.9629Q94.4336-34.0332 94.8486-30.5908Q95.2637-27.1484 94.4336-23.9746L108.203-37.6953Q114.307-43.75 116.333-51.123Q118.359-58.4961 116.309-65.8936Q114.258-73.291 108.154-79.4434Q101.953-85.6445 94.5557-87.6709Q87.1582-89.6973 79.7852-87.6465Q72.4121-85.5957 66.3086-79.4922L49.1699-62.3535Q43.0664-56.25 41.0156-48.877Q38.9648-41.5039 41.0156-34.082Q43.0664-26.6602 49.2188-20.5566Q51.2207-18.5059 54.126-16.9678Q57.0312-15.4297 60.9375-14.6973Z"/>
  </g>
  <g id="Medium-M" transform="matrix(1 0 0 1 1682.81 1126)">
   <path d="M65.8691-56.2012L58.4473-48.7305Q62.8418-48.291 66.0156-46.9238Q69.1895-45.5566 71.4355-43.3105Q75.5859-39.1602 76.9531-34.1553Q78.3203-29.1504 76.9775-24.1943Q75.6348-19.2383 71.4844-15.0879L55.2734 1.07422Q51.1719 5.17578 46.1914 6.56738Q41.2109 7.95898 36.2305 6.5918Q31.25 5.22461 27.0996 1.07422Q22.998-3.07617 21.6064-8.05664Q20.2148-13.0371 21.582-18.0176Q22.9492-22.998 27.0996-27.0996L35.4492-35.498Q34.3262-38.1348 33.9844-41.2354Q33.6426-44.3359 34.2773-47.168L20.2148-33.2031Q14.2578-27.1973 12.2314-19.9463Q10.2051-12.6953 12.2314-5.41992Q14.2578 1.85547 20.2637 7.86133Q26.3672 13.9648 33.6426 15.9668Q40.918 17.9688 48.1689 15.9424Q55.4199 13.916 61.3281 7.95898L78.3203-9.0332Q84.3262-15.0391 86.3281-22.29Q88.3301-29.541 86.3281-36.8164Q84.3262-44.0918 78.2715-50.0977Q76.123-52.2949 73.1201-53.833Q70.1172-55.3711 65.8691-56.2012ZM61.5723-15.0391L68.9941-22.5098Q64.5996-22.9004 61.4258-24.292Q58.252-25.6836 56.0059-27.8809Q51.8555-32.0801 50.4639-37.0605Q49.0723-42.041 50.4639-47.0215Q51.8555-52.002 55.957-56.1035L72.168-72.3145Q76.3184-76.416 81.2988-77.8076Q86.2793-79.1992 91.2354-77.832Q96.1914-76.4648 100.342-72.2656Q104.492-68.1641 105.884-63.1592Q107.275-58.1543 105.884-53.1982Q104.492-48.2422 100.391-44.0918L91.9922-35.7422Q93.1641-33.0566 93.5059-29.9805Q93.8477-26.9043 93.2129-24.0723L107.227-38.0371Q113.232-44.043 115.234-51.2939Q117.236-58.5449 115.234-65.7959Q113.232-73.0469 107.178-79.1016Q101.123-85.2051 93.8477-87.207Q86.5723-89.209 79.3213-87.1826Q72.0703-85.1562 66.0645-79.1504L49.1699-62.207Q43.1641-56.2012 41.1377-48.9502Q39.1113-41.6992 41.1133-34.4238Q43.1152-27.1484 49.2188-21.1426Q51.3184-18.9453 54.3213-17.3828Q57.3242-15.8203 61.5723-15.0391Z"/>
  </g>
  <g id="Regular-M" transform="matrix(1 0 0 1 1386.83 1126)">
   <path d="M63.623-55.7617L57.1289-49.1699Q61.9629-48.7793 65.2588-47.3633Q68.5547-45.9473 70.9473-43.5547Q75.1953-39.2578 76.6113-34.1064Q78.0273-28.9551 76.6357-23.8281Q75.2441-18.7012 70.9961-14.4531L55.0293 1.46484Q50.7812 5.71289 45.6543 7.12891Q40.5273 8.54492 35.376 7.15332Q30.2246 5.76172 25.9766 1.51367Q21.7285-2.7832 20.3125-7.93457Q18.8965-13.0859 20.3125-18.2129Q21.7285-23.3398 25.9766-27.5879L35.5469-37.1582Q34.5215-39.4531 34.2529-42.0654Q33.9844-44.6777 34.375-47.0703L20.0195-32.7637Q14.209-26.9043 12.2314-19.8242Q10.2539-12.7441 12.207-5.63965Q14.1602 1.46484 20.0684 7.37305Q26.0254 13.3301 33.1299 15.2832Q40.2344 17.2363 47.3145 15.2588Q54.3945 13.2812 60.2051 7.4707L76.9043-9.27734Q82.7637-15.1367 84.7412-22.2168Q86.7188-29.2969 84.7656-36.4014Q82.8125-43.5059 76.8555-49.4141Q74.5605-51.7578 71.4355-53.3447Q68.3105-54.9316 63.623-55.7617ZM62.4023-15.5273L68.8965-22.1191Q64.0625-22.5098 60.7666-23.9258Q57.4707-25.3418 55.0781-27.7344Q50.7812-32.0312 49.3652-37.1826Q47.9492-42.334 49.3652-47.4609Q50.7812-52.5879 55.0293-56.8359L70.9473-72.7539Q75.2441-77.002 80.3711-78.418Q85.498-79.834 90.625-78.4424Q95.752-77.0508 100.049-72.7539Q104.297-68.5059 105.713-63.3545Q107.129-58.2031 105.713-53.0762Q104.297-47.9492 100.049-43.7012L90.4785-34.1309Q91.5039-31.7871 91.7725-29.1992Q92.041-26.6113 91.6504-24.2188L106.006-38.5254Q111.816-44.3848 113.794-51.4648Q115.771-58.5449 113.818-65.6494Q111.865-72.7539 105.957-78.6621Q100-84.6191 92.8955-86.5723Q85.791-88.5254 78.7109-86.5479Q71.6309-84.5703 65.7715-78.7109L49.1211-62.0117Q43.2617-56.1523 41.2842-49.0723Q39.3066-41.9922 41.2598-34.8877Q43.2129-27.7832 49.1699-21.875Q51.4648-19.5312 54.5898-17.9443Q57.7148-16.3574 62.4023-15.5273Z"/>
  </g>
  <g id="Light-M" transform="matrix(1 0 0 1 1091.37 1126)">
   <path d="M59.6191-55.2734L54.4922-50.1465Q60.0098-50.0977 63.8184-48.6084Q67.627-47.1191 70.459-44.2871Q74.8535-39.8438 76.2939-34.4971Q77.7344-29.1504 76.2695-23.8037Q74.8047-18.457 70.3613-14.0137L54.4434 1.85547Q50 6.25 44.6533 7.76367Q39.3066 9.27734 33.96 7.83691Q28.6133 6.39648 24.2188 2.05078Q19.8242-2.39258 18.3838-7.76367Q16.9434-13.1348 18.4082-18.4814Q19.873-23.8281 24.3164-28.2715L35.791-39.6973Q35.0098-41.3574 34.8145-43.4326Q34.6191-45.5078 35.0586-47.4609L19.6777-32.1289Q14.1113-26.5137 12.1826-19.7021Q10.2539-12.8906 12.1338-6.05469Q14.0137 0.78125 19.7266 6.49414Q25.4395 12.207 32.2754 14.0869Q39.1113 15.9668 45.9229 14.0625Q52.7344 12.1582 58.3008 6.54297L75-10.1562Q80.6152-15.7715 82.5195-22.583Q84.4238-29.3945 82.5684-36.2305Q80.7129-43.0664 74.9512-48.7305Q72.2656-51.5137 68.6523-53.1738Q65.0391-54.834 59.6191-55.2734ZM63.916-16.0156L69.043-21.1914Q63.5254-21.1914 59.7168-22.6807Q55.9082-24.1699 53.125-27.002Q48.6816-31.4453 47.2412-36.792Q45.8008-42.1387 47.2656-47.5098Q48.7305-52.8809 53.1738-57.2754L69.0918-73.1445Q73.5352-77.5879 78.9062-79.0771Q84.2773-80.5664 89.5996-79.126Q94.9219-77.6855 99.3164-73.291Q103.76-68.8965 105.2-63.5498Q106.641-58.2031 105.151-52.832Q103.662-47.4609 99.2188-43.0664L87.793-31.6406Q88.5742-29.9316 88.7451-27.8809Q88.916-25.8301 88.5254-23.8281L103.906-39.1602Q109.473-44.7754 111.377-51.5869Q113.281-58.3984 111.426-65.2588Q109.57-72.1191 103.857-77.7832Q98.1445-83.4961 91.2842-85.376Q84.4238-87.2559 77.6123-85.3516Q70.8008-83.4473 65.2344-77.832L48.584-61.1816Q42.9199-55.5664 41.04-48.7305Q39.1602-41.8945 41.0156-35.0586Q42.8711-28.2227 48.584-22.5586Q51.3184-19.7754 54.9072-18.1152Q58.4961-16.4551 63.916-16.0156Z"/>
  </g>
  <g id="Thin-M" transform="matrix(1 0 0 1 796.266 1126)">
   <path d="M54.3945-54.6875L51.0254-51.3672Q57.4707-51.8555 61.9385-50.2441Q66.4062-48.6328 69.7754-45.2637Q74.3652-40.6738 75.8545-35.0342Q77.3438-29.3945 75.7812-23.7549Q74.2188-18.1152 69.5312-13.4766L53.6621 2.39258Q48.9746 7.03125 43.335 8.61816Q37.6953 10.2051 32.0801 8.71582Q26.4648 7.22656 21.875 2.68555Q17.2852-1.9043 15.7959-7.51953Q14.3066-13.1348 15.8936-18.7988Q17.4805-24.4629 22.168-29.1504L36.084-43.0176Q35.6445-43.8965 35.5469-45.2393Q35.4492-46.582 35.9375-47.998L19.1895-31.2988Q13.916-25.9766 12.1094-19.5312Q10.3027-13.0859 12.0605-6.5918Q13.8184-0.0976562 19.2383 5.32227Q24.6582 10.7422 31.1523 12.5Q37.6465 14.2578 44.1162 12.4512Q50.5859 10.6445 55.8105 5.37109L72.4609-11.2793Q77.7832-16.6016 79.5898-23.0469Q81.3965-29.4922 79.6387-35.9863Q77.8809-42.4805 72.4609-47.8516Q69.1895-51.1719 64.9414-52.9541Q60.6934-54.7363 54.3945-54.6875ZM65.918-16.6504L69.2383-19.9219Q62.793-19.4824 58.3496-21.0693Q53.9062-22.6562 50.4883-26.0254Q45.8984-30.6641 44.4092-36.2793Q42.9199-41.8945 44.5068-47.5586Q46.0938-53.2227 50.7324-57.8613L66.6016-73.6816Q71.2891-78.3203 76.9531-79.9316Q82.6172-81.543 88.208-80.0537Q93.7988-78.5645 98.3887-73.9746Q102.979-69.4336 104.468-63.7939Q105.957-58.1543 104.395-52.5146Q102.832-46.875 98.1445-42.1875L84.2285-28.2715Q84.668-27.4414 84.7412-26.0986Q84.8145-24.7559 84.3262-23.291L101.074-40.0391Q106.348-45.3125 108.154-51.7822Q109.961-58.252 108.228-64.7461Q106.494-71.2402 101.074-76.6113Q95.6543-82.0312 89.1357-83.8135Q82.6172-85.5957 76.1719-83.7891Q69.7266-81.9824 64.4531-76.6602L47.8027-60.0586Q42.5293-54.7363 40.7227-48.2666Q38.916-41.7969 40.6494-35.3271Q42.3828-28.8574 47.8516-23.4375Q51.123-20.1172 55.3467-18.3594Q59.5703-16.6016 65.918-16.6504Z"/>
  </g>
  <g id="Ultralight-M" transform="matrix(1 0 0 1 500.409 1126)">
   <path d="M51.6602-54.3457L49.2676-52.0508Q56.1523-52.7344 60.9619-51.0986Q65.7715-49.4629 69.4336-45.8008Q74.1211-41.0645 75.6348-35.3027Q77.1484-29.541 75.5371-23.7305Q73.9258-17.9199 69.1406-13.1836L53.2715 2.63672Q48.4863 7.37305 42.6758 9.0332Q36.8652 10.6934 31.1035 9.17969Q25.3418 7.66602 20.7031 3.07617Q16.0156-1.66016 14.502-7.42188Q12.9883-13.1836 14.5996-18.9941Q16.2109-24.8047 21.0449-29.5898L36.2305-44.7266Q35.9863-45.166 35.9375-46.1426Q35.8887-47.1191 36.4258-48.291L18.9941-30.8594Q13.8672-25.7324 12.085-19.458Q10.3027-13.1836 12.0117-6.86035Q13.7207-0.537109 18.9941 4.6875Q24.2676 9.96094 30.5908 11.6699Q36.9141 13.3789 43.1885 11.6211Q49.4629 9.86328 54.541 4.73633L71.1914-11.8652Q76.3184-16.9922 78.0762-23.291Q79.834-29.5898 78.1494-35.8887Q76.4648-42.1875 71.1914-47.4121Q67.627-51.0254 63.0615-52.832Q58.4961-54.6387 51.6602-54.3457ZM66.9434-16.9922L69.3359-19.2871Q62.4512-18.6035 57.6416-20.2393Q52.832-21.875 49.1699-25.5371Q44.4824-30.2734 42.9688-36.0352Q41.4551-41.7969 43.0664-47.6074Q44.6777-53.418 49.5117-58.1543L65.3809-73.9746Q70.166-78.7109 75.9766-80.3711Q81.7871-82.0312 87.5244-80.5176Q93.2617-79.0039 97.9004-74.3652Q102.637-69.6777 104.126-63.916Q105.615-58.1543 104.004-52.3438Q102.393-46.5332 97.6074-41.748L82.373-26.6113Q82.666-26.1719 82.6904-25.1953Q82.7148-24.2188 82.2266-23.0469L99.6582-40.4785Q104.785-45.6055 106.543-51.8799Q108.301-58.1543 106.616-64.4775Q104.932-70.8008 99.6582-76.0254Q94.3848-81.2988 88.0371-83.0078Q81.6895-84.7168 75.4395-82.959Q69.1895-81.2012 64.1113-76.0742L47.4609-59.4727Q42.2852-54.3457 40.5518-48.0469Q38.8184-41.748 40.5029-35.4492Q42.1875-29.1504 47.4609-23.877Q51.0254-20.3125 55.5664-18.5059Q60.1074-16.6992 66.9434-16.9922Z"/>
  </g>
  <g id="Black-S" transform="matrix(1 0 0 1 2880.67 696)">
   <path d="M60.3516-53.3203L50.9766-44.043Q52.6855-43.7012 54.7119-42.7979Q56.7383-41.8945 57.9102-40.7227Q60.6934-37.9395 61.6211-34.668Q62.5488-31.3965 61.6455-28.125Q60.7422-24.8535 58.0078-22.0703L44.2383-8.34961Q41.4551-5.61523 38.1836-4.6875Q34.9121-3.75977 31.6406-4.71191Q28.3691-5.66406 25.6348-8.39844Q22.8516-11.1816 21.8994-14.4531Q20.9473-17.7246 21.8506-21.0205Q22.7539-24.3164 25.5371-27.0508L27.4902-29.0039Q26.0254-32.373 25.4883-36.6699Q24.9512-40.9668 26.416-44.9219L16.6504-35.3027Q11.377-30.127 9.64355-23.7793Q7.91016-17.4316 9.69238-11.084Q11.4746-4.73633 16.6992 0.488281Q21.9238 5.71289 28.2715 7.4707Q34.6191 9.22852 40.9424 7.49512Q47.2656 5.76172 52.4902 0.537109L66.8945-13.8184Q72.1191-19.043 73.8525-25.3906Q75.5859-31.7383 73.8281-38.0615Q72.0703-44.3848 66.8457-49.6094Q65.7715-50.6836 63.8916-51.7578Q62.0117-52.832 60.3516-53.3203ZM45.1172-17.5293L54.4922-26.8066Q52.7832-27.1484 50.7568-28.0518Q48.7305-28.9551 47.5586-30.127Q44.7754-32.9102 43.8232-36.1816Q42.8711-39.4531 43.7744-42.749Q44.6777-46.0449 47.4609-48.7793L61.2305-62.5Q63.9648-65.2832 67.2363-66.1865Q70.5078-67.0898 73.7793-66.1621Q77.0508-65.2344 79.834-62.4512Q82.6172-59.668 83.5449-56.3965Q84.4727-53.125 83.5693-49.8535Q82.666-46.582 79.9316-43.7988L77.9785-41.8457Q79.4434-38.4766 79.9805-34.1797Q80.5176-29.8828 79.0527-25.9277L88.8184-35.5469Q94.0918-40.7227 95.8008-47.0703Q97.5098-53.418 95.752-59.7656Q93.9941-66.1133 88.7695-71.3379Q83.4961-76.6113 77.1729-78.3447Q70.8496-80.0781 64.5264-78.3447Q58.2031-76.6113 52.9785-71.3867L38.5742-57.0312Q33.3496-51.8066 31.6162-45.4834Q29.8828-39.1602 31.6406-32.8125Q33.3984-26.4648 38.623-21.2402Q39.6973-20.166 41.5771-19.0918Q43.457-18.0176 45.1172-17.5293Z"/>
  </g>
  <g id="Heavy-S" transform="matrix(1 0 0 1 2584.61 696)">
   <path d="M58.3008-52.9297L49.8047-44.4336Q51.9043-44.043 54.0039-43.1152Q56.1035-42.1875 57.4219-40.8691Q60.3027-37.9883 61.2793-34.5459Q62.2559-31.1035 61.3037-27.6855Q60.3516-24.2676 57.5195-21.3867L44.043-7.95898Q41.1621-5.07812 37.7197-4.12598Q34.2773-3.17383 30.8594-4.15039Q27.4414-5.12695 24.6094-8.00781Q21.6797-10.8887 20.7031-14.3311Q19.7266-17.7734 20.6543-21.2158Q21.582-24.6582 24.5117-27.4902L27.5391-30.5176Q26.2207-33.5938 25.7568-37.4268Q25.293-41.2598 26.4648-44.7754L16.4551-34.9121Q11.3281-29.834 9.61914-23.6328Q7.91016-17.4316 9.64355-11.2549Q11.377-5.07812 16.5039 0.0488281Q21.6309 5.12695 27.8076 6.86035Q33.9844 8.59375 40.1611 6.88477Q46.3379 5.17578 51.4648 0.0976562L65.5273-13.9648Q70.6543-19.0918 72.3389-25.2686Q74.0234-31.4453 72.3145-37.6221Q70.6055-43.7988 65.4785-48.9258Q64.3066-50.0977 62.3291-51.2207Q60.3516-52.3438 58.3008-52.9297ZM45.8496-18.0176L54.3457-26.4648Q52.2461-26.8555 50.1465-27.8076Q48.0469-28.7598 46.7285-30.0293Q43.8477-32.9102 42.8467-36.3525Q41.8457-39.7949 42.7979-43.2373Q43.75-46.6797 46.6309-49.5117L60.1074-62.9395Q62.9395-65.8691 66.3818-66.7969Q69.8242-67.7246 73.2422-66.7725Q76.6602-65.8203 79.5898-62.8906Q82.4707-60.0098 83.4473-56.5674Q84.4238-53.125 83.4717-49.707Q82.5195-46.2891 79.6387-43.4082L76.6113-40.3809Q77.9297-37.3047 78.3936-33.4717Q78.8574-29.6387 77.6855-26.123L87.6953-35.9863Q92.8223-41.0645 94.5068-47.2656Q96.1914-53.4668 94.4824-59.6436Q92.7734-65.8203 87.6465-70.9473Q82.4707-76.123 76.3184-77.8076Q70.166-79.4922 63.9893-77.7832Q57.8125-76.0742 52.6855-70.9961L38.623-56.9336Q33.4961-51.8066 31.8115-45.6543Q30.127-39.502 31.8359-33.3008Q33.5449-27.0996 38.6719-21.9727Q39.8438-20.8008 41.7969-19.6777Q43.75-18.5547 45.8496-18.0176Z"/>
  </g>
  <g id="Bold-S" transform="matrix(1 0 0 1 2288.64 696)">
   <path d="M56.0547-52.4414L48.4863-44.873Q51.0742-44.4824 53.2715-43.4814Q55.4688-42.4805 56.8848-41.0645Q59.9121-38.0371 60.9131-34.4238Q61.9141-30.8105 60.9375-27.2217Q59.9609-23.6328 56.9824-20.6543L43.8477-7.51953Q40.8203-4.54102 37.2314-3.54004Q33.6426-2.53906 30.0293-3.54004Q26.416-4.54102 23.4375-7.56836Q20.4102-10.5957 19.3848-14.209Q18.3594-17.8223 19.3359-21.4111Q20.3125-25 23.3398-27.9785L27.6367-32.2754Q26.416-35.0098 26.0254-38.3057Q25.6348-41.6016 26.5137-44.6289L16.2598-34.4727Q11.2793-29.541 9.61914-23.5107Q7.95898-17.4805 9.64355-11.4746Q11.3281-5.46875 16.3086-0.488281Q21.2891 4.54102 27.3193 6.20117Q33.3496 7.86133 39.3555 6.20117Q45.3613 4.54102 50.293-0.439453L64.0625-14.1602Q68.9941-19.1406 70.6543-25.1465Q72.3145-31.1523 70.6543-37.1582Q68.9941-43.1641 64.0137-48.1445Q62.6465-49.5117 60.5957-50.6592Q58.5449-51.8066 56.0547-52.4414ZM46.6309-18.5547L54.1992-26.123Q51.6113-26.5137 49.4385-27.5146Q47.2656-28.5156 45.8496-29.9316Q42.8223-32.959 41.7969-36.5723Q40.7715-40.1855 41.748-43.7744Q42.7246-47.3633 45.752-50.3418L58.8867-63.4766Q61.8652-66.5039 65.4541-67.4805Q69.043-68.457 72.6562-67.4561Q76.2695-66.4551 79.2969-63.4277Q82.3242-60.4004 83.3252-56.7871Q84.3262-53.1738 83.3252-49.585Q82.3242-45.9961 79.3457-43.0176L75.0977-38.7207Q76.2695-35.9863 76.6602-32.6904Q77.0508-29.3945 76.2207-26.3672L86.4258-36.5234Q91.4062-41.4551 93.0664-47.4854Q94.7266-53.5156 93.042-59.5215Q91.3574-65.5273 86.377-70.5078Q81.3965-75.5371 75.3906-77.1973Q69.3848-78.8574 63.3789-77.1973Q57.373-75.5371 52.3926-70.5566L38.6719-56.8359Q33.6914-51.8555 32.0312-45.874Q30.3711-39.8926 32.0557-33.8623Q33.7402-27.832 38.7207-22.8516Q40.0391-21.4844 42.0898-20.3369Q44.1406-19.1895 46.6309-18.5547Z"/>
  </g>
  <g id="Semibold-S" transform="matrix(1 0 0 1 1992.44 696)">
   <path d="M54.4922-52.0996L47.5586-45.166Q50.4883-44.7266 52.7344-43.7012Q54.9805-42.6758 56.4941-41.1621Q59.5703-38.0371 60.6201-34.3262Q61.6699-30.6152 60.6445-26.9043Q59.6191-23.1934 56.5918-20.1172L43.6523-7.22656Q40.5762-4.10156 36.8652-3.07617Q33.1543-2.05078 29.4189-3.10059Q25.6836-4.15039 22.6074-7.22656Q19.4824-10.4004 18.4326-14.1113Q17.3828-17.8223 18.4082-21.5332Q19.4336-25.2441 22.5586-28.3203L27.6367-33.4473Q26.5625-35.9863 26.2207-38.916Q25.8789-41.8457 26.5137-44.4824L16.1133-34.1309Q11.2305-29.2969 9.59473-23.3887Q7.95898-17.4805 9.59473-11.5967Q11.2305-5.71289 16.1621-0.830078Q21.0449 4.10156 26.9531 5.7373Q32.8613 7.37305 38.7451 5.7373Q44.6289 4.10156 49.5117-0.78125L62.9883-14.3066Q67.8711-19.1406 69.5068-25.0244Q71.1426-30.9082 69.4824-36.8164Q67.8223-42.7246 62.9395-47.6074Q61.5234-49.0723 59.3994-50.2441Q57.2754-51.416 54.4922-52.0996ZM47.168-18.9453L54.0527-25.8301Q51.1719-26.2695 48.9258-27.2949Q46.6797-28.3203 45.2148-29.8828Q42.0898-32.959 41.04-36.6943Q39.9902-40.4297 40.9912-44.1406Q41.9922-47.8516 45.1172-50.9277L58.0078-63.8184Q61.084-66.8945 64.7949-67.9199Q68.5059-68.9453 72.2168-67.9199Q75.9277-66.8945 79.0527-63.7695Q82.1777-60.6445 83.2275-56.9092Q84.2773-53.1738 83.2275-49.4873Q82.1777-45.8008 79.1504-42.6758L74.0234-37.5977Q75.0977-35.0586 75.4395-32.1289Q75.7812-29.1992 75.1465-26.5137L85.5469-36.8652Q90.4297-41.6992 92.0654-47.6074Q93.7012-53.5156 92.041-59.4238Q90.3809-65.332 85.498-70.2148Q80.6152-75.1465 74.707-76.7578Q68.7988-78.3691 62.915-76.7334Q57.0312-75.0977 52.1973-70.2637L38.6719-56.7383Q33.8379-51.8555 32.2021-45.9961Q30.5664-40.1367 32.2021-34.2285Q33.8379-28.3203 38.7207-23.3887Q40.1855-21.9727 42.2607-20.8008Q44.3359-19.6289 47.168-18.9453Z"/>
  </g>
  <g id="Medium-S" transform="matrix(1 0 0 1 1696.09 696)">
   <path d="M53.3203-51.8555L46.875-45.4102Q50.0488-44.9219 52.3438-43.8965Q54.6387-42.8711 56.2012-41.2598Q59.375-38.0371 60.4492-34.2285Q61.5234-30.4199 60.4736-26.6357Q59.4238-22.8516 56.2988-19.7266L43.5547-6.98242Q40.3809-3.80859 36.5967-2.75879Q32.8125-1.70898 28.9795-2.75879Q25.1465-3.80859 21.9727-6.98242Q18.7988-10.2051 17.7246-14.0137Q16.6504-17.8223 17.7002-21.6309Q18.75-25.4395 21.9238-28.5645L27.6855-34.3262Q26.6602-36.7188 26.3672-39.3555Q26.0742-41.9922 26.5137-44.3848L16.0156-33.8867Q11.1816-29.1016 9.59473-23.3154Q8.00781-17.5293 9.59473-11.7188Q11.1816-5.9082 16.0645-1.07422Q20.8984 3.75977 26.709 5.37109Q32.5195 6.98242 38.3057 5.37109Q44.0918 3.75977 48.877-1.02539L62.207-14.3555Q66.9922-19.1406 68.6035-24.9268Q70.2148-30.7129 68.6035-36.5479Q66.9922-42.3828 62.1582-47.2168Q60.6445-48.7305 58.4961-49.9268Q56.3477-51.123 53.3203-51.8555ZM47.6074-19.1895L53.9551-25.6348Q50.8789-26.123 48.584-27.1484Q46.2891-28.1738 44.7266-29.7852Q41.5527-33.0078 40.4785-36.8164Q39.4043-40.625 40.4297-44.4092Q41.4551-48.1934 44.6289-51.3184L57.3242-64.0625Q60.498-67.2363 64.3066-68.2861Q68.1152-69.3359 71.9238-68.2861Q75.7324-67.2363 78.9062-64.0625Q82.0801-60.8398 83.1543-57.0312Q84.2285-53.2227 83.1787-49.4141Q82.1289-45.6055 78.9551-42.4805L73.1934-36.7188Q74.2188-34.375 74.5361-31.7139Q74.8535-29.0527 74.3652-26.6602L84.9121-37.1582Q89.6973-41.9434 91.3086-47.7295Q92.9199-53.5156 91.2842-59.3262Q89.6484-65.1367 84.8633-69.9707Q80.0293-74.8535 74.2188-76.4404Q68.4082-78.0273 62.5977-76.416Q56.7871-74.8047 52.002-70.0195L38.6719-56.6895Q33.8867-51.9043 32.2754-46.1182Q30.6641-40.332 32.2998-34.4971Q33.9355-28.6621 38.7207-23.8281Q40.2344-22.3145 42.3828-21.1182Q44.5312-19.9219 47.6074-19.1895Z"/>
  </g>
  <g id="Regular-S" transform="matrix(1 0 0 1 1399.89 696)">
   <path d="M51.7578-51.5625L45.9961-45.7031Q49.4629-45.2148 51.8066-44.1406Q54.1504-43.0664 55.8105-41.3574Q59.082-38.0859 60.1807-34.1553Q61.2793-30.2246 60.2051-26.3184Q59.1309-22.4121 55.9082-19.1895L43.4082-6.68945Q40.1367-3.41797 36.2305-2.34375Q32.3242-1.26953 28.3936-2.34375Q24.4629-3.41797 21.1914-6.68945Q17.9199-10.0098 16.8213-13.9404Q15.7227-17.8711 16.7969-21.7773Q17.8711-25.6836 21.1426-28.9062L27.7344-35.498Q26.8066-37.6465 26.5625-39.9414Q26.3184-42.2363 26.5625-44.2871L15.8691-33.5938Q11.1328-28.9062 9.57031-23.2178Q8.00781-17.5293 9.57031-11.8408Q11.1328-6.15234 15.918-1.41602Q20.6543 3.32031 26.3428 4.90723Q32.0312 6.49414 37.7197 4.90723Q43.4082 3.32031 48.0957-1.36719L61.1816-14.502Q65.8691-19.1895 67.4561-24.8535Q69.043-30.5176 67.4561-36.2305Q65.8691-41.9434 61.1328-46.6797Q59.5215-48.291 57.2998-49.5117Q55.0781-50.7324 51.7578-51.5625ZM48.1445-19.5801L53.8574-25.3906Q50.4395-25.8789 48.0957-26.9531Q45.752-28.0273 44.0918-29.7363Q40.8203-33.0078 39.7217-36.9385Q38.623-40.8691 39.6973-44.7754Q40.7715-48.6816 43.9941-51.9043L56.4941-64.4043Q59.7168-67.6758 63.6475-68.75Q67.5781-69.8242 71.5088-68.75Q75.4395-67.6758 78.7109-64.4043Q81.9824-61.084 83.0811-57.1533Q84.1797-53.2227 83.0811-49.3164Q81.9824-45.4102 78.7598-42.1875L72.168-35.5957Q73.0957-33.4473 73.3398-31.1523Q73.584-28.8574 73.3398-26.8066L84.0332-37.5Q88.7207-42.1875 90.3076-47.876Q91.8945-53.5645 90.3076-59.2529Q88.7207-64.9414 83.9844-69.6777Q79.248-74.4629 73.5596-76.0254Q67.8711-77.5879 62.1826-76.001Q56.4941-74.4141 51.8066-69.7266L38.7207-56.5918Q34.0332-51.9043 32.4463-46.2402Q30.8594-40.5762 32.4463-34.8633Q34.0332-29.1504 38.7695-24.4141Q40.3809-22.8027 42.5781-21.582Q44.7754-20.3613 48.1445-19.5801Z"/>
  </g>
  <g id="Light-S" transform="matrix(1 0 0 1 1104.26 696)">
   <path d="M48.2422-51.123L43.7012-46.5332Q47.7539-46.3867 50.5615-45.2393Q53.3691-44.0918 55.3711-42.041Q58.7891-38.623 59.9121-34.4971Q61.0352-30.3711 59.8877-26.2695Q58.7402-22.168 55.3711-18.7988L42.8711-6.34766Q39.4531-2.92969 35.3516-1.78223Q31.25-0.634766 27.1484-1.75781Q23.0469-2.88086 19.6289-6.25Q16.2598-9.66797 15.1367-13.7939Q14.0137-17.9199 15.1367-22.0215Q16.2598-26.123 19.6777-29.4922L27.9297-37.7441Q27.2461-39.3066 27.0752-41.1377Q26.9043-42.9688 27.1973-44.6777L15.5762-33.0566Q11.0352-28.5645 9.5459-23.1201Q8.05664-17.6758 9.5459-12.207Q11.0352-6.73828 15.5762-2.19727Q20.166 2.34375 25.6104 3.85742Q31.0547 5.37109 36.499 3.85742Q41.9434 2.34375 46.4355-2.14844L59.5215-15.2344Q63.9648-19.7266 65.5029-25.1709Q67.041-30.6152 65.5273-36.084Q64.0137-41.5527 59.4727-46.0938Q57.4707-48.0957 54.834-49.3652Q52.1973-50.6348 48.2422-51.123ZM49.5117-20.0195L54.0039-24.5605Q49.9512-24.707 47.168-25.8545Q44.3848-27.002 42.3828-29.1016Q38.9648-32.4707 37.8418-36.5967Q36.7188-40.7227 37.8418-44.8242Q38.9648-48.9258 42.3828-52.2949L54.8828-64.7949Q58.252-68.2129 62.3779-69.3359Q66.5039-70.459 70.6055-69.3604Q74.707-68.2617 78.0762-64.8926Q81.4941-61.4258 82.6172-57.3242Q83.7402-53.2227 82.5928-49.1211Q81.4453-45.0195 78.0273-41.6016L69.8242-33.3496Q70.5078-31.7871 70.6787-29.9561Q70.8496-28.125 70.5566-26.4648L82.1777-38.0859Q86.6699-42.5293 88.1836-47.998Q89.6973-53.4668 88.1836-58.9111Q86.6699-64.3555 82.1289-68.8965Q77.5879-73.4863 72.1436-74.9756Q66.6992-76.4648 61.2305-74.9512Q55.7617-73.4375 51.3184-68.9453L38.2324-55.8594Q33.7402-51.3672 32.2266-45.9473Q30.7129-40.5273 32.2266-35.0342Q33.7402-29.541 38.2812-25Q40.2832-23.0469 42.8955-21.7529Q45.5078-20.459 49.5117-20.0195Z"/>
  </g>
  <g id="Thin-S" transform="matrix(1 0 0 1 808.986 696)">
   <path d="M43.6035-50.5859L40.6738-47.6562Q45.5078-47.9004 48.9014-46.6797Q52.2949-45.459 54.834-42.9199Q58.3984-39.3555 59.5459-34.9854Q60.6934-30.6152 59.4727-26.2451Q58.252-21.875 54.6387-18.2617L42.2363-5.85938Q38.5742-2.24609 34.2285-1.02539Q29.8828 0.195312 25.5127-0.952148Q21.1426-2.09961 17.627-5.61523Q14.0625-9.22852 12.8906-13.5742Q11.7188-17.9199 12.9395-22.29Q14.1602-26.6602 17.7734-30.2734L28.2227-40.7227Q27.832-41.5527 27.7344-42.749Q27.6367-43.9453 28.0273-45.166L15.1855-32.2754Q10.9375-28.0762 9.49707-22.9492Q8.05664-17.8223 9.47266-12.6709Q10.8887-7.51953 15.1855-3.22266Q19.4824 1.07422 24.6338 2.46582Q29.7852 3.85742 34.9121 2.41699Q40.0391 0.976562 44.2383-3.17383L57.2754-16.2598Q61.4746-20.459 62.915-25.5859Q64.3555-30.7129 62.9395-35.8643Q61.5234-41.0156 57.2754-45.3125Q54.7852-47.8027 51.5869-49.1699Q48.3887-50.5371 43.6035-50.5859ZM51.2695-20.5566L54.1992-23.4863Q49.3652-23.1934 45.9961-24.4385Q42.627-25.6836 40.0879-28.2227Q36.5234-31.7871 35.3516-36.1572Q34.1797-40.5273 35.4004-44.8975Q36.6211-49.2676 40.2344-52.832L52.6855-65.2832Q56.2988-68.8477 60.6689-70.0684Q65.0391-71.2891 69.3848-70.1416Q73.7305-68.9941 77.2461-65.4785Q80.8594-61.9141 82.0068-57.5439Q83.1543-53.1738 81.9336-48.8281Q80.7129-44.4824 77.0996-40.8691L66.6992-30.4199Q67.041-29.5898 67.1387-28.3936Q67.2363-27.1973 66.8945-25.9766L79.7363-38.8184Q83.9355-43.0176 85.376-48.1445Q86.8164-53.2715 85.4248-58.4473Q84.0332-63.623 79.7363-67.8711Q75.4395-72.2168 70.2637-73.6084Q65.0879-75 59.9609-73.5596Q54.834-72.1191 50.6836-67.9199L37.6465-54.8828Q33.3984-50.6836 31.9824-45.5566Q30.5664-40.4297 31.958-35.2539Q33.3496-30.0781 37.6465-25.8301Q40.0879-23.3398 43.2861-21.9727Q46.4844-20.6055 51.2695-20.5566Z"/>
  </g>
  <g id="Ultralight-S" transform="matrix(1 0 0 1 513.007 696)">
   <path d="M41.2109-50.293L39.1113-48.1934Q44.3848-48.7305 48.0713-47.4365Q51.7578-46.1426 54.541-43.3594Q58.1543-39.6973 59.3506-35.2051Q60.5469-30.7129 59.2773-26.2207Q58.0078-21.7285 54.2969-18.0176L41.8457-5.61523Q38.1348-1.9043 33.6426-0.65918Q29.1504 0.585938 24.6826-0.585938Q20.2148-1.75781 16.5527-5.32227Q12.9395-9.0332 11.7432-13.501Q10.5469-17.9688 11.792-22.4609Q13.0371-26.9531 16.7969-30.6641L28.3691-42.2363Q28.125-42.6758 28.0762-43.5547Q28.0273-44.4336 28.418-45.4102L14.9414-31.9336Q10.8887-27.8809 9.49707-22.9004Q8.10547-17.9199 9.44824-12.915Q10.791-7.91016 14.9414-3.75977Q19.1406 0.390625 24.1211 1.7334Q29.1016 3.07617 34.082 1.70898Q39.0625 0.341797 43.1152-3.71094L56.1523-16.748Q60.2051-20.8008 61.5967-25.7812Q62.9883-30.7617 61.6455-35.7666Q60.3027-40.7715 56.1523-44.9219Q53.3691-47.6562 49.9023-49.0479Q46.4355-50.4395 41.2109-50.293ZM52.1973-20.8496L54.2969-22.9492Q49.0234-22.4121 45.3613-23.7061Q41.6992-25 38.916-27.7832Q35.3027-31.3965 34.1064-35.9131Q32.9102-40.4297 34.1553-44.9219Q35.4004-49.4141 39.1113-53.125L51.6113-65.5273Q55.3223-69.2383 59.8145-70.4834Q64.3066-71.7285 68.7744-70.5566Q73.2422-69.3848 76.8555-65.8203Q80.5176-62.1582 81.6895-57.666Q82.8613-53.1738 81.6162-48.6816Q80.3711-44.1895 76.6113-40.4785L65.0879-28.9062Q65.2832-28.4668 65.3564-27.5879Q65.4297-26.709 64.9902-25.7324L78.5156-39.209Q82.5684-43.2617 83.9355-48.2422Q85.3027-53.2227 83.96-58.2275Q82.6172-63.2324 78.4668-67.3828Q74.3164-71.5332 69.3115-72.876Q64.3066-74.2188 59.3262-72.8516Q54.3457-71.4844 50.3418-67.4316L37.3047-54.3457Q33.2031-50.293 31.8359-45.3369Q30.4688-40.3809 31.7871-35.376Q33.1055-30.3711 37.3047-26.2207Q40.0391-23.4863 43.5303-22.0947Q47.0215-20.7031 52.1973-20.8496Z"/>
  </g>
 </g>
</svg>
