<?xml version="1.0" encoding="UTF-8"?>
<!--Generator: Apple Native CoreSVG 149-->
<!DOCTYPE svg
PUBLIC "-//W3C//DTD SVG 1.1//EN"
       "http://www.w3.org/Graphics/SVG/1.1/DTD/svg11.dtd">
<svg version="1.1" xmlns="http://www.w3.org/2000/svg" xmlns:xlink="http://www.w3.org/1999/xlink" width="3300" height="2200">
 <!--glyph: "uni10029D.medium", point size: 100.0, font version: "17.0d9e1", template writer version: "59"-->
 <g id="Notes">
  <rect height="2200" id="artboard" style="fill:white;opacity:1" width="3300" x="0" y="0"/>
  <line style="fill:none;stroke:black;opacity:1;stroke-width:0.5;" x1="263" x2="3036" y1="292" y2="292"/>
  <text style="stroke:none;fill:black;font-family:sans-serif;font-size:13;font-weight:bold;" transform="matrix(1 0 0 1 263 322)">Weight/Scale Variations</text>
  <text style="stroke:none;fill:black;font-family:sans-serif;font-size:13;text-anchor:middle;" transform="matrix(1 0 0 1 559.711 322)">Ultralight</text>
  <text style="stroke:none;fill:black;font-family:sans-serif;font-size:13;text-anchor:middle;" transform="matrix(1 0 0 1 856.422 322)">Thin</text>
  <text style="stroke:none;fill:black;font-family:sans-serif;font-size:13;text-anchor:middle;" transform="matrix(1 0 0 1 1153.13 322)">Light</text>
  <text style="stroke:none;fill:black;font-family:sans-serif;font-size:13;text-anchor:middle;" transform="matrix(1 0 0 1 1449.84 322)">Regular</text>
  <text style="stroke:none;fill:black;font-family:sans-serif;font-size:13;text-anchor:middle;" transform="matrix(1 0 0 1 1746.56 322)">Medium</text>
  <text style="stroke:none;fill:black;font-family:sans-serif;font-size:13;text-anchor:middle;" transform="matrix(1 0 0 1 2043.27 322)">Semibold</text>
  <text style="stroke:none;fill:black;font-family:sans-serif;font-size:13;text-anchor:middle;" transform="matrix(1 0 0 1 2339.98 322)">Bold</text>
  <text style="stroke:none;fill:black;font-family:sans-serif;font-size:13;text-anchor:middle;" transform="matrix(1 0 0 1 2636.69 322)">Heavy</text>
  <text style="stroke:none;fill:black;font-family:sans-serif;font-size:13;text-anchor:middle;" transform="matrix(1 0 0 1 2933.4 322)">Black</text>
  <line style="fill:none;stroke:black;opacity:1;stroke-width:0.5;" x1="263" x2="3036" y1="1903" y2="1903"/>
  <g transform="matrix(1 0 0 1 263 1933)">
   <path d="M9.24805 0.830078Q10.8691 0.830078 12.2949 0.214844Q13.7207-0.400391 14.8096-1.49414Q15.8984-2.58789 16.5186-4.01367Q17.1387-5.43945 17.1387-7.05078Q17.1387-8.66211 16.5186-10.0879Q15.8984-11.5137 14.8047-12.6074Q13.7109-13.7012 12.2852-14.3164Q10.8594-14.9316 9.23828-14.9316Q7.62695-14.9316 6.20117-14.3164Q4.77539-13.7012 3.69141-12.6074Q2.60742-11.5137 1.9873-10.0879Q1.36719-8.66211 1.36719-7.05078Q1.36719-5.43945 1.9873-4.01367Q2.60742-2.58789 3.69629-1.49414Q4.78516-0.400391 6.21094 0.214844Q7.63672 0.830078 9.24805 0.830078ZM9.24805-0.654297Q7.91992-0.654297 6.7627-1.14746Q5.60547-1.64062 4.73145-2.51953Q3.85742-3.39844 3.36426-4.56055Q2.87109-5.72266 2.87109-7.05078Q2.87109-8.37891 3.35938-9.54102Q3.84766-10.7031 4.72168-11.582Q5.5957-12.4609 6.75293-12.9541Q7.91016-13.4473 9.23828-13.4473Q10.5762-13.4473 11.7334-12.9541Q12.8906-12.4609 13.7695-11.582Q14.6484-10.7031 15.1465-9.54102Q15.6445-8.37891 15.6445-7.05078Q15.6445-5.72266 15.1514-4.56055Q14.6582-3.39844 13.7842-2.51953Q12.9102-1.64062 11.748-1.14746Q10.5859-0.654297 9.24805-0.654297ZM5.83984-7.04102Q5.83984-6.71875 6.04492-6.51855Q6.25-6.31836 6.5918-6.31836L8.50586-6.31836L8.50586-4.39453Q8.50586-4.0625 8.70605-3.85742Q8.90625-3.65234 9.22852-3.65234Q9.56055-3.65234 9.76562-3.85742Q9.9707-4.0625 9.9707-4.39453L9.9707-6.31836L11.8945-6.31836Q12.2266-6.31836 12.4316-6.51855Q12.6367-6.71875 12.6367-7.04102Q12.6367-7.37305 12.4316-7.57812Q12.2266-7.7832 11.8945-7.7832L9.9707-7.7832L9.9707-9.69727Q9.9707-10.0391 9.76562-10.2441Q9.56055-10.4492 9.22852-10.4492Q8.90625-10.4492 8.70605-10.2441Q8.50586-10.0391 8.50586-9.69727L8.50586-7.7832L6.5918-7.7832Q6.25-7.7832 6.04492-7.57812Q5.83984-7.37305 5.83984-7.04102Z"/>
  </g>
  <g transform="matrix(1 0 0 1 281.867 1933)">
   <path d="M11.709 2.91016Q13.75 2.91016 15.5518 2.12891Q17.3535 1.34766 18.7305-0.0292969Q20.1074-1.40625 20.8887-3.20801Q21.6699-5.00977 21.6699-7.05078Q21.6699-9.0918 20.8887-10.8936Q20.1074-12.6953 18.7305-14.0723Q17.3535-15.4492 15.5469-16.2305Q13.7402-17.0117 11.6992-17.0117Q9.6582-17.0117 7.85645-16.2305Q6.05469-15.4492 4.68262-14.0723Q3.31055-12.6953 2.5293-10.8936Q1.74805-9.0918 1.74805-7.05078Q1.74805-5.00977 2.5293-3.20801Q3.31055-1.40625 4.6875-0.0292969Q6.06445 1.34766 7.86621 2.12891Q9.66797 2.91016 11.709 2.91016ZM11.709 1.25Q9.98047 1.25 8.47656 0.605469Q6.97266-0.0390625 5.83496-1.17676Q4.69727-2.31445 4.05762-3.81836Q3.41797-5.32227 3.41797-7.05078Q3.41797-8.7793 4.05762-10.2832Q4.69727-11.7871 5.83008-12.9297Q6.96289-14.0723 8.4668-14.7119Q9.9707-15.3516 11.6992-15.3516Q13.4277-15.3516 14.9316-14.7119Q16.4355-14.0723 17.5781-12.9297Q18.7207-11.7871 19.3652-10.2832Q20.0098-8.7793 20.0098-7.05078Q20.0098-5.32227 19.3701-3.81836Q18.7305-2.31445 17.5928-1.17676Q16.4551-0.0390625 14.9463 0.605469Q13.4375 1.25 11.709 1.25ZM7.39258-7.04102Q7.39258-6.68945 7.62695-6.46484Q7.86133-6.24023 8.23242-6.24023L10.8789-6.24023L10.8789-3.57422Q10.8789-3.21289 11.1035-2.9834Q11.3281-2.75391 11.6797-2.75391Q12.0508-2.75391 12.2852-2.9834Q12.5195-3.21289 12.5195-3.57422L12.5195-6.24023L15.1758-6.24023Q15.5371-6.24023 15.7715-6.46484Q16.0059-6.68945 16.0059-7.04102Q16.0059-7.41211 15.7715-7.6416Q15.5371-7.87109 15.1758-7.87109L12.5195-7.87109L12.5195-10.5176Q12.5195-10.8984 12.2852-11.1279Q12.0508-11.3574 11.6797-11.3574Q11.3281-11.3574 11.1035-11.1279Q10.8789-10.8984 10.8789-10.5176L10.8789-7.87109L8.23242-7.87109Q7.85156-7.87109 7.62207-7.6416Q7.39258-7.41211 7.39258-7.04102Z"/>
  </g>
  <g transform="matrix(1 0 0 1 305.646 1933)">
   <path d="M14.9707 5.66406Q17.0605 5.66406 18.96 5.01465Q20.8594 4.36523 22.4512 3.19336Q24.043 2.02148 25.2197 0.429688Q26.3965-1.16211 27.0459-3.06641Q27.6953-4.9707 27.6953-7.05078Q27.6953-9.14062 27.0459-11.04Q26.3965-12.9395 25.2197-14.5312Q24.043-16.123 22.4512-17.2998Q20.8594-18.4766 18.9551-19.126Q17.0508-19.7754 14.9609-19.7754Q12.8711-19.7754 10.9717-19.126Q9.07227-18.4766 7.48535-17.2998Q5.89844-16.123 4.72168-14.5312Q3.54492-12.9395 2.90039-11.04Q2.25586-9.14062 2.25586-7.05078Q2.25586-4.9707 2.90527-3.06641Q3.55469-1.16211 4.72656 0.429688Q5.89844 2.02148 7.49023 3.19336Q9.08203 4.36523 10.9814 5.01465Q12.8809 5.66406 14.9707 5.66406ZM14.9707 3.84766Q13.1641 3.84766 11.5283 3.2959Q9.89258 2.74414 8.53516 1.74805Q7.17773 0.751953 6.17676-0.610352Q5.17578-1.97266 4.62891-3.6084Q4.08203-5.24414 4.08203-7.05078Q4.08203-8.86719 4.62891-10.5029Q5.17578-12.1387 6.17188-13.501Q7.16797-14.8633 8.52539-15.8594Q9.88281-16.8555 11.5186-17.4023Q13.1543-17.9492 14.9609-17.9492Q16.7773-17.9492 18.4131-17.4023Q20.0488-16.8555 21.4111-15.8594Q22.7734-14.8633 23.7695-13.501Q24.7656-12.1387 25.3174-10.5029Q25.8691-8.86719 25.8691-7.05078Q25.8789-5.24414 25.332-3.6084Q24.7852-1.97266 23.7842-0.610352Q22.7832 0.751953 21.4209 1.74805Q20.0586 2.74414 18.4229 3.2959Q16.7871 3.84766 14.9707 3.84766ZM9.45312-7.04102Q9.45312-6.66016 9.71191-6.41113Q9.9707-6.16211 10.3711-6.16211L14.0625-6.16211L14.0625-2.46094Q14.0625-2.06055 14.3115-1.80664Q14.5605-1.55273 14.9414-1.55273Q15.3516-1.55273 15.6055-1.80664Q15.8594-2.06055 15.8594-2.46094L15.8594-6.16211L19.5605-6.16211Q19.9609-6.16211 20.2148-6.41113Q20.4688-6.66016 20.4688-7.04102Q20.4688-7.45117 20.2148-7.70508Q19.9609-7.95898 19.5605-7.95898L15.8594-7.95898L15.8594-11.6504Q15.8594-12.0605 15.6055-12.3145Q15.3516-12.5684 14.9414-12.5684Q14.5605-12.5684 14.3115-12.3096Q14.0625-12.0508 14.0625-11.6504L14.0625-7.95898L10.3711-7.95898Q9.96094-7.95898 9.70703-7.70508Q9.45312-7.45117 9.45312-7.04102Z"/>
  </g>
  <text style="stroke:none;fill:black;font-family:sans-serif;font-size:13;font-weight:bold;" transform="matrix(1 0 0 1 263 1953)">Design Variations</text>
  <text style="stroke:none;fill:black;font-family:sans-serif;font-size:13;" transform="matrix(1 0 0 1 263 1971)">Symbols are supported in up to nine weights and three scales.</text>
  <text style="stroke:none;fill:black;font-family:sans-serif;font-size:13;" transform="matrix(1 0 0 1 263 1989)">For optimal layout with text and other symbols, vertically align</text>
  <text style="stroke:none;fill:black;font-family:sans-serif;font-size:13;" transform="matrix(1 0 0 1 263 2007)">symbols with the adjacent text.</text>
  <line style="fill:none;stroke:#00AEEF;stroke-width:0.5;opacity:1.0;" x1="776" x2="776" y1="1919" y2="1933"/>
  <g transform="matrix(1 0 0 1 776 1933)">
   <path d="M3.31055 0.15625Q3.70117 0.15625 3.91602-0.00976562Q4.13086-0.175781 4.26758-0.585938L5.52734-4.0332L11.2891-4.0332L12.5488-0.585938Q12.6855-0.175781 12.9004-0.00976562Q13.1152 0.15625 13.4961 0.15625Q13.8867 0.15625 14.1162-0.0585938Q14.3457-0.273438 14.3457-0.644531Q14.3457-0.869141 14.2383-1.17188L9.6582-13.3691Q9.48242-13.8184 9.17969-14.043Q8.87695-14.2676 8.4082-14.2676Q7.5-14.2676 7.17773-13.3789L2.59766-1.16211Q2.49023-0.859375 2.49023-0.634766Q2.49023-0.263672 2.70996-0.0537109Q2.92969 0.15625 3.31055 0.15625ZM6.00586-5.51758L8.37891-12.0898L8.42773-12.0898L10.8008-5.51758Z"/>
  </g>
  <line style="fill:none;stroke:#00AEEF;stroke-width:0.5;opacity:1.0;" x1="793.197" x2="793.197" y1="1919" y2="1933"/>
  <text style="stroke:none;fill:black;font-family:sans-serif;font-size:13;font-weight:bold;" transform="matrix(1 0 0 1 776 1953)">Margins</text>
  <text style="stroke:none;fill:black;font-family:sans-serif;font-size:13;" transform="matrix(1 0 0 1 776 1971)">Leading and trailing margins on the left and right side of each symbol</text>
  <text style="stroke:none;fill:black;font-family:sans-serif;font-size:13;" transform="matrix(1 0 0 1 776 1989)">can be adjusted by modifying the x-location of the margin guidelines.</text>
  <text style="stroke:none;fill:black;font-family:sans-serif;font-size:13;" transform="matrix(1 0 0 1 776 2007)">Modifications are automatically applied proportionally to all</text>
  <text style="stroke:none;fill:black;font-family:sans-serif;font-size:13;" transform="matrix(1 0 0 1 776 2025)">scales and weights.</text>
  <g transform="matrix(1 0 0 1 1289 1933)">
   <path d="M2.8418 1.86523L4.54102 3.57422Q5.18555 4.22852 5.90332 4.17969Q6.62109 4.13086 7.31445 3.35938L18.0078-8.42773L17.041-9.4043L6.42578 2.27539Q6.16211 2.57812 5.89355 2.61719Q5.625 2.65625 5.27344 2.30469L4.10156 1.14258Q3.75 0.791016 3.79395 0.522461Q3.83789 0.253906 4.14062-0.0195312L15.6152-10.8203L14.6387-11.7871L3.04688-0.898438Q2.30469-0.214844 2.25098 0.498047Q2.19727 1.21094 2.8418 1.86523ZM9.25781-16.3281Q8.94531-16.0254 8.90625-15.6348Q8.86719-15.2441 9.04297-14.9512Q9.21875-14.6777 9.55566-14.541Q9.89258-14.4043 10.3809-14.5215Q11.4746-14.7754 12.5977-14.7314Q13.7207-14.6875 14.7949-13.9844L14.209-12.5293Q13.9551-11.9043 14.0674-11.4404Q14.1797-10.9766 14.5801-10.5664L16.875-8.25195Q17.2363-7.88086 17.5781-7.82227Q17.9199-7.76367 18.3398-7.8418L19.4043-8.03711L20.0684-7.36328L20.0293-6.80664Q20-6.43555 20.1221-6.12305Q20.2441-5.81055 20.6055-5.44922L21.3672-4.70703Q21.7285-4.3457 22.1533-4.33105Q22.5781-4.31641 22.9297-4.66797L25.8398-7.58789Q26.1914-7.93945 26.1816-8.35449Q26.1719-8.76953 25.8105-9.13086L25.0391-9.89258Q24.6875-10.2539 24.3799-10.3857Q24.0723-10.5176 23.7109-10.4883L23.1348-10.4395L22.4902-11.0742L22.7344-12.1973Q22.832-12.6172 22.6953-12.9834Q22.5586-13.3496 22.1191-13.7891L19.9219-15.9766Q18.6719-17.2168 17.2607-17.8369Q15.8496-18.457 14.4189-18.4814Q12.9883-18.5059 11.665-17.959Q10.3418-17.4121 9.25781-16.3281ZM10.752-15.957Q11.6602-16.6211 12.7002-16.9043Q13.7402-17.1875 14.8047-17.085Q15.8691-16.9824 16.8701-16.5137Q17.8711-16.0449 18.7012-15.2051L21.1328-12.793Q21.3086-12.6172 21.3525-12.4512Q21.3965-12.2852 21.3379-12.0312L21.0156-10.5469L22.5195-9.0625L23.5059-9.12109Q23.6914-9.13086 23.7891-9.09668Q23.8867-9.0625 24.0332-8.91602L24.6094-8.33984L22.168-5.89844L21.5918-6.47461Q21.4453-6.62109 21.4062-6.71875Q21.3672-6.81641 21.377-7.01172L21.4453-7.98828L19.9512-9.47266L18.4277-9.21875Q18.1836-9.16992 18.042-9.2041Q17.9004-9.23828 17.7148-9.41406L15.7129-11.416Q15.5176-11.5918 15.4932-11.7529Q15.4688-11.9141 15.5859-12.1875L16.4648-14.2773Q15.293-15.3711 13.8281-15.791Q12.3633-16.2109 10.8398-15.7617Q10.7227-15.7324 10.6885-15.8057Q10.6543-15.8789 10.752-15.957Z"/>
  </g>
  <text style="stroke:none;fill:black;font-family:sans-serif;font-size:13;font-weight:bold;" transform="matrix(1 0 0 1 1289 1953)">Exporting</text>
  <text style="stroke:none;fill:black;font-family:sans-serif;font-size:13;" transform="matrix(1 0 0 1 1289 1971)">Symbols should be outlined when exporting to ensure the</text>
  <text style="stroke:none;fill:black;font-family:sans-serif;font-size:13;" transform="matrix(1 0 0 1 1289 1989)">design is preserved when submitting to Xcode.</text>
  <text id="template-version" style="stroke:none;fill:black;font-family:sans-serif;font-size:13;text-anchor:end;" transform="matrix(1 0 0 1 3036 1933)">Template v.2.0</text>
  <text style="stroke:none;fill:black;font-family:sans-serif;font-size:13;text-anchor:end;" transform="matrix(1 0 0 1 3036 1951)">Requires Xcode 13 or greater</text>
  <text id="descriptive-name" style="stroke:none;fill:black;font-family:sans-serif;font-size:13;text-anchor:end;" transform="matrix(1 0 0 1 3036 1969)">Generated from shuffle</text>
  <text style="stroke:none;fill:black;font-family:sans-serif;font-size:13;text-anchor:end;" transform="matrix(1 0 0 1 3036 1987)">Typeset at 100 points</text>
  <text style="stroke:none;fill:black;font-family:sans-serif;font-size:13;" transform="matrix(1 0 0 1 263 726)">Small</text>
  <text style="stroke:none;fill:black;font-family:sans-serif;font-size:13;" transform="matrix(1 0 0 1 263 1156)">Medium</text>
  <text style="stroke:none;fill:black;font-family:sans-serif;font-size:13;" transform="matrix(1 0 0 1 263 1586)">Large</text>
 </g>
 <g id="Guides">
  <g id="H-reference" style="fill:#27AAE1;stroke:none;" transform="matrix(1 0 0 1 339 696)">
   <path d="M0.976562 0L3.66211 0L29.3457-67.1387L30.0293-67.1387L30.0293-70.459L28.125-70.459ZM11.6699-24.4629L46.9727-24.4629L46.2402-26.709L12.4512-26.709ZM55.127 0L57.7637 0L30.6152-70.459L29.4434-70.459L29.4434-67.1387Z"/>
  </g>
  <line id="Baseline-S" style="fill:none;stroke:#27AAE1;opacity:1;stroke-width:0.5;" x1="263" x2="3036" y1="696" y2="696"/>
  <line id="Capline-S" style="fill:none;stroke:#27AAE1;opacity:1;stroke-width:0.5;" x1="263" x2="3036" y1="625.541" y2="625.541"/>
  <g id="H-reference" style="fill:#27AAE1;stroke:none;" transform="matrix(1 0 0 1 339 1126)">
   <path d="M0.976562 0L3.66211 0L29.3457-67.1387L30.0293-67.1387L30.0293-70.459L28.125-70.459ZM11.6699-24.4629L46.9727-24.4629L46.2402-26.709L12.4512-26.709ZM55.127 0L57.7637 0L30.6152-70.459L29.4434-70.459L29.4434-67.1387Z"/>
  </g>
  <line id="Baseline-M" style="fill:none;stroke:#27AAE1;opacity:1;stroke-width:0.5;" x1="263" x2="3036" y1="1126" y2="1126"/>
  <line id="Capline-M" style="fill:none;stroke:#27AAE1;opacity:1;stroke-width:0.5;" x1="263" x2="3036" y1="1055.54" y2="1055.54"/>
  <g id="H-reference" style="fill:#27AAE1;stroke:none;" transform="matrix(1 0 0 1 339 1556)">
   <path d="M0.976562 0L3.66211 0L29.3457-67.1387L30.0293-67.1387L30.0293-70.459L28.125-70.459ZM11.6699-24.4629L46.9727-24.4629L46.2402-26.709L12.4512-26.709ZM55.127 0L57.7637 0L30.6152-70.459L29.4434-70.459L29.4434-67.1387Z"/>
  </g>
  <line id="Baseline-L" style="fill:none;stroke:#27AAE1;opacity:1;stroke-width:0.5;" x1="263" x2="3036" y1="1556" y2="1556"/>
  <line id="Capline-L" style="fill:none;stroke:#27AAE1;opacity:1;stroke-width:0.5;" x1="263" x2="3036" y1="1485.54" y2="1485.54"/>
  <line id="left-margin" style="fill:none;stroke:#00AEEF;stroke-width:0.5;opacity:1.0;" x1="1381.29" x2="1381.29" y1="1030.79" y2="1150.12"/>
  <line id="right-margin" style="fill:none;stroke:#00AEEF;stroke-width:0.5;opacity:1.0;" x1="1518.4" x2="1518.4" y1="1030.79" y2="1150.12"/>
 </g>
 <g id="Symbols">
  <g id="Black-L" transform="matrix(1 0 0 1 2833.47 1556)">
   <path d="M16.0645 2.44141Q16.0645 6.5918 19.0186 9.49707Q21.9727 12.4023 26.2207 12.4023L42.5293 12.4023Q48.6328 12.4023 53.3447 11.0352Q58.0566 9.66797 61.9141 6.88477Q65.7715 4.10156 69.2383-0.244141L110.107-51.2695Q112.939-54.834 115.479-56.8848Q118.018-58.9355 121.069-59.8145Q124.121-60.6934 128.418-60.6934L140.479-60.6934L140.479-47.998Q140.479-44.4336 142.529-42.3584Q144.58-40.2832 148.047-40.2832Q149.707-40.2832 151.025-40.8203Q152.344-41.3574 153.369-42.2363L181.25-65.9668Q183.838-68.1641 183.813-71.3135Q183.789-74.4629 181.25-76.6113L153.369-100.342Q152.344-101.221 151.025-101.758Q149.707-102.295 148.047-102.295Q144.58-102.295 142.529-100.22Q140.479-98.1445 140.479-94.5801L140.479-80.5664L129.785-80.5664Q122.998-80.5664 117.334-79.1992Q111.67-77.832 106.665-74.4385Q101.66-71.0449 96.8262-64.9414L58.7891-17.041Q54.7852-12.0117 50.4883-9.76562Q46.1914-7.51953 39.502-7.51953L26.2207-7.51953Q21.9727-7.51953 19.0186-4.61426Q16.0645-1.70898 16.0645 2.44141ZM16.0645-70.6543Q16.0645-66.5039 19.0186-63.5986Q21.9727-60.6934 26.2207-60.6934L37.793-60.6934Q44.4336-60.6934 49.6338-58.4229Q54.834-56.1523 58.7891-51.1719L98.4375-1.46484Q102.441 3.51562 107.373 6.56738Q112.305 9.61914 117.92 11.0107Q123.535 12.4023 129.639 12.4023L140.479 12.4023L140.479 26.123Q140.479 29.7363 142.529 31.7871Q144.58 33.8379 148.047 33.8379Q149.707 33.8379 151.025 33.3252Q152.344 32.8125 153.369 31.9336L181.25 8.1543Q183.838 5.95703 183.813 2.83203Q183.789-0.292969 181.25-2.49023L153.369-26.2207Q152.344-27.0508 151.025-27.5879Q149.707-28.125 148.047-28.125Q144.58-28.125 142.529-26.0498Q140.479-23.9746 140.479-20.4102L140.479-7.51953L129.932-7.51953Q123.193-7.51953 118.53-9.81445Q113.867-12.1094 109.912-17.0898L69.2383-67.9688Q65.7715-72.3145 61.4746-75.0977Q57.1777-77.8809 52.0264-79.2236Q46.875-80.5664 40.8203-80.5664L26.2207-80.5664Q21.9727-80.5664 19.0186-77.6855Q16.0645-74.8047 16.0645-70.6543Z"/>
  </g>
  <g id="Heavy-L" transform="matrix(1 0 0 1 2539.91 1556)">
   <path d="M16.0645 1.07422Q16.0645 4.73633 18.6523 7.25098Q21.2402 9.76562 25 9.76562L40.8691 9.76562Q46.7285 9.76562 51.2207 8.47168Q55.7129 7.17773 59.4727 4.46777Q63.2324 1.75781 66.748-2.58789L106.787-51.9043Q109.619-55.3711 112.158-57.3975Q114.697-59.4238 117.7-60.3027Q120.703-61.1816 124.756-61.1816L136.914-61.1816L136.914-48.0469Q136.914-44.9219 138.696-43.1152Q140.479-41.3086 143.555-41.3086Q145.02-41.3086 146.216-41.7969Q147.412-42.2852 148.34-43.0664L175.195-65.7227Q177.539-67.6758 177.515-70.4834Q177.49-73.291 175.195-75.2441L148.34-97.9004Q147.412-98.6816 146.216-99.1455Q145.02-99.6094 143.555-99.6094Q140.479-99.6094 138.696-97.8271Q136.914-96.0449 136.914-92.9199L136.914-78.5645L125.781-78.5645Q119.385-78.5645 114.16-77.2705Q108.936-75.9766 104.297-72.7783Q99.6582-69.5801 95.1172-63.916L57.2266-16.9922Q53.1738-12.0117 49.0234-9.81445Q44.873-7.61719 38.623-7.61719L25-7.61719Q21.2402-7.61719 18.6523-5.10254Q16.0645-2.58789 16.0645 1.07422ZM16.0645-69.873Q16.0645-66.2109 18.6523-63.6963Q21.2402-61.1816 25-61.1816L37.3047-61.1816Q43.5547-61.1816 48.3887-58.96Q53.2227-56.7383 57.2266-51.8066L96.3379-3.51562Q100.244 1.31836 104.834 4.22363Q109.424 7.12891 114.624 8.44727Q119.824 9.76562 125.684 9.76562L136.914 9.76562L136.914 24.0234Q136.914 27.1484 138.696 28.9307Q140.479 30.7129 143.555 30.7129Q145.02 30.7129 146.216 30.2734Q147.412 29.834 148.34 29.0039L175.195 6.29883Q177.539 4.3457 177.515 1.58691Q177.49-1.17188 175.195-3.17383L148.34-25.8301Q147.412-26.6113 146.216-27.0752Q145.02-27.5391 143.555-27.5391Q140.479-27.5391 138.696-25.7324Q136.914-23.9258 136.914-20.8008L136.914-7.61719L125.928-7.61719Q119.58-7.61719 115.112-9.83887Q110.645-12.0605 106.641-17.041L66.748-66.2109Q63.2324-70.5566 59.1553-73.2666Q55.0781-75.9766 50.2197-77.2461Q45.3613-78.5156 39.5508-78.5156L25-78.5156Q21.2402-78.5156 18.6523-76.0254Q16.0645-73.5352 16.0645-69.873Z"/>
  </g>
  <g id="Bold-L" transform="matrix(1 0 0 1 2246.72 1556)">
   <path d="M16.0645-0.488281Q16.0645 2.68555 18.2617 4.76074Q20.459 6.83594 23.6816 6.83594L38.9648 6.83594Q44.5801 6.83594 48.8525 5.61523Q53.125 4.39453 56.7627 1.75781Q60.4004-0.878906 63.9648-5.22461L103.076-52.5879Q105.859-55.957 108.423-57.959Q110.986-59.9609 113.916-60.8398Q116.846-61.7188 120.703-61.7188L132.959-61.7188L132.959-48.1445Q132.959-45.5078 134.448-44.0186Q135.938-42.5293 138.574-42.5293Q139.795-42.5293 140.82-42.9199Q141.846-43.3105 142.725-44.043L168.408-65.4785Q170.459-67.1875 170.459-69.5801Q170.459-71.9727 168.408-73.6816L142.725-95.166Q141.846-95.8496 140.82-96.2646Q139.795-96.6797 138.574-96.6797Q135.938-96.6797 134.448-95.1904Q132.959-93.7012 132.959-91.0645L132.959-76.3184L121.338-76.3184Q115.381-76.3184 110.62-75.0977Q105.859-73.877 101.636-70.9229Q97.4121-67.9688 93.1641-62.7441L55.5176-16.9922Q51.416-12.0117 47.4121-9.8877Q43.4082-7.76367 37.6465-7.76367L23.6816-7.76367Q20.459-7.76367 18.2617-5.66406Q16.0645-3.56445 16.0645-0.488281ZM16.0645-68.9941Q16.0645-65.918 18.2617-63.8184Q20.459-61.7188 23.6816-61.7188L36.7676-61.7188Q42.5781-61.7188 47.0215-59.5703Q51.4648-57.4219 55.5176-52.4902L93.9941-5.81055Q97.8027-1.17188 101.978 1.61133Q106.152 4.39453 110.913 5.63965Q115.674 6.88477 121.24 6.88477L132.959 6.88477L132.959 21.6309Q132.959 24.3164 134.448 25.7812Q135.938 27.2461 138.574 27.2461Q139.795 27.2461 140.82 26.8555Q141.846 26.4648 142.725 25.7812L168.408 4.29688Q170.459 2.58789 170.459 0.195312Q170.459-2.19727 168.408-3.95508L142.725-25.3906Q141.846-26.0742 140.82-26.4893Q139.795-26.9043 138.574-26.9043Q135.938-26.9043 134.448-25.415Q132.959-23.9258 132.959-21.2891L132.959-7.76367L121.484-7.76367Q115.527-7.76367 111.279-9.91211Q107.031-12.0605 102.979-16.9922L63.9648-64.2578Q60.4004-68.5547 56.543-71.2158Q52.6855-73.877 48.1934-75.0732Q43.7012-76.2695 38.1348-76.2695L23.6816-76.2695Q20.459-76.2695 18.2617-74.1943Q16.0645-72.1191 16.0645-68.9941Z"/>
  </g>
  <g id="Semibold-L" transform="matrix(1 0 0 1 1952.45 1556)">
   <path d="M16.0645-1.51367Q16.0645 1.2207 17.9688 3.02734Q19.873 4.83398 22.7539 4.83398L37.6465 4.83398Q43.0664 4.83398 47.1924 3.66211Q51.3184 2.49023 54.8828-0.0976562Q58.4473-2.68555 62.0605-6.98242L100.488-53.0273Q103.271-56.3477 105.859-58.3496Q108.447-60.3516 111.328-61.2305Q114.209-62.1094 117.871-62.1094L130.176-62.1094L130.176-48.1445Q130.176-45.8496 131.494-44.5801Q132.812-43.3105 135.107-43.3105Q136.133-43.3105 137.085-43.6768Q138.037-44.043 138.818-44.6777L163.721-65.2832Q165.576-66.7969 165.576-68.9209Q165.576-71.0449 163.721-72.6074L138.818-93.2617Q138.037-93.8965 137.085-94.2383Q136.133-94.5801 135.107-94.5801Q132.812-94.5801 131.494-93.3105Q130.176-92.041 130.176-89.7461L130.176-74.7559L118.213-74.7559Q112.598-74.7559 108.154-73.584Q103.711-72.4121 99.7803-69.6045Q95.8496-66.7969 91.8457-61.9629L54.3457-16.9434Q50.1953-12.0117 46.2891-9.93652Q42.3828-7.86133 36.9141-7.86133L22.7539-7.86133Q19.873-7.86133 17.9688-6.03027Q16.0645-4.19922 16.0645-1.51367ZM16.0645-68.4082Q16.0645-65.6738 17.9688-63.8672Q19.873-62.0605 22.7539-62.0605L36.377-62.0605Q41.8457-62.0605 46.0449-59.9609Q50.2441-57.8613 54.3457-52.9785L92.334-7.37305Q96.0938-2.88086 100-0.195312Q103.906 2.49023 108.35 3.66211Q112.793 4.83398 118.164 4.83398L130.176 4.83398L130.176 20.0195Q130.176 22.3145 131.494 23.584Q132.812 24.8535 135.107 24.8535Q136.133 24.8535 137.085 24.5117Q138.037 24.1699 138.818 23.4863L163.721 2.88086Q165.576 1.36719 165.576-0.756836Q165.576-2.88086 163.721-4.44336L138.818-25.0977Q138.037-25.7324 137.085-26.0742Q136.133-26.416 135.107-26.416Q132.812-26.416 131.494-25.1465Q130.176-23.877 130.176-21.582L130.176-7.8125L118.359-7.8125Q112.695-7.8125 108.594-9.91211Q104.492-12.0117 100.439-16.9434L62.0605-62.8906Q58.4473-67.1875 54.7607-69.7754Q51.0742-72.3633 46.8018-73.5352Q42.5293-74.707 37.1094-74.707L22.7539-74.707Q19.873-74.707 17.9688-72.9248Q16.0645-71.1426 16.0645-68.4082Z"/>
  </g>
  <g id="Medium-L" transform="matrix(1 0 0 1 1657.59 1556)">
   <path d="M16.0645-2.34375Q16.0645 0.146484 17.749 1.70898Q19.4336 3.27148 22.0703 3.27148L36.6699 3.27148Q41.9434 3.27148 45.9473 2.14844Q49.9512 1.02539 53.4668-1.51367Q56.9824-4.05273 60.5957-8.34961L98.5352-53.3691Q101.318-56.6895 103.906-58.6426Q106.494-60.5957 109.351-61.4746Q112.207-62.3535 115.771-62.3535L128.125-62.3535L128.125-48.1934Q128.125-46.1426 129.272-45.0439Q130.42-43.9453 132.471-43.9453Q133.398-43.9453 134.253-44.2627Q135.107-44.5801 135.889-45.166L160.205-65.1855Q161.914-66.5039 161.89-68.4326Q161.865-70.3613 160.205-71.8262L135.889-91.7969Q135.107-92.4316 134.253-92.749Q133.398-93.0664 132.471-93.0664Q130.42-93.0664 129.272-91.9434Q128.125-90.8203 128.125-88.7695L128.125-73.5352L115.869-73.5352Q110.498-73.5352 106.299-72.4121Q102.1-71.2891 98.3887-68.6279Q94.6777-65.9668 90.8203-61.3281L53.418-16.9434Q49.2676-12.0117 45.459-9.96094Q41.6504-7.91016 36.4258-7.91016L22.0703-7.91016Q19.4336-7.91016 17.749-6.32324Q16.0645-4.73633 16.0645-2.34375ZM16.0645-67.9199Q16.0645-65.4785 17.749-63.916Q19.4336-62.3535 22.0703-62.3535L36.1328-62.3535Q41.3574-62.3535 45.3369-60.3027Q49.3164-58.252 53.418-53.3203L91.1133-8.59375Q94.8242-4.15039 98.5107-1.53809Q102.197 1.07422 106.396 2.19727Q110.596 3.32031 115.869 3.32031L128.125 3.32031L128.125 18.75Q128.125 20.8008 129.272 21.9238Q130.42 23.0469 132.471 23.0469Q133.398 23.0469 134.253 22.7295Q135.107 22.4121 135.889 21.8262L160.205 1.80664Q161.914 0.439453 161.89-1.48926Q161.865-3.41797 160.205-4.83398L135.889-24.8535Q135.107-25.4395 134.253-25.7568Q133.398-26.0742 132.471-26.0742Q130.42-26.0742 129.272-24.9756Q128.125-23.877 128.125-21.8262L128.125-7.86133L116.016-7.86133Q110.596-7.86133 106.616-9.93652Q102.637-12.0117 98.4863-16.8945L60.5957-61.8652Q56.9824-66.1621 53.3936-68.7256Q49.8047-71.2891 45.7275-72.4121Q41.6504-73.5352 36.377-73.5352L22.0703-73.5352Q19.4336-73.5352 17.749-71.9727Q16.0645-70.4102 16.0645-67.9199Z"/>
  </g>
  <g id="Regular-L" transform="matrix(1 0 0 1 1363.27 1556)">
   <path d="M16.0645-3.36914Q16.0645-1.26953 17.4805 0Q18.8965 1.26953 21.1426 1.26953L35.4004 1.26953Q40.4785 1.26953 44.3359 0.195312Q48.1934-0.878906 51.6113-3.36914Q55.0293-5.85938 58.6914-10.1562L95.9961-53.8574Q98.7793-57.0801 101.367-59.0332Q103.955-60.9863 106.763-61.8652Q109.57-62.7441 112.988-62.7441L125.391-62.7441L125.391-48.2422Q125.391-46.5332 126.343-45.6299Q127.295-44.7266 129.053-44.7266Q129.834-44.7266 130.591-44.9951Q131.348-45.2637 132.031-45.8008L155.566-64.9902Q157.08-66.1621 157.08-67.8223Q157.08-69.4824 155.566-70.752L132.031-89.9414Q131.348-90.4785 130.591-90.7471Q129.834-91.0156 129.053-91.0156Q127.295-91.0156 126.343-90.1123Q125.391-89.209 125.391-87.5L125.391-72.0215L112.842-72.0215Q107.764-72.0215 103.882-70.9473Q100-69.873 96.582-67.3584Q93.1641-64.8438 89.502-60.5469L52.2461-16.8945Q48.0469-12.0117 44.3359-10.0098Q40.625-8.00781 35.7422-8.00781L21.1426-8.00781Q18.8965-8.00781 17.4805-6.68945Q16.0645-5.37109 16.0645-3.36914ZM16.0645-67.334Q16.0645-65.2832 17.4805-63.9893Q18.8965-62.6953 21.1426-62.6953L35.7422-62.6953Q40.6738-62.6953 44.3848-60.6934Q48.0957-58.6914 52.2461-53.8086L89.502-10.1562Q93.1641-5.85938 96.582-3.34473Q100-0.830078 103.882 0.244141Q107.764 1.31836 112.842 1.31836L125.391 1.31836L125.391 17.1387Q125.391 18.8477 126.343 19.751Q127.295 20.6543 129.053 20.6543Q129.834 20.6543 130.591 20.3857Q131.348 20.1172 132.031 19.5801L155.566 0.390625Q157.08-0.78125 157.08-2.44141Q157.08-4.10156 155.566-5.37109L132.031-24.5605Q131.348-25.0977 130.591-25.3662Q129.834-25.6348 129.053-25.6348Q127.295-25.6348 126.343-24.7314Q125.391-23.8281 125.391-22.1191L125.391-7.95898L112.988-7.95898Q107.812-7.95898 103.979-9.96094Q100.146-11.9629 95.9961-16.8457L58.6914-60.498Q55.0293-64.7949 51.6113-67.3096Q48.1934-69.8242 44.3359-70.8984Q40.4785-71.9727 35.4004-71.9727L21.1426-71.9727Q18.8965-71.9727 17.4805-70.7031Q16.0645-69.4336 16.0645-67.334Z"/>
  </g>
  <g id="Light-L" transform="matrix(1 0 0 1 1069.12 1556)">
   <path d="M16.0645-4.00391Q16.0645-2.24609 17.2119-1.2207Q18.3594-0.195312 20.166-0.195312L34.2773-0.195312Q39.1113-0.195312 42.8223-1.2207Q46.5332-2.24609 49.7803-4.66309Q53.0273-7.08008 56.5918-11.2305L92.627-53.7109Q95.459-57.0801 98.0957-59.082Q100.732-61.084 103.564-61.9873Q106.396-62.8906 109.766-62.8906L121.631-62.8906L121.631-48.0957Q121.631-46.6309 122.412-45.874Q123.193-45.1172 124.707-45.1172Q125.391-45.1172 126.025-45.3613Q126.66-45.6055 127.295-46.0938L150.488-64.502Q151.953-65.625 151.953-67.2363Q151.953-68.8477 150.488-70.0195L127.295-88.4277Q126.66-88.916 126.025-89.1357Q125.391-89.3555 124.707-89.3555Q123.193-89.3555 122.412-88.5986Q121.631-87.8418 121.631-86.4258L121.631-70.5078L109.863-70.5078Q105.029-70.5078 101.318-69.4824Q97.6074-68.457 94.3359-66.04Q91.0645-63.623 87.5488-59.4727L51.5137-16.9922Q47.2168-11.9141 43.4326-9.86328Q39.6484-7.8125 34.668-7.8125L20.166-7.8125Q18.4082-7.8125 17.2363-6.71387Q16.0645-5.61523 16.0645-4.00391ZM16.0645-66.6504Q16.0645-64.9902 17.2363-63.916Q18.4082-62.8418 20.166-62.8418L34.668-62.8418Q39.6484-62.8418 43.457-60.7666Q47.2656-58.6914 51.5137-53.6621L87.5488-11.1816Q91.0645-7.03125 94.3359-4.61426Q97.6074-2.19727 101.318-1.14746Q105.029-0.0976562 109.863-0.0976562L121.631-0.0976562L121.631 16.0156Q121.631 17.4316 122.412 18.1885Q123.193 18.9453 124.707 18.9453Q125.391 18.9453 126.025 18.7256Q126.66 18.5059 127.295 18.0176L150.488-0.439453Q151.953-1.51367 151.953-3.125Q151.953-4.73633 150.488-5.9082L127.295-24.3164Q126.66-24.8047 126.025-25.0488Q125.391-25.293 124.707-25.293Q123.193-25.293 122.412-24.5117Q121.631-23.7305 121.631-22.3145L121.631-7.71484L109.766-7.71484Q104.639-7.71484 100.781-9.79004Q96.9238-11.8652 92.627-16.9434L56.5918-59.375Q53.0273-63.5254 49.7803-65.9668Q46.5332-68.4082 42.8223-69.4336Q39.1113-70.459 34.2773-70.459L20.166-70.459Q18.3594-70.459 17.2119-69.4092Q16.0645-68.3594 16.0645-66.6504Z"/>
  </g>
  <g id="Thin-L" transform="matrix(1 0 0 1 775.807 1556)">
   <path d="M16.1133-4.83398Q16.1133-3.61328 16.8701-2.85645Q17.627-2.09961 18.8477-2.09961L32.8125-2.09961Q37.3535-2.09961 40.8203-3.10059Q44.2871-4.10156 47.3633-6.39648Q50.4395-8.69141 53.7598-12.5977L88.1348-53.5156Q91.1133-57.0312 93.7988-59.1553Q96.4844-61.2793 99.3164-62.207Q102.148-63.1348 105.518-63.1348L116.602-63.1348L116.602-47.8516Q116.602-46.8262 117.188-46.2402Q117.773-45.6543 118.945-45.6543Q119.531-45.6543 119.971-45.8252Q120.41-45.9961 121.045-46.4355L143.848-63.916Q145.117-64.8926 145.117-66.4307Q145.117-67.9688 143.848-68.9941L121.045-86.377Q120.41-86.8164 119.971-86.9873Q119.531-87.1582 118.945-87.1582Q117.773-87.1582 117.188-86.5723Q116.602-85.9863 116.602-84.9609L116.602-68.5547L105.908-68.5547Q101.416-68.5547 97.9248-67.5537Q94.4336-66.5527 91.3818-64.2578Q88.3301-61.9629 84.9609-58.0078L50.5859-17.1387Q46.0938-11.8164 42.2119-9.66797Q38.3301-7.51953 33.3008-7.51953L18.8477-7.51953Q17.7246-7.51953 16.9189-6.71387Q16.1133-5.9082 16.1133-4.83398ZM16.1133-65.7715Q16.1133-64.6484 16.9189-63.8428Q17.7246-63.0371 18.8477-63.0371L33.3008-63.0371Q38.3301-63.0371 42.2363-60.8887Q46.1426-58.7402 50.5859-53.418L84.9609-12.5488Q88.3301-8.59375 91.3818-6.29883Q94.4336-4.00391 97.9248-3.00293Q101.416-2.00195 105.908-2.00195L116.602-2.00195L116.602 14.502Q116.602 15.5762 117.188 16.1377Q117.773 16.6992 118.945 16.6992Q119.531 16.6992 119.971 16.5527Q120.41 16.4062 121.045 15.918L143.848-1.5625Q145.117-2.49023 145.117-4.05273Q145.117-5.61523 143.848-6.5918L121.045-23.9746Q120.41-24.4629 119.971-24.6338Q119.531-24.8047 118.945-24.8047Q117.773-24.8047 117.188-24.2188Q116.602-23.6328 116.602-22.5586L116.602-7.42188L105.518-7.42188Q100.439-7.42188 96.5332-9.59473Q92.627-11.7676 88.1348-17.041L53.7598-57.9102Q50.4395-61.8652 47.3633-64.1846Q44.2871-66.5039 40.8203-67.4805Q37.3535-68.457 32.8125-68.457L18.8477-68.457Q17.627-68.457 16.8701-67.7246Q16.1133-66.9922 16.1133-65.7715Z"/>
  </g>
  <g id="Ultralight-L" transform="matrix(1 0 0 1 480.829 1556)">
   <path d="M16.1133-5.22461Q16.1133-4.24805 16.6992-3.66211Q17.2852-3.07617 18.2129-3.07617L32.0801-3.07617Q36.4258-3.07617 39.7949-4.05273Q43.1641-5.0293 46.1182-7.25098Q49.0723-9.47266 52.3438-13.3301L85.8887-53.418Q88.8672-57.0312 91.6016-59.1797Q94.3359-61.3281 97.168-62.2803Q100-63.2324 103.369-63.2324L114.062-63.2324L114.062-47.7539Q114.062-46.875 114.526-46.4111Q114.99-45.9473 116.016-45.9473Q116.553-45.9473 116.895-46.0938Q117.236-46.2402 117.822-46.6309L140.381-63.5742Q141.65-64.5508 141.65-66.04Q141.65-67.5293 140.381-68.5059L117.822-85.3516Q117.236-85.7422 116.895-85.8887Q116.553-86.0352 116.016-86.0352Q114.99-86.0352 114.526-85.5469Q114.062-85.0586 114.062-84.2285L114.062-67.5293L103.906-67.5293Q99.5605-67.5293 96.1914-66.5771Q92.8223-65.625 89.8682-63.3789Q86.9141-61.1328 83.6426-57.2754L50.0977-17.2363Q45.5566-11.7676 41.626-9.57031Q37.6953-7.37305 32.5684-7.37305L18.2129-7.37305Q17.3828-7.37305 16.748-6.71387Q16.1133-6.05469 16.1133-5.22461ZM16.1133-65.2832Q16.1133-64.4531 16.748-63.7939Q17.3828-63.1348 18.2129-63.1348L32.5684-63.1348Q37.6465-63.1348 41.6016-60.9375Q45.5566-58.7402 50.0977-53.3203L83.6426-13.2324Q86.9141-9.42383 89.8682-7.17773Q92.8223-4.93164 96.1914-3.95508Q99.5605-2.97852 103.906-2.97852L114.062-2.97852L114.062 13.7207Q114.062 14.6484 114.526 15.1123Q114.99 15.5762 116.016 15.5762Q116.553 15.5762 116.895 15.4297Q117.236 15.2832 117.822 14.8438L140.381-2.09961Q141.65-3.02734 141.65-4.54102Q141.65-6.05469 140.381-6.98242L117.822-23.8281Q117.236-24.2676 116.895-24.4141Q116.553-24.5605 116.016-24.5605Q114.99-24.5605 114.526-24.0723Q114.062-23.584 114.062-22.7051L114.062-7.27539L103.369-7.27539Q98.291-7.27539 94.3604-9.47266Q90.4297-11.6699 85.8887-17.1387L52.3438-57.1777Q49.0723-61.0352 46.1182-63.2812Q43.1641-65.5273 39.7949-66.4795Q36.4258-67.4316 32.0801-67.4316L18.2129-67.4316Q17.2852-67.4316 16.6992-66.8457Q16.1133-66.2598 16.1133-65.2832Z"/>
  </g>
  <g id="Black-M" transform="matrix(1 0 0 1 2854.13 1126)">
   <path d="M12.4512-5.07812Q12.4512-1.5625 14.9658 0.927734Q17.4805 3.41797 20.9961 3.41797L34.0332 3.41797Q41.3086 3.41797 46.2402 0.976562Q51.1719-1.46484 55.0781-6.44531L87.0605-47.1191Q89.2578-49.9512 91.2354-51.5869Q93.2129-53.2227 95.6299-53.9062Q98.0469-54.5898 101.562-54.5898L110.645-54.5898L110.645-45.0195Q110.645-41.9922 112.378-40.1855Q114.111-38.3789 117.09-38.3789Q118.555-38.3789 119.629-38.8428Q120.703-39.3066 121.582-40.0391L143.896-59.1309Q146.094-60.9863 146.094-63.6963Q146.094-66.4062 143.896-68.2617L121.582-87.3047Q120.703-87.9883 119.629-88.4521Q118.555-88.916 117.09-88.916Q114.111-88.916 112.378-87.1338Q110.645-85.3516 110.645-82.2754L110.645-71.6309L102.979-71.6309Q94.6777-71.6309 88.208-68.9697Q81.7383-66.3086 75.8301-58.7891L46.6309-21.1914Q43.5547-17.2363 40.0635-15.4053Q36.5723-13.5742 31.0547-13.5742L20.9961-13.5742Q17.4805-13.5742 14.9658-11.084Q12.4512-8.59375 12.4512-5.07812ZM12.4512-63.1348Q12.4512-59.6191 14.9658-57.1045Q17.4805-54.5898 20.9961-54.5898L29.2969-54.5898Q34.8633-54.5898 39.209-52.7588Q43.5547-50.9277 46.6309-46.9727L77.4414-7.66602Q82.1289-1.70898 88.8428 0.854492Q95.5566 3.41797 102.832 3.41797L110.645 3.41797L110.645 13.7695Q110.645 16.8457 112.378 18.6279Q114.111 20.4102 117.09 20.4102Q118.555 20.4102 119.629 19.9463Q120.703 19.4824 121.582 18.75L143.896-0.292969Q146.094-2.19727 146.094-4.90723Q146.094-7.61719 143.896-9.47266L121.582-28.4668Q120.703-29.1992 119.629-29.6631Q118.555-30.127 117.09-30.127Q114.111-30.127 112.378-28.3203Q110.645-26.5137 110.645-23.4863L110.645-13.5742L103.027-13.5742Q97.5098-13.5742 93.7012-15.4541Q89.8926-17.334 86.8164-21.2402L55.0781-61.7188Q51.1719-66.748 45.3857-69.1895Q39.5996-71.6309 32.3242-71.6309L20.9961-71.6309Q17.4805-71.6309 14.9658-69.1406Q12.4512-66.6504 12.4512-63.1348Z"/>
  </g>
  <g id="Heavy-M" transform="matrix(1 0 0 1 2559.96 1126)">
   <path d="M12.4512-6.29883Q12.4512-3.17383 14.6729-1.00098Q16.8945 1.17188 20.0195 1.17188L32.6172 1.17188Q39.5996 1.17188 44.3359-1.17188Q49.0723-3.51562 53.125-8.49609L84.5215-47.7539Q86.7188-50.4883 88.6963-52.0752Q90.6738-53.6621 93.0176-54.3457Q95.3613-55.0293 98.6816-55.0293L107.959-55.0293L107.959-45.1172Q107.959-42.4316 109.497-40.8691Q111.035-39.3066 113.623-39.3066Q114.941-39.3066 115.918-39.7217Q116.895-40.1367 117.676-40.8203L139.062-58.9844Q141.016-60.6445 141.016-63.0127Q141.016-65.3809 139.062-67.041L117.676-85.2539Q116.895-85.8398 115.918-86.2549Q114.941-86.6699 113.623-86.6699Q111.035-86.6699 109.497-85.1318Q107.959-83.5938 107.959-80.8594L107.959-69.9707L99.707-69.9707Q91.9434-69.9707 86.0352-67.4561Q80.127-64.9414 74.5605-58.0078L45.2637-21.1426Q42.1875-17.2363 38.8428-15.4785Q35.498-13.7207 30.4199-13.7207L20.0195-13.7207Q16.8945-13.7207 14.6729-11.5479Q12.4512-9.375 12.4512-6.29883ZM12.4512-62.5Q12.4512-59.4238 14.6729-57.2266Q16.8945-55.0293 20.0195-55.0293L29.0527-55.0293Q34.2285-55.0293 38.208-53.2715Q42.1875-51.5137 45.2637-47.6074L75.7812-9.42383Q80.4199-3.66211 86.5234-1.24512Q92.627 1.17188 99.6094 1.17188L107.959 1.17188L107.959 11.9141Q107.959 14.6484 109.497 16.1865Q111.035 17.7246 113.623 17.7246Q114.941 17.7246 115.918 17.3096Q116.895 16.8945 117.676 16.2598L139.062-1.9043Q141.016-3.61328 141.016-5.98145Q141.016-8.34961 139.062-10.0098L117.676-28.125Q116.895-28.8086 115.918-29.2236Q114.941-29.6387 113.623-29.6387Q111.035-29.6387 109.497-28.0762Q107.959-26.5137 107.959-23.8281L107.959-13.7207L99.8047-13.7207Q94.6289-13.7207 91.04-15.5273Q87.4512-17.334 84.3262-21.1914L53.125-60.2539Q49.0723-65.2832 43.7012-67.627Q38.3301-69.9707 31.2988-69.9707L20.0195-69.9707Q16.8945-69.9707 14.6729-67.7979Q12.4512-65.625 12.4512-62.5Z"/>
  </g>
  <g id="Bold-M" transform="matrix(1 0 0 1 2266.05 1126)">
   <path d="M12.4512-7.61719Q12.4512-4.98047 14.3311-3.17383Q16.2109-1.36719 18.9941-1.36719L31.0547-1.36719Q37.7441-1.36719 42.2363-3.58887Q46.7285-5.81055 50.9277-10.8398L81.6895-48.4375Q83.8379-51.0742 85.8154-52.6367Q87.793-54.1992 90.0879-54.8584Q92.3828-55.5176 95.5078-55.5176L105.029-55.5176L105.029-45.2148Q105.029-42.9688 106.299-41.6748Q107.568-40.3809 109.814-40.3809Q110.889-40.3809 111.743-40.7227Q112.598-41.0645 113.33-41.6504L133.691-58.8379Q135.4-60.2539 135.4-62.2803Q135.4-64.3066 133.691-65.7227L113.33-82.9102Q112.598-83.4961 111.743-83.8379Q110.889-84.1797 109.814-84.1797Q107.568-84.1797 106.299-82.8857Q105.029-81.5918 105.029-79.3457L105.029-68.1152L96.0938-68.1152Q88.8672-68.1152 83.5938-65.7959Q78.3203-63.4766 73.1445-57.1289L43.7988-21.0938Q40.6738-17.2363 37.5-15.5762Q34.3262-13.916 29.6875-13.916L18.9941-13.916Q16.2109-13.916 14.3311-12.1094Q12.4512-10.3027 12.4512-7.61719ZM12.4512-61.8164Q12.4512-59.1797 14.3311-57.3486Q16.2109-55.5176 18.9941-55.5176L28.8086-55.5176Q33.4961-55.5176 37.085-53.8574Q40.6738-52.1973 43.7988-48.3398L73.9746-11.4258Q78.5156-5.9082 83.9111-3.6377Q89.3066-1.36719 95.9961-1.36719L105.029-1.36719L105.029 9.91211Q105.029 12.1582 106.299 13.4521Q107.568 14.7461 109.814 14.7461Q110.889 14.7461 111.743 14.4043Q112.598 14.0625 113.33 13.4766L133.691-3.71094Q135.4-5.17578 135.4-7.17773Q135.4-9.17969 133.691-10.6445L113.33-27.7832Q112.598-28.3691 111.743-28.7354Q110.889-29.1016 109.814-29.1016Q107.568-29.1016 106.299-27.7832Q105.029-26.4648 105.029-24.2188L105.029-13.916L96.2402-13.916Q91.4551-13.916 88.0859-15.6006Q84.7168-17.2852 81.5918-21.0938L50.9277-58.5938Q46.7285-63.6719 41.7969-65.8936Q36.8652-68.1152 30.2246-68.1152L18.9941-68.1152Q16.2109-68.1152 14.3311-66.3086Q12.4512-64.502 12.4512-61.8164Z"/>
  </g>
  <g id="Semibold-M" transform="matrix(1 0 0 1 1971.29 1126)">
   <path d="M12.4512-8.54492Q12.4512-6.20117 14.1113-4.63867Q15.7715-3.07617 18.2129-3.07617L29.9805-3.07617Q36.4258-3.07617 40.7715-5.22461Q45.1172-7.37305 49.3652-12.4512L79.7363-48.9258Q81.8848-51.4648 83.8623-53.0029Q85.8398-54.541 88.0859-55.2002Q90.332-55.8594 93.2617-55.8594L102.93-55.8594L102.93-45.2637Q102.93-43.3105 104.053-42.1875Q105.176-41.0645 107.129-41.0645Q108.057-41.0645 108.862-41.3818Q109.668-41.6992 110.303-42.2363L129.98-58.7402Q131.494-60.0098 131.494-61.7676Q131.494-63.5254 129.98-64.7949L110.303-81.2988Q109.668-81.8359 108.862-82.1289Q108.057-82.4219 107.129-82.4219Q105.176-82.4219 104.053-81.3232Q102.93-80.2246 102.93-78.2227L102.93-66.8457L93.5547-66.8457Q86.7676-66.8457 81.9092-64.624Q77.0508-62.4023 72.168-56.543L42.7246-21.0449Q39.5996-17.2363 36.5479-15.625Q33.4961-14.0137 29.1992-14.0137L18.2129-14.0137Q15.7715-14.0137 14.1113-12.4512Q12.4512-10.8887 12.4512-8.54492ZM12.4512-61.3281Q12.4512-58.9844 14.1113-57.4219Q15.7715-55.8594 18.2129-55.8594L28.6133-55.8594Q32.959-55.8594 36.2793-54.248Q39.5996-52.6367 42.7246-48.8281L72.6562-12.793Q77.1484-7.42188 82.0801-5.24902Q87.0117-3.07617 93.5059-3.07617L102.93-3.07617L102.93 8.49609Q102.93 10.4492 104.053 11.5479Q105.176 12.6465 107.129 12.6465Q108.057 12.6465 108.862 12.3535Q109.668 12.0605 110.303 11.5234L129.98-4.93164Q131.494-6.25 131.494-8.00781Q131.494-9.76562 129.98-11.0352L110.303-27.5391Q109.668-28.0762 108.862-28.3936Q108.057-28.7109 107.129-28.7109Q105.176-28.7109 104.053-27.5879Q102.93-26.4648 102.93-24.4629L102.93-14.0137L93.75-14.0137Q89.2578-14.0137 86.0352-15.6494Q82.8125-17.2852 79.6387-21.0449L49.3652-57.4707Q45.1172-62.5488 40.5029-64.6729Q35.8887-66.7969 29.4434-66.7969L18.2129-66.7969Q15.7715-66.7969 14.1113-65.2588Q12.4512-63.7207 12.4512-61.3281Z"/>
  </g>
  <g id="Medium-M" transform="matrix(1 0 0 1 1676.07 1126)">
   <path d="M12.4512-9.22852Q12.4512-7.12891 13.916-5.76172Q15.3809-4.39453 17.6758-4.39453L29.1504-4.39453Q35.4004-4.39453 39.6484-6.46973Q43.8965-8.54492 48.2422-13.6719L78.2715-49.2676Q80.3711-51.8066 82.3486-53.2959Q84.3262-54.7852 86.5479-55.4443Q88.7695-56.1035 91.6016-56.1035L101.416-56.1035L101.416-45.3613Q101.416-43.6035 102.368-42.6025Q103.32-41.6016 105.127-41.6016Q105.957-41.6016 106.689-41.8945Q107.422-42.1875 108.008-42.6758L127.148-58.6426Q128.516-59.7656 128.516-61.3525Q128.516-62.9395 127.148-64.1113L108.008-80.0781Q107.422-80.5664 106.689-80.835Q105.957-81.1035 105.127-81.1035Q103.32-81.1035 102.368-80.1514Q101.416-79.1992 101.416-77.4414L101.416-65.8691L91.6504-65.8691Q85.1562-65.8691 80.6152-63.7451Q76.0742-61.6211 71.4355-56.0547L41.9434-20.9961Q38.7695-17.2363 35.8154-15.6738Q32.8613-14.1113 28.8086-14.1113L17.6758-14.1113Q15.3809-14.1113 13.916-12.7441Q12.4512-11.377 12.4512-9.22852ZM12.4512-60.9863Q12.4512-58.8379 13.916-57.4707Q15.3809-56.1035 17.6758-56.1035L28.5156-56.1035Q32.5684-56.1035 35.6689-54.541Q38.7695-52.9785 41.9434-49.2188L71.7285-13.8184Q76.1719-8.54492 80.7373-6.46973Q85.3027-4.39453 91.6016-4.39453L101.416-4.39453L101.416 7.42188Q101.416 9.17969 102.368 10.1318Q103.32 11.084 105.127 11.084Q105.957 11.084 106.689 10.8154Q107.422 10.5469 108.008 10.0586L127.148-5.9082Q128.516-7.03125 128.516-8.59375Q128.516-10.1562 127.148-11.377L108.008-27.3438Q107.422-27.832 106.689-28.125Q105.957-28.418 105.127-28.418Q103.32-28.418 102.368-27.417Q101.416-26.416 101.416-24.707L101.416-14.1113L91.8457-14.1113Q87.5977-14.1113 84.4727-15.6738Q81.3477-17.2363 78.2227-20.9961L48.2422-56.5918Q43.8965-61.7188 39.502-63.7695Q35.1074-65.8203 28.8574-65.8203L17.6758-65.8203Q15.3809-65.8203 13.916-64.4775Q12.4512-63.1348 12.4512-60.9863Z"/>
  </g>
  <g id="Regular-M" transform="matrix(1 0 0 1 1381.29 1126)">
   <path d="M12.4512-10.1562Q12.4512-8.34961 13.6963-7.22656Q14.9414-6.10352 16.9434-6.10352L28.0762-6.10352Q34.1309-6.10352 38.208-8.10547Q42.2852-10.1074 46.7285-15.2344L76.3184-49.7559Q78.418-52.1973 80.3955-53.6621Q82.373-55.127 84.5459-55.7861Q86.7188-56.4453 89.4043-56.4453L99.3652-56.4453L99.3652-45.4102Q99.3652-43.9453 100.171-43.1396Q100.977-42.334 102.49-42.334Q103.174-42.334 103.833-42.5781Q104.492-42.8223 105.029-43.2617L123.486-58.5449Q124.658-59.5215 124.658-60.8398Q124.658-62.1582 123.486-63.1836L105.029-78.5156Q104.492-78.9551 103.833-79.1748Q103.174-79.3945 102.49-79.3945Q100.977-79.3945 100.171-78.6133Q99.3652-77.832 99.3652-76.3672L99.3652-64.5996L89.1602-64.5996Q83.0566-64.5996 78.9551-62.5977Q74.8535-60.5957 70.459-55.4688L40.918-20.9473Q37.7441-17.2363 34.8877-15.7227Q32.0312-14.209 28.3203-14.209L16.9434-14.209Q14.9414-14.209 13.6963-13.0859Q12.4512-11.9629 12.4512-10.1562ZM12.4512-60.498Q12.4512-58.6914 13.6963-57.5684Q14.9414-56.4453 16.9434-56.4453L28.3203-56.4453Q32.0801-56.4453 34.9121-54.9316Q37.7441-53.418 40.918-49.707L70.459-15.1855Q74.8535-10.0586 78.9551-8.08105Q83.0566-6.10352 89.1602-6.10352L99.3652-6.10352L99.3652 6.00586Q99.3652 7.4707 100.171 8.25195Q100.977 9.0332 102.49 9.0332Q103.174 9.0332 103.833 8.81348Q104.492 8.59375 105.029 8.1543L123.486-7.12891Q124.658-8.10547 124.658-9.42383Q124.658-10.7422 123.486-11.7676L105.029-27.0996Q104.492-27.5391 103.833-27.7832Q103.174-28.0273 102.49-28.0273Q100.977-28.0273 100.171-27.2217Q99.3652-26.416 99.3652-24.9512L99.3652-14.209L89.4043-14.209Q85.4004-14.209 82.4463-15.7227Q79.4922-17.2363 76.3184-20.9473L46.7285-55.4688Q42.2852-60.5957 38.208-62.5732Q34.1309-64.5508 28.0762-64.5508L16.9434-64.5508Q14.9414-64.5508 13.6963-63.4521Q12.4512-62.3535 12.4512-60.498Z"/>
  </g>
  <g id="Light-M" transform="matrix(1 0 0 1 1086.9 1126)">
   <path d="M12.4512-10.6934Q12.4512-9.22852 13.4521-8.3252Q14.4531-7.42188 16.0645-7.42188L27.0508-7.42188Q32.8125-7.42188 36.6943-9.32617Q40.5762-11.2305 44.8242-16.1621L73.291-49.6094Q75.4395-52.1484 77.4658-53.6865Q79.4922-55.2246 81.665-55.9082Q83.8379-56.5918 86.5234-56.5918L95.9473-56.5918L95.9473-45.2637Q95.9473-44.043 96.6309-43.3594Q97.3145-42.6758 98.584-42.6758Q99.1699-42.6758 99.707-42.8955Q100.244-43.1152 100.781-43.5059L118.945-58.1543Q120.02-59.0332 120.02-60.3027Q120.02-61.5723 118.945-62.5L100.781-77.1484Q100.244-77.5391 99.707-77.7344Q99.1699-77.9297 98.584-77.9297Q97.3145-77.9297 96.6309-77.2705Q95.9473-76.6113 95.9473-75.3906L95.9473-63.2324L86.4746-63.2324Q80.6641-63.2324 76.7822-61.3281Q72.9004-59.4238 68.7012-54.4922L40.2832-21.0449Q37.0117-17.1875 34.082-15.6006Q31.1523-14.0137 27.3438-14.0137L16.0645-14.0137Q14.4531-14.0137 13.4521-13.0859Q12.4512-12.1582 12.4512-10.6934ZM12.4512-59.9121Q12.4512-58.4473 13.4521-57.5195Q14.4531-56.5918 16.0645-56.5918L27.3438-56.5918Q31.1523-56.5918 34.082-55.0049Q37.0117-53.418 40.2832-49.5605L68.7012-16.1133Q72.9004-11.1816 76.7822-9.27734Q80.6641-7.37305 86.4746-7.37305L95.9473-7.37305L95.9473 4.98047Q95.9473 6.20117 96.6309 6.86035Q97.3145 7.51953 98.584 7.51953Q99.1699 7.51953 99.707 7.32422Q100.244 7.12891 100.781 6.73828L118.945-7.86133Q120.02-8.78906 120.02-10.0586Q120.02-11.3281 118.945-12.2559L100.781-26.9043Q100.244-27.2949 99.707-27.4902Q99.1699-27.6855 98.584-27.6855Q97.3145-27.6855 96.6309-27.0264Q95.9473-26.3672 95.9473-25.1465L95.9473-14.0137L86.5234-14.0137Q82.5195-14.0137 79.541-15.5762Q76.5625-17.1387 73.291-21.0449L44.8242-54.4922Q40.5762-59.4238 36.6943-61.3037Q32.8125-63.1836 27.0508-63.1836L16.0645-63.1836Q14.4531-63.1836 13.4521-62.2803Q12.4512-61.377 12.4512-59.9121Z"/>
  </g>
  <g id="Thin-M" transform="matrix(1 0 0 1 793.239 1126)">
   <path d="M12.4512-11.4746Q12.4512-10.4004 13.1104-9.76562Q13.7695-9.13086 14.8926-9.13086L25.7324-9.13086Q31.1035-9.13086 34.6924-10.9375Q38.2812-12.7441 42.2852-17.4316L69.2383-49.4629Q71.5332-52.1484 73.6084-53.7598Q75.6836-55.3711 77.8564-56.0791Q80.0293-56.7871 82.666-56.7871L91.4062-56.7871L91.4062-45.0684Q91.4062-44.1895 91.9189-43.6768Q92.4316-43.1641 93.4082-43.1641Q93.8965-43.1641 94.2627-43.335Q94.6289-43.5059 95.1172-43.8477L112.891-57.6172Q113.916-58.3496 113.916-59.5703Q113.916-60.791 112.891-61.6211L95.1172-75.293Q94.6289-75.6836 94.2627-75.8057Q93.8965-75.9277 93.4082-75.9277Q92.4316-75.9277 91.9189-75.4639Q91.4062-75 91.4062-74.0723L91.4062-61.4746L82.959-61.4746Q77.5391-61.4746 73.9502-59.668Q70.3613-57.8613 66.3574-53.1738L39.4043-21.1914Q35.9863-17.0898 32.9834-15.4297Q29.9805-13.7695 26.0742-13.7695L14.8926-13.7695Q13.8672-13.7695 13.1592-13.1104Q12.4512-12.4512 12.4512-11.4746ZM12.4512-59.082Q12.4512-58.1055 13.1592-57.4219Q13.8672-56.7383 14.8926-56.7383L26.0742-56.7383Q29.9805-56.7383 32.9834-55.1025Q35.9863-53.4668 39.4043-49.3652L66.3574-17.3828Q70.3613-12.6953 73.9502-10.8887Q77.5391-9.08203 82.959-9.08203L91.4062-9.08203L91.4062 3.66211Q91.4062 4.54102 91.9189 5.0293Q92.4316 5.51758 93.4082 5.51758Q93.8965 5.51758 94.2627 5.37109Q94.6289 5.22461 95.1172 4.88281L112.891-8.83789Q113.916-9.66797 113.916-10.8643Q113.916-12.0605 112.891-12.8906L95.1172-26.6113Q94.6289-26.9531 94.2627-27.0996Q93.8965-27.2461 93.4082-27.2461Q92.4316-27.2461 91.9189-26.7578Q91.4062-26.2695 91.4062-25.3906L91.4062-13.7695L82.666-13.7695Q78.7598-13.7695 75.708-15.4053Q72.6562-17.041 69.2383-21.1426L42.2852-53.125Q38.2812-57.8125 34.6924-59.6191Q31.1035-61.4258 25.7324-61.4258L14.8926-61.4258Q13.7695-61.4258 13.1104-60.791Q12.4512-60.1562 12.4512-59.082Z"/>
  </g>
  <g id="Ultralight-M" transform="matrix(1 0 0 1 498.114 1126)">
   <path d="M12.4512-11.8164Q12.4512-11.0352 12.9395-10.5225Q13.4277-10.0098 14.2578-10.0098L25.0488-10.0098Q30.2246-10.0098 33.667-11.7676Q37.1094-13.5254 40.9668-18.0664L67.1875-49.3652Q69.5312-52.0996 71.6309-53.7842Q73.7305-55.4688 75.9033-56.1768Q78.0762-56.8848 80.7129-56.8848L89.1113-56.8848L89.1113-44.9707Q89.1113-44.2871 89.5264-43.8477Q89.9414-43.4082 90.7715-43.4082Q91.1621-43.4082 91.4795-43.5547Q91.7969-43.7012 92.2363-43.9941L109.814-57.3242Q110.742-58.0078 110.742-59.2041Q110.742-60.4004 109.814-61.1328L92.2363-74.3652Q91.7969-74.7559 91.4795-74.8535Q91.1621-74.9512 90.7715-74.9512Q89.9414-74.9512 89.5264-74.5605Q89.1113-74.1699 89.1113-73.4375L89.1113-60.5469L81.1035-60.5469Q75.9277-60.5469 72.4854-58.7891Q69.043-57.0312 65.1855-52.5391L38.9648-21.2891Q35.498-17.041 32.4219-15.3564Q29.3457-13.6719 25.3906-13.6719L14.2578-13.6719Q13.5254-13.6719 12.9883-13.1348Q12.4512-12.5977 12.4512-11.8164ZM12.4512-58.6914Q12.4512-57.9102 12.9883-57.373Q13.5254-56.8359 14.2578-56.8359L25.3906-56.8359Q29.3457-56.8359 32.4219-55.1514Q35.498-53.4668 38.9648-49.2676L65.1855-18.0176Q69.043-13.4766 72.4854-11.7188Q75.9277-9.96094 81.1035-9.96094L89.1113-9.96094L89.1113 2.97852Q89.1113 3.71094 89.5264 4.10156Q89.9414 4.49219 90.7715 4.49219Q91.1621 4.49219 91.4795 4.37012Q91.7969 4.24805 92.2363 3.95508L109.814-9.375Q110.742-10.1074 110.742-11.2793Q110.742-12.4512 109.814-13.2324L92.2363-26.4648Q91.7969-26.7578 91.4795-26.9043Q91.1621-27.0508 90.7715-27.0508Q89.9414-27.0508 89.5264-26.6357Q89.1113-26.2207 89.1113-25.4883L89.1113-13.623L80.7129-13.623Q76.8066-13.623 73.7549-15.3076Q70.7031-16.9922 67.1875-21.1914L40.9668-52.4902Q37.1094-57.0312 33.667-58.7646Q30.2246-60.498 25.0488-60.498L14.2578-60.498Q13.4277-60.498 12.9395-59.9854Q12.4512-59.4727 12.4512-58.6914Z"/>
  </g>
  <g id="Black-S" transform="matrix(1 0 0 1 2870.66 696)">
   <path d="M9.76562-11.2793Q9.76562-8.44727 11.8164-6.39648Q13.8672-4.3457 16.6992-4.3457L27.0508-4.3457Q32.8125-4.3457 36.7432-6.29883Q40.6738-8.25195 43.6523-12.1094L68.7988-44.3359Q71.4355-47.7539 73.7549-49.0234Q76.0742-50.293 80.2734-50.293L87.3047-50.293L87.3047-42.8711Q87.3047-40.3809 88.7451-38.916Q90.1855-37.4512 92.5781-37.4512Q93.75-37.4512 94.6289-37.8174Q95.5078-38.1836 96.1914-38.7695L113.965-53.9551Q115.771-55.5176 115.747-57.7148Q115.723-59.9121 113.965-61.4258L96.1914-76.5625Q95.5078-77.1484 94.6289-77.5146Q93.75-77.8809 92.5781-77.8809Q90.1855-77.8809 88.7451-76.416Q87.3047-74.9512 87.3047-72.4609L87.3047-64.1602L81.543-64.1602Q74.9023-64.1602 69.6777-62.0605Q64.4531-59.9609 59.7168-53.8574L36.9141-24.2676Q34.5215-21.1426 31.7383-19.6777Q28.9551-18.2129 24.4629-18.2129L16.6992-18.2129Q13.8672-18.2129 11.8164-16.1865Q9.76562-14.1602 9.76562-11.2793ZM9.76562-57.2266Q9.76562-54.3945 11.8164-52.3438Q13.8672-50.293 16.6992-50.293L22.998-50.293Q27.4902-50.293 31.0059-48.8281Q34.5215-47.3633 36.9141-44.2383L61.084-13.1348Q64.7461-8.44727 70.1904-6.39648Q75.6348-4.3457 81.3965-4.3457L87.3047-4.3457L87.3047 3.66211Q87.3047 6.15234 88.7451 7.61719Q90.1855 9.08203 92.5781 9.08203Q93.75 9.08203 94.6289 8.71582Q95.5078 8.34961 96.1914 7.76367L113.965-7.42188Q115.771-8.98438 115.747-11.1816Q115.723-13.3789 113.965-14.8926L96.1914-30.0293Q95.5078-30.6152 94.6289-30.9814Q93.75-31.3477 92.5781-31.3477Q90.1855-31.3477 88.7451-29.8828Q87.3047-28.418 87.3047-25.9277L87.3047-18.2129L81.543-18.2129Q77.0996-18.2129 74.0723-19.7021Q71.0449-21.1914 68.6035-24.3164L43.6523-56.3965Q40.6738-60.3027 36.0107-62.2314Q31.3477-64.1602 25.5859-64.1602L16.6992-64.1602Q13.8672-64.1602 11.8164-62.1338Q9.76562-60.1074 9.76562-57.2266Z"/>
  </g>
  <g id="Heavy-S" transform="matrix(1 0 0 1 2575.8 696)">
   <path d="M9.76562-12.2559Q9.76562-9.66797 11.5967-7.88574Q13.4277-6.10352 16.0156-6.10352L25.9766-6.10352Q31.543-6.10352 35.3271-7.9834Q39.1113-9.86328 42.1875-13.7695L67.041-44.873Q69.5801-48.1445 71.8994-49.3896Q74.2188-50.6348 78.2227-50.6348L85.4492-50.6348L85.4492-42.9688Q85.4492-40.7715 86.7188-39.4775Q87.9883-38.1836 90.1367-38.1836Q91.1621-38.1836 91.9678-38.5254Q92.7734-38.8672 93.4082-39.4043L110.449-53.9062Q112.061-55.2734 112.036-57.2021Q112.012-59.1309 110.449-60.498L93.4082-74.9512Q92.7734-75.4883 91.9678-75.8301Q91.1621-76.1719 90.1367-76.1719Q87.9883-76.1719 86.7188-74.8779Q85.4492-73.584 85.4492-71.3867L85.4492-62.9395L79.1016-62.9395Q72.8516-62.9395 68.0908-60.9375Q63.3301-58.9355 58.8379-53.3203L35.8398-24.2188Q33.4473-21.1426 30.7861-19.751Q28.125-18.3594 24.0234-18.3594L16.0156-18.3594Q13.4277-18.3594 11.5967-16.5771Q9.76562-14.7949 9.76562-12.2559ZM9.76562-56.7871Q9.76562-54.248 11.5967-52.4414Q13.4277-50.6348 16.0156-50.6348L22.9004-50.6348Q27.0508-50.6348 30.249-49.2432Q33.4473-47.8516 35.8398-44.8242L59.9121-14.5508Q63.5254-10.0098 68.457-8.05664Q73.3887-6.10352 78.9551-6.10352L85.4492-6.10352L85.4492 2.19727Q85.4492 4.44336 86.7188 5.71289Q87.9883 6.98242 90.1367 6.98242Q91.1621 6.98242 91.9678 6.66504Q92.7734 6.34766 93.4082 5.81055L110.449-8.69141Q112.061-10.1074 112.036-12.0361Q112.012-13.9648 110.449-15.2832L93.4082-29.7852Q92.7734-30.3223 91.9678-30.6396Q91.1621-30.957 90.1367-30.957Q87.9883-30.957 86.7188-29.6875Q85.4492-28.418 85.4492-26.2207L85.4492-18.3594L79.1504-18.3594Q75.0488-18.3594 72.168-19.7754Q69.2871-21.1914 66.8945-24.2188L42.1875-55.2734Q39.1113-59.2285 34.7656-61.084Q30.4199-62.9395 24.8535-62.9395L16.0156-62.9395Q13.4277-62.9395 11.5967-61.1572Q9.76562-59.375 9.76562-56.7871Z"/>
  </g>
  <g id="Bold-S" transform="matrix(1 0 0 1 2281.16 696)">
   <path d="M9.76562-13.3301Q9.76562-11.084 11.3525-9.57031Q12.9395-8.05664 15.2344-8.05664L24.8047-8.05664Q30.127-8.05664 33.7402-9.83887Q37.3535-11.6211 40.625-15.625L65.0391-45.5078Q67.5781-48.6328 69.8975-49.8291Q72.2168-51.0254 75.8789-51.0254L83.3984-51.0254L83.3984-43.1152Q83.3984-41.2109 84.4727-40.1367Q85.5469-39.0625 87.4023-39.0625Q88.2812-39.0625 89.0137-39.3311Q89.7461-39.5996 90.2832-40.0879L106.494-53.8574Q107.861-55.0293 107.861-56.6406Q107.861-58.252 106.494-59.4727L90.2832-73.1934Q89.7461-73.6816 89.0137-73.9502Q88.2812-74.2188 87.4023-74.2188Q85.5469-74.2188 84.4727-73.1445Q83.3984-72.0703 83.3984-70.2148L83.3984-61.5234L76.3672-61.5234Q70.5566-61.5234 66.3086-59.668Q62.0605-57.8125 57.9102-52.7344L34.668-24.1211Q32.2266-21.1914 29.7363-19.873Q27.2461-18.5547 23.584-18.5547L15.2344-18.5547Q12.9395-18.5547 11.3525-17.041Q9.76562-15.5273 9.76562-13.3301ZM9.76562-56.2988Q9.76562-54.0527 11.3525-52.5391Q12.9395-51.0254 15.2344-51.0254L22.8516-51.0254Q26.5625-51.0254 29.4189-49.7314Q32.2754-48.4375 34.668-45.459L58.5938-16.1133Q62.207-11.7188 66.5771-9.8877Q70.9473-8.05664 76.2695-8.05664L83.3984-8.05664L83.3984 0.634766Q83.3984 2.49023 84.4727 3.56445Q85.5469 4.63867 87.4023 4.63867Q88.2812 4.63867 89.0137 4.37012Q89.7461 4.10156 90.2832 3.61328L106.494-10.1562Q107.861-11.3281 107.861-12.9639Q107.861-14.5996 106.494-15.7715L90.2832-29.4922Q89.7461-29.9805 89.0137-30.2734Q88.2812-30.5664 87.4023-30.5664Q85.5469-30.5664 84.4727-29.4922Q83.3984-28.418 83.3984-26.5137L83.3984-18.5547L76.5137-18.5547Q72.7051-18.5547 70.0439-19.873Q67.3828-21.1914 64.9414-24.1699L40.625-54.0039Q37.3535-58.0078 33.374-59.7656Q29.3945-61.5234 24.0723-61.5234L15.2344-61.5234Q12.9395-61.5234 11.3525-60.0342Q9.76562-58.5449 9.76562-56.2988Z"/>
  </g>
  <g id="Semibold-S" transform="matrix(1 0 0 1 1985.89 696)">
   <path d="M9.76562-14.0625Q9.76562-12.0605 11.1572-10.7422Q12.5488-9.42383 14.6484-9.42383L23.9746-9.42383Q29.1016-9.42383 32.6172-11.1328Q36.1328-12.8418 39.502-16.8945L63.6719-45.9473Q66.1621-48.9258 68.4814-50.0977Q70.8008-51.2695 74.2676-51.2695L81.9824-51.2695L81.9824-43.1641Q81.9824-41.5039 82.9102-40.5518Q83.8379-39.5996 85.498-39.5996Q86.2793-39.5996 86.9385-39.8682Q87.5977-40.1367 88.0859-40.5762L103.76-53.8086Q104.98-54.834 104.98-56.25Q104.98-57.666 103.76-58.7402L88.0859-71.9727Q87.5977-72.3633 86.9385-72.6318Q86.2793-72.9004 85.498-72.9004Q83.8379-72.9004 82.9102-71.9727Q81.9824-71.0449 81.9824-69.3848L81.9824-60.5469L74.4629-60.5469Q68.9941-60.5469 65.0635-58.7891Q61.1328-57.0312 57.2266-52.2949L33.8379-24.0723Q31.3965-21.1914 29.0039-19.9219Q26.6113-18.6523 23.2422-18.6523L14.6484-18.6523Q12.5488-18.6523 11.1572-17.334Q9.76562-16.0156 9.76562-14.0625ZM9.76562-55.9082Q9.76562-53.9062 11.1572-52.5879Q12.5488-51.2695 14.6484-51.2695L22.7539-51.2695Q26.1719-51.2695 28.8086-50.0244Q31.4453-48.7793 33.8379-45.8984L57.666-17.1875Q61.2305-12.8906 65.21-11.1572Q69.1895-9.42383 74.4141-9.42383L81.9824-9.42383L81.9824-0.488281Q81.9824 1.17188 82.9102 2.09961Q83.8379 3.02734 85.498 3.02734Q86.2793 3.02734 86.9385 2.7832Q87.5977 2.53906 88.0859 2.09961L103.76-11.1328Q104.98-12.1582 104.98-13.5742Q104.98-14.9902 103.76-16.1133L88.0859-29.2969Q87.5977-29.7363 86.9385-29.9805Q86.2793-30.2246 85.498-30.2246Q83.8379-30.2246 82.9102-29.2969Q81.9824-28.3691 81.9824-26.709L81.9824-18.6523L74.707-18.6523Q71.0938-18.6523 68.5547-19.9219Q66.0156-21.1914 63.623-24.0723L39.502-53.0762Q36.1328-57.1289 32.3975-58.8379Q28.6621-60.5469 23.4863-60.5469L14.6484-60.5469Q12.5488-60.5469 11.1572-59.2529Q9.76562-57.959 9.76562-55.9082Z"/>
  </g>
  <g id="Medium-S" transform="matrix(1 0 0 1 1690.28 696)">
   <path d="M9.76562-14.5996Q9.76562-12.793 11.0352-11.6211Q12.3047-10.4492 14.2578-10.4492L23.3398-10.4492Q28.3691-10.4492 31.7871-12.1094Q35.2051-13.7695 38.623-17.8223L62.6465-46.2402Q65.0879-49.1699 67.4072-50.3418Q69.7266-51.5137 73.0469-51.5137L80.9082-51.5137L80.9082-43.2129Q80.9082-41.6992 81.7383-40.8691Q82.5684-40.0391 84.082-40.0391Q84.7168-40.0391 85.376-40.2832Q86.0352-40.5273 86.4746-40.918L101.66-53.7598Q102.783-54.6875 102.783-55.9326Q102.783-57.1777 101.66-58.2031L86.4746-71.0449Q86.0352-71.4355 85.376-71.6553Q84.7168-71.875 84.082-71.875Q82.5684-71.875 81.7383-71.0449Q80.9082-70.2148 80.9082-68.75L80.9082-59.8145L72.998-59.8145Q67.7734-59.8145 64.1357-58.1299Q60.498-56.4453 56.6895-51.9531L33.2031-24.0234Q30.7617-21.1914 28.4668-19.9707Q26.1719-18.75 22.998-18.75L14.2578-18.75Q12.3047-18.75 11.0352-17.5781Q9.76562-16.4062 9.76562-14.5996ZM9.76562-55.6641Q9.76562-53.8574 11.0352-52.6855Q12.3047-51.5137 14.2578-51.5137L22.7051-51.5137Q25.9277-51.5137 28.3691-50.293Q30.8105-49.0723 33.2031-46.2402L56.9824-18.0176Q60.5469-13.8184 64.2334-12.1338Q67.9199-10.4492 72.998-10.4492L80.9082-10.4492L80.9082-1.36719Q80.9082 0.146484 81.7383 0.976562Q82.5684 1.80664 84.082 1.80664Q84.7168 1.80664 85.376 1.5625Q86.0352 1.31836 86.4746 0.976562L101.66-11.8652Q102.783-12.8418 102.783-14.0869Q102.783-15.332 101.66-16.3574L86.4746-29.1504Q86.0352-29.5898 85.376-29.8096Q84.7168-30.0293 84.082-30.0293Q82.5684-30.0293 81.7383-29.1992Q80.9082-28.3691 80.9082-26.9043L80.9082-18.75L73.291-18.75Q69.873-18.75 67.4316-19.9707Q64.9902-21.1914 62.5977-24.0234L38.623-52.4414Q35.2051-56.4941 31.665-58.1543Q28.125-59.8145 23.0469-59.8145L14.2578-59.8145Q12.3047-59.8145 11.0352-58.667Q9.76562-57.5195 9.76562-55.6641Z"/>
  </g>
  <g id="Regular-S" transform="matrix(1 0 0 1 1394.99 696)">
   <path d="M9.76562-15.332Q9.76562-13.7207 10.8643-12.7441Q11.9629-11.7676 13.7207-11.7676L22.5098-11.7676Q27.3926-11.7676 30.6885-13.3789Q33.9844-14.9902 37.5488-19.0918L61.2793-46.6797Q63.6719-49.4629 65.9912-50.6104Q68.3105-51.7578 71.4844-51.7578L79.4922-51.7578L79.4922-43.3105Q79.4922-41.9922 80.2002-41.3086Q80.9082-40.625 82.2266-40.625Q82.7637-40.625 83.3496-40.8203Q83.9355-41.0156 84.3262-41.4062L98.9746-53.7109Q99.9512-54.4922 99.9512-55.542Q99.9512-56.5918 98.9746-57.4707L84.3262-69.8242Q83.9355-70.166 83.3496-70.3613Q82.7637-70.5566 82.2266-70.5566Q80.9082-70.5566 80.2002-69.873Q79.4922-69.1895 79.4922-67.9199L79.4922-58.8867L71.1426-58.8867Q66.2109-58.8867 62.915-57.2754Q59.6191-55.6641 56.0547-51.5625L32.373-23.9746Q29.9316-21.1914 27.7344-20.0195Q25.5371-18.8477 22.6562-18.8477L13.7207-18.8477Q11.9629-18.8477 10.8643-17.8711Q9.76562-16.8945 9.76562-15.332ZM9.76562-55.3223Q9.76562-53.7109 10.8643-52.7344Q11.9629-51.7578 13.7207-51.7578L22.6562-51.7578Q25.5859-51.7578 27.7832-50.6104Q29.9805-49.4629 32.373-46.6797L56.0547-19.0918Q59.6191-14.9902 62.915-13.3789Q66.2109-11.7676 71.1426-11.7676L79.4922-11.7676L79.4922-2.44141Q79.4922-1.17188 80.2002-0.488281Q80.9082 0.195312 82.2266 0.195312Q82.7637 0.195312 83.3496 0Q83.9355-0.195312 84.3262-0.537109L98.9746-12.8418Q99.9512-13.6719 99.9512-14.7217Q99.9512-15.7715 98.9746-16.6504L84.3262-28.9551Q83.9355-29.3457 83.3496-29.541Q82.7637-29.7363 82.2266-29.7363Q80.9082-29.7363 80.2002-29.0527Q79.4922-28.3691 79.4922-27.0996L79.4922-18.8477L71.4844-18.8477Q68.3105-18.8477 65.9912-20.0195Q63.6719-21.1914 61.2793-23.9746L37.5488-51.5625Q33.9844-55.6641 30.6885-57.2754Q27.3926-58.8867 22.5098-58.8867L13.7207-58.8867Q11.9629-58.8867 10.8643-57.9102Q9.76562-56.9336 9.76562-55.3223Z"/>
  </g>
  <g id="Light-S" transform="matrix(1 0 0 1 1100.33 696)">
   <path d="M9.76562-15.8203Q9.76562-14.502 10.6445-13.7207Q11.5234-12.9395 12.9395-12.9395L21.6309-12.9395Q26.2207-12.9395 29.3457-14.4775Q32.4707-16.0156 35.8398-19.9219L58.5938-46.582Q61.084-49.5117 63.4277-50.708Q65.7715-51.9043 68.8965-51.9043L76.4648-51.9043L76.4648-43.1641Q76.4648-42.0898 77.0508-41.5283Q77.6367-40.9668 78.7598-40.9668Q79.248-40.9668 79.7119-41.1133Q80.1758-41.2598 80.5664-41.6016L94.9219-53.3203Q95.8496-54.0527 95.8496-55.0537Q95.8496-56.0547 94.9219-56.8848L80.5664-68.6035Q80.1758-68.8965 79.7119-69.0674Q79.248-69.2383 78.7598-69.2383Q77.6367-69.2383 77.0508-68.6768Q76.4648-68.1152 76.4648-67.041L76.4648-57.7148L68.7988-57.7148Q64.1113-57.7148 61.0107-56.1768Q57.9102-54.6387 54.4922-50.6836L31.7871-24.0723Q29.248-21.1426 27.002-19.9219Q24.7559-18.7012 21.8262-18.7012L12.9395-18.7012Q11.5234-18.7012 10.6445-17.8955Q9.76562-17.0898 9.76562-15.8203ZM9.76562-54.7852Q9.76562-53.5156 10.6445-52.6855Q11.5234-51.8555 12.9395-51.8555L21.8262-51.8555Q24.8047-51.8555 27.0508-50.6592Q29.2969-49.4629 31.7871-46.5332L54.4922-19.9219Q57.9102-15.9668 61.0107-14.4531Q64.1113-12.9395 68.7988-12.9395L76.4648-12.9395L76.4648-3.32031Q76.4648-2.29492 77.0508-1.7334Q77.6367-1.17188 78.7598-1.17188Q79.248-1.17188 79.7119-1.31836Q80.1758-1.46484 80.5664-1.80664L94.9219-13.5254Q95.8496-14.2578 95.8496-15.2832Q95.8496-16.3086 94.9219-17.0898L80.5664-28.7598Q80.1758-29.1016 79.7119-29.2725Q79.248-29.4434 78.7598-29.4434Q77.6367-29.4434 77.0508-28.8818Q76.4648-28.3203 76.4648-27.2461L76.4648-18.7012L68.8965-18.7012Q65.7715-18.7012 63.4277-19.8975Q61.084-21.0938 58.5938-24.0723L35.8398-50.6836Q32.4707-54.5898 29.3457-56.1279Q26.2207-57.666 21.6309-57.666L12.9395-57.666Q11.5234-57.666 10.6445-56.8848Q9.76562-56.1035 9.76562-54.7852Z"/>
  </g>
  <g id="Thin-S" transform="matrix(1 0 0 1 806.325 696)">
   <path d="M9.76562-16.5039Q9.76562-15.5762 10.3516-15.0146Q10.9375-14.4531 11.9141-14.4531L20.459-14.4531Q24.707-14.4531 27.5635-15.8936Q30.4199-17.334 33.5938-21.0449L55.0293-46.3867Q57.7148-49.5117 60.0586-50.7812Q62.4023-52.0508 65.5273-52.0508L72.5098-52.0508L72.5098-43.0176Q72.5098-42.1875 72.9248-41.7725Q73.3398-41.3574 74.1699-41.3574Q74.5605-41.3574 74.8779-41.4795Q75.1953-41.6016 75.5859-41.8945L89.5996-52.832Q90.4297-53.4668 90.4297-54.4434Q90.4297-55.4199 89.5996-56.0547L75.5859-66.9922Q75.1953-67.2363 74.8779-67.3584Q74.5605-67.4805 74.1699-67.4805Q73.3398-67.4805 72.9248-67.0654Q72.5098-66.6504 72.5098-65.918L72.5098-56.1035L65.6738-56.1035Q61.377-56.1035 58.4961-54.6631Q55.6152-53.2227 52.4902-49.5605L31.0547-24.1699Q28.3691-21.0449 26.0498-19.7754Q23.7305-18.5059 20.7031-18.5059L11.9141-18.5059Q10.9863-18.5059 10.376-17.9199Q9.76562-17.334 9.76562-16.5039ZM9.76562-54.0527Q9.76562-53.2227 10.376-52.6367Q10.9863-52.0508 11.9141-52.0508L20.7031-52.0508Q23.7305-52.0508 26.0742-50.7812Q28.418-49.5117 31.0547-46.3867L52.4902-20.9961Q55.6152-17.334 58.4961-15.8936Q61.377-14.4531 65.6738-14.4531L72.5098-14.4531L72.5098-4.49219Q72.5098-3.75977 72.9248-3.34473Q73.3398-2.92969 74.1699-2.92969Q74.5605-2.92969 74.8779-3.05176Q75.1953-3.17383 75.5859-3.4668L89.5996-14.4043Q90.4297-15.0391 90.4297-15.9912Q90.4297-16.9434 89.5996-17.627L75.5859-28.5156Q75.1953-28.8086 74.8779-28.9307Q74.5605-29.0527 74.1699-29.0527Q73.3398-29.0527 72.9248-28.6377Q72.5098-28.2227 72.5098-27.4414L72.5098-18.457L65.5273-18.457Q62.4023-18.457 60.0586-19.7266Q57.7148-20.9961 55.0293-24.1699L33.5938-49.5117Q30.4199-53.2227 27.5635-54.6387Q24.707-56.0547 20.459-56.0547L11.9141-56.0547Q10.9375-56.0547 10.3516-55.5176Q9.76562-54.9805 9.76562-54.0527Z"/>
  </g>
  <g id="Ultralight-S" transform="matrix(1 0 0 1 511.005 696)">
   <path d="M9.76562-16.8457Q9.76562-16.1133 10.2051-15.6982Q10.6445-15.2832 11.377-15.2832L19.8242-15.2832Q23.9258-15.2832 26.6602-16.6504Q29.3945-18.0176 32.4707-21.582L53.1738-46.3379Q55.957-49.5605 58.3252-50.8545Q60.6934-52.1484 63.7695-52.1484L70.459-52.1484L70.459-42.9199Q70.459-42.2852 70.8008-41.9434Q71.1426-41.6016 71.8262-41.6016Q72.168-41.6016 72.4121-41.6992Q72.6562-41.7969 73.0469-42.041L86.8652-52.5879Q87.6465-53.1738 87.6465-54.1016Q87.6465-55.0293 86.8652-55.6641L73.0469-66.1621Q72.6562-66.4062 72.4121-66.5039Q72.168-66.6016 71.8262-66.6016Q71.1426-66.6016 70.8008-66.2598Q70.459-65.918 70.459-65.332L70.459-55.3223L64.0625-55.3223Q59.9609-55.3223 57.2021-53.9307Q54.4434-52.5391 51.416-48.9746L30.6641-24.2676Q27.9297-20.9961 25.5615-19.7021Q23.1934-18.4082 20.1172-18.4082L11.377-18.4082Q10.6934-18.4082 10.2295-17.9199Q9.76562-17.4316 9.76562-16.8457ZM9.76562-53.7109Q9.76562-53.0762 10.2295-52.5879Q10.6934-52.0996 11.377-52.0996L20.1172-52.0996Q23.1934-52.0996 25.5615-50.8057Q27.9297-49.5117 30.6641-46.2891L51.416-21.5332Q54.4434-17.9688 57.2021-16.6016Q59.9609-15.2344 64.0625-15.2344L70.459-15.2344L70.459-5.12695Q70.459-4.54102 70.8008-4.19922Q71.1426-3.85742 71.8262-3.85742Q72.168-3.85742 72.4121-3.95508Q72.6562-4.05273 73.0469-4.29688L86.8652-14.8438Q87.6465-15.4297 87.6465-16.3818Q87.6465-17.334 86.8652-17.9199L73.0469-28.418Q72.6562-28.6621 72.4121-28.7598Q72.168-28.8574 71.8262-28.8574Q71.1426-28.8574 70.8008-28.5156Q70.459-28.1738 70.459-27.5391L70.459-18.3594L63.7695-18.3594Q60.6934-18.3594 58.3252-19.6533Q55.957-20.9473 53.1738-24.2188L32.4707-48.9258Q29.3945-52.4902 26.6602-53.8818Q23.9258-55.2734 19.8242-55.2734L11.377-55.2734Q10.6445-55.2734 10.2051-54.834Q9.76562-54.3945 9.76562-53.7109Z"/>
  </g>
 </g>
</svg>
