<?xml version="1.0" encoding="UTF-8"?>
<!--Generator: Apple Native CoreSVG 149-->
<!DOCTYPE svg
PUBLIC "-//W3C//DTD SVG 1.1//EN"
       "http://www.w3.org/Graphics/SVG/1.1/DTD/svg11.dtd">
<svg version="1.1" xmlns="http://www.w3.org/2000/svg" xmlns:xlink="http://www.w3.org/1999/xlink" width="3300" height="2200">
 <!--glyph: "uni10029E.medium", point size: 100.0, font version: "17.0d9e1", template writer version: "59"-->
 <g id="Notes">
  <rect height="2200" id="artboard" style="fill:white;opacity:1" width="3300" x="0" y="0"/>
  <line style="fill:none;stroke:black;opacity:1;stroke-width:0.5;" x1="263" x2="3036" y1="292" y2="292"/>
  <text style="stroke:none;fill:black;font-family:sans-serif;font-size:13;font-weight:bold;" transform="matrix(1 0 0 1 263 322)">Weight/Scale Variations</text>
  <text style="stroke:none;fill:black;font-family:sans-serif;font-size:13;text-anchor:middle;" transform="matrix(1 0 0 1 559.711 322)">Ultralight</text>
  <text style="stroke:none;fill:black;font-family:sans-serif;font-size:13;text-anchor:middle;" transform="matrix(1 0 0 1 856.422 322)">Thin</text>
  <text style="stroke:none;fill:black;font-family:sans-serif;font-size:13;text-anchor:middle;" transform="matrix(1 0 0 1 1153.13 322)">Light</text>
  <text style="stroke:none;fill:black;font-family:sans-serif;font-size:13;text-anchor:middle;" transform="matrix(1 0 0 1 1449.84 322)">Regular</text>
  <text style="stroke:none;fill:black;font-family:sans-serif;font-size:13;text-anchor:middle;" transform="matrix(1 0 0 1 1746.56 322)">Medium</text>
  <text style="stroke:none;fill:black;font-family:sans-serif;font-size:13;text-anchor:middle;" transform="matrix(1 0 0 1 2043.27 322)">Semibold</text>
  <text style="stroke:none;fill:black;font-family:sans-serif;font-size:13;text-anchor:middle;" transform="matrix(1 0 0 1 2339.98 322)">Bold</text>
  <text style="stroke:none;fill:black;font-family:sans-serif;font-size:13;text-anchor:middle;" transform="matrix(1 0 0 1 2636.69 322)">Heavy</text>
  <text style="stroke:none;fill:black;font-family:sans-serif;font-size:13;text-anchor:middle;" transform="matrix(1 0 0 1 2933.4 322)">Black</text>
  <line style="fill:none;stroke:black;opacity:1;stroke-width:0.5;" x1="263" x2="3036" y1="1903" y2="1903"/>
  <g transform="matrix(1 0 0 1 263 1933)">
   <path d="M9.24805 0.830078Q10.8691 0.830078 12.2949 0.214844Q13.7207-0.400391 14.8096-1.49414Q15.8984-2.58789 16.5186-4.01367Q17.1387-5.43945 17.1387-7.05078Q17.1387-8.66211 16.5186-10.0879Q15.8984-11.5137 14.8047-12.6074Q13.7109-13.7012 12.2852-14.3164Q10.8594-14.9316 9.23828-14.9316Q7.62695-14.9316 6.20117-14.3164Q4.77539-13.7012 3.69141-12.6074Q2.60742-11.5137 1.9873-10.0879Q1.36719-8.66211 1.36719-7.05078Q1.36719-5.43945 1.9873-4.01367Q2.60742-2.58789 3.69629-1.49414Q4.78516-0.400391 6.21094 0.214844Q7.63672 0.830078 9.24805 0.830078ZM9.24805-0.654297Q7.91992-0.654297 6.7627-1.14746Q5.60547-1.64062 4.73145-2.51953Q3.85742-3.39844 3.36426-4.56055Q2.87109-5.72266 2.87109-7.05078Q2.87109-8.37891 3.35938-9.54102Q3.84766-10.7031 4.72168-11.582Q5.5957-12.4609 6.75293-12.9541Q7.91016-13.4473 9.23828-13.4473Q10.5762-13.4473 11.7334-12.9541Q12.8906-12.4609 13.7695-11.582Q14.6484-10.7031 15.1465-9.54102Q15.6445-8.37891 15.6445-7.05078Q15.6445-5.72266 15.1514-4.56055Q14.6582-3.39844 13.7842-2.51953Q12.9102-1.64062 11.748-1.14746Q10.5859-0.654297 9.24805-0.654297ZM5.83984-7.04102Q5.83984-6.71875 6.04492-6.51855Q6.25-6.31836 6.5918-6.31836L8.50586-6.31836L8.50586-4.39453Q8.50586-4.0625 8.70605-3.85742Q8.90625-3.65234 9.22852-3.65234Q9.56055-3.65234 9.76562-3.85742Q9.9707-4.0625 9.9707-4.39453L9.9707-6.31836L11.8945-6.31836Q12.2266-6.31836 12.4316-6.51855Q12.6367-6.71875 12.6367-7.04102Q12.6367-7.37305 12.4316-7.57812Q12.2266-7.7832 11.8945-7.7832L9.9707-7.7832L9.9707-9.69727Q9.9707-10.0391 9.76562-10.2441Q9.56055-10.4492 9.22852-10.4492Q8.90625-10.4492 8.70605-10.2441Q8.50586-10.0391 8.50586-9.69727L8.50586-7.7832L6.5918-7.7832Q6.25-7.7832 6.04492-7.57812Q5.83984-7.37305 5.83984-7.04102Z"/>
  </g>
  <g transform="matrix(1 0 0 1 281.867 1933)">
   <path d="M11.709 2.91016Q13.75 2.91016 15.5518 2.12891Q17.3535 1.34766 18.7305-0.0292969Q20.1074-1.40625 20.8887-3.20801Q21.6699-5.00977 21.6699-7.05078Q21.6699-9.0918 20.8887-10.8936Q20.1074-12.6953 18.7305-14.0723Q17.3535-15.4492 15.5469-16.2305Q13.7402-17.0117 11.6992-17.0117Q9.6582-17.0117 7.85645-16.2305Q6.05469-15.4492 4.68262-14.0723Q3.31055-12.6953 2.5293-10.8936Q1.74805-9.0918 1.74805-7.05078Q1.74805-5.00977 2.5293-3.20801Q3.31055-1.40625 4.6875-0.0292969Q6.06445 1.34766 7.86621 2.12891Q9.66797 2.91016 11.709 2.91016ZM11.709 1.25Q9.98047 1.25 8.47656 0.605469Q6.97266-0.0390625 5.83496-1.17676Q4.69727-2.31445 4.05762-3.81836Q3.41797-5.32227 3.41797-7.05078Q3.41797-8.7793 4.05762-10.2832Q4.69727-11.7871 5.83008-12.9297Q6.96289-14.0723 8.4668-14.7119Q9.9707-15.3516 11.6992-15.3516Q13.4277-15.3516 14.9316-14.7119Q16.4355-14.0723 17.5781-12.9297Q18.7207-11.7871 19.3652-10.2832Q20.0098-8.7793 20.0098-7.05078Q20.0098-5.32227 19.3701-3.81836Q18.7305-2.31445 17.5928-1.17676Q16.4551-0.0390625 14.9463 0.605469Q13.4375 1.25 11.709 1.25ZM7.39258-7.04102Q7.39258-6.68945 7.62695-6.46484Q7.86133-6.24023 8.23242-6.24023L10.8789-6.24023L10.8789-3.57422Q10.8789-3.21289 11.1035-2.9834Q11.3281-2.75391 11.6797-2.75391Q12.0508-2.75391 12.2852-2.9834Q12.5195-3.21289 12.5195-3.57422L12.5195-6.24023L15.1758-6.24023Q15.5371-6.24023 15.7715-6.46484Q16.0059-6.68945 16.0059-7.04102Q16.0059-7.41211 15.7715-7.6416Q15.5371-7.87109 15.1758-7.87109L12.5195-7.87109L12.5195-10.5176Q12.5195-10.8984 12.2852-11.1279Q12.0508-11.3574 11.6797-11.3574Q11.3281-11.3574 11.1035-11.1279Q10.8789-10.8984 10.8789-10.5176L10.8789-7.87109L8.23242-7.87109Q7.85156-7.87109 7.62207-7.6416Q7.39258-7.41211 7.39258-7.04102Z"/>
  </g>
  <g transform="matrix(1 0 0 1 305.646 1933)">
   <path d="M14.9707 5.66406Q17.0605 5.66406 18.96 5.01465Q20.8594 4.36523 22.4512 3.19336Q24.043 2.02148 25.2197 0.429688Q26.3965-1.16211 27.0459-3.06641Q27.6953-4.9707 27.6953-7.05078Q27.6953-9.14062 27.0459-11.04Q26.3965-12.9395 25.2197-14.5312Q24.043-16.123 22.4512-17.2998Q20.8594-18.4766 18.9551-19.126Q17.0508-19.7754 14.9609-19.7754Q12.8711-19.7754 10.9717-19.126Q9.07227-18.4766 7.48535-17.2998Q5.89844-16.123 4.72168-14.5312Q3.54492-12.9395 2.90039-11.04Q2.25586-9.14062 2.25586-7.05078Q2.25586-4.9707 2.90527-3.06641Q3.55469-1.16211 4.72656 0.429688Q5.89844 2.02148 7.49023 3.19336Q9.08203 4.36523 10.9814 5.01465Q12.8809 5.66406 14.9707 5.66406ZM14.9707 3.84766Q13.1641 3.84766 11.5283 3.2959Q9.89258 2.74414 8.53516 1.74805Q7.17773 0.751953 6.17676-0.610352Q5.17578-1.97266 4.62891-3.6084Q4.08203-5.24414 4.08203-7.05078Q4.08203-8.86719 4.62891-10.5029Q5.17578-12.1387 6.17188-13.501Q7.16797-14.8633 8.52539-15.8594Q9.88281-16.8555 11.5186-17.4023Q13.1543-17.9492 14.9609-17.9492Q16.7773-17.9492 18.4131-17.4023Q20.0488-16.8555 21.4111-15.8594Q22.7734-14.8633 23.7695-13.501Q24.7656-12.1387 25.3174-10.5029Q25.8691-8.86719 25.8691-7.05078Q25.8789-5.24414 25.332-3.6084Q24.7852-1.97266 23.7842-0.610352Q22.7832 0.751953 21.4209 1.74805Q20.0586 2.74414 18.4229 3.2959Q16.7871 3.84766 14.9707 3.84766ZM9.45312-7.04102Q9.45312-6.66016 9.71191-6.41113Q9.9707-6.16211 10.3711-6.16211L14.0625-6.16211L14.0625-2.46094Q14.0625-2.06055 14.3115-1.80664Q14.5605-1.55273 14.9414-1.55273Q15.3516-1.55273 15.6055-1.80664Q15.8594-2.06055 15.8594-2.46094L15.8594-6.16211L19.5605-6.16211Q19.9609-6.16211 20.2148-6.41113Q20.4688-6.66016 20.4688-7.04102Q20.4688-7.45117 20.2148-7.70508Q19.9609-7.95898 19.5605-7.95898L15.8594-7.95898L15.8594-11.6504Q15.8594-12.0605 15.6055-12.3145Q15.3516-12.5684 14.9414-12.5684Q14.5605-12.5684 14.3115-12.3096Q14.0625-12.0508 14.0625-11.6504L14.0625-7.95898L10.3711-7.95898Q9.96094-7.95898 9.70703-7.70508Q9.45312-7.45117 9.45312-7.04102Z"/>
  </g>
  <text style="stroke:none;fill:black;font-family:sans-serif;font-size:13;font-weight:bold;" transform="matrix(1 0 0 1 263 1953)">Design Variations</text>
  <text style="stroke:none;fill:black;font-family:sans-serif;font-size:13;" transform="matrix(1 0 0 1 263 1971)">Symbols are supported in up to nine weights and three scales.</text>
  <text style="stroke:none;fill:black;font-family:sans-serif;font-size:13;" transform="matrix(1 0 0 1 263 1989)">For optimal layout with text and other symbols, vertically align</text>
  <text style="stroke:none;fill:black;font-family:sans-serif;font-size:13;" transform="matrix(1 0 0 1 263 2007)">symbols with the adjacent text.</text>
  <line style="fill:none;stroke:#00AEEF;stroke-width:0.5;opacity:1.0;" x1="776" x2="776" y1="1919" y2="1933"/>
  <g transform="matrix(1 0 0 1 776 1933)">
   <path d="M3.31055 0.15625Q3.70117 0.15625 3.91602-0.00976562Q4.13086-0.175781 4.26758-0.585938L5.52734-4.0332L11.2891-4.0332L12.5488-0.585938Q12.6855-0.175781 12.9004-0.00976562Q13.1152 0.15625 13.4961 0.15625Q13.8867 0.15625 14.1162-0.0585938Q14.3457-0.273438 14.3457-0.644531Q14.3457-0.869141 14.2383-1.17188L9.6582-13.3691Q9.48242-13.8184 9.17969-14.043Q8.87695-14.2676 8.4082-14.2676Q7.5-14.2676 7.17773-13.3789L2.59766-1.16211Q2.49023-0.859375 2.49023-0.634766Q2.49023-0.263672 2.70996-0.0537109Q2.92969 0.15625 3.31055 0.15625ZM6.00586-5.51758L8.37891-12.0898L8.42773-12.0898L10.8008-5.51758Z"/>
  </g>
  <line style="fill:none;stroke:#00AEEF;stroke-width:0.5;opacity:1.0;" x1="793.197" x2="793.197" y1="1919" y2="1933"/>
  <text style="stroke:none;fill:black;font-family:sans-serif;font-size:13;font-weight:bold;" transform="matrix(1 0 0 1 776 1953)">Margins</text>
  <text style="stroke:none;fill:black;font-family:sans-serif;font-size:13;" transform="matrix(1 0 0 1 776 1971)">Leading and trailing margins on the left and right side of each symbol</text>
  <text style="stroke:none;fill:black;font-family:sans-serif;font-size:13;" transform="matrix(1 0 0 1 776 1989)">can be adjusted by modifying the x-location of the margin guidelines.</text>
  <text style="stroke:none;fill:black;font-family:sans-serif;font-size:13;" transform="matrix(1 0 0 1 776 2007)">Modifications are automatically applied proportionally to all</text>
  <text style="stroke:none;fill:black;font-family:sans-serif;font-size:13;" transform="matrix(1 0 0 1 776 2025)">scales and weights.</text>
  <g transform="matrix(1 0 0 1 1289 1933)">
   <path d="M2.8418 1.86523L4.54102 3.57422Q5.18555 4.22852 5.90332 4.17969Q6.62109 4.13086 7.31445 3.35938L18.0078-8.42773L17.041-9.4043L6.42578 2.27539Q6.16211 2.57812 5.89355 2.61719Q5.625 2.65625 5.27344 2.30469L4.10156 1.14258Q3.75 0.791016 3.79395 0.522461Q3.83789 0.253906 4.14062-0.0195312L15.6152-10.8203L14.6387-11.7871L3.04688-0.898438Q2.30469-0.214844 2.25098 0.498047Q2.19727 1.21094 2.8418 1.86523ZM9.25781-16.3281Q8.94531-16.0254 8.90625-15.6348Q8.86719-15.2441 9.04297-14.9512Q9.21875-14.6777 9.55566-14.541Q9.89258-14.4043 10.3809-14.5215Q11.4746-14.7754 12.5977-14.7314Q13.7207-14.6875 14.7949-13.9844L14.209-12.5293Q13.9551-11.9043 14.0674-11.4404Q14.1797-10.9766 14.5801-10.5664L16.875-8.25195Q17.2363-7.88086 17.5781-7.82227Q17.9199-7.76367 18.3398-7.8418L19.4043-8.03711L20.0684-7.36328L20.0293-6.80664Q20-6.43555 20.1221-6.12305Q20.2441-5.81055 20.6055-5.44922L21.3672-4.70703Q21.7285-4.3457 22.1533-4.33105Q22.5781-4.31641 22.9297-4.66797L25.8398-7.58789Q26.1914-7.93945 26.1816-8.35449Q26.1719-8.76953 25.8105-9.13086L25.0391-9.89258Q24.6875-10.2539 24.3799-10.3857Q24.0723-10.5176 23.7109-10.4883L23.1348-10.4395L22.4902-11.0742L22.7344-12.1973Q22.832-12.6172 22.6953-12.9834Q22.5586-13.3496 22.1191-13.7891L19.9219-15.9766Q18.6719-17.2168 17.2607-17.8369Q15.8496-18.457 14.4189-18.4814Q12.9883-18.5059 11.665-17.959Q10.3418-17.4121 9.25781-16.3281ZM10.752-15.957Q11.6602-16.6211 12.7002-16.9043Q13.7402-17.1875 14.8047-17.085Q15.8691-16.9824 16.8701-16.5137Q17.8711-16.0449 18.7012-15.2051L21.1328-12.793Q21.3086-12.6172 21.3525-12.4512Q21.3965-12.2852 21.3379-12.0312L21.0156-10.5469L22.5195-9.0625L23.5059-9.12109Q23.6914-9.13086 23.7891-9.09668Q23.8867-9.0625 24.0332-8.91602L24.6094-8.33984L22.168-5.89844L21.5918-6.47461Q21.4453-6.62109 21.4062-6.71875Q21.3672-6.81641 21.377-7.01172L21.4453-7.98828L19.9512-9.47266L18.4277-9.21875Q18.1836-9.16992 18.042-9.2041Q17.9004-9.23828 17.7148-9.41406L15.7129-11.416Q15.5176-11.5918 15.4932-11.7529Q15.4688-11.9141 15.5859-12.1875L16.4648-14.2773Q15.293-15.3711 13.8281-15.791Q12.3633-16.2109 10.8398-15.7617Q10.7227-15.7324 10.6885-15.8057Q10.6543-15.8789 10.752-15.957Z"/>
  </g>
  <text style="stroke:none;fill:black;font-family:sans-serif;font-size:13;font-weight:bold;" transform="matrix(1 0 0 1 1289 1953)">Exporting</text>
  <text style="stroke:none;fill:black;font-family:sans-serif;font-size:13;" transform="matrix(1 0 0 1 1289 1971)">Symbols should be outlined when exporting to ensure the</text>
  <text style="stroke:none;fill:black;font-family:sans-serif;font-size:13;" transform="matrix(1 0 0 1 1289 1989)">design is preserved when submitting to Xcode.</text>
  <text id="template-version" style="stroke:none;fill:black;font-family:sans-serif;font-size:13;text-anchor:end;" transform="matrix(1 0 0 1 3036 1933)">Template v.2.0</text>
  <text style="stroke:none;fill:black;font-family:sans-serif;font-size:13;text-anchor:end;" transform="matrix(1 0 0 1 3036 1951)">Requires Xcode 13 or greater</text>
  <text id="descriptive-name" style="stroke:none;fill:black;font-family:sans-serif;font-size:13;text-anchor:end;" transform="matrix(1 0 0 1 3036 1969)">Generated from repeat</text>
  <text style="stroke:none;fill:black;font-family:sans-serif;font-size:13;text-anchor:end;" transform="matrix(1 0 0 1 3036 1987)">Typeset at 100 points</text>
  <text style="stroke:none;fill:black;font-family:sans-serif;font-size:13;" transform="matrix(1 0 0 1 263 726)">Small</text>
  <text style="stroke:none;fill:black;font-family:sans-serif;font-size:13;" transform="matrix(1 0 0 1 263 1156)">Medium</text>
  <text style="stroke:none;fill:black;font-family:sans-serif;font-size:13;" transform="matrix(1 0 0 1 263 1586)">Large</text>
 </g>
 <g id="Guides">
  <g id="H-reference" style="fill:#27AAE1;stroke:none;" transform="matrix(1 0 0 1 339 696)">
   <path d="M0.976562 0L3.66211 0L29.3457-67.1387L30.0293-67.1387L30.0293-70.459L28.125-70.459ZM11.6699-24.4629L46.9727-24.4629L46.2402-26.709L12.4512-26.709ZM55.127 0L57.7637 0L30.6152-70.459L29.4434-70.459L29.4434-67.1387Z"/>
  </g>
  <line id="Baseline-S" style="fill:none;stroke:#27AAE1;opacity:1;stroke-width:0.5;" x1="263" x2="3036" y1="696" y2="696"/>
  <line id="Capline-S" style="fill:none;stroke:#27AAE1;opacity:1;stroke-width:0.5;" x1="263" x2="3036" y1="625.541" y2="625.541"/>
  <g id="H-reference" style="fill:#27AAE1;stroke:none;" transform="matrix(1 0 0 1 339 1126)">
   <path d="M0.976562 0L3.66211 0L29.3457-67.1387L30.0293-67.1387L30.0293-70.459L28.125-70.459ZM11.6699-24.4629L46.9727-24.4629L46.2402-26.709L12.4512-26.709ZM55.127 0L57.7637 0L30.6152-70.459L29.4434-70.459L29.4434-67.1387Z"/>
  </g>
  <line id="Baseline-M" style="fill:none;stroke:#27AAE1;opacity:1;stroke-width:0.5;" x1="263" x2="3036" y1="1126" y2="1126"/>
  <line id="Capline-M" style="fill:none;stroke:#27AAE1;opacity:1;stroke-width:0.5;" x1="263" x2="3036" y1="1055.54" y2="1055.54"/>
  <g id="H-reference" style="fill:#27AAE1;stroke:none;" transform="matrix(1 0 0 1 339 1556)">
   <path d="M0.976562 0L3.66211 0L29.3457-67.1387L30.0293-67.1387L30.0293-70.459L28.125-70.459ZM11.6699-24.4629L46.9727-24.4629L46.2402-26.709L12.4512-26.709ZM55.127 0L57.7637 0L30.6152-70.459L29.4434-70.459L29.4434-67.1387Z"/>
  </g>
  <line id="Baseline-L" style="fill:none;stroke:#27AAE1;opacity:1;stroke-width:0.5;" x1="263" x2="3036" y1="1556" y2="1556"/>
  <line id="Capline-L" style="fill:none;stroke:#27AAE1;opacity:1;stroke-width:0.5;" x1="263" x2="3036" y1="1485.54" y2="1485.54"/>
  <line id="left-margin" style="fill:none;stroke:#00AEEF;stroke-width:0.5;opacity:1.0;" x1="1385.27" x2="1385.27" y1="1030.79" y2="1150.12"/>
  <line id="right-margin" style="fill:none;stroke:#00AEEF;stroke-width:0.5;opacity:1.0;" x1="1514.42" x2="1514.42" y1="1030.79" y2="1150.12"/>
 </g>
 <g id="Symbols">
  <g id="Black-L" transform="matrix(1 0 0 1 2840.68 1556)">
   <path d="M26.5625-32.7148Q30.9082-32.7148 33.96-35.791Q37.0117-38.8672 37.0117-43.2129L37.0117-47.5586Q37.0117-55.8594 42.2119-60.5957Q47.4121-65.332 56.4941-65.332L104.102-65.332L104.102-51.7578Q104.102-48.1934 106.128-46.1182Q108.154-44.043 111.67-44.043Q113.33-44.043 114.624-44.5801Q115.918-45.1172 116.943-45.9473L144.824-69.7266Q147.412-71.9238 147.412-75.0488Q147.412-78.1738 144.824-80.3711L116.943-104.102Q115.918-104.98 114.624-105.493Q113.33-106.006 111.67-106.006Q108.154-106.006 106.128-103.931Q104.102-101.855 104.102-98.291L104.102-85.791L57.4219-85.791Q44.5801-85.791 35.3027-81.543Q26.0254-77.2949 21.0449-69.4092Q16.0645-61.5234 16.0645-50.5859L16.0645-43.2129Q16.0645-38.8672 19.1406-35.791Q22.2168-32.7148 26.5625-32.7148ZM158.936-44.0918Q154.59-44.0918 151.538-41.0156Q148.486-37.9395 148.486-33.5938L148.486-29.248Q148.486-20.9473 143.262-16.2109Q138.037-11.4746 129.004-11.4746L81.3965-11.4746L81.3965-25.1953Q81.3965-28.7598 79.3457-30.835Q77.2949-32.9102 73.8281-32.9102Q72.168-32.9102 70.8496-32.373Q69.5312-31.8359 68.5059-30.957L40.625-7.22656Q38.0371-4.98047 38.0615-1.85547Q38.0859 1.26953 40.625 3.41797L68.5059 27.1484Q69.5312 28.0273 70.8496 28.5645Q72.168 29.1016 73.8281 29.1016Q77.2949 29.1016 79.3457 27.0264Q81.3965 24.9512 81.3965 21.3867L81.3965 8.98438L128.027 8.98438Q140.918 8.98438 150.171 4.73633Q159.424 0.488281 164.404-7.39746Q169.385-15.2832 169.385-26.2207L169.385-33.5938Q169.385-37.9395 166.333-41.0156Q163.281-44.0918 158.936-44.0918Z"/>
  </g>
  <g id="Heavy-L" transform="matrix(1 0 0 1 2546.63 1556)">
   <path d="M25.1953-32.8613Q29.0039-32.8613 31.665-35.5225Q34.3262-38.1836 34.3262-41.9922L34.3262-46.6797Q34.3262-55.0781 39.5264-59.8633Q44.7266-64.6484 53.7598-64.6484L101.416-64.6484L101.416-50.7324Q101.416-47.6074 103.174-45.8008Q104.932-43.9941 108.057-43.9941Q109.521-43.9941 110.669-44.4824Q111.816-44.9707 112.793-45.7031L139.648-68.4082Q141.943-70.3613 141.968-73.1445Q141.992-75.9277 139.648-77.8809L112.793-100.586Q111.816-101.367 110.669-101.831Q109.521-102.295 108.057-102.295Q104.932-102.295 103.174-100.488Q101.416-98.6816 101.416-95.5566L101.416-82.4219L54.6387-82.4219Q42.7246-82.4219 34.0576-78.418Q25.3906-74.4141 20.7275-66.9678Q16.0645-59.5215 16.0645-49.1211L16.0645-41.9922Q16.0645-38.1836 18.7256-35.5225Q21.3867-32.8613 25.1953-32.8613ZM154.98-42.4316Q151.172-42.4316 148.511-39.7705Q145.85-37.1094 145.85-33.3008L145.85-28.6133Q145.85-20.2148 140.649-15.4297Q135.449-10.6445 126.416-10.6445L78.7598-10.6445L78.7598-24.6094Q78.7598-27.7344 76.9775-29.541Q75.1953-31.3477 72.1191-31.3477Q70.7031-31.3477 69.5068-30.8838Q68.3105-30.4199 67.3828-29.6387L40.5273-6.98242Q38.1836-4.98047 38.1836-2.19727Q38.1836 0.585938 40.5273 2.53906L67.3828 25.1953Q68.3105 25.9766 69.5068 26.4648Q70.7031 26.9531 72.1191 26.9531Q75.1953 26.9531 76.9775 25.1465Q78.7598 23.3398 78.7598 20.2148L78.7598 7.17773L125.488 7.17773Q137.451 7.17773 146.094 3.14941Q154.736-0.878906 159.399-8.3252Q164.062-15.7715 164.062-26.123L164.062-33.3008Q164.062-37.1094 161.426-39.7705Q158.789-42.4316 154.98-42.4316Z"/>
  </g>
  <g id="Bold-L" transform="matrix(1 0 0 1 2252.87 1556)">
   <path d="M23.6816-33.0078Q26.9043-33.0078 29.1016-35.2295Q31.2988-37.4512 31.2988-40.625L31.2988-45.752Q31.2988-54.1992 36.499-59.0332Q41.6992-63.8672 50.7324-63.8672L98.3887-63.8672L98.3887-49.6094Q98.3887-46.9727 99.8779-45.4834Q101.367-43.9941 104.004-43.9941Q105.225-43.9941 106.25-44.3848Q107.275-44.7754 108.105-45.459L133.838-66.9434Q135.889-68.6523 135.889-71.0449Q135.889-73.4375 133.838-75.1465L108.105-96.6309Q107.275-97.3145 106.25-97.7051Q105.225-98.0957 104.004-98.0957Q101.367-98.0957 99.8779-96.6064Q98.3887-95.1172 98.3887-92.4805L98.3887-78.7109L51.5625-78.7109Q40.6738-78.7109 32.7148-74.9756Q24.7559-71.2402 20.4102-64.2578Q16.0645-57.2754 16.0645-47.5586L16.0645-40.625Q16.0645-37.4512 18.2861-35.2295Q20.5078-33.0078 23.6816-33.0078ZM150.537-40.5762Q147.363-40.5762 145.166-38.3789Q142.969-36.1816 142.969-32.959L142.969-27.8809Q142.969-19.4336 137.769-14.5996Q132.568-9.76562 123.535-9.76562L75.8789-9.76562L75.8789-24.0234Q75.8789-26.6602 74.3652-28.1494Q72.8516-29.6387 70.2637-29.6387Q69.043-29.6387 67.9932-29.248Q66.9434-28.8574 66.1133-28.125L40.3809-6.68945Q38.3301-4.93164 38.3301-2.53906Q38.3301-0.146484 40.3809 1.5625L66.1133 23.0469Q66.9434 23.7305 67.9932 24.1455Q69.043 24.5605 70.2637 24.5605Q72.8516 24.5605 74.3652 23.0469Q75.8789 21.5332 75.8789 18.8965L75.8789 5.12695L122.656 5.12695Q133.594 5.12695 141.553 1.36719Q149.512-2.39258 153.833-9.375Q158.154-16.3574 158.154-26.0742L158.154-32.959Q158.154-36.1816 155.957-38.3789Q153.76-40.5762 150.537-40.5762Z"/>
  </g>
  <g id="Semibold-L" transform="matrix(1 0 0 1 1958.21 1556)">
   <path d="M22.6562-33.1055Q25.3906-33.1055 27.2949-35.0098Q29.1992-36.9141 29.1992-39.6973L29.1992-45.0684Q29.1992-53.5645 34.3994-58.4229Q39.5996-63.2812 48.584-63.2812L96.2891-63.2812L96.2891-48.8281Q96.2891-46.5332 97.583-45.2393Q98.877-43.9453 101.172-43.9453Q102.295-43.9453 103.198-44.2871Q104.102-44.6289 104.883-45.2637L129.834-65.918Q131.641-67.4316 131.665-69.5801Q131.689-71.7285 129.834-73.2422L104.883-93.8965Q104.102-94.5312 103.198-94.873Q102.295-95.2148 101.172-95.2148Q98.877-95.2148 97.583-93.9453Q96.2891-92.6758 96.2891-90.3809L96.2891-76.123L49.4141-76.123Q39.2578-76.123 31.7627-72.5586Q24.2676-68.9941 20.166-62.3535Q16.0645-55.7129 16.0645-46.4355L16.0645-39.6973Q16.0645-36.9141 17.9688-35.0098Q19.873-33.1055 22.6562-33.1055ZM147.461-39.3066Q144.678-39.3066 142.798-37.4023Q140.918-35.498 140.918-32.7148L140.918-27.3438Q140.918-18.8477 135.742-13.9893Q130.566-9.13086 121.533-9.13086L73.8281-9.13086L73.8281-23.584Q73.8281-25.8789 72.5342-27.1729Q71.2402-28.4668 68.9453-28.4668Q67.8711-28.4668 66.9434-28.1006Q66.0156-27.7344 65.1855-27.0996L40.2832-6.44531Q38.4277-4.93164 38.4277-2.80762Q38.4277-0.683594 40.2832 0.830078L65.1855 21.5332Q66.0156 22.168 66.9434 22.5098Q67.8711 22.8516 68.9453 22.8516Q71.2402 22.8516 72.5342 21.582Q73.8281 20.3125 73.8281 17.9688L73.8281 3.71094L120.654 3.71094Q130.908 3.71094 138.379 0.146484Q145.85-3.41797 149.951-10.0586Q154.053-16.6992 154.053-25.9766L154.053-32.7148Q154.053-35.498 152.148-37.4023Q150.244-39.3066 147.461-39.3066Z"/>
  </g>
  <g id="Medium-L" transform="matrix(1 0 0 1 1663.06 1556)">
   <path d="M21.8262-33.2031Q24.3164-33.2031 25.9521-34.8633Q27.5879-36.5234 27.5879-38.9648L27.5879-44.5312Q27.5879-53.0762 32.7881-57.9834Q37.9883-62.8906 47.0215-62.8906L94.7266-62.8906L94.7266-48.2422Q94.7266-46.1914 95.8496-45.0684Q96.9727-43.9453 99.0723-43.9453Q100.049-43.9453 100.879-44.2627Q101.709-44.5801 102.441-45.166L126.807-65.1855Q128.467-66.5039 128.491-68.457Q128.516-70.4102 126.807-71.8262L102.441-91.7969Q101.709-92.4316 100.879-92.7246Q100.049-93.0176 99.0723-93.0176Q96.9727-93.0176 95.8496-91.9189Q94.7266-90.8203 94.7266-88.7695L94.7266-74.1211L47.8027-74.1211Q38.1836-74.1211 31.0547-70.7275Q23.9258-67.334 19.9951-60.9131Q16.0645-54.4922 16.0645-45.5566L16.0645-38.9648Q16.0645-36.5234 17.7246-34.8633Q19.3848-33.2031 21.8262-33.2031ZM145.166-38.3301Q142.676-38.3301 141.04-36.6699Q139.404-35.0098 139.404-32.5684L139.404-26.9531Q139.404-18.4082 134.204-13.5254Q129.004-8.64258 119.971-8.64258L72.3145-8.64258L72.3145-23.2422Q72.3145-25.293 71.167-26.416Q70.0195-27.5391 67.9199-27.5391Q66.9922-27.5391 66.1377-27.2217Q65.2832-26.9043 64.5508-26.3184L40.2344-6.29883Q38.5254-4.88281 38.501-2.97852Q38.4766-1.07422 40.2344 0.341797L64.5508 20.3613Q65.2832 20.9961 66.1377 21.3135Q66.9922 21.6309 67.9199 21.6309Q70.0195 21.6309 71.167 20.4834Q72.3145 19.3359 72.3145 17.2852L72.3145 2.63672L119.189 2.63672Q128.857 2.63672 135.986-0.78125Q143.115-4.19922 147.021-10.5957Q150.928-16.9922 150.928-25.9277L150.928-32.5684Q150.928-35.0098 149.268-36.6699Q147.607-38.3301 145.166-38.3301Z"/>
  </g>
  <g id="Regular-L" transform="matrix(1 0 0 1 1368.37 1556)">
   <path d="M20.8008-33.3008Q22.8516-33.3008 24.1943-34.6436Q25.5371-35.9863 25.5371-38.0371L25.5371-43.8965Q25.5371-52.4902 30.7373-57.4219Q35.9375-62.3535 44.9219-62.3535L92.6758-62.3535L92.6758-47.4609Q92.6758-45.752 93.6035-44.8242Q94.5312-43.8965 96.2891-43.8965Q97.1191-43.8965 97.8516-44.165Q98.584-44.4336 99.2676-44.9707L122.852-64.1602Q124.316-65.332 124.341-67.0166Q124.365-68.7012 122.852-69.9219L99.2676-89.1113Q98.584-89.6484 97.8516-89.917Q97.1191-90.1855 96.2891-90.1855Q94.5312-90.1855 93.6035-89.2822Q92.6758-88.3789 92.6758-86.6699L92.6758-71.582L45.7031-71.582Q36.7676-71.582 30.1025-68.3594Q23.4375-65.1367 19.751-59.0576Q16.0645-52.9785 16.0645-44.4824L16.0645-38.0371Q16.0645-35.9863 17.4072-34.6436Q18.75-33.3008 20.8008-33.3008ZM142.139-37.0605Q140.088-37.0605 138.745-35.7178Q137.402-34.375 137.402-32.3242L137.402-26.4648Q137.402-17.8711 132.227-12.9395Q127.051-8.00781 118.018-8.00781L70.3125-8.00781L70.3125-22.8027Q70.3125-24.5117 69.3604-25.4395Q68.4082-26.3672 66.6504-26.3672Q65.8691-26.3672 65.1123-26.0986Q64.3555-25.8301 63.6719-25.293L40.1367-6.10352Q38.623-4.88281 38.5986-3.22266Q38.5742-1.5625 40.1367-0.341797L63.6719 18.8965Q64.3555 19.4336 65.1123 19.7021Q65.8691 19.9707 66.6504 19.9707Q68.4082 19.9707 69.3604 19.043Q70.3125 18.1152 70.3125 16.4062L70.3125 1.26953L117.236 1.26953Q126.221 1.26953 132.886-1.97754Q139.551-5.22461 143.213-11.3037Q146.875-17.3828 146.875-25.8789L146.875-32.3242Q146.875-34.375 145.532-35.7178Q144.189-37.0605 142.139-37.0605Z"/>
  </g>
  <g id="Light-L" transform="matrix(1 0 0 1 1074.15 1556)">
   <path d="M19.9707-33.7402Q21.7285-33.7402 22.8271-34.8389Q23.9258-35.9375 23.9258-37.6465L23.9258-43.3594Q23.9258-52.5391 29.1992-57.5928Q34.4727-62.6465 44.043-62.6465L89.8438-62.6465L89.8438-47.5586Q89.8438-46.1426 90.625-45.3613Q91.4062-44.5801 92.9199-44.5801Q93.6523-44.5801 94.2627-44.7998Q94.873-45.0195 95.5078-45.5078L118.75-63.9648Q120.166-65.0391 120.166-66.6748Q120.166-68.3105 118.75-69.4336L95.5078-87.8418Q94.873-88.3789 94.2627-88.5986Q93.6523-88.8184 92.9199-88.8184Q91.4062-88.8184 90.625-88.0615Q89.8438-87.3047 89.8438-85.8398L89.8438-70.166L44.5312-70.166Q35.9863-70.166 29.5898-67.0898Q23.1934-64.0137 19.6289-58.1055Q16.0645-52.1973 16.0645-43.75L16.0645-37.6465Q16.0645-35.9375 17.1631-34.8389Q18.2617-33.7402 19.9707-33.7402ZM137.939-36.6211Q136.23-36.6211 135.132-35.5225Q134.033-34.4238 134.033-32.666L134.033-26.9531Q134.033-17.7734 128.76-12.7441Q123.486-7.71484 113.916-7.71484L68.1152-7.71484L68.1152-22.7051Q68.1152-24.1699 67.334-24.9268Q66.5527-25.6836 65.0391-25.6836Q64.3555-25.6836 63.7207-25.4639Q63.0859-25.2441 62.4512-24.7559L39.209-6.29883Q37.793-5.17578 37.793-3.56445Q37.793-1.95312 39.209-0.830078L62.4512 17.627Q63.0859 18.1152 63.7207 18.335Q64.3555 18.5547 65.0391 18.5547Q66.5527 18.5547 67.334 17.7734Q68.1152 16.9922 68.1152 15.5762L68.1152-0.146484L113.428-0.146484Q122.021-0.146484 128.418-3.24707Q134.814-6.34766 138.354-12.2559Q141.895-18.1641 141.895-26.6113L141.895-32.666Q141.895-34.4238 140.796-35.5225Q139.697-36.6211 137.939-36.6211Z"/>
  </g>
  <g id="Thin-L" transform="matrix(1 0 0 1 780.739 1556)">
   <path d="M18.8965-34.3262Q20.2637-34.3262 21.0205-35.083Q21.7773-35.8398 21.7773-37.1582L21.7773-42.7246Q21.7773-52.6367 27.1729-57.8125Q32.5684-62.9883 42.9199-62.9883L86.1328-62.9883L86.1328-47.7051Q86.1328-46.6309 86.7188-46.0449Q87.3047-45.459 88.4766-45.459Q89.0625-45.459 89.502-45.6299Q89.9414-45.8008 90.5273-46.2891L113.379-63.7207Q114.648-64.6973 114.648-66.2598Q114.648-67.8223 113.379-68.7988L90.5273-86.1816Q89.9414-86.6699 89.502-86.8164Q89.0625-86.9629 88.4766-86.9629Q87.3047-86.9629 86.7188-86.4014Q86.1328-85.8398 86.1328-84.7656L86.1328-68.3105L43.0176-68.3105Q34.9609-68.3105 28.9062-65.4053Q22.8516-62.5 19.458-56.8115Q16.0645-51.123 16.0645-42.7734L16.0645-37.1582Q16.0645-35.8398 16.8213-35.083Q17.5781-34.3262 18.8965-34.3262ZM132.422-35.9863Q131.104-35.9863 130.347-35.2051Q129.59-34.4238 129.59-33.1543L129.59-27.6367Q129.59-17.6758 124.219-12.5Q118.848-7.32422 108.447-7.32422L65.2344-7.32422L65.2344-22.6074Q65.2344-23.6816 64.6484-24.2432Q64.0625-24.8047 62.8906-24.8047Q62.3047-24.8047 61.8652-24.6582Q61.4258-24.5117 60.791-24.0234L38.0371-6.54297Q36.7188-5.56641 36.7188-4.02832Q36.7188-2.49023 38.0371-1.51367L60.791 15.918Q61.4258 16.3574 61.8652 16.5283Q62.3047 16.6992 62.8906 16.6992Q64.0625 16.6992 64.6484 16.1133Q65.2344 15.5273 65.2344 14.4531L65.2344-1.95312L108.35-1.95312Q116.406-1.95312 122.485-4.88281Q128.564-7.8125 131.934-13.501Q135.303-19.1895 135.303-27.5391L135.303-33.1543Q135.303-34.4238 134.521-35.2051Q133.74-35.9863 132.422-35.9863Z"/>
  </g>
  <g id="Ultralight-L" transform="matrix(1 0 0 1 485.712 1556)">
   <path d="M18.3594-34.6191Q19.4824-34.6191 20.0684-35.2051Q20.6543-35.791 20.6543-36.9141L20.6543-42.334Q20.6543-52.6855 26.123-57.9346Q31.5918-63.1836 42.334-63.1836L84.2285-63.1836L84.2285-47.8027Q84.2285-46.875 84.7168-46.4111Q85.2051-45.9473 86.2305-45.9473Q86.7188-45.9473 87.0605-46.0693Q87.4023-46.1914 87.9883-46.6309L110.596-63.623Q111.816-64.502 111.816-66.04Q111.816-67.5781 110.596-68.457L87.9883-85.3516Q87.4023-85.791 87.0605-85.9131Q86.7188-86.0352 86.2305-86.0352Q85.2051-86.0352 84.7168-85.5713Q84.2285-85.1074 84.2285-84.2285L84.2285-67.3828L42.1875-67.3828Q34.4238-67.3828 28.54-64.5508Q22.6562-61.7188 19.3604-56.1523Q16.0645-50.5859 16.0645-42.2363L16.0645-36.9141Q16.0645-35.791 16.6504-35.2051Q17.2363-34.6191 18.3594-34.6191ZM129.59-35.6934Q128.516-35.6934 127.93-35.083Q127.344-34.4727 127.344-33.3496L127.344-27.9785Q127.344-17.627 121.875-12.3535Q116.406-7.08008 105.664-7.08008L63.7695-7.08008L63.7695-22.5098Q63.7695-23.4375 63.2812-23.9014Q62.793-24.3652 61.7676-24.3652Q61.2793-24.3652 60.9375-24.2432Q60.5957-24.1211 59.9609-23.6816L37.4023-6.68945Q36.1816-5.81055 36.1816-4.27246Q36.1816-2.73438 37.4023-1.85547L59.9609 15.0391Q60.5957 15.4785 60.9375 15.625Q61.2793 15.7715 61.7676 15.7715Q62.793 15.7715 63.2812 15.2832Q63.7695 14.7949 63.7695 13.916L63.7695-2.92969L105.762-2.92969Q113.574-2.92969 119.458-5.7373Q125.342-8.54492 128.638-14.1357Q131.934-19.7266 131.934-28.0273L131.934-33.3496Q131.934-34.4727 131.323-35.083Q130.713-35.6934 129.59-35.6934Z"/>
  </g>
  <g id="Black-M" transform="matrix(1 0 0 1 2860.11 1126)">
   <path d="M21.4844-33.3008Q25.1953-33.3008 27.8076-35.9619Q30.4199-38.623 30.4199-42.334L30.4199-45.3613Q30.4199-51.9043 34.4971-55.5908Q38.5742-59.2773 45.8008-59.2773L82.0312-59.2773L82.0312-48.9258Q82.0312-45.8984 83.7646-44.1162Q85.498-42.334 88.4766-42.334Q89.9414-42.334 91.0156-42.7734Q92.0898-43.2129 92.9688-43.9453L115.283-63.0371Q117.48-64.8926 117.48-67.6025Q117.48-70.3125 115.283-72.168L92.9688-91.2109Q92.0898-91.8945 91.0156-92.3584Q89.9414-92.8223 88.4766-92.8223Q85.498-92.8223 83.7646-91.04Q82.0312-89.2578 82.0312-86.1816L82.0312-76.8066L46.4844-76.8066Q35.8398-76.8066 28.2227-73.3643Q20.6055-69.9219 16.5283-63.4766Q12.4512-57.0312 12.4512-48.0957L12.4512-42.334Q12.4512-38.623 15.0879-35.9619Q17.7246-33.3008 21.4844-33.3008ZM125.146-43.3594Q121.387-43.3594 118.774-40.7227Q116.162-38.0859 116.162-34.3262L116.162-31.2988Q116.162-24.7559 112.085-21.0938Q108.008-17.4316 100.781-17.4316L64.5508-17.4316L64.5508-27.8809Q64.5508-30.957 62.8174-32.7393Q61.084-34.5215 58.1055-34.5215Q56.6895-34.5215 55.5908-34.082Q54.4922-33.6426 53.6621-32.9102L31.2988-13.8184Q29.1016-11.9141 29.126-9.2041Q29.1504-6.49414 31.2988-4.6875L53.6621 14.3555Q54.4922 15.0879 55.5908 15.5273Q56.6895 15.9668 58.1055 15.9668Q61.084 15.9668 62.8174 14.1846Q64.5508 12.4023 64.5508 9.375L64.5508 0.146484L100.098 0.146484Q110.742 0.146484 118.359-3.2959Q125.977-6.73828 130.054-13.1836Q134.131-19.6289 134.131-28.5645L134.131-34.3262Q134.131-38.0859 131.494-40.7227Q128.857-43.3594 125.146-43.3594Z"/>
  </g>
  <g id="Heavy-M" transform="matrix(1 0 0 1 2565.45 1126)">
   <path d="M20.3125-33.3496Q23.584-33.3496 25.8545-35.6689Q28.125-37.9883 28.125-41.2109L28.125-44.6289Q28.125-51.123 32.1777-54.834Q36.2305-58.5449 43.3105-58.5449L79.9805-58.5449L79.9805-47.9004Q79.9805-45.2637 81.4941-43.7012Q83.0078-42.1387 85.6445-42.1387Q86.9629-42.1387 87.915-42.5293Q88.8672-42.9199 89.6973-43.6035L111.084-61.8164Q113.037-63.4277 113.062-65.8203Q113.086-68.2129 111.084-69.873L89.6973-88.0371Q88.8672-88.6719 87.915-89.0625Q86.9629-89.4531 85.6445-89.4531Q83.0078-89.4531 81.4941-87.915Q79.9805-86.377 79.9805-83.6914L79.9805-73.8281L44.043-73.8281Q34.1797-73.8281 27.124-70.5811Q20.0684-67.334 16.2598-61.2793Q12.4512-55.2246 12.4512-46.875L12.4512-41.2109Q12.4512-37.9883 14.7461-35.6689Q17.041-33.3496 20.3125-33.3496ZM122.168-41.8457Q118.896-41.8457 116.602-39.5508Q114.307-37.2559 114.307-33.9355L114.307-30.5664Q114.307-24.0723 110.278-20.3857Q106.25-16.6992 99.1211-16.6992L62.4512-16.6992L62.4512-27.3438Q62.4512-30.0781 60.9375-31.6162Q59.4238-33.1543 56.7871-33.1543Q55.5664-33.1543 54.5654-32.7637Q53.5645-32.373 52.832-31.6895L31.3477-13.5254Q29.3945-11.8164 29.4189-9.44824Q29.4434-7.08008 31.3477-5.46875L52.832 12.6953Q53.5645 13.3789 54.5654 13.7695Q55.5664 14.1602 56.7871 14.1602Q59.4238 14.1602 60.9375 12.6221Q62.4512 11.084 62.4512 8.39844L62.4512-1.31836L98.4375-1.31836Q108.252-1.31836 115.332-4.56543Q122.412-7.8125 126.221-13.8672Q130.029-19.9219 130.029-28.3203L130.029-33.9355Q130.029-37.2559 127.734-39.5508Q125.439-41.8457 122.168-41.8457Z"/>
  </g>
  <g id="Bold-M" transform="matrix(1 0 0 1 2271.03 1126)">
   <path d="M19.043-33.3984Q21.7773-33.3984 23.6816-35.3271Q25.5859-37.2559 25.5859-39.9902L25.5859-43.7988Q25.5859-50.2441 29.6143-53.9795Q33.6426-57.7148 40.5762-57.7148L77.7344-57.7148L77.7344-46.7773Q77.7344-44.5312 79.0039-43.2373Q80.2734-41.9434 82.5195-41.9434Q83.5938-41.9434 84.4482-42.2852Q85.3027-42.627 86.0352-43.2129L106.396-60.4004Q108.105-61.8164 108.13-63.8428Q108.154-65.8691 106.396-67.2852L86.0352-84.4727Q85.3027-85.0586 84.4482-85.4004Q83.5938-85.7422 82.5195-85.7422Q80.2734-85.7422 79.0039-84.4482Q77.7344-83.1543 77.7344-80.8594L77.7344-70.5078L41.3086-70.5078Q32.373-70.5078 25.9277-67.5049Q19.4824-64.502 15.9668-58.8867Q12.4512-53.2715 12.4512-45.459L12.4512-39.9902Q12.4512-37.2559 14.3555-35.3271Q16.2598-33.3984 19.043-33.3984ZM118.848-40.1367Q116.064-40.1367 114.185-38.2324Q112.305-36.3281 112.305-33.5449L112.305-29.7363Q112.305-23.291 108.276-19.5801Q104.248-15.8691 97.3145-15.8691L60.1562-15.8691L60.1562-26.7578Q60.1562-29.0527 58.8867-30.3467Q57.6172-31.6406 55.3711-31.6406Q54.2969-31.6406 53.418-31.2988Q52.5391-30.957 51.8555-30.3711L31.4453-13.1836Q29.7852-11.7188 29.7852-9.7168Q29.7852-7.71484 31.4453-6.29883L51.8555 10.8887Q52.5391 11.4746 53.418 11.8164Q54.2969 12.1582 55.3711 12.1582Q57.6172 12.1582 58.8867 10.8643Q60.1562 9.57031 60.1562 7.32422L60.1562-3.02734L96.582-3.02734Q105.469-3.02734 111.938-6.03027Q118.408-9.0332 121.924-14.6729Q125.439-20.3125 125.439-28.0762L125.439-33.5449Q125.439-36.3281 123.511-38.2324Q121.582-40.1367 118.848-40.1367Z"/>
  </g>
  <g id="Semibold-M" transform="matrix(1 0 0 1 1975.91 1126)">
   <path d="M18.1641-33.3984Q20.5566-33.3984 22.1924-35.0586Q23.8281-36.7188 23.8281-39.1113L23.8281-43.2129Q23.8281-49.6094 27.832-53.3691Q31.8359-57.1289 38.623-57.1289L76.123-57.1289L76.123-45.9961Q76.123-44.043 77.2461-42.9199Q78.3691-41.7969 80.3711-41.7969Q81.2988-41.7969 82.0557-42.1143Q82.8125-42.4316 83.4961-42.9688L103.174-59.4238Q104.639-60.6934 104.688-62.4512Q104.736-64.209 103.174-65.5273L83.4961-82.0312Q82.8125-82.5195 82.0557-82.8369Q81.2988-83.1543 80.3711-83.1543Q78.3691-83.1543 77.2461-82.0312Q76.123-80.9082 76.123-78.9062L76.123-68.2129L39.4043-68.2129Q31.1035-68.2129 25.0732-65.3564Q19.043-62.5 15.7471-57.1777Q12.4512-51.8555 12.4512-44.4824L12.4512-39.1113Q12.4512-36.7188 14.0869-35.0586Q15.7227-33.3984 18.1641-33.3984ZM116.553-38.9648Q114.111-38.9648 112.5-37.3291Q110.889-35.6934 110.889-33.252L110.889-29.1504Q110.889-22.7539 106.885-19.0186Q102.881-15.2832 95.9961-15.2832L58.5449-15.2832L58.5449-26.3672Q58.5449-28.3691 57.4219-29.4678Q56.2988-30.5664 54.3457-30.5664Q53.418-30.5664 52.6123-30.2734Q51.8066-29.9805 51.2207-29.4434L31.4941-12.9395Q29.9805-11.6699 29.9805-9.8877Q29.9805-8.10547 31.4941-6.88477L51.2207 9.61914Q51.8066 10.1562 52.6123 10.4736Q53.418 10.791 54.3457 10.791Q56.2988 10.791 57.4219 9.66797Q58.5449 8.54492 58.5449 6.5918L58.5449-4.15039L95.2637-4.15039Q103.564-4.15039 109.619-7.00684Q115.674-9.86328 118.97-15.1855Q122.266-20.5078 122.266-27.8809L122.266-33.252Q122.266-35.6934 120.605-37.3291Q118.945-38.9648 116.553-38.9648Z"/>
  </g>
  <g id="Medium-M" transform="matrix(1 0 0 1 1680.42 1126)">
   <path d="M17.4805-33.3984Q19.5801-33.3984 21.0449-34.8633Q22.5098-36.3281 22.5098-38.4277L22.5098-42.8223Q22.5098-49.1211 26.4893-52.9053Q30.4688-56.6895 37.207-56.6895L74.9512-56.6895L74.9512-45.4102Q74.9512-43.6523 75.9521-42.6758Q76.9531-41.6992 78.7109-41.6992Q79.541-41.6992 80.249-41.9678Q80.957-42.2363 81.543-42.7246L100.732-58.6914Q102.051-59.8633 102.1-61.4258Q102.148-62.9883 100.732-64.1602L81.543-80.1758Q80.957-80.6641 80.249-80.9082Q79.541-81.1523 78.7109-81.1523Q76.9531-81.1523 75.9521-80.2002Q74.9512-79.248 74.9512-77.4414L74.9512-66.4551L37.9395-66.4551Q30.1758-66.4551 24.4385-63.7207Q18.7012-60.9863 15.5762-55.9082Q12.4512-50.8301 12.4512-43.75L12.4512-38.4277Q12.4512-36.3281 13.8916-34.8633Q15.332-33.3984 17.4805-33.3984ZM114.795-38.0859Q112.646-38.0859 111.23-36.6455Q109.814-35.2051 109.814-33.0566L109.814-28.7109Q109.814-22.3633 105.835-18.6279Q101.855-14.8926 95.0684-14.8926L57.3242-14.8926L57.3242-26.0254Q57.3242-27.832 56.3477-28.7842Q55.3711-29.7363 53.5645-29.7363Q52.7832-29.7363 52.0264-29.4922Q51.2695-29.248 50.6836-28.7598L31.543-12.793Q30.1758-11.5723 30.1758-10.0098Q30.1758-8.44727 31.543-7.32422L50.6836 8.69141Q51.2695 9.17969 52.0264 9.44824Q52.7832 9.7168 53.5645 9.7168Q55.3711 9.7168 56.3477 8.74023Q57.3242 7.76367 57.3242 6.00586L57.3242-5.0293L94.2871-5.0293Q102.1-5.0293 107.837-7.76367Q113.574-10.498 116.699-15.6006Q119.824-20.7031 119.824-27.7344L119.824-33.0566Q119.824-35.2051 118.384-36.6455Q116.943-38.0859 114.795-38.0859Z"/>
  </g>
  <g id="Regular-M" transform="matrix(1 0 0 1 1385.27 1126)">
   <path d="M16.6016-33.4473Q18.3594-33.4473 19.5557-34.6436Q20.752-35.8398 20.752-37.5977L20.752-42.2363Q20.752-48.5352 24.707-52.3193Q28.6621-56.1035 35.3027-56.1035L73.3887-56.1035L73.3887-44.6289Q73.3887-43.1641 74.2188-42.3584Q75.0488-41.5527 76.5625-41.5527Q77.2461-41.5527 77.8809-41.7969Q78.5156-42.041 79.0527-42.4805L97.5098-57.7637Q98.6816-58.7402 98.7305-60.0586Q98.7793-61.377 97.5098-62.4023L79.0527-77.7344Q78.5156-78.1738 77.8809-78.3936Q77.2461-78.6133 76.5625-78.6133Q75.0488-78.6133 74.2188-77.832Q73.3887-77.0508 73.3887-75.5371L73.3887-64.209L36.084-64.209Q28.9062-64.209 23.6084-61.6211Q18.3105-59.0332 15.3809-54.248Q12.4512-49.4629 12.4512-42.8223L12.4512-37.5977Q12.4512-35.8398 13.623-34.6436Q14.7949-33.4473 16.6016-33.4473ZM112.549-36.9141Q110.742-36.9141 109.57-35.7422Q108.398-34.5703 108.398-32.7637L108.398-28.125Q108.398-21.8262 104.443-18.0664Q100.488-14.3066 93.7988-14.3066L55.7129-14.3066L55.7129-25.6348Q55.7129-27.1484 54.9072-27.9297Q54.1016-28.7109 52.5879-28.7109Q51.9043-28.7109 51.2451-28.4912Q50.5859-28.2715 50.0488-27.832L31.5918-12.5488Q30.4199-11.5234 30.3955-10.2051Q30.3711-8.88672 31.5918-7.91016L50.0488 7.42188Q50.5859 7.86133 51.2451 8.10547Q51.9043 8.34961 52.5879 8.34961Q54.1016 8.34961 54.9072 7.54395Q55.7129 6.73828 55.7129 5.27344L55.7129-6.15234L93.0176-6.15234Q100.195-6.15234 105.518-8.74023Q110.84-11.3281 113.77-16.1377Q116.699-20.9473 116.699-27.5391L116.699-32.7637Q116.699-34.5703 115.503-35.7422Q114.307-36.9141 112.549-36.9141Z"/>
  </g>
  <g id="Light-M" transform="matrix(1 0 0 1 1090.8 1126)">
   <path d="M15.8691-33.8379Q17.334-33.8379 18.3105-34.8145Q19.2871-35.791 19.2871-37.2559L19.2871-41.748Q19.2871-48.584 23.3154-52.4658Q27.3438-56.3477 34.5215-56.3477L70.8984-56.3477L70.8984-44.7266Q70.8984-43.5059 71.582-42.8467Q72.2656-42.1875 73.5352-42.1875Q74.1211-42.1875 74.6582-42.3828Q75.1953-42.5781 75.6836-42.9688L93.8477-57.6172Q94.9707-58.4961 94.9951-59.7656Q95.0195-61.0352 93.8477-61.9629L75.6836-76.6113Q75.1953-77.002 74.6582-77.1973Q74.1211-77.3926 73.5352-77.3926Q72.2656-77.3926 71.582-76.7334Q70.8984-76.0742 70.8984-74.8047L70.8984-62.9395L35.0586-62.9395Q28.2227-62.9395 23.1445-60.4736Q18.0664-58.0078 15.2588-53.3691Q12.4512-48.7305 12.4512-42.1387L12.4512-37.2559Q12.4512-35.791 13.4033-34.8145Q14.3555-33.8379 15.8691-33.8379ZM108.789-36.5234Q107.275-36.5234 106.323-35.5713Q105.371-34.6191 105.371-33.1055L105.371-28.5645Q105.371-21.7285 101.343-17.8711Q97.3145-14.0137 90.0879-14.0137L53.7598-14.0137L53.7598-25.5371Q53.7598-26.8066 53.0762-27.4658Q52.3926-28.125 51.123-28.125Q50.5371-28.125 50-27.9297Q49.4629-27.7344 48.9258-27.3438L30.8105-12.7441Q29.6875-11.8164 29.6631-10.5225Q29.6387-9.22852 30.8105-8.34961L48.9258 6.29883Q49.4629 6.68945 50 6.88477Q50.5371 7.08008 51.123 7.08008Q52.3926 7.08008 53.0762 6.4209Q53.7598 5.76172 53.7598 4.54102L53.7598-7.42188L89.5996-7.42188Q96.4355-7.42188 101.514-9.86328Q106.592-12.3047 109.399-16.9678Q112.207-21.6309 112.207-28.1738L112.207-33.1055Q112.207-34.6191 111.255-35.5713Q110.303-36.5234 108.789-36.5234Z"/>
  </g>
  <g id="Thin-M" transform="matrix(1 0 0 1 797.047 1126)">
   <path d="M14.8926-34.375Q16.0156-34.375 16.6748-35.0586Q17.334-35.7422 17.334-36.8164L17.334-41.1621Q17.334-48.6816 21.4844-52.6855Q25.6348-56.6895 33.4961-56.6895L67.5293-56.6895L67.5293-44.873Q67.5293-43.9941 68.0664-43.5059Q68.6035-43.0176 69.5801-43.0176Q70.0195-43.0176 70.4102-43.1396Q70.8008-43.2617 71.2402-43.6035L89.0137-57.373Q90.0391-58.1543 90.0391-59.375Q90.0391-60.5957 89.0137-61.377L71.2402-75.0977Q70.8008-75.4883 70.4102-75.6104Q70.0195-75.7324 69.5801-75.7324Q68.6035-75.7324 68.0664-75.2441Q67.5293-74.7559 67.5293-73.8281L67.5293-61.2793L33.6426-61.2793Q27.2949-61.2793 22.5342-58.9844Q17.7734-56.6895 15.1123-52.2217Q12.4512-47.7539 12.4512-41.2598L12.4512-36.8164Q12.4512-35.7422 13.1104-35.0586Q13.7695-34.375 14.8926-34.375ZM103.809-35.9863Q102.734-35.9863 102.075-35.3027Q101.416-34.6191 101.416-33.4961L101.416-29.1992Q101.416-21.6309 97.2656-17.6514Q93.1152-13.6719 85.2051-13.6719L51.1719-13.6719L51.1719-25.4395Q51.1719-26.3672 50.6592-26.8555Q50.1465-27.3438 49.2188-27.3438Q48.6816-27.3438 48.3154-27.2217Q47.9492-27.0996 47.4609-26.709L29.7363-12.9883Q28.7109-12.1582 28.6865-10.9375Q28.6621-9.7168 29.7363-8.93555L47.4609 4.78516Q47.9492 5.12695 48.3154 5.27344Q48.6816 5.41992 49.2188 5.41992Q50.1465 5.41992 50.6592 4.90723Q51.1719 4.39453 51.1719 3.56445L51.1719-9.08203L85.0586-9.08203Q91.4551-9.08203 96.2158-11.377Q100.977-13.6719 103.638-18.1152Q106.299-22.5586 106.299-29.0527L106.299-33.4961Q106.299-34.6191 105.615-35.3027Q104.932-35.9863 103.809-35.9863Z"/>
  </g>
  <g id="Ultralight-M" transform="matrix(1 0 0 1 501.85 1126)">
   <path d="M14.4043-34.668Q15.332-34.668 15.8447-35.1807Q16.3574-35.6934 16.3574-36.6211L16.3574-40.8203Q16.3574-48.7305 20.5566-52.7832Q24.7559-56.8359 33.0078-56.8359L65.8691-56.8359L65.8691-44.9707Q65.8691-44.1895 66.2842-43.7988Q66.6992-43.4082 67.5293-43.4082Q67.9199-43.4082 68.2129-43.5303Q68.5059-43.6523 68.9941-43.9453L86.5234-57.2754Q87.5-58.0078 87.5-59.2041Q87.5-60.4004 86.5234-61.084L68.9941-74.3164Q68.5059-74.6582 68.2129-74.7803Q67.9199-74.9023 67.5293-74.9023Q66.6992-74.9023 66.2842-74.5117Q65.8691-74.1211 65.8691-73.3398L65.8691-60.4492L32.959-60.4492Q26.8066-60.4492 22.2168-58.2275Q17.627-56.0059 15.0391-51.6357Q12.4512-47.2656 12.4512-40.8203L12.4512-36.6211Q12.4512-35.6934 12.9639-35.1807Q13.4766-34.668 14.4043-34.668ZM101.27-35.6934Q100.391-35.6934 99.8779-35.1807Q99.3652-34.668 99.3652-33.7402L99.3652-29.4922Q99.3652-21.582 95.166-17.5293Q90.9668-13.4766 82.7148-13.4766L49.8535-13.4766L49.8535-25.3906Q49.8535-26.1719 49.4385-26.5625Q49.0234-26.9531 48.2422-26.9531Q47.7539-26.9531 47.4609-26.8311Q47.168-26.709 46.7285-26.3672L29.1992-13.0859Q28.1738-12.3535 28.1738-11.1572Q28.1738-9.96094 29.1992-9.22852L46.7285 4.00391Q47.168 4.29688 47.4609 4.44336Q47.7539 4.58984 48.2422 4.58984Q49.0234 4.58984 49.4385 4.1748Q49.8535 3.75977 49.8535 3.02734L49.8535-9.91211L82.7637-9.91211Q88.8672-9.91211 93.5059-12.1094Q98.1445-14.3066 100.708-18.6768Q103.271-23.0469 103.271-29.4922L103.271-33.7402Q103.271-34.668 102.759-35.1807Q102.246-35.6934 101.27-35.6934Z"/>
  </g>
  <g id="Black-S" transform="matrix(1 0 0 1 2875.47 696)">
   <path d="M17.1387-33.7402Q20.166-33.7402 22.3145-35.9131Q24.4629-38.0859 24.4629-41.1133L24.4629-43.3594Q24.4629-48.584 27.6611-51.4404Q30.8594-54.2969 36.6211-54.2969L64.7461-54.2969L64.7461-46.2891Q64.7461-43.7988 66.1865-42.334Q67.627-40.8691 70.0195-40.8691Q71.1914-40.8691 72.0703-41.2354Q72.9492-41.6016 73.6328-42.1875L91.4062-57.373Q93.2129-58.9355 93.1885-61.1328Q93.1641-63.3301 91.4062-64.8438L73.6328-79.9805Q72.9492-80.5664 72.0703-80.9326Q71.1914-81.2988 70.0195-81.2988Q67.627-81.2988 66.1865-79.834Q64.7461-78.3691 64.7461-75.8789L64.7461-68.6523L37.1094-68.6523Q24.3164-68.6523 17.041-62.5488Q9.76562-56.4453 9.76562-45.6543L9.76562-41.1133Q9.76562-38.0859 11.9385-35.9131Q14.1113-33.7402 17.1387-33.7402ZM98.7305-42.041Q95.7031-42.041 93.5547-39.8682Q91.4062-37.6953 91.4062-34.668L91.4062-32.4219Q91.4062-27.2461 88.208-24.3652Q85.0098-21.4844 79.248-21.4844L51.123-21.4844L51.123-29.6387Q51.123-32.1289 49.707-33.5938Q48.291-35.0586 45.8496-35.0586Q44.6777-35.0586 43.7988-34.6924Q42.9199-34.3262 42.2363-33.7402L24.4629-18.5547Q22.6562-17.041 22.6807-14.8193Q22.7051-12.5977 24.4629-11.084L42.2363 4.05273Q42.9199 4.63867 43.7988 5.00488Q44.6777 5.37109 45.8496 5.37109Q48.291 5.37109 49.707 3.90625Q51.123 2.44141 51.123-0.0488281L51.123-7.12891L78.7598-7.12891Q91.6016-7.12891 98.8525-13.2568Q106.104-19.3848 106.104-30.127L106.104-34.668Q106.104-37.6953 103.931-39.8682Q101.758-42.041 98.7305-42.041Z"/>
  </g>
  <g id="Heavy-S" transform="matrix(1 0 0 1 2580.22 696)">
   <path d="M16.2598-33.7402Q18.9453-33.7402 20.8252-35.6445Q22.7051-37.5488 22.7051-40.1855L22.7051-42.7734Q22.7051-47.9004 25.8545-50.7568Q29.0039-53.6133 34.6191-53.6133L63.3301-53.6133L63.3301-45.4102Q63.3301-43.2129 64.5996-41.9189Q65.8691-40.625 67.9688-40.625Q69.043-40.625 69.8486-40.9668Q70.6543-41.3086 71.2402-41.8457L88.2812-56.3477Q89.8926-57.7148 89.8682-59.6436Q89.8438-61.5723 88.2812-62.9395L71.2402-77.3926Q70.6543-77.9297 69.8486-78.2715Q69.043-78.6133 67.9688-78.6133Q65.8691-78.6133 64.5996-77.3193Q63.3301-76.0254 63.3301-73.8281L63.3301-66.2598L35.1562-66.2598Q23.3398-66.2598 16.5527-60.5225Q9.76562-54.7852 9.76562-44.6777L9.76562-40.1855Q9.76562-37.5488 11.6699-35.6445Q13.5742-33.7402 16.2598-33.7402ZM96.6797-40.8203Q93.9941-40.8203 92.1143-38.8916Q90.2344-36.9629 90.2344-34.3262L90.2344-31.7383Q90.2344-26.6602 87.0605-23.7793Q83.8867-20.8984 78.3203-20.8984L49.6094-20.8984L49.6094-29.1992Q49.6094-31.3965 48.3398-32.6904Q47.0703-33.9844 44.9219-33.9844Q43.8965-33.9844 43.0908-33.6426Q42.2852-33.3008 41.6504-32.7637L24.6094-18.2617Q22.998-16.9434 23.0225-14.9902Q23.0469-13.0371 24.6094-11.6699L41.6504 2.7832Q42.2852 3.32031 43.0908 3.66211Q43.8965 4.00391 44.9219 4.00391Q47.0703 4.00391 48.3398 2.70996Q49.6094 1.41602 49.6094-0.78125L49.6094-8.25195L77.7832-8.25195Q89.6484-8.25195 96.4111-14.0137Q103.174-19.7754 103.174-29.834L103.174-34.3262Q103.174-36.9629 101.245-38.8916Q99.3164-40.8203 96.6797-40.8203Z"/>
  </g>
  <g id="Bold-S" transform="matrix(1 0 0 1 2285.17 696)">
   <path d="M15.2832-33.6914Q17.5293-33.6914 19.1162-35.3027Q20.7031-36.9141 20.7031-39.209L20.7031-42.1875Q20.7031-47.1191 23.8525-50Q27.002-52.8809 32.373-52.8809L61.7676-52.8809L61.7676-44.4336Q61.7676-42.5293 62.8418-41.4551Q63.916-40.3809 65.7227-40.3809Q66.6016-40.3809 67.334-40.6738Q68.0664-40.9668 68.6035-41.4551L84.8145-55.1758Q86.1816-56.3477 86.1816-57.9834Q86.1816-59.6191 84.8145-60.791L68.6035-74.5117Q68.0664-75 67.334-75.293Q66.6016-75.5859 65.7227-75.5859Q63.916-75.5859 62.8418-74.5117Q61.7676-73.4375 61.7676-71.5332L61.7676-63.623L32.959-63.623Q22.2168-63.623 15.9912-58.252Q9.76562-52.8809 9.76562-43.6035L9.76562-39.209Q9.76562-36.9141 11.377-35.3027Q12.9883-33.6914 15.2832-33.6914ZM94.3848-39.4043Q92.0898-39.4043 90.5029-37.793Q88.916-36.1816 88.916-33.9355L88.916-30.957Q88.916-26.0254 85.791-23.1201Q82.666-20.2148 77.2949-20.2148L47.9004-20.2148L47.9004-28.7109Q47.9004-30.6152 46.8262-31.6895Q45.752-32.7637 43.8965-32.7637Q43.0176-32.7637 42.2852-32.4707Q41.5527-32.1777 41.0156-31.6895L24.8047-17.9688Q23.4375-16.7969 23.4375-15.1611Q23.4375-13.5254 24.8047-12.3535L41.0156 1.41602Q41.5527 1.9043 42.2852 2.17285Q43.0176 2.44141 43.8965 2.44141Q45.752 2.44141 46.8262 1.36719Q47.9004 0.292969 47.9004-1.61133L47.9004-9.52148L76.6602-9.52148Q87.4512-9.52148 93.6523-14.8926Q99.8535-20.2637 99.8535-29.541L99.8535-33.9355Q99.8535-36.1816 98.2422-37.793Q96.6309-39.4043 94.3848-39.4043Z"/>
  </g>
  <g id="Semibold-S" transform="matrix(1 0 0 1 1989.6 696)">
   <path d="M14.5508-33.6914Q16.5527-33.6914 17.9443-35.083Q19.3359-36.4746 19.3359-38.4766L19.3359-41.748Q19.3359-46.582 22.4609-49.4629Q25.5859-52.3438 30.8105-52.3438L60.6445-52.3438L60.6445-43.7012Q60.6445-42.0898 61.5967-41.1377Q62.5488-40.1855 64.1602-40.1855Q64.9414-40.1855 65.6006-40.4541Q66.2598-40.7227 66.7969-41.1621L82.373-54.3457Q83.6426-55.4199 83.6426-56.8359Q83.6426-58.252 82.373-59.3262L66.7969-72.5098Q66.2598-72.998 65.6006-73.2422Q64.9414-73.4863 64.1602-73.4863Q62.5488-73.4863 61.5967-72.5586Q60.6445-71.6309 60.6445-69.9707L60.6445-61.7676L31.4453-61.7676Q21.4355-61.7676 15.6006-56.665Q9.76562-51.5625 9.76562-42.8223L9.76562-38.4766Q9.76562-36.4746 11.1572-35.083Q12.5488-33.6914 14.5508-33.6914ZM92.7734-38.4277Q90.7715-38.4277 89.3799-37.0361Q87.9883-35.6445 87.9883-33.6426L87.9883-30.3711Q87.9883-25.5371 84.8877-22.6562Q81.7871-19.7754 76.5625-19.7754L46.6797-19.7754L46.6797-28.3691Q46.6797-30.0293 45.752-30.957Q44.8242-31.8848 43.1641-31.8848Q42.4316-31.8848 41.748-31.6406Q41.0645-31.3965 40.5273-30.957L24.9512-17.7734Q23.6816-16.6992 23.6816-15.2588Q23.6816-13.8184 24.9512-12.793L40.5273 0.439453Q41.0645 0.878906 41.748 1.12305Q42.4316 1.36719 43.1641 1.36719Q44.8242 1.36719 45.752 0.439453Q46.6797-0.488281 46.6797-2.14844L46.6797-10.3516L75.8789-10.3516Q85.8887-10.3516 91.7236-15.4541Q97.5586-20.5566 97.5586-29.2969L97.5586-33.6426Q97.5586-35.6445 96.167-37.0361Q94.7754-38.4277 92.7734-38.4277Z"/>
  </g>
  <g id="Medium-S" transform="matrix(1 0 0 1 1693.75 696)">
   <path d="M14.0625-33.6426Q15.8203-33.6426 17.0654-34.9121Q18.3105-36.1816 18.3105-37.9395L18.3105-41.4062Q18.3105-46.1914 21.4111-49.0723Q24.5117-51.9531 29.5898-51.9531L59.8145-51.9531L59.8145-43.2129Q59.8145-41.6992 60.6689-40.8936Q61.5234-40.0879 62.9883-40.0879Q63.6719-40.0879 64.2822-40.3076Q64.8926-40.5273 65.3809-40.9668L80.5664-53.7109Q81.6895-54.6875 81.6895-55.957Q81.6895-57.2266 80.5664-58.2031L65.3809-70.9961Q64.8926-71.4355 64.2822-71.6553Q63.6719-71.875 62.9883-71.875Q61.5234-71.875 60.6689-71.0693Q59.8145-70.2637 59.8145-68.75L59.8145-60.3516L30.3223-60.3516Q20.8496-60.3516 15.3076-55.4688Q9.76562-50.5859 9.76562-42.2363L9.76562-37.9395Q9.76562-36.1816 10.9863-34.9121Q12.207-33.6426 14.0625-33.6426ZM91.5527-37.6953Q89.7949-37.6953 88.5498-36.4502Q87.3047-35.2051 87.3047-33.4473L87.3047-29.9805Q87.3047-25.1953 84.2041-22.29Q81.1035-19.3848 76.0254-19.3848L45.8008-19.3848L45.8008-28.125Q45.8008-29.5898 44.9707-30.4199Q44.1406-31.25 42.627-31.25Q41.9434-31.25 41.3086-31.0303Q40.6738-30.8105 40.1855-30.3711L25-17.5781Q23.877-16.6504 23.9014-15.3564Q23.9258-14.0625 25-13.1348L40.1855-0.292969Q40.6738 0.0976562 41.3086 0.341797Q41.9434 0.585938 42.627 0.585938Q44.1406 0.585938 44.9707-0.244141Q45.8008-1.07422 45.8008-2.58789L45.8008-11.0352L75.293-11.0352Q84.7656-11.0352 90.3076-15.918Q95.8496-20.8008 95.8496-29.1016L95.8496-33.4473Q95.8496-35.2051 94.6045-36.4502Q93.3594-37.6953 91.5527-37.6953Z"/>
  </g>
  <g id="Regular-S" transform="matrix(1 0 0 1 1398.16 696)">
   <path d="M13.3789-33.6426Q14.8926-33.6426 15.918-34.6924Q16.9434-35.7422 16.9434-37.2559L16.9434-40.9668Q16.9434-45.6543 20.0195-48.5596Q23.0957-51.4648 28.0762-51.4648L58.7402-51.4648L58.7402-42.5293Q58.7402-41.2598 59.4482-40.5762Q60.1562-39.8926 61.4258-39.8926Q62.0117-39.8926 62.5732-40.0879Q63.1348-40.2832 63.5742-40.6738L78.1738-52.9297Q79.1504-53.7598 79.1748-54.834Q79.1992-55.9082 78.1738-56.7383L63.5742-69.043Q63.1348-69.4336 62.5732-69.6289Q62.0117-69.8242 61.4258-69.8242Q60.1562-69.8242 59.4482-69.1406Q58.7402-68.457 58.7402-67.1875L58.7402-58.5449L28.8086-58.5449Q20.1172-58.5449 14.9414-53.9307Q9.76562-49.3164 9.76562-41.5039L9.76562-37.2559Q9.76562-35.7422 10.791-34.6924Q11.8164-33.6426 13.3789-33.6426ZM89.9902-36.7676Q88.4766-36.7676 87.4268-35.7178Q86.377-34.668 86.377-33.1543L86.377-29.4434Q86.377-24.7559 83.3252-21.8506Q80.2734-18.9453 75.293-18.9453L44.6289-18.9453L44.6289-27.7832Q44.6289-29.0527 43.9209-29.7363Q43.2129-30.4199 41.8945-30.4199Q41.3574-30.4199 40.7715-30.2246Q40.1855-30.0293 39.7461-29.6387L25.1465-17.3828Q24.1699-16.5527 24.1699-15.4785Q24.1699-14.4043 25.1465-13.5742L39.7461-1.26953Q40.1855-0.878906 40.7715-0.683594Q41.3574-0.488281 41.8945-0.488281Q43.2129-0.488281 43.9209-1.17188Q44.6289-1.85547 44.6289-3.125L44.6289-11.8652L74.5605-11.8652Q83.252-11.8652 88.4277-16.4795Q93.6035-21.0938 93.6035-28.9062L93.6035-33.1543Q93.6035-34.668 92.5537-35.7178Q91.5039-36.7676 89.9902-36.7676Z"/>
  </g>
  <g id="Light-S" transform="matrix(1 0 0 1 1103.43 696)">
   <path d="M12.7441-33.9844Q14.0137-33.9844 14.8438-34.8389Q15.6738-35.6934 15.6738-36.9629L15.6738-40.5273Q15.6738-45.7031 18.7988-48.6816Q21.9238-51.6602 27.3926-51.6602L56.4941-51.6602L56.4941-42.627Q56.4941-41.5527 57.0801-40.9912Q57.666-40.4297 58.7402-40.4297Q59.2773-40.4297 59.7412-40.6006Q60.2051-40.7715 60.5957-41.1133L74.9512-52.7832Q75.8301-53.5645 75.8545-54.5898Q75.8789-55.6152 74.9512-56.3477L60.5957-68.0664Q60.2051-68.4082 59.7412-68.5547Q59.2773-68.7012 58.7402-68.7012Q57.666-68.7012 57.0801-68.1396Q56.4941-67.5781 56.4941-66.5527L56.4941-57.4219L27.8809-57.4219Q19.6777-57.4219 14.7217-53.0273Q9.76562-48.6328 9.76562-40.918L9.76562-36.9629Q9.76562-35.6934 10.5957-34.8389Q11.4258-33.9844 12.7441-33.9844ZM86.6699-36.377Q85.4004-36.377 84.5459-35.5469Q83.6914-34.7168 83.6914-33.4473L83.6914-29.834Q83.6914-24.707 80.5664-21.7041Q77.4414-18.7012 72.0215-18.7012L42.9199-18.7012L42.9199-27.6855Q42.9199-28.7598 42.3096-29.3213Q41.6992-29.8828 40.625-29.8828Q40.1367-29.8828 39.6729-29.7363Q39.209-29.5898 38.7695-29.1992L24.4141-17.5293Q23.5352-16.7969 23.5352-15.7715Q23.5352-14.7461 24.4141-13.9648L38.7695-2.24609Q39.209-1.9043 39.6729-1.75781Q40.1367-1.61133 40.625-1.61133Q41.6992-1.61133 42.3096-2.17285Q42.9199-2.73438 42.9199-3.80859L42.9199-12.9883L71.5332-12.9883Q79.7363-12.9883 84.6924-17.3584Q89.6484-21.7285 89.6484-29.4922L89.6484-33.4473Q89.6484-34.7168 88.7939-35.5469Q87.9395-36.377 86.6699-36.377Z"/>
  </g>
  <g id="Thin-S" transform="matrix(1 0 0 1 809.352 696)">
   <path d="M11.8652-34.4727Q12.8418-34.4727 13.4033-35.0586Q13.9648-35.6445 13.9648-36.5723L13.9648-39.9902Q13.9648-45.752 17.1875-48.8525Q20.4102-51.9531 26.4648-51.9531L53.5645-51.9531L53.5645-42.7246Q53.5645-41.9434 54.0039-41.5527Q54.4434-41.1621 55.2246-41.1621Q55.6641-41.1621 55.9814-41.2598Q56.2988-41.3574 56.6895-41.6992L70.6543-52.6367Q71.4844-53.2715 71.4844-54.248Q71.4844-55.2246 70.6543-55.8105L56.6895-66.748Q56.2988-67.041 55.9814-67.1387Q55.6641-67.2363 55.2246-67.2363Q54.4434-67.2363 54.0039-66.8457Q53.5645-66.4551 53.5645-65.6738L53.5645-55.957L26.6602-55.957Q19.043-55.957 14.4043-51.8555Q9.76562-47.7539 9.76562-40.1367L9.76562-36.5723Q9.76562-35.6445 10.3271-35.0586Q10.8887-34.4727 11.8652-34.4727ZM82.2754-35.8887Q81.3965-35.8887 80.7861-35.3027Q80.1758-34.7168 80.1758-33.7891L80.1758-30.3711Q80.1758-24.6094 76.9531-21.5088Q73.7305-18.4082 67.6758-18.4082L40.625-18.4082L40.625-27.5879Q40.625-28.3691 40.1855-28.7842Q39.7461-29.1992 38.916-29.1992Q38.5254-29.1992 38.1836-29.0771Q37.8418-28.9551 37.5-28.6621L23.4863-17.7246Q22.6562-17.0898 22.6562-16.1133Q22.6562-15.1367 23.4863-14.502L37.5-3.61328Q37.8418-3.32031 38.1836-3.19824Q38.5254-3.07617 38.916-3.07617Q39.7461-3.07617 40.1855-3.49121Q40.625-3.90625 40.625-4.6875L40.625-14.4531L67.5293-14.4531Q75.1465-14.4531 79.7607-18.5303Q84.375-22.6074 84.375-30.2246L84.375-33.7891Q84.375-34.7168 83.8135-35.3027Q83.252-35.8887 82.2754-35.8887Z"/>
  </g>
  <g id="Ultralight-S" transform="matrix(1 0 0 1 513.984 696)">
   <path d="M11.4258-34.7168Q12.207-34.7168 12.6465-35.1562Q13.0859-35.5957 13.0859-36.377L13.0859-39.6973Q13.0859-45.8008 16.3574-48.9502Q19.6289-52.0996 25.9766-52.0996L52.0508-52.0996L52.0508-42.8223Q52.0508-42.1875 52.3926-41.8457Q52.7344-41.5039 53.418-41.5039Q53.8086-41.5039 54.0527-41.6016Q54.2969-41.6992 54.6875-41.9922L68.457-52.5391Q69.2383-53.125 69.2383-54.0527Q69.2383-54.9805 68.457-55.5664L54.6875-66.1133Q54.2969-66.3574 54.0527-66.4307Q53.8086-66.5039 53.418-66.5039Q52.7344-66.5039 52.3926-66.1865Q52.0508-65.8691 52.0508-65.2344L52.0508-55.1758L26.0254-55.1758Q18.75-55.1758 14.2578-51.2451Q9.76562-47.3145 9.76562-39.7461L9.76562-36.377Q9.76562-35.5957 10.2051-35.1562Q10.6445-34.7168 11.4258-34.7168ZM80.0293-35.6445Q79.2969-35.6445 78.833-35.2051Q78.3691-34.7656 78.3691-33.9844L78.3691-30.6641Q78.3691-24.5605 75.0977-21.4111Q71.8262-18.2617 65.4785-18.2617L39.4531-18.2617L39.4531-27.5391Q39.4531-28.1738 39.0869-28.4912Q38.7207-28.8086 38.0371-28.8086Q37.7441-28.8086 37.4756-28.7354Q37.207-28.6621 36.8164-28.3691L22.998-17.8223Q22.2168-17.2363 22.2168-16.3086Q22.2168-15.3809 22.998-14.7949L36.8164-4.24805Q37.207-4.00391 37.4756-3.93066Q37.7441-3.85742 38.0371-3.85742Q38.7207-3.85742 39.0869-4.1748Q39.4531-4.49219 39.4531-5.12695L39.4531-15.1855L65.4785-15.1855Q72.7539-15.1855 77.2217-19.1162Q81.6895-23.0469 81.6895-30.6152L81.6895-33.9844Q81.6895-34.7656 81.25-35.2051Q80.8105-35.6445 80.0293-35.6445Z"/>
  </g>
 </g>
</svg>
