<?xml version="1.0" encoding="UTF-8"?>
<!--Generator: Apple Native CoreSVG 149-->
<!DOCTYPE svg
PUBLIC "-//W3C//DTD SVG 1.1//EN"
       "http://www.w3.org/Graphics/SVG/1.1/DTD/svg11.dtd">
<svg version="1.1" xmlns="http://www.w3.org/2000/svg" xmlns:xlink="http://www.w3.org/1999/xlink" width="3300" height="2200">
 <!--glyph: "uni10004C.medium", point size: 100.0, font version: "17.0d9e1", template writer version: "59"-->
 <g id="Notes">
  <rect height="2200" id="artboard" style="fill:white;opacity:1" width="3300" x="0" y="0"/>
  <line style="fill:none;stroke:black;opacity:1;stroke-width:0.5;" x1="263" x2="3036" y1="292" y2="292"/>
  <text style="stroke:none;fill:black;font-family:sans-serif;font-size:13;font-weight:bold;" transform="matrix(1 0 0 1 263 322)">Weight/Scale Variations</text>
  <text style="stroke:none;fill:black;font-family:sans-serif;font-size:13;text-anchor:middle;" transform="matrix(1 0 0 1 559.711 322)">Ultralight</text>
  <text style="stroke:none;fill:black;font-family:sans-serif;font-size:13;text-anchor:middle;" transform="matrix(1 0 0 1 856.422 322)">Thin</text>
  <text style="stroke:none;fill:black;font-family:sans-serif;font-size:13;text-anchor:middle;" transform="matrix(1 0 0 1 1153.13 322)">Light</text>
  <text style="stroke:none;fill:black;font-family:sans-serif;font-size:13;text-anchor:middle;" transform="matrix(1 0 0 1 1449.84 322)">Regular</text>
  <text style="stroke:none;fill:black;font-family:sans-serif;font-size:13;text-anchor:middle;" transform="matrix(1 0 0 1 1746.56 322)">Medium</text>
  <text style="stroke:none;fill:black;font-family:sans-serif;font-size:13;text-anchor:middle;" transform="matrix(1 0 0 1 2043.27 322)">Semibold</text>
  <text style="stroke:none;fill:black;font-family:sans-serif;font-size:13;text-anchor:middle;" transform="matrix(1 0 0 1 2339.98 322)">Bold</text>
  <text style="stroke:none;fill:black;font-family:sans-serif;font-size:13;text-anchor:middle;" transform="matrix(1 0 0 1 2636.69 322)">Heavy</text>
  <text style="stroke:none;fill:black;font-family:sans-serif;font-size:13;text-anchor:middle;" transform="matrix(1 0 0 1 2933.4 322)">Black</text>
  <line style="fill:none;stroke:black;opacity:1;stroke-width:0.5;" x1="263" x2="3036" y1="1903" y2="1903"/>
  <g transform="matrix(1 0 0 1 263 1933)">
   <path d="M9.24805 0.830078Q10.8691 0.830078 12.2949 0.214844Q13.7207-0.400391 14.8096-1.49414Q15.8984-2.58789 16.5186-4.01367Q17.1387-5.43945 17.1387-7.05078Q17.1387-8.66211 16.5186-10.0879Q15.8984-11.5137 14.8047-12.6074Q13.7109-13.7012 12.2852-14.3164Q10.8594-14.9316 9.23828-14.9316Q7.62695-14.9316 6.20117-14.3164Q4.77539-13.7012 3.69141-12.6074Q2.60742-11.5137 1.9873-10.0879Q1.36719-8.66211 1.36719-7.05078Q1.36719-5.43945 1.9873-4.01367Q2.60742-2.58789 3.69629-1.49414Q4.78516-0.400391 6.21094 0.214844Q7.63672 0.830078 9.24805 0.830078ZM9.24805-0.654297Q7.91992-0.654297 6.7627-1.14746Q5.60547-1.64062 4.73145-2.51953Q3.85742-3.39844 3.36426-4.56055Q2.87109-5.72266 2.87109-7.05078Q2.87109-8.37891 3.35938-9.54102Q3.84766-10.7031 4.72168-11.582Q5.5957-12.4609 6.75293-12.9541Q7.91016-13.4473 9.23828-13.4473Q10.5762-13.4473 11.7334-12.9541Q12.8906-12.4609 13.7695-11.582Q14.6484-10.7031 15.1465-9.54102Q15.6445-8.37891 15.6445-7.05078Q15.6445-5.72266 15.1514-4.56055Q14.6582-3.39844 13.7842-2.51953Q12.9102-1.64062 11.748-1.14746Q10.5859-0.654297 9.24805-0.654297ZM5.83984-7.04102Q5.83984-6.71875 6.04492-6.51855Q6.25-6.31836 6.5918-6.31836L8.50586-6.31836L8.50586-4.39453Q8.50586-4.0625 8.70605-3.85742Q8.90625-3.65234 9.22852-3.65234Q9.56055-3.65234 9.76562-3.85742Q9.9707-4.0625 9.9707-4.39453L9.9707-6.31836L11.8945-6.31836Q12.2266-6.31836 12.4316-6.51855Q12.6367-6.71875 12.6367-7.04102Q12.6367-7.37305 12.4316-7.57812Q12.2266-7.7832 11.8945-7.7832L9.9707-7.7832L9.9707-9.69727Q9.9707-10.0391 9.76562-10.2441Q9.56055-10.4492 9.22852-10.4492Q8.90625-10.4492 8.70605-10.2441Q8.50586-10.0391 8.50586-9.69727L8.50586-7.7832L6.5918-7.7832Q6.25-7.7832 6.04492-7.57812Q5.83984-7.37305 5.83984-7.04102Z"/>
  </g>
  <g transform="matrix(1 0 0 1 281.867 1933)">
   <path d="M11.709 2.91016Q13.75 2.91016 15.5518 2.12891Q17.3535 1.34766 18.7305-0.0292969Q20.1074-1.40625 20.8887-3.20801Q21.6699-5.00977 21.6699-7.05078Q21.6699-9.0918 20.8887-10.8936Q20.1074-12.6953 18.7305-14.0723Q17.3535-15.4492 15.5469-16.2305Q13.7402-17.0117 11.6992-17.0117Q9.6582-17.0117 7.85645-16.2305Q6.05469-15.4492 4.68262-14.0723Q3.31055-12.6953 2.5293-10.8936Q1.74805-9.0918 1.74805-7.05078Q1.74805-5.00977 2.5293-3.20801Q3.31055-1.40625 4.6875-0.0292969Q6.06445 1.34766 7.86621 2.12891Q9.66797 2.91016 11.709 2.91016ZM11.709 1.25Q9.98047 1.25 8.47656 0.605469Q6.97266-0.0390625 5.83496-1.17676Q4.69727-2.31445 4.05762-3.81836Q3.41797-5.32227 3.41797-7.05078Q3.41797-8.7793 4.05762-10.2832Q4.69727-11.7871 5.83008-12.9297Q6.96289-14.0723 8.4668-14.7119Q9.9707-15.3516 11.6992-15.3516Q13.4277-15.3516 14.9316-14.7119Q16.4355-14.0723 17.5781-12.9297Q18.7207-11.7871 19.3652-10.2832Q20.0098-8.7793 20.0098-7.05078Q20.0098-5.32227 19.3701-3.81836Q18.7305-2.31445 17.5928-1.17676Q16.4551-0.0390625 14.9463 0.605469Q13.4375 1.25 11.709 1.25ZM7.39258-7.04102Q7.39258-6.68945 7.62695-6.46484Q7.86133-6.24023 8.23242-6.24023L10.8789-6.24023L10.8789-3.57422Q10.8789-3.21289 11.1035-2.9834Q11.3281-2.75391 11.6797-2.75391Q12.0508-2.75391 12.2852-2.9834Q12.5195-3.21289 12.5195-3.57422L12.5195-6.24023L15.1758-6.24023Q15.5371-6.24023 15.7715-6.46484Q16.0059-6.68945 16.0059-7.04102Q16.0059-7.41211 15.7715-7.6416Q15.5371-7.87109 15.1758-7.87109L12.5195-7.87109L12.5195-10.5176Q12.5195-10.8984 12.2852-11.1279Q12.0508-11.3574 11.6797-11.3574Q11.3281-11.3574 11.1035-11.1279Q10.8789-10.8984 10.8789-10.5176L10.8789-7.87109L8.23242-7.87109Q7.85156-7.87109 7.62207-7.6416Q7.39258-7.41211 7.39258-7.04102Z"/>
  </g>
  <g transform="matrix(1 0 0 1 305.646 1933)">
   <path d="M14.9707 5.66406Q17.0605 5.66406 18.96 5.01465Q20.8594 4.36523 22.4512 3.19336Q24.043 2.02148 25.2197 0.429688Q26.3965-1.16211 27.0459-3.06641Q27.6953-4.9707 27.6953-7.05078Q27.6953-9.14062 27.0459-11.04Q26.3965-12.9395 25.2197-14.5312Q24.043-16.123 22.4512-17.2998Q20.8594-18.4766 18.9551-19.126Q17.0508-19.7754 14.9609-19.7754Q12.8711-19.7754 10.9717-19.126Q9.07227-18.4766 7.48535-17.2998Q5.89844-16.123 4.72168-14.5312Q3.54492-12.9395 2.90039-11.04Q2.25586-9.14062 2.25586-7.05078Q2.25586-4.9707 2.90527-3.06641Q3.55469-1.16211 4.72656 0.429688Q5.89844 2.02148 7.49023 3.19336Q9.08203 4.36523 10.9814 5.01465Q12.8809 5.66406 14.9707 5.66406ZM14.9707 3.84766Q13.1641 3.84766 11.5283 3.2959Q9.89258 2.74414 8.53516 1.74805Q7.17773 0.751953 6.17676-0.610352Q5.17578-1.97266 4.62891-3.6084Q4.08203-5.24414 4.08203-7.05078Q4.08203-8.86719 4.62891-10.5029Q5.17578-12.1387 6.17188-13.501Q7.16797-14.8633 8.52539-15.8594Q9.88281-16.8555 11.5186-17.4023Q13.1543-17.9492 14.9609-17.9492Q16.7773-17.9492 18.4131-17.4023Q20.0488-16.8555 21.4111-15.8594Q22.7734-14.8633 23.7695-13.501Q24.7656-12.1387 25.3174-10.5029Q25.8691-8.86719 25.8691-7.05078Q25.8789-5.24414 25.332-3.6084Q24.7852-1.97266 23.7842-0.610352Q22.7832 0.751953 21.4209 1.74805Q20.0586 2.74414 18.4229 3.2959Q16.7871 3.84766 14.9707 3.84766ZM9.45312-7.04102Q9.45312-6.66016 9.71191-6.41113Q9.9707-6.16211 10.3711-6.16211L14.0625-6.16211L14.0625-2.46094Q14.0625-2.06055 14.3115-1.80664Q14.5605-1.55273 14.9414-1.55273Q15.3516-1.55273 15.6055-1.80664Q15.8594-2.06055 15.8594-2.46094L15.8594-6.16211L19.5605-6.16211Q19.9609-6.16211 20.2148-6.41113Q20.4688-6.66016 20.4688-7.04102Q20.4688-7.45117 20.2148-7.70508Q19.9609-7.95898 19.5605-7.95898L15.8594-7.95898L15.8594-11.6504Q15.8594-12.0605 15.6055-12.3145Q15.3516-12.5684 14.9414-12.5684Q14.5605-12.5684 14.3115-12.3096Q14.0625-12.0508 14.0625-11.6504L14.0625-7.95898L10.3711-7.95898Q9.96094-7.95898 9.70703-7.70508Q9.45312-7.45117 9.45312-7.04102Z"/>
  </g>
  <text style="stroke:none;fill:black;font-family:sans-serif;font-size:13;font-weight:bold;" transform="matrix(1 0 0 1 263 1953)">Design Variations</text>
  <text style="stroke:none;fill:black;font-family:sans-serif;font-size:13;" transform="matrix(1 0 0 1 263 1971)">Symbols are supported in up to nine weights and three scales.</text>
  <text style="stroke:none;fill:black;font-family:sans-serif;font-size:13;" transform="matrix(1 0 0 1 263 1989)">For optimal layout with text and other symbols, vertically align</text>
  <text style="stroke:none;fill:black;font-family:sans-serif;font-size:13;" transform="matrix(1 0 0 1 263 2007)">symbols with the adjacent text.</text>
  <line style="fill:none;stroke:#00AEEF;stroke-width:0.5;opacity:1.0;" x1="776" x2="776" y1="1919" y2="1933"/>
  <g transform="matrix(1 0 0 1 776 1933)">
   <path d="M3.31055 0.15625Q3.70117 0.15625 3.91602-0.00976562Q4.13086-0.175781 4.26758-0.585938L5.52734-4.0332L11.2891-4.0332L12.5488-0.585938Q12.6855-0.175781 12.9004-0.00976562Q13.1152 0.15625 13.4961 0.15625Q13.8867 0.15625 14.1162-0.0585938Q14.3457-0.273438 14.3457-0.644531Q14.3457-0.869141 14.2383-1.17188L9.6582-13.3691Q9.48242-13.8184 9.17969-14.043Q8.87695-14.2676 8.4082-14.2676Q7.5-14.2676 7.17773-13.3789L2.59766-1.16211Q2.49023-0.859375 2.49023-0.634766Q2.49023-0.263672 2.70996-0.0537109Q2.92969 0.15625 3.31055 0.15625ZM6.00586-5.51758L8.37891-12.0898L8.42773-12.0898L10.8008-5.51758Z"/>
  </g>
  <line style="fill:none;stroke:#00AEEF;stroke-width:0.5;opacity:1.0;" x1="793.197" x2="793.197" y1="1919" y2="1933"/>
  <text style="stroke:none;fill:black;font-family:sans-serif;font-size:13;font-weight:bold;" transform="matrix(1 0 0 1 776 1953)">Margins</text>
  <text style="stroke:none;fill:black;font-family:sans-serif;font-size:13;" transform="matrix(1 0 0 1 776 1971)">Leading and trailing margins on the left and right side of each symbol</text>
  <text style="stroke:none;fill:black;font-family:sans-serif;font-size:13;" transform="matrix(1 0 0 1 776 1989)">can be adjusted by modifying the x-location of the margin guidelines.</text>
  <text style="stroke:none;fill:black;font-family:sans-serif;font-size:13;" transform="matrix(1 0 0 1 776 2007)">Modifications are automatically applied proportionally to all</text>
  <text style="stroke:none;fill:black;font-family:sans-serif;font-size:13;" transform="matrix(1 0 0 1 776 2025)">scales and weights.</text>
  <g transform="matrix(1 0 0 1 1289 1933)">
   <path d="M2.8418 1.86523L4.54102 3.57422Q5.18555 4.22852 5.90332 4.17969Q6.62109 4.13086 7.31445 3.35938L18.0078-8.42773L17.041-9.4043L6.42578 2.27539Q6.16211 2.57812 5.89355 2.61719Q5.625 2.65625 5.27344 2.30469L4.10156 1.14258Q3.75 0.791016 3.79395 0.522461Q3.83789 0.253906 4.14062-0.0195312L15.6152-10.8203L14.6387-11.7871L3.04688-0.898438Q2.30469-0.214844 2.25098 0.498047Q2.19727 1.21094 2.8418 1.86523ZM9.25781-16.3281Q8.94531-16.0254 8.90625-15.6348Q8.86719-15.2441 9.04297-14.9512Q9.21875-14.6777 9.55566-14.541Q9.89258-14.4043 10.3809-14.5215Q11.4746-14.7754 12.5977-14.7314Q13.7207-14.6875 14.7949-13.9844L14.209-12.5293Q13.9551-11.9043 14.0674-11.4404Q14.1797-10.9766 14.5801-10.5664L16.875-8.25195Q17.2363-7.88086 17.5781-7.82227Q17.9199-7.76367 18.3398-7.8418L19.4043-8.03711L20.0684-7.36328L20.0293-6.80664Q20-6.43555 20.1221-6.12305Q20.2441-5.81055 20.6055-5.44922L21.3672-4.70703Q21.7285-4.3457 22.1533-4.33105Q22.5781-4.31641 22.9297-4.66797L25.8398-7.58789Q26.1914-7.93945 26.1816-8.35449Q26.1719-8.76953 25.8105-9.13086L25.0391-9.89258Q24.6875-10.2539 24.3799-10.3857Q24.0723-10.5176 23.7109-10.4883L23.1348-10.4395L22.4902-11.0742L22.7344-12.1973Q22.832-12.6172 22.6953-12.9834Q22.5586-13.3496 22.1191-13.7891L19.9219-15.9766Q18.6719-17.2168 17.2607-17.8369Q15.8496-18.457 14.4189-18.4814Q12.9883-18.5059 11.665-17.959Q10.3418-17.4121 9.25781-16.3281ZM10.752-15.957Q11.6602-16.6211 12.7002-16.9043Q13.7402-17.1875 14.8047-17.085Q15.8691-16.9824 16.8701-16.5137Q17.8711-16.0449 18.7012-15.2051L21.1328-12.793Q21.3086-12.6172 21.3525-12.4512Q21.3965-12.2852 21.3379-12.0312L21.0156-10.5469L22.5195-9.0625L23.5059-9.12109Q23.6914-9.13086 23.7891-9.09668Q23.8867-9.0625 24.0332-8.91602L24.6094-8.33984L22.168-5.89844L21.5918-6.47461Q21.4453-6.62109 21.4062-6.71875Q21.3672-6.81641 21.377-7.01172L21.4453-7.98828L19.9512-9.47266L18.4277-9.21875Q18.1836-9.16992 18.042-9.2041Q17.9004-9.23828 17.7148-9.41406L15.7129-11.416Q15.5176-11.5918 15.4932-11.7529Q15.4688-11.9141 15.5859-12.1875L16.4648-14.2773Q15.293-15.3711 13.8281-15.791Q12.3633-16.2109 10.8398-15.7617Q10.7227-15.7324 10.6885-15.8057Q10.6543-15.8789 10.752-15.957Z"/>
  </g>
  <text style="stroke:none;fill:black;font-family:sans-serif;font-size:13;font-weight:bold;" transform="matrix(1 0 0 1 1289 1953)">Exporting</text>
  <text style="stroke:none;fill:black;font-family:sans-serif;font-size:13;" transform="matrix(1 0 0 1 1289 1971)">Symbols should be outlined when exporting to ensure the</text>
  <text style="stroke:none;fill:black;font-family:sans-serif;font-size:13;" transform="matrix(1 0 0 1 1289 1989)">design is preserved when submitting to Xcode.</text>
  <text id="template-version" style="stroke:none;fill:black;font-family:sans-serif;font-size:13;text-anchor:end;" transform="matrix(1 0 0 1 3036 1933)">Template v.2.0</text>
  <text style="stroke:none;fill:black;font-family:sans-serif;font-size:13;text-anchor:end;" transform="matrix(1 0 0 1 3036 1951)">Requires Xcode 13 or greater</text>
  <text id="descriptive-name" style="stroke:none;fill:black;font-family:sans-serif;font-size:13;text-anchor:end;" transform="matrix(1 0 0 1 3036 1969)">Generated from plus.circle</text>
  <text style="stroke:none;fill:black;font-family:sans-serif;font-size:13;text-anchor:end;" transform="matrix(1 0 0 1 3036 1987)">Typeset at 100 points</text>
  <text style="stroke:none;fill:black;font-family:sans-serif;font-size:13;" transform="matrix(1 0 0 1 263 726)">Small</text>
  <text style="stroke:none;fill:black;font-family:sans-serif;font-size:13;" transform="matrix(1 0 0 1 263 1156)">Medium</text>
  <text style="stroke:none;fill:black;font-family:sans-serif;font-size:13;" transform="matrix(1 0 0 1 263 1586)">Large</text>
 </g>
 <g id="Guides">
  <g id="H-reference" style="fill:#27AAE1;stroke:none;" transform="matrix(1 0 0 1 339 696)">
   <path d="M0.976562 0L3.66211 0L29.3457-67.1387L30.0293-67.1387L30.0293-70.459L28.125-70.459ZM11.6699-24.4629L46.9727-24.4629L46.2402-26.709L12.4512-26.709ZM55.127 0L57.7637 0L30.6152-70.459L29.4434-70.459L29.4434-67.1387Z"/>
  </g>
  <line id="Baseline-S" style="fill:none;stroke:#27AAE1;opacity:1;stroke-width:0.5;" x1="263" x2="3036" y1="696" y2="696"/>
  <line id="Capline-S" style="fill:none;stroke:#27AAE1;opacity:1;stroke-width:0.5;" x1="263" x2="3036" y1="625.541" y2="625.541"/>
  <g id="H-reference" style="fill:#27AAE1;stroke:none;" transform="matrix(1 0 0 1 339 1126)">
   <path d="M0.976562 0L3.66211 0L29.3457-67.1387L30.0293-67.1387L30.0293-70.459L28.125-70.459ZM11.6699-24.4629L46.9727-24.4629L46.2402-26.709L12.4512-26.709ZM55.127 0L57.7637 0L30.6152-70.459L29.4434-70.459L29.4434-67.1387Z"/>
  </g>
  <line id="Baseline-M" style="fill:none;stroke:#27AAE1;opacity:1;stroke-width:0.5;" x1="263" x2="3036" y1="1126" y2="1126"/>
  <line id="Capline-M" style="fill:none;stroke:#27AAE1;opacity:1;stroke-width:0.5;" x1="263" x2="3036" y1="1055.54" y2="1055.54"/>
  <g id="H-reference" style="fill:#27AAE1;stroke:none;" transform="matrix(1 0 0 1 339 1556)">
   <path d="M0.976562 0L3.66211 0L29.3457-67.1387L30.0293-67.1387L30.0293-70.459L28.125-70.459ZM11.6699-24.4629L46.9727-24.4629L46.2402-26.709L12.4512-26.709ZM55.127 0L57.7637 0L30.6152-70.459L29.4434-70.459L29.4434-67.1387Z"/>
  </g>
  <line id="Baseline-L" style="fill:none;stroke:#27AAE1;opacity:1;stroke-width:0.5;" x1="263" x2="3036" y1="1556" y2="1556"/>
  <line id="Capline-L" style="fill:none;stroke:#27AAE1;opacity:1;stroke-width:0.5;" x1="263" x2="3036" y1="1485.54" y2="1485.54"/>
  <line id="left-margin" style="fill:none;stroke:#00AEEF;stroke-width:0.5;opacity:1.0;" x1="1391.3" x2="1391.3" y1="1030.79" y2="1150.12"/>
  <line id="right-margin" style="fill:none;stroke:#00AEEF;stroke-width:0.5;opacity:1.0;" x1="1508.39" x2="1508.39" y1="1030.79" y2="1150.12"/>
 </g>
 <g id="Symbols">
  <g id="Black-L" transform="matrix(1 0 0 1 2854.05 1556)">
   <path d="M79.3457 32.8613Q90.5762 32.8613 100.757 29.3945Q110.938 25.9277 119.458 19.6777Q127.979 13.4277 134.229 4.90723Q140.479-3.61328 143.945-13.7939Q147.412-23.9746 147.412-35.2051Q147.412-46.4355 143.945-56.6162Q140.479-66.7969 134.204-75.3174Q127.93-83.8379 119.434-90.1123Q110.938-96.3867 100.732-99.8291Q90.5273-103.271 79.2969-103.271Q68.1152-103.271 57.9102-99.8291Q47.7051-96.3867 39.209-90.1123Q30.7129-83.8379 24.4385-75.3174Q18.1641-66.7969 14.7217-56.6162Q11.2793-46.4355 11.2793-35.2051Q11.2793-23.9746 14.7217-13.7939Q18.1641-3.61328 24.4385 4.90723Q30.7129 13.4277 39.2334 19.6777Q47.7539 25.9277 57.9346 29.3945Q68.1152 32.8613 79.3457 32.8613ZM79.3457 12.4023Q71.4355 12.4023 64.2822 10.0098Q57.1289 7.61719 51.1963 3.24707Q45.2637-1.12305 40.8936-7.08008Q36.5234-13.0371 34.1309-20.166Q31.7383-27.2949 31.7383-35.2051Q31.7383-43.1152 34.1309-50.2686Q36.5234-57.4219 40.8936-63.3545Q45.2637-69.2871 51.1963-73.6572Q57.1289-78.0273 64.2578-80.4199Q71.3867-82.8125 79.2969-82.8125Q87.207-82.8125 94.3604-80.4199Q101.514-78.0273 107.471-73.6572Q113.428-69.2871 117.798-63.3545Q122.168-57.4219 124.561-50.2686Q126.953-43.1152 126.953-35.2051Q126.953-27.2949 124.561-20.166Q122.168-13.0371 117.798-7.08008Q113.428-1.12305 107.495 3.24707Q101.562 7.61719 94.4092 10.0098Q87.2559 12.4023 79.3457 12.4023ZM52.5879-35.2539Q52.5879-31.7383 54.8584-29.4189Q57.1289-27.0996 60.5957-27.0996L71.0938-27.0996L71.0938-16.5527Q71.0938-13.0859 73.4375-10.8154Q75.7812-8.54492 79.2969-8.54492Q82.8125-8.54492 85.1562-10.8154Q87.5-13.0859 87.5-16.5527L87.5-27.0996L98.0469-27.0996Q101.514-27.0996 103.784-29.4189Q106.055-31.7383 106.055-35.2539Q106.055-38.8184 103.784-41.1621Q101.514-43.5059 98.0469-43.5059L87.5-43.5059L87.5-54.0039Q87.5-57.4707 85.1562-59.7412Q82.8125-62.0117 79.2969-62.0117Q75.7812-62.0117 73.4375-59.7412Q71.0938-57.4707 71.0938-54.0039L71.0938-43.5059L60.5957-43.5059Q57.1289-43.5059 54.8584-41.1621Q52.5879-38.8184 52.5879-35.2539Z"/>
  </g>
  <g id="Heavy-L" transform="matrix(1 0 0 1 2558.39 1556)">
   <path d="M78.2715 31.7871Q89.3555 31.7871 99.3652 28.3691Q109.375 24.9512 117.749 18.7988Q126.123 12.6465 132.3 4.24805Q138.477-4.15039 141.895-14.1602Q145.312-24.1699 145.312-35.2051Q145.312-46.2402 141.895-56.2744Q138.477-66.3086 132.3-74.6826Q126.123-83.0566 117.749-89.2578Q109.375-95.459 99.3408-98.8525Q89.3066-102.246 78.2227-102.246Q67.2363-102.246 57.2021-98.8525Q47.168-95.459 38.7939-89.2578Q30.4199-83.0566 24.2432-74.6826Q18.0664-66.3086 14.6729-56.2744Q11.2793-46.2402 11.2793-35.2051Q11.2793-24.1699 14.6729-14.1602Q18.0664-4.15039 24.2432 4.24805Q30.4199 12.6465 38.8184 18.7988Q47.2168 24.9512 57.2266 28.3691Q67.2363 31.7871 78.2715 31.7871ZM78.2715 14.0137Q70.1172 14.0137 62.7197 11.5479Q55.3223 9.08203 49.1943 4.56543Q43.0664 0.0488281 38.5498-6.12793Q34.0332-12.3047 31.543-19.6777Q29.0527-27.0508 29.0527-35.2051Q29.0527-43.4082 31.543-50.8057Q34.0332-58.2031 38.5254-64.3311Q43.0176-70.459 49.1699-74.9756Q55.3223-79.4922 62.6953-81.9824Q70.0684-84.4727 78.2227-84.4727Q86.4258-84.4727 93.8232-81.9824Q101.221-79.4922 107.373-74.9756Q113.525-70.459 118.042-64.3311Q122.559-58.2031 125.049-50.8057Q127.539-43.4082 127.539-35.2051Q127.539-27.0508 125.049-19.6777Q122.559-12.3047 118.042-6.12793Q113.525 0.0488281 107.397 4.56543Q101.27 9.08203 93.8721 11.5479Q86.4746 14.0137 78.2715 14.0137ZM51.3184-35.2539Q51.3184-32.1289 53.3691-30.0537Q55.4199-27.9785 58.4961-27.9785L70.8984-27.9785L70.8984-15.5762Q70.8984-12.4512 72.9736-10.4004Q75.0488-8.34961 78.2227-8.34961Q81.3477-8.34961 83.4473-10.4004Q85.5469-12.4512 85.5469-15.5762L85.5469-27.9785L97.998-27.9785Q101.074-27.9785 103.125-30.0537Q105.176-32.1289 105.176-35.2539Q105.176-38.4766 103.125-40.5518Q101.074-42.627 97.998-42.627L85.5469-42.627L85.5469-55.0293Q85.5469-58.1543 83.4473-60.1807Q81.3477-62.207 78.2227-62.207Q75.0488-62.207 72.9736-60.1807Q70.8984-58.1543 70.8984-55.0293L70.8984-42.627L58.4961-42.627Q55.3711-42.627 53.3447-40.5518Q51.3184-38.4766 51.3184-35.2539Z"/>
  </g>
  <g id="Bold-L" transform="matrix(1 0 0 1 2262.85 1556)">
   <path d="M77.0996 30.6152Q87.9395 30.6152 97.7783 27.2461Q107.617 23.877 115.869 17.8223Q124.121 11.7676 130.176 3.51562Q136.23-4.73633 139.6-14.5752Q142.969-24.4141 142.969-35.2539Q142.969-46.0938 139.6-55.9326Q136.23-65.7715 130.151-73.999Q124.072-82.2266 115.845-88.3057Q107.617-94.3848 97.7539-97.7295Q87.8906-101.074 77.0508-101.074Q66.2598-101.074 56.3965-97.7295Q46.5332-94.3848 38.3301-88.3057Q30.127-82.2266 24.0479-73.999Q17.9688-65.7715 14.624-55.9326Q11.2793-46.0938 11.2793-35.2539Q11.2793-24.4141 14.624-14.5752Q17.9688-4.73633 24.0479 3.51562Q30.127 11.7676 38.3545 17.8223Q46.582 23.877 56.4209 27.2461Q66.2598 30.6152 77.0996 30.6152ZM77.0996 15.8203Q68.6523 15.8203 60.9863 13.2568Q53.3203 10.6934 46.9482 6.00586Q40.5762 1.31836 35.8887-5.07812Q31.2012-11.4746 28.6377-19.1162Q26.0742-26.7578 26.0742-35.2539Q26.0742-43.75 28.6377-51.416Q31.2012-59.082 35.8887-65.4541Q40.5762-71.8262 46.9238-76.4893Q53.2715-81.1523 60.9375-83.7158Q68.6035-86.2793 77.0508-86.2793Q85.5469-86.2793 93.2129-83.7158Q100.879-81.1523 107.275-76.4893Q113.672-71.8262 118.335-65.4541Q122.998-59.082 125.586-51.416Q128.174-43.75 128.174-35.2539Q128.174-26.7578 125.61-19.1162Q123.047-11.4746 118.359-5.07812Q113.672 1.31836 107.3 6.00586Q100.928 10.6934 93.2617 13.2568Q85.5957 15.8203 77.0996 15.8203ZM49.9512-35.2539Q49.9512-32.5684 51.7334-30.7861Q53.5156-29.0039 56.25-29.0039L70.752-29.0039L70.752-14.4531Q70.752-11.7188 72.5342-9.96094Q74.3164-8.20312 77.0508-8.20312Q79.834-8.20312 81.6406-9.96094Q83.4473-11.7188 83.4473-14.4531L83.4473-29.0039L97.9492-29.0039Q100.684-29.0039 102.466-30.7861Q104.248-32.5684 104.248-35.2539Q104.248-38.0859 102.466-39.8926Q100.684-41.6992 97.9492-41.6992L83.4473-41.6992L83.4473-56.1523Q83.4473-58.9355 81.6406-60.6934Q79.834-62.4512 77.0508-62.4512Q74.3164-62.4512 72.5342-60.6689Q70.752-58.8867 70.752-56.1523L70.752-41.6992L56.25-41.6992Q53.5156-41.6992 51.7334-39.8926Q49.9512-38.0859 49.9512-35.2539Z"/>
  </g>
  <g id="Semibold-L" transform="matrix(1 0 0 1 1966.97 1556)">
   <path d="M76.2695 29.7852Q86.9629 29.7852 96.6797 26.4648Q106.396 23.1445 114.551 17.1631Q122.705 11.1816 128.687 3.02734Q134.668-5.12695 137.988-14.8438Q141.309-24.5605 141.309-35.2539Q141.309-45.9473 137.988-55.6641Q134.668-65.3809 128.662-73.5107Q122.656-81.6406 114.526-87.6465Q106.396-93.6523 96.6553-96.9727Q86.9141-100.293 76.2207-100.293Q65.5273-100.293 55.8105-96.9727Q46.0938-93.6523 37.9883-87.6465Q29.8828-81.6406 23.877-73.5107Q17.8711-65.3809 14.5752-55.6641Q11.2793-45.9473 11.2793-35.2539Q11.2793-24.5605 14.5996-14.8438Q17.9199-5.12695 23.9014 3.02734Q29.8828 11.1816 38.0127 17.1631Q46.1426 23.1445 55.8594 26.4648Q65.5762 29.7852 76.2695 29.7852ZM76.2695 17.041Q67.627 17.041 59.7656 14.4043Q51.9043 11.7676 45.3857 6.98242Q38.8672 2.19727 34.0576-4.3457Q29.248-10.8887 26.6357-18.7256Q24.0234-26.5625 24.0234-35.2539Q24.0234-43.9453 26.6357-51.8066Q29.248-59.668 34.0332-66.1865Q38.8184-72.7051 45.3369-77.4902Q51.8555-82.2754 59.7168-84.9121Q67.5781-87.5488 76.2207-87.5488Q84.9609-87.5488 92.7979-84.9121Q100.635-82.2754 107.178-77.4902Q113.721-72.7051 118.506-66.1865Q123.291-59.668 125.928-51.8066Q128.564-43.9453 128.564-35.2539Q128.613-26.5625 126.001-18.7256Q123.389-10.8887 118.579-4.3457Q113.77 2.19727 107.227 6.98242Q100.684 11.7676 92.8467 14.4043Q85.0098 17.041 76.2695 17.041ZM48.9746-35.2051Q48.9746-32.8125 50.5859-31.2256Q52.1973-29.6387 54.6387-29.6387L70.5566-29.6387L70.5566-13.623Q70.5566-11.1816 72.168-9.59473Q73.7793-8.00781 76.1719-8.00781Q78.7109-8.00781 80.3223-9.59473Q81.9336-11.1816 81.9336-13.623L81.9336-29.6387L97.9004-29.6387Q100.342-29.6387 101.953-31.2256Q103.564-32.8125 103.564-35.2051Q103.564-37.7441 101.953-39.3555Q100.342-40.9668 97.9004-40.9668L81.9336-40.9668L81.9336-56.8848Q81.9336-59.375 80.3223-60.9619Q78.7109-62.5488 76.1719-62.5488Q73.7793-62.5488 72.168-60.9619Q70.5566-59.375 70.5566-56.8848L70.5566-40.9668L54.6387-40.9668Q52.1484-40.9668 50.5615-39.3555Q48.9746-37.7441 48.9746-35.2051Z"/>
  </g>
  <g id="Medium-L" transform="matrix(1 0 0 1 1670.87 1556)">
   <path d="M75.6836 29.1504Q86.2305 29.1504 95.8496 25.8545Q105.469 22.5586 113.55 16.626Q121.631 10.6934 127.563 2.63672Q133.496-5.41992 136.792-15.0635Q140.088-24.707 140.088-35.2539Q140.088-45.8496 136.792-55.4688Q133.496-65.0879 127.539-73.1445Q121.582-81.2012 113.525-87.1582Q105.469-93.1152 95.8252-96.3867Q86.1816-99.6582 75.6348-99.6582Q65.0391-99.6582 55.4199-96.3867Q45.8008-93.1152 37.7441-87.1582Q29.6875-81.2012 23.7549-73.1445Q17.8223-65.0879 14.5508-55.4688Q11.2793-45.8496 11.2793-35.2539Q11.2793-24.707 14.5508-15.0635Q17.8223-5.41992 23.7549 2.63672Q29.6875 10.6934 37.7686 16.626Q45.8496 22.5586 55.4688 25.8545Q65.0879 29.1504 75.6836 29.1504ZM75.6836 18.0176Q66.8457 18.0176 58.8379 15.332Q50.8301 12.6465 44.2139 7.76367Q37.5977 2.88086 32.6904-3.78418Q27.7832-10.4492 25.1221-18.4326Q22.4609-26.416 22.4609-35.2539Q22.4609-44.1406 25.1221-52.124Q27.7832-60.1074 32.666-66.748Q37.5488-73.3887 44.165-78.2715Q50.7812-83.1543 58.7891-85.8154Q66.7969-88.4766 75.6348-88.4766Q84.4727-88.4766 92.4805-85.8154Q100.488-83.1543 107.129-78.2715Q113.77-73.3887 118.652-66.748Q123.535-60.1074 126.221-52.124Q128.906-44.1406 128.906-35.2539Q128.955-26.416 126.294-18.4326Q123.633-10.4492 118.726-3.78418Q113.818 2.88086 107.178 7.76367Q100.537 12.6465 92.5293 15.332Q84.5215 18.0176 75.6836 18.0176ZM48.2422-35.2051Q48.2422-33.0078 49.707-31.5674Q51.1719-30.127 53.4668-30.127L70.459-30.127L70.459-13.0371Q70.459-10.791 71.8994-9.35059Q73.3398-7.91016 75.5371-7.91016Q77.8809-7.91016 79.3457-9.35059Q80.8105-10.791 80.8105-13.0371L80.8105-30.127L97.8516-30.127Q100.146-30.127 101.587-31.5674Q103.027-33.0078 103.027-35.2051Q103.027-37.5488 101.587-38.9893Q100.146-40.4297 97.8516-40.4297L80.8105-40.4297L80.8105-57.4707Q80.8105-59.7656 79.3457-61.2305Q77.8809-62.6953 75.5371-62.6953Q73.3398-62.6953 71.8994-61.2305Q70.459-59.7656 70.459-57.4707L70.459-40.4297L53.4668-40.4297Q51.123-40.4297 49.6826-38.9893Q48.2422-37.5488 48.2422-35.2051Z"/>
  </g>
  <g id="Regular-L" transform="matrix(1 0 0 1 1374.97 1556)">
   <path d="M74.8535 28.3203Q85.3027 28.3203 94.7998 25.0732Q104.297 21.8262 112.256 15.9668Q120.215 10.1074 126.099 2.14844Q131.982-5.81055 135.229-15.332Q138.477-24.8535 138.477-35.2539Q138.477-45.7031 135.229-55.2002Q131.982-64.6973 126.099-72.6562Q120.215-80.6152 112.256-86.499Q104.297-92.3828 94.7754-95.6299Q85.2539-98.877 74.8047-98.877Q64.3555-98.877 54.8584-95.6299Q45.3613-92.3828 37.4268-86.499Q29.4922-80.6152 23.6084-72.6562Q17.7246-64.6973 14.502-55.2002Q11.2793-45.7031 11.2793-35.2539Q11.2793-24.8535 14.5264-15.332Q17.7734-5.81055 23.6328 2.14844Q29.4922 10.1074 37.4512 15.9668Q45.4102 21.8262 54.9072 25.0732Q64.4043 28.3203 74.8535 28.3203ZM74.8535 19.2383Q65.8203 19.2383 57.6416 16.4795Q49.4629 13.7207 42.6758 8.74023Q35.8887 3.75977 30.8838-3.05176Q25.8789-9.86328 23.1445-18.042Q20.4102-26.2207 20.4102-35.2539Q20.4102-44.3359 23.1445-52.5146Q25.8789-60.6934 30.8594-67.5049Q35.8398-74.3164 42.627-79.2969Q49.4141-84.2773 57.5928-87.0117Q65.7715-89.7461 74.8047-89.7461Q83.8867-89.7461 92.0654-87.0117Q100.244-84.2773 107.056-79.2969Q113.867-74.3164 118.848-67.5049Q123.828-60.6934 126.587-52.5146Q129.346-44.3359 129.346-35.2539Q129.395-26.2207 126.66-18.042Q123.926-9.86328 118.921-3.05176Q113.916 3.75977 107.104 8.74023Q100.293 13.7207 92.1143 16.4795Q83.9355 19.2383 74.8535 19.2383ZM47.2656-35.2051Q47.2656-33.3008 48.5596-32.0557Q49.8535-30.8105 51.8555-30.8105L70.3125-30.8105L70.3125-12.3047Q70.3125-10.3027 71.5576-9.0332Q72.8027-7.76367 74.707-7.76367Q76.7578-7.76367 78.0273-9.0332Q79.2969-10.3027 79.2969-12.3047L79.2969-30.8105L97.8027-30.8105Q99.8047-30.8105 101.074-32.0557Q102.344-33.3008 102.344-35.2051Q102.344-37.2559 101.074-38.5254Q99.8047-39.7949 97.8027-39.7949L79.2969-39.7949L79.2969-58.252Q79.2969-60.3027 78.0273-61.5723Q76.7578-62.8418 74.707-62.8418Q72.8027-62.8418 71.5576-61.5479Q70.3125-60.2539 70.3125-58.252L70.3125-39.7949L51.8555-39.7949Q49.8047-39.7949 48.5352-38.5254Q47.2656-37.2559 47.2656-35.2051Z"/>
  </g>
  <g id="Light-L" transform="matrix(1 0 0 1 1079.18 1556)">
   <path d="M73.9258 27.3926Q84.2285 27.3926 93.6035 24.1943Q102.979 20.9961 110.815 15.2344Q118.652 9.47266 124.438 1.63574Q130.225-6.20117 133.423-15.5762Q136.621-24.9512 136.621-35.2539Q136.621-45.5566 133.423-54.9316Q130.225-64.3066 124.438-72.1436Q118.652-79.9805 110.815-85.7666Q102.979-91.5527 93.6035-94.751Q84.2285-97.9492 73.877-97.9492Q63.5742-97.9492 54.2236-94.751Q44.873-91.5527 37.0361-85.7666Q29.1992-79.9805 23.4131-72.1436Q17.627-64.3066 14.4531-54.9316Q11.2793-45.5566 11.2793-35.2539Q11.2793-24.9512 14.4775-15.5762Q17.6758-6.20117 23.4375 1.63574Q29.1992 9.47266 37.0361 15.2344Q44.873 20.9961 54.248 24.1943Q63.623 27.3926 73.9258 27.3926ZM73.9258 20.5078Q64.6973 20.5078 56.3232 17.6758Q47.9492 14.8438 40.9912 9.74121Q34.0332 4.63867 28.9307-2.31934Q23.8281-9.27734 21.0205-17.6514Q18.2129-26.0254 18.2129-35.2539Q18.2129-44.5312 21.0205-52.8809Q23.8281-61.2305 28.9307-68.2129Q34.0332-75.1953 40.9912-80.2979Q47.9492-85.4004 56.2988-88.208Q64.6484-91.0156 73.877-91.0156Q83.1543-91.0156 91.5283-88.208Q99.9023-85.4004 106.86-80.2979Q113.818-75.1953 118.945-68.2129Q124.072-61.2305 126.88-52.8809Q129.688-44.5312 129.688-35.2539Q129.736-26.0254 126.929-17.6514Q124.121-9.27734 118.994-2.31934Q113.867 4.63867 106.909 9.74121Q99.9512 14.8438 91.5771 17.6758Q83.2031 20.5078 73.9258 20.5078ZM46.6797-35.2051Q46.6797-33.7891 47.6807-32.8125Q48.6816-31.8359 50.1953-31.8359L70.459-31.8359L70.459-11.5723Q70.459-10.0586 71.4355-9.08203Q72.4121-8.10547 73.8281-8.10547Q75.3906-8.10547 76.3672-9.05762Q77.3438-10.0098 77.3438-11.5723L77.3438-31.8359L97.6562-31.8359Q99.1699-31.8359 100.146-32.8125Q101.123-33.7891 101.123-35.2051Q101.123-36.7676 100.146-37.7686Q99.1699-38.7695 97.6562-38.7695L77.3438-38.7695L77.3438-59.0332Q77.3438-60.5957 76.3672-61.5479Q75.3906-62.5 73.8281-62.5Q72.4121-62.5 71.4355-61.5234Q70.459-60.5469 70.459-59.0332L70.459-38.7695L50.1953-38.7695Q48.6328-38.7695 47.6562-37.7686Q46.6797-36.7676 46.6797-35.2051Z"/>
  </g>
  <g id="Thin-L" transform="matrix(1 0 0 1 783.693 1556)">
   <path d="M72.7051 26.1719Q82.8613 26.1719 92.041 23.0469Q101.221 19.9219 108.911 14.2822Q116.602 8.64258 122.266 0.952148Q127.93-6.73828 131.055-15.9424Q134.18-25.1465 134.18-35.2539Q134.18-45.4102 131.055-54.5898Q127.93-63.7695 122.29-71.46Q116.65-79.1504 108.936-84.8145Q101.221-90.4785 92.0166-93.6035Q82.8125-96.7285 72.7051-96.7285Q62.5488-96.7285 53.3691-93.6035Q44.1895-90.4785 36.499-84.8145Q28.8086-79.1504 23.1689-71.46Q17.5293-63.7695 14.4043-54.5898Q11.2793-45.4102 11.2793-35.2539Q11.2793-25.1465 14.4043-15.9424Q17.5293-6.73828 23.1689 0.952148Q28.8086 8.64258 36.5234 14.2822Q44.2383 19.9219 53.418 23.0469Q62.5977 26.1719 72.7051 26.1719ZM72.7051 22.168Q63.2324 22.168 54.6143 19.2627Q45.9961 16.3574 38.8184 11.084Q31.6406 5.81055 26.3428-1.36719Q21.0449-8.54492 18.1641-17.1631Q15.2832-25.7812 15.2832-35.2539Q15.2832-44.7754 18.1641-53.3936Q21.0449-62.0117 26.3428-69.1895Q31.6406-76.3672 38.8184-81.6406Q45.9961-86.9141 54.5898-89.8193Q63.1836-92.7246 72.7051-92.7246Q82.2266-92.7246 90.8203-89.8193Q99.4141-86.9141 106.616-81.6406Q113.818-76.3672 119.092-69.1895Q124.365-62.0117 127.271-53.3936Q130.176-44.7754 130.176-35.2539Q130.176-25.7812 127.271-17.1631Q124.365-8.54492 119.092-1.36719Q113.818 5.81055 106.641 11.084Q99.4629 16.3574 90.8447 19.2627Q82.2266 22.168 72.7051 22.168ZM45.8984-35.2539Q45.8984-34.5215 46.5088-33.9111Q47.1191-33.3008 47.9492-33.3008L70.6543-33.3008L70.6543-10.5957Q70.6543-9.76562 71.2646-9.15527Q71.875-8.54492 72.6562-8.54492Q73.5352-8.54492 74.1455-9.13086Q74.7559-9.7168 74.7559-10.5957L74.7559-33.3008L97.4609-33.3008Q98.291-33.3008 98.9014-33.9111Q99.5117-34.5215 99.5117-35.2539Q99.5117-36.1816 98.9258-36.792Q98.3398-37.4023 97.4609-37.4023L74.7559-37.4023L74.7559-60.1074Q74.7559-60.9863 74.1455-61.5723Q73.5352-62.1582 72.6562-62.1582Q71.875-62.1582 71.2646-61.5479Q70.6543-60.9375 70.6543-60.1074L70.6543-37.4023L47.9492-37.4023Q47.0703-37.4023 46.4844-36.792Q45.8984-36.1816 45.8984-35.2539Z"/>
  </g>
  <g id="Ultralight-L" transform="matrix(1 0 0 1 487.592 1556)">
   <path d="M72.0703 25.5371Q82.1289 25.5371 91.2354 22.4609Q100.342 19.3848 107.935 13.7939Q115.527 8.20312 121.143 0.585938Q126.758-7.03125 129.858-16.1133Q132.959-25.1953 132.959-35.2539Q132.959-45.3125 129.858-54.4189Q126.758-63.5254 121.167-71.1182Q115.576-78.7109 107.959-84.3262Q100.342-89.9414 91.2354-93.0176Q82.1289-96.0938 72.0703-96.0938Q62.0605-96.0938 52.9541-93.0176Q43.8477-89.9414 36.2305-84.3262Q28.6133-78.7109 23.0225-71.1182Q17.4316-63.5254 14.3555-54.4189Q11.2793-45.3125 11.2793-35.2539Q11.2793-25.1953 14.3555-16.1133Q17.4316-7.03125 23.0225 0.585938Q28.6133 8.20312 36.2305 13.7939Q43.8477 19.3848 52.9541 22.4609Q62.0605 25.5371 72.0703 25.5371ZM72.0703 23.0469Q62.4512 23.0469 53.7109 20.0928Q44.9707 17.1387 37.6709 11.792Q30.3711 6.44531 25.0244-0.854492Q19.6777-8.1543 16.7236-16.8945Q13.7695-25.6348 13.7695-35.2539Q13.7695-44.9219 16.7236-53.6377Q19.6777-62.3535 25.0244-69.6533Q30.3711-76.9531 37.6953-82.3242Q45.0195-87.6953 53.7354-90.6494Q62.4512-93.6035 72.0703-93.6035Q81.7383-93.6035 90.4785-90.6494Q99.2188-87.6953 106.494-82.3242Q113.77-76.9531 119.141-69.6533Q124.512-62.3535 127.466-53.6377Q130.42-44.9219 130.42-35.2539Q130.371-25.6348 127.441-16.8945Q124.512-8.1543 119.141-0.854492Q113.77 6.44531 106.494 11.792Q99.2188 17.1387 90.4785 20.0928Q81.7383 23.0469 72.0703 23.0469ZM45.5078-35.2539Q45.5078-34.8633 45.9229-34.4238Q46.3379-33.9844 46.8262-33.9844L70.8008-33.9844L70.8008-10.1074Q70.8008-9.57031 71.1914-9.17969Q71.582-8.78906 72.0215-8.78906Q72.6074-8.78906 73.0225-9.15527Q73.4375-9.52148 73.4375-10.1074L73.4375-33.9844L97.3633-33.9844Q97.8516-33.9844 98.2666-34.4238Q98.6816-34.8633 98.6816-35.2539Q98.6816-35.8398 98.291-36.2793Q97.9004-36.7188 97.3633-36.7188L73.4375-36.7188L73.4375-60.5957Q73.4375-61.1816 73.0225-61.5479Q72.6074-61.9141 72.0215-61.9141Q71.582-61.9141 71.1914-61.5234Q70.8008-61.1328 70.8008-60.5957L70.8008-36.7188L46.8262-36.7188Q46.2891-36.7188 45.8984-36.2793Q45.5078-35.8398 45.5078-35.2539Z"/>
  </g>
  <g id="Black-M" transform="matrix(1 0 0 1 2871.32 1126)">
   <path d="M62.0605 18.1152Q73.0957 18.1152 82.7637 13.9648Q92.4316 9.81445 99.7559 2.46582Q107.08-4.88281 111.255-14.5264Q115.43-24.1699 115.43-35.2051Q115.43-46.2402 111.255-55.8838Q107.08-65.5273 99.7559-72.876Q92.4316-80.2246 82.7637-84.375Q73.0957-88.5254 62.0605-88.5254Q51.0742-88.5254 41.4062-84.375Q31.7383-80.2246 24.3896-72.876Q17.041-65.5273 12.8906-55.8838Q8.74023-46.2402 8.74023-35.2051Q8.74023-24.1699 12.8906-14.5264Q17.041-4.88281 24.3896 2.46582Q31.7383 9.81445 41.4062 13.9648Q51.0742 18.1152 62.0605 18.1152ZM62.0605 0.732422Q54.6387 0.732422 48.1201-2.05078Q41.6016-4.83398 36.6455-9.76562Q31.6895-14.6973 28.9062-21.2158Q26.123-27.7344 26.123-35.2051Q26.123-42.6758 28.9062-49.1943Q31.6895-55.7129 36.6455-60.6445Q41.6016-65.5762 48.1201-68.3594Q54.6387-71.1426 62.0605-71.1426Q69.5312-71.1426 76.0498-68.3594Q82.5684-65.5762 87.5-60.6445Q92.4316-55.7129 95.2393-49.1943Q98.0469-42.6758 98.0469-35.2051Q98.0469-27.7344 95.2393-21.2158Q92.4316-14.6973 87.5-9.76562Q82.5684-4.83398 76.0498-2.05078Q69.5312 0.732422 62.0605 0.732422ZM41.6504-35.2539Q41.6504-32.373 43.5059-30.4443Q45.3613-28.5156 48.1934-28.5156L55.3223-28.5156L55.3223-21.3379Q55.3223-18.5547 57.2754-16.6992Q59.2285-14.8438 62.0605-14.8438Q64.9414-14.8438 66.8945-16.6992Q68.8477-18.5547 68.8477-21.3379L68.8477-28.5156L76.0254-28.5156Q78.8086-28.5156 80.6641-30.4443Q82.5195-32.373 82.5195-35.2539Q82.5195-38.1348 80.6641-40.0635Q78.8086-41.9922 76.0254-41.9922L68.8477-41.9922L68.8477-49.1699Q68.8477-52.002 66.8945-53.8574Q64.9414-55.7129 62.0605-55.7129Q59.2285-55.7129 57.2754-53.8574Q55.3223-52.002 55.3223-49.1699L55.3223-41.9922L48.1934-41.9922Q45.3613-41.9922 43.5059-40.0635Q41.6504-38.1348 41.6504-35.2539Z"/>
  </g>
  <g id="Heavy-M" transform="matrix(1 0 0 1 2575.43 1126)">
   <path d="M61.2305 17.2852Q72.0703 17.2852 81.5918 13.1836Q91.1133 9.08203 98.3154 1.85547Q105.518-5.37109 109.644-14.8682Q113.77-24.3652 113.77-35.2051Q113.77-46.0449 109.644-55.542Q105.518-65.0391 98.3154-72.29Q91.1133-79.541 81.5918-83.6182Q72.0703-87.6953 61.2305-87.6953Q50.4395-87.6953 40.918-83.6182Q31.3965-79.541 24.1699-72.29Q16.9434-65.0391 12.8418-55.542Q8.74023-46.0449 8.74023-35.2051Q8.74023-24.3652 12.8418-14.8682Q16.9434-5.37109 24.1699 1.85547Q31.3965 9.08203 40.918 13.1836Q50.4395 17.2852 61.2305 17.2852ZM61.2305 2.05078Q53.5156 2.05078 46.7529-0.854492Q39.9902-3.75977 34.8633-8.8623Q29.7363-13.9648 26.8555-20.7275Q23.9746-27.4902 23.9746-35.2051Q23.9746-42.9688 26.8555-49.7314Q29.7363-56.4941 34.8633-61.5967Q39.9902-66.6992 46.7529-69.5801Q53.5156-72.4609 61.2305-72.4609Q68.9453-72.4609 75.708-69.5801Q82.4707-66.6992 87.5977-61.5967Q92.7246-56.4941 95.6299-49.7314Q98.5352-42.9688 98.5352-35.2051Q98.5352-27.4902 95.6299-20.7275Q92.7246-13.9648 87.6221-8.8623Q82.5195-3.75977 75.7568-0.854492Q68.9941 2.05078 61.2305 2.05078ZM40.5273-35.2539Q40.5273-32.6172 42.2119-30.8838Q43.8965-29.1504 46.5332-29.1504L55.0781-29.1504L55.0781-20.5078Q55.0781-17.9688 56.8359-16.2842Q58.5938-14.5996 61.1816-14.5996Q63.8184-14.5996 65.5762-16.2842Q67.334-17.9688 67.334-20.5078L67.334-29.1504L75.9766-29.1504Q78.5156-29.1504 80.2246-30.8838Q81.9336-32.6172 81.9336-35.2539Q81.9336-37.8906 80.2246-39.624Q78.5156-41.3574 75.9766-41.3574L67.334-41.3574L67.334-50Q67.334-52.5879 65.5762-54.2725Q63.8184-55.957 61.1816-55.957Q58.5938-55.957 56.8359-54.2725Q55.0781-52.5879 55.0781-50L55.0781-41.3574L46.5332-41.3574Q43.8965-41.3574 42.2119-39.624Q40.5273-37.8906 40.5273-35.2539Z"/>
  </g>
  <g id="Bold-M" transform="matrix(1 0 0 1 2279.65 1126)">
   <path d="M60.3027 16.3574Q70.9473 16.3574 80.2734 12.3291Q89.5996 8.30078 96.7041 1.17188Q103.809-5.95703 107.861-15.2832Q111.914-24.6094 111.914-35.2539Q111.914-45.8496 107.861-55.1758Q103.809-64.502 96.7041-71.6309Q89.5996-78.7598 80.249-82.7881Q70.8984-86.8164 60.3027-86.8164Q49.707-86.8164 40.3564-82.7881Q31.0059-78.7598 23.9014-71.6309Q16.7969-64.502 12.7686-55.1758Q8.74023-45.8496 8.74023-35.2539Q8.74023-24.6094 12.7686-15.2832Q16.7969-5.95703 23.9258 1.17188Q31.0547 8.30078 40.3809 12.3291Q49.707 16.3574 60.3027 16.3574ZM60.3027 3.51562Q52.2949 3.51562 45.2637 0.488281Q38.2324-2.53906 32.9102-7.83691Q27.5879-13.1348 24.6094-20.166Q21.6309-27.1973 21.6309-35.2539Q21.6309-43.3105 24.6094-50.3174Q27.5879-57.3242 32.9102-62.6465Q38.2324-67.9688 45.2393-70.9717Q52.2461-73.9746 60.3027-73.9746Q68.3594-73.9746 75.3662-70.9717Q82.373-67.9688 87.6953-62.6465Q93.0176-57.3242 96.0449-50.3174Q99.0723-43.3105 99.0723-35.2539Q99.0723-27.1973 96.0693-20.166Q93.0664-13.1348 87.7441-7.83691Q82.4219-2.53906 75.3906 0.488281Q68.3594 3.51562 60.3027 3.51562ZM39.3066-35.2539Q39.3066-32.959 40.8203-31.4209Q42.334-29.8828 44.6777-29.8828L54.8828-29.8828L54.8828-19.6289Q54.8828-17.334 56.4209-15.8447Q57.959-14.3555 60.2539-14.3555Q62.5977-14.3555 64.1602-15.8447Q65.7227-17.334 65.7227-19.6289L65.7227-29.8828L75.9766-29.8828Q78.2715-29.8828 79.7852-31.4209Q81.2988-32.959 81.2988-35.2539Q81.2988-37.6465 79.7852-39.1846Q78.2715-40.7227 75.9766-40.7227L65.7227-40.7227L65.7227-50.9277Q65.7227-53.2715 64.1602-54.7852Q62.5977-56.2988 60.2539-56.2988Q57.959-56.2988 56.4209-54.7852Q54.8828-53.2715 54.8828-50.9277L54.8828-40.7227L44.6777-40.7227Q42.334-40.7227 40.8203-39.1846Q39.3066-37.6465 39.3066-35.2539Z"/>
  </g>
  <g id="Semibold-M" transform="matrix(1 0 0 1 1983.6 1126)">
   <path d="M59.668 15.6738Q70.1172 15.6738 79.3457 11.6943Q88.5742 7.71484 95.6055 0.683594Q102.637-6.34766 106.616-15.5518Q110.596-24.7559 110.596-35.2539Q110.596-45.7031 106.616-54.9072Q102.637-64.1113 95.6055-71.1426Q88.5742-78.1738 79.3457-82.1777Q70.1172-86.1816 59.6191-86.1816Q49.1699-86.1816 39.9658-82.1777Q30.7617-78.1738 23.7305-71.1426Q16.6992-64.1113 12.7197-54.9072Q8.74023-45.7031 8.74023-35.2539Q8.74023-24.7559 12.7197-15.5518Q16.6992-6.34766 23.7305 0.683594Q30.7617 7.71484 39.9902 11.6943Q49.2188 15.6738 59.668 15.6738ZM59.668 4.49219Q51.416 4.49219 44.2139 1.41602Q37.0117-1.66016 31.543-7.10449Q26.0742-12.5488 23.0225-19.751Q19.9707-26.9531 19.9707-35.2539Q19.9707-43.5059 23.0225-50.708Q26.0742-57.9102 31.5186-63.3789Q36.9629-68.8477 44.165-71.8994Q51.3672-74.9512 59.6191-74.9512Q67.9199-74.9512 75.1221-71.8994Q82.3242-68.8477 87.7686-63.3789Q93.2129-57.9102 96.3135-50.708Q99.4141-43.5059 99.4141-35.2539Q99.4141-26.9531 96.3379-19.751Q93.2617-12.5488 87.8174-7.10449Q82.373-1.66016 75.1465 1.41602Q67.9199 4.49219 59.668 4.49219ZM38.4766-35.2051Q38.4766-33.1055 39.8682-31.7139Q41.2598-30.3223 43.4082-30.3223L54.7363-30.3223L54.7363-18.9453Q54.7363-16.8457 56.1035-15.4785Q57.4707-14.1113 59.5703-14.1113Q61.7676-14.1113 63.1836-15.4785Q64.5996-16.8457 64.5996-18.9453L64.5996-30.3223L75.9277-30.3223Q78.0762-30.3223 79.4678-31.7139Q80.8594-33.1055 80.8594-35.2051Q80.8594-37.4023 79.4678-38.7939Q78.0762-40.1855 75.9277-40.1855L64.5996-40.1855L64.5996-51.4648Q64.5996-53.6621 63.1836-55.0537Q61.7676-56.4453 59.5703-56.4453Q57.4707-56.4453 56.1035-55.0537Q54.7363-53.6621 54.7363-51.4648L54.7363-40.1855L43.4082-40.1855Q41.2109-40.1855 39.8438-38.7939Q38.4766-37.4023 38.4766-35.2051Z"/>
  </g>
  <g id="Medium-M" transform="matrix(1 0 0 1 1687.38 1126)">
   <path d="M59.1797 15.1855Q69.5312 15.1855 78.6621 11.2305Q87.793 7.27539 94.751 0.317383Q101.709-6.64062 105.664-15.7715Q109.619-24.9023 109.619-35.2539Q109.619-45.6055 105.664-54.7363Q101.709-63.8672 94.751-70.8252Q87.793-77.7832 78.6377-81.7383Q69.4824-85.6934 59.1309-85.6934Q48.7793-85.6934 39.6484-81.7383Q30.5176-77.7832 23.584-70.8252Q16.6504-63.8672 12.6953-54.7363Q8.74023-45.6055 8.74023-35.2539Q8.74023-24.9023 12.6953-15.7715Q16.6504-6.64062 23.6084 0.317383Q30.5664 7.27539 39.6973 11.2305Q48.8281 15.1855 59.1797 15.1855ZM59.1797 5.27344Q50.7324 5.27344 43.4082 2.12402Q36.084-1.02539 30.5176-6.5918Q24.9512-12.1582 21.8262-19.4824Q18.7012-26.8066 18.7012-35.2539Q18.7012-43.7012 21.8262-51.0254Q24.9512-58.3496 30.4932-63.916Q36.0352-69.4824 43.3838-72.6074Q50.7324-75.7324 59.1309-75.7324Q67.5781-75.7324 74.9023-72.6074Q82.2266-69.4824 87.8174-63.916Q93.4082-58.3496 96.5576-51.0254Q99.707-43.7012 99.707-35.2539Q99.707-26.8066 96.582-19.4824Q93.457-12.1582 87.8906-6.5918Q82.3242-1.02539 74.9756 2.12402Q67.627 5.27344 59.1797 5.27344ZM37.793-35.2051Q37.793-33.252 39.0869-31.9824Q40.3809-30.7129 42.4316-30.7129L54.541-30.7129L54.541-18.5059Q54.541-16.5039 55.8105-15.2344Q57.0801-13.9648 59.0332-13.9648Q61.084-13.9648 62.4023-15.2344Q63.7207-16.5039 63.7207-18.5059L63.7207-30.7129L75.8789-30.7129Q77.8809-30.7129 79.1748-31.9824Q80.4688-33.252 80.4688-35.2051Q80.4688-37.2559 79.1748-38.5498Q77.8809-39.8438 75.8789-39.8438L63.7207-39.8438L63.7207-51.9531Q63.7207-54.0527 62.4023-55.3223Q61.084-56.5918 59.0332-56.5918Q57.0801-56.5918 55.8105-55.3223Q54.541-54.0527 54.541-51.9531L54.541-39.8438L42.4316-39.8438Q40.332-39.8438 39.0625-38.5498Q37.793-37.2559 37.793-35.2051Z"/>
  </g>
  <g id="Regular-M" transform="matrix(1 0 0 1 1391.3 1126)">
   <path d="M58.5449 14.5508Q68.75 14.5508 77.7588 10.6445Q86.7676 6.73828 93.6523-0.146484Q100.537-7.03125 104.443-16.04Q108.35-25.0488 108.35-35.2539Q108.35-45.459 104.443-54.4678Q100.537-63.4766 93.6523-70.3613Q86.7676-77.2461 77.7344-81.1523Q68.7012-85.0586 58.4961-85.0586Q48.291-85.0586 39.2822-81.1523Q30.2734-77.2461 23.4131-70.3613Q16.5527-63.4766 12.6465-54.4678Q8.74023-45.459 8.74023-35.2539Q8.74023-25.0488 12.6465-16.04Q16.5527-7.03125 23.4375-0.146484Q30.3223 6.73828 39.3311 10.6445Q48.3398 14.5508 58.5449 14.5508ZM58.5449 6.25Q49.9023 6.25 42.3828 3.02734Q34.8633-0.195312 29.1748-5.88379Q23.4863-11.5723 20.2881-19.0918Q17.0898-26.6113 17.0898-35.2539Q17.0898-43.8965 20.2881-51.416Q23.4863-58.9355 29.1504-64.6484Q34.8145-70.3613 42.334-73.5596Q49.8535-76.7578 58.4961-76.7578Q67.1387-76.7578 74.6582-73.5596Q82.1777-70.3613 87.8906-64.6484Q93.6035-58.9355 96.8262-51.416Q100.049-43.8965 100.049-35.2539Q100.049-26.6113 96.8506-19.0918Q93.6523-11.5723 87.9639-5.88379Q82.2754-0.195312 74.7314 3.02734Q67.1875 6.25 58.5449 6.25ZM36.9629-35.2051Q36.9629-33.4473 38.1348-32.3242Q39.3066-31.2012 41.1621-31.2012L54.3945-31.2012L54.3945-17.8711Q54.3945-16.0645 55.5176-14.917Q56.6406-13.7695 58.3984-13.7695Q60.2539-13.7695 61.4258-14.917Q62.5977-16.0645 62.5977-17.8711L62.5977-31.2012L75.8789-31.2012Q77.6855-31.2012 78.8574-32.3242Q80.0293-33.4473 80.0293-35.2051Q80.0293-37.0605 78.8574-38.208Q77.6855-39.3555 75.8789-39.3555L62.5977-39.3555L62.5977-52.5879Q62.5977-54.4922 61.4258-55.6396Q60.2539-56.7871 58.3984-56.7871Q56.6406-56.7871 55.5176-55.6396Q54.3945-54.4922 54.3945-52.5879L54.3945-39.3555L41.1621-39.3555Q39.2578-39.3555 38.1104-38.208Q36.9629-37.0605 36.9629-35.2051Z"/>
  </g>
  <g id="Light-M" transform="matrix(1 0 0 1 1095.42 1126)">
   <path d="M57.7148 13.7207Q67.7734 13.7207 76.6357 9.8877Q85.498 6.05469 92.2607-0.708008Q99.0234-7.4707 102.856-16.333Q106.689-25.1953 106.689-35.2539Q106.689-45.3125 102.856-54.1748Q99.0234-63.0371 92.2607-69.7998Q85.498-76.5625 76.6113-80.3955Q67.7246-84.2285 57.666-84.2285Q47.6074-84.2285 38.7451-80.3955Q29.8828-76.5625 23.1445-69.7998Q16.4062-63.0371 12.5732-54.1748Q8.74023-45.3125 8.74023-35.2539Q8.74023-25.1953 12.5732-16.333Q16.4062-7.4707 23.1689-0.708008Q29.9316 6.05469 38.7939 9.8877Q47.6562 13.7207 57.7148 13.7207ZM57.7148 7.37305Q48.877 7.37305 41.1377 4.07715Q33.3984 0.78125 27.5391-5.07812Q21.6797-10.9375 18.3838-18.6768Q15.0879-26.416 15.0879-35.2539Q15.0879-44.0918 18.3838-51.8311Q21.6797-59.5703 27.5391-65.4541Q33.3984-71.3379 41.1133-74.6338Q48.8281-77.9297 57.666-77.9297Q66.5527-77.9297 74.2676-74.6338Q81.9824-71.3379 87.8662-65.4541Q93.75-59.5703 97.0703-51.8311Q100.391-44.0918 100.391-35.2539Q100.391-26.416 97.0703-18.6768Q93.75-10.9375 87.915-5.07812Q82.0801 0.78125 74.3408 4.07715Q66.6016 7.37305 57.7148 7.37305ZM36.4258-35.2051Q36.4258-33.8867 37.3291-33.0078Q38.2324-32.1289 39.6484-32.1289L54.541-32.1289L54.541-17.1875Q54.541-15.8203 55.3955-14.9414Q56.25-14.0625 57.5684-14.0625Q58.9844-14.0625 59.9121-14.9414Q60.8398-15.8203 60.8398-17.1875L60.8398-32.1289L75.7324-32.1289Q77.0996-32.1289 78.0029-33.0078Q78.9062-33.8867 78.9062-35.2051Q78.9062-36.6211 78.0029-37.5244Q77.0996-38.4277 75.7324-38.4277L60.8398-38.4277L60.8398-53.2715Q60.8398-54.7363 59.9121-55.6152Q58.9844-56.4941 57.5684-56.4941Q56.25-56.4941 55.3955-55.6152Q54.541-54.7363 54.541-53.2715L54.541-38.4277L39.6484-38.4277Q38.1836-38.4277 37.3047-37.5244Q36.4258-36.6211 36.4258-35.2051Z"/>
  </g>
  <g id="Thin-M" transform="matrix(1 0 0 1 799.782 1126)">
   <path d="M56.5918 12.5977Q66.5039 12.5977 75.1709 8.88672Q83.8379 5.17578 90.4297-1.44043Q97.0215-8.05664 100.781-16.7236Q104.541-25.3906 104.541-35.2539Q104.541-45.1172 100.781-53.7842Q97.0215-62.4512 90.4297-69.0674Q83.8379-75.6836 75.1709-79.3945Q66.5039-83.1055 56.5918-83.1055Q46.7285-83.1055 38.0615-79.3945Q29.3945-75.6836 22.8271-69.0674Q16.2598-62.4512 12.5-53.7842Q8.74023-45.1172 8.74023-35.2539Q8.74023-25.3906 12.4756-16.7236Q16.2109-8.05664 22.8027-1.44043Q29.3945 5.17578 38.0859 8.88672Q46.7773 12.5977 56.5918 12.5977ZM56.5918 8.88672Q47.4609 8.88672 39.4775 5.44434Q31.4941 2.00195 25.415-4.05273Q19.3359-10.1074 15.918-18.1152Q12.5-26.123 12.5-35.2539Q12.5-44.3848 15.918-52.3926Q19.3359-60.4004 25.415-66.4795Q31.4941-72.5586 39.4775-76.001Q47.4609-79.4434 56.5918-79.4434Q65.7715-79.4434 73.7549-76.001Q81.7383-72.5586 87.8174-66.4795Q93.8965-60.4004 97.3389-52.3926Q100.781-44.3848 100.781-35.2539Q100.781-26.123 97.3633-18.1152Q93.9453-10.1074 87.8662-4.05273Q81.7871 2.00195 73.7793 5.44434Q65.7715 8.88672 56.5918 8.88672ZM35.7422-35.2539Q35.7422-34.5215 36.3037-33.9844Q36.8652-33.4473 37.6465-33.4473L54.7363-33.4473L54.7363-16.3574Q54.7363-15.5762 55.2734-15.0146Q55.8105-14.4531 56.543-14.4531Q57.373-14.4531 57.959-14.9902Q58.5449-15.5273 58.5449-16.3574L58.5449-33.4473L75.5859-33.4473Q76.3672-33.4473 76.9287-33.9844Q77.4902-34.5215 77.4902-35.2539Q77.4902-36.084 76.9531-36.6455Q76.416-37.207 75.5859-37.207L58.5449-37.207L58.5449-54.248Q58.5449-55.127 57.959-55.6641Q57.373-56.2012 56.543-56.2012Q55.8105-56.2012 55.2734-55.6396Q54.7363-55.0781 54.7363-54.248L54.7363-37.207L37.6465-37.207Q36.8164-37.207 36.2793-36.6455Q35.7422-36.084 35.7422-35.2539Z"/>
  </g>
  <g id="Ultralight-M" transform="matrix(1 0 0 1 503.632 1126)">
   <path d="M56.0547 12.0605Q65.8203 12.0605 74.3896 8.37402Q82.959 4.6875 89.4775-1.83105Q95.9961-8.34961 99.707-16.9189Q103.418-25.4883 103.418-35.2539Q103.418-45.0195 99.707-53.5889Q95.9961-62.1582 89.4775-68.6768Q82.959-75.1953 74.3896-78.8818Q65.8203-82.5684 56.0547-82.5684Q46.2891-82.5684 37.7197-78.8818Q29.1504-75.1953 22.6562-68.6768Q16.1621-62.1582 12.4512-53.5889Q8.74023-45.0195 8.74023-35.2539Q8.74023-25.4883 12.4268-16.9189Q16.1133-8.34961 22.6318-1.83105Q29.1504 4.6875 37.7197 8.37402Q46.2891 12.0605 56.0547 12.0605ZM56.0547 9.66797Q46.7773 9.66797 38.6475 6.17676Q30.5176 2.68555 24.3164-3.49121Q18.1152-9.66797 14.624-17.8223Q11.1328-25.9766 11.1328-35.2539Q11.1328-44.5312 14.624-52.6855Q18.1152-60.8398 24.3164-67.041Q30.5176-73.2422 38.6475-76.7334Q46.7773-80.2246 56.0547-80.2246Q65.3809-80.2246 73.5107-76.7334Q81.6406-73.2422 87.8174-67.041Q93.9941-60.8398 97.5098-52.6855Q101.025-44.5312 101.025-35.2539Q101.025-25.9766 97.5098-17.8223Q93.9941-9.66797 87.8174-3.49121Q81.6406 2.68555 73.5107 6.17676Q65.3809 9.66797 56.0547 9.66797ZM35.3516-35.2539Q35.3516-34.8145 35.7178-34.4482Q36.084-34.082 36.6211-34.082L54.7852-34.082L54.7852-15.918Q54.7852-15.4297 55.1514-15.0391Q55.5176-14.6484 55.957-14.6484Q56.4941-14.6484 56.9092-15.0146Q57.3242-15.3809 57.3242-15.918L57.3242-34.082L75.4395-34.082Q75.9277-34.082 76.3184-34.4482Q76.709-34.8145 76.709-35.2539Q76.709-35.791 76.3428-36.1816Q75.9766-36.5723 75.4395-36.5723L57.3242-36.5723L57.3242-54.7363Q57.3242-55.2734 56.9092-55.6396Q56.4941-56.0059 55.957-56.0059Q55.5176-56.0059 55.1514-55.6152Q54.7852-55.2246 54.7852-54.7363L54.7852-36.5723L36.6211-36.5723Q36.0352-36.5723 35.6934-36.1816Q35.3516-35.791 35.3516-35.2539Z"/>
  </g>
  <g id="Black-S" transform="matrix(1 0 0 1 2884.57 696)">
   <path d="M48.8281 6.78711Q57.5195 6.78711 65.1123 3.51562Q72.7051 0.244141 78.4912-5.54199Q84.2773-11.3281 87.5488-18.9209Q90.8203-26.5137 90.8203-35.2051Q90.8203-43.8965 87.5488-51.4893Q84.2773-59.082 78.4912-64.8682Q72.7051-70.6543 65.1123-73.9258Q57.5195-77.1973 48.8281-77.1973Q40.1367-77.1973 32.5439-73.9258Q24.9512-70.6543 19.165-64.8682Q13.3789-59.082 10.1074-51.4893Q6.83594-43.8965 6.83594-35.2051Q6.83594-26.5137 10.1074-18.9209Q13.3789-11.3281 19.165-5.54199Q24.9512 0.244141 32.5439 3.51562Q40.1367 6.78711 48.8281 6.78711ZM48.8281-7.37305Q43.0664-7.37305 38.0127-9.5459Q32.959-11.7188 29.1504-15.5273Q25.3418-19.3359 23.1689-24.3896Q20.9961-29.4434 20.9961-35.2051Q20.9961-40.9668 23.1689-46.0205Q25.3418-51.0742 29.1504-54.8828Q32.959-58.6914 38.0127-60.8643Q43.0664-63.0371 48.8281-63.0371Q54.5898-63.0371 59.6436-60.8643Q64.6973-58.6914 68.5059-54.8828Q72.3145-51.0742 74.4873-46.0205Q76.6602-40.9668 76.6602-35.2051Q76.6602-29.4434 74.4873-24.3896Q72.3145-19.3359 68.5059-15.5273Q64.6973-11.7188 59.6436-9.5459Q54.5898-7.37305 48.8281-7.37305ZM32.9102-35.2539Q32.9102-32.959 34.3994-31.3965Q35.8887-29.834 38.1348-29.834L43.4082-29.834L43.4082-24.5605Q43.4082-22.3145 44.9707-20.8252Q46.5332-19.3359 48.8281-19.3359Q51.123-19.3359 52.6855-20.8252Q54.248-22.3145 54.248-24.5605L54.248-29.834L59.5215-29.834Q61.7676-29.834 63.2568-31.3965Q64.7461-32.959 64.7461-35.2539Q64.7461-37.5488 63.2568-39.1113Q61.7676-40.6738 59.5215-40.6738L54.248-40.6738L54.248-45.9473Q54.248-48.1934 52.6855-49.6826Q51.123-51.1719 48.8281-51.1719Q46.5332-51.1719 44.9707-49.6826Q43.4082-48.1934 43.4082-45.9473L43.4082-40.6738L38.1348-40.6738Q35.8887-40.6738 34.3994-39.1113Q32.9102-37.5488 32.9102-35.2539Z"/>
  </g>
  <g id="Heavy-S" transform="matrix(1 0 0 1 2588.47 696)">
   <path d="M48.1934 6.15234Q56.7871 6.15234 64.2578 2.92969Q71.7285-0.292969 77.4414-6.00586Q83.1543-11.7188 86.377-19.1895Q89.5996-26.6602 89.5996-35.2051Q89.5996-43.75 86.377-51.2451Q83.1543-58.7402 77.4414-64.4531Q71.7285-70.166 64.2334-73.3887Q56.7383-76.6113 48.1934-76.6113Q39.6484-76.6113 32.1777-73.3887Q24.707-70.166 18.9941-64.4531Q13.2812-58.7402 10.0586-51.2451Q6.83594-43.75 6.83594-35.2051Q6.83594-26.6602 10.0586-19.1895Q13.2812-11.7188 18.9941-6.00586Q24.707-0.292969 32.2021 2.92969Q39.6973 6.15234 48.1934 6.15234ZM48.1934-6.39648Q42.2363-6.39648 37.0117-8.64258Q31.7871-10.8887 27.8564-14.8438Q23.9258-18.7988 21.6797-24.0234Q19.4336-29.248 19.4336-35.2051Q19.4336-41.1621 21.6553-46.4111Q23.877-51.6602 27.832-55.5908Q31.7871-59.5215 37.0117-61.7676Q42.2363-64.0137 48.1934-64.0137Q54.1992-64.0137 59.4238-61.7676Q64.6484-59.5215 68.5791-55.5908Q72.5098-51.6602 74.7803-46.4111Q77.0508-41.1621 77.0508-35.2051Q77.0508-29.248 74.8047-24.0234Q72.5586-18.7988 68.6035-14.8438Q64.6484-10.8887 59.4238-8.64258Q54.1992-6.39648 48.1934-6.39648ZM32.0312-35.2539Q32.0312-33.1055 33.4229-31.6895Q34.8145-30.2734 36.9141-30.2734L43.2129-30.2734L43.2129-23.9746Q43.2129-21.875 44.6289-20.4834Q46.0449-19.0918 48.1934-19.0918Q50.3418-19.0918 51.7822-20.4834Q53.2227-21.875 53.2227-23.9746L53.2227-30.2734L59.5215-30.2734Q61.6211-30.2734 62.9883-31.6895Q64.3555-33.1055 64.3555-35.2539Q64.3555-37.4023 62.9883-38.8428Q61.6211-40.2832 59.5215-40.2832L53.2227-40.2832L53.2227-46.582Q53.2227-48.6816 51.7822-50.0488Q50.3418-51.416 48.1934-51.416Q46.0449-51.416 44.6289-50.0488Q43.2129-48.6816 43.2129-46.582L43.2129-40.2832L36.9141-40.2832Q34.8145-40.2832 33.4229-38.8428Q32.0312-37.4023 32.0312-35.2539Z"/>
  </g>
  <g id="Bold-S" transform="matrix(1 0 0 1 2292.42 696)">
   <path d="M47.5586 5.46875Q55.957 5.46875 63.3057 2.29492Q70.6543-0.878906 76.2695-6.51855Q81.8848-12.1582 85.083-19.5068Q88.2812-26.8555 88.2812-35.2539Q88.2812-43.6035 85.083-50.9766Q81.8848-58.3496 76.2695-63.9648Q70.6543-69.5801 63.2812-72.7539Q55.9082-75.9277 47.5098-75.9277Q39.1602-75.9277 31.7871-72.7539Q24.4141-69.5801 18.8232-63.9648Q13.2324-58.3496 10.0342-50.9766Q6.83594-43.6035 6.83594-35.2539Q6.83594-26.8555 10.0342-19.5068Q13.2324-12.1582 18.8477-6.51855Q24.4629-0.878906 31.8115 2.29492Q39.1602 5.46875 47.5586 5.46875ZM47.5586-5.32227Q41.3574-5.32227 35.9375-7.6416Q30.5176-9.96094 26.416-14.0625Q22.3145-18.1641 19.9951-23.6084Q17.6758-29.0527 17.6758-35.2539Q17.6758-41.4551 19.9951-46.875Q22.3145-52.2949 26.3916-56.3965Q30.4688-60.498 35.8887-62.8174Q41.3086-65.1367 47.5098-65.1367Q53.7598-65.1367 59.1797-62.8174Q64.5996-60.498 68.7012-56.3965Q72.8027-52.2949 75.1221-46.875Q77.4414-41.4551 77.4414-35.2539Q77.4414-29.0527 75.1221-23.6084Q72.8027-18.1641 68.7256-14.0625Q64.6484-9.96094 59.2041-7.6416Q53.7598-5.32227 47.5586-5.32227ZM31.0547-35.2539Q31.0547-33.3008 32.3242-32.0312Q33.5938-30.7617 35.5469-30.7617L42.9688-30.7617L42.9688-23.291Q42.9688-21.3379 44.2627-20.0928Q45.5566-18.8477 47.5098-18.8477Q49.4629-18.8477 50.7568-20.0928Q52.0508-21.3379 52.0508-23.291L52.0508-30.7617L59.5215-30.7617Q61.4746-30.7617 62.7197-32.0312Q63.9648-33.3008 63.9648-35.2539Q63.9648-37.2559 62.7197-38.5498Q61.4746-39.8438 59.5215-39.8438L52.0508-39.8438L52.0508-47.2656Q52.0508-49.2188 50.7568-50.4883Q49.4629-51.7578 47.5098-51.7578Q45.5566-51.7578 44.2627-50.4883Q42.9688-49.2188 42.9688-47.2656L42.9688-39.8438L35.5469-39.8438Q33.5938-39.8438 32.3242-38.5498Q31.0547-37.2559 31.0547-35.2539Z"/>
  </g>
  <g id="Semibold-S" transform="matrix(1 0 0 1 1996.2 696)">
   <path d="M47.0703 4.98047Q55.3711 4.98047 62.6465 1.85547Q69.9219-1.26953 75.4639-6.86035Q81.0059-12.4512 84.1553-19.7266Q87.3047-27.002 87.3047-35.2539Q87.3047-43.5059 84.1553-50.7812Q81.0059-58.0566 75.4395-63.623Q69.873-69.1895 62.5977-72.3389Q55.3223-75.4883 47.0215-75.4883Q38.7695-75.4883 31.4941-72.3389Q24.2188-69.1895 18.6768-63.623Q13.1348-58.0566 9.98535-50.7812Q6.83594-43.5059 6.83594-35.2539Q6.83594-27.002 9.98535-19.7266Q13.1348-12.4512 18.7012-6.86035Q24.2676-1.26953 31.543 1.85547Q38.8184 4.98047 47.0703 4.98047ZM47.0703-4.58984Q40.7227-4.58984 35.1562-6.95801Q29.5898-9.32617 25.3906-13.5254Q21.1914-17.7246 18.8232-23.291Q16.4551-28.8574 16.4551-35.2539Q16.4551-41.6016 18.8232-47.168Q21.1914-52.7344 25.3662-56.9336Q29.541-61.1328 35.1074-63.5254Q40.6738-65.918 47.0215-65.918Q53.418-65.918 58.9844-63.5254Q64.5508-61.1328 68.75-56.9336Q72.9492-52.7344 75.3418-47.168Q77.7344-41.6016 77.7344-35.2539Q77.7344-28.8574 75.3662-23.291Q72.998-17.7246 68.7988-13.5254Q64.5996-9.32617 59.0332-6.95801Q53.4668-4.58984 47.0703-4.58984ZM30.3711-35.2051Q30.3711-33.3984 31.543-32.2021Q32.7148-31.0059 34.6191-31.0059L42.8223-31.0059L42.8223-22.8027Q42.8223-20.9473 43.9941-19.7754Q45.166-18.6035 46.9727-18.6035Q48.8281-18.6035 50.0244-19.7754Q51.2207-20.9473 51.2207-22.8027L51.2207-31.0059L59.4727-31.0059Q61.3281-31.0059 62.5-32.2021Q63.6719-33.3984 63.6719-35.2051Q63.6719-37.0605 62.5-38.2568Q61.3281-39.4531 59.4727-39.4531L51.2207-39.4531L51.2207-47.6562Q51.2207-49.5605 50.0244-50.7324Q48.8281-51.9043 46.9727-51.9043Q45.166-51.9043 43.9941-50.7324Q42.8223-49.5605 42.8223-47.6562L42.8223-39.4531L34.6191-39.4531Q32.7148-39.4531 31.543-38.2568Q30.3711-37.0605 30.3711-35.2051Z"/>
  </g>
  <g id="Medium-S" transform="matrix(1 0 0 1 1699.83 696)">
   <path d="M46.7285 4.63867Q54.9316 4.63867 62.1338 1.51367Q69.3359-1.61133 74.8535-7.12891Q80.3711-12.6465 83.4961-19.8486Q86.6211-27.0508 86.6211-35.2539Q86.6211-43.4082 83.4961-50.6348Q80.3711-57.8613 74.8291-63.3789Q69.2871-68.8965 62.085-71.9971Q54.8828-75.0977 46.6797-75.0977Q38.4766-75.0977 31.2744-71.9971Q24.0723-68.8965 18.5791-63.3789Q13.0859-57.8613 9.96094-50.6348Q6.83594-43.4082 6.83594-35.2539Q6.83594-27.0508 9.96094-19.8486Q13.0859-12.6465 18.6035-7.12891Q24.1211-1.61133 31.3232 1.51367Q38.5254 4.63867 46.7285 4.63867ZM46.7285-4.00391Q40.2344-4.00391 34.5703-6.4209Q28.9062-8.83789 24.6338-13.1348Q20.3613-17.4316 17.9443-23.0957Q15.5273-28.7598 15.5273-35.2539Q15.5273-41.748 17.9199-47.4121Q20.3125-53.0762 24.585-57.373Q28.8574-61.6699 34.5215-64.0869Q40.1855-66.5039 46.6797-66.5039Q53.1738-66.5039 58.8379-64.0869Q64.502-61.6699 68.7988-57.373Q73.0957-53.0762 75.5127-47.4121Q77.9297-41.748 77.9297-35.2539Q77.9297-28.7598 75.5127-23.0957Q73.0957-17.4316 68.8477-13.1348Q64.5996-8.83789 58.9111-6.4209Q53.2227-4.00391 46.7285-4.00391ZM29.8828-35.2051Q29.8828-33.4473 30.9814-32.3486Q32.0801-31.25 33.8867-31.25L42.7246-31.25L42.7246-22.4121Q42.7246-20.6543 43.8232-19.5557Q44.9219-18.457 46.6309-18.457Q48.4375-18.457 49.5605-19.5557Q50.6836-20.6543 50.6836-22.4121L50.6836-31.25L59.5215-31.25Q61.2793-31.25 62.3779-32.3486Q63.4766-33.4473 63.4766-35.2051Q63.4766-36.9629 62.3779-38.0859Q61.2793-39.209 59.5215-39.209L50.6836-39.209L50.6836-47.998Q50.6836-49.8047 49.5605-50.9277Q48.4375-52.0508 46.6309-52.0508Q44.9219-52.0508 43.8232-50.9277Q42.7246-49.8047 42.7246-47.998L42.7246-39.209L33.8867-39.209Q32.0801-39.209 30.9814-38.0859Q29.8828-36.9629 29.8828-35.2051Z"/>
  </g>
  <g id="Regular-S" transform="matrix(1 0 0 1 1403.58 696)">
   <path d="M46.2402 4.15039Q54.3457 4.15039 61.4746 1.07422Q68.6035-2.00195 74.0479-7.4707Q79.4922-12.9395 82.5928-20.0684Q85.6934-27.1973 85.6934-35.2539Q85.6934-43.3105 82.5928-50.4395Q79.4922-57.5684 74.0234-63.0371Q68.5547-68.5059 61.4258-71.582Q54.2969-74.6582 46.1914-74.6582Q38.1348-74.6582 31.0059-71.582Q23.877-68.5059 18.457-63.0371Q13.0371-57.5684 9.93652-50.4395Q6.83594-43.3105 6.83594-35.2539Q6.83594-27.1973 9.93652-20.0684Q13.0371-12.9395 18.4814-7.4707Q23.9258-2.00195 31.0547 1.07422Q38.1836 4.15039 46.2402 4.15039ZM46.2402-3.27148Q39.5996-3.27148 33.8135-5.7373Q28.0273-8.20312 23.6572-12.5977Q19.2871-16.9922 16.8213-22.8027Q14.3555-28.6133 14.3555-35.2539Q14.3555-41.8945 16.7969-47.7051Q19.2383-53.5156 23.6084-57.9102Q27.9785-62.3047 33.7646-64.7705Q39.5508-67.2363 46.1914-67.2363Q52.8809-67.2363 58.667-64.7705Q64.4531-62.3047 68.8477-57.9102Q73.2422-53.5156 75.7324-47.7051Q78.2227-41.8945 78.2227-35.2539Q78.2227-28.6133 75.7568-22.8027Q73.291-16.9922 68.9209-12.5977Q64.5508-8.20312 58.7402-5.7373Q52.9297-3.27148 46.2402-3.27148ZM29.1992-35.2051Q29.1992-33.5938 30.2246-32.5928Q31.25-31.5918 32.959-31.5918L42.5293-31.5918L42.5293-21.9727Q42.5293-20.3125 43.5303-19.2871Q44.5312-18.2617 46.1426-18.2617Q47.8027-18.2617 48.8281-19.2871Q49.8535-20.3125 49.8535-21.9727L49.8535-31.5918L59.4727-31.5918Q61.1328-31.5918 62.1582-32.5928Q63.1836-33.5938 63.1836-35.2051Q63.1836-36.8652 62.1582-37.8906Q61.1328-38.916 59.4727-38.916L49.8535-38.916L49.8535-48.4863Q49.8535-50.1953 48.8281-51.2207Q47.8027-52.2461 46.1426-52.2461Q44.5312-52.2461 43.5303-51.2207Q42.5293-50.1953 42.5293-48.4863L42.5293-38.916L32.959-38.916Q31.25-38.916 30.2246-37.8906Q29.1992-36.8652 29.1992-35.2051Z"/>
  </g>
  <g id="Light-S" transform="matrix(1 0 0 1 1107.6 696)">
   <path d="M45.5078 3.41797Q53.4668 3.41797 60.4736 0.415039Q67.4805-2.58789 72.8271-7.95898Q78.1738-13.3301 81.2012-20.3125Q84.2285-27.2949 84.2285-35.2539Q84.2285-43.2129 81.2012-50.1953Q78.1738-57.1777 72.8027-62.5488Q67.4316-67.9199 60.4492-70.9229Q53.4668-73.9258 45.459-73.9258Q37.5488-73.9258 30.542-70.9229Q23.5352-67.9199 18.2129-62.5488Q12.8906-57.1777 9.86328-50.1953Q6.83594-43.2129 6.83594-35.2539Q6.83594-27.2949 9.86328-20.3125Q12.8906-13.3301 18.2373-7.95898Q23.584-2.58789 30.5908 0.415039Q37.5977 3.41797 45.5078 3.41797ZM45.5078-2.29492Q38.6719-2.29492 32.6904-4.83398Q26.709-7.37305 22.1924-11.9141Q17.6758-16.4551 15.1367-22.4365Q12.5977-28.418 12.5977-35.2539Q12.5977-42.0898 15.1367-48.0713Q17.6758-54.0527 22.1924-58.5938Q26.709-63.1348 32.666-65.6738Q38.623-68.2129 45.459-68.2129Q52.3438-68.2129 58.3252-65.6738Q64.3066-63.1348 68.8232-58.5938Q73.3398-54.0527 75.9277-48.0713Q78.5156-42.0898 78.5156-35.2539Q78.5156-28.418 75.9521-22.4365Q73.3887-16.4551 68.8721-11.9141Q64.3555-7.37305 58.374-4.83398Q52.3926-2.29492 45.5078-2.29492ZM28.7109-35.2051Q28.7109-33.9844 29.5166-33.2031Q30.3223-32.4219 31.5918-32.4219L42.627-32.4219L42.627-21.3867Q42.627-20.1172 43.4082-19.3115Q44.1895-18.5059 45.4102-18.5059Q46.6797-18.5059 47.4854-19.3115Q48.291-20.1172 48.291-21.3867L48.291-32.4219L59.3262-32.4219Q60.5957-32.4219 61.4014-33.2031Q62.207-33.9844 62.207-35.2051Q62.207-36.4746 61.4014-37.2803Q60.5957-38.0859 59.3262-38.0859L48.291-38.0859L48.291-49.1211Q48.291-50.3906 47.4854-51.1963Q46.6797-52.002 45.4102-52.002Q44.1895-52.002 43.4082-51.1963Q42.627-50.3906 42.627-49.1211L42.627-38.0859L31.5918-38.0859Q30.2734-38.0859 29.4922-37.2803Q28.7109-36.4746 28.7109-35.2051Z"/>
  </g>
  <g id="Thin-S" transform="matrix(1 0 0 1 811.867 696)">
   <path d="M44.5312 2.44141Q52.3438 2.44141 59.1553-0.488281Q65.9668-3.41797 71.1914-8.64258Q76.416-13.8672 79.3457-20.6787Q82.2754-27.4902 82.2754-35.2539Q82.2754-43.0176 79.3457-49.8291Q76.416-56.6406 71.1914-61.8652Q65.9668-67.0898 59.1553-70.0195Q52.3438-72.9492 44.5312-72.9492Q36.7676-72.9492 29.9316-70.0195Q23.0957-67.0898 17.9199-61.8652Q12.7441-56.6406 9.79004-49.8291Q6.83594-43.0176 6.83594-35.2539Q6.83594-27.4902 9.79004-20.6787Q12.7441-13.8672 17.9199-8.64258Q23.0957-3.41797 29.9316-0.488281Q36.7676 2.44141 44.5312 2.44141ZM44.5312-0.927734Q37.4512-0.927734 31.2256-3.58887Q25-6.25 20.2881-10.9619Q15.5762-15.6738 12.915-21.9238Q10.2539-28.1738 10.2539-35.2539Q10.2539-42.334 12.915-48.584Q15.5762-54.834 20.2881-59.5459Q25-64.2578 31.2256-66.9189Q37.4512-69.5801 44.5312-69.5801Q51.6602-69.5801 57.8857-66.9189Q64.1113-64.2578 68.8232-59.5459Q73.5352-54.834 76.1963-48.584Q78.8574-42.334 78.8574-35.2539Q78.8574-28.1738 76.1963-21.9238Q73.5352-15.6738 68.8232-10.9619Q64.1113-6.25 57.8857-3.58887Q51.6602-0.927734 44.5312-0.927734ZM28.125-35.2539Q28.125-34.5703 28.6133-34.082Q29.1016-33.5938 29.8828-33.5938L42.8223-33.5938L42.8223-20.6055Q42.8223-19.873 43.3105-19.3848Q43.7988-18.8965 44.4824-18.8965Q45.2637-18.8965 45.752-19.3848Q46.2402-19.873 46.2402-20.6055L46.2402-33.5938L59.2285-33.5938Q59.9609-33.5938 60.4492-34.082Q60.9375-34.5703 60.9375-35.2539Q60.9375-35.9863 60.4736-36.499Q60.0098-37.0117 59.2285-37.0117L46.2402-37.0117L46.2402-50Q46.2402-50.7324 45.752-51.2207Q45.2637-51.709 44.4824-51.709Q43.7988-51.709 43.3105-51.2207Q42.8223-50.7324 42.8223-50L42.8223-37.0117L29.8828-37.0117Q29.1016-37.0117 28.6133-36.499Q28.125-35.9863 28.125-35.2539Z"/>
  </g>
  <g id="Ultralight-S" transform="matrix(1 0 0 1 515.644 696)">
   <path d="M44.043 1.95312Q51.7578 1.95312 58.4717-0.927734Q65.1855-3.80859 70.3369-8.95996Q75.4883-14.1113 78.3936-20.8252Q81.2988-27.5391 81.2988-35.2539Q81.2988-42.9688 78.3936-49.6826Q75.4883-56.3965 70.3369-61.5479Q65.1855-66.6992 58.4717-69.5801Q51.7578-72.4609 44.043-72.4609Q36.377-72.4609 29.6387-69.5801Q22.9004-66.6992 17.7734-61.5479Q12.6465-56.3965 9.74121-49.6826Q6.83594-42.9688 6.83594-35.2539Q6.83594-27.5391 9.74121-20.8252Q12.6465-14.1113 17.7734-8.95996Q22.9004-3.80859 29.6387-0.927734Q36.377 1.95312 44.043 1.95312ZM44.043-0.292969Q36.8164-0.292969 30.4688-3.00293Q24.1211-5.71289 19.3115-10.5225Q14.502-15.332 11.7676-21.6797Q9.0332-28.0273 9.0332-35.2539Q9.0332-42.4805 11.7676-48.8281Q14.502-55.1758 19.3115-59.9854Q24.1211-64.7949 30.4688-67.5049Q36.8164-70.2148 44.043-70.2148Q51.2695-70.2148 57.6416-67.5049Q64.0137-64.7949 68.7988-59.9854Q73.584-55.1758 76.3184-48.8281Q79.0527-42.4805 79.0527-35.2539Q79.0527-28.0273 76.3428-21.6797Q73.6328-15.332 68.8232-10.5225Q64.0137-5.71289 57.666-3.00293Q51.3184-0.292969 44.043-0.292969ZM27.7832-35.2539Q27.7832-34.8145 28.125-34.4727Q28.4668-34.1309 28.9551-34.1309L42.8711-34.1309L42.8711-20.2148Q42.8711-19.7266 43.2129-19.3848Q43.5547-19.043 43.9941-19.043Q44.4824-19.043 44.8242-19.3848Q45.166-19.7266 45.166-20.2148L45.166-34.1309L59.1309-34.1309Q59.5703-34.1309 59.9121-34.4727Q60.2539-34.8145 60.2539-35.2539Q60.2539-35.7422 59.9365-36.1084Q59.6191-36.4746 59.1309-36.4746L45.166-36.4746L45.166-50.3906Q45.166-50.8789 44.8242-51.2207Q44.4824-51.5625 43.9941-51.5625Q43.5547-51.5625 43.2129-51.2207Q42.8711-50.8789 42.8711-50.3906L42.8711-36.4746L28.9551-36.4746Q28.418-36.4746 28.1006-36.1084Q27.7832-35.7422 27.7832-35.2539Z"/>
  </g>
 </g>
</svg>
