<?xml version="1.0" encoding="UTF-8"?>
<!--Generator: Apple Native CoreSVG 149-->
<!DOCTYPE svg
PUBLIC "-//W3C//DTD SVG 1.1//EN"
       "http://www.w3.org/Graphics/SVG/1.1/DTD/svg11.dtd">
<svg version="1.1" xmlns="http://www.w3.org/2000/svg" xmlns:xlink="http://www.w3.org/1999/xlink" width="3300" height="2200">
 <!--glyph: "uni10046C.medium", point size: 100.0, font version: "17.0d9e1", template writer version: "59"-->
 <g id="Notes">
  <rect height="2200" id="artboard" style="fill:white;opacity:1" width="3300" x="0" y="0"/>
  <line style="fill:none;stroke:black;opacity:1;stroke-width:0.5;" x1="263" x2="3036" y1="292" y2="292"/>
  <text style="stroke:none;fill:black;font-family:sans-serif;font-size:13;font-weight:bold;" transform="matrix(1 0 0 1 263 322)">Weight/Scale Variations</text>
  <text style="stroke:none;fill:black;font-family:sans-serif;font-size:13;text-anchor:middle;" transform="matrix(1 0 0 1 559.711 322)">Ultralight</text>
  <text style="stroke:none;fill:black;font-family:sans-serif;font-size:13;text-anchor:middle;" transform="matrix(1 0 0 1 856.422 322)">Thin</text>
  <text style="stroke:none;fill:black;font-family:sans-serif;font-size:13;text-anchor:middle;" transform="matrix(1 0 0 1 1153.13 322)">Light</text>
  <text style="stroke:none;fill:black;font-family:sans-serif;font-size:13;text-anchor:middle;" transform="matrix(1 0 0 1 1449.84 322)">Regular</text>
  <text style="stroke:none;fill:black;font-family:sans-serif;font-size:13;text-anchor:middle;" transform="matrix(1 0 0 1 1746.56 322)">Medium</text>
  <text style="stroke:none;fill:black;font-family:sans-serif;font-size:13;text-anchor:middle;" transform="matrix(1 0 0 1 2043.27 322)">Semibold</text>
  <text style="stroke:none;fill:black;font-family:sans-serif;font-size:13;text-anchor:middle;" transform="matrix(1 0 0 1 2339.98 322)">Bold</text>
  <text style="stroke:none;fill:black;font-family:sans-serif;font-size:13;text-anchor:middle;" transform="matrix(1 0 0 1 2636.69 322)">Heavy</text>
  <text style="stroke:none;fill:black;font-family:sans-serif;font-size:13;text-anchor:middle;" transform="matrix(1 0 0 1 2933.4 322)">Black</text>
  <line style="fill:none;stroke:black;opacity:1;stroke-width:0.5;" x1="263" x2="3036" y1="1903" y2="1903"/>
  <g transform="matrix(1 0 0 1 263 1933)">
   <path d="M9.24805 0.830078Q10.8691 0.830078 12.2949 0.214844Q13.7207-0.400391 14.8096-1.49414Q15.8984-2.58789 16.5186-4.01367Q17.1387-5.43945 17.1387-7.05078Q17.1387-8.66211 16.5186-10.0879Q15.8984-11.5137 14.8047-12.6074Q13.7109-13.7012 12.2852-14.3164Q10.8594-14.9316 9.23828-14.9316Q7.62695-14.9316 6.20117-14.3164Q4.77539-13.7012 3.69141-12.6074Q2.60742-11.5137 1.9873-10.0879Q1.36719-8.66211 1.36719-7.05078Q1.36719-5.43945 1.9873-4.01367Q2.60742-2.58789 3.69629-1.49414Q4.78516-0.400391 6.21094 0.214844Q7.63672 0.830078 9.24805 0.830078ZM9.24805-0.654297Q7.91992-0.654297 6.7627-1.14746Q5.60547-1.64062 4.73145-2.51953Q3.85742-3.39844 3.36426-4.56055Q2.87109-5.72266 2.87109-7.05078Q2.87109-8.37891 3.35938-9.54102Q3.84766-10.7031 4.72168-11.582Q5.5957-12.4609 6.75293-12.9541Q7.91016-13.4473 9.23828-13.4473Q10.5762-13.4473 11.7334-12.9541Q12.8906-12.4609 13.7695-11.582Q14.6484-10.7031 15.1465-9.54102Q15.6445-8.37891 15.6445-7.05078Q15.6445-5.72266 15.1514-4.56055Q14.6582-3.39844 13.7842-2.51953Q12.9102-1.64062 11.748-1.14746Q10.5859-0.654297 9.24805-0.654297ZM5.83984-7.04102Q5.83984-6.71875 6.04492-6.51855Q6.25-6.31836 6.5918-6.31836L8.50586-6.31836L8.50586-4.39453Q8.50586-4.0625 8.70605-3.85742Q8.90625-3.65234 9.22852-3.65234Q9.56055-3.65234 9.76562-3.85742Q9.9707-4.0625 9.9707-4.39453L9.9707-6.31836L11.8945-6.31836Q12.2266-6.31836 12.4316-6.51855Q12.6367-6.71875 12.6367-7.04102Q12.6367-7.37305 12.4316-7.57812Q12.2266-7.7832 11.8945-7.7832L9.9707-7.7832L9.9707-9.69727Q9.9707-10.0391 9.76562-10.2441Q9.56055-10.4492 9.22852-10.4492Q8.90625-10.4492 8.70605-10.2441Q8.50586-10.0391 8.50586-9.69727L8.50586-7.7832L6.5918-7.7832Q6.25-7.7832 6.04492-7.57812Q5.83984-7.37305 5.83984-7.04102Z"/>
  </g>
  <g transform="matrix(1 0 0 1 281.867 1933)">
   <path d="M11.709 2.91016Q13.75 2.91016 15.5518 2.12891Q17.3535 1.34766 18.7305-0.0292969Q20.1074-1.40625 20.8887-3.20801Q21.6699-5.00977 21.6699-7.05078Q21.6699-9.0918 20.8887-10.8936Q20.1074-12.6953 18.7305-14.0723Q17.3535-15.4492 15.5469-16.2305Q13.7402-17.0117 11.6992-17.0117Q9.6582-17.0117 7.85645-16.2305Q6.05469-15.4492 4.68262-14.0723Q3.31055-12.6953 2.5293-10.8936Q1.74805-9.0918 1.74805-7.05078Q1.74805-5.00977 2.5293-3.20801Q3.31055-1.40625 4.6875-0.0292969Q6.06445 1.34766 7.86621 2.12891Q9.66797 2.91016 11.709 2.91016ZM11.709 1.25Q9.98047 1.25 8.47656 0.605469Q6.97266-0.0390625 5.83496-1.17676Q4.69727-2.31445 4.05762-3.81836Q3.41797-5.32227 3.41797-7.05078Q3.41797-8.7793 4.05762-10.2832Q4.69727-11.7871 5.83008-12.9297Q6.96289-14.0723 8.4668-14.7119Q9.9707-15.3516 11.6992-15.3516Q13.4277-15.3516 14.9316-14.7119Q16.4355-14.0723 17.5781-12.9297Q18.7207-11.7871 19.3652-10.2832Q20.0098-8.7793 20.0098-7.05078Q20.0098-5.32227 19.3701-3.81836Q18.7305-2.31445 17.5928-1.17676Q16.4551-0.0390625 14.9463 0.605469Q13.4375 1.25 11.709 1.25ZM7.39258-7.04102Q7.39258-6.68945 7.62695-6.46484Q7.86133-6.24023 8.23242-6.24023L10.8789-6.24023L10.8789-3.57422Q10.8789-3.21289 11.1035-2.9834Q11.3281-2.75391 11.6797-2.75391Q12.0508-2.75391 12.2852-2.9834Q12.5195-3.21289 12.5195-3.57422L12.5195-6.24023L15.1758-6.24023Q15.5371-6.24023 15.7715-6.46484Q16.0059-6.68945 16.0059-7.04102Q16.0059-7.41211 15.7715-7.6416Q15.5371-7.87109 15.1758-7.87109L12.5195-7.87109L12.5195-10.5176Q12.5195-10.8984 12.2852-11.1279Q12.0508-11.3574 11.6797-11.3574Q11.3281-11.3574 11.1035-11.1279Q10.8789-10.8984 10.8789-10.5176L10.8789-7.87109L8.23242-7.87109Q7.85156-7.87109 7.62207-7.6416Q7.39258-7.41211 7.39258-7.04102Z"/>
  </g>
  <g transform="matrix(1 0 0 1 305.646 1933)">
   <path d="M14.9707 5.66406Q17.0605 5.66406 18.96 5.01465Q20.8594 4.36523 22.4512 3.19336Q24.043 2.02148 25.2197 0.429688Q26.3965-1.16211 27.0459-3.06641Q27.6953-4.9707 27.6953-7.05078Q27.6953-9.14062 27.0459-11.04Q26.3965-12.9395 25.2197-14.5312Q24.043-16.123 22.4512-17.2998Q20.8594-18.4766 18.9551-19.126Q17.0508-19.7754 14.9609-19.7754Q12.8711-19.7754 10.9717-19.126Q9.07227-18.4766 7.48535-17.2998Q5.89844-16.123 4.72168-14.5312Q3.54492-12.9395 2.90039-11.04Q2.25586-9.14062 2.25586-7.05078Q2.25586-4.9707 2.90527-3.06641Q3.55469-1.16211 4.72656 0.429688Q5.89844 2.02148 7.49023 3.19336Q9.08203 4.36523 10.9814 5.01465Q12.8809 5.66406 14.9707 5.66406ZM14.9707 3.84766Q13.1641 3.84766 11.5283 3.2959Q9.89258 2.74414 8.53516 1.74805Q7.17773 0.751953 6.17676-0.610352Q5.17578-1.97266 4.62891-3.6084Q4.08203-5.24414 4.08203-7.05078Q4.08203-8.86719 4.62891-10.5029Q5.17578-12.1387 6.17188-13.501Q7.16797-14.8633 8.52539-15.8594Q9.88281-16.8555 11.5186-17.4023Q13.1543-17.9492 14.9609-17.9492Q16.7773-17.9492 18.4131-17.4023Q20.0488-16.8555 21.4111-15.8594Q22.7734-14.8633 23.7695-13.501Q24.7656-12.1387 25.3174-10.5029Q25.8691-8.86719 25.8691-7.05078Q25.8789-5.24414 25.332-3.6084Q24.7852-1.97266 23.7842-0.610352Q22.7832 0.751953 21.4209 1.74805Q20.0586 2.74414 18.4229 3.2959Q16.7871 3.84766 14.9707 3.84766ZM9.45312-7.04102Q9.45312-6.66016 9.71191-6.41113Q9.9707-6.16211 10.3711-6.16211L14.0625-6.16211L14.0625-2.46094Q14.0625-2.06055 14.3115-1.80664Q14.5605-1.55273 14.9414-1.55273Q15.3516-1.55273 15.6055-1.80664Q15.8594-2.06055 15.8594-2.46094L15.8594-6.16211L19.5605-6.16211Q19.9609-6.16211 20.2148-6.41113Q20.4688-6.66016 20.4688-7.04102Q20.4688-7.45117 20.2148-7.70508Q19.9609-7.95898 19.5605-7.95898L15.8594-7.95898L15.8594-11.6504Q15.8594-12.0605 15.6055-12.3145Q15.3516-12.5684 14.9414-12.5684Q14.5605-12.5684 14.3115-12.3096Q14.0625-12.0508 14.0625-11.6504L14.0625-7.95898L10.3711-7.95898Q9.96094-7.95898 9.70703-7.70508Q9.45312-7.45117 9.45312-7.04102Z"/>
  </g>
  <text style="stroke:none;fill:black;font-family:sans-serif;font-size:13;font-weight:bold;" transform="matrix(1 0 0 1 263 1953)">Design Variations</text>
  <text style="stroke:none;fill:black;font-family:sans-serif;font-size:13;" transform="matrix(1 0 0 1 263 1971)">Symbols are supported in up to nine weights and three scales.</text>
  <text style="stroke:none;fill:black;font-family:sans-serif;font-size:13;" transform="matrix(1 0 0 1 263 1989)">For optimal layout with text and other symbols, vertically align</text>
  <text style="stroke:none;fill:black;font-family:sans-serif;font-size:13;" transform="matrix(1 0 0 1 263 2007)">symbols with the adjacent text.</text>
  <line style="fill:none;stroke:#00AEEF;stroke-width:0.5;opacity:1.0;" x1="776" x2="776" y1="1919" y2="1933"/>
  <g transform="matrix(1 0 0 1 776 1933)">
   <path d="M3.31055 0.15625Q3.70117 0.15625 3.91602-0.00976562Q4.13086-0.175781 4.26758-0.585938L5.52734-4.0332L11.2891-4.0332L12.5488-0.585938Q12.6855-0.175781 12.9004-0.00976562Q13.1152 0.15625 13.4961 0.15625Q13.8867 0.15625 14.1162-0.0585938Q14.3457-0.273438 14.3457-0.644531Q14.3457-0.869141 14.2383-1.17188L9.6582-13.3691Q9.48242-13.8184 9.17969-14.043Q8.87695-14.2676 8.4082-14.2676Q7.5-14.2676 7.17773-13.3789L2.59766-1.16211Q2.49023-0.859375 2.49023-0.634766Q2.49023-0.263672 2.70996-0.0537109Q2.92969 0.15625 3.31055 0.15625ZM6.00586-5.51758L8.37891-12.0898L8.42773-12.0898L10.8008-5.51758Z"/>
  </g>
  <line style="fill:none;stroke:#00AEEF;stroke-width:0.5;opacity:1.0;" x1="793.197" x2="793.197" y1="1919" y2="1933"/>
  <text style="stroke:none;fill:black;font-family:sans-serif;font-size:13;font-weight:bold;" transform="matrix(1 0 0 1 776 1953)">Margins</text>
  <text style="stroke:none;fill:black;font-family:sans-serif;font-size:13;" transform="matrix(1 0 0 1 776 1971)">Leading and trailing margins on the left and right side of each symbol</text>
  <text style="stroke:none;fill:black;font-family:sans-serif;font-size:13;" transform="matrix(1 0 0 1 776 1989)">can be adjusted by modifying the x-location of the margin guidelines.</text>
  <text style="stroke:none;fill:black;font-family:sans-serif;font-size:13;" transform="matrix(1 0 0 1 776 2007)">Modifications are automatically applied proportionally to all</text>
  <text style="stroke:none;fill:black;font-family:sans-serif;font-size:13;" transform="matrix(1 0 0 1 776 2025)">scales and weights.</text>
  <g transform="matrix(1 0 0 1 1289 1933)">
   <path d="M2.8418 1.86523L4.54102 3.57422Q5.18555 4.22852 5.90332 4.17969Q6.62109 4.13086 7.31445 3.35938L18.0078-8.42773L17.041-9.4043L6.42578 2.27539Q6.16211 2.57812 5.89355 2.61719Q5.625 2.65625 5.27344 2.30469L4.10156 1.14258Q3.75 0.791016 3.79395 0.522461Q3.83789 0.253906 4.14062-0.0195312L15.6152-10.8203L14.6387-11.7871L3.04688-0.898438Q2.30469-0.214844 2.25098 0.498047Q2.19727 1.21094 2.8418 1.86523ZM9.25781-16.3281Q8.94531-16.0254 8.90625-15.6348Q8.86719-15.2441 9.04297-14.9512Q9.21875-14.6777 9.55566-14.541Q9.89258-14.4043 10.3809-14.5215Q11.4746-14.7754 12.5977-14.7314Q13.7207-14.6875 14.7949-13.9844L14.209-12.5293Q13.9551-11.9043 14.0674-11.4404Q14.1797-10.9766 14.5801-10.5664L16.875-8.25195Q17.2363-7.88086 17.5781-7.82227Q17.9199-7.76367 18.3398-7.8418L19.4043-8.03711L20.0684-7.36328L20.0293-6.80664Q20-6.43555 20.1221-6.12305Q20.2441-5.81055 20.6055-5.44922L21.3672-4.70703Q21.7285-4.3457 22.1533-4.33105Q22.5781-4.31641 22.9297-4.66797L25.8398-7.58789Q26.1914-7.93945 26.1816-8.35449Q26.1719-8.76953 25.8105-9.13086L25.0391-9.89258Q24.6875-10.2539 24.3799-10.3857Q24.0723-10.5176 23.7109-10.4883L23.1348-10.4395L22.4902-11.0742L22.7344-12.1973Q22.832-12.6172 22.6953-12.9834Q22.5586-13.3496 22.1191-13.7891L19.9219-15.9766Q18.6719-17.2168 17.2607-17.8369Q15.8496-18.457 14.4189-18.4814Q12.9883-18.5059 11.665-17.959Q10.3418-17.4121 9.25781-16.3281ZM10.752-15.957Q11.6602-16.6211 12.7002-16.9043Q13.7402-17.1875 14.8047-17.085Q15.8691-16.9824 16.8701-16.5137Q17.8711-16.0449 18.7012-15.2051L21.1328-12.793Q21.3086-12.6172 21.3525-12.4512Q21.3965-12.2852 21.3379-12.0312L21.0156-10.5469L22.5195-9.0625L23.5059-9.12109Q23.6914-9.13086 23.7891-9.09668Q23.8867-9.0625 24.0332-8.91602L24.6094-8.33984L22.168-5.89844L21.5918-6.47461Q21.4453-6.62109 21.4062-6.71875Q21.3672-6.81641 21.377-7.01172L21.4453-7.98828L19.9512-9.47266L18.4277-9.21875Q18.1836-9.16992 18.042-9.2041Q17.9004-9.23828 17.7148-9.41406L15.7129-11.416Q15.5176-11.5918 15.4932-11.7529Q15.4688-11.9141 15.5859-12.1875L16.4648-14.2773Q15.293-15.3711 13.8281-15.791Q12.3633-16.2109 10.8398-15.7617Q10.7227-15.7324 10.6885-15.8057Q10.6543-15.8789 10.752-15.957Z"/>
  </g>
  <text style="stroke:none;fill:black;font-family:sans-serif;font-size:13;font-weight:bold;" transform="matrix(1 0 0 1 1289 1953)">Exporting</text>
  <text style="stroke:none;fill:black;font-family:sans-serif;font-size:13;" transform="matrix(1 0 0 1 1289 1971)">Symbols should be outlined when exporting to ensure the</text>
  <text style="stroke:none;fill:black;font-family:sans-serif;font-size:13;" transform="matrix(1 0 0 1 1289 1989)">design is preserved when submitting to Xcode.</text>
  <text id="template-version" style="stroke:none;fill:black;font-family:sans-serif;font-size:13;text-anchor:end;" transform="matrix(1 0 0 1 3036 1933)">Template v.2.0</text>
  <text style="stroke:none;fill:black;font-family:sans-serif;font-size:13;text-anchor:end;" transform="matrix(1 0 0 1 3036 1951)">Requires Xcode 13 or greater</text>
  <text id="descriptive-name" style="stroke:none;fill:black;font-family:sans-serif;font-size:13;text-anchor:end;" transform="matrix(1 0 0 1 3036 1969)">Generated from music.note.list</text>
  <text style="stroke:none;fill:black;font-family:sans-serif;font-size:13;text-anchor:end;" transform="matrix(1 0 0 1 3036 1987)">Typeset at 100 points</text>
  <text style="stroke:none;fill:black;font-family:sans-serif;font-size:13;" transform="matrix(1 0 0 1 263 726)">Small</text>
  <text style="stroke:none;fill:black;font-family:sans-serif;font-size:13;" transform="matrix(1 0 0 1 263 1156)">Medium</text>
  <text style="stroke:none;fill:black;font-family:sans-serif;font-size:13;" transform="matrix(1 0 0 1 263 1586)">Large</text>
 </g>
 <g id="Guides">
  <g id="H-reference" style="fill:#27AAE1;stroke:none;" transform="matrix(1 0 0 1 339 696)">
   <path d="M0.976562 0L3.66211 0L29.3457-67.1387L30.0293-67.1387L30.0293-70.459L28.125-70.459ZM11.6699-24.4629L46.9727-24.4629L46.2402-26.709L12.4512-26.709ZM55.127 0L57.7637 0L30.6152-70.459L29.4434-70.459L29.4434-67.1387Z"/>
  </g>
  <line id="Baseline-S" style="fill:none;stroke:#27AAE1;opacity:1;stroke-width:0.5;" x1="263" x2="3036" y1="696" y2="696"/>
  <line id="Capline-S" style="fill:none;stroke:#27AAE1;opacity:1;stroke-width:0.5;" x1="263" x2="3036" y1="625.541" y2="625.541"/>
  <g id="H-reference" style="fill:#27AAE1;stroke:none;" transform="matrix(1 0 0 1 339 1126)">
   <path d="M0.976562 0L3.66211 0L29.3457-67.1387L30.0293-67.1387L30.0293-70.459L28.125-70.459ZM11.6699-24.4629L46.9727-24.4629L46.2402-26.709L12.4512-26.709ZM55.127 0L57.7637 0L30.6152-70.459L29.4434-70.459L29.4434-67.1387Z"/>
  </g>
  <line id="Baseline-M" style="fill:none;stroke:#27AAE1;opacity:1;stroke-width:0.5;" x1="263" x2="3036" y1="1126" y2="1126"/>
  <line id="Capline-M" style="fill:none;stroke:#27AAE1;opacity:1;stroke-width:0.5;" x1="263" x2="3036" y1="1055.54" y2="1055.54"/>
  <g id="H-reference" style="fill:#27AAE1;stroke:none;" transform="matrix(1 0 0 1 339 1556)">
   <path d="M0.976562 0L3.66211 0L29.3457-67.1387L30.0293-67.1387L30.0293-70.459L28.125-70.459ZM11.6699-24.4629L46.9727-24.4629L46.2402-26.709L12.4512-26.709ZM55.127 0L57.7637 0L30.6152-70.459L29.4434-70.459L29.4434-67.1387Z"/>
  </g>
  <line id="Baseline-L" style="fill:none;stroke:#27AAE1;opacity:1;stroke-width:0.5;" x1="263" x2="3036" y1="1556" y2="1556"/>
  <line id="Capline-L" style="fill:none;stroke:#27AAE1;opacity:1;stroke-width:0.5;" x1="263" x2="3036" y1="1485.54" y2="1485.54"/>
  <line id="left-margin" style="fill:none;stroke:#00AEEF;stroke-width:0.5;opacity:1.0;" x1="1387.61" x2="1387.61" y1="1030.79" y2="1150.12"/>
  <line id="right-margin" style="fill:none;stroke:#00AEEF;stroke-width:0.5;opacity:1.0;" x1="1512.08" x2="1512.08" y1="1030.79" y2="1150.12"/>
 </g>
 <g id="Symbols">
  <g id="Black-L" transform="matrix(1 0 0 1 2849.64 1556)">
   <path d="M151.465-69.1406L151.465-92.5781Q151.465-96.5332 148.584-98.9014Q145.703-101.27 141.846-100.391L108.887-93.2129Q100.146-91.3574 100.146-83.7402L100.146-14.6973Q100.244-13.3301 99.7559-12.6465Q99.2676-11.9629 98.2422-11.7188L87.8906-9.57031Q77.2461-7.37305 71.8262-1.7334Q66.4062 3.90625 66.4062 12.5Q66.4062 18.4082 69.1162 22.876Q71.8262 27.3438 76.6602 29.834Q81.4941 32.3242 87.793 32.3242Q93.0664 32.3242 97.8516 30.3955Q102.637 28.4668 106.396 24.8291Q110.156 21.1914 112.329 16.0645Q114.502 10.9375 114.502 4.54102L114.502-53.6133Q114.502-55.0293 114.478-55.1025Q114.453-55.1758 115.869-55.5176L145.752-62.0605Q148.34-62.5977 149.902-64.5264Q151.465-66.4551 151.465-69.1406ZM21.7285-66.2598L75.7812-66.2598Q78.1738-66.2598 79.834-67.9443Q81.4941-69.6289 81.4941-71.9238Q81.4941-74.2676 79.834-75.9277Q78.1738-77.5879 75.7812-77.5879L21.7285-77.5879Q19.3848-77.5879 17.7246-75.9277Q16.0645-74.2676 16.0645-71.9238Q16.0645-69.6289 17.7246-67.9443Q19.3848-66.2598 21.7285-66.2598ZM21.7285-43.6523L75.7812-43.6523Q78.1738-43.6523 79.834-45.3369Q81.4941-47.0215 81.4941-49.3164Q81.4941-51.6602 79.834-53.3203Q78.1738-54.9805 75.7812-54.9805L21.7285-54.9805Q19.3848-54.9805 17.7246-53.3203Q16.0645-51.6602 16.0645-49.3164Q16.0645-47.0215 17.7246-45.3369Q19.3848-43.6523 21.7285-43.6523ZM21.7285-21.0938L75.7812-21.0938Q78.1738-21.0938 79.834-22.7539Q81.4941-24.4141 81.4941-26.709Q81.4941-29.0527 79.834-30.7129Q78.1738-32.373 75.7812-32.373L21.7285-32.373Q19.3848-32.373 17.7246-30.7129Q16.0645-29.0527 16.0645-26.709Q16.0645-24.4141 17.7246-22.7539Q19.3848-21.0938 21.7285-21.0938Z"/>
  </g>
  <g id="Heavy-L" transform="matrix(1 0 0 1 2553.95 1556)">
   <path d="M149.463-68.8965L149.463-92.2852Q149.463-95.8496 146.851-97.9736Q144.238-100.098 140.771-99.3164L108.154-92.2363Q100.146-90.5273 100.146-83.5449L100.146-14.4043Q100.293-12.793 99.6582-11.8896Q99.0234-10.9863 97.7051-10.6934L87.4512-8.54492Q77.0996-6.44531 71.9238-1.0498Q66.748 4.3457 66.748 12.5488Q66.748 18.2129 69.3359 22.4609Q71.9238 26.709 76.5381 29.1016Q81.1523 31.4941 87.207 31.4941Q92.041 31.4941 96.6064 29.6875Q101.172 27.8809 104.883 24.4141Q108.594 20.9473 110.767 15.918Q112.939 10.8887 112.939 4.44336L112.939-53.4668Q112.939-55.1758 113.11-55.4443Q113.281-55.7129 114.893-56.1035L144.336-62.5488Q146.631-63.0371 148.047-64.7461Q149.463-66.4551 149.463-68.8965ZM21.2891-66.0645L76.0742-66.0645Q78.2715-66.0645 79.7852-67.627Q81.2988-69.1895 81.2988-71.2891Q81.2988-73.4375 79.7852-74.9512Q78.2715-76.4648 76.0742-76.4648L21.2891-76.4648Q19.1406-76.4648 17.6025-74.9512Q16.0645-73.4375 16.0645-71.2891Q16.0645-69.1895 17.6025-67.627Q19.1406-66.0645 21.2891-66.0645ZM21.2891-43.6035L76.0742-43.6035Q78.2715-43.6035 79.7852-45.1416Q81.2988-46.6797 81.2988-48.8281Q81.2988-50.9766 79.7852-52.4902Q78.2715-54.0039 76.0742-54.0039L21.2891-54.0039Q19.1406-54.0039 17.6025-52.4902Q16.0645-50.9766 16.0645-48.8281Q16.0645-46.6797 17.5781-45.1416Q19.0918-43.6035 21.2891-43.6035ZM21.2891-21.1426L76.0742-21.1426Q78.2715-21.1426 79.7852-22.6807Q81.2988-24.2188 81.2988-26.3184Q81.2988-28.4668 79.7852-29.9805Q78.2715-31.4941 76.0742-31.4941L21.2891-31.4941Q19.1406-31.4941 17.6025-29.9805Q16.0645-28.4668 16.0645-26.3184Q16.0645-24.2188 17.5781-22.6807Q19.0918-21.1426 21.2891-21.1426Z"/>
  </g>
  <g id="Bold-L" transform="matrix(1 0 0 1 2258.36 1556)">
   <path d="M147.217-68.6035L147.217-91.9922Q147.217-95.1172 144.946-96.9727Q142.676-98.8281 139.6-98.1445L107.373-91.1133Q100.146-89.5996 100.146-83.3496L100.195-14.1113Q100.342-12.207 99.5361-11.0596Q98.7305-9.91211 97.1191-9.57031L86.9629-7.4707Q77.002-5.41992 72.0703-0.292969Q67.1387 4.83398 67.1387 12.6465Q67.1387 17.9688 69.6045 21.9971Q72.0703 26.0254 76.4404 28.2715Q80.8105 30.5176 86.5234 30.5176Q90.8691 30.5176 95.2148 28.8818Q99.5605 27.2461 103.198 23.9746Q106.836 20.7031 109.009 15.7959Q111.182 10.8887 111.182 4.29688L111.182-53.3203Q111.182-55.3223 111.572-55.835Q111.963-56.3477 113.867-56.7871L142.725-63.1348Q144.775-63.5742 145.996-65.0391Q147.217-66.5039 147.217-68.6035ZM20.752-65.918L76.3184-65.918Q78.3203-65.918 79.6875-67.3096Q81.0547-68.7012 81.0547-70.6055Q81.0547-72.5098 79.6875-73.877Q78.3203-75.2441 76.3184-75.2441L20.752-75.2441Q18.7988-75.2441 17.4316-73.877Q16.0645-72.5098 16.0645-70.6055Q16.0645-68.7012 17.4316-67.3096Q18.7988-65.918 20.752-65.918ZM20.752-43.5547L76.3184-43.5547Q78.3203-43.5547 79.6875-44.9463Q81.0547-46.3379 81.0547-48.2422Q81.0547-50.1953 79.6875-51.5381Q78.3203-52.8809 76.3184-52.8809L20.752-52.8809Q18.7988-52.8809 17.4316-51.5381Q16.0645-50.1953 16.0645-48.2422Q16.0645-46.3379 17.4316-44.9463Q18.7988-43.5547 20.752-43.5547ZM20.752-21.2402L76.3184-21.2402Q78.3203-21.2402 79.6875-22.6074Q81.0547-23.9746 81.0547-25.8789Q81.0547-27.832 79.6875-29.1992Q78.3203-30.5664 76.3184-30.5664L20.752-30.5664Q18.7988-30.5664 17.4316-29.1992Q16.0645-27.832 16.0645-25.8789Q16.0645-23.9746 17.4316-22.6074Q18.7988-21.2402 20.752-21.2402Z"/>
  </g>
  <g id="Semibold-L" transform="matrix(1 0 0 1 1962.43 1556)">
   <path d="M145.605-68.4082L145.605-91.748Q145.605-94.5801 143.555-96.2402Q141.504-97.9004 138.721-97.3145L106.738-90.332Q100.049-88.916 100.049-83.1543L100.146-13.8672Q100.293-11.7676 99.3652-10.4736Q98.4375-9.17969 96.6797-8.78906L86.5234-6.68945Q76.8066-4.6875 72.0703 0.244141Q67.334 5.17578 67.334 12.6953Q67.334 17.7734 69.7021 21.6309Q72.0703 25.4883 76.2939 27.6855Q80.5176 29.8828 86.0352 29.8828Q90.0391 29.8828 94.2139 28.3447Q98.3887 26.8066 101.978 23.6572Q105.566 20.5078 107.739 15.6738Q109.912 10.8398 109.912 4.19922L109.912-53.1738Q109.912-55.4199 110.449-56.1035Q110.986-56.7871 113.037-57.2266L141.553-63.4766Q143.408-63.916 144.507-65.21Q145.605-66.5039 145.605-68.4082ZM20.4102-65.7715L76.5625-65.7715Q78.3691-65.7715 79.6387-67.041Q80.9082-68.3105 80.9082-70.0684Q80.9082-71.875 79.6387-73.1445Q78.3691-74.4141 76.5625-74.4141L20.4102-74.4141Q18.6035-74.4141 17.334-73.1445Q16.0645-71.875 16.0645-70.0684Q16.0645-68.3105 17.334-67.041Q18.6035-65.7715 20.4102-65.7715ZM20.4102-43.5059L76.5625-43.5059Q78.3691-43.5059 79.6387-44.7754Q80.9082-46.0449 80.9082-47.8516Q80.9082-49.6094 79.6387-50.8545Q78.3691-52.0996 76.5625-52.0996L20.4102-52.0996Q18.6035-52.0996 17.334-50.8545Q16.0645-49.6094 16.0645-47.8516Q16.0645-46.0449 17.334-44.7754Q18.6035-43.5059 20.4102-43.5059ZM20.4102-21.2402L76.5625-21.2402Q78.3691-21.2402 79.6387-22.5098Q80.9082-23.7793 80.9082-25.5859Q80.9082-27.3438 79.6387-28.6133Q78.3691-29.8828 76.5625-29.8828L20.4102-29.8828Q18.6035-29.8828 17.334-28.6133Q16.0645-27.3438 16.0645-25.5859Q16.0645-23.7793 17.334-22.5098Q18.6035-21.2402 20.4102-21.2402Z"/>
  </g>
  <g id="Medium-L" transform="matrix(1 0 0 1 1666.31 1556)">
   <path d="M144.385-68.2617L144.385-91.5527Q144.385-94.1895 142.505-95.7031Q140.625-97.2168 138.086-96.7285L106.299-89.7461Q100.049-88.4277 100.049-83.0566L100.195-13.6719Q100.293-11.4258 99.292-10.0098Q98.291-8.59375 96.3379-8.20312L86.2793-6.10352Q76.7578-4.15039 72.1436 0.634766Q67.5293 5.41992 67.5293 12.7441Q67.5293 17.627 69.8242 21.3867Q72.1191 25.1465 76.2207 27.2461Q80.3223 29.3457 85.6445 29.3457Q89.4043 29.3457 93.4814 27.9053Q97.5586 26.4648 101.099 23.4375Q104.639 20.4102 106.812 15.625Q108.984 10.8398 108.984 4.15039L108.984-53.0762Q108.984-55.5176 109.644-56.2988Q110.303-57.0801 112.5-57.6172L140.723-63.7695Q142.383-64.1602 143.384-65.3564Q144.385-66.5527 144.385-68.2617ZM20.166-65.6738L76.709-65.6738Q78.418-65.6738 79.6143-66.8701Q80.8105-68.0664 80.8105-69.7266Q80.8105-71.3867 79.6143-72.5586Q78.418-73.7305 76.709-73.7305L20.166-73.7305Q18.457-73.7305 17.2607-72.5586Q16.0645-71.3867 16.0645-69.7266Q16.0645-68.0664 17.2607-66.8701Q18.457-65.6738 20.166-65.6738ZM20.166-43.5059L76.709-43.5059Q78.418-43.5059 79.6143-44.6777Q80.8105-45.8496 80.8105-47.5586Q80.8105-49.2188 79.6143-50.3662Q78.418-51.5137 76.709-51.5137L20.166-51.5137Q18.457-51.5137 17.2607-50.3662Q16.0645-49.2188 16.0645-47.5586Q16.0645-45.8496 17.2607-44.6777Q18.457-43.5059 20.166-43.5059ZM20.166-21.2891L76.709-21.2891Q78.418-21.2891 79.6143-22.4609Q80.8105-23.6328 80.8105-25.3418Q80.8105-27.002 79.6143-28.1738Q78.418-29.3457 76.709-29.3457L20.166-29.3457Q18.457-29.3457 17.2607-28.1738Q16.0645-27.002 16.0645-25.3418Q16.0645-23.6328 17.2607-22.4609Q18.457-21.2891 20.166-21.2891Z"/>
  </g>
  <g id="Regular-L" transform="matrix(1 0 0 1 1370.38 1556)">
   <path d="M142.871-68.0664L142.871-91.3574Q142.871-93.7012 141.211-95.0195Q139.551-96.3379 137.256-95.8984L105.762-89.0137Q100.049-87.793 100.049-82.9102L100.195-13.4766Q100.342-11.0352 99.2188-9.44824Q98.0957-7.86133 95.9473-7.42188L85.9375-5.32227Q76.6602-3.41797 72.2168 1.17188Q67.7734 5.76172 67.7734 12.793Q67.7734 17.4805 69.9951 21.0693Q72.2168 24.6582 76.1475 26.6846Q80.0781 28.7109 85.2051 28.7109Q88.623 28.7109 92.5293 27.3682Q96.4355 26.0254 99.9268 23.1201Q103.418 20.2148 105.615 15.5029Q107.812 10.791 107.812 4.05273L107.812-52.9785Q107.812-55.6152 108.594-56.5674Q109.375-57.5195 111.768-58.0566L139.648-64.1602Q141.113-64.502 141.992-65.5273Q142.871-66.5527 142.871-68.0664ZM19.7754-65.5273L76.9043-65.5273Q78.4668-65.5273 79.541-66.626Q80.6152-67.7246 80.6152-69.2383Q80.6152-70.752 79.541-71.8262Q78.4668-72.9004 76.9043-72.9004L19.7754-72.9004Q18.2617-72.9004 17.1631-71.8262Q16.0645-70.752 16.0645-69.2383Q16.0645-67.7246 17.1631-66.626Q18.2617-65.5273 19.7754-65.5273ZM19.7754-43.457L76.9043-43.457Q78.4668-43.457 79.541-44.5312Q80.6152-45.6055 80.6152-47.168Q80.6152-48.6816 79.541-49.7314Q78.4668-50.7812 76.9043-50.7812L19.7754-50.7812Q18.2617-50.7812 17.1631-49.7314Q16.0645-48.6816 16.0645-47.168Q16.0645-45.6055 17.1387-44.5312Q18.2129-43.457 19.7754-43.457ZM19.7754-21.3379L76.9043-21.3379Q78.4668-21.3379 79.541-22.4121Q80.6152-23.4863 80.6152-25.0488Q80.6152-26.5625 79.541-27.6367Q78.4668-28.7109 76.9043-28.7109L19.7754-28.7109Q18.2617-28.7109 17.1631-27.6367Q16.0645-26.5625 16.0645-25.0488Q16.0645-23.4863 17.1387-22.4121Q18.2129-21.3379 19.7754-21.3379Z"/>
  </g>
  <g id="Light-L" transform="matrix(1 0 0 1 1074.79 1556)">
   <path d="M140.625-67.5781L140.625-90.332Q140.625-92.4805 139.111-93.7012Q137.598-94.9219 135.449-94.4824L105.127-87.8906Q100.049-86.8164 100.049-82.373L100.293-13.8184Q100.391-11.1816 99.1211-9.47266Q97.8516-7.76367 95.5566-7.27539L85.5957-5.17578Q76.6113-3.32031 72.2656 1.07422Q67.9199 5.46875 67.9199 12.3047Q67.9199 16.7969 70.0684 20.2393Q72.2168 23.6816 75.9766 25.6348Q79.7363 27.5879 84.7168 27.5879Q88.0859 27.5879 91.8945 26.2939Q95.7031 25 99.0723 22.168Q102.441 19.3359 104.565 14.7705Q106.689 10.2051 106.689 3.61328L106.689-52.6367Q106.689-55.4199 107.568-56.5186Q108.447-57.6172 111.035-58.2031L137.695-64.0625Q139.062-64.3555 139.844-65.2832Q140.625-66.2109 140.625-67.5781ZM19.043-65.625L77.2461-65.625Q78.4668-65.625 79.3213-66.5039Q80.1758-67.3828 80.1758-68.5547Q80.1758-69.7754 79.3213-70.6299Q78.4668-71.4844 77.2461-71.4844L19.043-71.4844Q17.8223-71.4844 16.9434-70.6299Q16.0645-69.7754 16.0645-68.5547Q16.0645-67.3828 16.9434-66.5039Q17.8223-65.625 19.043-65.625ZM19.043-43.9941L77.2461-43.9941Q78.4668-43.9941 79.3213-44.8486Q80.1758-45.7031 80.1758-46.9238Q80.1758-48.1445 79.3213-48.9746Q78.4668-49.8047 77.2461-49.8047L19.043-49.8047Q17.8223-49.8047 16.9434-48.9746Q16.0645-48.1445 16.0645-46.9238Q16.0645-45.7031 16.9189-44.8486Q17.7734-43.9941 19.043-43.9941ZM19.043-22.3145L77.2461-22.3145Q78.4668-22.3145 79.3213-23.1689Q80.1758-24.0234 80.1758-25.2441Q80.1758-26.4648 79.3213-27.3193Q78.4668-28.1738 77.2461-28.1738L19.043-28.1738Q17.8223-28.1738 16.9434-27.3193Q16.0645-26.4648 16.0645-25.2441Q16.0645-24.0234 16.9189-23.1689Q17.7734-22.3145 19.043-22.3145Z"/>
  </g>
  <g id="Thin-L" transform="matrix(1 0 0 1 779.542 1556)">
   <path d="M137.695-66.8945L137.695-88.9648Q137.695-90.8691 136.353-91.9434Q135.01-93.0176 133.154-92.627L104.297-86.4258Q100.146-85.498 100.146-81.6895L100.488-14.3066Q100.488-11.4258 99.0479-9.52148Q97.6074-7.61719 95.0684-7.12891L85.1562-5.0293Q76.5625-3.22266 72.3877 0.927734Q68.2129 5.07812 68.2129 11.6211Q68.2129 15.918 70.2148 19.1895Q72.2168 22.4609 75.8057 24.2676Q79.3945 26.0742 84.1309 26.0742Q87.4023 26.0742 91.0645 24.8535Q94.7266 23.6328 97.9736 20.9229Q101.221 18.2129 103.247 13.7939Q105.273 9.375 105.273 2.97852L105.273-52.1484Q105.273-55.1758 106.299-56.4453Q107.324-57.7148 110.156-58.3496L135.156-63.8672Q136.328-64.1113 137.012-64.917Q137.695-65.7227 137.695-66.8945ZM18.0664-65.7715L77.6855-65.7715Q78.5156-65.7715 79.0771-66.333Q79.6387-66.8945 79.6387-67.6758Q79.6387-68.457 79.0771-69.0186Q78.5156-69.5801 77.6855-69.5801L18.0664-69.5801Q17.2852-69.5801 16.6992-69.0186Q16.1133-68.457 16.1133-67.6758Q16.1133-66.8945 16.6992-66.333Q17.2852-65.7715 18.0664-65.7715ZM18.0664-44.7266L77.6855-44.7266Q78.5156-44.7266 79.0771-45.2637Q79.6387-45.8008 79.6387-46.582Q79.6387-47.3633 79.0771-47.9248Q78.5156-48.4863 77.6855-48.4863L18.0664-48.4863Q17.2852-48.4863 16.6992-47.9248Q16.1133-47.3633 16.1133-46.582Q16.1133-45.8008 16.6748-45.2637Q17.2363-44.7266 18.0664-44.7266ZM18.0664-23.6816L77.6855-23.6816Q78.5156-23.6816 79.0771-24.2188Q79.6387-24.7559 79.6387-25.5371Q79.6387-26.3184 79.0771-26.8555Q78.5156-27.3926 77.6855-27.3926L18.0664-27.3926Q17.2852-27.3926 16.6992-26.8555Q16.1133-26.3184 16.1133-25.5371Q16.1133-24.7559 16.6748-24.2188Q17.2363-23.6816 18.0664-23.6816Z"/>
  </g>
  <g id="Ultralight-L" transform="matrix(1 0 0 1 483.588 1556)">
   <path d="M136.133-66.5527L136.133-88.2812Q136.133-90.0879 134.912-91.0645Q133.691-92.041 131.934-91.6992L103.857-85.6445Q100.146-84.8633 100.146-81.2988L100.586-14.5508Q100.537-11.5234 98.999-9.52148Q97.4609-7.51953 94.7754-7.03125L84.9121-4.93164Q76.5137-3.17383 72.4121 0.830078Q68.3105 4.83398 68.3105 11.2793Q68.3105 15.4297 70.2637 18.6035Q72.2168 21.7773 75.6836 23.5352Q79.1504 25.293 83.7891 25.293Q87.0605 25.293 90.6494 24.1211Q94.2383 22.9492 97.3877 20.2881Q100.537 17.627 102.515 13.3057Q104.492 8.98438 104.492 2.68555L104.492-51.9043Q104.492-55.0293 105.591-56.4209Q106.689-57.8125 109.668-58.4473L133.838-63.8184Q134.961-64.0137 135.547-64.7461Q136.133-65.4785 136.133-66.5527ZM17.5293-65.8691L77.8809-65.8691Q78.5156-65.8691 78.9307-66.2842Q79.3457-66.6992 79.3457-67.2363Q79.3457-67.8223 78.9307-68.2129Q78.5156-68.6035 77.8809-68.6035L17.5293-68.6035Q16.9434-68.6035 16.5283-68.2129Q16.1133-67.8223 16.1133-67.2363Q16.1133-66.6992 16.5283-66.2842Q16.9434-65.8691 17.5293-65.8691ZM17.5293-45.0684L77.8809-45.0684Q78.5156-45.0684 78.9307-45.4834Q79.3457-45.8984 79.3457-46.4355Q79.3457-47.0215 78.9307-47.4365Q78.5156-47.8516 77.8809-47.8516L17.5293-47.8516Q16.9434-47.8516 16.5283-47.4365Q16.1133-47.0215 16.1133-46.4355Q16.1133-45.8984 16.5283-45.4834Q16.9434-45.0684 17.5293-45.0684ZM17.5293-24.3164L77.8809-24.3164Q78.5156-24.3164 78.9307-24.707Q79.3457-25.0977 79.3457-25.6836Q79.3457-26.2207 78.9307-26.6357Q78.5156-27.0508 77.8809-27.0508L17.5293-27.0508Q16.9434-27.0508 16.5283-26.6357Q16.1133-26.2207 16.1133-25.6836Q16.1133-25.0977 16.5283-24.707Q16.9434-24.3164 17.5293-24.3164Z"/>
  </g>
  <g id="Black-M" transform="matrix(1 0 0 1 2867.99 1126)">
   <path d="M118.359-61.5234L118.359-79.541Q118.359-82.9102 115.918-84.9121Q113.477-86.9141 110.254-86.1816L84.7656-80.6152Q77.6367-79.1016 77.6367-72.8516L77.6367-19.6777Q77.6855-18.1152 76.4648-17.8223L68.3594-16.1621Q59.9609-14.4043 55.5908-9.91211Q51.2207-5.41992 51.2207 1.5625Q51.2207 8.69141 55.9814 13.0859Q60.7422 17.4805 68.4082 17.4805Q72.8027 17.4805 76.6846 15.8691Q80.5664 14.2578 83.4717 11.3281Q86.377 8.39844 88.0371 4.37012Q89.6973 0.341797 89.6973-4.44336L89.6973-49.4629Q89.6973-50.3906 89.5508-50.3174Q89.4043-50.2441 90.3809-50.4883L113.477-55.5176Q115.723-56.0059 117.041-57.6416Q118.359-59.2773 118.359-61.5234ZM16.9922-59.4727L58.6426-59.4727Q60.498-59.4727 61.8408-60.8154Q63.1836-62.1582 63.1836-63.9648Q63.1836-65.8691 61.8408-67.1875Q60.498-68.5059 58.6426-68.5059L16.9922-68.5059Q15.0879-68.5059 13.7695-67.1875Q12.4512-65.8691 12.4512-63.9648Q12.4512-62.1582 13.7695-60.8154Q15.0879-59.4727 16.9922-59.4727ZM16.9922-41.9922L58.6426-41.9922Q60.498-41.9922 61.8408-43.335Q63.1836-44.6777 63.1836-46.4844Q63.1836-48.3887 61.8408-49.7314Q60.498-51.0742 58.6426-51.0742L16.9922-51.0742Q15.0879-51.0742 13.7695-49.7314Q12.4512-48.3887 12.4512-46.4844Q12.4512-44.6777 13.7695-43.335Q15.0879-41.9922 16.9922-41.9922ZM16.9922-24.5605L58.6426-24.5605Q60.498-24.5605 61.8408-25.9033Q63.1836-27.2461 63.1836-29.0527Q63.1836-30.9082 61.8408-32.251Q60.498-33.5938 58.6426-33.5938L16.9922-33.5938Q15.0879-33.5938 13.7695-32.251Q12.4512-30.9082 12.4512-29.0527Q12.4512-27.2461 13.7695-25.9033Q15.0879-24.5605 16.9922-24.5605Z"/>
  </g>
  <g id="Heavy-M" transform="matrix(1 0 0 1 2572.04 1126)">
   <path d="M116.846-61.377L116.846-79.4922Q116.846-82.5195 114.673-84.3018Q112.5-86.084 109.57-85.4492L84.1797-79.8828Q77.6367-78.4668 77.6367-72.7539L77.6367-19.3359Q77.7344-17.2363 76.0254-16.8457L68.0176-15.2344Q59.8633-13.5254 55.6885-9.22852Q51.5137-4.93164 51.5137 1.70898Q51.5137 8.49609 56.0791 12.6953Q60.6445 16.8945 67.9199 16.8945Q71.9238 16.8945 75.6104 15.4053Q79.2969 13.916 82.1777 11.1328Q85.0586 8.34961 86.7432 4.39453Q88.4277 0.439453 88.4277-4.44336L88.4277-49.4141Q88.4277-50.5859 88.4277-50.6836Q88.4277-50.7812 89.5996-51.0254L112.5-56.0547Q114.502-56.4941 115.674-57.9346Q116.846-59.375 116.846-61.377ZM16.6992-59.2773L58.7891-59.2773Q60.5469-59.2773 61.8164-60.5225Q63.0859-61.7676 63.0859-63.4766Q63.0859-65.2344 61.8164-66.4795Q60.5469-67.7246 58.7891-67.7246L16.6992-67.7246Q14.8926-67.7246 13.6719-66.4795Q12.4512-65.2344 12.4512-63.4766Q12.4512-61.7676 13.6719-60.5225Q14.8926-59.2773 16.6992-59.2773ZM16.6992-41.7969L58.7891-41.7969Q60.5469-41.7969 61.8164-43.0664Q63.0859-44.3359 63.0859-46.0449Q63.0859-47.8027 61.8164-49.0479Q60.5469-50.293 58.7891-50.293L16.6992-50.293Q14.8926-50.293 13.6719-49.0479Q12.4512-47.8027 12.4512-46.0449Q12.4512-44.3359 13.6719-43.0664Q14.8926-41.7969 16.6992-41.7969ZM16.6992-24.4141L58.7891-24.4141Q60.5469-24.4141 61.8164-25.6592Q63.0859-26.9043 63.0859-28.6133Q63.0859-30.3711 61.8164-31.6162Q60.5469-32.8613 58.7891-32.8613L16.6992-32.8613Q14.8926-32.8613 13.6719-31.6162Q12.4512-30.3711 12.4512-28.6133Q12.4512-26.9043 13.6719-25.6592Q14.8926-24.4141 16.6992-24.4141Z"/>
  </g>
  <g id="Bold-M" transform="matrix(1 0 0 1 2276.16 1126)">
   <path d="M115.186-61.2305L115.186-79.4434Q115.186-82.0801 113.306-83.6426Q111.426-85.2051 108.838-84.6191L83.5938-79.1016Q77.5879-77.832 77.5879-72.6562L77.6367-18.9453Q77.832-16.3086 75.5371-15.8203L67.627-14.1602Q59.7656-12.5 55.8105-8.42285Q51.8555-4.3457 51.8555 1.9043Q51.8555 8.30078 56.1768 12.2559Q60.498 16.2109 67.3828 16.2109Q70.9473 16.2109 74.4141 14.8926Q77.8809 13.5742 80.7373 10.9619Q83.5938 8.34961 85.2783 4.46777Q86.9629 0.585938 86.9629-4.49219L86.9629-49.3652Q86.9629-50.7812 87.1582-51.0742Q87.3535-51.3672 88.7207-51.6602L111.426-56.6406Q113.184-57.0312 114.185-58.2764Q115.186-59.5215 115.186-61.2305ZM16.3574-59.082L59.0332-59.082Q60.6445-59.082 61.792-60.2295Q62.9395-61.377 62.9395-62.9883Q62.9395-64.5996 61.792-65.7471Q60.6445-66.8945 59.0332-66.8945L16.3574-66.8945Q14.7461-66.8945 13.5986-65.7471Q12.4512-64.5996 12.4512-62.9883Q12.4512-61.377 13.5986-60.2295Q14.7461-59.082 16.3574-59.082ZM16.3574-41.6504L59.0332-41.6504Q60.6445-41.6504 61.792-42.7979Q62.9395-43.9453 62.9395-45.5566Q62.9395-47.2168 61.792-48.3398Q60.6445-49.4629 59.0332-49.4629L16.3574-49.4629Q14.7461-49.4629 13.5986-48.3398Q12.4512-47.2168 12.4512-45.5566Q12.4512-43.9453 13.5742-42.7979Q14.6973-41.6504 16.3574-41.6504ZM16.3574-24.2188L59.0332-24.2188Q60.6445-24.2188 61.792-25.3662Q62.9395-26.5137 62.9395-28.125Q62.9395-29.7363 61.792-30.8838Q60.6445-32.0312 59.0332-32.0312L16.3574-32.0312Q14.7461-32.0312 13.5986-30.8838Q12.4512-29.7363 12.4512-28.125Q12.4512-26.5137 13.5742-25.3662Q14.6973-24.2188 16.3574-24.2188Z"/>
  </g>
  <g id="Semibold-M" transform="matrix(1 0 0 1 1980.03 1126)">
   <path d="M113.965-61.1328L113.965-79.3945Q113.965-81.7871 112.28-83.1787Q110.596-84.5703 108.252-84.0332L83.1055-78.5645Q77.5391-77.3438 77.5391-72.6074L77.5879-18.6523Q77.832-15.625 75.1465-15.0391L67.2852-13.4277Q59.6191-11.8164 55.835-7.88574Q52.0508-3.95508 52.0508 2.05078Q52.0508 8.10547 56.2012 11.9385Q60.3516 15.7715 66.9434 15.7715Q70.166 15.7715 73.5107 14.5264Q76.8555 13.2812 79.6875 10.791Q82.5195 8.30078 84.2285 4.46777Q85.9375 0.634766 85.9375-4.49219L85.9375-49.3164Q85.9375-50.8789 86.2549-51.3184Q86.5723-51.7578 88.0859-52.0996L110.645-57.0312Q112.158-57.373 113.062-58.4717Q113.965-59.5703 113.965-61.1328ZM16.1621-58.8867L59.1309-58.8867Q60.6934-58.8867 61.7676-59.9854Q62.8418-61.084 62.8418-62.5977Q62.8418-64.1113 61.7676-65.1855Q60.6934-66.2598 59.1309-66.2598L16.1621-66.2598Q14.5996-66.2598 13.5254-65.1855Q12.4512-64.1113 12.4512-62.5977Q12.4512-61.084 13.5254-59.9854Q14.5996-58.8867 16.1621-58.8867ZM16.1621-41.5039L59.1309-41.5039Q60.6934-41.5039 61.7676-42.6025Q62.8418-43.7012 62.8418-45.2148Q62.8418-46.7773 61.7676-47.8271Q60.6934-48.877 59.1309-48.877L16.1621-48.877Q14.5996-48.877 13.5254-47.8271Q12.4512-46.7773 12.4512-45.2148Q12.4512-43.7012 13.501-42.6025Q14.5508-41.5039 16.1621-41.5039ZM16.1621-24.0723L59.1309-24.0723Q60.6934-24.0723 61.7676-25.1709Q62.8418-26.2695 62.8418-27.7832Q62.8418-29.2969 61.7676-30.3711Q60.6934-31.4453 59.1309-31.4453L16.1621-31.4453Q14.5996-31.4453 13.5254-30.3711Q12.4512-29.2969 12.4512-27.7832Q12.4512-26.2695 13.501-25.1709Q14.5508-24.0723 16.1621-24.0723Z"/>
  </g>
  <g id="Medium-M" transform="matrix(1 0 0 1 1683.76 1126)">
   <path d="M113.086-61.0352L113.086-79.3457Q113.086-81.543 111.548-82.8125Q110.01-84.082 107.861-83.6426L82.7637-78.125Q77.4902-77.002 77.4902-72.5098L77.5879-18.457Q77.8809-15.0879 74.9023-14.502L67.0898-12.8906Q59.5703-11.2793 55.8838-7.4707Q52.1973-3.66211 52.1973 2.09961Q52.1973 8.00781 56.25 11.6943Q60.3027 15.3809 66.6992 15.3809Q69.6777 15.3809 72.9004 14.2334Q76.123 13.0859 78.9307 10.6934Q81.7383 8.30078 83.4473 4.49219Q85.1562 0.683594 85.1562-4.54102L85.1562-49.2676Q85.1562-50.9766 85.5713-51.5137Q85.9863-52.0508 87.5977-52.3926L110.059-57.3242Q111.475-57.666 112.28-58.6426Q113.086-59.6191 113.086-61.0352ZM15.9668-58.7891L59.2773-58.7891Q60.7422-58.7891 61.7676-59.8389Q62.793-60.8887 62.793-62.3047Q62.793-63.7695 61.7676-64.7949Q60.7422-65.8203 59.2773-65.8203L15.9668-65.8203Q14.502-65.8203 13.4766-64.7949Q12.4512-63.7695 12.4512-62.3047Q12.4512-60.8887 13.4766-59.8389Q14.502-58.7891 15.9668-58.7891ZM15.9668-41.4062L59.2773-41.4062Q60.791-41.4062 61.792-42.4316Q62.793-43.457 62.793-44.9707Q62.793-46.4355 61.7676-47.4365Q60.7422-48.4375 59.2773-48.4375L15.9668-48.4375Q14.502-48.4375 13.4766-47.4365Q12.4512-46.4355 12.4512-44.9707Q12.4512-43.457 13.4766-42.4316Q14.502-41.4062 15.9668-41.4062ZM15.9668-24.0234L59.2773-24.0234Q60.791-24.0234 61.792-25.0244Q62.793-26.0254 62.793-27.5391Q62.793-29.0039 61.7676-30.0293Q60.7422-31.0547 59.2773-31.0547L15.9668-31.0547Q14.502-31.0547 13.4766-30.0293Q12.4512-29.0039 12.4512-27.5391Q12.4512-26.0254 13.4766-25.0244Q14.502-24.0234 15.9668-24.0234Z"/>
  </g>
  <g id="Regular-M" transform="matrix(1 0 0 1 1387.61 1126)">
   <path d="M111.963-60.9375L111.963-79.2969Q111.963-81.25 110.62-82.3486Q109.277-83.4473 107.373-83.0566L82.3242-77.5879Q77.4902-76.5137 77.4902-72.4609L77.5879-18.1641Q77.9297-14.4531 74.5605-13.7695L66.7969-12.1582Q59.4727-10.5957 55.957-6.93359Q52.4414-3.27148 52.4414 2.24609Q52.4414 7.86133 56.3232 11.4014Q60.2051 14.9414 66.3086 14.9414Q68.9941 14.9414 72.0703 13.8916Q75.1465 12.8418 77.9297 10.5469Q80.7129 8.25195 82.4463 4.5166Q84.1797 0.78125 84.1797-4.54102L84.1797-49.2188Q84.1797-51.123 84.7168-51.7822Q85.2539-52.4414 87.0117-52.832L109.326-57.7148Q110.547-58.0078 111.255-58.8623Q111.963-59.7168 111.963-60.9375ZM15.7715-58.6426L59.4238-58.6426Q60.791-58.6426 61.7676-59.6191Q62.7441-60.5957 62.7441-61.9629Q62.7441-63.2812 61.7676-64.2578Q60.791-65.2344 59.4238-65.2344L15.7715-65.2344Q14.4043-65.2344 13.4277-64.2578Q12.4512-63.2812 12.4512-61.9629Q12.4512-60.5957 13.4277-59.6191Q14.4043-58.6426 15.7715-58.6426ZM15.7715-41.2598L59.4238-41.2598Q60.8398-41.2598 61.792-42.2363Q62.7441-43.2129 62.7441-44.6289Q62.7441-45.9961 61.7676-46.9238Q60.791-47.8516 59.4238-47.8516L15.7715-47.8516Q14.4043-47.8516 13.4277-46.9238Q12.4512-45.9961 12.4512-44.6289Q12.4512-43.2129 13.4033-42.2363Q14.3555-41.2598 15.7715-41.2598ZM15.7715-23.877L59.4238-23.877Q60.8398-23.877 61.792-24.8291Q62.7441-25.7812 62.7441-27.1973Q62.7441-28.5645 61.7676-29.5166Q60.791-30.4688 59.4238-30.4688L15.7715-30.4688Q14.4043-30.4688 13.4277-29.5166Q12.4512-28.5645 12.4512-27.1973Q12.4512-25.7812 13.4033-24.8291Q14.3555-23.877 15.7715-23.877Z"/>
  </g>
  <g id="Light-M" transform="matrix(1 0 0 1 1091.9 1126)">
   <path d="M109.961-60.498L109.961-78.3691Q109.961-80.1758 108.74-81.1523Q107.52-82.1289 105.762-81.7871L81.7383-76.5625Q77.4902-75.6348 77.4902-71.9727L77.6855-18.5059Q77.8809-14.4043 74.2188-13.623L66.4551-12.0117Q59.4238-10.5469 56.0059-7.05566Q52.5879-3.56445 52.5879 1.80664Q52.5879 7.17773 56.2988 10.5713Q60.0098 13.9648 65.8691 13.9648Q68.5059 13.9648 71.4844 12.9395Q74.4629 11.9141 77.1484 9.69238Q79.834 7.4707 81.5186 3.85742Q83.2031 0.244141 83.2031-4.93164L83.2031-48.877Q83.2031-50.9277 83.8135-51.7334Q84.4238-52.5391 86.377-52.9785L107.568-57.6172Q108.691-57.8613 109.326-58.6182Q109.961-59.375 109.961-60.498ZM15.0879-58.7402L59.7168-58.7402Q60.791-58.7402 61.5723-59.4971Q62.3535-60.2539 62.3535-61.377Q62.3535-62.4023 61.5723-63.1836Q60.791-63.9648 59.7168-63.9648L15.0879-63.9648Q14.0137-63.9648 13.2324-63.1836Q12.4512-62.4023 12.4512-61.377Q12.4512-60.2539 13.2324-59.4971Q14.0137-58.7402 15.0879-58.7402ZM15.0879-41.748L59.7168-41.748Q60.8398-41.748 61.5967-42.5293Q62.3535-43.3105 62.3535-44.4336Q62.3535-45.459 61.5723-46.2158Q60.791-46.9727 59.7168-46.9727L15.0879-46.9727Q14.0137-46.9727 13.2324-46.2158Q12.4512-45.459 12.4512-44.4336Q12.4512-43.3105 13.208-42.5293Q13.9648-41.748 15.0879-41.748ZM15.0879-24.8047L59.7168-24.8047Q60.8398-24.8047 61.5967-25.5371Q62.3535-26.2695 62.3535-27.3926Q62.3535-28.4668 61.5723-29.2236Q60.791-29.9805 59.7168-29.9805L15.0879-29.9805Q14.0137-29.9805 13.2324-29.2236Q12.4512-28.4668 12.4512-27.3926Q12.4512-26.2695 13.208-25.5371Q13.9648-24.8047 15.0879-24.8047Z"/>
  </g>
  <g id="Thin-M" transform="matrix(1 0 0 1 796.535 1126)">
   <path d="M107.324-59.9121L107.324-77.1484Q107.324-78.7109 106.274-79.5654Q105.225-80.4199 103.711-80.127L81.0059-75.2441Q77.5879-74.4629 77.5879-71.3867L77.832-18.8965Q77.9297-14.3066 73.7793-13.4766L66.0645-11.8652Q59.375-10.4492 56.1035-7.20215Q52.832-3.95508 52.832 1.2207Q52.832 6.29883 56.2988 9.44824Q59.7656 12.5977 65.332 12.5977Q67.8711 12.5977 70.752 11.6455Q73.6328 10.6934 76.1719 8.56934Q78.7109 6.44531 80.2979 2.97852Q81.8848-0.488281 81.8848-5.46875L81.8848-48.4375Q81.8848-50.6836 82.6416-51.6602Q83.3984-52.6367 85.5957-53.125L105.273-57.4707Q106.25-57.666 106.787-58.3008Q107.324-58.9355 107.324-59.9121ZM14.1602-58.8867L60.0586-58.8867Q60.8398-58.8867 61.3281-59.375Q61.8164-59.8633 61.8164-60.5469Q61.8164-61.2305 61.3281-61.7432Q60.8398-62.2559 60.0586-62.2559L14.1602-62.2559Q13.4277-62.2559 12.9395-61.7432Q12.4512-61.2305 12.4512-60.5469Q12.4512-59.8633 12.9395-59.375Q13.4277-58.8867 14.1602-58.8867ZM14.1602-42.4316L60.0586-42.4316Q60.791-42.4316 61.3037-42.9199Q61.8164-43.4082 61.8164-44.1406Q61.8164-44.8242 61.3281-45.3125Q60.8398-45.8008 60.0586-45.8008L14.1602-45.8008Q13.4277-45.8008 12.9395-45.3125Q12.4512-44.8242 12.4512-44.1406Q12.4512-43.4082 12.9395-42.9199Q13.4277-42.4316 14.1602-42.4316ZM14.1602-25.9766L60.0586-25.9766Q60.791-25.9766 61.3037-26.4648Q61.8164-26.9531 61.8164-27.6367Q61.8164-28.3691 61.3281-28.8574Q60.8398-29.3457 60.0586-29.3457L14.1602-29.3457Q13.4277-29.3457 12.9395-28.8574Q12.4512-28.3691 12.4512-27.6367Q12.4512-26.9531 12.9395-26.4648Q13.4277-25.9766 14.1602-25.9766Z"/>
  </g>
  <g id="Ultralight-M" transform="matrix(1 0 0 1 500.507 1126)">
   <path d="M105.957-59.6191L105.957-76.5137Q105.957-77.9785 104.98-78.7598Q104.004-79.541 102.588-79.248L80.6152-74.5605Q77.5879-73.877 77.5879-71.0449L77.9297-19.1406Q77.8809-14.2578 73.5352-13.3789L65.8691-11.7676Q59.3262-10.4004 56.1279-7.27539Q52.9297-4.15039 52.9297 0.927734Q52.9297 5.81055 56.2744 8.88672Q59.6191 11.9629 65.0391 11.9629Q67.5293 11.9629 70.3613 11.0107Q73.1934 10.0586 75.6592 8.00781Q78.125 5.95703 79.6875 2.56348Q81.25-0.830078 81.25-5.71289L81.25-48.2422Q81.25-50.5859 82.0557-51.6602Q82.8613-52.7344 85.1562-53.2227L104.102-57.373Q105.029-57.5684 105.493-58.1543Q105.957-58.7402 105.957-59.6191ZM13.7207-58.9844L60.2539-58.9844Q60.8398-58.9844 61.2061-59.3018Q61.5723-59.6191 61.5723-60.1562Q61.5723-60.6445 61.2061-61.0107Q60.8398-61.377 60.2539-61.377L13.7207-61.377Q13.1836-61.377 12.8174-61.0107Q12.4512-60.6445 12.4512-60.1562Q12.4512-59.6191 12.8174-59.3018Q13.1836-58.9844 13.7207-58.9844ZM13.7207-42.7734L60.2539-42.7734Q60.791-42.7734 61.1816-43.1396Q61.5723-43.5059 61.5723-43.9941Q61.5723-44.4336 61.2061-44.7998Q60.8398-45.166 60.2539-45.166L13.7207-45.166Q13.1836-45.166 12.8174-44.7998Q12.4512-44.4336 12.4512-43.9941Q12.4512-43.5059 12.8174-43.1396Q13.1836-42.7734 13.7207-42.7734ZM13.7207-26.6113L60.2539-26.6113Q60.791-26.6113 61.1816-26.9531Q61.5723-27.2949 61.5723-27.7832Q61.5723-28.2715 61.2061-28.6377Q60.8398-29.0039 60.2539-29.0039L13.7207-29.0039Q13.1836-29.0039 12.8174-28.6377Q12.4512-28.2715 12.4512-27.7832Q12.4512-27.2949 12.8174-26.9531Q13.1836-26.6113 13.7207-26.6113Z"/>
  </g>
  <g id="Black-S" transform="matrix(1 0 0 1 2881.98 696)">
   <path d="M93.0664-55.8594L93.0664-69.9219Q93.0664-72.6562 91.0889-74.2676Q89.1113-75.8789 86.4746-75.293L66.5527-70.9473Q60.8398-69.7266 60.8398-64.6973L60.8398-23.1934Q60.8398-22.0703 60.0098-21.875L53.6621-20.5566Q47.0215-19.1895 43.5303-15.6006Q40.0391-12.0117 40.0391-6.49414Q40.0391-0.830078 43.8477 2.68555Q47.6562 6.20117 53.7109 6.20117Q58.4961 6.20117 62.3291 3.93066Q66.1621 1.66016 68.3838-2.27051Q70.6055-6.20117 70.6055-11.1328L70.6055-46.3867Q70.6055-47.0703 70.459-46.9482Q70.3125-46.8262 70.9961-47.0215L89.1113-50.9766Q90.918-51.3672 91.9922-52.71Q93.0664-54.0527 93.0664-55.8594ZM13.3789-54.2969L45.8984-54.2969Q47.4121-54.2969 48.4619-55.3711Q49.5117-56.4453 49.5117-57.8613Q49.5117-59.375 48.4619-60.4248Q47.4121-61.4746 45.8984-61.4746L13.3789-61.4746Q11.8652-61.4746 10.8154-60.4248Q9.76562-59.375 9.76562-57.8613Q9.76562-56.4453 10.8154-55.3711Q11.8652-54.2969 13.3789-54.2969ZM13.3789-40.625L45.8984-40.625Q47.4121-40.625 48.4619-41.6992Q49.5117-42.7734 49.5117-44.1895Q49.5117-45.7031 48.4619-46.7529Q47.4121-47.8027 45.8984-47.8027L13.3789-47.8027Q11.8652-47.8027 10.8154-46.7529Q9.76562-45.7031 9.76562-44.1895Q9.76562-42.7734 10.8154-41.6992Q11.8652-40.625 13.3789-40.625ZM13.3789-26.9531L45.8984-26.9531Q47.4121-26.9531 48.4619-28.0273Q49.5117-29.1016 49.5117-30.5176Q49.5117-32.0312 48.4619-33.0811Q47.4121-34.1309 45.8984-34.1309L13.3789-34.1309Q11.8652-34.1309 10.8154-33.0811Q9.76562-32.0312 9.76562-30.5176Q9.76562-29.1016 10.8154-28.0273Q11.8652-26.9531 13.3789-26.9531Z"/>
  </g>
  <g id="Heavy-S" transform="matrix(1 0 0 1 2585.79 696)">
   <path d="M92.041-55.8105L92.041-69.9707Q92.041-72.4609 90.2588-73.9014Q88.4766-75.3418 86.1328-74.8047L66.1621-70.459Q60.8398-69.3359 60.8398-64.6973L60.8398-22.8516Q60.8887-21.3379 59.668-21.0938L53.418-19.7754Q46.9238-18.4082 43.6035-14.9902Q40.2832-11.5723 40.2832-6.29883Q40.2832-0.878906 43.9209 2.46582Q47.5586 5.81055 53.3691 5.81055Q57.666 5.81055 61.4014 3.71094Q65.1367 1.61133 67.3828-2.19727Q69.6289-6.00586 69.6289-11.084L69.6289-46.3867Q69.6289-47.2656 69.6045-47.2656Q69.5801-47.2656 70.4102-47.4609L88.4766-51.416Q90.1367-51.7578 91.0889-52.9785Q92.041-54.1992 92.041-55.8105ZM13.2324-54.1016L45.9961-54.1016Q47.4609-54.1016 48.4619-55.127Q49.4629-56.1523 49.4629-57.5195Q49.4629-58.9844 48.4619-59.9854Q47.4609-60.9863 45.9961-60.9863L13.2324-60.9863Q11.7676-60.9863 10.7666-59.9854Q9.76562-58.9844 9.76562-57.5195Q9.76562-56.1523 10.7666-55.127Q11.7676-54.1016 13.2324-54.1016ZM13.2324-40.4297L45.9961-40.4297Q47.4609-40.4297 48.4619-41.4551Q49.4629-42.4805 49.4629-43.8477Q49.4629-45.2637 48.4619-46.2646Q47.4609-47.2656 45.9961-47.2656L13.2324-47.2656Q11.7676-47.2656 10.7666-46.2646Q9.76562-45.2637 9.76562-43.8477Q9.76562-42.4805 10.7666-41.4551Q11.7676-40.4297 13.2324-40.4297ZM13.2324-26.709L45.9961-26.709Q47.4609-26.709 48.4619-27.7344Q49.4629-28.7598 49.4629-30.127Q49.4629-31.543 48.4619-32.5439Q47.4609-33.5449 45.9961-33.5449L13.2324-33.5449Q11.7676-33.5449 10.7666-32.5439Q9.76562-31.543 9.76562-30.127Q9.76562-28.7598 10.7666-27.7344Q11.7676-26.709 13.2324-26.709Z"/>
  </g>
  <g id="Bold-S" transform="matrix(1 0 0 1 2289.64 696)">
   <path d="M90.918-55.7617L90.918-70.0684Q90.918-72.2656 89.3799-73.5107Q87.8418-74.7559 85.7422-74.3164L65.6738-69.9219Q60.791-68.8965 60.791-64.6973L60.791-22.4609Q60.9863-20.5078 59.3262-20.2148L53.125-18.8965Q46.8262-17.5781 43.6768-14.3066Q40.5273-11.0352 40.5273-6.05469Q40.5273-0.976562 44.0186 2.22168Q47.5098 5.41992 52.9785 5.41992Q56.7871 5.41992 60.376 3.51562Q63.9648 1.61133 66.2598-2.0752Q68.5547-5.76172 68.5547-11.084L68.5547-46.3867Q68.5547-47.4609 68.6768-47.6074Q68.7988-47.7539 69.7754-47.998L87.8418-51.9531Q89.2578-52.2461 90.0879-53.2959Q90.918-54.3457 90.918-55.7617ZM13.0371-53.9062L46.1426-53.9062Q47.5098-53.9062 48.4619-54.8828Q49.4141-55.8594 49.4141-57.1777Q49.4141-58.5449 48.4619-59.4971Q47.5098-60.4492 46.1426-60.4492L13.0371-60.4492Q11.6699-60.4492 10.7178-59.4971Q9.76562-58.5449 9.76562-57.1777Q9.76562-55.8594 10.7178-54.8828Q11.6699-53.9062 13.0371-53.9062ZM13.0371-40.1855L46.1426-40.1855Q47.5098-40.1855 48.4619-41.1621Q49.4141-42.1387 49.4141-43.457Q49.4141-44.8242 48.4619-45.752Q47.5098-46.6797 46.1426-46.6797L13.0371-46.6797Q11.6699-46.6797 10.7178-45.752Q9.76562-44.8242 9.76562-43.457Q9.76562-42.1387 10.7178-41.1621Q11.6699-40.1855 13.0371-40.1855ZM13.0371-26.4648L46.1426-26.4648Q47.5098-26.4648 48.4619-27.417Q49.4141-28.3691 49.4141-29.6875Q49.4141-31.0547 48.4619-32.0068Q47.5098-32.959 46.1426-32.959L13.0371-32.959Q11.6699-32.959 10.7178-32.0068Q9.76562-31.0547 9.76562-29.6875Q9.76562-28.3691 10.7178-27.417Q11.6699-26.4648 13.0371-26.4648Z"/>
  </g>
  <g id="Semibold-S" transform="matrix(1 0 0 1 1993.34 696)">
   <path d="M90.1367-55.7129L90.1367-70.1172Q90.1367-72.0703 88.7451-73.2178Q87.3535-74.3652 85.4492-73.9258L65.332-69.5312Q60.791-68.5547 60.791-64.6484L60.791-22.168Q61.0352-19.9219 59.082-19.5801L52.8809-18.3105Q46.7773-16.9922 43.75-13.8428Q40.7227-10.6934 40.7227-5.9082Q40.7227-1.02539 44.0674 2.02637Q47.4121 5.07812 52.6855 5.07812Q56.1523 5.07812 59.6436 3.32031Q63.1348 1.5625 65.4785-2.02637Q67.8223-5.61523 67.8223-11.0352L67.8223-46.3379Q67.8223-47.5586 68.0176-47.8271Q68.2129-48.0957 69.2871-48.3398L87.3535-52.2949Q88.623-52.5879 89.3799-53.5156Q90.1367-54.4434 90.1367-55.7129ZM12.8906-53.7598L46.2402-53.7598Q47.5586-53.7598 48.4863-54.7119Q49.4141-55.6641 49.4141-56.8848Q49.4141-58.2031 48.4863-59.1309Q47.5586-60.0586 46.2402-60.0586L12.8906-60.0586Q11.5723-60.0586 10.6689-59.1309Q9.76562-58.2031 9.76562-56.8848Q9.76562-55.6641 10.6689-54.7119Q11.5723-53.7598 12.8906-53.7598ZM12.8906-40.0391L46.2402-40.0391Q47.5586-40.0391 48.4863-40.9668Q49.4141-41.8945 49.4141-43.1641Q49.4141-44.4824 48.4863-45.3857Q47.5586-46.2891 46.2402-46.2891L12.8906-46.2891Q11.5723-46.2891 10.6689-45.3857Q9.76562-44.4824 9.76562-43.1641Q9.76562-41.8945 10.6689-40.9668Q11.5723-40.0391 12.8906-40.0391ZM12.8906-26.2695L46.2402-26.2695Q47.5586-26.2695 48.4863-27.1729Q49.4141-28.0762 49.4141-29.3945Q49.4141-30.6641 48.4863-31.5918Q47.5586-32.5195 46.2402-32.5195L12.8906-32.5195Q11.5723-32.5195 10.6689-31.5918Q9.76562-30.6641 9.76562-29.3945Q9.76562-28.0762 10.6689-27.1729Q11.5723-26.2695 12.8906-26.2695Z"/>
  </g>
  <g id="Medium-S" transform="matrix(1 0 0 1 1696.92 696)">
   <path d="M89.5508-55.6641L89.5508-70.166Q89.5508-71.9727 88.2812-72.998Q87.0117-74.0234 85.2539-73.6328L65.0879-69.2871Q60.7422-68.3105 60.7422-64.6484L60.7422-21.9727Q61.084-19.5312 58.8867-19.0918L52.7344-17.8223Q46.6797-16.5527 43.75-13.4766Q40.8203-10.4004 40.8203-5.76172Q40.8203-1.07422 44.0918 1.9043Q47.3633 4.88281 52.4902 4.88281Q55.6641 4.88281 59.082 3.22266Q62.5 1.5625 64.8682-1.95312Q67.2363-5.46875 67.2363-11.0352L67.2363-46.3379Q67.2363-47.6562 67.5049-47.998Q67.7734-48.3398 68.9453-48.584L87.0117-52.5879Q88.1348-52.832 88.8428-53.6621Q89.5508-54.4922 89.5508-55.6641ZM12.793-53.6621L46.3379-53.6621Q47.6074-53.6621 48.4863-54.5654Q49.3652-55.4688 49.3652-56.6895Q49.3652-57.959 48.4863-58.8623Q47.6074-59.7656 46.3379-59.7656L12.793-59.7656Q11.5234-59.7656 10.6445-58.8623Q9.76562-57.959 9.76562-56.6895Q9.76562-55.4688 10.6445-54.5654Q11.5234-53.6621 12.793-53.6621ZM12.793-39.8926L46.3379-39.8926Q47.6074-39.8926 48.4863-40.7959Q49.3652-41.6992 49.3652-42.9688Q49.3652-44.2383 48.4863-45.0928Q47.6074-45.9473 46.3379-45.9473L12.793-45.9473Q11.5234-45.9473 10.6445-45.0928Q9.76562-44.2383 9.76562-42.9688Q9.76562-41.6992 10.6445-40.7959Q11.5234-39.8926 12.793-39.8926ZM12.793-26.123L46.3379-26.123Q47.6074-26.123 48.4863-27.002Q49.3652-27.8809 49.3652-29.1504Q49.3652-30.3711 48.4863-31.2744Q47.6074-32.1777 46.3379-32.1777L12.793-32.1777Q11.5234-32.1777 10.6445-31.2744Q9.76562-30.3711 9.76562-29.1504Q9.76562-27.8809 10.6445-27.002Q11.5234-26.123 12.793-26.123Z"/>
  </g>
  <g id="Regular-S" transform="matrix(1 0 0 1 1400.6 696)">
   <path d="M88.7695-55.6152L88.7695-70.2148Q88.7695-71.8262 87.6465-72.7295Q86.5234-73.6328 84.9609-73.291L64.7949-68.8965Q60.7422-68.0176 60.7422-64.6484L60.7422-21.6797Q61.1328-18.9453 58.6426-18.5059L52.5391-17.2363Q46.6309-15.9668 43.8232-13.0127Q41.0156-10.0586 41.0156-5.61523Q41.0156-1.12305 44.165 1.7334Q47.3145 4.58984 52.1973 4.58984Q55.0293 4.58984 58.374 3.05176Q61.7188 1.51367 64.1113-1.9043Q66.5039-5.32227 66.5039-10.9863L66.5039-46.3379Q66.5039-47.8027 66.8701-48.2422Q67.2363-48.6816 68.5059-48.9258L86.5234-52.9297Q87.5488-53.125 88.1592-53.8574Q88.7695-54.5898 88.7695-55.6152ZM12.6953-53.5156L46.4355-53.5156Q47.6562-53.5156 48.5107-54.3945Q49.3652-55.2734 49.3652-56.4453Q49.3652-57.666 48.5107-58.5205Q47.6562-59.375 46.4355-59.375L12.6953-59.375Q11.4746-59.375 10.6201-58.5205Q9.76562-57.666 9.76562-56.4453Q9.76562-55.2734 10.6201-54.3945Q11.4746-53.5156 12.6953-53.5156ZM12.6953-39.7461L46.4355-39.7461Q47.6562-39.7461 48.5107-40.6006Q49.3652-41.4551 49.3652-42.6758Q49.3652-43.8965 48.5107-44.7266Q47.6562-45.5566 46.4355-45.5566L12.6953-45.5566Q11.4746-45.5566 10.6201-44.7266Q9.76562-43.8965 9.76562-42.6758Q9.76562-41.4551 10.6201-40.6006Q11.4746-39.7461 12.6953-39.7461ZM12.6953-25.9277L46.4355-25.9277Q47.6562-25.9277 48.5107-26.7578Q49.3652-27.5879 49.3652-28.8574Q49.3652-30.0293 48.5107-30.8838Q47.6562-31.7383 46.4355-31.7383L12.6953-31.7383Q11.4746-31.7383 10.6201-30.8838Q9.76562-30.0293 9.76562-28.8574Q9.76562-27.5879 10.6201-26.7578Q11.4746-25.9277 12.6953-25.9277Z"/>
  </g>
  <g id="Light-S" transform="matrix(1 0 0 1 1104.79 696)">
   <path d="M86.9629-55.2246L86.9629-69.3848Q86.9629-70.8496 85.9619-71.6553Q84.9609-72.4609 83.5449-72.168L64.2578-68.0176Q60.7422-67.2363 60.7422-64.209L60.8398-21.9727Q61.084-18.8965 58.3008-18.4082L52.2461-17.1387Q46.582-15.918 43.8721-13.1104Q41.1621-10.3027 41.1621-6.00586Q41.1621-1.70898 44.1406 1.00098Q47.1191 3.71094 51.8066 3.71094Q54.5898 3.71094 57.8125 2.22168Q61.0352 0.732422 63.3301-2.56348Q65.625-5.85938 65.625-11.3281L65.625-46.0449Q65.625-47.6562 66.0645-48.2178Q66.5039-48.7793 67.9688-49.0234L84.9609-52.832Q85.8887-53.0273 86.4258-53.6621Q86.9629-54.2969 86.9629-55.2246ZM12.1094-53.6133L46.6797-53.6133Q47.6562-53.6133 48.3154-54.2969Q48.9746-54.9805 48.9746-55.9082Q48.9746-56.8848 48.3154-57.5439Q47.6562-58.2031 46.6797-58.2031L12.1094-58.2031Q11.084-58.2031 10.4248-57.5439Q9.76562-56.8848 9.76562-55.9082Q9.76562-54.9805 10.4248-54.2969Q11.084-53.6133 12.1094-53.6133ZM12.1094-40.1855L46.6797-40.1855Q47.6562-40.1855 48.3154-40.8691Q48.9746-41.5527 48.9746-42.4805Q48.9746-43.457 48.3154-44.1162Q47.6562-44.7754 46.6797-44.7754L12.1094-44.7754Q11.084-44.7754 10.4248-44.1162Q9.76562-43.457 9.76562-42.4805Q9.76562-41.5527 10.4492-40.8691Q11.1328-40.1855 12.1094-40.1855ZM12.1094-26.709L46.6797-26.709Q47.6562-26.709 48.3154-27.3682Q48.9746-28.0273 48.9746-29.0039Q48.9746-29.9316 48.3154-30.6152Q47.6562-31.2988 46.6797-31.2988L12.1094-31.2988Q11.084-31.2988 10.4248-30.6152Q9.76562-29.9316 9.76562-29.0039Q9.76562-28.0273 10.4492-27.3682Q11.1328-26.709 12.1094-26.709Z"/>
  </g>
  <g id="Thin-S" transform="matrix(1 0 0 1 809.254 696)">
   <path d="M84.5703-54.6875L84.5703-68.3105Q84.5703-69.5801 83.7158-70.2637Q82.8613-70.9473 81.6406-70.7031L63.623-66.8457Q60.791-66.2109 60.791-63.6719L60.9375-22.3633Q61.084-18.8477 57.9102-18.2129L51.8555-16.9434Q46.5332-15.8203 43.9209-13.2324Q41.3086-10.6445 41.3086-6.54297Q41.3086-2.53906 44.0918 0Q46.875 2.53906 51.2695 2.53906Q53.9551 2.53906 57.0312 1.12305Q60.1074-0.292969 62.2803-3.41797Q64.4531-6.54297 64.4531-11.8164L64.4531-45.6543Q64.4531-47.4121 64.9902-48.1445Q65.5273-48.877 67.1875-49.2188L82.959-52.6855Q83.7402-52.832 84.1553-53.3691Q84.5703-53.9062 84.5703-54.6875ZM11.2793-53.7109L47.0215-53.7109Q47.6562-53.7109 48.0957-54.1504Q48.5352-54.5898 48.5352-55.2246Q48.5352-55.8594 48.0957-56.2744Q47.6562-56.6895 47.0215-56.6895L11.2793-56.6895Q10.6445-56.6895 10.2051-56.2744Q9.76562-55.8594 9.76562-55.2246Q9.76562-54.5898 10.2051-54.1504Q10.6445-53.7109 11.2793-53.7109ZM11.2793-40.7715L47.0215-40.7715Q47.6562-40.7715 48.0957-41.2109Q48.5352-41.6504 48.5352-42.2363Q48.5352-42.8711 48.0957-43.3105Q47.6562-43.75 47.0215-43.75L11.2793-43.75Q10.6445-43.75 10.2051-43.3105Q9.76562-42.8711 9.76562-42.2363Q9.76562-41.6504 10.2295-41.2109Q10.6934-40.7715 11.2793-40.7715ZM11.2793-27.7344L47.0215-27.7344Q47.6562-27.7344 48.0957-28.1738Q48.5352-28.6133 48.5352-29.248Q48.5352-29.834 48.0957-30.2734Q47.6562-30.7129 47.0215-30.7129L11.2793-30.7129Q10.6445-30.7129 10.2051-30.2734Q9.76562-29.834 9.76562-29.248Q9.76562-28.6133 10.2295-28.1738Q10.6934-27.7344 11.2793-27.7344Z"/>
  </g>
  <g id="Ultralight-S" transform="matrix(1 0 0 1 513.153 696)">
   <path d="M83.3496-54.3945L83.3496-67.7734Q83.3496-68.8965 82.5684-69.5312Q81.7871-70.166 80.7129-69.9219L63.2324-66.2109Q60.791-65.6738 60.791-63.3789L61.0352-22.5586Q61.0352-18.7988 57.666-18.1641L51.6602-16.8945Q46.4844-15.7715 43.9453-13.2812Q41.4062-10.791 41.4062-6.83594Q41.4062-2.92969 44.0918-0.512695Q46.7773 1.9043 51.0254 1.9043Q53.6621 1.9043 56.6406 0.561523Q59.6191-0.78125 61.7188-3.85742Q63.8184-6.93359 63.8184-12.0605L63.8184-45.459Q63.8184-47.3145 64.4287-48.1201Q65.0391-48.9258 66.8457-49.2676L81.8848-52.5879Q82.6172-52.7832 82.9834-53.2227Q83.3496-53.6621 83.3496-54.3945ZM10.8887-53.8086L47.168-53.8086Q47.6562-53.8086 47.9492-54.1016Q48.2422-54.3945 48.2422-54.834Q48.2422-55.3223 47.9492-55.6152Q47.6562-55.9082 47.168-55.9082L10.8887-55.9082Q10.3516-55.9082 10.0586-55.6152Q9.76562-55.3223 9.76562-54.834Q9.76562-54.3945 10.0586-54.1016Q10.3516-53.8086 10.8887-53.8086ZM10.8887-41.0645L47.168-41.0645Q47.6562-41.0645 47.9492-41.3818Q48.2422-41.6992 48.2422-42.1387Q48.2422-42.5781 47.9492-42.8955Q47.6562-43.2129 47.168-43.2129L10.8887-43.2129Q10.3516-43.2129 10.0586-42.8955Q9.76562-42.5781 9.76562-42.1387Q9.76562-41.6992 10.083-41.3818Q10.4004-41.0645 10.8887-41.0645ZM10.8887-28.2715L47.168-28.2715Q47.6562-28.2715 47.9492-28.5889Q48.2422-28.9062 48.2422-29.3457Q48.2422-29.7852 47.9492-30.1025Q47.6562-30.4199 47.168-30.4199L10.8887-30.4199Q10.3516-30.4199 10.0586-30.1025Q9.76562-29.7852 9.76562-29.3457Q9.76562-28.9062 10.083-28.5889Q10.4004-28.2715 10.8887-28.2715Z"/>
  </g>
 </g>
</svg>
