<?xml version="1.0" encoding="UTF-8"?>
<!--Generator: Apple Native CoreSVG 149-->
<!DOCTYPE svg
PUBLIC "-//W3C//DTD SVG 1.1//EN"
       "http://www.w3.org/Graphics/SVG/1.1/DTD/svg11.dtd">
<svg version="1.1" xmlns="http://www.w3.org/2000/svg" xmlns:xlink="http://www.w3.org/1999/xlink" width="3300" height="2200">
 <!--glyph: "uni10029F.medium", point size: 100.0, font version: "17.0d9e1", template writer version: "59"-->
 <g id="Notes">
  <rect height="2200" id="artboard" style="fill:white;opacity:1" width="3300" x="0" y="0"/>
  <line style="fill:none;stroke:black;opacity:1;stroke-width:0.5;" x1="263" x2="3036" y1="292" y2="292"/>
  <text style="stroke:none;fill:black;font-family:sans-serif;font-size:13;font-weight:bold;" transform="matrix(1 0 0 1 263 322)">Weight/Scale Variations</text>
  <text style="stroke:none;fill:black;font-family:sans-serif;font-size:13;text-anchor:middle;" transform="matrix(1 0 0 1 559.711 322)">Ultralight</text>
  <text style="stroke:none;fill:black;font-family:sans-serif;font-size:13;text-anchor:middle;" transform="matrix(1 0 0 1 856.422 322)">Thin</text>
  <text style="stroke:none;fill:black;font-family:sans-serif;font-size:13;text-anchor:middle;" transform="matrix(1 0 0 1 1153.13 322)">Light</text>
  <text style="stroke:none;fill:black;font-family:sans-serif;font-size:13;text-anchor:middle;" transform="matrix(1 0 0 1 1449.84 322)">Regular</text>
  <text style="stroke:none;fill:black;font-family:sans-serif;font-size:13;text-anchor:middle;" transform="matrix(1 0 0 1 1746.56 322)">Medium</text>
  <text style="stroke:none;fill:black;font-family:sans-serif;font-size:13;text-anchor:middle;" transform="matrix(1 0 0 1 2043.27 322)">Semibold</text>
  <text style="stroke:none;fill:black;font-family:sans-serif;font-size:13;text-anchor:middle;" transform="matrix(1 0 0 1 2339.98 322)">Bold</text>
  <text style="stroke:none;fill:black;font-family:sans-serif;font-size:13;text-anchor:middle;" transform="matrix(1 0 0 1 2636.69 322)">Heavy</text>
  <text style="stroke:none;fill:black;font-family:sans-serif;font-size:13;text-anchor:middle;" transform="matrix(1 0 0 1 2933.4 322)">Black</text>
  <line style="fill:none;stroke:black;opacity:1;stroke-width:0.5;" x1="263" x2="3036" y1="1903" y2="1903"/>
  <g transform="matrix(1 0 0 1 263 1933)">
   <path d="M9.24805 0.830078Q10.8691 0.830078 12.2949 0.214844Q13.7207-0.400391 14.8096-1.49414Q15.8984-2.58789 16.5186-4.01367Q17.1387-5.43945 17.1387-7.05078Q17.1387-8.66211 16.5186-10.0879Q15.8984-11.5137 14.8047-12.6074Q13.7109-13.7012 12.2852-14.3164Q10.8594-14.9316 9.23828-14.9316Q7.62695-14.9316 6.20117-14.3164Q4.77539-13.7012 3.69141-12.6074Q2.60742-11.5137 1.9873-10.0879Q1.36719-8.66211 1.36719-7.05078Q1.36719-5.43945 1.9873-4.01367Q2.60742-2.58789 3.69629-1.49414Q4.78516-0.400391 6.21094 0.214844Q7.63672 0.830078 9.24805 0.830078ZM9.24805-0.654297Q7.91992-0.654297 6.7627-1.14746Q5.60547-1.64062 4.73145-2.51953Q3.85742-3.39844 3.36426-4.56055Q2.87109-5.72266 2.87109-7.05078Q2.87109-8.37891 3.35938-9.54102Q3.84766-10.7031 4.72168-11.582Q5.5957-12.4609 6.75293-12.9541Q7.91016-13.4473 9.23828-13.4473Q10.5762-13.4473 11.7334-12.9541Q12.8906-12.4609 13.7695-11.582Q14.6484-10.7031 15.1465-9.54102Q15.6445-8.37891 15.6445-7.05078Q15.6445-5.72266 15.1514-4.56055Q14.6582-3.39844 13.7842-2.51953Q12.9102-1.64062 11.748-1.14746Q10.5859-0.654297 9.24805-0.654297ZM5.83984-7.04102Q5.83984-6.71875 6.04492-6.51855Q6.25-6.31836 6.5918-6.31836L8.50586-6.31836L8.50586-4.39453Q8.50586-4.0625 8.70605-3.85742Q8.90625-3.65234 9.22852-3.65234Q9.56055-3.65234 9.76562-3.85742Q9.9707-4.0625 9.9707-4.39453L9.9707-6.31836L11.8945-6.31836Q12.2266-6.31836 12.4316-6.51855Q12.6367-6.71875 12.6367-7.04102Q12.6367-7.37305 12.4316-7.57812Q12.2266-7.7832 11.8945-7.7832L9.9707-7.7832L9.9707-9.69727Q9.9707-10.0391 9.76562-10.2441Q9.56055-10.4492 9.22852-10.4492Q8.90625-10.4492 8.70605-10.2441Q8.50586-10.0391 8.50586-9.69727L8.50586-7.7832L6.5918-7.7832Q6.25-7.7832 6.04492-7.57812Q5.83984-7.37305 5.83984-7.04102Z"/>
  </g>
  <g transform="matrix(1 0 0 1 281.867 1933)">
   <path d="M11.709 2.91016Q13.75 2.91016 15.5518 2.12891Q17.3535 1.34766 18.7305-0.0292969Q20.1074-1.40625 20.8887-3.20801Q21.6699-5.00977 21.6699-7.05078Q21.6699-9.0918 20.8887-10.8936Q20.1074-12.6953 18.7305-14.0723Q17.3535-15.4492 15.5469-16.2305Q13.7402-17.0117 11.6992-17.0117Q9.6582-17.0117 7.85645-16.2305Q6.05469-15.4492 4.68262-14.0723Q3.31055-12.6953 2.5293-10.8936Q1.74805-9.0918 1.74805-7.05078Q1.74805-5.00977 2.5293-3.20801Q3.31055-1.40625 4.6875-0.0292969Q6.06445 1.34766 7.86621 2.12891Q9.66797 2.91016 11.709 2.91016ZM11.709 1.25Q9.98047 1.25 8.47656 0.605469Q6.97266-0.0390625 5.83496-1.17676Q4.69727-2.31445 4.05762-3.81836Q3.41797-5.32227 3.41797-7.05078Q3.41797-8.7793 4.05762-10.2832Q4.69727-11.7871 5.83008-12.9297Q6.96289-14.0723 8.4668-14.7119Q9.9707-15.3516 11.6992-15.3516Q13.4277-15.3516 14.9316-14.7119Q16.4355-14.0723 17.5781-12.9297Q18.7207-11.7871 19.3652-10.2832Q20.0098-8.7793 20.0098-7.05078Q20.0098-5.32227 19.3701-3.81836Q18.7305-2.31445 17.5928-1.17676Q16.4551-0.0390625 14.9463 0.605469Q13.4375 1.25 11.709 1.25ZM7.39258-7.04102Q7.39258-6.68945 7.62695-6.46484Q7.86133-6.24023 8.23242-6.24023L10.8789-6.24023L10.8789-3.57422Q10.8789-3.21289 11.1035-2.9834Q11.3281-2.75391 11.6797-2.75391Q12.0508-2.75391 12.2852-2.9834Q12.5195-3.21289 12.5195-3.57422L12.5195-6.24023L15.1758-6.24023Q15.5371-6.24023 15.7715-6.46484Q16.0059-6.68945 16.0059-7.04102Q16.0059-7.41211 15.7715-7.6416Q15.5371-7.87109 15.1758-7.87109L12.5195-7.87109L12.5195-10.5176Q12.5195-10.8984 12.2852-11.1279Q12.0508-11.3574 11.6797-11.3574Q11.3281-11.3574 11.1035-11.1279Q10.8789-10.8984 10.8789-10.5176L10.8789-7.87109L8.23242-7.87109Q7.85156-7.87109 7.62207-7.6416Q7.39258-7.41211 7.39258-7.04102Z"/>
  </g>
  <g transform="matrix(1 0 0 1 305.646 1933)">
   <path d="M14.9707 5.66406Q17.0605 5.66406 18.96 5.01465Q20.8594 4.36523 22.4512 3.19336Q24.043 2.02148 25.2197 0.429688Q26.3965-1.16211 27.0459-3.06641Q27.6953-4.9707 27.6953-7.05078Q27.6953-9.14062 27.0459-11.04Q26.3965-12.9395 25.2197-14.5312Q24.043-16.123 22.4512-17.2998Q20.8594-18.4766 18.9551-19.126Q17.0508-19.7754 14.9609-19.7754Q12.8711-19.7754 10.9717-19.126Q9.07227-18.4766 7.48535-17.2998Q5.89844-16.123 4.72168-14.5312Q3.54492-12.9395 2.90039-11.04Q2.25586-9.14062 2.25586-7.05078Q2.25586-4.9707 2.90527-3.06641Q3.55469-1.16211 4.72656 0.429688Q5.89844 2.02148 7.49023 3.19336Q9.08203 4.36523 10.9814 5.01465Q12.8809 5.66406 14.9707 5.66406ZM14.9707 3.84766Q13.1641 3.84766 11.5283 3.2959Q9.89258 2.74414 8.53516 1.74805Q7.17773 0.751953 6.17676-0.610352Q5.17578-1.97266 4.62891-3.6084Q4.08203-5.24414 4.08203-7.05078Q4.08203-8.86719 4.62891-10.5029Q5.17578-12.1387 6.17188-13.501Q7.16797-14.8633 8.52539-15.8594Q9.88281-16.8555 11.5186-17.4023Q13.1543-17.9492 14.9609-17.9492Q16.7773-17.9492 18.4131-17.4023Q20.0488-16.8555 21.4111-15.8594Q22.7734-14.8633 23.7695-13.501Q24.7656-12.1387 25.3174-10.5029Q25.8691-8.86719 25.8691-7.05078Q25.8789-5.24414 25.332-3.6084Q24.7852-1.97266 23.7842-0.610352Q22.7832 0.751953 21.4209 1.74805Q20.0586 2.74414 18.4229 3.2959Q16.7871 3.84766 14.9707 3.84766ZM9.45312-7.04102Q9.45312-6.66016 9.71191-6.41113Q9.9707-6.16211 10.3711-6.16211L14.0625-6.16211L14.0625-2.46094Q14.0625-2.06055 14.3115-1.80664Q14.5605-1.55273 14.9414-1.55273Q15.3516-1.55273 15.6055-1.80664Q15.8594-2.06055 15.8594-2.46094L15.8594-6.16211L19.5605-6.16211Q19.9609-6.16211 20.2148-6.41113Q20.4688-6.66016 20.4688-7.04102Q20.4688-7.45117 20.2148-7.70508Q19.9609-7.95898 19.5605-7.95898L15.8594-7.95898L15.8594-11.6504Q15.8594-12.0605 15.6055-12.3145Q15.3516-12.5684 14.9414-12.5684Q14.5605-12.5684 14.3115-12.3096Q14.0625-12.0508 14.0625-11.6504L14.0625-7.95898L10.3711-7.95898Q9.96094-7.95898 9.70703-7.70508Q9.45312-7.45117 9.45312-7.04102Z"/>
  </g>
  <text style="stroke:none;fill:black;font-family:sans-serif;font-size:13;font-weight:bold;" transform="matrix(1 0 0 1 263 1953)">Design Variations</text>
  <text style="stroke:none;fill:black;font-family:sans-serif;font-size:13;" transform="matrix(1 0 0 1 263 1971)">Symbols are supported in up to nine weights and three scales.</text>
  <text style="stroke:none;fill:black;font-family:sans-serif;font-size:13;" transform="matrix(1 0 0 1 263 1989)">For optimal layout with text and other symbols, vertically align</text>
  <text style="stroke:none;fill:black;font-family:sans-serif;font-size:13;" transform="matrix(1 0 0 1 263 2007)">symbols with the adjacent text.</text>
  <line style="fill:none;stroke:#00AEEF;stroke-width:0.5;opacity:1.0;" x1="776" x2="776" y1="1919" y2="1933"/>
  <g transform="matrix(1 0 0 1 776 1933)">
   <path d="M3.31055 0.15625Q3.70117 0.15625 3.91602-0.00976562Q4.13086-0.175781 4.26758-0.585938L5.52734-4.0332L11.2891-4.0332L12.5488-0.585938Q12.6855-0.175781 12.9004-0.00976562Q13.1152 0.15625 13.4961 0.15625Q13.8867 0.15625 14.1162-0.0585938Q14.3457-0.273438 14.3457-0.644531Q14.3457-0.869141 14.2383-1.17188L9.6582-13.3691Q9.48242-13.8184 9.17969-14.043Q8.87695-14.2676 8.4082-14.2676Q7.5-14.2676 7.17773-13.3789L2.59766-1.16211Q2.49023-0.859375 2.49023-0.634766Q2.49023-0.263672 2.70996-0.0537109Q2.92969 0.15625 3.31055 0.15625ZM6.00586-5.51758L8.37891-12.0898L8.42773-12.0898L10.8008-5.51758Z"/>
  </g>
  <line style="fill:none;stroke:#00AEEF;stroke-width:0.5;opacity:1.0;" x1="793.197" x2="793.197" y1="1919" y2="1933"/>
  <text style="stroke:none;fill:black;font-family:sans-serif;font-size:13;font-weight:bold;" transform="matrix(1 0 0 1 776 1953)">Margins</text>
  <text style="stroke:none;fill:black;font-family:sans-serif;font-size:13;" transform="matrix(1 0 0 1 776 1971)">Leading and trailing margins on the left and right side of each symbol</text>
  <text style="stroke:none;fill:black;font-family:sans-serif;font-size:13;" transform="matrix(1 0 0 1 776 1989)">can be adjusted by modifying the x-location of the margin guidelines.</text>
  <text style="stroke:none;fill:black;font-family:sans-serif;font-size:13;" transform="matrix(1 0 0 1 776 2007)">Modifications are automatically applied proportionally to all</text>
  <text style="stroke:none;fill:black;font-family:sans-serif;font-size:13;" transform="matrix(1 0 0 1 776 2025)">scales and weights.</text>
  <g transform="matrix(1 0 0 1 1289 1933)">
   <path d="M2.8418 1.86523L4.54102 3.57422Q5.18555 4.22852 5.90332 4.17969Q6.62109 4.13086 7.31445 3.35938L18.0078-8.42773L17.041-9.4043L6.42578 2.27539Q6.16211 2.57812 5.89355 2.61719Q5.625 2.65625 5.27344 2.30469L4.10156 1.14258Q3.75 0.791016 3.79395 0.522461Q3.83789 0.253906 4.14062-0.0195312L15.6152-10.8203L14.6387-11.7871L3.04688-0.898438Q2.30469-0.214844 2.25098 0.498047Q2.19727 1.21094 2.8418 1.86523ZM9.25781-16.3281Q8.94531-16.0254 8.90625-15.6348Q8.86719-15.2441 9.04297-14.9512Q9.21875-14.6777 9.55566-14.541Q9.89258-14.4043 10.3809-14.5215Q11.4746-14.7754 12.5977-14.7314Q13.7207-14.6875 14.7949-13.9844L14.209-12.5293Q13.9551-11.9043 14.0674-11.4404Q14.1797-10.9766 14.5801-10.5664L16.875-8.25195Q17.2363-7.88086 17.5781-7.82227Q17.9199-7.76367 18.3398-7.8418L19.4043-8.03711L20.0684-7.36328L20.0293-6.80664Q20-6.43555 20.1221-6.12305Q20.2441-5.81055 20.6055-5.44922L21.3672-4.70703Q21.7285-4.3457 22.1533-4.33105Q22.5781-4.31641 22.9297-4.66797L25.8398-7.58789Q26.1914-7.93945 26.1816-8.35449Q26.1719-8.76953 25.8105-9.13086L25.0391-9.89258Q24.6875-10.2539 24.3799-10.3857Q24.0723-10.5176 23.7109-10.4883L23.1348-10.4395L22.4902-11.0742L22.7344-12.1973Q22.832-12.6172 22.6953-12.9834Q22.5586-13.3496 22.1191-13.7891L19.9219-15.9766Q18.6719-17.2168 17.2607-17.8369Q15.8496-18.457 14.4189-18.4814Q12.9883-18.5059 11.665-17.959Q10.3418-17.4121 9.25781-16.3281ZM10.752-15.957Q11.6602-16.6211 12.7002-16.9043Q13.7402-17.1875 14.8047-17.085Q15.8691-16.9824 16.8701-16.5137Q17.8711-16.0449 18.7012-15.2051L21.1328-12.793Q21.3086-12.6172 21.3525-12.4512Q21.3965-12.2852 21.3379-12.0312L21.0156-10.5469L22.5195-9.0625L23.5059-9.12109Q23.6914-9.13086 23.7891-9.09668Q23.8867-9.0625 24.0332-8.91602L24.6094-8.33984L22.168-5.89844L21.5918-6.47461Q21.4453-6.62109 21.4062-6.71875Q21.3672-6.81641 21.377-7.01172L21.4453-7.98828L19.9512-9.47266L18.4277-9.21875Q18.1836-9.16992 18.042-9.2041Q17.9004-9.23828 17.7148-9.41406L15.7129-11.416Q15.5176-11.5918 15.4932-11.7529Q15.4688-11.9141 15.5859-12.1875L16.4648-14.2773Q15.293-15.3711 13.8281-15.791Q12.3633-16.2109 10.8398-15.7617Q10.7227-15.7324 10.6885-15.8057Q10.6543-15.8789 10.752-15.957Z"/>
  </g>
  <text style="stroke:none;fill:black;font-family:sans-serif;font-size:13;font-weight:bold;" transform="matrix(1 0 0 1 1289 1953)">Exporting</text>
  <text style="stroke:none;fill:black;font-family:sans-serif;font-size:13;" transform="matrix(1 0 0 1 1289 1971)">Symbols should be outlined when exporting to ensure the</text>
  <text style="stroke:none;fill:black;font-family:sans-serif;font-size:13;" transform="matrix(1 0 0 1 1289 1989)">design is preserved when submitting to Xcode.</text>
  <text id="template-version" style="stroke:none;fill:black;font-family:sans-serif;font-size:13;text-anchor:end;" transform="matrix(1 0 0 1 3036 1933)">Template v.2.0</text>
  <text style="stroke:none;fill:black;font-family:sans-serif;font-size:13;text-anchor:end;" transform="matrix(1 0 0 1 3036 1951)">Requires Xcode 13 or greater</text>
  <text id="descriptive-name" style="stroke:none;fill:black;font-family:sans-serif;font-size:13;text-anchor:end;" transform="matrix(1 0 0 1 3036 1969)">Generated from repeat.1</text>
  <text style="stroke:none;fill:black;font-family:sans-serif;font-size:13;text-anchor:end;" transform="matrix(1 0 0 1 3036 1987)">Typeset at 100 points</text>
  <text style="stroke:none;fill:black;font-family:sans-serif;font-size:13;" transform="matrix(1 0 0 1 263 726)">Small</text>
  <text style="stroke:none;fill:black;font-family:sans-serif;font-size:13;" transform="matrix(1 0 0 1 263 1156)">Medium</text>
  <text style="stroke:none;fill:black;font-family:sans-serif;font-size:13;" transform="matrix(1 0 0 1 263 1586)">Large</text>
 </g>
 <g id="Guides">
  <g id="H-reference" style="fill:#27AAE1;stroke:none;" transform="matrix(1 0 0 1 339 696)">
   <path d="M0.976562 0L3.66211 0L29.3457-67.1387L30.0293-67.1387L30.0293-70.459L28.125-70.459ZM11.6699-24.4629L46.9727-24.4629L46.2402-26.709L12.4512-26.709ZM55.127 0L57.7637 0L30.6152-70.459L29.4434-70.459L29.4434-67.1387Z"/>
  </g>
  <line id="Baseline-S" style="fill:none;stroke:#27AAE1;opacity:1;stroke-width:0.5;" x1="263" x2="3036" y1="696" y2="696"/>
  <line id="Capline-S" style="fill:none;stroke:#27AAE1;opacity:1;stroke-width:0.5;" x1="263" x2="3036" y1="625.541" y2="625.541"/>
  <g id="H-reference" style="fill:#27AAE1;stroke:none;" transform="matrix(1 0 0 1 339 1126)">
   <path d="M0.976562 0L3.66211 0L29.3457-67.1387L30.0293-67.1387L30.0293-70.459L28.125-70.459ZM11.6699-24.4629L46.9727-24.4629L46.2402-26.709L12.4512-26.709ZM55.127 0L57.7637 0L30.6152-70.459L29.4434-70.459L29.4434-67.1387Z"/>
  </g>
  <line id="Baseline-M" style="fill:none;stroke:#27AAE1;opacity:1;stroke-width:0.5;" x1="263" x2="3036" y1="1126" y2="1126"/>
  <line id="Capline-M" style="fill:none;stroke:#27AAE1;opacity:1;stroke-width:0.5;" x1="263" x2="3036" y1="1055.54" y2="1055.54"/>
  <g id="H-reference" style="fill:#27AAE1;stroke:none;" transform="matrix(1 0 0 1 339 1556)">
   <path d="M0.976562 0L3.66211 0L29.3457-67.1387L30.0293-67.1387L30.0293-70.459L28.125-70.459ZM11.6699-24.4629L46.9727-24.4629L46.2402-26.709L12.4512-26.709ZM55.127 0L57.7637 0L30.6152-70.459L29.4434-70.459L29.4434-67.1387Z"/>
  </g>
  <line id="Baseline-L" style="fill:none;stroke:#27AAE1;opacity:1;stroke-width:0.5;" x1="263" x2="3036" y1="1556" y2="1556"/>
  <line id="Capline-L" style="fill:none;stroke:#27AAE1;opacity:1;stroke-width:0.5;" x1="263" x2="3036" y1="1485.54" y2="1485.54"/>
  <line id="left-margin" style="fill:none;stroke:#00AEEF;stroke-width:0.5;opacity:1.0;" x1="1385.17" x2="1385.17" y1="1030.79" y2="1150.12"/>
  <line id="right-margin" style="fill:none;stroke:#00AEEF;stroke-width:0.5;opacity:1.0;" x1="1514.52" x2="1514.52" y1="1030.79" y2="1150.12"/>
 </g>
 <g id="Symbols">
  <g id="Black-L" transform="matrix(1 0 0 1 2840.63 1556)">
   <path d="M26.5625-32.7148Q31.25-32.7148 34.1309-35.5957Q37.0117-38.4766 37.0117-43.2129L37.0117-47.5586Q37.0117-55.8594 42.2119-60.5957Q47.4121-65.332 56.4941-65.332L82.8125-65.332L82.8125-51.7578Q82.8125-48.1934 84.8633-46.1182Q86.9141-44.043 90.3809-44.043Q92.041-44.043 93.3594-44.5801Q94.6777-45.1172 95.7031-45.9473L123.584-69.7266Q126.172-71.9238 126.147-75.0488Q126.123-78.1738 123.584-80.3711L95.7031-104.102Q94.6777-104.98 93.3594-105.493Q92.041-106.006 90.3809-106.006Q86.9141-106.006 84.8633-103.931Q82.8125-101.855 82.8125-98.291L82.8125-85.791L57.4219-85.791Q44.5801-85.791 35.3027-81.543Q26.0254-77.2949 21.0449-69.4092Q16.0645-61.5234 16.0645-50.5859L16.0645-43.2129Q16.0645-38.5254 18.9697-35.6201Q21.875-32.7148 26.5625-32.7148ZM158.936-44.0918Q154.199-44.0918 151.343-41.2109Q148.486-38.3301 148.486-33.5938L148.486-29.248Q148.486-20.9473 143.262-16.2109Q138.037-11.4746 129.004-11.4746L81.3965-11.4746L81.3965-25.1953Q81.3965-28.7598 79.3457-30.835Q77.2949-32.9102 73.8281-32.9102Q72.168-32.9102 70.8496-32.373Q69.5312-31.8359 68.5059-30.957L40.625-7.22656Q38.0371-4.98047 38.0615-1.85547Q38.0859 1.26953 40.625 3.41797L68.5059 27.1484Q69.5312 28.0273 70.8496 28.5645Q72.168 29.1016 73.8281 29.1016Q77.2949 29.1016 79.3457 27.0264Q81.3965 24.9512 81.3965 21.3867L81.3965 8.98438L128.027 8.98438Q140.918 8.98438 150.171 4.73633Q159.424 0.488281 164.404-7.39746Q169.385-15.2832 169.385-26.2207L169.385-33.5938Q169.385-38.2812 166.504-41.1865Q163.623-44.0918 158.936-44.0918ZM159.521-55.127Q164.014-55.127 166.748-57.5928Q169.482-60.0586 169.482-65.3809L169.482-95.5566Q169.482-100.488 166.309-103.54Q163.135-106.592 158.203-106.592Q154.346-106.592 151.44-105.42Q148.535-104.248 145.654-102.148L137.256-95.9961Q134.863-94.2383 133.936-92.7734Q133.008-91.3086 133.008-89.3066Q133.008-86.3281 134.863-84.5703Q136.719-82.8125 139.453-82.8125Q142.139-82.8125 144.141-84.4238L149.121-88.3789L149.561-88.3789L149.561-65.3809Q149.561-60.0586 152.295-57.5928Q155.029-55.127 159.521-55.127Z"/>
  </g>
  <g id="Heavy-L" transform="matrix(1 0 0 1 2546.55 1556)">
   <path d="M25.1953-32.8613Q29.248-32.8613 31.7871-35.376Q34.3262-37.8906 34.3262-41.9922L34.3262-46.6797Q34.3262-55.0781 39.5264-59.8633Q44.7266-64.6484 53.7598-64.6484L81.9824-64.6484L81.9824-50.7324Q81.9824-47.6074 83.7646-45.8008Q85.5469-43.9941 88.623-43.9941Q90.0879-43.9941 91.2598-44.4824Q92.4316-44.9707 93.4082-45.7031L120.264-68.4082Q122.607-70.3613 122.583-73.1445Q122.559-75.9277 120.264-77.8809L93.4082-100.586Q92.4316-101.367 91.2598-101.831Q90.0879-102.295 88.623-102.295Q85.5469-102.295 83.7646-100.488Q81.9824-98.6816 81.9824-95.5566L81.9824-82.4219L54.6387-82.4219Q42.7246-82.4219 34.0576-78.418Q25.3906-74.4141 20.7275-66.9678Q16.0645-59.5215 16.0645-49.1211L16.0645-41.9922Q16.0645-37.9395 18.6035-35.4004Q21.1426-32.8613 25.1953-32.8613ZM154.98-42.4316Q150.879-42.4316 148.364-39.917Q145.85-37.4023 145.85-33.3008L145.85-28.6133Q145.85-20.2148 140.649-15.4297Q135.449-10.6445 126.416-10.6445L78.7598-10.6445L78.7598-24.6094Q78.7598-27.7344 76.9775-29.541Q75.1953-31.3477 72.1191-31.3477Q70.7031-31.3477 69.5068-30.8838Q68.3105-30.4199 67.3828-29.6387L40.5273-6.98242Q38.1836-4.98047 38.1836-2.19727Q38.1836 0.585938 40.5273 2.53906L67.3828 25.1953Q68.3105 25.9766 69.5068 26.4648Q70.7031 26.9531 72.1191 26.9531Q75.1953 26.9531 76.9775 25.1465Q78.7598 23.3398 78.7598 20.2148L78.7598 7.17773L125.488 7.17773Q137.451 7.17773 146.094 3.14941Q154.736-0.878906 159.399-8.3252Q164.062-15.7715 164.062-26.123L164.062-33.3008Q164.062-37.3535 161.548-39.8926Q159.033-42.4316 154.98-42.4316ZM155.42-54.1992Q159.424-54.1992 161.816-56.3965Q164.209-58.5938 164.209-63.2324L164.209-93.2617Q164.209-97.7051 161.377-100.439Q158.545-103.174 154.15-103.174Q150.732-103.174 148.145-102.1Q145.557-101.025 142.969-99.1211L134.521-92.9199Q132.471-91.4062 131.689-90.1367Q130.908-88.8672 130.908-87.1094Q130.908-84.5215 132.52-82.9834Q134.131-81.4453 136.572-81.4453Q138.916-81.4453 140.723-82.9102L146.143-87.1582L146.631-87.1582L146.631-63.2324Q146.631-58.5938 149.048-56.3965Q151.465-54.1992 155.42-54.1992Z"/>
  </g>
  <g id="Bold-L" transform="matrix(1 0 0 1 2252.8 1556)">
   <path d="M23.6816-33.0078Q27.0508-33.0078 29.1748-35.1318Q31.2988-37.2559 31.2988-40.625L31.2988-45.752Q31.2988-54.1992 36.499-59.0332Q41.6992-63.8672 50.7324-63.8672L81.0547-63.8672L81.0547-49.6094Q81.0547-46.9727 82.5684-45.4834Q84.082-43.9941 86.6699-43.9941Q87.8906-43.9941 88.9404-44.3848Q89.9902-44.7754 90.8203-45.459L116.553-66.9434Q118.604-68.6523 118.579-71.0449Q118.555-73.4375 116.553-75.1465L90.8203-96.6309Q89.9902-97.3145 88.9404-97.7051Q87.8906-98.0957 86.6699-98.0957Q84.082-98.0957 82.5684-96.6064Q81.0547-95.1172 81.0547-92.4805L81.0547-78.7109L51.5625-78.7109Q40.6738-78.7109 32.7148-74.9756Q24.7559-71.2402 20.4102-64.2578Q16.0645-57.2754 16.0645-47.5586L16.0645-40.625Q16.0645-37.2559 18.1885-35.1318Q20.3125-33.0078 23.6816-33.0078ZM150.537-40.5762Q147.168-40.5762 145.068-38.4766Q142.969-36.377 142.969-32.959L142.969-27.8809Q142.969-19.4336 137.769-14.5996Q132.568-9.76562 123.535-9.76562L75.8789-9.76562L75.8789-24.0234Q75.8789-26.6602 74.3652-28.1494Q72.8516-29.6387 70.2637-29.6387Q69.043-29.6387 67.9932-29.248Q66.9434-28.8574 66.1133-28.125L40.3809-6.68945Q38.3301-4.93164 38.3301-2.53906Q38.3301-0.146484 40.3809 1.5625L66.1133 23.0469Q66.9434 23.7305 67.9932 24.1455Q69.043 24.5605 70.2637 24.5605Q72.8516 24.5605 74.3652 23.0469Q75.8789 21.5332 75.8789 18.8965L75.8789 5.12695L122.656 5.12695Q133.594 5.12695 141.553 1.36719Q149.512-2.39258 153.833-9.375Q158.154-16.3574 158.154-26.0742L158.154-32.959Q158.154-36.3281 156.03-38.4521Q153.906-40.5762 150.537-40.5762ZM150.879-53.1738Q154.248-53.1738 156.274-55.0781Q158.301-56.9824 158.301-60.791L158.301-90.7227Q158.301-94.5801 155.884-96.9482Q153.467-99.3164 149.658-99.3164Q146.68-99.3164 144.458-98.3887Q142.236-97.4609 139.941-95.752L131.445-89.502Q129.785-88.2812 129.15-87.207Q128.516-86.1328 128.516-84.668Q128.516-82.5684 129.883-81.25Q131.25-79.9316 133.398-79.9316Q135.352-79.9316 136.914-81.2012L142.871-85.8398L143.408-85.8398L143.408-60.791Q143.408-56.9824 145.435-55.0781Q147.461-53.1738 150.879-53.1738Z"/>
  </g>
  <g id="Semibold-L" transform="matrix(1 0 0 1 1958.13 1556)">
   <path d="M22.6562-33.1055Q25.5371-33.1055 27.3682-34.9365Q29.1992-36.7676 29.1992-39.6973L29.1992-45.0684Q29.1992-53.5645 34.3994-58.4229Q39.5996-63.2812 48.584-63.2812L80.4199-63.2812L80.4199-48.8281Q80.4199-46.5332 81.7139-45.2393Q83.0078-43.9453 85.3027-43.9453Q86.377-43.9453 87.3047-44.2871Q88.2324-44.6289 89.0625-45.2637L113.965-65.918Q115.82-67.4805 115.82-69.6045Q115.82-71.7285 113.965-73.2422L89.0625-93.8965Q88.2324-94.5312 87.3047-94.873Q86.377-95.2148 85.3027-95.2148Q83.0078-95.2148 81.7139-93.9453Q80.4199-92.6758 80.4199-90.3809L80.4199-76.123L49.4141-76.123Q39.2578-76.123 31.7627-72.5586Q24.2676-68.9941 20.166-62.3535Q16.0645-55.7129 16.0645-46.4355L16.0645-39.6973Q16.0645-36.8164 17.8955-34.9609Q19.7266-33.1055 22.6562-33.1055ZM147.461-39.3066Q144.58-39.3066 142.749-37.4756Q140.918-35.6445 140.918-32.7148L140.918-27.3438Q140.918-18.8477 135.742-13.9893Q130.566-9.13086 121.533-9.13086L73.8281-9.13086L73.8281-23.584Q73.8281-25.8789 72.5342-27.1729Q71.2402-28.4668 68.9453-28.4668Q67.8711-28.4668 66.9434-28.1006Q66.0156-27.7344 65.1855-27.0996L40.2832-6.44531Q38.4277-4.93164 38.4277-2.80762Q38.4277-0.683594 40.2832 0.830078L65.1855 21.5332Q66.0156 22.168 66.9434 22.5098Q67.8711 22.8516 68.9453 22.8516Q71.2402 22.8516 72.5342 21.582Q73.8281 20.3125 73.8281 17.9688L73.8281 3.71094L120.654 3.71094Q130.908 3.71094 138.379 0.146484Q145.85-3.41797 149.951-10.0586Q154.053-16.6992 154.053-25.9766L154.053-32.7148Q154.053-35.5957 152.222-37.4512Q150.391-39.3066 147.461-39.3066ZM147.705-52.4414Q150.684-52.4414 152.441-54.126Q154.199-55.8105 154.199-59.1309L154.199-88.916Q154.199-92.4316 152.051-94.5557Q149.902-96.6797 146.533-96.6797Q143.848-96.6797 141.87-95.8252Q139.893-94.9707 137.842-93.4082L129.297-87.1094Q127.881-86.084 127.393-85.1562Q126.904-84.2285 126.904-82.959Q126.904-81.1523 128.076-80.0293Q129.248-78.9062 131.152-78.9062Q132.861-78.9062 134.229-79.9805L140.576-84.8633L141.113-84.8633L141.113-59.1309Q141.113-55.8105 142.92-54.126Q144.727-52.4414 147.705-52.4414Z"/>
  </g>
  <g id="Medium-L" transform="matrix(1 0 0 1 1662.96 1556)">
   <path d="M21.8262-33.2031Q24.3652-33.2031 25.9766-34.8145Q27.5879-36.4258 27.5879-38.9648L27.5879-44.5312Q27.5879-53.0762 32.7881-57.9834Q37.9883-62.8906 47.0215-62.8906L79.9316-62.8906L79.9316-48.2422Q79.9316-46.1914 81.0791-45.0684Q82.2266-43.9453 84.2773-43.9453Q85.2539-43.9453 86.1084-44.2627Q86.9629-44.5801 87.6953-45.166L112.012-65.1855Q113.721-66.5527 113.721-68.4814Q113.721-70.4102 112.012-71.8262L87.6953-91.7969Q86.9629-92.4316 86.1084-92.7246Q85.2539-93.0176 84.2773-93.0176Q82.2266-93.0176 81.0791-91.9189Q79.9316-90.8203 79.9316-88.7695L79.9316-74.1211L47.8027-74.1211Q38.1836-74.1211 31.0547-70.7275Q23.9258-67.334 19.9951-60.9131Q16.0645-54.4922 16.0645-45.5566L16.0645-38.9648Q16.0645-36.4258 17.7002-34.8145Q19.3359-33.2031 21.8262-33.2031ZM145.166-38.3301Q142.627-38.3301 141.016-36.7188Q139.404-35.1074 139.404-32.5684L139.404-26.9531Q139.404-18.4082 134.204-13.5254Q129.004-8.64258 119.971-8.64258L72.3145-8.64258L72.3145-23.2422Q72.3145-25.293 71.167-26.416Q70.0195-27.5391 67.9199-27.5391Q66.9922-27.5391 66.1377-27.2217Q65.2832-26.9043 64.5508-26.3184L40.2344-6.29883Q38.5254-4.88281 38.501-2.97852Q38.4766-1.07422 40.2344 0.341797L64.5508 20.3613Q65.2832 20.9961 66.1377 21.3135Q66.9922 21.6309 67.9199 21.6309Q70.0195 21.6309 71.167 20.4834Q72.3145 19.3359 72.3145 17.2852L72.3145 2.63672L119.189 2.63672Q128.857 2.63672 135.986-0.78125Q143.115-4.19922 147.021-10.5957Q150.928-16.9922 150.928-25.9277L150.928-32.5684Q150.928-35.0586 149.316-36.6943Q147.705-38.3301 145.166-38.3301ZM145.312-51.9043Q147.998-51.9043 149.561-53.4424Q151.123-54.9805 151.123-57.8613L151.123-87.5977Q151.123-90.8203 149.17-92.749Q147.217-94.6777 144.141-94.6777Q141.748-94.6777 139.966-93.8965Q138.184-93.1152 136.279-91.6504L127.686-85.3027Q126.514-84.4238 126.074-83.5938Q125.635-82.7637 125.635-81.6895Q125.635-80.127 126.685-79.1016Q127.734-78.0762 129.492-78.0762Q130.957-78.0762 132.227-79.1016L138.818-84.1797L139.453-84.1797L139.453-57.8613Q139.453-54.9805 141.04-53.4424Q142.627-51.9043 145.312-51.9043Z"/>
  </g>
  <g id="Regular-L" transform="matrix(1 0 0 1 1368.28 1556)">
   <path d="M20.8008-33.3008Q22.8516-33.3008 24.1943-34.6436Q25.5371-35.9863 25.5371-38.0371L25.5371-43.8965Q25.5371-52.4902 30.7373-57.4219Q35.9375-62.3535 44.9219-62.3535L79.2969-62.3535L79.2969-47.4609Q79.2969-45.752 80.249-44.8242Q81.2012-43.8965 82.959-43.8965Q83.7402-43.8965 84.4971-44.165Q85.2539-44.4336 85.9375-44.9707L109.473-64.1602Q110.986-65.3809 110.986-67.041Q110.986-68.7012 109.473-69.9219L85.9375-89.1113Q85.2539-89.6484 84.4971-89.917Q83.7402-90.1855 82.959-90.1855Q81.2012-90.1855 80.249-89.2822Q79.2969-88.3789 79.2969-86.6699L79.2969-71.582L45.7031-71.582Q36.7676-71.582 30.1025-68.3594Q23.4375-65.1367 19.751-59.0576Q16.0645-52.9785 16.0645-44.4824L16.0645-38.0371Q16.0645-35.9863 17.4072-34.6436Q18.75-33.3008 20.8008-33.3008ZM142.139-37.0605Q140.088-37.0605 138.745-35.7178Q137.402-34.375 137.402-32.3242L137.402-26.4648Q137.402-17.8711 132.227-12.9395Q127.051-8.00781 118.018-8.00781L70.3125-8.00781L70.3125-22.8027Q70.3125-24.5117 69.3604-25.4395Q68.4082-26.3672 66.6504-26.3672Q65.8691-26.3672 65.1123-26.0986Q64.3555-25.8301 63.6719-25.293L40.1367-6.10352Q38.623-4.88281 38.5986-3.22266Q38.5742-1.5625 40.1367-0.341797L63.6719 18.8965Q64.3555 19.4336 65.1123 19.7021Q65.8691 19.9707 66.6504 19.9707Q68.4082 19.9707 69.3604 19.043Q70.3125 18.1152 70.3125 16.4062L70.3125 1.26953L117.236 1.26953Q126.221 1.26953 132.886-1.97754Q139.551-5.22461 143.213-11.3037Q146.875-17.3828 146.875-25.8789L146.875-32.3242Q146.875-34.375 145.532-35.7178Q144.189-37.0605 142.139-37.0605ZM142.188-51.1719Q144.482-51.1719 145.776-52.5146Q147.07-53.8574 147.07-56.2012L147.07-85.8398Q147.07-88.6719 145.41-90.3564Q143.75-92.041 141.064-92.041Q138.965-92.041 137.427-91.3574Q135.889-90.6738 134.229-89.3555L125.586-82.959Q124.658-82.2754 124.341-81.5918Q124.023-80.9082 124.023-80.0293Q124.023-78.7598 124.902-77.9053Q125.781-77.0508 127.295-77.0508Q128.516-77.0508 129.639-77.9297L136.572-83.252L137.207-83.252L137.207-56.2012Q137.207-53.8574 138.55-52.5146Q139.893-51.1719 142.188-51.1719Z"/>
  </g>
  <g id="Light-L" transform="matrix(1 0 0 1 1074.08 1556)">
   <path d="M19.9707-33.7402Q21.7285-33.7402 22.8271-34.8389Q23.9258-35.9375 23.9258-37.6465L23.9258-43.3594Q23.9258-52.5391 29.1992-57.5928Q34.4727-62.6465 44.043-62.6465L76.6602-62.6465L76.6602-47.5586Q76.6602-46.1426 77.4658-45.3613Q78.2715-44.5801 79.7852-44.5801Q80.4688-44.5801 81.0791-44.7998Q81.6895-45.0195 82.373-45.5078L105.566-63.9648Q106.982-65.0879 106.982-66.6992Q106.982-68.3105 105.566-69.4336L82.373-87.8418Q81.6895-88.3789 81.0791-88.5986Q80.4688-88.8184 79.7852-88.8184Q78.2715-88.8184 77.4658-88.0615Q76.6602-87.3047 76.6602-85.8398L76.6602-70.166L44.5312-70.166Q35.9863-70.166 29.5898-67.0898Q23.1934-64.0137 19.6289-58.1055Q16.0645-52.1973 16.0645-43.75L16.0645-37.6465Q16.0645-35.9375 17.1631-34.8389Q18.2617-33.7402 19.9707-33.7402ZM137.939-36.6211Q136.23-36.6211 135.132-35.5225Q134.033-34.4238 134.033-32.666L134.033-26.9531Q134.033-17.7734 128.76-12.7441Q123.486-7.71484 113.916-7.71484L68.1152-7.71484L68.1152-22.7051Q68.1152-24.1699 67.334-24.9268Q66.5527-25.6836 65.0391-25.6836Q64.3555-25.6836 63.7207-25.4639Q63.0859-25.2441 62.4512-24.7559L39.209-6.29883Q37.793-5.17578 37.793-3.56445Q37.793-1.95312 39.209-0.830078L62.4512 17.627Q63.0859 18.1152 63.7207 18.335Q64.3555 18.5547 65.0391 18.5547Q66.5527 18.5547 67.334 17.7734Q68.1152 16.9922 68.1152 15.5762L68.1152-0.146484L113.428-0.146484Q122.021-0.146484 128.418-3.24707Q134.814-6.34766 138.354-12.2559Q141.895-18.1641 141.895-26.6113L141.895-32.666Q141.895-34.4238 140.796-35.5225Q139.697-36.6211 137.939-36.6211ZM137.988-51.416Q139.844-51.416 140.918-52.5391Q141.992-53.6621 141.992-55.5176L141.992-85.5469Q141.992-87.8906 140.601-89.2578Q139.209-90.625 137.012-90.625Q135.449-90.625 134.18-90.1123Q132.91-89.5996 131.592-88.5742L122.656-82.1777Q121.875-81.6406 121.606-81.0791Q121.338-80.5176 121.338-79.7852Q121.338-78.7109 122.046-78.0029Q122.754-77.2949 124.023-77.2949Q125.098-77.2949 126.074-78.0273L133.203-83.3496L133.936-83.3496L133.936-55.5176Q133.936-53.6621 135.034-52.5391Q136.133-51.416 137.988-51.416Z"/>
  </g>
  <g id="Thin-L" transform="matrix(1 0 0 1 780.714 1556)">
   <path d="M18.8965-34.3262Q20.2637-34.3262 21.0205-35.083Q21.7773-35.8398 21.7773-37.1582L21.7773-42.7246Q21.7773-52.6367 27.1729-57.8125Q32.5684-62.9883 42.9199-62.9883L73.1934-62.9883L73.1934-47.7051Q73.1934-46.6309 73.7793-46.0449Q74.3652-45.459 75.5859-45.459Q76.123-45.459 76.5869-45.6299Q77.0508-45.8008 77.6367-46.2891L100.439-63.7207Q101.758-64.6973 101.733-66.2598Q101.709-67.8223 100.439-68.7988L77.6367-86.1816Q77.0508-86.6699 76.5869-86.8164Q76.123-86.9629 75.5859-86.9629Q74.3652-86.9629 73.7793-86.4014Q73.1934-85.8398 73.1934-84.7656L73.1934-68.3105L43.0176-68.3105Q34.9609-68.3105 28.9062-65.4053Q22.8516-62.5 19.458-56.8115Q16.0645-51.123 16.0645-42.7734L16.0645-37.1582Q16.0645-35.8398 16.8213-35.083Q17.5781-34.3262 18.8965-34.3262ZM132.422-35.9863Q131.104-35.9863 130.347-35.2051Q129.59-34.4238 129.59-33.1543L129.59-27.6367Q129.59-17.6758 124.219-12.5Q118.848-7.32422 108.447-7.32422L65.2344-7.32422L65.2344-22.6074Q65.2344-23.6816 64.6484-24.2432Q64.0625-24.8047 62.8906-24.8047Q62.3047-24.8047 61.8652-24.6582Q61.4258-24.5117 60.791-24.0234L38.0371-6.54297Q36.7188-5.56641 36.7188-4.02832Q36.7188-2.49023 38.0371-1.51367L60.791 15.918Q61.4258 16.3574 61.8652 16.5283Q62.3047 16.6992 62.8906 16.6992Q64.0625 16.6992 64.6484 16.1133Q65.2344 15.5273 65.2344 14.4531L65.2344-1.95312L108.35-1.95312Q116.406-1.95312 122.485-4.88281Q128.564-7.8125 131.934-13.501Q135.303-19.1895 135.303-27.5391L135.303-33.1543Q135.303-34.4238 134.521-35.2051Q133.74-35.9863 132.422-35.9863ZM132.471-51.7578Q133.691-51.7578 134.521-52.5879Q135.352-53.418 135.352-54.6387L135.352-85.1562Q135.352-86.8652 134.253-87.8174Q133.154-88.7695 131.689-88.7695Q130.762-88.7695 129.858-88.4766Q128.955-88.1836 128.125-87.5488L118.75-81.1523Q118.213-80.8105 117.993-80.3955Q117.773-79.9805 117.773-79.4434Q117.773-78.7109 118.262-78.1494Q118.75-77.5879 119.727-77.5879Q120.557-77.5879 121.289-78.125L128.809-83.4473L129.59-83.4473L129.59-54.6387Q129.59-53.418 130.396-52.5879Q131.201-51.7578 132.471-51.7578Z"/>
  </g>
  <g id="Ultralight-L" transform="matrix(1 0 0 1 485.712 1556)">
   <path d="M18.3594-34.6191Q19.4824-34.6191 20.0684-35.2051Q20.6543-35.791 20.6543-36.9141L20.6543-42.334Q20.6543-52.6855 26.123-57.9346Q31.5918-63.1836 42.334-63.1836L71.4355-63.1836L71.4355-47.8027Q71.4355-46.875 71.9238-46.4111Q72.4121-45.9473 73.4375-45.9473Q73.9258-45.9473 74.2676-46.0693Q74.6094-46.1914 75.2441-46.6309L97.8027-63.623Q99.0234-64.502 98.999-66.04Q98.9746-67.5781 97.8027-68.457L75.2441-85.3516Q74.6094-85.791 74.2676-85.9131Q73.9258-86.0352 73.4375-86.0352Q72.4121-86.0352 71.9238-85.5713Q71.4355-85.1074 71.4355-84.2285L71.4355-67.3828L42.1875-67.3828Q34.4238-67.3828 28.54-64.5508Q22.6562-61.7188 19.3604-56.1523Q16.0645-50.5859 16.0645-42.2363L16.0645-36.9141Q16.0645-35.791 16.6504-35.2051Q17.2363-34.6191 18.3594-34.6191ZM129.59-35.6934Q128.516-35.6934 127.93-35.083Q127.344-34.4727 127.344-33.3496L127.344-27.9785Q127.344-17.627 121.875-12.3535Q116.406-7.08008 105.664-7.08008L63.7695-7.08008L63.7695-22.5098Q63.7695-23.4375 63.2812-23.9014Q62.793-24.3652 61.7676-24.3652Q61.2793-24.3652 60.9375-24.2432Q60.5957-24.1211 59.9609-23.6816L37.4023-6.68945Q36.1816-5.81055 36.1816-4.27246Q36.1816-2.73438 37.4023-1.85547L59.9609 15.0391Q60.5957 15.4785 60.9375 15.625Q61.2793 15.7715 61.7676 15.7715Q62.793 15.7715 63.2812 15.2832Q63.7695 14.7949 63.7695 13.916L63.7695-2.92969L105.762-2.92969Q113.574-2.92969 119.458-5.7373Q125.342-8.54492 128.638-14.1357Q131.934-19.7266 131.934-28.0273L131.934-33.3496Q131.934-34.4727 131.323-35.083Q130.713-35.6934 129.59-35.6934ZM129.59-51.9043Q130.518-51.9043 131.201-52.5879Q131.885-53.2715 131.885-54.1992L131.885-84.9121Q131.885-86.377 130.981-87.1094Q130.078-87.8418 128.955-87.8418Q128.369-87.8418 127.661-87.6465Q126.953-87.4512 126.318-87.0605L116.797-80.6152Q116.309-80.3711 116.113-80.0293Q115.918-79.6875 115.918-79.248Q115.918-78.6621 116.309-78.1982Q116.699-77.7344 117.529-77.7344Q118.213-77.7344 118.896-78.1738L126.514-83.4961L127.344-83.4961L127.344-54.1992Q127.344-53.2715 128.003-52.5879Q128.662-51.9043 129.59-51.9043Z"/>
  </g>
  <g id="Black-M" transform="matrix(1 0 0 1 2860.08 1126)">
   <path d="M21.4844-33.3008Q25.5371-33.3008 27.9785-35.7666Q30.4199-38.2324 30.4199-42.334L30.4199-45.3613Q30.4199-51.9043 34.4971-55.5908Q38.5742-59.2773 45.8008-59.2773L64.0137-59.2773L64.0137-48.9258Q64.0137-45.8984 65.7715-44.1162Q67.5293-42.334 70.459-42.334Q71.9238-42.334 72.998-42.7734Q74.0723-43.2129 74.9512-43.9453L97.2656-63.0371Q99.4629-64.8926 99.4629-67.6025Q99.4629-70.3125 97.2656-72.168L74.9512-91.2109Q74.0723-91.8945 72.998-92.3584Q71.9238-92.8223 70.459-92.8223Q67.5293-92.8223 65.7715-91.04Q64.0137-89.2578 64.0137-86.1816L64.0137-76.8066L46.4844-76.8066Q35.8398-76.8066 28.2227-73.3643Q20.6055-69.9219 16.5283-63.4766Q12.4512-57.0312 12.4512-48.0957L12.4512-42.334Q12.4512-38.2812 14.917-35.791Q17.3828-33.3008 21.4844-33.3008ZM125.146-43.3594Q121.045-43.3594 118.604-40.8936Q116.162-38.4277 116.162-34.3262L116.162-31.2988Q116.162-24.7559 112.085-21.0938Q108.008-17.4316 100.781-17.4316L64.5508-17.4316L64.5508-27.8809Q64.5508-30.957 62.8174-32.7393Q61.084-34.5215 58.1055-34.5215Q56.6895-34.5215 55.5908-34.082Q54.4922-33.6426 53.6621-32.9102L31.2988-13.8184Q29.1016-11.9141 29.126-9.2041Q29.1504-6.49414 31.2988-4.6875L53.6621 14.3555Q54.4922 15.0879 55.5908 15.5273Q56.6895 15.9668 58.1055 15.9668Q61.084 15.9668 62.8174 14.1846Q64.5508 12.4023 64.5508 9.375L64.5508 0.146484L100.098 0.146484Q110.742 0.146484 118.359-3.2959Q125.977-6.73828 130.054-13.1836Q134.131-19.6289 134.131-28.5645L134.131-34.3262Q134.131-38.4277 131.665-40.8936Q129.199-43.3594 125.146-43.3594ZM125.684-51.5137Q129.492-51.5137 131.836-53.5889Q134.18-55.6641 134.18-60.2051L134.18-83.8379Q134.18-87.9395 131.47-90.4785Q128.76-93.0176 124.707-93.0176Q121.533-93.0176 119.092-92.0654Q116.65-91.1133 114.258-89.4043L107.764-84.668Q105.615-83.1543 104.81-81.9092Q104.004-80.6641 104.004-78.9062Q104.004-76.3672 105.566-74.8535Q107.129-73.3398 109.424-73.3398Q111.719-73.3398 113.379-74.6582L116.943-77.4902L117.285-77.4902L117.285-60.2051Q117.285-55.6641 119.629-53.5889Q121.973-51.5137 125.684-51.5137Z"/>
  </g>
  <g id="Heavy-M" transform="matrix(1 0 0 1 2565.42 1126)">
   <path d="M20.3125-33.3496Q23.8281-33.3496 25.9766-35.498Q28.125-37.6465 28.125-41.2109L28.125-44.6289Q28.125-51.123 32.1777-54.834Q36.2305-58.5449 43.3105-58.5449L63.7695-58.5449L63.7695-47.9004Q63.7695-45.2637 65.3076-43.7012Q66.8457-42.1387 69.4336-42.1387Q70.7031-42.1387 71.6797-42.5293Q72.6562-42.9199 73.4375-43.6035L94.873-61.8164Q96.8262-63.4277 96.8262-65.8203Q96.8262-68.2129 94.873-69.873L73.4375-88.0371Q72.6562-88.6719 71.6797-89.0625Q70.7031-89.4531 69.4336-89.4531Q66.8457-89.4531 65.3076-87.915Q63.7695-86.377 63.7695-83.6914L63.7695-73.8281L44.043-73.8281Q34.1797-73.8281 27.124-70.5811Q20.0684-67.334 16.2598-61.2793Q12.4512-55.2246 12.4512-46.875L12.4512-41.2109Q12.4512-37.6953 14.5996-35.5225Q16.748-33.3496 20.3125-33.3496ZM122.168-41.8457Q118.604-41.8457 116.455-39.6729Q114.307-37.5 114.307-33.9355L114.307-30.5664Q114.307-24.0723 110.278-20.3857Q106.25-16.6992 99.1211-16.6992L62.4512-16.6992L62.4512-27.3438Q62.4512-30.0781 60.9375-31.6162Q59.4238-33.1543 56.7871-33.1543Q55.5664-33.1543 54.5654-32.7637Q53.5645-32.373 52.832-31.6895L31.3477-13.5254Q29.3945-11.8164 29.4189-9.44824Q29.4434-7.08008 31.3477-5.46875L52.832 12.6953Q53.5645 13.3789 54.5654 13.7695Q55.5664 14.1602 56.7871 14.1602Q59.4238 14.1602 60.9375 12.6221Q62.4512 11.084 62.4512 8.39844L62.4512-1.31836L98.4375-1.31836Q108.252-1.31836 115.332-4.56543Q122.412-7.8125 126.221-13.8672Q130.029-19.9219 130.029-28.3203L130.029-33.9355Q130.029-37.5 127.856-39.6729Q125.684-41.8457 122.168-41.8457ZM122.607-50.5371Q125.977-50.5371 128.027-52.417Q130.078-54.2969 130.078-58.252L130.078-81.6406Q130.078-85.4004 127.661-87.6709Q125.244-89.9414 121.631-89.9414Q118.75-89.9414 116.577-89.0869Q114.404-88.2324 112.207-86.6211L105.713-81.8359Q103.857-80.5176 103.174-79.4434Q102.49-78.3691 102.49-76.8555Q102.49-74.6094 103.882-73.291Q105.273-71.9727 107.324-71.9727Q109.326-71.9727 110.791-73.1445L114.746-76.2695L115.137-76.2695L115.137-58.252Q115.137-54.2969 117.212-52.417Q119.287-50.5371 122.607-50.5371Z"/>
  </g>
  <g id="Bold-M" transform="matrix(1 0 0 1 2270.98 1126)">
   <path d="M19.043-33.3984Q21.9727-33.3984 23.7793-35.2295Q25.5859-37.0605 25.5859-39.9902L25.5859-43.7988Q25.5859-50.2441 29.6143-53.9795Q33.6426-57.7148 40.5762-57.7148L63.4766-57.7148L63.4766-46.7773Q63.4766-44.5312 64.7705-43.2373Q66.0645-41.9434 68.3105-41.9434Q69.3359-41.9434 70.2148-42.2852Q71.0938-42.627 71.7773-43.2129L92.1875-60.4004Q93.8965-61.8164 93.8965-63.8428Q93.8965-65.8691 92.1875-67.2852L71.7773-84.4727Q71.0938-85.0586 70.2148-85.4004Q69.3359-85.7422 68.3105-85.7422Q66.0645-85.7422 64.7705-84.4482Q63.4766-83.1543 63.4766-80.8594L63.4766-70.5078L41.3086-70.5078Q32.373-70.5078 25.9277-67.5049Q19.4824-64.502 15.9668-58.8867Q12.4512-53.2715 12.4512-45.459L12.4512-39.9902Q12.4512-37.0605 14.2822-35.2295Q16.1133-33.3984 19.043-33.3984ZM118.848-40.1367Q115.918-40.1367 114.111-38.3301Q112.305-36.5234 112.305-33.5449L112.305-29.7363Q112.305-23.291 108.276-19.5801Q104.248-15.8691 97.3145-15.8691L60.1562-15.8691L60.1562-26.7578Q60.1562-29.0527 58.8867-30.3467Q57.6172-31.6406 55.3711-31.6406Q54.2969-31.6406 53.418-31.2988Q52.5391-30.957 51.8555-30.3711L31.4453-13.1836Q29.7852-11.7188 29.7852-9.7168Q29.7852-7.71484 31.4453-6.29883L51.8555 10.8887Q52.5391 11.4746 53.418 11.8164Q54.2969 12.1582 55.3711 12.1582Q57.6172 12.1582 58.8867 10.8643Q60.1562 9.57031 60.1562 7.32422L60.1562-3.02734L96.582-3.02734Q105.469-3.02734 111.938-6.03027Q118.408-9.0332 121.924-14.6729Q125.439-20.3125 125.439-28.0762L125.439-33.5449Q125.439-36.5234 123.608-38.3301Q121.777-40.1367 118.848-40.1367ZM119.141-49.5117Q122.07-49.5117 123.804-51.123Q125.537-52.7344 125.537-56.0547L125.537-79.248Q125.537-82.5195 123.462-84.5215Q121.387-86.5234 118.164-86.5234Q115.625-86.5234 113.745-85.7422Q111.865-84.9609 109.912-83.5449L103.369-78.6621Q101.904-77.6367 101.367-76.709Q100.83-75.7812 100.83-74.5117Q100.83-72.7051 102.002-71.582Q103.174-70.459 104.98-70.459Q106.641-70.459 107.959-71.4844L112.354-74.9512L112.744-74.9512L112.744-56.0547Q112.744-52.7344 114.502-51.123Q116.26-49.5117 119.141-49.5117Z"/>
  </g>
  <g id="Semibold-M" transform="matrix(1 0 0 1 1975.84 1126)">
   <path d="M18.1641-33.3984Q20.6543-33.3984 22.2412-35.0098Q23.8281-36.6211 23.8281-39.1113L23.8281-43.2129Q23.8281-49.6094 27.832-53.3691Q31.8359-57.1289 38.623-57.1289L63.2812-57.1289L63.2812-45.9961Q63.2812-44.043 64.4043-42.9199Q65.5273-41.7969 67.4805-41.7969Q68.4082-41.7969 69.1895-42.1143Q69.9707-42.4316 70.6055-42.9688L90.2832-59.4238Q91.8457-60.6934 91.8457-62.4512Q91.8457-64.209 90.2832-65.5273L70.6055-82.0312Q69.9707-82.5195 69.1895-82.8369Q68.4082-83.1543 67.4805-83.1543Q65.5273-83.1543 64.4043-82.0312Q63.2812-80.9082 63.2812-78.9062L63.2812-68.2129L39.4043-68.2129Q31.1035-68.2129 25.0732-65.3564Q19.043-62.5 15.7471-57.1777Q12.4512-51.8555 12.4512-44.4824L12.4512-39.1113Q12.4512-36.6211 14.0381-35.0098Q15.625-33.3984 18.1641-33.3984ZM116.553-38.9648Q114.014-38.9648 112.451-37.3779Q110.889-35.791 110.889-33.252L110.889-29.1504Q110.889-22.7539 106.885-19.0186Q102.881-15.2832 95.9961-15.2832L58.5449-15.2832L58.5449-26.3672Q58.5449-28.3691 57.4219-29.4678Q56.2988-30.5664 54.3457-30.5664Q53.418-30.5664 52.6123-30.2734Q51.8066-29.9805 51.2207-29.4434L31.4941-12.9395Q29.9805-11.6699 29.9805-9.8877Q29.9805-8.10547 31.4941-6.88477L51.2207 9.61914Q51.8066 10.1562 52.6123 10.4736Q53.418 10.791 54.3457 10.791Q56.2988 10.791 57.4219 9.66797Q58.5449 8.54492 58.5449 6.5918L58.5449-4.15039L95.2637-4.15039Q103.564-4.15039 109.619-7.00684Q115.674-9.86328 118.97-15.1855Q122.266-20.5078 122.266-27.8809L122.266-33.252Q122.266-35.791 120.654-37.3779Q119.043-38.9648 116.553-38.9648ZM116.748-48.7305Q119.336-48.7305 120.874-50.1953Q122.412-51.6602 122.412-54.4922L122.412-77.5391Q122.412-80.5664 120.532-82.373Q118.652-84.1797 115.771-84.1797Q113.477-84.1797 111.792-83.4473Q110.107-82.7148 108.301-81.3965L101.758-76.4648Q100.537-75.5859 100.098-74.7803Q99.6582-73.9746 99.6582-72.9004Q99.6582-71.3379 100.708-70.3613Q101.758-69.3848 103.32-69.3848Q104.785-69.3848 105.957-70.3125L110.645-74.0234L111.084-74.0234L111.084-54.4922Q111.084-51.6602 112.622-50.1953Q114.16-48.7305 116.748-48.7305Z"/>
  </g>
  <g id="Medium-M" transform="matrix(1 0 0 1 1680.32 1126)">
   <path d="M17.4805-33.3984Q19.6289-33.3984 21.0693-34.8389Q22.5098-36.2793 22.5098-38.4277L22.5098-42.8223Q22.5098-49.1211 26.4893-52.9053Q30.4688-56.6895 37.207-56.6895L63.1348-56.6895L63.1348-45.4102Q63.1348-43.6523 64.1357-42.6758Q65.1367-41.6992 66.8945-41.6992Q67.6758-41.6992 68.4082-41.9678Q69.1406-42.2363 69.7266-42.7246L88.916-58.6914Q90.2832-59.8633 90.2832-61.4258Q90.2832-62.9883 88.916-64.1602L69.7266-80.1758Q69.1406-80.6641 68.4082-80.9082Q67.6758-81.1523 66.8945-81.1523Q65.1367-81.1523 64.1357-80.2002Q63.1348-79.248 63.1348-77.4414L63.1348-66.4551L37.9395-66.4551Q30.1758-66.4551 24.4385-63.7207Q18.7012-60.9863 15.5762-55.9082Q12.4512-50.8301 12.4512-43.75L12.4512-38.4277Q12.4512-36.2793 13.8672-34.8389Q15.2832-33.3984 17.4805-33.3984ZM114.795-38.0859Q112.598-38.0859 111.206-36.6699Q109.814-35.2539 109.814-33.0566L109.814-28.7109Q109.814-22.3633 105.835-18.6279Q101.855-14.8926 95.0684-14.8926L57.3242-14.8926L57.3242-26.0254Q57.3242-27.832 56.3477-28.7842Q55.3711-29.7363 53.5645-29.7363Q52.7832-29.7363 52.0264-29.4922Q51.2695-29.248 50.6836-28.7598L31.543-12.793Q30.1758-11.5723 30.1758-10.0098Q30.1758-8.44727 31.543-7.32422L50.6836 8.69141Q51.2695 9.17969 52.0264 9.44824Q52.7832 9.7168 53.5645 9.7168Q55.3711 9.7168 56.3477 8.74023Q57.3242 7.76367 57.3242 6.00586L57.3242-5.0293L94.2871-5.0293Q102.1-5.0293 107.837-7.76367Q113.574-10.498 116.699-15.6006Q119.824-20.7031 119.824-27.7344L119.824-33.0566Q119.824-35.2539 118.408-36.6699Q116.992-38.0859 114.795-38.0859ZM114.941-48.1934Q117.285-48.1934 118.652-49.5361Q120.02-50.8789 120.02-53.3691L120.02-76.2695Q120.02-79.0527 118.335-80.7129Q116.65-82.373 113.965-82.373Q111.865-82.373 110.303-81.6895Q108.74-81.0059 107.08-79.7363L100.537-74.8047Q99.5117-74.0723 99.1455-73.3398Q98.7793-72.6074 98.7793-71.6797Q98.7793-70.3125 99.707-69.4336Q100.635-68.5547 102.1-68.5547Q103.369-68.5547 104.443-69.4336L109.375-73.3398L109.814-73.3398L109.814-53.3691Q109.814-50.8789 111.206-49.5361Q112.598-48.1934 114.941-48.1934Z"/>
  </g>
  <g id="Regular-M" transform="matrix(1 0 0 1 1385.17 1126)">
   <path d="M16.6016-33.4473Q18.3594-33.4473 19.5557-34.6436Q20.752-35.8398 20.752-37.5977L20.752-42.2363Q20.752-48.5352 24.707-52.3193Q28.6621-56.1035 35.3027-56.1035L62.9395-56.1035L62.9395-44.6289Q62.9395-43.1641 63.7695-42.3584Q64.5996-41.5527 66.1133-41.5527Q66.748-41.5527 67.4072-41.7969Q68.0664-42.041 68.6035-42.4805L87.0605-57.7637Q88.2812-58.7402 88.2812-60.0586Q88.2812-61.377 87.0605-62.4023L68.6035-77.7344Q68.0664-78.1738 67.4072-78.3936Q66.748-78.6133 66.1133-78.6133Q64.5996-78.6133 63.7695-77.832Q62.9395-77.0508 62.9395-75.5371L62.9395-64.209L36.084-64.209Q28.9062-64.209 23.6084-61.6211Q18.3105-59.0332 15.3809-54.248Q12.4512-49.4629 12.4512-42.8223L12.4512-37.5977Q12.4512-35.8398 13.623-34.6436Q14.7949-33.4473 16.6016-33.4473ZM112.549-36.9141Q110.742-36.9141 109.57-35.7422Q108.398-34.5703 108.398-32.7637L108.398-28.125Q108.398-21.8262 104.443-18.0664Q100.488-14.3066 93.7988-14.3066L55.7129-14.3066L55.7129-25.6348Q55.7129-27.1484 54.9072-27.9297Q54.1016-28.7109 52.5879-28.7109Q51.9043-28.7109 51.2451-28.4912Q50.5859-28.2715 50.0488-27.832L31.5918-12.5488Q30.4199-11.5234 30.3955-10.2051Q30.3711-8.88672 31.5918-7.91016L50.0488 7.42188Q50.5859 7.86133 51.2451 8.10547Q51.9043 8.34961 52.5879 8.34961Q54.1016 8.34961 54.9072 7.54395Q55.7129 6.73828 55.7129 5.27344L55.7129-6.15234L93.0176-6.15234Q100.195-6.15234 105.518-8.74023Q110.84-11.3281 113.77-16.1377Q116.699-20.9473 116.699-27.5391L116.699-32.7637Q116.699-34.5703 115.503-35.7422Q114.307-36.9141 112.549-36.9141ZM112.598-47.4609Q114.6-47.4609 115.747-48.6328Q116.895-49.8047 116.895-51.8555L116.895-74.6094Q116.895-77.0996 115.43-78.5645Q113.965-80.0293 111.621-80.0293Q109.717-80.0293 108.374-79.4189Q107.031-78.8086 105.518-77.6367L98.9746-72.6562Q98.1934-72.0703 97.9248-71.46Q97.6562-70.8496 97.6562-70.1172Q97.6562-68.9941 98.4375-68.2617Q99.2188-67.5293 100.488-67.5293Q101.562-67.5293 102.49-68.2617L107.715-72.4121L108.203-72.4121L108.203-51.8555Q108.203-49.8047 109.375-48.6328Q110.547-47.4609 112.598-47.4609Z"/>
  </g>
  <g id="Light-M" transform="matrix(1 0 0 1 1090.73 1126)">
   <path d="M15.8691-33.8379Q17.334-33.8379 18.3105-34.8145Q19.2871-35.791 19.2871-37.2559L19.2871-41.748Q19.2871-48.584 23.3154-52.4658Q27.3438-56.3477 34.5215-56.3477L60.5957-56.3477L60.5957-44.7266Q60.5957-43.5059 61.2793-42.8467Q61.9629-42.1875 63.2324-42.1875Q63.8184-42.1875 64.3555-42.3828Q64.8926-42.5781 65.4297-42.9688L83.5449-57.6172Q84.7168-58.4961 84.7168-59.7656Q84.7168-61.0352 83.5449-61.9629L65.4297-76.6113Q64.8926-77.002 64.3555-77.1973Q63.8184-77.3926 63.2324-77.3926Q61.9629-77.3926 61.2793-76.7334Q60.5957-76.0742 60.5957-74.8047L60.5957-62.9395L35.0586-62.9395Q28.2227-62.9395 23.1445-60.4736Q18.0664-58.0078 15.2588-53.3691Q12.4512-48.7305 12.4512-42.1387L12.4512-37.2559Q12.4512-35.791 13.4033-34.8145Q14.3555-33.8379 15.8691-33.8379ZM108.789-36.5234Q107.275-36.5234 106.323-35.5713Q105.371-34.6191 105.371-33.1055L105.371-28.5645Q105.371-21.7285 101.343-17.8711Q97.3145-14.0137 90.0879-14.0137L53.7598-14.0137L53.7598-25.5371Q53.7598-26.8066 53.0762-27.4658Q52.3926-28.125 51.123-28.125Q50.5371-28.125 50-27.9297Q49.4629-27.7344 48.9258-27.3438L30.8105-12.7441Q29.6875-11.8164 29.6631-10.5225Q29.6387-9.22852 30.8105-8.34961L48.9258 6.29883Q49.4629 6.68945 50 6.88477Q50.5371 7.08008 51.123 7.08008Q52.3926 7.08008 53.0762 6.4209Q53.7598 5.76172 53.7598 4.54102L53.7598-7.42188L89.5996-7.42188Q96.4355-7.42188 101.514-9.86328Q106.592-12.3047 109.399-16.9678Q112.207-21.6309 112.207-28.1738L112.207-33.1055Q112.207-34.6191 111.255-35.5713Q110.303-36.5234 108.789-36.5234ZM108.838-47.6562Q110.449-47.6562 111.401-48.6328Q112.354-49.6094 112.354-51.2695L112.354-74.3652Q112.354-76.416 111.133-77.5879Q109.912-78.7598 108.008-78.7598Q106.543-78.7598 105.444-78.2959Q104.346-77.832 103.174-76.9531L96.3379-71.9727Q95.7031-71.4844 95.459-70.9961Q95.2148-70.5078 95.2148-69.873Q95.2148-68.9453 95.8496-68.335Q96.4844-67.7246 97.5586-67.7246Q98.4863-67.7246 99.2676-68.3594L104.736-72.4609L105.273-72.4609L105.273-51.2695Q105.273-49.6094 106.226-48.6328Q107.178-47.6562 108.838-47.6562Z"/>
  </g>
  <g id="Thin-M" transform="matrix(1 0 0 1 797.023 1126)">
   <path d="M14.8926-34.375Q16.0156-34.375 16.6748-35.0586Q17.334-35.7422 17.334-36.8164L17.334-41.1621Q17.334-48.6816 21.4844-52.6855Q25.6348-56.6895 33.4961-56.6895L57.4707-56.6895L57.4707-44.873Q57.4707-43.9941 57.9834-43.5059Q58.4961-43.0176 59.4727-43.0176Q59.9121-43.0176 60.3027-43.1396Q60.6934-43.2617 61.1816-43.6035L78.9551-57.373Q79.9805-58.1543 79.9805-59.375Q79.9805-60.5957 78.9551-61.377L61.1816-75.0977Q60.6934-75.4883 60.3027-75.6104Q59.9121-75.7324 59.4727-75.7324Q58.4961-75.7324 57.9834-75.2441Q57.4707-74.7559 57.4707-73.8281L57.4707-61.2793L33.6426-61.2793Q27.2949-61.2793 22.5342-58.9844Q17.7734-56.6895 15.1123-52.2217Q12.4512-47.7539 12.4512-41.2598L12.4512-36.8164Q12.4512-35.7422 13.1104-35.0586Q13.7695-34.375 14.8926-34.375ZM103.809-35.9863Q102.734-35.9863 102.075-35.3027Q101.416-34.6191 101.416-33.4961L101.416-29.1992Q101.416-21.6309 97.2656-17.6514Q93.1152-13.6719 85.2051-13.6719L51.1719-13.6719L51.1719-25.4395Q51.1719-26.3672 50.6592-26.8555Q50.1465-27.3438 49.2188-27.3438Q48.6816-27.3438 48.3154-27.2217Q47.9492-27.0996 47.4609-26.709L29.7363-12.9883Q28.7109-12.1582 28.6865-10.9375Q28.6621-9.7168 29.7363-8.93555L47.4609 4.78516Q47.9492 5.12695 48.3154 5.27344Q48.6816 5.41992 49.2188 5.41992Q50.1465 5.41992 50.6592 4.90723Q51.1719 4.39453 51.1719 3.56445L51.1719-9.08203L85.0586-9.08203Q91.4551-9.08203 96.2158-11.377Q100.977-13.6719 103.638-18.1152Q106.299-22.5586 106.299-29.0527L106.299-33.4961Q106.299-34.6191 105.615-35.3027Q104.932-35.9863 103.809-35.9863ZM103.857-47.9492Q104.932-47.9492 105.64-48.6572Q106.348-49.3652 106.348-50.4395L106.348-74.0234Q106.348-75.4883 105.42-76.2939Q104.492-77.0996 103.223-77.0996Q102.393-77.0996 101.611-76.8311Q100.83-76.5625 100.049-76.0254L92.8711-71.0449Q92.3828-70.752 92.2119-70.3857Q92.041-70.0195 92.041-69.5312Q92.041-68.9453 92.4561-68.457Q92.8711-67.9688 93.75-67.9688Q94.3848-67.9688 95.0195-68.457L100.732-72.5586L101.367-72.5586L101.367-50.4395Q101.367-49.3652 102.051-48.6572Q102.734-47.9492 103.857-47.9492Z"/>
  </g>
  <g id="Ultralight-M" transform="matrix(1 0 0 1 501.85 1126)">
   <path d="M14.4043-34.668Q15.332-34.668 15.8447-35.1807Q16.3574-35.6934 16.3574-36.6211L16.3574-40.8203Q16.3574-48.7305 20.5566-52.7832Q24.7559-56.8359 33.0078-56.8359L55.9082-56.8359L55.9082-44.9707Q55.9082-44.1895 56.2988-43.7988Q56.6895-43.4082 57.5195-43.4082Q57.959-43.4082 58.252-43.5303Q58.5449-43.6523 59.0332-43.9453L76.5625-57.2754Q77.5879-58.0078 77.5879-59.2041Q77.5879-60.4004 76.5625-61.084L59.0332-74.3164Q58.5449-74.6582 58.252-74.7803Q57.959-74.9023 57.5195-74.9023Q56.6895-74.9023 56.2988-74.5117Q55.9082-74.1211 55.9082-73.3398L55.9082-60.4492L32.959-60.4492Q26.8066-60.4492 22.2168-58.2275Q17.627-56.0059 15.0391-51.6357Q12.4512-47.2656 12.4512-40.8203L12.4512-36.6211Q12.4512-35.6934 12.9639-35.1807Q13.4766-34.668 14.4043-34.668ZM101.27-35.6934Q100.391-35.6934 99.8779-35.1807Q99.3652-34.668 99.3652-33.7402L99.3652-29.4922Q99.3652-21.582 95.166-17.5293Q90.9668-13.4766 82.7148-13.4766L49.8535-13.4766L49.8535-25.3906Q49.8535-26.1719 49.4385-26.5625Q49.0234-26.9531 48.2422-26.9531Q47.7539-26.9531 47.4609-26.8311Q47.168-26.709 46.7285-26.3672L29.1992-13.0859Q28.1738-12.3535 28.1738-11.1572Q28.1738-9.96094 29.1992-9.22852L46.7285 4.00391Q47.168 4.29688 47.4609 4.44336Q47.7539 4.58984 48.2422 4.58984Q49.0234 4.58984 49.4385 4.1748Q49.8535 3.75977 49.8535 3.02734L49.8535-9.91211L82.7637-9.91211Q88.8672-9.91211 93.5059-12.1094Q98.1445-14.3066 100.708-18.6768Q103.271-23.0469 103.271-29.4922L103.271-33.7402Q103.271-34.668 102.759-35.1807Q102.246-35.6934 101.27-35.6934ZM101.27-48.0957Q102.1-48.0957 102.686-48.6816Q103.271-49.2676 103.271-50.0488L103.271-73.8281Q103.271-75 102.515-75.6348Q101.758-76.2695 100.781-76.2695Q100.244-76.2695 99.6094-76.0742Q98.9746-75.8789 98.4375-75.5371L91.0645-70.5566Q90.7227-70.3613 90.5518-70.0684Q90.3809-69.7754 90.3809-69.3848Q90.3809-68.8965 90.7227-68.5059Q91.0645-68.1152 91.748-68.1152Q92.2852-68.1152 92.8711-68.5059L98.7305-72.6074L99.3652-72.6074L99.3652-50.0488Q99.3652-49.2676 99.9268-48.6816Q100.488-48.0957 101.27-48.0957Z"/>
  </g>
  <g id="Black-S" transform="matrix(1 0 0 1 2875.47 696)">
   <path d="M17.1387-33.7402Q20.459-33.7402 22.4609-35.7422Q24.4629-37.7441 24.4629-41.1133L24.4629-43.3594Q24.4629-48.584 27.6611-51.4404Q30.8594-54.2969 36.6211-54.2969L50.0977-54.2969L50.0977-46.2891Q50.0977-43.7988 51.5381-42.334Q52.9785-40.8691 55.3711-40.8691Q56.543-40.8691 57.4219-41.2354Q58.3008-41.6016 58.9844-42.1875L76.7578-57.373Q78.5645-58.9355 78.54-61.1328Q78.5156-63.3301 76.7578-64.8438L58.9844-79.9805Q58.3008-80.5664 57.4219-80.9326Q56.543-81.2988 55.3711-81.2988Q52.9785-81.2988 51.5381-79.834Q50.0977-78.3691 50.0977-75.8789L50.0977-68.6523L37.1094-68.6523Q24.3164-68.6523 17.041-62.5488Q9.76562-56.4453 9.76562-45.6543L9.76562-41.1133Q9.76562-37.793 11.792-35.7666Q13.8184-33.7402 17.1387-33.7402ZM98.7305-42.041Q95.4102-42.041 93.4082-40.0391Q91.4062-38.0371 91.4062-34.668L91.4062-32.4219Q91.4062-27.2461 88.208-24.3652Q85.0098-21.4844 79.248-21.4844L51.123-21.4844L51.123-29.6387Q51.123-32.1289 49.707-33.5938Q48.291-35.0586 45.8496-35.0586Q44.6777-35.0586 43.7988-34.6924Q42.9199-34.3262 42.2363-33.7402L24.4629-18.5547Q22.6562-17.041 22.6807-14.8193Q22.7051-12.5977 24.4629-11.084L42.2363 4.05273Q42.9199 4.63867 43.7988 5.00488Q44.6777 5.37109 45.8496 5.37109Q48.291 5.37109 49.707 3.90625Q51.123 2.44141 51.123-0.0488281L51.123-7.12891L78.7598-7.12891Q91.6016-7.12891 98.8525-13.2568Q106.104-19.3848 106.104-30.127L106.104-34.668Q106.104-37.9883 104.077-40.0146Q102.051-42.041 98.7305-42.041ZM99.2188-48.291Q102.295-48.291 104.199-49.9756Q106.104-51.6602 106.104-55.3711L106.104-73.9746Q106.104-77.2949 103.931-79.3213Q101.758-81.3477 98.4375-81.3477Q95.8984-81.3477 93.9209-80.5908Q91.9434-79.834 90.0391-78.4668L84.9121-74.8047Q83.1543-73.584 82.4707-72.5342Q81.7871-71.4844 81.7871-70.0684Q81.7871-67.9688 83.0811-66.748Q84.375-65.5273 86.2305-65.5273Q88.0859-65.5273 89.4531-66.6016L92.1387-68.7012L92.3828-68.7012L92.3828-55.3711Q92.3828-51.6602 94.2871-49.9756Q96.1914-48.291 99.2188-48.291Z"/>
  </g>
  <g id="Heavy-S" transform="matrix(1 0 0 1 2580.19 696)">
   <path d="M16.2598-33.7402Q19.1406-33.7402 20.9229-35.498Q22.7051-37.2559 22.7051-40.1855L22.7051-42.7734Q22.7051-47.9004 25.8545-50.7568Q29.0039-53.6133 34.6191-53.6133L50.1953-53.6133L50.1953-45.4102Q50.1953-43.2129 51.4648-41.9189Q52.7344-40.625 54.834-40.625Q55.9082-40.625 56.6895-40.9668Q57.4707-41.3086 58.1055-41.8457L75.1465-56.3477Q76.7578-57.7148 76.7334-59.6436Q76.709-61.5723 75.1465-62.9395L58.1055-77.3926Q57.4707-77.9297 56.6895-78.2715Q55.9082-78.6133 54.834-78.6133Q52.7344-78.6133 51.4648-77.3193Q50.1953-76.0254 50.1953-73.8281L50.1953-66.2598L35.1562-66.2598Q23.3398-66.2598 16.5527-60.5225Q9.76562-54.7852 9.76562-44.6777L9.76562-40.1855Q9.76562-37.3047 11.5479-35.5225Q13.3301-33.7402 16.2598-33.7402ZM96.6797-40.8203Q93.75-40.8203 91.9922-39.0381Q90.2344-37.2559 90.2344-34.3262L90.2344-31.7383Q90.2344-26.6602 87.0605-23.7793Q83.8867-20.8984 78.3203-20.8984L49.6094-20.8984L49.6094-29.1992Q49.6094-31.3965 48.3398-32.6904Q47.0703-33.9844 44.9219-33.9844Q43.8965-33.9844 43.0908-33.6426Q42.2852-33.3008 41.6504-32.7637L24.6094-18.2617Q22.998-16.9434 23.0225-14.9902Q23.0469-13.0371 24.6094-11.6699L41.6504 2.7832Q42.2852 3.32031 43.0908 3.66211Q43.8965 4.00391 44.9219 4.00391Q47.0703 4.00391 48.3398 2.70996Q49.6094 1.41602 49.6094-0.78125L49.6094-8.25195L77.7832-8.25195Q89.6484-8.25195 96.4111-14.0137Q103.174-19.7754 103.174-29.834L103.174-34.3262Q103.174-37.207 101.367-39.0137Q99.5605-40.8203 96.6797-40.8203ZM97.0703-47.4609Q99.8047-47.4609 101.514-48.9746Q103.223-50.4883 103.223-53.7598L103.223-72.1191Q103.223-75.1953 101.245-77.0508Q99.2676-78.9062 96.2402-78.9062Q93.8965-78.9062 92.1143-78.1982Q90.332-77.4902 88.5742-76.1719L83.4961-72.4609Q81.9824-71.3867 81.3965-70.459Q80.8105-69.5312 80.8105-68.3105Q80.8105-66.5039 81.958-65.4053Q83.1055-64.3066 84.8145-64.3066Q86.4258-64.3066 87.6465-65.2832L90.6738-67.6758L90.918-67.6758L90.918-53.7598Q90.918-50.4883 92.627-48.9746Q94.3359-47.4609 97.0703-47.4609Z"/>
  </g>
  <g id="Bold-S" transform="matrix(1 0 0 1 2285.12 696)">
   <path d="M15.2832-33.6914Q17.6758-33.6914 19.1895-35.2295Q20.7031-36.7676 20.7031-39.209L20.7031-42.1875Q20.7031-47.1191 23.8525-50Q27.002-52.8809 32.373-52.8809L50.293-52.8809L50.293-44.4336Q50.293-42.5293 51.3672-41.4551Q52.4414-40.3809 54.2969-40.3809Q55.1758-40.3809 55.8838-40.6738Q56.5918-40.9668 57.1777-41.4551L73.3398-55.1758Q74.7559-56.3477 74.7559-57.9834Q74.7559-59.6191 73.3398-60.791L57.1777-74.5117Q56.5918-75 55.8838-75.293Q55.1758-75.5859 54.2969-75.5859Q52.4414-75.5859 51.3672-74.5117Q50.293-73.4375 50.293-71.5332L50.293-63.623L32.959-63.623Q22.2168-63.623 15.9912-58.252Q9.76562-52.8809 9.76562-43.6035L9.76562-39.209Q9.76562-36.7676 11.3037-35.2295Q12.8418-33.6914 15.2832-33.6914ZM94.3848-39.4043Q91.9434-39.4043 90.4297-37.8906Q88.916-36.377 88.916-33.9355L88.916-30.957Q88.916-26.0254 85.791-23.1201Q82.666-20.2148 77.2949-20.2148L47.9004-20.2148L47.9004-28.7109Q47.9004-30.6152 46.8262-31.6895Q45.752-32.7637 43.8965-32.7637Q43.0176-32.7637 42.2852-32.4707Q41.5527-32.1777 41.0156-31.6895L24.8047-17.9688Q23.4375-16.7969 23.4375-15.1611Q23.4375-13.5254 24.8047-12.3535L41.0156 1.41602Q41.5527 1.9043 42.2852 2.17285Q43.0176 2.44141 43.8965 2.44141Q45.752 2.44141 46.8262 1.36719Q47.9004 0.292969 47.9004-1.61133L47.9004-9.52148L76.6602-9.52148Q87.4512-9.52148 93.6523-14.8926Q99.8535-20.2637 99.8535-29.541L99.8535-33.9355Q99.8535-36.3281 98.3154-37.8662Q96.7773-39.4043 94.3848-39.4043ZM94.6289-46.5332Q97.0703-46.5332 98.5107-47.876Q99.9512-49.2188 99.9512-51.9531L99.9512-70.1172Q99.9512-72.8516 98.2422-74.5117Q96.5332-76.1719 93.8477-76.1719Q91.6992-76.1719 90.1367-75.5127Q88.5742-74.8535 86.9629-73.6328L81.8848-69.873Q80.6641-68.9941 80.2002-68.1885Q79.7363-67.3828 79.7363-66.3574Q79.7363-64.8438 80.7373-63.916Q81.7383-62.9883 83.2031-62.9883Q84.5703-62.9883 85.6934-63.8672L89.0137-66.5039L89.3066-66.5039L89.3066-51.9531Q89.3066-49.2188 90.7715-47.876Q92.2363-46.5332 94.6289-46.5332Z"/>
  </g>
  <g id="Semibold-S" transform="matrix(1 0 0 1 1989.53 696)">
   <path d="M14.5508-33.6914Q16.6504-33.6914 17.9932-35.0342Q19.3359-36.377 19.3359-38.4766L19.3359-41.748Q19.3359-46.582 22.4609-49.4629Q25.5859-52.3438 30.8105-52.3438L50.3418-52.3438L50.3418-43.7012Q50.3418-42.0898 51.2939-41.1377Q52.2461-40.1855 53.8574-40.1855Q54.6387-40.1855 55.2979-40.4541Q55.957-40.7227 56.4941-41.1621L72.1191-54.3457Q73.3398-55.4199 73.3398-56.8359Q73.3398-58.252 72.1191-59.3262L56.4941-72.5098Q55.957-72.998 55.2979-73.2422Q54.6387-73.4863 53.8574-73.4863Q52.2461-73.4863 51.2939-72.5586Q50.3418-71.6309 50.3418-69.9707L50.3418-61.7676L31.4453-61.7676Q21.4355-61.7676 15.6006-56.665Q9.76562-51.5625 9.76562-42.8223L9.76562-38.4766Q9.76562-36.377 11.1084-35.0342Q12.4512-33.6914 14.5508-33.6914ZM92.7734-38.4277Q90.6738-38.4277 89.3311-37.085Q87.9883-35.7422 87.9883-33.6426L87.9883-30.3711Q87.9883-25.5371 84.8877-22.6562Q81.7871-19.7754 76.5625-19.7754L46.6797-19.7754L46.6797-28.3691Q46.6797-30.0293 45.752-30.957Q44.8242-31.8848 43.1641-31.8848Q42.4316-31.8848 41.748-31.6406Q41.0645-31.3965 40.5273-30.957L24.9512-17.7734Q23.6816-16.6992 23.6816-15.2588Q23.6816-13.8184 24.9512-12.793L40.5273 0.439453Q41.0645 0.878906 41.748 1.12305Q42.4316 1.36719 43.1641 1.36719Q44.8242 1.36719 45.752 0.439453Q46.6797-0.488281 46.6797-2.14844L46.6797-10.3516L75.8789-10.3516Q85.8887-10.3516 91.7236-15.4541Q97.5586-20.5566 97.5586-29.2969L97.5586-33.6426Q97.5586-35.7422 96.2158-37.085Q94.873-38.4277 92.7734-38.4277ZM92.9688-45.8496Q95.1172-45.8496 96.4111-47.0703Q97.7051-48.291 97.7051-50.7324L97.7051-68.7012Q97.7051-71.1914 96.167-72.7295Q94.6289-74.2676 92.1387-74.2676Q90.1855-74.2676 88.7451-73.6328Q87.3047-72.998 85.791-71.875L80.7617-68.0664Q79.7363-67.2852 79.3701-66.5771Q79.0039-65.8691 79.0039-64.9902Q79.0039-63.7207 79.8828-62.8906Q80.7617-62.0605 82.0801-62.0605Q83.3008-62.0605 84.2773-62.8418L87.8418-65.7227L88.1836-65.7227L88.1836-50.7324Q88.1836-48.291 89.4775-47.0703Q90.7715-45.8496 92.9688-45.8496Z"/>
  </g>
  <g id="Medium-S" transform="matrix(1 0 0 1 1693.67 696)">
   <path d="M14.0625-33.6426Q15.918-33.6426 17.1143-34.8633Q18.3105-36.084 18.3105-37.9395L18.3105-41.4062Q18.3105-46.1914 21.4111-49.0723Q24.5117-51.9531 29.5898-51.9531L50.4395-51.9531L50.4395-43.2129Q50.4395-41.6992 51.2695-40.8936Q52.0996-40.0879 53.5645-40.0879Q54.248-40.0879 54.8828-40.3076Q55.5176-40.5273 55.957-40.9668L71.1426-53.7109Q72.2656-54.6875 72.29-55.957Q72.3145-57.2266 71.1426-58.2031L55.957-70.9961Q55.5176-71.4355 54.8828-71.6553Q54.248-71.875 53.5645-71.875Q52.0996-71.875 51.2695-71.0693Q50.4395-70.2637 50.4395-68.75L50.4395-60.3516L30.3223-60.3516Q20.8496-60.3516 15.3076-55.4688Q9.76562-50.5859 9.76562-42.2363L9.76562-37.9395Q9.76562-36.1328 10.9619-34.8877Q12.1582-33.6426 14.0625-33.6426ZM91.5527-37.6953Q89.7461-37.6953 88.5254-36.4746Q87.3047-35.2539 87.3047-33.4473L87.3047-29.9805Q87.3047-25.1953 84.2041-22.29Q81.1035-19.3848 76.0254-19.3848L45.8008-19.3848L45.8008-28.125Q45.8008-29.5898 44.9707-30.4199Q44.1406-31.25 42.627-31.25Q41.9434-31.25 41.3086-31.0303Q40.6738-30.8105 40.1855-30.3711L25-17.5781Q23.877-16.6504 23.9014-15.3564Q23.9258-14.0625 25-13.1348L40.1855-0.292969Q40.6738 0.0976562 41.3086 0.341797Q41.9434 0.585938 42.627 0.585938Q44.1406 0.585938 44.9707-0.244141Q45.8008-1.07422 45.8008-2.58789L45.8008-11.0352L75.293-11.0352Q84.7656-11.0352 90.3076-15.918Q95.8496-20.8008 95.8496-29.1016L95.8496-33.4473Q95.8496-35.2539 94.6289-36.4746Q93.4082-37.6953 91.5527-37.6953ZM91.6992-45.3613Q93.7012-45.3613 94.8486-46.4844Q95.9961-47.6074 95.9961-49.7559L95.9961-67.627Q95.9961-69.9707 94.6045-71.3867Q93.2129-72.8027 90.8691-72.8027Q89.0137-72.8027 87.6953-72.2168Q86.377-71.6309 84.9609-70.5566L79.9316-66.6992Q79.0527-66.0156 78.7354-65.3809Q78.418-64.7461 78.418-63.9648Q78.418-62.8418 79.2236-62.1094Q80.0293-61.377 81.25-61.377Q82.3242-61.377 83.252-62.0605L86.9629-65.0879L87.3535-65.0879L87.3535-49.7559Q87.3535-47.6074 88.501-46.4844Q89.6484-45.3613 91.6992-45.3613Z"/>
  </g>
  <g id="Regular-S" transform="matrix(1 0 0 1 1398.06 696)">
   <path d="M13.3789-33.6426Q14.8926-33.6426 15.918-34.6924Q16.9434-35.7422 16.9434-37.2559L16.9434-40.9668Q16.9434-45.6543 20.0195-48.5596Q23.0957-51.4648 28.0762-51.4648L50.4883-51.4648L50.4883-42.5293Q50.4883-41.2598 51.1963-40.5762Q51.9043-39.8926 53.1738-39.8926Q53.7598-39.8926 54.3213-40.0879Q54.8828-40.2832 55.3223-40.6738L69.9219-52.9297Q70.8984-53.7598 70.9229-54.834Q70.9473-55.9082 69.9219-56.7383L55.3223-69.043Q54.8828-69.4336 54.3213-69.6289Q53.7598-69.8242 53.1738-69.8242Q51.9043-69.8242 51.1963-69.1406Q50.4883-68.457 50.4883-67.1875L50.4883-58.5449L28.8086-58.5449Q20.1172-58.5449 14.9414-53.9307Q9.76562-49.3164 9.76562-41.5039L9.76562-37.2559Q9.76562-35.7422 10.791-34.6924Q11.8164-33.6426 13.3789-33.6426ZM89.9902-36.7676Q88.4766-36.7676 87.4268-35.7178Q86.377-34.668 86.377-33.1543L86.377-29.4434Q86.377-24.7559 83.3252-21.8506Q80.2734-18.9453 75.293-18.9453L44.6289-18.9453L44.6289-27.7832Q44.6289-29.0527 43.9209-29.7363Q43.2129-30.4199 41.8945-30.4199Q41.3574-30.4199 40.7715-30.2246Q40.1855-30.0293 39.7461-29.6387L25.1465-17.3828Q24.1699-16.5527 24.1699-15.4785Q24.1699-14.4043 25.1465-13.5742L39.7461-1.26953Q40.1855-0.878906 40.7715-0.683594Q41.3574-0.488281 41.8945-0.488281Q43.2129-0.488281 43.9209-1.17188Q44.6289-1.85547 44.6289-3.125L44.6289-11.8652L74.5605-11.8652Q83.252-11.8652 88.4277-16.4795Q93.6035-21.0938 93.6035-28.9062L93.6035-33.1543Q93.6035-34.668 92.5537-35.7178Q91.5039-36.7676 89.9902-36.7676ZM90.0391-44.7266Q91.7969-44.7266 92.7979-45.7275Q93.7988-46.7285 93.7988-48.5352L93.7988-66.2109Q93.7988-68.3594 92.5537-69.6533Q91.3086-70.9473 89.209-70.9473Q87.5-70.9473 86.3281-70.3857Q85.1562-69.8242 83.8379-68.7988L78.8574-64.8926Q78.1738-64.3555 77.9297-63.8184Q77.6855-63.2812 77.6855-62.6465Q77.6855-61.7188 78.3691-61.084Q79.0527-60.4492 80.1758-60.4492Q81.0547-60.4492 81.8848-61.084L85.8398-64.3066L86.2305-64.3066L86.2305-48.5352Q86.2305-46.7285 87.2314-45.7275Q88.2324-44.7266 90.0391-44.7266Z"/>
  </g>
  <g id="Light-S" transform="matrix(1 0 0 1 1103.35 696)">
   <path d="M12.7441-33.9844Q14.0137-33.9844 14.8438-34.8389Q15.6738-35.6934 15.6738-36.9629L15.6738-40.5273Q15.6738-45.7031 18.7988-48.6816Q21.9238-51.6602 27.3926-51.6602L48.3887-51.6602L48.3887-42.627Q48.3887-41.5527 48.9746-40.9912Q49.5605-40.4297 50.6348-40.4297Q51.1719-40.4297 51.6113-40.6006Q52.0508-40.7715 52.4902-41.1133L66.8457-52.7832Q67.7246-53.5645 67.749-54.5898Q67.7734-55.6152 66.8457-56.3477L52.4902-68.0664Q52.0508-68.4082 51.6113-68.5547Q51.1719-68.7012 50.6348-68.7012Q49.5605-68.7012 48.9746-68.1396Q48.3887-67.5781 48.3887-66.5527L48.3887-57.4219L27.8809-57.4219Q19.6777-57.4219 14.7217-53.0273Q9.76562-48.6328 9.76562-40.918L9.76562-36.9629Q9.76562-35.6934 10.5957-34.8389Q11.4258-33.9844 12.7441-33.9844ZM86.6699-36.377Q85.4004-36.377 84.5459-35.5469Q83.6914-34.7168 83.6914-33.4473L83.6914-29.834Q83.6914-24.707 80.5664-21.7041Q77.4414-18.7012 72.0215-18.7012L42.9199-18.7012L42.9199-27.6855Q42.9199-28.7598 42.3096-29.3213Q41.6992-29.8828 40.625-29.8828Q40.1367-29.8828 39.6729-29.7363Q39.209-29.5898 38.7695-29.1992L24.4141-17.5293Q23.5352-16.7969 23.5352-15.7715Q23.5352-14.7461 24.4141-13.9648L38.7695-2.24609Q39.209-1.9043 39.6729-1.75781Q40.1367-1.61133 40.625-1.61133Q41.6992-1.61133 42.3096-2.17285Q42.9199-2.73438 42.9199-3.80859L42.9199-12.9883L71.5332-12.9883Q79.7363-12.9883 84.6924-17.3584Q89.6484-21.7285 89.6484-29.4922L89.6484-33.4473Q89.6484-34.7168 88.7939-35.5469Q87.9395-36.377 86.6699-36.377ZM86.7188-44.9219Q88.1348-44.9219 88.9648-45.752Q89.7949-46.582 89.7949-47.998L89.7949-65.9668Q89.7949-67.7734 88.7451-68.7988Q87.6953-69.8242 85.9863-69.8242Q84.7168-69.8242 83.7646-69.4092Q82.8125-68.9941 81.7383-68.1641L76.5137-64.2578Q75.9766-63.8672 75.7568-63.4277Q75.5371-62.9883 75.5371-62.4512Q75.5371-61.6699 76.0986-61.1328Q76.6602-60.5957 77.5879-60.5957Q78.3203-60.5957 79.0527-61.1328L83.2031-64.3555L83.5938-64.3555L83.5938-47.998Q83.5938-46.582 84.4238-45.752Q85.2539-44.9219 86.7188-44.9219Z"/>
  </g>
  <g id="Thin-S" transform="matrix(1 0 0 1 809.327 696)">
   <path d="M11.8652-34.4727Q12.8418-34.4727 13.4033-35.0586Q13.9648-35.6445 13.9648-36.5723L13.9648-39.9902Q13.9648-45.752 17.1875-48.8525Q20.4102-51.9531 26.4648-51.9531L45.6543-51.9531L45.6543-42.7246Q45.6543-41.9434 46.0693-41.5527Q46.4844-41.1621 47.3145-41.1621Q47.7051-41.1621 48.0225-41.2598Q48.3398-41.3574 48.7305-41.6992L62.7441-52.6367Q63.5742-53.2715 63.5742-54.248Q63.5742-55.2246 62.7441-55.8105L48.7305-66.748Q48.3398-67.041 48.0225-67.1387Q47.7051-67.2363 47.3145-67.2363Q46.4844-67.2363 46.0693-66.8457Q45.6543-66.4551 45.6543-65.6738L45.6543-55.957L26.6602-55.957Q19.043-55.957 14.4043-51.8555Q9.76562-47.7539 9.76562-40.1367L9.76562-36.5723Q9.76562-35.6445 10.3271-35.0586Q10.8887-34.4727 11.8652-34.4727ZM82.2754-35.8887Q81.3965-35.8887 80.7861-35.3027Q80.1758-34.7168 80.1758-33.7891L80.1758-30.3711Q80.1758-24.6094 76.9531-21.5088Q73.7305-18.4082 67.6758-18.4082L40.625-18.4082L40.625-27.5879Q40.625-28.3691 40.1855-28.7842Q39.7461-29.1992 38.916-29.1992Q38.5254-29.1992 38.1836-29.0771Q37.8418-28.9551 37.5-28.6621L23.4863-17.7246Q22.6562-17.0898 22.6562-16.1133Q22.6562-15.1367 23.4863-14.502L37.5-3.61328Q37.8418-3.32031 38.1836-3.19824Q38.5254-3.07617 38.916-3.07617Q39.7461-3.07617 40.1855-3.49121Q40.625-3.90625 40.625-4.6875L40.625-14.4531L67.5293-14.4531Q75.1465-14.4531 79.7607-18.5303Q84.375-22.6074 84.375-30.2246L84.375-33.7891Q84.375-34.7168 83.8135-35.3027Q83.252-35.8887 82.2754-35.8887ZM82.3242-45.166Q83.252-45.166 83.8379-45.752Q84.4238-46.3379 84.4238-47.3145L84.4238-65.6738Q84.4238-66.9434 83.667-67.6514Q82.9102-68.3594 81.7383-68.3594Q81.0059-68.3594 80.3467-68.1152Q79.6875-67.8711 79.0039-67.334L73.4375-63.4277Q73.0469-63.1836 72.876-62.8906Q72.7051-62.5977 72.7051-62.207Q72.7051-61.6699 73.0957-61.2549Q73.4863-60.8398 74.1699-60.8398Q74.707-60.8398 75.293-61.2305L79.6875-64.4531L80.127-64.4531L80.127-47.3145Q80.127-46.3379 80.7373-45.752Q81.3477-45.166 82.3242-45.166Z"/>
  </g>
  <g id="Ultralight-S" transform="matrix(1 0 0 1 513.959 696)">
   <path d="M11.4258-34.7168Q12.207-34.7168 12.6465-35.1562Q13.0859-35.5957 13.0859-36.377L13.0859-39.6973Q13.0859-45.8008 16.3574-48.9502Q19.6289-52.0996 25.9766-52.0996L44.2383-52.0996L44.2383-42.8223Q44.2383-42.1875 44.5801-41.8457Q44.9219-41.5039 45.6055-41.5039Q45.9473-41.5039 46.1914-41.6016Q46.4355-41.6992 46.8262-41.9922L60.6445-52.5391Q61.4258-53.125 61.4258-54.0527Q61.4258-54.9805 60.6445-55.5664L46.8262-66.1133Q46.4355-66.3574 46.1914-66.4307Q45.9473-66.5039 45.6055-66.5039Q44.9219-66.5039 44.5801-66.1865Q44.2383-65.8691 44.2383-65.2344L44.2383-55.1758L26.0254-55.1758Q18.75-55.1758 14.2578-51.2451Q9.76562-47.3145 9.76562-39.7461L9.76562-36.377Q9.76562-35.5957 10.2051-35.1562Q10.6445-34.7168 11.4258-34.7168ZM80.0293-35.6445Q79.2969-35.6445 78.833-35.2051Q78.3691-34.7656 78.3691-33.9844L78.3691-30.6641Q78.3691-24.5605 75.0977-21.4111Q71.8262-18.2617 65.4785-18.2617L39.4531-18.2617L39.4531-27.5391Q39.4531-28.1738 39.0869-28.4912Q38.7207-28.8086 38.0371-28.8086Q37.7441-28.8086 37.4756-28.7354Q37.207-28.6621 36.8164-28.3691L22.998-17.8223Q22.2168-17.2363 22.2168-16.3086Q22.2168-15.3809 22.998-14.7949L36.8164-4.24805Q37.207-4.00391 37.4756-3.93066Q37.7441-3.85742 38.0371-3.85742Q38.7207-3.85742 39.0869-4.1748Q39.4531-4.49219 39.4531-5.12695L39.4531-15.1855L65.4785-15.1855Q72.7539-15.1855 77.2217-19.1162Q81.6895-23.0469 81.6895-30.6152L81.6895-33.9844Q81.6895-34.7656 81.25-35.2051Q80.8105-35.6445 80.0293-35.6445ZM80.0293-45.2637Q80.7617-45.2637 81.25-45.752Q81.7383-46.2402 81.7383-46.9238L81.7383-65.5273Q81.7383-66.5527 81.1035-67.0654Q80.4688-67.5781 79.5898-67.5781Q79.1016-67.5781 78.5889-67.4316Q78.0762-67.2852 77.5879-66.9434L71.875-63.0371Q71.5332-62.8418 71.4111-62.5977Q71.2891-62.3535 71.2891-62.0605Q71.2891-61.6211 71.5576-61.2793Q71.8262-60.9375 72.4121-60.9375Q72.9004-60.9375 73.3398-61.2793L77.8809-64.502L78.3691-64.502L78.3691-46.9238Q78.3691-46.2402 78.8574-45.752Q79.3457-45.2637 80.0293-45.2637Z"/>
  </g>
 </g>
</svg>
