<?xml version="1.0" encoding="UTF-8"?>
<!--Generator: Apple Native CoreSVG 149-->
<!DOCTYPE svg
PUBLIC "-//W3C//DTD SVG 1.1//EN"
       "http://www.w3.org/Graphics/SVG/1.1/DTD/svg11.dtd">
<svg version="1.1" xmlns="http://www.w3.org/2000/svg" xmlns:xlink="http://www.w3.org/1999/xlink" width="3300" height="2200">
 <!--glyph: "uni10028C.medium", point size: 100.0, font version: "17.0d9e1", template writer version: "59"-->
 <g id="Notes">
  <rect height="2200" id="artboard" style="fill:white;opacity:1" width="3300" x="0" y="0"/>
  <line style="fill:none;stroke:black;opacity:1;stroke-width:0.5;" x1="263" x2="3036" y1="292" y2="292"/>
  <text style="stroke:none;fill:black;font-family:sans-serif;font-size:13;font-weight:bold;" transform="matrix(1 0 0 1 263 322)">Weight/Scale Variations</text>
  <text style="stroke:none;fill:black;font-family:sans-serif;font-size:13;text-anchor:middle;" transform="matrix(1 0 0 1 559.711 322)">Ultralight</text>
  <text style="stroke:none;fill:black;font-family:sans-serif;font-size:13;text-anchor:middle;" transform="matrix(1 0 0 1 856.422 322)">Thin</text>
  <text style="stroke:none;fill:black;font-family:sans-serif;font-size:13;text-anchor:middle;" transform="matrix(1 0 0 1 1153.13 322)">Light</text>
  <text style="stroke:none;fill:black;font-family:sans-serif;font-size:13;text-anchor:middle;" transform="matrix(1 0 0 1 1449.84 322)">Regular</text>
  <text style="stroke:none;fill:black;font-family:sans-serif;font-size:13;text-anchor:middle;" transform="matrix(1 0 0 1 1746.56 322)">Medium</text>
  <text style="stroke:none;fill:black;font-family:sans-serif;font-size:13;text-anchor:middle;" transform="matrix(1 0 0 1 2043.27 322)">Semibold</text>
  <text style="stroke:none;fill:black;font-family:sans-serif;font-size:13;text-anchor:middle;" transform="matrix(1 0 0 1 2339.98 322)">Bold</text>
  <text style="stroke:none;fill:black;font-family:sans-serif;font-size:13;text-anchor:middle;" transform="matrix(1 0 0 1 2636.69 322)">Heavy</text>
  <text style="stroke:none;fill:black;font-family:sans-serif;font-size:13;text-anchor:middle;" transform="matrix(1 0 0 1 2933.4 322)">Black</text>
  <line style="fill:none;stroke:black;opacity:1;stroke-width:0.5;" x1="263" x2="3036" y1="1903" y2="1903"/>
  <g transform="matrix(1 0 0 1 263 1933)">
   <path d="M9.24805 0.830078Q10.8691 0.830078 12.2949 0.214844Q13.7207-0.400391 14.8096-1.49414Q15.8984-2.58789 16.5186-4.01367Q17.1387-5.43945 17.1387-7.05078Q17.1387-8.66211 16.5186-10.0879Q15.8984-11.5137 14.8047-12.6074Q13.7109-13.7012 12.2852-14.3164Q10.8594-14.9316 9.23828-14.9316Q7.62695-14.9316 6.20117-14.3164Q4.77539-13.7012 3.69141-12.6074Q2.60742-11.5137 1.9873-10.0879Q1.36719-8.66211 1.36719-7.05078Q1.36719-5.43945 1.9873-4.01367Q2.60742-2.58789 3.69629-1.49414Q4.78516-0.400391 6.21094 0.214844Q7.63672 0.830078 9.24805 0.830078ZM9.24805-0.654297Q7.91992-0.654297 6.7627-1.14746Q5.60547-1.64062 4.73145-2.51953Q3.85742-3.39844 3.36426-4.56055Q2.87109-5.72266 2.87109-7.05078Q2.87109-8.37891 3.35938-9.54102Q3.84766-10.7031 4.72168-11.582Q5.5957-12.4609 6.75293-12.9541Q7.91016-13.4473 9.23828-13.4473Q10.5762-13.4473 11.7334-12.9541Q12.8906-12.4609 13.7695-11.582Q14.6484-10.7031 15.1465-9.54102Q15.6445-8.37891 15.6445-7.05078Q15.6445-5.72266 15.1514-4.56055Q14.6582-3.39844 13.7842-2.51953Q12.9102-1.64062 11.748-1.14746Q10.5859-0.654297 9.24805-0.654297ZM5.83984-7.04102Q5.83984-6.71875 6.04492-6.51855Q6.25-6.31836 6.5918-6.31836L8.50586-6.31836L8.50586-4.39453Q8.50586-4.0625 8.70605-3.85742Q8.90625-3.65234 9.22852-3.65234Q9.56055-3.65234 9.76562-3.85742Q9.9707-4.0625 9.9707-4.39453L9.9707-6.31836L11.8945-6.31836Q12.2266-6.31836 12.4316-6.51855Q12.6367-6.71875 12.6367-7.04102Q12.6367-7.37305 12.4316-7.57812Q12.2266-7.7832 11.8945-7.7832L9.9707-7.7832L9.9707-9.69727Q9.9707-10.0391 9.76562-10.2441Q9.56055-10.4492 9.22852-10.4492Q8.90625-10.4492 8.70605-10.2441Q8.50586-10.0391 8.50586-9.69727L8.50586-7.7832L6.5918-7.7832Q6.25-7.7832 6.04492-7.57812Q5.83984-7.37305 5.83984-7.04102Z"/>
  </g>
  <g transform="matrix(1 0 0 1 281.867 1933)">
   <path d="M11.709 2.91016Q13.75 2.91016 15.5518 2.12891Q17.3535 1.34766 18.7305-0.0292969Q20.1074-1.40625 20.8887-3.20801Q21.6699-5.00977 21.6699-7.05078Q21.6699-9.0918 20.8887-10.8936Q20.1074-12.6953 18.7305-14.0723Q17.3535-15.4492 15.5469-16.2305Q13.7402-17.0117 11.6992-17.0117Q9.6582-17.0117 7.85645-16.2305Q6.05469-15.4492 4.68262-14.0723Q3.31055-12.6953 2.5293-10.8936Q1.74805-9.0918 1.74805-7.05078Q1.74805-5.00977 2.5293-3.20801Q3.31055-1.40625 4.6875-0.0292969Q6.06445 1.34766 7.86621 2.12891Q9.66797 2.91016 11.709 2.91016ZM11.709 1.25Q9.98047 1.25 8.47656 0.605469Q6.97266-0.0390625 5.83496-1.17676Q4.69727-2.31445 4.05762-3.81836Q3.41797-5.32227 3.41797-7.05078Q3.41797-8.7793 4.05762-10.2832Q4.69727-11.7871 5.83008-12.9297Q6.96289-14.0723 8.4668-14.7119Q9.9707-15.3516 11.6992-15.3516Q13.4277-15.3516 14.9316-14.7119Q16.4355-14.0723 17.5781-12.9297Q18.7207-11.7871 19.3652-10.2832Q20.0098-8.7793 20.0098-7.05078Q20.0098-5.32227 19.3701-3.81836Q18.7305-2.31445 17.5928-1.17676Q16.4551-0.0390625 14.9463 0.605469Q13.4375 1.25 11.709 1.25ZM7.39258-7.04102Q7.39258-6.68945 7.62695-6.46484Q7.86133-6.24023 8.23242-6.24023L10.8789-6.24023L10.8789-3.57422Q10.8789-3.21289 11.1035-2.9834Q11.3281-2.75391 11.6797-2.75391Q12.0508-2.75391 12.2852-2.9834Q12.5195-3.21289 12.5195-3.57422L12.5195-6.24023L15.1758-6.24023Q15.5371-6.24023 15.7715-6.46484Q16.0059-6.68945 16.0059-7.04102Q16.0059-7.41211 15.7715-7.6416Q15.5371-7.87109 15.1758-7.87109L12.5195-7.87109L12.5195-10.5176Q12.5195-10.8984 12.2852-11.1279Q12.0508-11.3574 11.6797-11.3574Q11.3281-11.3574 11.1035-11.1279Q10.8789-10.8984 10.8789-10.5176L10.8789-7.87109L8.23242-7.87109Q7.85156-7.87109 7.62207-7.6416Q7.39258-7.41211 7.39258-7.04102Z"/>
  </g>
  <g transform="matrix(1 0 0 1 305.646 1933)">
   <path d="M14.9707 5.66406Q17.0605 5.66406 18.96 5.01465Q20.8594 4.36523 22.4512 3.19336Q24.043 2.02148 25.2197 0.429688Q26.3965-1.16211 27.0459-3.06641Q27.6953-4.9707 27.6953-7.05078Q27.6953-9.14062 27.0459-11.04Q26.3965-12.9395 25.2197-14.5312Q24.043-16.123 22.4512-17.2998Q20.8594-18.4766 18.9551-19.126Q17.0508-19.7754 14.9609-19.7754Q12.8711-19.7754 10.9717-19.126Q9.07227-18.4766 7.48535-17.2998Q5.89844-16.123 4.72168-14.5312Q3.54492-12.9395 2.90039-11.04Q2.25586-9.14062 2.25586-7.05078Q2.25586-4.9707 2.90527-3.06641Q3.55469-1.16211 4.72656 0.429688Q5.89844 2.02148 7.49023 3.19336Q9.08203 4.36523 10.9814 5.01465Q12.8809 5.66406 14.9707 5.66406ZM14.9707 3.84766Q13.1641 3.84766 11.5283 3.2959Q9.89258 2.74414 8.53516 1.74805Q7.17773 0.751953 6.17676-0.610352Q5.17578-1.97266 4.62891-3.6084Q4.08203-5.24414 4.08203-7.05078Q4.08203-8.86719 4.62891-10.5029Q5.17578-12.1387 6.17188-13.501Q7.16797-14.8633 8.52539-15.8594Q9.88281-16.8555 11.5186-17.4023Q13.1543-17.9492 14.9609-17.9492Q16.7773-17.9492 18.4131-17.4023Q20.0488-16.8555 21.4111-15.8594Q22.7734-14.8633 23.7695-13.501Q24.7656-12.1387 25.3174-10.5029Q25.8691-8.86719 25.8691-7.05078Q25.8789-5.24414 25.332-3.6084Q24.7852-1.97266 23.7842-0.610352Q22.7832 0.751953 21.4209 1.74805Q20.0586 2.74414 18.4229 3.2959Q16.7871 3.84766 14.9707 3.84766ZM9.45312-7.04102Q9.45312-6.66016 9.71191-6.41113Q9.9707-6.16211 10.3711-6.16211L14.0625-6.16211L14.0625-2.46094Q14.0625-2.06055 14.3115-1.80664Q14.5605-1.55273 14.9414-1.55273Q15.3516-1.55273 15.6055-1.80664Q15.8594-2.06055 15.8594-2.46094L15.8594-6.16211L19.5605-6.16211Q19.9609-6.16211 20.2148-6.41113Q20.4688-6.66016 20.4688-7.04102Q20.4688-7.45117 20.2148-7.70508Q19.9609-7.95898 19.5605-7.95898L15.8594-7.95898L15.8594-11.6504Q15.8594-12.0605 15.6055-12.3145Q15.3516-12.5684 14.9414-12.5684Q14.5605-12.5684 14.3115-12.3096Q14.0625-12.0508 14.0625-11.6504L14.0625-7.95898L10.3711-7.95898Q9.96094-7.95898 9.70703-7.70508Q9.45312-7.45117 9.45312-7.04102Z"/>
  </g>
  <text style="stroke:none;fill:black;font-family:sans-serif;font-size:13;font-weight:bold;" transform="matrix(1 0 0 1 263 1953)">Design Variations</text>
  <text style="stroke:none;fill:black;font-family:sans-serif;font-size:13;" transform="matrix(1 0 0 1 263 1971)">Symbols are supported in up to nine weights and three scales.</text>
  <text style="stroke:none;fill:black;font-family:sans-serif;font-size:13;" transform="matrix(1 0 0 1 263 1989)">For optimal layout with text and other symbols, vertically align</text>
  <text style="stroke:none;fill:black;font-family:sans-serif;font-size:13;" transform="matrix(1 0 0 1 263 2007)">symbols with the adjacent text.</text>
  <line style="fill:none;stroke:#00AEEF;stroke-width:0.5;opacity:1.0;" x1="776" x2="776" y1="1919" y2="1933"/>
  <g transform="matrix(1 0 0 1 776 1933)">
   <path d="M3.31055 0.15625Q3.70117 0.15625 3.91602-0.00976562Q4.13086-0.175781 4.26758-0.585938L5.52734-4.0332L11.2891-4.0332L12.5488-0.585938Q12.6855-0.175781 12.9004-0.00976562Q13.1152 0.15625 13.4961 0.15625Q13.8867 0.15625 14.1162-0.0585938Q14.3457-0.273438 14.3457-0.644531Q14.3457-0.869141 14.2383-1.17188L9.6582-13.3691Q9.48242-13.8184 9.17969-14.043Q8.87695-14.2676 8.4082-14.2676Q7.5-14.2676 7.17773-13.3789L2.59766-1.16211Q2.49023-0.859375 2.49023-0.634766Q2.49023-0.263672 2.70996-0.0537109Q2.92969 0.15625 3.31055 0.15625ZM6.00586-5.51758L8.37891-12.0898L8.42773-12.0898L10.8008-5.51758Z"/>
  </g>
  <line style="fill:none;stroke:#00AEEF;stroke-width:0.5;opacity:1.0;" x1="793.197" x2="793.197" y1="1919" y2="1933"/>
  <text style="stroke:none;fill:black;font-family:sans-serif;font-size:13;font-weight:bold;" transform="matrix(1 0 0 1 776 1953)">Margins</text>
  <text style="stroke:none;fill:black;font-family:sans-serif;font-size:13;" transform="matrix(1 0 0 1 776 1971)">Leading and trailing margins on the left and right side of each symbol</text>
  <text style="stroke:none;fill:black;font-family:sans-serif;font-size:13;" transform="matrix(1 0 0 1 776 1989)">can be adjusted by modifying the x-location of the margin guidelines.</text>
  <text style="stroke:none;fill:black;font-family:sans-serif;font-size:13;" transform="matrix(1 0 0 1 776 2007)">Modifications are automatically applied proportionally to all</text>
  <text style="stroke:none;fill:black;font-family:sans-serif;font-size:13;" transform="matrix(1 0 0 1 776 2025)">scales and weights.</text>
  <g transform="matrix(1 0 0 1 1289 1933)">
   <path d="M2.8418 1.86523L4.54102 3.57422Q5.18555 4.22852 5.90332 4.17969Q6.62109 4.13086 7.31445 3.35938L18.0078-8.42773L17.041-9.4043L6.42578 2.27539Q6.16211 2.57812 5.89355 2.61719Q5.625 2.65625 5.27344 2.30469L4.10156 1.14258Q3.75 0.791016 3.79395 0.522461Q3.83789 0.253906 4.14062-0.0195312L15.6152-10.8203L14.6387-11.7871L3.04688-0.898438Q2.30469-0.214844 2.25098 0.498047Q2.19727 1.21094 2.8418 1.86523ZM9.25781-16.3281Q8.94531-16.0254 8.90625-15.6348Q8.86719-15.2441 9.04297-14.9512Q9.21875-14.6777 9.55566-14.541Q9.89258-14.4043 10.3809-14.5215Q11.4746-14.7754 12.5977-14.7314Q13.7207-14.6875 14.7949-13.9844L14.209-12.5293Q13.9551-11.9043 14.0674-11.4404Q14.1797-10.9766 14.5801-10.5664L16.875-8.25195Q17.2363-7.88086 17.5781-7.82227Q17.9199-7.76367 18.3398-7.8418L19.4043-8.03711L20.0684-7.36328L20.0293-6.80664Q20-6.43555 20.1221-6.12305Q20.2441-5.81055 20.6055-5.44922L21.3672-4.70703Q21.7285-4.3457 22.1533-4.33105Q22.5781-4.31641 22.9297-4.66797L25.8398-7.58789Q26.1914-7.93945 26.1816-8.35449Q26.1719-8.76953 25.8105-9.13086L25.0391-9.89258Q24.6875-10.2539 24.3799-10.3857Q24.0723-10.5176 23.7109-10.4883L23.1348-10.4395L22.4902-11.0742L22.7344-12.1973Q22.832-12.6172 22.6953-12.9834Q22.5586-13.3496 22.1191-13.7891L19.9219-15.9766Q18.6719-17.2168 17.2607-17.8369Q15.8496-18.457 14.4189-18.4814Q12.9883-18.5059 11.665-17.959Q10.3418-17.4121 9.25781-16.3281ZM10.752-15.957Q11.6602-16.6211 12.7002-16.9043Q13.7402-17.1875 14.8047-17.085Q15.8691-16.9824 16.8701-16.5137Q17.8711-16.0449 18.7012-15.2051L21.1328-12.793Q21.3086-12.6172 21.3525-12.4512Q21.3965-12.2852 21.3379-12.0312L21.0156-10.5469L22.5195-9.0625L23.5059-9.12109Q23.6914-9.13086 23.7891-9.09668Q23.8867-9.0625 24.0332-8.91602L24.6094-8.33984L22.168-5.89844L21.5918-6.47461Q21.4453-6.62109 21.4062-6.71875Q21.3672-6.81641 21.377-7.01172L21.4453-7.98828L19.9512-9.47266L18.4277-9.21875Q18.1836-9.16992 18.042-9.2041Q17.9004-9.23828 17.7148-9.41406L15.7129-11.416Q15.5176-11.5918 15.4932-11.7529Q15.4688-11.9141 15.5859-12.1875L16.4648-14.2773Q15.293-15.3711 13.8281-15.791Q12.3633-16.2109 10.8398-15.7617Q10.7227-15.7324 10.6885-15.8057Q10.6543-15.8789 10.752-15.957Z"/>
  </g>
  <text style="stroke:none;fill:black;font-family:sans-serif;font-size:13;font-weight:bold;" transform="matrix(1 0 0 1 1289 1953)">Exporting</text>
  <text style="stroke:none;fill:black;font-family:sans-serif;font-size:13;" transform="matrix(1 0 0 1 1289 1971)">Symbols should be outlined when exporting to ensure the</text>
  <text style="stroke:none;fill:black;font-family:sans-serif;font-size:13;" transform="matrix(1 0 0 1 1289 1989)">design is preserved when submitting to Xcode.</text>
  <text id="template-version" style="stroke:none;fill:black;font-family:sans-serif;font-size:13;text-anchor:end;" transform="matrix(1 0 0 1 3036 1933)">Template v.2.0</text>
  <text style="stroke:none;fill:black;font-family:sans-serif;font-size:13;text-anchor:end;" transform="matrix(1 0 0 1 3036 1951)">Requires Xcode 13 or greater</text>
  <text id="descriptive-name" style="stroke:none;fill:black;font-family:sans-serif;font-size:13;text-anchor:end;" transform="matrix(1 0 0 1 3036 1969)">Generated from forward.fill</text>
  <text style="stroke:none;fill:black;font-family:sans-serif;font-size:13;text-anchor:end;" transform="matrix(1 0 0 1 3036 1987)">Typeset at 100 points</text>
  <text style="stroke:none;fill:black;font-family:sans-serif;font-size:13;" transform="matrix(1 0 0 1 263 726)">Small</text>
  <text style="stroke:none;fill:black;font-family:sans-serif;font-size:13;" transform="matrix(1 0 0 1 263 1156)">Medium</text>
  <text style="stroke:none;fill:black;font-family:sans-serif;font-size:13;" transform="matrix(1 0 0 1 263 1586)">Large</text>
 </g>
 <g id="Guides">
  <g id="H-reference" style="fill:#27AAE1;stroke:none;" transform="matrix(1 0 0 1 339 696)">
   <path d="M0.976562 0L3.66211 0L29.3457-67.1387L30.0293-67.1387L30.0293-70.459L28.125-70.459ZM11.6699-24.4629L46.9727-24.4629L46.2402-26.709L12.4512-26.709ZM55.127 0L57.7637 0L30.6152-70.459L29.4434-70.459L29.4434-67.1387Z"/>
  </g>
  <line id="Baseline-S" style="fill:none;stroke:#27AAE1;opacity:1;stroke-width:0.5;" x1="263" x2="3036" y1="696" y2="696"/>
  <line id="Capline-S" style="fill:none;stroke:#27AAE1;opacity:1;stroke-width:0.5;" x1="263" x2="3036" y1="625.541" y2="625.541"/>
  <g id="H-reference" style="fill:#27AAE1;stroke:none;" transform="matrix(1 0 0 1 339 1126)">
   <path d="M0.976562 0L3.66211 0L29.3457-67.1387L30.0293-67.1387L30.0293-70.459L28.125-70.459ZM11.6699-24.4629L46.9727-24.4629L46.2402-26.709L12.4512-26.709ZM55.127 0L57.7637 0L30.6152-70.459L29.4434-70.459L29.4434-67.1387Z"/>
  </g>
  <line id="Baseline-M" style="fill:none;stroke:#27AAE1;opacity:1;stroke-width:0.5;" x1="263" x2="3036" y1="1126" y2="1126"/>
  <line id="Capline-M" style="fill:none;stroke:#27AAE1;opacity:1;stroke-width:0.5;" x1="263" x2="3036" y1="1055.54" y2="1055.54"/>
  <g id="H-reference" style="fill:#27AAE1;stroke:none;" transform="matrix(1 0 0 1 339 1556)">
   <path d="M0.976562 0L3.66211 0L29.3457-67.1387L30.0293-67.1387L30.0293-70.459L28.125-70.459ZM11.6699-24.4629L46.9727-24.4629L46.2402-26.709L12.4512-26.709ZM55.127 0L57.7637 0L30.6152-70.459L29.4434-70.459L29.4434-67.1387Z"/>
  </g>
  <line id="Baseline-L" style="fill:none;stroke:#27AAE1;opacity:1;stroke-width:0.5;" x1="263" x2="3036" y1="1556" y2="1556"/>
  <line id="Capline-L" style="fill:none;stroke:#27AAE1;opacity:1;stroke-width:0.5;" x1="263" x2="3036" y1="1485.54" y2="1485.54"/>
  <line id="left-margin" style="fill:none;stroke:#00AEEF;stroke-width:0.5;opacity:1.0;" x1="1375.77" x2="1375.77" y1="1030.79" y2="1150.12"/>
  <line id="right-margin" style="fill:none;stroke:#00AEEF;stroke-width:0.5;opacity:1.0;" x1="1523.92" x2="1523.92" y1="1030.79" y2="1150.12"/>
 </g>
 <g id="Symbols">
  <g id="Black-L" transform="matrix(1 0 0 1 2825.76 1556)">
   <path d="M29.834 18.7012Q32.4219 18.7012 34.8389 18.0664Q37.2559 17.4316 39.7461 16.0156L105.273-22.2656Q109.57-24.7559 112.305-28.0762Q115.039-31.3965 115.039-36.084Q115.039-40.7227 112.378-43.8721Q109.717-47.0215 105.273-49.6582L39.7461-87.8906Q37.2559-89.3555 34.8145-89.9902Q32.373-90.625 29.7363-90.625Q24.1211-90.625 20.0928-86.6455Q16.0645-82.666 16.0645-75.293L16.0645 3.41797Q16.0645 10.6934 20.1416 14.6973Q24.2188 18.7012 29.834 18.7012ZM128.467 18.7012Q131.055 18.7012 133.472 18.0664Q135.889 17.4316 138.379 16.0156L203.906-22.2656Q208.203-24.7559 210.938-28.0762Q213.672-31.3965 213.672-36.084Q213.672-40.7227 211.011-43.8721Q208.35-47.0215 203.906-49.6582L138.379-87.8906Q135.889-89.3555 133.447-89.9902Q131.006-90.625 128.369-90.625Q122.754-90.625 118.726-86.6455Q114.697-82.666 114.697-75.293L114.697 3.41797Q114.697 10.6934 118.774 14.6973Q122.852 18.7012 128.467 18.7012Z"/>
  </g>
  <g id="Heavy-L" transform="matrix(1 0 0 1 2532.25 1556)">
   <path d="M28.5645 17.4805Q30.957 17.4805 33.2031 16.8457Q35.4492 16.2109 37.7441 14.8926L103.027-23.291Q107.031-25.6348 109.448-28.6621Q111.865-31.6895 111.865-35.8887Q111.865-39.9902 109.497-42.8955Q107.129-45.8008 103.027-48.2422L37.7441-86.4258Q35.4492-87.7441 33.2031-88.3789Q30.957-89.0137 28.5156-89.0137Q23.3887-89.0137 19.7266-85.376Q16.0645-81.7383 16.0645-74.9023L16.0645 3.41797Q16.0645 10.1562 19.7754 13.8184Q23.4863 17.4805 28.5645 17.4805ZM124.023 17.4805Q126.416 17.4805 128.662 16.8457Q130.908 16.2109 133.203 14.8926L198.486-23.291Q202.49-25.6348 204.907-28.6621Q207.324-31.6895 207.324-35.8887Q207.324-39.9902 204.956-42.8955Q202.588-45.8008 198.486-48.2422L133.203-86.4258Q130.908-87.7441 128.662-88.3789Q126.416-89.0137 123.975-89.0137Q118.848-89.0137 115.186-85.376Q111.523-81.7383 111.523-74.9023L111.523 3.41797Q111.523 10.1562 115.234 13.8184Q118.945 17.4805 124.023 17.4805Z"/>
  </g>
  <g id="Bold-L" transform="matrix(1 0 0 1 2239.1 1556)">
   <path d="M27.1973 16.1133Q29.3945 16.1133 31.3965 15.5029Q33.3984 14.8926 35.5469 13.6719L100.586-24.4629Q104.199-26.6113 106.25-29.3213Q108.301-32.0312 108.301-35.6445Q108.301-39.209 106.274-41.8213Q104.248-44.4336 100.586-46.6309L35.5469-84.7656Q33.3984-85.9863 31.3721-86.5967Q29.3457-87.207 27.1484-87.207Q22.6074-87.207 19.3359-83.96Q16.0645-80.7129 16.0645-74.5117L16.0645 3.41797Q16.0645 9.57031 19.3604 12.8418Q22.6562 16.1133 27.1973 16.1133ZM119.092 16.1133Q121.289 16.1133 123.291 15.5029Q125.293 14.8926 127.441 13.6719L192.48-24.4629Q196.094-26.6113 198.145-29.3213Q200.195-32.0312 200.195-35.6445Q200.195-39.209 198.169-41.8213Q196.143-44.4336 192.48-46.6309L127.441-84.7656Q125.293-85.9863 123.267-86.5967Q121.24-87.207 119.043-87.207Q114.502-87.207 111.23-83.96Q107.959-80.7129 107.959-74.5117L107.959 3.41797Q107.959 9.57031 111.255 12.8418Q114.551 16.1133 119.092 16.1133Z"/>
  </g>
  <g id="Semibold-L" transform="matrix(1 0 0 1 1944.85 1556)">
   <path d="M26.2207 15.1855Q28.2715 15.1855 30.127 14.5752Q31.9824 13.9648 33.9844 12.8418L98.8281-25.2441Q102.197-27.2461 104.004-29.7607Q105.811-32.2754 105.811-35.4492Q105.811-38.6719 104.028-41.0889Q102.246-43.5059 98.8281-45.5078L33.9844-83.5938Q31.9824-84.7656 30.1025-85.376Q28.2227-85.9863 26.1719-85.9863Q22.0703-85.9863 19.0674-82.9834Q16.0645-79.9805 16.0645-74.2188L16.0645 3.41797Q16.0645 9.13086 19.0674 12.1582Q22.0703 15.1855 26.2207 15.1855ZM115.625 15.1855Q117.676 15.1855 119.531 14.5752Q121.387 13.9648 123.389 12.8418L188.232-25.2441Q191.602-27.2461 193.408-29.7607Q195.215-32.2754 195.215-35.4492Q195.215-38.6719 193.433-41.0889Q191.65-43.5059 188.232-45.5078L123.389-83.5938Q121.387-84.7656 119.507-85.376Q117.627-85.9863 115.576-85.9863Q111.475-85.9863 108.472-82.9834Q105.469-79.9805 105.469-74.2188L105.469 3.41797Q105.469 9.13086 108.472 12.1582Q111.475 15.1855 115.625 15.1855Z"/>
  </g>
  <g id="Medium-L" transform="matrix(1 0 0 1 1650 1556)">
   <path d="M25.4883 14.4531Q27.3926 14.4531 29.1504 13.8672Q30.9082 13.2812 32.8125 12.1582L97.5586-25.8789Q100.732-27.7832 102.344-30.1025Q103.955-32.4219 103.955-35.3027Q103.955-38.2324 102.344-40.5029Q100.732-42.7734 97.5586-44.6777L32.8125-82.7148Q30.9082-83.8379 29.1504-84.4238Q27.3926-85.0098 25.4395-85.0098Q21.6309-85.0098 18.8477-82.2266Q16.0645-79.4434 16.0645-74.0234L16.0645 3.41797Q16.0645 8.78906 18.8721 11.6211Q21.6797 14.4531 25.4883 14.4531ZM113.037 14.4531Q114.941 14.4531 116.699 13.8672Q118.457 13.2812 120.361 12.1582L185.107-25.8789Q188.281-27.7832 189.893-30.1025Q191.504-32.4219 191.504-35.3027Q191.504-38.2324 189.893-40.5029Q188.281-42.7734 185.107-44.6777L120.361-82.7148Q118.457-83.8379 116.699-84.4238Q114.941-85.0098 112.988-85.0098Q109.18-85.0098 106.396-82.2266Q103.613-79.4434 103.613-74.0234L103.613 3.41797Q103.613 8.78906 106.421 11.6211Q109.229 14.4531 113.037 14.4531Z"/>
  </g>
  <g id="Regular-L" transform="matrix(1 0 0 1 1355.73 1556)">
   <path d="M24.5117 13.5254Q26.3184 13.5254 27.9297 12.9395Q29.541 12.3535 31.2988 11.3281L95.8496-26.6602Q98.7793-28.418 100.146-30.542Q101.514-32.666 101.514-35.1562Q101.514-37.6953 100.146-39.7705Q98.7793-41.8457 95.8496-43.6035L31.2988-81.5918Q29.541-82.6172 27.9297-83.2031Q26.3184-83.7891 24.5117-83.7891Q21.0938-83.7891 18.5791-81.25Q16.0645-78.7109 16.0645-73.7305L16.0645 3.41797Q16.0645 8.39844 18.5791 10.9619Q21.0938 13.5254 24.5117 13.5254ZM109.619 13.5254Q111.426 13.5254 113.037 12.9395Q114.648 12.3535 116.406 11.3281L180.957-26.6602Q183.887-28.418 185.254-30.542Q186.621-32.666 186.621-35.1562Q186.621-37.6953 185.254-39.7705Q183.887-41.8457 180.957-43.6035L116.406-81.5918Q114.648-82.6172 113.037-83.2031Q111.426-83.7891 109.619-83.7891Q106.201-83.7891 103.687-81.25Q101.172-78.7109 101.172-73.7305L101.172 3.41797Q101.172 8.39844 103.687 10.9619Q106.201 13.5254 109.619 13.5254Z"/>
  </g>
  <g id="Light-L" transform="matrix(1 0 0 1 1061.02 1556)">
   <path d="M23.6328 12.4023Q25.2441 12.4023 26.7578 11.8164Q28.2715 11.2305 29.7363 10.4004L94.7754-27.8809Q97.168-29.2969 98.3398-31.1035Q99.5117-32.9102 99.5117-35.1562Q99.5117-37.4023 98.3398-39.1602Q97.168-40.918 94.7754-42.334L29.7363-80.6152Q28.2715-81.4453 26.7578-82.0312Q25.2441-82.6172 23.6328-82.6172Q20.6543-82.6172 18.3594-80.3711Q16.0645-78.125 16.0645-73.5352L16.0645 3.32031Q16.0645 7.86133 18.3594 10.1318Q20.6543 12.4023 23.6328 12.4023ZM106.738 12.4023Q108.35 12.4023 109.863 11.8164Q111.377 11.2305 112.842 10.4004L177.881-27.8809Q180.273-29.2969 181.445-31.1035Q182.617-32.9102 182.617-35.1562Q182.617-37.4023 181.445-39.1602Q180.273-40.918 177.881-42.334L112.842-80.6152Q111.377-81.4453 109.863-82.0312Q108.35-82.6172 106.738-82.6172Q103.76-82.6172 101.465-80.3711Q99.1699-78.125 99.1699-73.5352L99.1699 3.32031Q99.1699 7.86133 101.465 10.1318Q103.76 12.4023 106.738 12.4023Z"/>
  </g>
  <g id="Thin-L" transform="matrix(1 0 0 1 766.945 1556)">
   <path d="M22.5098 10.8887Q23.8281 10.8887 25.2197 10.3271Q26.6113 9.76562 27.7344 9.13086L93.3594-29.4922Q94.9707-30.4199 95.9229-31.8359Q96.875-33.252 96.875-35.1074Q96.875-37.0117 95.9717-38.3301Q95.0684-39.6484 93.3594-40.6738L27.7344-79.248Q26.5625-79.9316 25.1953-80.4932Q23.8281-81.0547 22.5098-81.0547Q20.0684-81.0547 18.0664-79.1748Q16.0645-77.2949 16.0645-73.291L16.0645 3.125Q16.0645 7.12891 18.0664 9.00879Q20.0684 10.8887 22.5098 10.8887ZM102.979 10.8887Q104.297 10.8887 105.688 10.3271Q107.08 9.76562 108.203 9.13086L173.828-29.4922Q175.439-30.4199 176.392-31.8359Q177.344-33.252 177.344-35.1074Q177.344-37.0117 176.44-38.3301Q175.537-39.6484 173.828-40.6738L108.203-79.248Q107.031-79.9316 105.664-80.4932Q104.297-81.0547 102.979-81.0547Q100.537-81.0547 98.5352-79.1748Q96.5332-77.2949 96.5332-73.291L96.5332 3.125Q96.5332 7.12891 98.5352 9.00879Q100.537 10.8887 102.979 10.8887Z"/>
  </g>
  <g id="Ultralight-L" transform="matrix(1 0 0 1 471.601 1556)">
   <path d="M21.9238 10.1074Q23.0957 10.1074 24.4141 9.57031Q25.7324 9.0332 26.6602 8.49609L92.627-30.2734Q93.8965-31.0059 94.7021-32.2021Q95.5078-33.3984 95.5078-35.1074Q95.5078-36.8164 94.7266-37.915Q93.9453-39.0137 92.627-39.8438L26.6602-78.6133Q25.6836-79.1504 24.3896-79.6875Q23.0957-80.2246 21.9238-80.2246Q19.7754-80.2246 17.9199-78.5645Q16.0645-76.9043 16.0645-73.1934L16.0645 3.07617Q16.0645 6.78711 17.9199 8.44727Q19.7754 10.1074 21.9238 10.1074ZM101.025 10.1074Q102.197 10.1074 103.516 9.57031Q104.834 9.0332 105.762 8.49609L171.729-30.2734Q172.998-31.0059 173.804-32.2021Q174.609-33.3984 174.609-35.1074Q174.609-36.8164 173.828-37.915Q173.047-39.0137 171.729-39.8438L105.762-78.6133Q104.785-79.1504 103.491-79.6875Q102.197-80.2246 101.025-80.2246Q98.877-80.2246 97.0215-78.5645Q95.166-76.9043 95.166-73.1934L95.166 3.07617Q95.166 6.78711 97.0215 8.44727Q98.877 10.1074 101.025 10.1074Z"/>
  </g>
  <g id="Black-M" transform="matrix(1 0 0 1 2847.93 1126)">
   <path d="M23.877 7.27539Q26.0254 7.27539 28.0273 6.7627Q30.0293 6.25 31.9824 5.07812L83.1543-24.707Q86.5723-26.6602 88.8916-29.3701Q91.2109-32.0801 91.2109-36.0352Q91.2109-39.9902 88.9404-42.5537Q86.6699-45.1172 83.1543-47.168L31.9824-76.9531Q29.9805-78.125 27.9541-78.6377Q25.9277-79.1504 23.7793-79.1504Q19.1406-79.1504 15.7959-75.8545Q12.4512-72.5586 12.4512-66.5527L12.4512-5.32227Q12.4512 0.634766 15.8691 3.95508Q19.2871 7.27539 23.877 7.27539ZM102.344 7.27539Q104.492 7.27539 106.494 6.7627Q108.496 6.25 110.449 5.07812L161.621-24.707Q165.039-26.6602 167.358-29.3701Q169.678-32.0801 169.678-36.0352Q169.678-39.9902 167.407-42.5537Q165.137-45.1172 161.621-47.168L110.449-76.9531Q108.447-78.125 106.421-78.6377Q104.395-79.1504 102.246-79.1504Q97.6074-79.1504 94.2627-75.8545Q90.918-72.5586 90.918-66.5527L90.918-5.32227Q90.918 0.634766 94.3359 3.95508Q97.7539 7.27539 102.344 7.27539Z"/>
  </g>
  <g id="Heavy-M" transform="matrix(1 0 0 1 2553.9 1126)">
   <path d="M22.8516 6.29883Q24.8535 6.29883 26.6846 5.81055Q28.5156 5.32227 30.3711 4.19922L81.2012-25.4883Q84.4238-27.2949 86.4746-29.8096Q88.5254-32.3242 88.5254-35.8398Q88.5254-39.3555 86.5234-41.748Q84.5215-44.1406 81.2012-46.0449L30.3711-75.7324Q28.4668-76.8066 26.6113-77.3193Q24.7559-77.832 22.7539-77.832Q18.5547-77.832 15.5029-74.8047Q12.4512-71.7773 12.4512-66.2109L12.4512-5.27344Q12.4512 0.244141 15.5518 3.27148Q18.6523 6.29883 22.8516 6.29883ZM98.6328 6.29883Q100.635 6.29883 102.466 5.81055Q104.297 5.32227 106.152 4.19922L156.982-25.4883Q160.205-27.2949 162.256-29.8096Q164.307-32.3242 164.307-35.8398Q164.307-39.3555 162.305-41.748Q160.303-44.1406 156.982-46.0449L106.152-75.7324Q104.248-76.8066 102.393-77.3193Q100.537-77.832 98.5352-77.832Q94.3359-77.832 91.2842-74.8047Q88.2324-71.7773 88.2324-66.2109L88.2324-5.27344Q88.2324 0.244141 91.333 3.27148Q94.4336 6.29883 98.6328 6.29883Z"/>
  </g>
  <g id="Bold-M" transform="matrix(1 0 0 1 2260.19 1126)">
   <path d="M21.6797 5.22461Q23.5352 5.22461 25.1953 4.73633Q26.8555 4.24805 28.5645 3.22266L79.0039-26.3184Q82.0312-28.0762 83.7891-30.3467Q85.5469-32.6172 85.5469-35.6445Q85.5469-38.6719 83.8135-40.8447Q82.0801-43.0176 79.0039-44.8242L28.5645-74.3652Q26.8066-75.3906 25.1465-75.8789Q23.4863-76.3672 21.6309-76.3672Q17.8711-76.3672 15.1611-73.6328Q12.4512-70.8984 12.4512-65.8691L12.4512-5.27344Q12.4512-0.244141 15.21 2.49023Q17.9688 5.22461 21.6797 5.22461ZM94.4824 5.22461Q96.3379 5.22461 97.998 4.73633Q99.6582 4.24805 101.367 3.22266L151.807-26.3184Q154.834-28.0762 156.592-30.3467Q158.35-32.6172 158.35-35.6445Q158.35-38.6719 156.616-40.8447Q154.883-43.0176 151.807-44.8242L101.367-74.3652Q99.6094-75.3906 97.9492-75.8789Q96.2891-76.3672 94.4336-76.3672Q90.6738-76.3672 87.9639-73.6328Q85.2539-70.8984 85.2539-65.8691L85.2539-5.27344Q85.2539-0.244141 88.0127 2.49023Q90.7715 5.22461 94.4824 5.22461Z"/>
  </g>
  <g id="Semibold-M" transform="matrix(1 0 0 1 1965.56 1126)">
   <path d="M20.8984 4.49219Q22.6074 4.49219 24.1455 4.00391Q25.6836 3.51562 27.2949 2.53906L77.4902-26.9043Q80.3223-28.5645 81.8848-30.6641Q83.4473-32.7637 83.4473-35.4492Q83.4473-38.1348 81.9336-40.1855Q80.4199-42.2363 77.4902-43.9453L27.2949-73.3887Q25.6348-74.3652 24.0967-74.8535Q22.5586-75.3418 20.8496-75.3418Q17.4316-75.3418 14.9414-72.8271Q12.4512-70.3125 12.4512-65.625L12.4512-5.22461Q12.4512-0.585938 14.9414 1.95312Q17.4316 4.49219 20.8984 4.49219ZM91.6016 4.49219Q93.3105 4.49219 94.8486 4.00391Q96.3867 3.51562 97.998 2.53906L148.193-26.9043Q151.025-28.5645 152.588-30.6641Q154.15-32.7637 154.15-35.4492Q154.15-38.1348 152.637-40.1855Q151.123-42.2363 148.193-43.9453L97.998-73.3887Q96.3379-74.3652 94.7998-74.8535Q93.2617-75.3418 91.5527-75.3418Q88.1348-75.3418 85.6445-72.8271Q83.1543-70.3125 83.1543-65.625L83.1543-5.22461Q83.1543-0.585938 85.6445 1.95312Q88.1348 4.49219 91.6016 4.49219Z"/>
  </g>
  <g id="Medium-M" transform="matrix(1 0 0 1 1670.43 1126)">
   <path d="M20.2637 3.90625Q21.9238 3.90625 23.3643 3.44238Q24.8047 2.97852 26.3184 2.05078L76.3672-27.3438Q79.1016-28.9551 80.4932-30.9326Q81.8848-32.9102 81.8848-35.3516Q81.8848-37.793 80.5176-39.7217Q79.1504-41.6504 76.3672-43.2617L26.3184-72.6562Q24.7559-73.584 23.3154-74.0723Q21.875-74.5605 20.2637-74.5605Q17.041-74.5605 14.7461-72.1924Q12.4512-69.8242 12.4512-65.4297L12.4512-5.22461Q12.4512-0.830078 14.7705 1.53809Q17.0898 3.90625 20.2637 3.90625ZM89.4043 3.90625Q91.0645 3.90625 92.5049 3.44238Q93.9453 2.97852 95.459 2.05078L145.508-27.3438Q148.242-28.9551 149.634-30.9326Q151.025-32.9102 151.025-35.3516Q151.025-37.793 149.658-39.7217Q148.291-41.6504 145.508-43.2617L95.459-72.6562Q93.8965-73.584 92.4561-74.0723Q91.0156-74.5605 89.4043-74.5605Q86.1816-74.5605 83.8867-72.1924Q81.5918-69.8242 81.5918-65.4297L81.5918-5.22461Q81.5918-0.830078 83.9111 1.53809Q86.2305 3.90625 89.4043 3.90625Z"/>
  </g>
  <g id="Regular-M" transform="matrix(1 0 0 1 1375.77 1126)">
   <path d="M19.4824 3.17383Q20.9961 3.17383 22.3145 2.70996Q23.6328 2.24609 25.0977 1.36719L74.8535-27.9297Q77.4414-29.4434 78.6377-31.2744Q79.834-33.1055 79.834-35.2051Q79.834-37.3047 78.6621-39.1113Q77.4902-40.918 74.8535-42.4316L25.0977-71.7285Q23.6328-72.6074 22.3145-73.0713Q20.9961-73.5352 19.4824-73.5352Q16.6016-73.5352 14.5264-71.3867Q12.4512-69.2383 12.4512-65.1855L12.4512-5.17578Q12.4512-1.12305 14.5264 1.02539Q16.6016 3.17383 19.4824 3.17383ZM86.5723 3.17383Q88.0859 3.17383 89.4043 2.70996Q90.7227 2.24609 92.1875 1.36719L141.943-27.9297Q144.531-29.4434 145.728-31.2744Q146.924-33.1055 146.924-35.2051Q146.924-37.3047 145.752-39.1113Q144.58-40.918 141.943-42.4316L92.1875-71.7285Q90.7227-72.6074 89.4043-73.0713Q88.0859-73.5352 86.5723-73.5352Q83.6914-73.5352 81.6162-71.3867Q79.541-69.2383 79.541-65.1855L79.541-5.17578Q79.541-1.12305 81.6162 1.02539Q83.6914 3.17383 86.5723 3.17383Z"/>
  </g>
  <g id="Light-M" transform="matrix(1 0 0 1 1080.84 1126)">
   <path d="M18.7012 2.14844Q20.0195 2.14844 21.2646 1.70898Q22.5098 1.26953 23.7305 0.537109L73.877-29.0039Q75.9766-30.2246 77.002-31.7627Q78.0273-33.3008 78.0273-35.1562Q78.0273-37.0605 77.0264-38.5742Q76.0254-40.0879 73.877-41.3086L23.7305-70.8496Q22.4609-71.582 21.2402-72.0215Q20.0195-72.4609 18.7012-72.4609Q16.2109-72.4609 14.3311-70.5811Q12.4512-68.7012 12.4512-65.0391L12.4512-5.27344Q12.4512-1.61133 14.3311 0.268555Q16.2109 2.14844 18.7012 2.14844ZM83.9844 2.14844Q85.3027 2.14844 86.5479 1.70898Q87.793 1.26953 89.0137 0.537109L139.16-29.0039Q141.26-30.2246 142.285-31.7627Q143.311-33.3008 143.311-35.1562Q143.311-37.0605 142.31-38.5742Q141.309-40.0879 139.16-41.3086L89.0137-70.8496Q87.7441-71.582 86.5234-72.0215Q85.3027-72.4609 83.9844-72.4609Q81.4941-72.4609 79.6143-70.5811Q77.7344-68.7012 77.7344-65.0391L77.7344-5.27344Q77.7344-1.61133 79.6143 0.268555Q81.4941 2.14844 83.9844 2.14844Z"/>
  </g>
  <g id="Thin-M" transform="matrix(1 0 0 1 786.5 1126)">
   <path d="M17.6758 0.830078Q18.7988 0.830078 19.8975 0.390625Q20.9961-0.0488281 21.9238-0.585938L72.6562-30.4199Q74.0723-31.25 74.8535-32.4219Q75.6348-33.5938 75.6348-35.1562Q75.6348-36.7188 74.8779-37.8418Q74.1211-38.9648 72.6562-39.8438L21.9238-69.6777Q20.9473-70.2148 19.873-70.6543Q18.7988-71.0938 17.6758-71.0938Q15.6738-71.0938 14.0625-69.5557Q12.4512-68.0176 12.4512-64.7949L12.4512-5.46875Q12.4512-2.24609 14.0625-0.708008Q15.6738 0.830078 17.6758 0.830078ZM80.6152 0.830078Q81.7383 0.830078 82.8369 0.390625Q83.9355-0.0488281 84.8633-0.585938L135.596-30.4199Q137.012-31.25 137.793-32.4219Q138.574-33.5938 138.574-35.1562Q138.574-36.7188 137.817-37.8418Q137.061-38.9648 135.596-39.8438L84.8633-69.6777Q83.8867-70.2148 82.8125-70.6543Q81.7383-71.0938 80.6152-71.0938Q78.6133-71.0938 77.002-69.5557Q75.3906-68.0176 75.3906-64.7949L75.3906-5.46875Q75.3906-2.24609 77.002-0.708008Q78.6133 0.830078 80.6152 0.830078Z"/>
  </g>
  <g id="Ultralight-M" transform="matrix(1 0 0 1 490.986 1126)">
   <path d="M17.1875 0.146484Q18.1152 0.146484 19.165-0.268555Q20.2148-0.683594 20.9961-1.17188L71.9727-31.1523Q73.0957-31.7871 73.7549-32.7637Q74.4141-33.7402 74.4141-35.1074Q74.4141-36.5234 73.7793-37.4512Q73.1445-38.3789 71.9727-39.0625L20.9961-69.043Q20.166-69.5312 19.1406-69.9463Q18.1152-70.3613 17.1875-70.3613Q15.4297-70.3613 13.9404-68.9941Q12.4512-67.627 12.4512-64.6973L12.4512-5.51758Q12.4512-2.58789 13.9404-1.2207Q15.4297 0.146484 17.1875 0.146484ZM78.9062 0.146484Q79.834 0.146484 80.8838-0.268555Q81.9336-0.683594 82.7148-1.17188L133.691-31.1523Q134.814-31.7871 135.474-32.7637Q136.133-33.7402 136.133-35.1074Q136.133-36.5234 135.498-37.4512Q134.863-38.3789 133.691-39.0625L82.7148-69.043Q81.8848-69.5312 80.8594-69.9463Q79.834-70.3613 78.9062-70.3613Q77.1484-70.3613 75.6592-68.9941Q74.1699-67.627 74.1699-64.6973L74.1699-5.51758Q74.1699-2.58789 75.6592-1.2207Q77.1484 0.146484 78.9062 0.146484Z"/>
  </g>
  <g id="Black-S" transform="matrix(1 0 0 1 2865.72 696)">
   <path d="M18.9941-1.70898Q20.7031-1.70898 22.3145-2.09961Q23.9258-2.49023 25.4883-3.41797L65.6738-26.8066Q68.4082-28.3691 70.2881-30.542Q72.168-32.7148 72.168-35.9375Q72.168-39.1602 70.3369-41.1865Q68.5059-43.2129 65.6738-44.873L25.4883-68.2617Q23.877-69.1895 22.2412-69.5801Q20.6055-69.9707 18.8965-69.9707Q15.1855-69.9707 12.4756-67.334Q9.76562-64.6973 9.76562-59.8633L9.76562-11.8164Q9.76562-7.03125 12.5244-4.37012Q15.2832-1.70898 18.9941-1.70898ZM81.2012-1.70898Q82.9102-1.70898 84.5215-2.09961Q86.1328-2.49023 87.6953-3.41797L127.881-26.8066Q130.615-28.3691 132.495-30.542Q134.375-32.7148 134.375-35.9375Q134.375-39.1602 132.544-41.1865Q130.713-43.2129 127.881-44.873L87.6953-68.2617Q86.084-69.1895 84.4482-69.5801Q82.8125-69.9707 81.1035-69.9707Q77.3926-69.9707 74.6826-67.334Q71.9727-64.6973 71.9727-59.8633L71.9727-11.8164Q71.9727-7.03125 74.7314-4.37012Q77.4902-1.70898 81.2012-1.70898Z"/>
  </g>
  <g id="Heavy-S" transform="matrix(1 0 0 1 2571.09 696)">
   <path d="M18.2129-2.39258Q19.8242-2.39258 21.2891-2.7832Q22.7539-3.17383 24.2676-4.05273L64.1113-27.2949Q66.748-28.8086 68.4326-30.8594Q70.1172-32.9102 70.1172-35.7422Q70.1172-38.623 68.4814-40.5518Q66.8457-42.4805 64.1113-44.043L24.2676-67.334Q22.7539-68.2129 21.2402-68.6035Q19.7266-68.9941 18.1152-68.9941Q14.7461-68.9941 12.2559-66.5527Q9.76562-64.1113 9.76562-59.6191L9.76562-11.7676Q9.76562-7.32422 12.2803-4.8584Q14.7949-2.39258 18.2129-2.39258ZM78.3691-2.39258Q79.9805-2.39258 81.4453-2.7832Q82.9102-3.17383 84.4238-4.05273L124.268-27.2949Q126.904-28.8086 128.589-30.8594Q130.273-32.9102 130.273-35.7422Q130.273-38.623 128.638-40.5518Q127.002-42.4805 124.268-44.043L84.4238-67.334Q82.9102-68.2129 81.3965-68.6035Q79.8828-68.9941 78.2715-68.9941Q74.9023-68.9941 72.4121-66.5527Q69.9219-64.1113 69.9219-59.6191L69.9219-11.7676Q69.9219-7.32422 72.4365-4.8584Q74.9512-2.39258 78.3691-2.39258Z"/>
  </g>
  <g id="Bold-S" transform="matrix(1 0 0 1 2276.67 696)">
   <path d="M17.334-3.17383Q18.7988-3.17383 20.1416-3.56445Q21.4844-3.95508 22.9492-4.78516L62.4023-27.8809Q64.8926-29.3457 66.333-31.2256Q67.7734-33.1055 67.7734-35.5957Q67.7734-38.0859 66.3574-39.8682Q64.9414-41.6504 62.4023-43.1641L22.9492-66.2598Q21.4844-67.0898 20.1172-67.4805Q18.75-67.8711 17.2852-67.8711Q14.209-67.8711 11.9873-65.6494Q9.76562-63.4277 9.76562-59.3262L9.76562-11.7188Q9.76562-7.66602 12.0117-5.41992Q14.2578-3.17383 17.334-3.17383ZM75.1465-3.17383Q76.6113-3.17383 77.9541-3.56445Q79.2969-3.95508 80.7617-4.78516L120.215-27.8809Q122.705-29.3457 124.146-31.2256Q125.586-33.1055 125.586-35.5957Q125.586-38.0859 124.17-39.8682Q122.754-41.6504 120.215-43.1641L80.7617-66.2598Q79.2969-67.0898 77.9297-67.4805Q76.5625-67.8711 75.0977-67.8711Q72.0215-67.8711 69.7998-65.6494Q67.5781-63.4277 67.5781-59.3262L67.5781-11.7188Q67.5781-7.66602 69.8242-5.41992Q72.0703-3.17383 75.1465-3.17383Z"/>
  </g>
  <g id="Semibold-S" transform="matrix(1 0 0 1 1981.57 696)">
   <path d="M16.748-3.71094Q18.1152-3.71094 19.3604-4.07715Q20.6055-4.44336 21.9727-5.27344L61.2305-28.2715Q63.623-29.6875 64.8926-31.4453Q66.1621-33.2031 66.1621-35.4492Q66.1621-37.6465 64.8926-39.3555Q63.623-41.0645 61.2305-42.5293L21.9727-65.5273Q20.5566-66.3086 19.3115-66.6992Q18.0664-67.0898 16.6992-67.0898Q13.8672-67.0898 11.8164-65.0391Q9.76562-62.9883 9.76562-59.082L9.76562-11.6699Q9.76562-7.86133 11.8164-5.78613Q13.8672-3.71094 16.748-3.71094ZM72.9492-3.71094Q74.3164-3.71094 75.5615-4.07715Q76.8066-4.44336 78.1738-5.27344L117.432-28.2715Q119.824-29.6875 121.094-31.4453Q122.363-33.2031 122.363-35.4492Q122.363-37.6465 121.094-39.3555Q119.824-41.0645 117.432-42.5293L78.1738-65.5273Q76.7578-66.3086 75.5127-66.6992Q74.2676-67.0898 72.9004-67.0898Q70.0684-67.0898 68.0176-65.0391Q65.9668-62.9883 65.9668-59.082L65.9668-11.6699Q65.9668-7.86133 68.0176-5.78613Q70.0684-3.71094 72.9492-3.71094Z"/>
  </g>
  <g id="Medium-S" transform="matrix(1 0 0 1 1686.06 696)">
   <path d="M16.2598-4.10156Q17.5781-4.10156 18.75-4.46777Q19.9219-4.83398 21.2891-5.66406L60.3027-28.5645Q62.6465-29.9805 63.7939-31.6406Q64.9414-33.3008 64.9414-35.3516Q64.9414-37.3535 63.7939-39.0137Q62.6465-40.6738 60.3027-42.041L21.2891-64.9902Q19.9219-65.7227 18.75-66.1133Q17.5781-66.5039 16.2598-66.5039Q13.5742-66.5039 11.6699-64.5508Q9.76562-62.5977 9.76562-58.9355L9.76562-11.6699Q9.76562-8.05664 11.6943-6.0791Q13.623-4.10156 16.2598-4.10156ZM71.2402-4.10156Q72.5586-4.10156 73.7305-4.46777Q74.9023-4.83398 76.2695-5.66406L115.283-28.5645Q117.627-29.9805 118.774-31.6406Q119.922-33.3008 119.922-35.3516Q119.922-37.3535 118.774-39.0137Q117.627-40.6738 115.283-42.041L76.2695-64.9902Q74.9023-65.7227 73.7305-66.1133Q72.5586-66.5039 71.2402-66.5039Q68.5547-66.5039 66.6504-64.5508Q64.7461-62.5977 64.7461-58.9355L64.7461-11.6699Q64.7461-8.05664 66.6748-6.0791Q68.6035-4.10156 71.2402-4.10156Z"/>
  </g>
  <g id="Regular-S" transform="matrix(1 0 0 1 1390.93 696)">
   <path d="M15.6738-4.63867Q16.8945-4.63867 17.9688-5.00488Q19.043-5.37109 20.3613-6.15234L59.1309-28.9551Q61.377-30.3223 62.3779-31.8848Q63.3789-33.4473 63.3789-35.2051Q63.3789-36.9629 62.3779-38.5254Q61.377-40.0879 59.1309-41.4062L20.3613-64.2578Q19.043-64.9902 17.9688-65.3809Q16.8945-65.7715 15.6738-65.7715Q13.2324-65.7715 11.499-63.9648Q9.76562-62.1582 9.76562-58.7402L9.76562-11.6211Q9.76562-8.25195 11.499-6.44531Q13.2324-4.63867 15.6738-4.63867ZM69.0918-4.63867Q70.3125-4.63867 71.3867-5.00488Q72.4609-5.37109 73.7793-6.15234L112.549-28.9551Q114.795-30.3223 115.796-31.8848Q116.797-33.4473 116.797-35.2051Q116.797-36.9629 115.796-38.5254Q114.795-40.0879 112.549-41.4062L73.7793-64.2578Q72.4609-64.9902 71.3867-65.3809Q70.3125-65.7715 69.0918-65.7715Q66.6504-65.7715 64.917-63.9648Q63.1836-62.1582 63.1836-58.7402L63.1836-11.6211Q63.1836-8.25195 64.917-6.44531Q66.6504-4.63867 69.0918-4.63867Z"/>
  </g>
  <g id="Light-S" transform="matrix(1 0 0 1 1095.81 696)">
   <path d="M14.9902-5.51758Q16.0645-5.51758 17.0654-5.88379Q18.0664-6.25 19.1406-6.88477L58.3008-29.9316Q60.1074-31.0059 60.9619-32.3242Q61.8164-33.6426 61.8164-35.2051Q61.8164-36.7188 60.9619-38.0371Q60.1074-39.3555 58.3008-40.4297L19.1406-63.4766Q18.0176-64.0625 17.041-64.4531Q16.0645-64.8438 14.9902-64.8438Q12.8906-64.8438 11.3281-63.2568Q9.76562-61.6699 9.76562-58.5938L9.76562-11.7188Q9.76562-8.69141 11.3281-7.10449Q12.8906-5.51758 14.9902-5.51758ZM66.8457-5.51758Q67.9199-5.51758 68.9209-5.88379Q69.9219-6.25 70.9961-6.88477L110.156-29.9316Q111.963-31.0059 112.817-32.3242Q113.672-33.6426 113.672-35.2051Q113.672-36.7188 112.817-38.0371Q111.963-39.3555 110.156-40.4297L70.9961-63.4766Q69.873-64.0625 68.8965-64.4531Q67.9199-64.8438 66.8457-64.8438Q64.7461-64.8438 63.1836-63.2568Q61.6211-61.6699 61.6211-58.5938L61.6211-11.7188Q61.6211-8.69141 63.1836-7.10449Q64.7461-5.51758 66.8457-5.51758Z"/>
  </g>
  <g id="Thin-S" transform="matrix(1 0 0 1 801.198 696)">
   <path d="M14.0625-6.68945Q14.9414-6.68945 15.8203-7.05566Q16.6992-7.42188 17.5293-7.86133L57.1777-31.1523Q58.3984-31.8848 59.0576-32.8857Q59.7168-33.8867 59.7168-35.1562Q59.7168-36.4258 59.082-37.4023Q58.4473-38.3789 57.1777-39.1113L17.5293-62.4512Q16.6992-62.8906 15.8203-63.2324Q14.9414-63.5742 14.0625-63.5742Q12.4023-63.5742 11.084-62.3047Q9.76562-61.0352 9.76562-58.4473L9.76562-11.8652Q9.76562-9.27734 11.084-7.9834Q12.4023-6.68945 14.0625-6.68945ZM63.8184-6.68945Q64.6973-6.68945 65.5762-7.05566Q66.4551-7.42188 67.2852-7.86133L106.934-31.1523Q108.154-31.8848 108.813-32.8857Q109.473-33.8867 109.473-35.1562Q109.473-36.4258 108.838-37.4023Q108.203-38.3789 106.934-39.1113L67.2852-62.4512Q66.4551-62.8906 65.5762-63.2324Q64.6973-63.5742 63.8184-63.5742Q62.1582-63.5742 60.8398-62.3047Q59.5215-61.0352 59.5215-58.4473L59.5215-11.8652Q59.5215-9.27734 60.8398-7.9834Q62.1582-6.68945 63.8184-6.68945Z"/>
  </g>
  <g id="Ultralight-S" transform="matrix(1 0 0 1 505.561 696)">
   <path d="M13.5742-7.32422Q14.4043-7.32422 15.2344-7.66602Q16.0645-8.00781 16.6992-8.39844L56.5918-31.8359Q57.5195-32.373 58.0811-33.2031Q58.6426-34.0332 58.6426-35.1562Q58.6426-36.2793 58.1055-37.0605Q57.5684-37.8418 56.5918-38.4766L16.6992-61.9141Q16.0156-62.2559 15.21-62.5977Q14.4043-62.9395 13.5742-62.9395Q12.1582-62.9395 10.9619-61.8164Q9.76562-60.6934 9.76562-58.3496L9.76562-11.9629Q9.76562-9.57031 10.9619-8.44727Q12.1582-7.32422 13.5742-7.32422ZM62.2559-7.32422Q63.0859-7.32422 63.916-7.66602Q64.7461-8.00781 65.3809-8.39844L105.273-31.8359Q106.201-32.373 106.763-33.2031Q107.324-34.0332 107.324-35.1562Q107.324-36.2793 106.787-37.0605Q106.25-37.8418 105.273-38.4766L65.3809-61.9141Q64.6973-62.2559 63.8916-62.5977Q63.0859-62.9395 62.2559-62.9395Q60.8398-62.9395 59.6436-61.8164Q58.4473-60.6934 58.4473-58.3496L58.4473-11.9629Q58.4473-9.57031 59.6436-8.44727Q60.8398-7.32422 62.2559-7.32422Z"/>
  </g>
 </g>
</svg>
