<?xml version="1.0" encoding="UTF-8"?>
<!--Generator: Apple Native CoreSVG 149-->
<!DOCTYPE svg
PUBLIC "-//W3C//DTD SVG 1.1//EN"
       "http://www.w3.org/Graphics/SVG/1.1/DTD/svg11.dtd">
<svg version="1.1" xmlns="http://www.w3.org/2000/svg" xmlns:xlink="http://www.w3.org/1999/xlink" width="3300" height="2200">
 <!--glyph: "uni10046A.medium", point size: 100.0, font version: "17.0d9e1", template writer version: "59"-->
 <g id="Notes">
  <rect height="2200" id="artboard" style="fill:white;opacity:1" width="3300" x="0" y="0"/>
  <line style="fill:none;stroke:black;opacity:1;stroke-width:0.5;" x1="263" x2="3036" y1="292" y2="292"/>
  <text style="stroke:none;fill:black;font-family:sans-serif;font-size:13;font-weight:bold;" transform="matrix(1 0 0 1 263 322)">Weight/Scale Variations</text>
  <text style="stroke:none;fill:black;font-family:sans-serif;font-size:13;text-anchor:middle;" transform="matrix(1 0 0 1 559.711 322)">Ultralight</text>
  <text style="stroke:none;fill:black;font-family:sans-serif;font-size:13;text-anchor:middle;" transform="matrix(1 0 0 1 856.422 322)">Thin</text>
  <text style="stroke:none;fill:black;font-family:sans-serif;font-size:13;text-anchor:middle;" transform="matrix(1 0 0 1 1153.13 322)">Light</text>
  <text style="stroke:none;fill:black;font-family:sans-serif;font-size:13;text-anchor:middle;" transform="matrix(1 0 0 1 1449.84 322)">Regular</text>
  <text style="stroke:none;fill:black;font-family:sans-serif;font-size:13;text-anchor:middle;" transform="matrix(1 0 0 1 1746.56 322)">Medium</text>
  <text style="stroke:none;fill:black;font-family:sans-serif;font-size:13;text-anchor:middle;" transform="matrix(1 0 0 1 2043.27 322)">Semibold</text>
  <text style="stroke:none;fill:black;font-family:sans-serif;font-size:13;text-anchor:middle;" transform="matrix(1 0 0 1 2339.98 322)">Bold</text>
  <text style="stroke:none;fill:black;font-family:sans-serif;font-size:13;text-anchor:middle;" transform="matrix(1 0 0 1 2636.69 322)">Heavy</text>
  <text style="stroke:none;fill:black;font-family:sans-serif;font-size:13;text-anchor:middle;" transform="matrix(1 0 0 1 2933.4 322)">Black</text>
  <line style="fill:none;stroke:black;opacity:1;stroke-width:0.5;" x1="263" x2="3036" y1="1903" y2="1903"/>
  <g transform="matrix(1 0 0 1 263 1933)">
   <path d="M9.24805 0.830078Q10.8691 0.830078 12.2949 0.214844Q13.7207-0.400391 14.8096-1.49414Q15.8984-2.58789 16.5186-4.01367Q17.1387-5.43945 17.1387-7.05078Q17.1387-8.66211 16.5186-10.0879Q15.8984-11.5137 14.8047-12.6074Q13.7109-13.7012 12.2852-14.3164Q10.8594-14.9316 9.23828-14.9316Q7.62695-14.9316 6.20117-14.3164Q4.77539-13.7012 3.69141-12.6074Q2.60742-11.5137 1.9873-10.0879Q1.36719-8.66211 1.36719-7.05078Q1.36719-5.43945 1.9873-4.01367Q2.60742-2.58789 3.69629-1.49414Q4.78516-0.400391 6.21094 0.214844Q7.63672 0.830078 9.24805 0.830078ZM9.24805-0.654297Q7.91992-0.654297 6.7627-1.14746Q5.60547-1.64062 4.73145-2.51953Q3.85742-3.39844 3.36426-4.56055Q2.87109-5.72266 2.87109-7.05078Q2.87109-8.37891 3.35938-9.54102Q3.84766-10.7031 4.72168-11.582Q5.5957-12.4609 6.75293-12.9541Q7.91016-13.4473 9.23828-13.4473Q10.5762-13.4473 11.7334-12.9541Q12.8906-12.4609 13.7695-11.582Q14.6484-10.7031 15.1465-9.54102Q15.6445-8.37891 15.6445-7.05078Q15.6445-5.72266 15.1514-4.56055Q14.6582-3.39844 13.7842-2.51953Q12.9102-1.64062 11.748-1.14746Q10.5859-0.654297 9.24805-0.654297ZM5.83984-7.04102Q5.83984-6.71875 6.04492-6.51855Q6.25-6.31836 6.5918-6.31836L8.50586-6.31836L8.50586-4.39453Q8.50586-4.0625 8.70605-3.85742Q8.90625-3.65234 9.22852-3.65234Q9.56055-3.65234 9.76562-3.85742Q9.9707-4.0625 9.9707-4.39453L9.9707-6.31836L11.8945-6.31836Q12.2266-6.31836 12.4316-6.51855Q12.6367-6.71875 12.6367-7.04102Q12.6367-7.37305 12.4316-7.57812Q12.2266-7.7832 11.8945-7.7832L9.9707-7.7832L9.9707-9.69727Q9.9707-10.0391 9.76562-10.2441Q9.56055-10.4492 9.22852-10.4492Q8.90625-10.4492 8.70605-10.2441Q8.50586-10.0391 8.50586-9.69727L8.50586-7.7832L6.5918-7.7832Q6.25-7.7832 6.04492-7.57812Q5.83984-7.37305 5.83984-7.04102Z"/>
  </g>
  <g transform="matrix(1 0 0 1 281.867 1933)">
   <path d="M11.709 2.91016Q13.75 2.91016 15.5518 2.12891Q17.3535 1.34766 18.7305-0.0292969Q20.1074-1.40625 20.8887-3.20801Q21.6699-5.00977 21.6699-7.05078Q21.6699-9.0918 20.8887-10.8936Q20.1074-12.6953 18.7305-14.0723Q17.3535-15.4492 15.5469-16.2305Q13.7402-17.0117 11.6992-17.0117Q9.6582-17.0117 7.85645-16.2305Q6.05469-15.4492 4.68262-14.0723Q3.31055-12.6953 2.5293-10.8936Q1.74805-9.0918 1.74805-7.05078Q1.74805-5.00977 2.5293-3.20801Q3.31055-1.40625 4.6875-0.0292969Q6.06445 1.34766 7.86621 2.12891Q9.66797 2.91016 11.709 2.91016ZM11.709 1.25Q9.98047 1.25 8.47656 0.605469Q6.97266-0.0390625 5.83496-1.17676Q4.69727-2.31445 4.05762-3.81836Q3.41797-5.32227 3.41797-7.05078Q3.41797-8.7793 4.05762-10.2832Q4.69727-11.7871 5.83008-12.9297Q6.96289-14.0723 8.4668-14.7119Q9.9707-15.3516 11.6992-15.3516Q13.4277-15.3516 14.9316-14.7119Q16.4355-14.0723 17.5781-12.9297Q18.7207-11.7871 19.3652-10.2832Q20.0098-8.7793 20.0098-7.05078Q20.0098-5.32227 19.3701-3.81836Q18.7305-2.31445 17.5928-1.17676Q16.4551-0.0390625 14.9463 0.605469Q13.4375 1.25 11.709 1.25ZM7.39258-7.04102Q7.39258-6.68945 7.62695-6.46484Q7.86133-6.24023 8.23242-6.24023L10.8789-6.24023L10.8789-3.57422Q10.8789-3.21289 11.1035-2.9834Q11.3281-2.75391 11.6797-2.75391Q12.0508-2.75391 12.2852-2.9834Q12.5195-3.21289 12.5195-3.57422L12.5195-6.24023L15.1758-6.24023Q15.5371-6.24023 15.7715-6.46484Q16.0059-6.68945 16.0059-7.04102Q16.0059-7.41211 15.7715-7.6416Q15.5371-7.87109 15.1758-7.87109L12.5195-7.87109L12.5195-10.5176Q12.5195-10.8984 12.2852-11.1279Q12.0508-11.3574 11.6797-11.3574Q11.3281-11.3574 11.1035-11.1279Q10.8789-10.8984 10.8789-10.5176L10.8789-7.87109L8.23242-7.87109Q7.85156-7.87109 7.62207-7.6416Q7.39258-7.41211 7.39258-7.04102Z"/>
  </g>
  <g transform="matrix(1 0 0 1 305.646 1933)">
   <path d="M14.9707 5.66406Q17.0605 5.66406 18.96 5.01465Q20.8594 4.36523 22.4512 3.19336Q24.043 2.02148 25.2197 0.429688Q26.3965-1.16211 27.0459-3.06641Q27.6953-4.9707 27.6953-7.05078Q27.6953-9.14062 27.0459-11.04Q26.3965-12.9395 25.2197-14.5312Q24.043-16.123 22.4512-17.2998Q20.8594-18.4766 18.9551-19.126Q17.0508-19.7754 14.9609-19.7754Q12.8711-19.7754 10.9717-19.126Q9.07227-18.4766 7.48535-17.2998Q5.89844-16.123 4.72168-14.5312Q3.54492-12.9395 2.90039-11.04Q2.25586-9.14062 2.25586-7.05078Q2.25586-4.9707 2.90527-3.06641Q3.55469-1.16211 4.72656 0.429688Q5.89844 2.02148 7.49023 3.19336Q9.08203 4.36523 10.9814 5.01465Q12.8809 5.66406 14.9707 5.66406ZM14.9707 3.84766Q13.1641 3.84766 11.5283 3.2959Q9.89258 2.74414 8.53516 1.74805Q7.17773 0.751953 6.17676-0.610352Q5.17578-1.97266 4.62891-3.6084Q4.08203-5.24414 4.08203-7.05078Q4.08203-8.86719 4.62891-10.5029Q5.17578-12.1387 6.17188-13.501Q7.16797-14.8633 8.52539-15.8594Q9.88281-16.8555 11.5186-17.4023Q13.1543-17.9492 14.9609-17.9492Q16.7773-17.9492 18.4131-17.4023Q20.0488-16.8555 21.4111-15.8594Q22.7734-14.8633 23.7695-13.501Q24.7656-12.1387 25.3174-10.5029Q25.8691-8.86719 25.8691-7.05078Q25.8789-5.24414 25.332-3.6084Q24.7852-1.97266 23.7842-0.610352Q22.7832 0.751953 21.4209 1.74805Q20.0586 2.74414 18.4229 3.2959Q16.7871 3.84766 14.9707 3.84766ZM9.45312-7.04102Q9.45312-6.66016 9.71191-6.41113Q9.9707-6.16211 10.3711-6.16211L14.0625-6.16211L14.0625-2.46094Q14.0625-2.06055 14.3115-1.80664Q14.5605-1.55273 14.9414-1.55273Q15.3516-1.55273 15.6055-1.80664Q15.8594-2.06055 15.8594-2.46094L15.8594-6.16211L19.5605-6.16211Q19.9609-6.16211 20.2148-6.41113Q20.4688-6.66016 20.4688-7.04102Q20.4688-7.45117 20.2148-7.70508Q19.9609-7.95898 19.5605-7.95898L15.8594-7.95898L15.8594-11.6504Q15.8594-12.0605 15.6055-12.3145Q15.3516-12.5684 14.9414-12.5684Q14.5605-12.5684 14.3115-12.3096Q14.0625-12.0508 14.0625-11.6504L14.0625-7.95898L10.3711-7.95898Q9.96094-7.95898 9.70703-7.70508Q9.45312-7.45117 9.45312-7.04102Z"/>
  </g>
  <text style="stroke:none;fill:black;font-family:sans-serif;font-size:13;font-weight:bold;" transform="matrix(1 0 0 1 263 1953)">Design Variations</text>
  <text style="stroke:none;fill:black;font-family:sans-serif;font-size:13;" transform="matrix(1 0 0 1 263 1971)">Symbols are supported in up to nine weights and three scales.</text>
  <text style="stroke:none;fill:black;font-family:sans-serif;font-size:13;" transform="matrix(1 0 0 1 263 1989)">For optimal layout with text and other symbols, vertically align</text>
  <text style="stroke:none;fill:black;font-family:sans-serif;font-size:13;" transform="matrix(1 0 0 1 263 2007)">symbols with the adjacent text.</text>
  <line style="fill:none;stroke:#00AEEF;stroke-width:0.5;opacity:1.0;" x1="776" x2="776" y1="1919" y2="1933"/>
  <g transform="matrix(1 0 0 1 776 1933)">
   <path d="M3.31055 0.15625Q3.70117 0.15625 3.91602-0.00976562Q4.13086-0.175781 4.26758-0.585938L5.52734-4.0332L11.2891-4.0332L12.5488-0.585938Q12.6855-0.175781 12.9004-0.00976562Q13.1152 0.15625 13.4961 0.15625Q13.8867 0.15625 14.1162-0.0585938Q14.3457-0.273438 14.3457-0.644531Q14.3457-0.869141 14.2383-1.17188L9.6582-13.3691Q9.48242-13.8184 9.17969-14.043Q8.87695-14.2676 8.4082-14.2676Q7.5-14.2676 7.17773-13.3789L2.59766-1.16211Q2.49023-0.859375 2.49023-0.634766Q2.49023-0.263672 2.70996-0.0537109Q2.92969 0.15625 3.31055 0.15625ZM6.00586-5.51758L8.37891-12.0898L8.42773-12.0898L10.8008-5.51758Z"/>
  </g>
  <line style="fill:none;stroke:#00AEEF;stroke-width:0.5;opacity:1.0;" x1="793.197" x2="793.197" y1="1919" y2="1933"/>
  <text style="stroke:none;fill:black;font-family:sans-serif;font-size:13;font-weight:bold;" transform="matrix(1 0 0 1 776 1953)">Margins</text>
  <text style="stroke:none;fill:black;font-family:sans-serif;font-size:13;" transform="matrix(1 0 0 1 776 1971)">Leading and trailing margins on the left and right side of each symbol</text>
  <text style="stroke:none;fill:black;font-family:sans-serif;font-size:13;" transform="matrix(1 0 0 1 776 1989)">can be adjusted by modifying the x-location of the margin guidelines.</text>
  <text style="stroke:none;fill:black;font-family:sans-serif;font-size:13;" transform="matrix(1 0 0 1 776 2007)">Modifications are automatically applied proportionally to all</text>
  <text style="stroke:none;fill:black;font-family:sans-serif;font-size:13;" transform="matrix(1 0 0 1 776 2025)">scales and weights.</text>
  <g transform="matrix(1 0 0 1 1289 1933)">
   <path d="M2.8418 1.86523L4.54102 3.57422Q5.18555 4.22852 5.90332 4.17969Q6.62109 4.13086 7.31445 3.35938L18.0078-8.42773L17.041-9.4043L6.42578 2.27539Q6.16211 2.57812 5.89355 2.61719Q5.625 2.65625 5.27344 2.30469L4.10156 1.14258Q3.75 0.791016 3.79395 0.522461Q3.83789 0.253906 4.14062-0.0195312L15.6152-10.8203L14.6387-11.7871L3.04688-0.898438Q2.30469-0.214844 2.25098 0.498047Q2.19727 1.21094 2.8418 1.86523ZM9.25781-16.3281Q8.94531-16.0254 8.90625-15.6348Q8.86719-15.2441 9.04297-14.9512Q9.21875-14.6777 9.55566-14.541Q9.89258-14.4043 10.3809-14.5215Q11.4746-14.7754 12.5977-14.7314Q13.7207-14.6875 14.7949-13.9844L14.209-12.5293Q13.9551-11.9043 14.0674-11.4404Q14.1797-10.9766 14.5801-10.5664L16.875-8.25195Q17.2363-7.88086 17.5781-7.82227Q17.9199-7.76367 18.3398-7.8418L19.4043-8.03711L20.0684-7.36328L20.0293-6.80664Q20-6.43555 20.1221-6.12305Q20.2441-5.81055 20.6055-5.44922L21.3672-4.70703Q21.7285-4.3457 22.1533-4.33105Q22.5781-4.31641 22.9297-4.66797L25.8398-7.58789Q26.1914-7.93945 26.1816-8.35449Q26.1719-8.76953 25.8105-9.13086L25.0391-9.89258Q24.6875-10.2539 24.3799-10.3857Q24.0723-10.5176 23.7109-10.4883L23.1348-10.4395L22.4902-11.0742L22.7344-12.1973Q22.832-12.6172 22.6953-12.9834Q22.5586-13.3496 22.1191-13.7891L19.9219-15.9766Q18.6719-17.2168 17.2607-17.8369Q15.8496-18.457 14.4189-18.4814Q12.9883-18.5059 11.665-17.959Q10.3418-17.4121 9.25781-16.3281ZM10.752-15.957Q11.6602-16.6211 12.7002-16.9043Q13.7402-17.1875 14.8047-17.085Q15.8691-16.9824 16.8701-16.5137Q17.8711-16.0449 18.7012-15.2051L21.1328-12.793Q21.3086-12.6172 21.3525-12.4512Q21.3965-12.2852 21.3379-12.0312L21.0156-10.5469L22.5195-9.0625L23.5059-9.12109Q23.6914-9.13086 23.7891-9.09668Q23.8867-9.0625 24.0332-8.91602L24.6094-8.33984L22.168-5.89844L21.5918-6.47461Q21.4453-6.62109 21.4062-6.71875Q21.3672-6.81641 21.377-7.01172L21.4453-7.98828L19.9512-9.47266L18.4277-9.21875Q18.1836-9.16992 18.042-9.2041Q17.9004-9.23828 17.7148-9.41406L15.7129-11.416Q15.5176-11.5918 15.4932-11.7529Q15.4688-11.9141 15.5859-12.1875L16.4648-14.2773Q15.293-15.3711 13.8281-15.791Q12.3633-16.2109 10.8398-15.7617Q10.7227-15.7324 10.6885-15.8057Q10.6543-15.8789 10.752-15.957Z"/>
  </g>
  <text style="stroke:none;fill:black;font-family:sans-serif;font-size:13;font-weight:bold;" transform="matrix(1 0 0 1 1289 1953)">Exporting</text>
  <text style="stroke:none;fill:black;font-family:sans-serif;font-size:13;" transform="matrix(1 0 0 1 1289 1971)">Symbols should be outlined when exporting to ensure the</text>
  <text style="stroke:none;fill:black;font-family:sans-serif;font-size:13;" transform="matrix(1 0 0 1 1289 1989)">design is preserved when submitting to Xcode.</text>
  <text id="template-version" style="stroke:none;fill:black;font-family:sans-serif;font-size:13;text-anchor:end;" transform="matrix(1 0 0 1 3036 1933)">Template v.2.0</text>
  <text style="stroke:none;fill:black;font-family:sans-serif;font-size:13;text-anchor:end;" transform="matrix(1 0 0 1 3036 1951)">Requires Xcode 13 or greater</text>
  <text id="descriptive-name" style="stroke:none;fill:black;font-family:sans-serif;font-size:13;text-anchor:end;" transform="matrix(1 0 0 1 3036 1969)">Generated from music.note</text>
  <text style="stroke:none;fill:black;font-family:sans-serif;font-size:13;text-anchor:end;" transform="matrix(1 0 0 1 3036 1987)">Typeset at 100 points</text>
  <text style="stroke:none;fill:black;font-family:sans-serif;font-size:13;" transform="matrix(1 0 0 1 263 726)">Small</text>
  <text style="stroke:none;fill:black;font-family:sans-serif;font-size:13;" transform="matrix(1 0 0 1 263 1156)">Medium</text>
  <text style="stroke:none;fill:black;font-family:sans-serif;font-size:13;" transform="matrix(1 0 0 1 263 1586)">Large</text>
 </g>
 <g id="Guides">
  <g id="H-reference" style="fill:#27AAE1;stroke:none;" transform="matrix(1 0 0 1 339 696)">
   <path d="M0.976562 0L3.66211 0L29.3457-67.1387L30.0293-67.1387L30.0293-70.459L28.125-70.459ZM11.6699-24.4629L46.9727-24.4629L46.2402-26.709L12.4512-26.709ZM55.127 0L57.7637 0L30.6152-70.459L29.4434-70.459L29.4434-67.1387Z"/>
  </g>
  <line id="Baseline-S" style="fill:none;stroke:#27AAE1;opacity:1;stroke-width:0.5;" x1="263" x2="3036" y1="696" y2="696"/>
  <line id="Capline-S" style="fill:none;stroke:#27AAE1;opacity:1;stroke-width:0.5;" x1="263" x2="3036" y1="625.541" y2="625.541"/>
  <g id="H-reference" style="fill:#27AAE1;stroke:none;" transform="matrix(1 0 0 1 339 1126)">
   <path d="M0.976562 0L3.66211 0L29.3457-67.1387L30.0293-67.1387L30.0293-70.459L28.125-70.459ZM11.6699-24.4629L46.9727-24.4629L46.2402-26.709L12.4512-26.709ZM55.127 0L57.7637 0L30.6152-70.459L29.4434-70.459L29.4434-67.1387Z"/>
  </g>
  <line id="Baseline-M" style="fill:none;stroke:#27AAE1;opacity:1;stroke-width:0.5;" x1="263" x2="3036" y1="1126" y2="1126"/>
  <line id="Capline-M" style="fill:none;stroke:#27AAE1;opacity:1;stroke-width:0.5;" x1="263" x2="3036" y1="1055.54" y2="1055.54"/>
  <g id="H-reference" style="fill:#27AAE1;stroke:none;" transform="matrix(1 0 0 1 339 1556)">
   <path d="M0.976562 0L3.66211 0L29.3457-67.1387L30.0293-67.1387L30.0293-70.459L28.125-70.459ZM11.6699-24.4629L46.9727-24.4629L46.2402-26.709L12.4512-26.709ZM55.127 0L57.7637 0L30.6152-70.459L29.4434-70.459L29.4434-67.1387Z"/>
  </g>
  <line id="Baseline-L" style="fill:none;stroke:#27AAE1;opacity:1;stroke-width:0.5;" x1="263" x2="3036" y1="1556" y2="1556"/>
  <line id="Capline-L" style="fill:none;stroke:#27AAE1;opacity:1;stroke-width:0.5;" x1="263" x2="3036" y1="1485.54" y2="1485.54"/>
  <line id="left-margin" style="fill:none;stroke:#00AEEF;stroke-width:0.5;opacity:1.0;" x1="1407.61" x2="1407.61" y1="1030.79" y2="1150.12"/>
  <line id="right-margin" style="fill:none;stroke:#00AEEF;stroke-width:0.5;opacity:1.0;" x1="1492.08" x2="1492.08" y1="1030.79" y2="1150.12"/>
 </g>
 <g id="Symbols">
  <g id="Black-L" transform="matrix(1 0 0 1 2874.78 1556)">
   <path d="M101.172-69.1406L101.172-92.5781Q101.172-96.5332 98.291-98.9014Q95.4102-101.27 91.5527-100.391L58.5449-93.2129Q49.8535-91.3574 49.8535-83.7402L49.8535-14.6973Q49.9023-13.3301 49.4385-12.6465Q48.9746-11.9629 47.9004-11.7188L37.5977-9.57031Q26.9531-7.37305 21.5088-1.7334Q16.0645 3.90625 16.0645 12.5Q16.0645 18.4082 18.7744 22.876Q21.4844 27.3438 26.3184 29.834Q31.1523 32.3242 37.5 32.3242Q42.7246 32.3242 47.5342 30.3955Q52.3438 28.4668 56.1035 24.8291Q59.8633 21.1914 62.0117 16.0645Q64.1602 10.9375 64.1602 4.54102L64.1602-53.6133Q64.1602-55.0293 64.1602-55.1025Q64.1602-55.1758 65.5273-55.5176L95.4102-62.0605Q97.998-62.5977 99.585-64.5264Q101.172-66.4551 101.172-69.1406Z"/>
  </g>
  <g id="Heavy-L" transform="matrix(1 0 0 1 2579.27 1556)">
   <path d="M98.7793-68.8965L98.7793-92.2852Q98.7793-95.8496 96.1914-97.9736Q93.6035-100.098 90.1367-99.3164L57.4707-92.2363Q49.4629-90.5273 49.4629-83.5449L49.5117-14.4043Q49.6094-12.793 48.9746-11.8896Q48.3398-10.9863 47.0215-10.6934L36.8164-8.54492Q26.4648-6.44531 21.2646-1.0498Q16.0645 4.3457 16.0645 12.5488Q16.0645 18.2129 18.6523 22.4609Q21.2402 26.709 25.8789 29.1016Q30.5176 31.4941 36.5723 31.4941Q41.3574 31.4941 45.9473 29.6875Q50.5371 27.8809 54.248 24.4141Q57.959 20.9473 60.1074 15.918Q62.2559 10.8887 62.2559 4.44336L62.2559-53.4668Q62.2559-55.1758 62.4512-55.4443Q62.6465-55.7129 64.2578-56.1035L93.6523-62.5488Q95.9473-63.0371 97.3633-64.7461Q98.7793-66.4551 98.7793-68.8965Z"/>
  </g>
  <g id="Bold-L" transform="matrix(1 0 0 1 2283.87 1556)">
   <path d="M96.1426-68.6035L96.1426-91.9922Q96.1426-95.1172 93.8965-96.9727Q91.6504-98.8281 88.5742-98.1445L56.2988-91.1133Q49.0723-89.5996 49.0723-83.3496L49.1699-14.1113Q49.2676-12.207 48.4863-11.0596Q47.7051-9.91211 46.0938-9.57031L35.9375-7.4707Q25.9766-5.41992 21.0205-0.292969Q16.0645 4.83398 16.0645 12.6465Q16.0645 17.9688 18.5303 21.9971Q20.9961 26.0254 25.3906 28.2715Q29.7852 30.5176 35.498 30.5176Q39.8438 30.5176 44.1895 28.8818Q48.5352 27.2461 52.1729 23.9746Q55.8105 20.7031 57.9834 15.7959Q60.1562 10.8887 60.1562 4.29688L60.1562-53.3203Q60.1562-55.3223 60.5469-55.835Q60.9375-56.3477 62.793-56.7871L91.6992-63.1348Q93.7012-63.5742 94.9219-65.0391Q96.1426-66.5039 96.1426-68.6035Z"/>
  </g>
  <g id="Semibold-L" transform="matrix(1 0 0 1 1988.07 1556)">
   <path d="M94.3359-68.4082L94.3359-91.748Q94.3359-94.5801 92.2852-96.2402Q90.2344-97.9004 87.4512-97.3145L55.4688-90.332Q48.7793-88.916 48.7793-83.1543L48.877-13.8672Q49.0234-11.7676 48.1201-10.4736Q47.2168-9.17969 45.4102-8.78906L35.3027-6.68945Q25.5859-4.6875 20.8252 0.244141Q16.0645 5.17578 16.0645 12.6953Q16.0645 17.7734 18.4326 21.6309Q20.8008 25.4883 25.0244 27.6855Q29.248 29.8828 34.7656 29.8828Q38.7695 29.8828 42.9688 28.3447Q47.168 26.8066 50.7324 23.6572Q54.2969 20.5078 56.4697 15.6738Q58.6426 10.8398 58.6426 4.19922L58.6426-53.1738Q58.6426-55.4199 59.1797-56.1035Q59.7168-56.7871 61.8164-57.2266L90.332-63.4766Q92.1387-63.916 93.2373-65.21Q94.3359-66.5039 94.3359-68.4082Z"/>
  </g>
  <g id="Medium-L" transform="matrix(1 0 0 1 1692.06 1556)">
   <path d="M92.9199-68.2617L92.9199-91.5527Q92.9199-94.1895 91.0645-95.7031Q89.209-97.2168 86.6211-96.7285L54.834-89.7461Q48.584-88.4277 48.584-83.0566L48.6816-13.6719Q48.877-11.4258 47.876-10.0098Q46.875-8.59375 44.873-8.20312L34.8145-6.10352Q25.293-4.15039 20.6787 0.634766Q16.0645 5.41992 16.0645 12.7441Q16.0645 17.627 18.3838 21.3867Q20.7031 25.1465 24.7803 27.2461Q28.8574 29.3457 34.2285 29.3457Q37.9395 29.3457 42.0166 27.9053Q46.0938 26.4648 49.6338 23.4375Q53.1738 20.4102 55.3711 15.625Q57.5684 10.8398 57.5684 4.15039L57.5684-53.0762Q57.5684-55.5176 58.2031-56.2988Q58.8379-57.0801 61.0352-57.6172L89.3066-63.7695Q90.9668-64.1602 91.9434-65.3564Q92.9199-66.5527 92.9199-68.2617Z"/>
  </g>
  <g id="Regular-L" transform="matrix(1 0 0 1 1396.26 1556)">
   <path d="M91.1133-68.0664L91.1133-91.3574Q91.1133-93.7012 89.4775-95.0195Q87.8418-96.3379 85.5469-95.8984L54.0039-89.0137Q48.291-87.793 48.291-82.9102L48.4375-13.4766Q48.6328-11.0352 47.5098-9.44824Q46.3867-7.86133 44.2383-7.42188L34.2285-5.32227Q24.9512-3.41797 20.5078 1.17188Q16.0645 5.76172 16.0645 12.793Q16.0645 17.4805 18.2861 21.0693Q20.5078 24.6582 24.4385 26.6846Q28.3691 28.7109 33.4961 28.7109Q36.9141 28.7109 40.8203 27.3682Q44.7266 26.0254 48.2178 23.1201Q51.709 20.2148 53.9062 15.5029Q56.1035 10.791 56.1035 4.05273L56.1035-52.9785Q56.1035-55.6152 56.8848-56.5674Q57.666-57.5195 60.0586-58.0566L87.9395-64.1602Q89.4043-64.502 90.2588-65.5273Q91.1133-66.5527 91.1133-68.0664Z"/>
  </g>
  <g id="Light-L" transform="matrix(1 0 0 1 1100.77 1556)">
   <path d="M88.6719-67.5781L88.6719-90.332Q88.6719-92.4805 87.1826-93.7012Q85.6934-94.9219 83.5938-94.4824L53.2227-87.8906Q48.1445-86.8164 48.1445-82.373L48.3887-13.8184Q48.5352-11.1816 47.2656-9.47266Q45.9961-7.76367 43.6523-7.27539L33.6914-5.17578Q24.707-3.32031 20.3857 1.07422Q16.0645 5.46875 16.0645 12.3047Q16.0645 16.7969 18.1885 20.2393Q20.3125 23.6816 24.0967 25.6348Q27.8809 27.5879 32.8613 27.5879Q36.1816 27.5879 39.9902 26.2939Q43.7988 25 47.168 22.168Q50.5371 19.3359 52.6855 14.7705Q54.834 10.2051 54.834 3.61328L54.834-52.6367Q54.834-55.4199 55.7129-56.5186Q56.5918-57.6172 59.1797-58.2031L85.791-64.0625Q87.1582-64.3555 87.915-65.2832Q88.6719-66.2109 88.6719-67.5781Z"/>
  </g>
  <g id="Thin-L" transform="matrix(1 0 0 1 805.641 1556)">
   <path d="M85.498-66.8945L85.498-88.9648Q85.498-90.8691 84.1797-91.9434Q82.8613-93.0176 81.0059-92.627L52.1484-86.4258Q47.998-85.498 47.998-81.6895L48.3398-14.3066Q48.3398-11.4258 46.8994-9.52148Q45.459-7.61719 42.9199-7.12891L33.0078-5.0293Q24.4141-3.22266 20.2393 0.927734Q16.0645 5.07812 16.0645 11.6211Q16.0645 15.918 18.0664 19.1895Q20.0684 22.4609 23.6572 24.2676Q27.2461 26.0742 31.9824 26.0742Q35.2539 26.0742 38.916 24.8535Q42.5781 23.6328 45.8008 20.9229Q49.0234 18.2129 51.0742 13.7939Q53.125 9.375 53.125 2.97852L53.125-52.1484Q53.125-55.1758 54.126-56.4453Q55.127-57.7148 58.0078-58.3496L82.959-63.8672Q84.1797-64.1113 84.8389-64.917Q85.498-65.7227 85.498-66.8945Z"/>
  </g>
  <g id="Ultralight-L" transform="matrix(1 0 0 1 509.76 1556)">
   <path d="M83.8379-66.5527L83.8379-88.2812Q83.8379-90.0879 82.6416-91.0645Q81.4453-92.041 79.6875-91.6992L51.6113-85.6445Q47.9004-84.8633 47.9004-81.2988L48.291-14.5508Q48.291-11.5234 46.7529-9.52148Q45.2148-7.51953 42.5293-7.03125L32.6172-4.93164Q24.2676-3.17383 20.166 0.830078Q16.0645 4.83398 16.0645 11.2793Q16.0645 15.4297 18.0176 18.6035Q19.9707 21.7773 23.4375 23.5352Q26.9043 25.293 31.543 25.293Q34.7656 25.293 38.3545 24.1211Q41.9434 22.9492 45.0928 20.2881Q48.2422 17.627 50.2441 13.3057Q52.2461 8.98438 52.2461 2.68555L52.2461-51.9043Q52.2461-55.0293 53.3203-56.4209Q54.3945-57.8125 57.4219-58.4473L81.543-63.8184Q82.6172-64.0137 83.2275-64.7461Q83.8379-65.4785 83.8379-66.5527Z"/>
  </g>
  <g id="Black-M" transform="matrix(1 0 0 1 2887.38 1126)">
   <path d="M79.5898-61.5234L79.5898-79.541Q79.5898-82.9102 77.1484-84.9121Q74.707-86.9141 71.4844-86.1816L45.9961-80.6152Q38.8672-79.1016 38.8672-72.8516L38.8672-19.6777Q38.916-18.1152 37.6953-17.8223L29.6387-16.1621Q21.1914-14.4043 16.8213-9.91211Q12.4512-5.41992 12.4512 1.5625Q12.4512 8.69141 17.2363 13.0859Q22.0215 17.4805 29.6387 17.4805Q34.082 17.4805 37.9395 15.8691Q41.7969 14.2578 44.7266 11.3281Q47.6562 8.39844 49.292 4.37012Q50.9277 0.341797 50.9277-4.44336L50.9277-49.4629Q50.9277-50.3906 50.7812-50.3174Q50.6348-50.2441 51.6113-50.4883L74.7559-55.5176Q76.9531-56.0059 78.2715-57.6416Q79.5898-59.2773 79.5898-61.5234Z"/>
  </g>
  <g id="Heavy-M" transform="matrix(1 0 0 1 2591.57 1126)">
   <path d="M77.7832-61.377L77.7832-79.4922Q77.7832-82.5195 75.6104-84.3018Q73.4375-86.084 70.5078-85.4492L45.1172-79.8828Q38.5254-78.4668 38.5254-72.7539L38.5742-19.3359Q38.7207-17.2363 36.9629-16.8457L28.9551-15.2344Q20.8008-13.5254 16.626-9.22852Q12.4512-4.93164 12.4512 1.70898Q12.4512 8.49609 17.0166 12.6953Q21.582 16.8945 28.8574 16.8945Q32.8613 16.8945 36.5479 15.4053Q40.2344 13.916 43.1152 11.1328Q45.9961 8.34961 47.6807 4.39453Q49.3652 0.439453 49.3652-4.44336L49.3652-49.4141Q49.3652-50.5859 49.3652-50.6836Q49.3652-50.7812 50.5371-51.0254L73.4863-56.0547Q75.4395-56.4941 76.6113-57.9346Q77.7832-59.375 77.7832-61.377Z"/>
  </g>
  <g id="Bold-M" transform="matrix(1 0 0 1 2295.84 1126)">
   <path d="M75.8301-61.2305L75.8301-79.4434Q75.8301-82.0801 73.9258-83.6426Q72.0215-85.2051 69.4824-84.6191L44.1895-79.1016Q38.1836-77.832 38.1836-72.6562L38.2324-18.9453Q38.4766-16.3086 36.1328-15.8203L28.2227-14.1602Q20.3613-12.5 16.4062-8.42285Q12.4512-4.3457 12.4512 1.9043Q12.4512 8.30078 16.7969 12.2559Q21.1426 16.2109 27.9785 16.2109Q31.543 16.2109 35.0342 14.8926Q38.5254 13.5742 41.3574 10.9619Q44.1895 8.34961 45.8984 4.46777Q47.6074 0.585938 47.6074-4.49219L47.6074-49.3652Q47.6074-50.7812 47.7783-51.0742Q47.9492-51.3672 49.3164-51.6602L72.0703-56.6406Q73.7793-57.0312 74.8047-58.2764Q75.8301-59.5215 75.8301-61.2305Z"/>
  </g>
  <g id="Semibold-M" transform="matrix(1 0 0 1 1999.83 1126)">
   <path d="M74.4141-61.1328L74.4141-79.3945Q74.4141-81.7871 72.7051-83.1787Q70.9961-84.5703 68.7012-84.0332L43.5059-78.5645Q37.9395-77.3438 37.9395-72.6074L37.9883-18.6523Q38.2812-15.625 35.5469-15.0391L27.6855-13.4277Q20.0195-11.8164 16.2354-7.88574Q12.4512-3.95508 12.4512 2.05078Q12.4512 8.10547 16.626 11.9385Q20.8008 15.7715 27.3926 15.7715Q30.6152 15.7715 33.96 14.5264Q37.3047 13.2812 40.1123 10.791Q42.9199 8.30078 44.6533 4.46777Q46.3867 0.634766 46.3867-4.49219L46.3867-49.3164Q46.3867-50.8789 46.6797-51.3184Q46.9727-51.7578 48.4863-52.0996L71.0449-57.0312Q72.6074-57.373 73.5107-58.4717Q74.4141-59.5703 74.4141-61.1328Z"/>
  </g>
  <g id="Medium-M" transform="matrix(1 0 0 1 1703.64 1126)">
   <path d="M73.3887-61.0352L73.3887-79.3457Q73.3887-81.543 71.8262-82.8125Q70.2637-84.082 68.1641-83.6426L42.9688-78.125Q37.7441-77.002 37.7441-72.5098L37.8418-18.457Q38.1348-15.0879 35.1562-14.502L27.2949-12.8906Q19.7754-11.2793 16.1133-7.4707Q12.4512-3.66211 12.4512 2.09961Q12.4512 8.00781 16.5039 11.6943Q20.5566 15.3809 26.9043 15.3809Q29.9316 15.3809 33.1543 14.2334Q36.377 13.0859 39.1846 10.6934Q41.9922 8.30078 43.7256 4.49219Q45.459 0.683594 45.459-4.54102L45.459-49.2676Q45.459-50.9766 45.8496-51.5137Q46.2402-52.0508 47.8516-52.3926L70.3125-57.3242Q71.7285-57.666 72.5586-58.6426Q73.3887-59.6191 73.3887-61.0352Z"/>
  </g>
  <g id="Regular-M" transform="matrix(1 0 0 1 1407.61 1126)">
   <path d="M72.0215-60.9375L72.0215-79.2969Q72.0215-81.25 70.6543-82.3486Q69.2871-83.4473 67.4316-83.0566L42.334-77.5879Q37.5-76.5137 37.5-72.4609L37.5977-18.1641Q37.9883-14.4531 34.5703-13.7695L26.8066-12.1582Q19.4824-10.5957 15.9668-6.93359Q12.4512-3.27148 12.4512 2.24609Q12.4512 7.86133 16.333 11.4014Q20.2148 14.9414 26.3184 14.9414Q29.0039 14.9414 32.1045 13.8916Q35.2051 12.8418 37.9639 10.5469Q40.7227 8.25195 42.4805 4.5166Q44.2383 0.78125 44.2383-4.54102L44.2383-49.2188Q44.2383-51.123 44.751-51.7822Q45.2637-52.4414 47.0215-52.832L69.3359-57.7148Q70.5566-58.0078 71.2891-58.8623Q72.0215-59.7168 72.0215-60.9375Z"/>
  </g>
  <g id="Light-M" transform="matrix(1 0 0 1 1112 1126)">
   <path d="M69.8242-60.498L69.8242-78.3691Q69.8242-80.1758 68.6035-81.1523Q67.3828-82.1289 65.6738-81.7871L41.6016-76.5625Q37.4023-75.6348 37.4023-71.9727L37.5488-18.5059Q37.793-14.4043 34.082-13.623L26.3184-12.0117Q19.2871-10.5469 15.8691-7.05566Q12.4512-3.56445 12.4512 1.80664Q12.4512 7.17773 16.1621 10.5713Q19.873 13.9648 25.7324 13.9648Q28.3691 13.9648 31.3721 12.9395Q34.375 11.9141 37.0361 9.69238Q39.6973 7.4707 41.3818 3.85742Q43.0664 0.244141 43.0664-4.93164L43.0664-48.877Q43.0664-50.9277 43.6768-51.7334Q44.2871-52.5391 46.2402-52.9785L67.4316-57.6172Q68.5547-57.8613 69.1895-58.6182Q69.8242-59.375 69.8242-60.498Z"/>
  </g>
  <g id="Thin-M" transform="matrix(1 0 0 1 816.725 1126)">
   <path d="M66.9434-59.9121L66.9434-77.1484Q66.9434-78.7109 65.8936-79.5654Q64.8438-80.4199 63.3301-80.127L40.625-75.2441Q37.207-74.4629 37.207-71.3867L37.5-18.8965Q37.5488-14.3066 33.3984-13.4766L25.7324-11.8652Q18.9941-10.4492 15.7227-7.20215Q12.4512-3.95508 12.4512 1.2207Q12.4512 6.29883 15.918 9.44824Q19.3848 12.5977 25 12.5977Q27.5391 12.5977 30.3955 11.6455Q33.252 10.6934 35.791 8.56934Q38.3301 6.44531 39.9414 2.97852Q41.5527-0.488281 41.5527-5.46875L41.5527-48.4375Q41.5527-50.6836 42.3096-51.6602Q43.0664-52.6367 45.2148-53.125L64.9414-57.4707Q65.8691-57.666 66.4062-58.3008Q66.9434-58.9355 66.9434-59.9121Z"/>
  </g>
  <g id="Ultralight-M" transform="matrix(1 0 0 1 520.746 1126)">
   <path d="M65.4785-59.6191L65.4785-76.5137Q65.4785-77.9785 64.5264-78.7598Q63.5742-79.541 62.1582-79.248L40.1367-74.5605Q37.1582-73.877 37.1582-71.0449L37.4512-19.1406Q37.4512-14.2578 33.0566-13.3789L25.3906-11.7676Q18.8477-10.4004 15.6494-7.27539Q12.4512-4.15039 12.4512 0.927734Q12.4512 5.81055 15.8203 8.88672Q19.1895 11.9629 24.6094 11.9629Q27.0996 11.9629 29.9072 11.0107Q32.7148 10.0586 35.1807 8.00781Q37.6465 5.95703 39.1846 2.56348Q40.7227-0.830078 40.7227-5.71289L40.7227-48.2422Q40.7227-50.5859 41.5527-51.6602Q42.3828-52.7344 44.7266-53.2227L63.6719-57.373Q64.502-57.5684 64.9902-58.1543Q65.4785-58.7402 65.4785-59.6191Z"/>
  </g>
  <g id="Black-S" transform="matrix(1 0 0 1 2897.12 696)">
   <path d="M62.793-55.8594L62.793-69.9219Q62.793-72.6562 60.8154-74.2676Q58.8379-75.8789 56.2012-75.293L36.2793-70.9473Q30.5664-69.7266 30.5664-64.6973L30.5664-23.1934Q30.5664-22.0703 29.7363-21.875L23.3887-20.5566Q16.748-19.1895 13.2568-15.6006Q9.76562-12.0117 9.76562-6.49414Q9.76562-0.830078 13.5742 2.68555Q17.3828 6.20117 23.4375 6.20117Q28.2227 6.20117 32.0557 3.93066Q35.8887 1.66016 38.1104-2.27051Q40.332-6.20117 40.332-11.1328L40.332-46.3867Q40.332-47.0703 40.1855-46.9482Q40.0391-46.8262 40.7227-47.0215L58.8379-50.9766Q60.6445-51.3672 61.7188-52.71Q62.793-54.0527 62.793-55.8594Z"/>
  </g>
  <g id="Heavy-S" transform="matrix(1 0 0 1 2601.04 696)">
   <path d="M61.5234-55.8105L61.5234-69.9707Q61.5234-72.4609 59.7656-73.9014Q58.0078-75.3418 55.6152-74.8047L35.6445-70.459Q30.3223-69.3359 30.3223-64.6973L30.3223-22.8516Q30.3711-21.3379 29.1504-21.0938L22.9004-19.7754Q16.4062-18.4082 13.0859-14.9902Q9.76562-11.5723 9.76562-6.29883Q9.76562-0.878906 13.4033 2.46582Q17.041 5.81055 22.8516 5.81055Q27.1484 5.81055 30.8838 3.71094Q34.6191 1.61133 36.8652-2.19727Q39.1113-6.00586 39.1113-11.084L39.1113-46.3867Q39.1113-47.2656 39.0869-47.2656Q39.0625-47.2656 39.8926-47.4609L58.0078-51.416Q59.6191-51.7578 60.5713-52.9785Q61.5234-54.1992 61.5234-55.8105Z"/>
  </g>
  <g id="Bold-S" transform="matrix(1 0 0 1 2305.02 696)">
   <path d="M60.1562-55.7617L60.1562-70.0684Q60.1562-72.2656 58.5938-73.5107Q57.0312-74.7559 54.9316-74.3164L34.9121-69.9219Q30.0293-68.8965 30.0293-64.6973L30.0293-22.4609Q30.2246-20.5078 28.5645-20.2148L22.3145-18.8965Q16.0645-17.5781 12.915-14.3066Q9.76562-11.0352 9.76562-6.05469Q9.76562-0.976562 13.2324 2.22168Q16.6992 5.41992 22.168 5.41992Q25.9766 5.41992 29.5654 3.51562Q33.1543 1.61133 35.4736-2.0752Q37.793-5.76172 37.793-11.084L37.793-46.3867Q37.793-47.4609 37.8906-47.6074Q37.9883-47.7539 39.0137-47.998L57.0801-51.9531Q58.4961-52.2461 59.3262-53.2959Q60.1562-54.3457 60.1562-55.7617Z"/>
  </g>
  <g id="Semibold-S" transform="matrix(1 0 0 1 2008.79 696)">
   <path d="M59.1797-55.7129L59.1797-70.1172Q59.1797-72.0703 57.7881-73.2178Q56.3965-74.3652 54.4922-73.9258L34.4238-69.5312Q29.834-68.5547 29.834-64.6484L29.834-22.168Q30.0781-19.9219 28.125-19.5801L21.9238-18.3105Q15.8203-16.9922 12.793-13.8428Q9.76562-10.6934 9.76562-5.9082Q9.76562-1.02539 13.1104 2.02637Q16.4551 5.07812 21.7285 5.07812Q25.1465 5.07812 28.6621 3.32031Q32.1777 1.5625 34.4971-2.02637Q36.8164-5.61523 36.8164-11.0352L36.8164-46.3379Q36.8164-47.5586 37.0361-47.8271Q37.2559-48.0957 38.3789-48.3398L56.3965-52.2949Q57.666-52.5879 58.4229-53.5156Q59.1797-54.4434 59.1797-55.7129Z"/>
  </g>
  <g id="Medium-S" transform="matrix(1 0 0 1 1712.45 696)">
   <path d="M58.4473-55.6641L58.4473-70.166Q58.4473-71.9727 57.1533-72.998Q55.8594-74.0234 54.1016-73.6328L34.0332-69.2871Q29.6875-68.3105 29.6875-64.6484L29.6875-21.9727Q29.9805-19.5312 27.7832-19.0918L21.6309-17.8223Q15.625-16.5527 12.6953-13.4766Q9.76562-10.4004 9.76562-5.76172Q9.76562-1.07422 13.0127 1.9043Q16.2598 4.88281 21.3379 4.88281Q24.5605 4.88281 27.9785 3.22266Q31.3965 1.5625 33.7646-1.95312Q36.1328-5.46875 36.1328-11.0352L36.1328-46.3379Q36.1328-47.6562 36.4014-47.998Q36.6699-48.3398 37.8906-48.584L55.9082-52.5879Q57.0801-52.832 57.7637-53.6621Q58.4473-54.4922 58.4473-55.6641Z"/>
  </g>
  <g id="Regular-S" transform="matrix(1 0 0 1 1416.23 696)">
   <path d="M57.4707-55.6152L57.4707-70.2148Q57.4707-71.8262 56.3477-72.7295Q55.2246-73.6328 53.6621-73.291L33.5449-68.8965Q29.4922-68.0176 29.4922-64.6484L29.4922-21.6797Q29.834-18.9453 27.3438-18.5059L21.2402-17.2363Q15.3809-15.9668 12.5732-13.0127Q9.76562-10.0586 9.76562-5.61523Q9.76562-1.12305 12.8906 1.7334Q16.0156 4.58984 20.8984 4.58984Q23.7305 4.58984 27.0752 3.05176Q30.4199 1.51367 32.8125-1.9043Q35.2051-5.32227 35.2051-10.9863L35.2051-46.3379Q35.2051-47.8027 35.5713-48.2422Q35.9375-48.6816 37.2559-48.9258L55.2734-52.9297Q56.2988-53.125 56.8848-53.8574Q57.4707-54.5898 57.4707-55.6152Z"/>
  </g>
  <g id="Light-S" transform="matrix(1 0 0 1 1120.47 696)">
   <path d="M55.5664-55.2246L55.5664-69.3848Q55.5664-70.8496 54.541-71.6553Q53.5156-72.4609 52.0996-72.168L32.9102-68.0176Q29.3945-67.2363 29.3945-64.209L29.4434-21.9727Q29.6875-18.8965 26.9043-18.4082L20.8008-17.1387Q15.1855-15.918 12.4756-13.1104Q9.76562-10.3027 9.76562-6.00586Q9.76562-1.70898 12.7441 1.00098Q15.7227 3.71094 20.3613 3.71094Q23.1445 3.71094 26.3672 2.22168Q29.5898 0.732422 31.8848-2.56348Q34.1797-5.85938 34.1797-11.3281L34.1797-46.0449Q34.1797-47.6562 34.6436-48.2178Q35.1074-48.7793 36.5723-49.0234L53.6133-52.832Q54.4922-53.0273 55.0293-53.6621Q55.5664-54.2969 55.5664-55.2246Z"/>
  </g>
  <g id="Thin-S" transform="matrix(1 0 0 1 825.026 696)">
   <path d="M53.0273-54.6875L53.0273-68.3105Q53.0273-69.5801 52.1484-70.2637Q51.2695-70.9473 50.0977-70.7031L32.0312-66.8457Q29.1992-66.2109 29.1992-63.6719L29.3945-22.3633Q29.4922-18.8477 26.2695-18.2129L20.2637-16.9434Q14.9414-15.8203 12.3535-13.2324Q9.76562-10.6445 9.76562-6.54297Q9.76562-2.53906 12.5488 0Q15.332 2.53906 19.7266 2.53906Q22.4121 2.53906 25.4639 1.12305Q28.5156-0.292969 30.6885-3.41797Q32.8613-6.54297 32.8613-11.8164L32.8613-45.6543Q32.8613-47.4121 33.4229-48.1445Q33.9844-48.877 35.6445-49.2188L51.3672-52.6855Q52.1484-52.832 52.5879-53.3691Q53.0273-53.9062 53.0273-54.6875Z"/>
  </g>
  <g id="Ultralight-S" transform="matrix(1 0 0 1 528.974 696)">
   <path d="M51.709-54.3945L51.709-67.7734Q51.709-68.8965 50.9277-69.5312Q50.1465-70.166 49.0234-69.9219L31.5918-66.2109Q29.1504-65.6738 29.1504-63.3789L29.3457-22.5586Q29.3945-18.7988 25.9766-18.1641L19.9707-16.8945Q14.8438-15.7715 12.3047-13.2812Q9.76562-10.791 9.76562-6.83594Q9.76562-2.92969 12.4268-0.512695Q15.0879 1.9043 19.3359 1.9043Q22.0215 1.9043 25 0.561523Q27.9785-0.78125 30.0781-3.85742Q32.1777-6.93359 32.1777-12.0605L32.1777-45.459Q32.1777-47.3145 32.7881-48.1201Q33.3984-48.9258 35.1562-49.2676L50.2441-52.5879Q50.9277-52.7832 51.3184-53.2227Q51.709-53.6621 51.709-54.3945Z"/>
  </g>
 </g>
</svg>
