<?xml version="1.0" encoding="UTF-8"?>
<!--Generator: Apple Native CoreSVG 149-->
<!DOCTYPE svg
PUBLIC "-//W3C//DTD SVG 1.1//EN"
       "http://www.w3.org/Graphics/SVG/1.1/DTD/svg11.dtd">
<svg version="1.1" xmlns="http://www.w3.org/2000/svg" xmlns:xlink="http://www.w3.org/1999/xlink" width="3300" height="2200">
 <!--glyph: "uni100211.medium", point size: 100.0, font version: "17.0d9e1", template writer version: "59"-->
 <g id="Notes">
  <rect height="2200" id="artboard" style="fill:white;opacity:1" width="3300" x="0" y="0"/>
  <line style="fill:none;stroke:black;opacity:1;stroke-width:0.5;" x1="263" x2="3036" y1="292" y2="292"/>
  <text style="stroke:none;fill:black;font-family:sans-serif;font-size:13;font-weight:bold;" transform="matrix(1 0 0 1 263 322)">Weight/Scale Variations</text>
  <text style="stroke:none;fill:black;font-family:sans-serif;font-size:13;text-anchor:middle;" transform="matrix(1 0 0 1 559.711 322)">Ultralight</text>
  <text style="stroke:none;fill:black;font-family:sans-serif;font-size:13;text-anchor:middle;" transform="matrix(1 0 0 1 856.422 322)">Thin</text>
  <text style="stroke:none;fill:black;font-family:sans-serif;font-size:13;text-anchor:middle;" transform="matrix(1 0 0 1 1153.13 322)">Light</text>
  <text style="stroke:none;fill:black;font-family:sans-serif;font-size:13;text-anchor:middle;" transform="matrix(1 0 0 1 1449.84 322)">Regular</text>
  <text style="stroke:none;fill:black;font-family:sans-serif;font-size:13;text-anchor:middle;" transform="matrix(1 0 0 1 1746.56 322)">Medium</text>
  <text style="stroke:none;fill:black;font-family:sans-serif;font-size:13;text-anchor:middle;" transform="matrix(1 0 0 1 2043.27 322)">Semibold</text>
  <text style="stroke:none;fill:black;font-family:sans-serif;font-size:13;text-anchor:middle;" transform="matrix(1 0 0 1 2339.98 322)">Bold</text>
  <text style="stroke:none;fill:black;font-family:sans-serif;font-size:13;text-anchor:middle;" transform="matrix(1 0 0 1 2636.69 322)">Heavy</text>
  <text style="stroke:none;fill:black;font-family:sans-serif;font-size:13;text-anchor:middle;" transform="matrix(1 0 0 1 2933.4 322)">Black</text>
  <line style="fill:none;stroke:black;opacity:1;stroke-width:0.5;" x1="263" x2="3036" y1="1903" y2="1903"/>
  <g transform="matrix(1 0 0 1 263 1933)">
   <path d="M9.24805 0.830078Q10.8691 0.830078 12.2949 0.214844Q13.7207-0.400391 14.8096-1.49414Q15.8984-2.58789 16.5186-4.01367Q17.1387-5.43945 17.1387-7.05078Q17.1387-8.66211 16.5186-10.0879Q15.8984-11.5137 14.8047-12.6074Q13.7109-13.7012 12.2852-14.3164Q10.8594-14.9316 9.23828-14.9316Q7.62695-14.9316 6.20117-14.3164Q4.77539-13.7012 3.69141-12.6074Q2.60742-11.5137 1.9873-10.0879Q1.36719-8.66211 1.36719-7.05078Q1.36719-5.43945 1.9873-4.01367Q2.60742-2.58789 3.69629-1.49414Q4.78516-0.400391 6.21094 0.214844Q7.63672 0.830078 9.24805 0.830078ZM9.24805-0.654297Q7.91992-0.654297 6.7627-1.14746Q5.60547-1.64062 4.73145-2.51953Q3.85742-3.39844 3.36426-4.56055Q2.87109-5.72266 2.87109-7.05078Q2.87109-8.37891 3.35938-9.54102Q3.84766-10.7031 4.72168-11.582Q5.5957-12.4609 6.75293-12.9541Q7.91016-13.4473 9.23828-13.4473Q10.5762-13.4473 11.7334-12.9541Q12.8906-12.4609 13.7695-11.582Q14.6484-10.7031 15.1465-9.54102Q15.6445-8.37891 15.6445-7.05078Q15.6445-5.72266 15.1514-4.56055Q14.6582-3.39844 13.7842-2.51953Q12.9102-1.64062 11.748-1.14746Q10.5859-0.654297 9.24805-0.654297ZM5.83984-7.04102Q5.83984-6.71875 6.04492-6.51855Q6.25-6.31836 6.5918-6.31836L8.50586-6.31836L8.50586-4.39453Q8.50586-4.0625 8.70605-3.85742Q8.90625-3.65234 9.22852-3.65234Q9.56055-3.65234 9.76562-3.85742Q9.9707-4.0625 9.9707-4.39453L9.9707-6.31836L11.8945-6.31836Q12.2266-6.31836 12.4316-6.51855Q12.6367-6.71875 12.6367-7.04102Q12.6367-7.37305 12.4316-7.57812Q12.2266-7.7832 11.8945-7.7832L9.9707-7.7832L9.9707-9.69727Q9.9707-10.0391 9.76562-10.2441Q9.56055-10.4492 9.22852-10.4492Q8.90625-10.4492 8.70605-10.2441Q8.50586-10.0391 8.50586-9.69727L8.50586-7.7832L6.5918-7.7832Q6.25-7.7832 6.04492-7.57812Q5.83984-7.37305 5.83984-7.04102Z"/>
  </g>
  <g transform="matrix(1 0 0 1 281.867 1933)">
   <path d="M11.709 2.91016Q13.75 2.91016 15.5518 2.12891Q17.3535 1.34766 18.7305-0.0292969Q20.1074-1.40625 20.8887-3.20801Q21.6699-5.00977 21.6699-7.05078Q21.6699-9.0918 20.8887-10.8936Q20.1074-12.6953 18.7305-14.0723Q17.3535-15.4492 15.5469-16.2305Q13.7402-17.0117 11.6992-17.0117Q9.6582-17.0117 7.85645-16.2305Q6.05469-15.4492 4.68262-14.0723Q3.31055-12.6953 2.5293-10.8936Q1.74805-9.0918 1.74805-7.05078Q1.74805-5.00977 2.5293-3.20801Q3.31055-1.40625 4.6875-0.0292969Q6.06445 1.34766 7.86621 2.12891Q9.66797 2.91016 11.709 2.91016ZM11.709 1.25Q9.98047 1.25 8.47656 0.605469Q6.97266-0.0390625 5.83496-1.17676Q4.69727-2.31445 4.05762-3.81836Q3.41797-5.32227 3.41797-7.05078Q3.41797-8.7793 4.05762-10.2832Q4.69727-11.7871 5.83008-12.9297Q6.96289-14.0723 8.4668-14.7119Q9.9707-15.3516 11.6992-15.3516Q13.4277-15.3516 14.9316-14.7119Q16.4355-14.0723 17.5781-12.9297Q18.7207-11.7871 19.3652-10.2832Q20.0098-8.7793 20.0098-7.05078Q20.0098-5.32227 19.3701-3.81836Q18.7305-2.31445 17.5928-1.17676Q16.4551-0.0390625 14.9463 0.605469Q13.4375 1.25 11.709 1.25ZM7.39258-7.04102Q7.39258-6.68945 7.62695-6.46484Q7.86133-6.24023 8.23242-6.24023L10.8789-6.24023L10.8789-3.57422Q10.8789-3.21289 11.1035-2.9834Q11.3281-2.75391 11.6797-2.75391Q12.0508-2.75391 12.2852-2.9834Q12.5195-3.21289 12.5195-3.57422L12.5195-6.24023L15.1758-6.24023Q15.5371-6.24023 15.7715-6.46484Q16.0059-6.68945 16.0059-7.04102Q16.0059-7.41211 15.7715-7.6416Q15.5371-7.87109 15.1758-7.87109L12.5195-7.87109L12.5195-10.5176Q12.5195-10.8984 12.2852-11.1279Q12.0508-11.3574 11.6797-11.3574Q11.3281-11.3574 11.1035-11.1279Q10.8789-10.8984 10.8789-10.5176L10.8789-7.87109L8.23242-7.87109Q7.85156-7.87109 7.62207-7.6416Q7.39258-7.41211 7.39258-7.04102Z"/>
  </g>
  <g transform="matrix(1 0 0 1 305.646 1933)">
   <path d="M14.9707 5.66406Q17.0605 5.66406 18.96 5.01465Q20.8594 4.36523 22.4512 3.19336Q24.043 2.02148 25.2197 0.429688Q26.3965-1.16211 27.0459-3.06641Q27.6953-4.9707 27.6953-7.05078Q27.6953-9.14062 27.0459-11.04Q26.3965-12.9395 25.2197-14.5312Q24.043-16.123 22.4512-17.2998Q20.8594-18.4766 18.9551-19.126Q17.0508-19.7754 14.9609-19.7754Q12.8711-19.7754 10.9717-19.126Q9.07227-18.4766 7.48535-17.2998Q5.89844-16.123 4.72168-14.5312Q3.54492-12.9395 2.90039-11.04Q2.25586-9.14062 2.25586-7.05078Q2.25586-4.9707 2.90527-3.06641Q3.55469-1.16211 4.72656 0.429688Q5.89844 2.02148 7.49023 3.19336Q9.08203 4.36523 10.9814 5.01465Q12.8809 5.66406 14.9707 5.66406ZM14.9707 3.84766Q13.1641 3.84766 11.5283 3.2959Q9.89258 2.74414 8.53516 1.74805Q7.17773 0.751953 6.17676-0.610352Q5.17578-1.97266 4.62891-3.6084Q4.08203-5.24414 4.08203-7.05078Q4.08203-8.86719 4.62891-10.5029Q5.17578-12.1387 6.17188-13.501Q7.16797-14.8633 8.52539-15.8594Q9.88281-16.8555 11.5186-17.4023Q13.1543-17.9492 14.9609-17.9492Q16.7773-17.9492 18.4131-17.4023Q20.0488-16.8555 21.4111-15.8594Q22.7734-14.8633 23.7695-13.501Q24.7656-12.1387 25.3174-10.5029Q25.8691-8.86719 25.8691-7.05078Q25.8789-5.24414 25.332-3.6084Q24.7852-1.97266 23.7842-0.610352Q22.7832 0.751953 21.4209 1.74805Q20.0586 2.74414 18.4229 3.2959Q16.7871 3.84766 14.9707 3.84766ZM9.45312-7.04102Q9.45312-6.66016 9.71191-6.41113Q9.9707-6.16211 10.3711-6.16211L14.0625-6.16211L14.0625-2.46094Q14.0625-2.06055 14.3115-1.80664Q14.5605-1.55273 14.9414-1.55273Q15.3516-1.55273 15.6055-1.80664Q15.8594-2.06055 15.8594-2.46094L15.8594-6.16211L19.5605-6.16211Q19.9609-6.16211 20.2148-6.41113Q20.4688-6.66016 20.4688-7.04102Q20.4688-7.45117 20.2148-7.70508Q19.9609-7.95898 19.5605-7.95898L15.8594-7.95898L15.8594-11.6504Q15.8594-12.0605 15.6055-12.3145Q15.3516-12.5684 14.9414-12.5684Q14.5605-12.5684 14.3115-12.3096Q14.0625-12.0508 14.0625-11.6504L14.0625-7.95898L10.3711-7.95898Q9.96094-7.95898 9.70703-7.70508Q9.45312-7.45117 9.45312-7.04102Z"/>
  </g>
  <text style="stroke:none;fill:black;font-family:sans-serif;font-size:13;font-weight:bold;" transform="matrix(1 0 0 1 263 1953)">Design Variations</text>
  <text style="stroke:none;fill:black;font-family:sans-serif;font-size:13;" transform="matrix(1 0 0 1 263 1971)">Symbols are supported in up to nine weights and three scales.</text>
  <text style="stroke:none;fill:black;font-family:sans-serif;font-size:13;" transform="matrix(1 0 0 1 263 1989)">For optimal layout with text and other symbols, vertically align</text>
  <text style="stroke:none;fill:black;font-family:sans-serif;font-size:13;" transform="matrix(1 0 0 1 263 2007)">symbols with the adjacent text.</text>
  <line style="fill:none;stroke:#00AEEF;stroke-width:0.5;opacity:1.0;" x1="776" x2="776" y1="1919" y2="1933"/>
  <g transform="matrix(1 0 0 1 776 1933)">
   <path d="M3.31055 0.15625Q3.70117 0.15625 3.91602-0.00976562Q4.13086-0.175781 4.26758-0.585938L5.52734-4.0332L11.2891-4.0332L12.5488-0.585938Q12.6855-0.175781 12.9004-0.00976562Q13.1152 0.15625 13.4961 0.15625Q13.8867 0.15625 14.1162-0.0585938Q14.3457-0.273438 14.3457-0.644531Q14.3457-0.869141 14.2383-1.17188L9.6582-13.3691Q9.48242-13.8184 9.17969-14.043Q8.87695-14.2676 8.4082-14.2676Q7.5-14.2676 7.17773-13.3789L2.59766-1.16211Q2.49023-0.859375 2.49023-0.634766Q2.49023-0.263672 2.70996-0.0537109Q2.92969 0.15625 3.31055 0.15625ZM6.00586-5.51758L8.37891-12.0898L8.42773-12.0898L10.8008-5.51758Z"/>
  </g>
  <line style="fill:none;stroke:#00AEEF;stroke-width:0.5;opacity:1.0;" x1="793.197" x2="793.197" y1="1919" y2="1933"/>
  <text style="stroke:none;fill:black;font-family:sans-serif;font-size:13;font-weight:bold;" transform="matrix(1 0 0 1 776 1953)">Margins</text>
  <text style="stroke:none;fill:black;font-family:sans-serif;font-size:13;" transform="matrix(1 0 0 1 776 1971)">Leading and trailing margins on the left and right side of each symbol</text>
  <text style="stroke:none;fill:black;font-family:sans-serif;font-size:13;" transform="matrix(1 0 0 1 776 1989)">can be adjusted by modifying the x-location of the margin guidelines.</text>
  <text style="stroke:none;fill:black;font-family:sans-serif;font-size:13;" transform="matrix(1 0 0 1 776 2007)">Modifications are automatically applied proportionally to all</text>
  <text style="stroke:none;fill:black;font-family:sans-serif;font-size:13;" transform="matrix(1 0 0 1 776 2025)">scales and weights.</text>
  <g transform="matrix(1 0 0 1 1289 1933)">
   <path d="M2.8418 1.86523L4.54102 3.57422Q5.18555 4.22852 5.90332 4.17969Q6.62109 4.13086 7.31445 3.35938L18.0078-8.42773L17.041-9.4043L6.42578 2.27539Q6.16211 2.57812 5.89355 2.61719Q5.625 2.65625 5.27344 2.30469L4.10156 1.14258Q3.75 0.791016 3.79395 0.522461Q3.83789 0.253906 4.14062-0.0195312L15.6152-10.8203L14.6387-11.7871L3.04688-0.898438Q2.30469-0.214844 2.25098 0.498047Q2.19727 1.21094 2.8418 1.86523ZM9.25781-16.3281Q8.94531-16.0254 8.90625-15.6348Q8.86719-15.2441 9.04297-14.9512Q9.21875-14.6777 9.55566-14.541Q9.89258-14.4043 10.3809-14.5215Q11.4746-14.7754 12.5977-14.7314Q13.7207-14.6875 14.7949-13.9844L14.209-12.5293Q13.9551-11.9043 14.0674-11.4404Q14.1797-10.9766 14.5801-10.5664L16.875-8.25195Q17.2363-7.88086 17.5781-7.82227Q17.9199-7.76367 18.3398-7.8418L19.4043-8.03711L20.0684-7.36328L20.0293-6.80664Q20-6.43555 20.1221-6.12305Q20.2441-5.81055 20.6055-5.44922L21.3672-4.70703Q21.7285-4.3457 22.1533-4.33105Q22.5781-4.31641 22.9297-4.66797L25.8398-7.58789Q26.1914-7.93945 26.1816-8.35449Q26.1719-8.76953 25.8105-9.13086L25.0391-9.89258Q24.6875-10.2539 24.3799-10.3857Q24.0723-10.5176 23.7109-10.4883L23.1348-10.4395L22.4902-11.0742L22.7344-12.1973Q22.832-12.6172 22.6953-12.9834Q22.5586-13.3496 22.1191-13.7891L19.9219-15.9766Q18.6719-17.2168 17.2607-17.8369Q15.8496-18.457 14.4189-18.4814Q12.9883-18.5059 11.665-17.959Q10.3418-17.4121 9.25781-16.3281ZM10.752-15.957Q11.6602-16.6211 12.7002-16.9043Q13.7402-17.1875 14.8047-17.085Q15.8691-16.9824 16.8701-16.5137Q17.8711-16.0449 18.7012-15.2051L21.1328-12.793Q21.3086-12.6172 21.3525-12.4512Q21.3965-12.2852 21.3379-12.0312L21.0156-10.5469L22.5195-9.0625L23.5059-9.12109Q23.6914-9.13086 23.7891-9.09668Q23.8867-9.0625 24.0332-8.91602L24.6094-8.33984L22.168-5.89844L21.5918-6.47461Q21.4453-6.62109 21.4062-6.71875Q21.3672-6.81641 21.377-7.01172L21.4453-7.98828L19.9512-9.47266L18.4277-9.21875Q18.1836-9.16992 18.042-9.2041Q17.9004-9.23828 17.7148-9.41406L15.7129-11.416Q15.5176-11.5918 15.4932-11.7529Q15.4688-11.9141 15.5859-12.1875L16.4648-14.2773Q15.293-15.3711 13.8281-15.791Q12.3633-16.2109 10.8398-15.7617Q10.7227-15.7324 10.6885-15.8057Q10.6543-15.8789 10.752-15.957Z"/>
  </g>
  <text style="stroke:none;fill:black;font-family:sans-serif;font-size:13;font-weight:bold;" transform="matrix(1 0 0 1 1289 1953)">Exporting</text>
  <text style="stroke:none;fill:black;font-family:sans-serif;font-size:13;" transform="matrix(1 0 0 1 1289 1971)">Symbols should be outlined when exporting to ensure the</text>
  <text style="stroke:none;fill:black;font-family:sans-serif;font-size:13;" transform="matrix(1 0 0 1 1289 1989)">design is preserved when submitting to Xcode.</text>
  <text id="template-version" style="stroke:none;fill:black;font-family:sans-serif;font-size:13;text-anchor:end;" transform="matrix(1 0 0 1 3036 1933)">Template v.2.0</text>
  <text style="stroke:none;fill:black;font-family:sans-serif;font-size:13;text-anchor:end;" transform="matrix(1 0 0 1 3036 1951)">Requires Xcode 13 or greater</text>
  <text id="descriptive-name" style="stroke:none;fill:black;font-family:sans-serif;font-size:13;text-anchor:end;" transform="matrix(1 0 0 1 3036 1969)">Generated from trash</text>
  <text style="stroke:none;fill:black;font-family:sans-serif;font-size:13;text-anchor:end;" transform="matrix(1 0 0 1 3036 1987)">Typeset at 100 points</text>
  <text style="stroke:none;fill:black;font-family:sans-serif;font-size:13;" transform="matrix(1 0 0 1 263 726)">Small</text>
  <text style="stroke:none;fill:black;font-family:sans-serif;font-size:13;" transform="matrix(1 0 0 1 263 1156)">Medium</text>
  <text style="stroke:none;fill:black;font-family:sans-serif;font-size:13;" transform="matrix(1 0 0 1 263 1586)">Large</text>
 </g>
 <g id="Guides">
  <g id="H-reference" style="fill:#27AAE1;stroke:none;" transform="matrix(1 0 0 1 339 696)">
   <path d="M0.976562 0L3.66211 0L29.3457-67.1387L30.0293-67.1387L30.0293-70.459L28.125-70.459ZM11.6699-24.4629L46.9727-24.4629L46.2402-26.709L12.4512-26.709ZM55.127 0L57.7637 0L30.6152-70.459L29.4434-70.459L29.4434-67.1387Z"/>
  </g>
  <line id="Baseline-S" style="fill:none;stroke:#27AAE1;opacity:1;stroke-width:0.5;" x1="263" x2="3036" y1="696" y2="696"/>
  <line id="Capline-S" style="fill:none;stroke:#27AAE1;opacity:1;stroke-width:0.5;" x1="263" x2="3036" y1="625.541" y2="625.541"/>
  <g id="H-reference" style="fill:#27AAE1;stroke:none;" transform="matrix(1 0 0 1 339 1126)">
   <path d="M0.976562 0L3.66211 0L29.3457-67.1387L30.0293-67.1387L30.0293-70.459L28.125-70.459ZM11.6699-24.4629L46.9727-24.4629L46.2402-26.709L12.4512-26.709ZM55.127 0L57.7637 0L30.6152-70.459L29.4434-70.459L29.4434-67.1387Z"/>
  </g>
  <line id="Baseline-M" style="fill:none;stroke:#27AAE1;opacity:1;stroke-width:0.5;" x1="263" x2="3036" y1="1126" y2="1126"/>
  <line id="Capline-M" style="fill:none;stroke:#27AAE1;opacity:1;stroke-width:0.5;" x1="263" x2="3036" y1="1055.54" y2="1055.54"/>
  <g id="H-reference" style="fill:#27AAE1;stroke:none;" transform="matrix(1 0 0 1 339 1556)">
   <path d="M0.976562 0L3.66211 0L29.3457-67.1387L30.0293-67.1387L30.0293-70.459L28.125-70.459ZM11.6699-24.4629L46.9727-24.4629L46.2402-26.709L12.4512-26.709ZM55.127 0L57.7637 0L30.6152-70.459L29.4434-70.459L29.4434-67.1387Z"/>
  </g>
  <line id="Baseline-L" style="fill:none;stroke:#27AAE1;opacity:1;stroke-width:0.5;" x1="263" x2="3036" y1="1556" y2="1556"/>
  <line id="Capline-L" style="fill:none;stroke:#27AAE1;opacity:1;stroke-width:0.5;" x1="263" x2="3036" y1="1485.54" y2="1485.54"/>
  <line id="left-margin" style="fill:none;stroke:#00AEEF;stroke-width:0.5;opacity:1.0;" x1="1395.11" x2="1395.11" y1="1030.79" y2="1150.12"/>
  <line id="right-margin" style="fill:none;stroke:#00AEEF;stroke-width:0.5;opacity:1.0;" x1="1504.58" x2="1504.58" y1="1030.79" y2="1150.12"/>
 </g>
 <g id="Symbols">
  <g id="Black-L" transform="matrix(1 0 0 1 2857.69 1556)">
   <path d="M46.4844 32.4707L104.98 32.4707Q110.938 32.4707 115.21 30.4443Q119.482 28.418 121.826 24.3896Q124.17 20.3613 124.463 14.3555L128.369-73.1445L133.105-73.1445Q136.865-73.1445 139.307-75.4883Q141.748-77.832 141.748-81.5918Q141.748-85.2539 139.307-87.5732Q136.865-89.8926 133.105-89.8926L18.3105-89.8926Q14.5996-89.8926 12.1338-87.5732Q9.66797-85.2539 9.66797-81.5918Q9.66797-77.832 12.1338-75.4883Q14.5996-73.1445 18.3105-73.1445L23.0469-73.1445L26.9531 14.3555Q27.2461 20.4102 29.5898 24.4141Q31.9336 28.418 36.2061 30.4443Q40.4785 32.4707 46.4844 32.4707ZM49.0234 15.3809Q46.7285 15.3809 45.459 13.916Q44.1895 12.4512 44.0918 9.66797L40.2832-73.1445L111.035-73.1445L107.324 9.66797Q107.227 12.4512 105.981 13.916Q104.736 15.3809 102.393 15.3809ZM57.4707 7.4707Q60.2051 7.4707 61.7676 5.85938Q63.3301 4.24805 63.2812 1.66016L61.4746-59.375Q61.4258-61.9141 59.7656-63.4766Q58.1055-65.0391 55.4688-65.0391Q52.832-65.0391 51.3184-63.4521Q49.8047-61.8652 49.8535-59.2773L51.6602 1.80664Q51.709 4.3457 53.3447 5.9082Q54.9805 7.4707 57.4707 7.4707ZM75.7324 7.4707Q78.3203 7.4707 79.9072 5.93262Q81.4941 4.39453 81.4941 1.85547L81.4941-59.4238Q81.4941-61.9629 79.9072-63.501Q78.3203-65.0391 75.7324-65.0391Q73.0957-65.0391 71.5088-63.501Q69.9219-61.9629 69.9219-59.4238L69.9219 1.85547Q69.9219 4.39453 71.5088 5.93262Q73.0957 7.4707 75.7324 7.4707ZM93.9453 7.4707Q96.4355 7.4707 98.0713 5.9082Q99.707 4.3457 99.7559 1.80664L101.562-59.2773Q101.611-61.8652 100.098-63.4521Q98.584-65.0391 95.9473-65.0391Q93.3105-65.0391 91.6504-63.4766Q89.9902-61.9141 89.9414-59.375L88.1348 1.66016Q88.0859 4.24805 89.6484 5.85938Q91.2109 7.4707 93.9453 7.4707ZM43.7012-86.4258L61.1816-86.4258L61.1816-98.1445Q61.1816-99.707 62.207-100.586Q63.2324-101.465 65.0879-101.465L86.2793-101.465Q88.1348-101.465 89.1602-100.586Q90.1855-99.707 90.1855-98.1445L90.1855-86.4258L107.666-86.4258L107.666-98.584Q107.666-107.178 102.539-111.743Q97.4121-116.309 87.6465-116.309L63.7207-116.309Q53.9551-116.309 48.8281-111.743Q43.7012-107.178 43.7012-98.584Z"/>
  </g>
  <g id="Heavy-L" transform="matrix(1 0 0 1 2562.27 1556)">
   <path d="M45.3125 31.6895L103.564 31.6895Q109.082 31.6895 113.11 29.7119Q117.139 27.7344 119.385 23.9258Q121.631 20.1172 121.924 14.502L125.977-74.3164L131.592-74.3164Q134.863-74.3164 137.012-76.3916Q139.16-78.4668 139.16-81.7383Q139.16-84.9121 137.012-86.9873Q134.863-89.0625 131.592-89.0625L17.2363-89.0625Q14.0137-89.0625 11.8408-86.9873Q9.66797-84.9121 9.66797-81.7383Q9.66797-78.4668 11.8408-76.3916Q14.0137-74.3164 17.2363-74.3164L22.8516-74.3164L26.9043 14.5508Q27.1973 20.166 29.4189 23.9746Q31.6406 27.7832 35.6689 29.7363Q39.6973 31.6895 45.3125 31.6895ZM47.4121 16.6992Q44.9707 16.6992 43.5303 15.1123Q42.0898 13.5254 41.9922 10.7422L38.0371-74.3164L110.693-74.3164L106.836 10.7422Q106.689 13.5254 105.273 15.1123Q103.857 16.6992 101.367 16.6992ZM56.0547 7.91016Q58.4961 7.91016 59.9121 6.46973Q61.3281 5.0293 61.2793 2.68555L59.4238-60.2051Q59.375-62.4512 57.8857-63.8428Q56.3965-65.2344 54.0527-65.2344Q51.6602-65.2344 50.2686-63.8184Q48.877-62.4023 48.9258-60.1074L50.7812 2.83203Q50.8301 5.12695 52.2949 6.51855Q53.7598 7.91016 56.0547 7.91016ZM74.4141 7.91016Q76.7578 7.91016 78.1982 6.51855Q79.6387 5.12695 79.6387 2.88086L79.6387-60.2051Q79.6387-62.5 78.1982-63.8672Q76.7578-65.2344 74.4141-65.2344Q72.0703-65.2344 70.6055-63.8672Q69.1406-62.5 69.1406-60.2051L69.1406 2.88086Q69.1406 5.12695 70.6055 6.51855Q72.0703 7.91016 74.4141 7.91016ZM92.7734 7.91016Q95.0195 7.91016 96.4844 6.51855Q97.9492 5.12695 97.998 2.83203L99.8535-60.1074Q99.9023-62.4023 98.5352-63.8184Q97.168-65.2344 94.7754-65.2344Q92.4316-65.2344 90.9424-63.8428Q89.4531-62.4512 89.4043-60.1562L87.5488 2.68555Q87.5 5.0293 88.916 6.46973Q90.332 7.91016 92.7734 7.91016ZM43.5547-85.4492L58.9355-85.4492L58.9355-97.6074Q58.9355-99.4629 60.1562-100.562Q61.377-101.66 63.5254-101.66L85.2539-101.66Q87.4023-101.66 88.623-100.562Q89.8438-99.4629 89.8438-97.6074L89.8438-85.4492L105.225-85.4492L105.225-98.0469Q105.225-106.152 100.366-110.522Q95.5078-114.893 86.377-114.893L62.3535-114.893Q53.2715-114.893 48.4131-110.522Q43.5547-106.152 43.5547-98.0469Z"/>
  </g>
  <g id="Bold-L" transform="matrix(1 0 0 1 2267.03 1556)">
   <path d="M44.043 30.8105L101.953 30.8105Q107.031 30.8105 110.791 28.9062Q114.551 27.002 116.699 23.4131Q118.848 19.8242 119.092 14.6973L123.291-75.6348L129.883-75.6348Q132.617-75.6348 134.424-77.417Q136.23-79.1992 136.23-81.8848Q136.23-84.5703 134.424-86.3281Q132.617-88.0859 129.883-88.0859L16.0156-88.0859Q13.3789-88.0859 11.5234-86.3281Q9.66797-84.5703 9.66797-81.8848Q9.66797-79.1992 11.5234-77.417Q13.3789-75.6348 16.0156-75.6348L22.6562-75.6348L26.8555 14.7461Q27.0996 19.873 29.2236 23.4619Q31.3477 27.0508 35.1074 28.9307Q38.8672 30.8105 44.043 30.8105ZM45.6543 18.2129Q43.0664 18.2129 41.4307 16.5039Q39.7949 14.7949 39.6484 11.9141L35.498-75.6348L110.303-75.6348L106.25 11.9141Q106.152 14.7949 104.517 16.5039Q102.881 18.2129 100.244 18.2129ZM54.4434 8.44727Q56.5918 8.44727 57.8613 7.17773Q59.1309 5.9082 59.082 3.90625L57.1777-61.084Q57.1289-63.0859 55.8105-64.3066Q54.4922-65.5273 52.4414-65.5273Q50.3418-65.5273 49.1211-64.2822Q47.9004-63.0371 47.9492-60.9863L49.8535 3.95508Q49.9023 5.95703 51.1719 7.20215Q52.4414 8.44727 54.4434 8.44727ZM72.998 8.44727Q75.0488 8.44727 76.3428 7.20215Q77.6367 5.95703 77.6367 4.00391L77.6367-61.084Q77.6367-63.0859 76.3428-64.3066Q75.0488-65.5273 72.998-65.5273Q70.8984-65.5273 69.6045-64.3066Q68.3105-63.0859 68.3105-61.084L68.3105 4.00391Q68.3105 5.95703 69.6045 7.20215Q70.8984 8.44727 72.998 8.44727ZM91.4551 8.44727Q93.457 8.44727 94.751 7.22656Q96.0449 6.00586 96.0938 4.00391L97.998-60.9863Q98.0469-63.0371 96.8018-64.2578Q95.5566-65.4785 93.5059-65.4785Q91.4551-65.4785 90.1367-64.2822Q88.8184-63.0859 88.7695-61.084L86.8652 3.90625Q86.8164 5.9082 88.0615 7.17773Q89.3066 8.44727 91.4551 8.44727ZM43.3594-84.4238L56.3965-84.4238L56.3965-96.9727Q56.3965-99.2188 57.8369-100.537Q59.2773-101.855 61.7676-101.855L84.082-101.855Q86.5723-101.855 88.0127-100.537Q89.4531-99.2188 89.4531-96.9727L89.4531-84.4238L102.49-84.4238L102.49-97.4609Q102.49-105.029 97.9248-109.18Q93.3594-113.33 85.0098-113.33L60.8398-113.33Q52.4902-113.33 47.9248-109.18Q43.3594-105.029 43.3594-97.4609Z"/>
  </g>
  <g id="Semibold-L" transform="matrix(1 0 0 1 1971.32 1556)">
   <path d="M43.1152 30.2246L100.83 30.2246Q105.615 30.2246 109.18 28.3447Q112.744 26.4648 114.819 23.0225Q116.895 19.5801 117.09 14.8438L121.436-76.5625L128.711-76.5625Q131.055-76.5625 132.642-78.125Q134.229-79.6875 134.229-81.9824Q134.229-84.3262 132.642-85.8887Q131.055-87.4512 128.711-87.4512L15.1855-87.4512Q12.8906-87.4512 11.2793-85.8643Q9.66797-84.2773 9.66797-81.9824Q9.66797-79.6875 11.2793-78.125Q12.8906-76.5625 15.1855-76.5625L22.4609-76.5625L26.8066 14.8438Q27.0508 19.6289 29.1016 23.0713Q31.1523 26.5137 34.7168 28.3691Q38.2812 30.2246 43.1152 30.2246ZM44.3848 19.1895Q41.6992 19.1895 39.9414 17.4072Q38.1836 15.625 38.0371 12.7441L33.7402-76.5625L110.01-76.5625L105.859 12.7441Q105.713 15.625 103.955 17.4072Q102.197 19.1895 99.4629 19.1895ZM53.3203 8.78906Q55.2734 8.78906 56.4209 7.6416Q57.5684 6.49414 57.5195 4.6875L55.5664-61.7188Q55.5176-63.4766 54.3457-64.5752Q53.1738-65.6738 51.3184-65.6738Q49.4141-65.6738 48.291-64.5508Q47.168-63.4277 47.2168-61.6211L49.1699 4.73633Q49.2188 6.54297 50.3662 7.66602Q51.5137 8.78906 53.3203 8.78906ZM71.9727 8.78906Q73.877 8.78906 75.0488 7.66602Q76.2207 6.54297 76.2207 4.73633L76.2207-61.6699Q76.2207-63.4766 75.0488-64.5752Q73.877-65.6738 71.9727-65.6738Q70.0684-65.6738 68.8965-64.5752Q67.7246-63.4766 67.7246-61.6699L67.7246 4.73633Q67.7246 6.54297 68.8965 7.66602Q70.0684 8.78906 71.9727 8.78906ZM90.5273 8.78906Q92.3828 8.78906 93.5303 7.69043Q94.6777 6.5918 94.7266 4.78516L96.6797-61.6211Q96.7285-63.4277 95.5811-64.5264Q94.4336-65.625 92.5781-65.625Q90.7227-65.625 89.5508-64.5508Q88.3789-63.4766 88.3301-61.6699L86.4258 4.6875Q86.377 6.49414 87.5 7.6416Q88.623 8.78906 90.5273 8.78906ZM43.2129-83.6426L54.6387-83.6426L54.6387-96.5332Q54.6387-99.0234 56.2256-100.513Q57.8125-102.002 60.5469-102.002L83.252-102.002Q85.9863-102.002 87.5977-100.513Q89.209-99.0234 89.209-96.5332L89.209-83.6426L100.586-83.6426L100.586-97.0215Q100.586-104.199 96.2402-108.203Q91.8945-112.207 84.0332-112.207L59.8145-112.207Q51.9043-112.207 47.5586-108.203Q43.2129-104.199 43.2129-97.0215Z"/>
  </g>
  <g id="Medium-L" transform="matrix(1 0 0 1 1675.36 1556)">
   <path d="M42.4316 29.7363L100 29.7363Q104.541 29.7363 107.959 27.9053Q111.377 26.0742 113.379 22.7539Q115.381 19.4336 115.625 14.8926L120.02-77.2461L127.832-77.2461Q129.883-77.2461 131.299-78.6377Q132.715-80.0293 132.715-82.0801Q132.715-84.1309 131.274-85.5225Q129.834-86.9141 127.832-86.9141L14.5508-86.9141Q12.5488-86.9141 11.1084-85.498Q9.66797-84.082 9.66797-82.0801Q9.66797-80.0293 11.1084-78.6377Q12.5488-77.2461 14.5508-77.2461L22.3633-77.2461L26.8066 14.9414Q27.002 19.4824 28.9795 22.8027Q30.957 26.123 34.3994 27.9297Q37.8418 29.7363 42.4316 29.7363ZM43.457 19.9707Q40.6738 19.9707 38.8184 18.1152Q36.9629 16.2598 36.8164 13.3301L32.373-77.2461L109.814-77.2461L105.566 13.3301Q105.42 16.2598 103.564 18.1152Q101.709 19.9707 98.877 19.9707ZM52.4902 9.0332Q54.2969 9.0332 55.3467 7.9834Q56.3965 6.93359 56.3477 5.32227L54.3945-62.1582Q54.3457-63.8184 53.2715-64.8193Q52.1973-65.8203 50.4883-65.8203Q48.7305-65.8203 47.6807-64.7949Q46.6309-63.7695 46.6797-62.0605L48.6328 5.32227Q48.6816 6.98242 49.7559 8.00781Q50.8301 9.0332 52.4902 9.0332ZM71.1914 9.0332Q72.9492 9.0332 74.0479 7.9834Q75.1465 6.93359 75.1465 5.32227L75.1465-62.1094Q75.1465-63.7695 74.0479-64.7949Q72.9492-65.8203 71.1914-65.8203Q69.4336-65.8203 68.3594-64.7949Q67.2852-63.7695 67.2852-62.1094L67.2852 5.32227Q67.2852 6.93359 68.3594 7.9834Q69.4336 9.0332 71.1914 9.0332ZM89.8438 9.0332Q91.5527 9.0332 92.6025 8.03223Q93.6523 7.03125 93.7012 5.37109L95.6543-62.0605Q95.7031-63.7695 94.6533-64.7705Q93.6035-65.7715 91.8945-65.7715Q90.2344-65.7715 89.1602-64.7949Q88.0859-63.8184 88.0371-62.1582L86.0352 5.32227Q85.9863 6.98242 87.0361 8.00781Q88.0859 9.0332 89.8438 9.0332ZM43.1641-83.1055L53.2715-83.1055L53.2715-96.2402Q53.2715-98.9258 54.9805-100.513Q56.6895-102.1 59.6191-102.1L82.6172-102.1Q85.5957-102.1 87.2803-100.513Q88.9648-98.9258 88.9648-96.2402L88.9648-83.1055L99.1211-83.1055L99.1211-96.6797Q99.1211-103.613 94.9463-107.495Q90.7715-111.377 83.3008-111.377L58.9844-111.377Q51.5137-111.377 47.3389-107.495Q43.1641-103.613 43.1641-96.6797Z"/>
  </g>
  <g id="Regular-L" transform="matrix(1 0 0 1 1379.65 1556)">
   <path d="M41.5527 29.1504L98.9258 29.1504Q103.125 29.1504 106.372 27.3682Q109.619 25.5859 111.548 22.4121Q113.477 19.2383 113.672 15.0391L118.213-78.125L126.66-78.125Q128.369-78.125 129.541-79.3213Q130.713-80.5176 130.713-82.1777Q130.713-83.8867 129.517-85.083Q128.32-86.2793 126.66-86.2793L13.7207-86.2793Q12.1094-86.2793 10.8887-85.0586Q9.66797-83.8379 9.66797-82.1777Q9.66797-80.5176 10.8887-79.3213Q12.1094-78.125 13.7207-78.125L22.2168-78.125L26.7578 15.0879Q26.9531 19.2871 28.8574 22.4609Q30.7617 25.6348 34.0088 27.3926Q37.2559 29.1504 41.5527 29.1504ZM42.2363 20.9961Q39.3555 20.9961 37.3535 19.043Q35.3516 17.0898 35.2051 14.1602L30.6641-78.125L109.521-78.125L105.176 14.1602Q105.029 17.0898 103.027 19.043Q101.025 20.9961 98.0957 20.9961ZM51.416 9.375Q52.9785 9.375 53.9307 8.44727Q54.8828 7.51953 54.834 6.10352L52.832-62.793Q52.7832-64.209 51.8311-65.0879Q50.8789-65.9668 49.4141-65.9668Q47.8516-65.9668 46.8994-65.0635Q45.9473-64.1602 45.9961-62.6953L47.998 6.10352Q48.0469 7.56836 48.9746 8.47168Q49.9023 9.375 51.416 9.375ZM70.2148 9.375Q71.7773 9.375 72.7539 8.44727Q73.7305 7.51953 73.7305 6.10352L73.7305-62.6953Q73.7305-64.1602 72.7539-65.0635Q71.7773-65.9668 70.2148-65.9668Q68.6523-65.9668 67.6758-65.0635Q66.6992-64.1602 66.6992-62.6953L66.6992 6.10352Q66.6992 7.51953 67.6758 8.44727Q68.6523 9.375 70.2148 9.375ZM88.9648 9.375Q90.4785 9.375 91.4062 8.49609Q92.334 7.61719 92.3828 6.15234L94.3848-62.6953Q94.4336-64.1602 93.4814-65.0391Q92.5293-65.918 91.0156-65.918Q89.5508-65.918 88.5986-65.0635Q87.6465-64.209 87.5977-62.7441L85.5957 6.10352Q85.5469 7.56836 86.4746 8.47168Q87.4023 9.375 88.9648 9.375ZM43.0176-82.373L51.5625-82.373L51.5625-95.8008Q51.5625-98.7305 53.418-100.488Q55.2734-102.246 58.4473-102.246L81.8359-102.246Q85.0098-102.246 86.8652-100.488Q88.7207-98.7305 88.7207-95.8008L88.7207-82.373L97.2656-82.373L97.2656-96.2891Q97.2656-102.832 93.2861-106.567Q89.3066-110.303 82.3242-110.303L57.959-110.303Q50.9766-110.303 46.9971-106.567Q43.0176-102.832 43.0176-96.2891Z"/>
  </g>
  <g id="Light-L" transform="matrix(1 0 0 1 1083.6 1556)">
   <path d="M41.1621 28.9062L97.998 28.9062Q101.807 28.9062 104.858 27.2217Q107.91 25.5371 109.741 22.583Q111.572 19.6289 111.768 15.8203L116.553-79.3945L126.27-79.3945Q127.637-79.3945 128.516-80.3223Q129.395-81.25 129.395-82.5195Q129.395-83.8867 128.491-84.79Q127.588-85.6934 126.27-85.6934L12.8418-85.6934Q11.5723-85.6934 10.6201-84.7656Q9.66797-83.8379 9.66797-82.5195Q9.66797-81.25 10.6201-80.3223Q11.5723-79.3945 12.8418-79.3945L22.6074-79.3945L27.3926 15.8691Q27.5879 19.6289 29.4189 22.583Q31.25 25.5371 34.2773 27.2217Q37.3047 28.9062 41.1621 28.9062ZM41.6016 22.6074Q38.4766 22.6074 36.2549 20.459Q34.0332 18.3105 33.8867 15.1855L29.1504-79.3945L109.863-79.3945L105.176 15.1855Q105.029 18.3105 102.808 20.459Q100.586 22.6074 97.4609 22.6074ZM50.6836 9.81445Q51.9043 9.81445 52.6611 9.05762Q53.418 8.30078 53.3691 7.17773L51.2207-63.7695Q51.1719-64.8438 50.415-65.5518Q49.6582-66.2598 48.4863-66.2598Q47.2656-66.2598 46.5088-65.5273Q45.752-64.7949 45.8008-63.623L47.9492 7.22656Q47.998 8.34961 48.7305 9.08203Q49.4629 9.81445 50.6836 9.81445ZM69.5801 9.81445Q70.8008 9.81445 71.582 9.05762Q72.3633 8.30078 72.3633 7.17773L72.3633-63.623Q72.3633-64.7949 71.582-65.5273Q70.8008-66.2598 69.5801-66.2598Q68.3594-66.2598 67.5781-65.5273Q66.7969-64.7949 66.7969-63.623L66.7969 7.17773Q66.7969 8.30078 67.5781 9.05762Q68.3594 9.81445 69.5801 9.81445ZM88.4277 9.81445Q89.6973 9.81445 90.4297 9.10645Q91.1621 8.39844 91.1621 7.27539L93.3105-63.623Q93.3594-64.7949 92.6025-65.5029Q91.8457-66.2109 90.625-66.2109Q89.502-66.2109 88.7451-65.5273Q87.9883-64.8438 87.9395-63.6719L85.791 7.22656Q85.7422 8.34961 86.4746 9.08203Q87.207 9.81445 88.4277 9.81445ZM43.0176-82.666L49.5605-82.666L49.5605-95.9473Q49.5605-99.2676 51.6113-101.172Q53.6621-103.076 57.2754-103.076L81.7383-103.076Q85.3516-103.076 87.4268-101.172Q89.502-99.2676 89.502-95.9473L89.502-82.666L96.0449-82.666L96.0449-96.2891Q96.0449-102.393 92.3096-105.859Q88.5742-109.326 81.9824-109.326L56.9824-109.326Q50.4395-109.326 46.7285-105.859Q43.0176-102.393 43.0176-96.2891Z"/>
  </g>
  <g id="Thin-L" transform="matrix(1 0 0 1 787.745 1556)">
   <path d="M40.6738 28.5645L96.7773 28.5645Q100.049 28.5645 102.832 27.002Q105.615 25.4395 107.349 22.7783Q109.082 20.1172 109.229 16.8945L114.404-81.0547L125.781-81.0547Q126.611-81.0547 127.148-81.6406Q127.686-82.2266 127.686-83.0078Q127.686-83.8379 127.124-84.3994Q126.562-84.9609 125.781-84.9609L11.6699-84.9609Q10.8887-84.9609 10.2783-84.375Q9.66797-83.7891 9.66797-83.0078Q9.66797-82.1777 10.2783-81.6162Q10.8887-81.0547 11.6699-81.0547L23.1445-81.0547L28.2715 16.8945Q28.418 20.1172 30.127 22.7783Q31.8359 25.4395 34.5947 27.002Q37.3535 28.5645 40.6738 28.5645ZM40.7715 24.707Q37.3535 24.707 34.8389 22.3145Q32.3242 19.9219 32.1289 16.5527L27.0996-81.0547L110.254-81.0547L105.225 16.5527Q105.029 19.9219 102.515 22.3145Q100 24.707 96.582 24.707ZM49.6582 10.3516Q50.4883 10.3516 50.9521 9.83887Q51.416 9.32617 51.416 8.59375L49.0723-64.9902Q49.0723-65.7227 48.5596-66.1621Q48.0469-66.6016 47.3145-66.6016Q46.5332-66.6016 46.0205-66.1377Q45.5078-65.6738 45.5566-64.8438L47.9004 8.69141Q47.9004 9.375 48.3643 9.86328Q48.8281 10.3516 49.6582 10.3516ZM68.75 10.3516Q69.5312 10.3516 70.0195 9.83887Q70.5078 9.32617 70.5078 8.59375L70.5078-64.8438Q70.5078-65.625 70.0195-66.1133Q69.5312-66.6016 68.75-66.6016Q67.9688-66.6016 67.4805-66.1133Q66.9922-65.625 66.9922-64.8438L66.9922 8.59375Q66.9922 9.32617 67.4805 9.83887Q67.9688 10.3516 68.75 10.3516ZM87.793 10.4004Q88.623 10.4004 89.0869 9.91211Q89.5508 9.42383 89.5508 8.74023L91.9434-64.7949Q91.8945-65.625 91.4062-66.0889Q90.918-66.5527 90.1367-66.5527Q89.4043-66.5527 88.8916-66.1133Q88.3789-65.6738 88.3789-64.9414L86.0352 8.69141Q85.9863 9.375 86.4746 9.8877Q86.9629 10.4004 87.793 10.4004ZM42.9688-83.0078L46.875-83.0078L46.875-96.1914Q46.875-99.9512 49.2188-102.075Q51.5625-104.199 55.6641-104.199L81.6406-104.199Q85.8398-104.199 88.1836-102.075Q90.5273-99.9512 90.5273-96.1914L90.5273-83.0078L94.4336-83.0078L94.4336-96.2402Q94.4336-101.807 91.04-104.932Q87.6465-108.057 81.5918-108.057L55.7617-108.057Q49.7559-108.057 46.3623-104.932Q42.9688-101.807 42.9688-96.2402Z"/>
  </g>
  <g id="Ultralight-L" transform="matrix(1 0 0 1 491.474 1556)">
   <path d="M40.4297 28.418L96.1426 28.418Q99.1699 28.418 101.807 26.9043Q104.443 25.3906 106.128 22.876Q107.812 20.3613 107.959 17.4316L113.281-81.9336L125.537-81.9336Q126.123-81.9336 126.465-82.3242Q126.807-82.7148 126.807-83.2031Q126.807-83.8379 126.44-84.2041Q126.074-84.5703 125.537-84.5703L11.084-84.5703Q10.498-84.5703 10.083-84.1797Q9.66797-83.7891 9.66797-83.2031Q9.66797-82.666 10.083-82.2998Q10.498-81.9336 11.084-81.9336L23.3887-81.9336L28.7109 17.3828Q28.8574 20.3613 30.5176 22.876Q32.1777 25.3906 34.79 26.9043Q37.4023 28.418 40.4297 28.418ZM40.332 25.8301Q36.7676 25.8301 34.1064 23.291Q31.4453 20.752 31.25 17.2363L26.0742-81.9336L110.498-81.9336L105.225 17.2363Q105.029 20.752 102.368 23.291Q99.707 25.8301 96.1426 25.8301ZM49.1699 10.6445Q49.7559 10.6445 50.0977 10.2295Q50.4395 9.81445 50.4395 9.32617L47.9492-65.6738Q47.9492-66.1621 47.583-66.4795Q47.2168-66.7969 46.6797-66.7969Q46.1426-66.7969 45.7764-66.4551Q45.4102-66.1133 45.4102-65.4785L47.8516 9.42383Q47.8516 9.86328 48.1934 10.2539Q48.5352 10.6445 49.1699 10.6445ZM68.3105 10.6445Q68.8477 10.6445 69.2139 10.2539Q69.5801 9.86328 69.5801 9.32617L69.5801-65.4785Q69.5801-66.0645 69.2139-66.4307Q68.8477-66.7969 68.3105-66.7969Q67.7734-66.7969 67.4072-66.4307Q67.041-66.0645 67.041-65.4785L67.041 9.32617Q67.041 9.86328 67.4072 10.2539Q67.7734 10.6445 68.3105 10.6445ZM87.4023 10.6934Q88.0859 10.6934 88.4277 10.3271Q88.7695 9.96094 88.7207 9.47266L91.2109-65.4297Q91.1621-66.0156 90.7959-66.3818Q90.4297-66.748 89.8926-66.748Q89.3555-66.748 88.9893-66.4062Q88.623-66.0645 88.5742-65.5762L86.1328 9.42383Q86.1328 9.86328 86.4746 10.2783Q86.8164 10.6934 87.4023 10.6934ZM42.9688-83.2031L45.5078-83.2031L45.5078-96.2891Q45.5078-100.342 47.9736-102.563Q50.4395-104.785 54.8828-104.785L81.5918-104.785Q86.084-104.785 88.5742-102.563Q91.0645-100.342 91.0645-96.2891L91.0645-83.2031L93.6523-83.2031L93.6523-96.2402Q93.6523-101.514 90.4053-104.443Q87.1582-107.373 81.3477-107.373L55.0781-107.373Q49.3652-107.373 46.167-104.443Q42.9688-101.514 42.9688-96.2402Z"/>
  </g>
  <g id="Black-M" transform="matrix(1 0 0 1 2873.85 1126)">
   <path d="M36.8652 17.8223L82.2266 17.8223Q89.502 17.8223 93.5791 14.2334Q97.6562 10.6445 97.9492 3.32031L100.977-64.0625L104.297-64.0625Q107.471-64.0625 109.546-66.0156Q111.621-67.9688 111.621-71.1426Q111.621-74.2676 109.546-76.1963Q107.471-78.125 104.297-78.125L14.7949-78.125Q11.6211-78.125 9.5459-76.1963Q7.4707-74.2676 7.4707-71.1426Q7.4707-67.9688 9.5459-66.0156Q11.6211-64.0625 14.7949-64.0625L18.1152-64.0625L21.1426 3.32031Q21.4355 10.6445 25.5127 14.2334Q29.5898 17.8223 36.8652 17.8223ZM39.1113 3.41797Q37.3535 3.41797 36.4746 2.31934Q35.5957 1.2207 35.498-0.976562L32.6172-64.0625L86.4258-64.0625L83.5938-0.976562Q83.5449 1.2207 82.6416 2.31934Q81.7383 3.41797 79.9805 3.41797ZM45.5078-2.39258Q47.7051-2.39258 48.999-3.71094Q50.293-5.0293 50.2441-7.17773L48.8281-53.5645Q48.7793-55.6641 47.4365-56.958Q46.0938-58.252 43.8965-58.252Q41.748-58.252 40.5029-56.958Q39.2578-55.6641 39.3066-53.5156L40.7227-7.03125Q40.7715-4.93164 42.1143-3.66211Q43.457-2.39258 45.5078-2.39258ZM59.5703-2.39258Q61.6699-2.39258 62.9639-3.6377Q64.2578-4.88281 64.2578-6.98242L64.2578-53.6133Q64.2578-55.7129 62.9639-56.9824Q61.6699-58.252 59.5703-58.252Q57.4219-58.252 56.1279-56.9824Q54.834-55.7129 54.834-53.6133L54.834-6.98242Q54.834-4.88281 56.1279-3.6377Q57.4219-2.39258 59.5703-2.39258ZM73.584-2.39258Q75.6348-2.39258 76.9775-3.66211Q78.3203-4.93164 78.3691-7.03125L79.7852-53.5156Q79.834-55.6641 78.5889-56.958Q77.3438-58.252 75.1953-58.252Q72.998-58.252 71.6553-56.958Q70.3125-55.6641 70.2637-53.5645L68.8477-7.17773Q68.7988-5.0293 70.0928-3.71094Q71.3867-2.39258 73.584-2.39258ZM33.9844-75.7812L48.6816-75.7812L48.6816-84.5215Q48.6816-85.5469 49.3652-86.1084Q50.0488-86.6699 51.3672-86.6699L67.7246-86.6699Q69.043-86.6699 69.7266-86.1084Q70.4102-85.5469 70.4102-84.5215L70.4102-75.7812L85.1074-75.7812L85.1074-84.8145Q85.1074-91.748 80.9814-95.3369Q76.8555-98.9258 68.8477-98.9258L50.2441-98.9258Q42.2363-98.9258 38.1104-95.3369Q33.9844-91.748 33.9844-84.8145Z"/>
  </g>
  <g id="Heavy-M" transform="matrix(1 0 0 1 2578.27 1126)">
   <path d="M35.791 17.0898L81.0059 17.0898Q87.8418 17.0898 91.7236 13.623Q95.6055 10.1562 95.8984 3.32031L98.9746-64.9414L102.881-64.9414Q105.664-64.9414 107.52-66.6748Q109.375-68.4082 109.375-71.1914Q109.375-73.9746 107.52-75.6836Q105.664-77.3926 102.881-77.3926L13.916-77.3926Q11.1816-77.3926 9.32617-75.6592Q7.4707-73.9258 7.4707-71.1914Q7.4707-68.4082 9.32617-66.6748Q11.1816-64.9414 13.916-64.9414L17.8711-64.9414L20.9473 3.32031Q21.2402 10.1562 25.1221 13.623Q29.0039 17.0898 35.791 17.0898ZM37.6953 4.3457Q35.8398 4.3457 34.8389 3.17383Q33.8379 2.00195 33.7402-0.146484L30.7129-64.9414L86.0352-64.9414L83.1055-0.146484Q83.0078 2.05078 81.9824 3.19824Q80.957 4.3457 79.1504 4.3457ZM44.2871-2.05078Q46.2891-2.05078 47.4609-3.24707Q48.6328-4.44336 48.584-6.39648L47.168-54.1504Q47.1191-56.0547 45.8984-57.2266Q44.6777-58.3984 42.6758-58.3984Q40.7227-58.3984 39.5752-57.2266Q38.4277-56.0547 38.4766-54.1016L39.8926-6.25Q39.9414-4.3457 41.1621-3.19824Q42.3828-2.05078 44.2871-2.05078ZM58.4473-2.05078Q60.3516-2.05078 61.5479-3.19824Q62.7441-4.3457 62.7441-6.25L62.7441-54.1992Q62.7441-56.1035 61.5479-57.251Q60.3516-58.3984 58.4473-58.3984Q56.4453-58.3984 55.249-57.251Q54.0527-56.1035 54.0527-54.1992L54.0527-6.25Q54.0527-4.3457 55.249-3.19824Q56.4453-2.05078 58.4473-2.05078ZM72.5586-2.05078Q74.4141-2.05078 75.6348-3.19824Q76.8555-4.3457 76.9043-6.25L78.3691-54.1016Q78.418-56.0547 77.2705-57.2266Q76.123-58.3984 74.1211-58.3984Q72.168-58.3984 70.9229-57.2266Q69.6777-56.0547 69.6289-54.1504L68.2129-6.39648Q68.1641-4.44336 69.3604-3.24707Q70.5566-2.05078 72.5586-2.05078ZM33.8379-74.8047L46.875-74.8047L46.875-83.9355Q46.875-85.2051 47.7295-85.9375Q48.584-86.6699 50.0977-86.6699L66.6992-86.6699Q68.2129-86.6699 69.0674-85.9375Q69.9219-85.2051 69.9219-83.9355L69.9219-74.8047L82.959-74.8047L82.959-84.2773Q82.959-90.8203 79.0527-94.2871Q75.1465-97.7539 67.6758-97.7539L49.1211-97.7539Q41.6504-97.7539 37.7441-94.2871Q33.8379-90.8203 33.8379-84.2773Z"/>
  </g>
  <g id="Bold-M" transform="matrix(1 0 0 1 2282.82 1126)">
   <path d="M34.6191 16.3086L79.6875 16.3086Q85.9375 16.3086 89.624 12.9639Q93.3105 9.61914 93.5547 3.32031L96.7773-65.918L101.367-65.918Q103.711-65.918 105.273-67.4316Q106.836-68.9453 106.836-71.2891Q106.836-73.6328 105.249-75.1221Q103.662-76.6113 101.367-76.6113L12.9883-76.6113Q10.6445-76.6113 9.05762-75.0977Q7.4707-73.584 7.4707-71.2891Q7.4707-68.9453 9.05762-67.4316Q10.6445-65.918 12.9883-65.918L17.5781-65.918L20.752 3.32031Q21.0449 9.61914 24.707 12.9639Q28.3691 16.3086 34.6191 16.3086ZM36.084 5.41992Q34.1797 5.41992 33.0322 4.1748Q31.8848 2.92969 31.7871 0.732422L28.6133-65.918L85.5469-65.918L82.5195 0.732422Q82.4707 2.92969 81.2988 4.1748Q80.127 5.41992 78.1738 5.41992ZM42.9199-1.66016Q44.6777-1.66016 45.752-2.73438Q46.8262-3.80859 46.7773-5.51758L45.3125-54.834Q45.3125-56.4941 44.2139-57.5439Q43.1152-58.5938 41.3574-58.5938Q39.5996-58.5938 38.5498-57.5439Q37.5-56.4941 37.5488-54.7852L38.9648-5.41992Q39.0137-3.71094 40.1123-2.68555Q41.2109-1.66016 42.9199-1.66016ZM57.1777-1.66016Q58.9355-1.66016 60.0098-2.68555Q61.084-3.71094 61.084-5.41992L61.084-54.834Q61.084-56.4941 60.0098-57.5439Q58.9355-58.5938 57.1777-58.5938Q55.4199-58.5938 54.3213-57.5439Q53.2227-56.4941 53.2227-54.834L53.2227-5.41992Q53.2227-3.71094 54.3213-2.68555Q55.4199-1.66016 57.1777-1.66016ZM71.4355-1.66016Q73.0957-1.66016 74.1943-2.68555Q75.293-3.71094 75.3418-5.41992L76.7578-54.7852Q76.8066-56.4941 75.7812-57.5439Q74.7559-58.5938 72.9492-58.5938Q71.1914-58.5938 70.1172-57.5439Q69.043-56.4941 68.9941-54.7852L67.5293-5.51758Q67.4805-3.80859 68.5547-2.73438Q69.6289-1.66016 71.4355-1.66016ZM33.6426-73.7305L44.873-73.7305L44.873-83.3008Q44.873-84.8633 45.8984-85.7666Q46.9238-86.6699 48.6816-86.6699L65.5762-86.6699Q67.334-86.6699 68.3594-85.7666Q69.3848-84.8633 69.3848-83.3008L69.3848-73.7305L80.6152-73.7305L80.6152-83.6914Q80.6152-89.7949 76.9287-93.1152Q73.2422-96.4355 66.4062-96.4355L47.8516-96.4355Q41.0156-96.4355 37.3291-93.1152Q33.6426-89.7949 33.6426-83.6914Z"/>
  </g>
  <g id="Semibold-M" transform="matrix(1 0 0 1 1986.99 1126)">
   <path d="M33.7891 15.7715L78.7598 15.7715Q84.6191 15.7715 88.1592 12.5Q91.6992 9.22852 91.9434 3.27148L95.2148-66.5527L100.244-66.5527Q102.295-66.5527 103.687-67.9199Q105.078-69.2871 105.078-71.3379Q105.078-73.3887 103.687-74.7314Q102.295-76.0742 100.244-76.0742L12.3047-76.0742Q10.3027-76.0742 8.88672-74.707Q7.4707-73.3398 7.4707-71.3379Q7.4707-69.2871 8.88672-67.9199Q10.3027-66.5527 12.3047-66.5527L17.334-66.5527L20.6055 3.32031Q20.8496 9.22852 24.3652 12.5Q27.8809 15.7715 33.7891 15.7715ZM34.9609 6.15234Q33.0078 6.15234 31.7627 4.83398Q30.5176 3.51562 30.4199 1.36719L27.1484-66.5527L85.2051-66.5527L82.1289 1.36719Q82.0312 3.56445 80.7861 4.8584Q79.541 6.15234 77.5391 6.15234ZM41.9434-1.41602Q43.5547-1.41602 44.5312-2.36816Q45.5078-3.32031 45.5078-4.88281L44.043-55.2734Q43.9941-56.7871 42.9932-57.7393Q41.9922-58.6914 40.3809-58.6914Q38.7695-58.6914 37.793-57.7393Q36.8164-56.7871 36.8652-55.2246L38.3301-4.83398Q38.3789-3.27148 39.3799-2.34375Q40.3809-1.41602 41.9434-1.41602ZM56.25-1.41602Q57.9102-1.41602 58.9111-2.34375Q59.9121-3.27148 59.9121-4.83398L59.9121-55.2246Q59.9121-56.7871 58.9111-57.7393Q57.9102-58.6914 56.25-58.6914Q54.6387-58.6914 53.6377-57.7393Q52.6367-56.7871 52.6367-55.2246L52.6367-4.83398Q52.6367-3.27148 53.6377-2.34375Q54.6387-1.41602 56.25-1.41602ZM70.6055-1.41602Q72.168-1.41602 73.1689-2.34375Q74.1699-3.27148 74.2188-4.83398L75.6348-55.2246Q75.6836-56.7871 74.7314-57.7393Q73.7793-58.6914 72.1191-58.6914Q70.5566-58.6914 69.5557-57.7393Q68.5547-56.7871 68.5059-55.2246L67.041-4.88281Q66.9922-3.32031 67.9688-2.36816Q68.9453-1.41602 70.6055-1.41602ZM33.4961-72.9492L43.5059-72.9492L43.5059-82.8613Q43.5059-84.5703 44.6289-85.6201Q45.752-86.6699 47.6562-86.6699L64.7949-86.6699Q66.6992-86.6699 67.8467-85.6201Q68.9941-84.5703 68.9941-82.8613L68.9941-72.9492L78.9551-72.9492L78.9551-83.3008Q78.9551-89.0625 75.415-92.2852Q71.875-95.5078 65.5273-95.5078L46.9238-95.5078Q40.5762-95.5078 37.0361-92.2852Q33.4961-89.0625 33.4961-83.3008Z"/>
  </g>
  <g id="Medium-M" transform="matrix(1 0 0 1 1690.96 1126)">
   <path d="M33.2031 15.332L78.0762 15.332Q83.6426 15.332 87.0605 12.1338Q90.4785 8.93555 90.7227 3.27148L94.043-67.0898L99.4629-67.0898Q101.27-67.0898 102.49-68.335Q103.711-69.5801 103.711-71.3867Q103.711-73.1934 102.466-74.4141Q101.221-75.6348 99.4629-75.6348L11.7676-75.6348Q10.0098-75.6348 8.74023-74.3896Q7.4707-73.1445 7.4707-71.3867Q7.4707-69.5801 8.74023-68.335Q10.0098-67.0898 11.7676-67.0898L17.1875-67.0898L20.5078 3.32031Q20.752 8.98438 24.1455 12.1582Q27.5391 15.332 33.2031 15.332ZM34.1309 6.68945Q32.1289 6.68945 30.8105 5.34668Q29.4922 4.00391 29.3945 1.80664L26.0742-67.0898L84.9609-67.0898L81.8359 1.80664Q81.7383 4.00391 80.4199 5.34668Q79.1016 6.68945 77.002 6.68945ZM41.2109-1.17188Q42.7246-1.17188 43.6523-2.0752Q44.5801-2.97852 44.5801-4.39453L43.0664-55.6152Q43.0664-57.0312 42.1143-57.9102Q41.1621-58.7891 39.6973-58.7891Q38.1836-58.7891 37.2559-57.8857Q36.3281-56.9824 36.377-55.5664L37.8418-4.39453Q37.8906-2.92969 38.8184-2.05078Q39.7461-1.17188 41.2109-1.17188ZM55.6152-1.17188Q57.1289-1.17188 58.0811-2.0752Q59.0332-2.97852 59.0332-4.39453L59.0332-55.5664Q59.0332-56.9824 58.0811-57.8857Q57.1289-58.7891 55.6152-58.7891Q54.1016-58.7891 53.1494-57.8857Q52.1973-56.9824 52.1973-55.5664L52.1973-4.39453Q52.1973-2.97852 53.1494-2.0752Q54.1016-1.17188 55.6152-1.17188ZM70.0195-1.17188Q71.4844-1.17188 72.3877-2.05078Q73.291-2.92969 73.3398-4.39453L74.8047-55.5664Q74.8535-56.9824 73.9502-57.8857Q73.0469-58.7891 71.5332-58.7891Q70.0195-58.7891 69.1162-57.9102Q68.2129-57.0312 68.1641-55.5664L66.6992-4.39453Q66.6504-2.97852 67.5537-2.0752Q68.457-1.17188 70.0195-1.17188ZM33.4473-72.3633L42.4316-72.3633L42.4316-82.5195Q42.4316-84.375 43.6523-85.5225Q44.873-86.6699 46.9238-86.6699L64.209-86.6699Q66.2598-86.6699 67.4805-85.5225Q68.7012-84.375 68.7012-82.5195L68.7012-72.3633L77.6855-72.3633L77.6855-82.959Q77.6855-88.5254 74.292-91.6748Q70.8984-94.8242 64.8438-94.8242L46.2891-94.8242Q40.2344-94.8242 36.8408-91.6748Q33.4473-88.5254 33.4473-82.959Z"/>
  </g>
  <g id="Regular-M" transform="matrix(1 0 0 1 1395.11 1126)">
   <path d="M32.373 14.7949L77.1484 14.7949Q82.373 14.7949 85.6445 11.6699Q88.916 8.54492 89.1602 3.27148L92.5293-67.7246L98.3887-67.7246Q99.9023-67.7246 100.952-68.8232Q102.002-69.9219 102.002-71.4355Q102.002-72.9492 100.928-74.0234Q99.8535-75.0977 98.3887-75.0977L11.1328-75.0977Q9.66797-75.0977 8.56934-73.999Q7.4707-72.9004 7.4707-71.4355Q7.4707-69.9219 8.56934-68.8232Q9.66797-67.7246 11.1328-67.7246L16.9922-67.7246L20.3613 3.32031Q20.6055 8.59375 23.8525 11.6943Q27.0996 14.7949 32.373 14.7949ZM33.0566 7.42188Q30.957 7.42188 29.541 6.00586Q28.125 4.58984 28.0273 2.44141L24.6094-67.7246L84.668-67.7246L81.4453 2.44141Q81.3477 4.63867 79.9316 6.03027Q78.5156 7.42188 76.3672 7.42188ZM40.2832-0.927734Q41.6504-0.927734 42.4805-1.7334Q43.3105-2.53906 43.3105-3.80859L41.7969-56.0547Q41.7969-57.3242 40.9424-58.1055Q40.0879-58.8867 38.7695-58.8867Q37.4023-58.8867 36.5479-58.0811Q35.6934-57.2754 35.7422-56.0059L37.207-3.80859Q37.2559-2.49023 38.0859-1.70898Q38.916-0.927734 40.2832-0.927734ZM54.7363-0.927734Q56.1523-0.927734 57.0312-1.7334Q57.9102-2.53906 57.9102-3.80859L57.9102-56.0059Q57.9102-57.2754 57.0312-58.0811Q56.1523-58.8867 54.7363-58.8867Q53.3691-58.8867 52.4902-58.0811Q51.6113-57.2754 51.6113-56.0059L51.6113-3.80859Q51.6113-2.53906 52.4902-1.7334Q53.3691-0.927734 54.7363-0.927734ZM69.2383-0.927734Q70.5566-0.927734 71.3867-1.70898Q72.2168-2.49023 72.2656-3.80859L73.7305-56.0059Q73.7793-57.2754 72.9492-58.0811Q72.1191-58.8867 70.7031-58.8867Q69.3848-58.8867 68.5547-58.1055Q67.7246-57.3242 67.6758-56.0059L66.2109-3.80859Q66.1621-2.53906 66.9922-1.7334Q67.8223-0.927734 69.2383-0.927734ZM33.3008-71.6309L41.0645-71.6309L41.0645-82.0801Q41.0645-84.1309 42.4072-85.4004Q43.75-86.6699 45.9473-86.6699L63.4277-86.6699Q65.625-86.6699 66.9678-85.4004Q68.3105-84.1309 68.3105-82.0801L68.3105-71.6309L76.0742-71.6309L76.0742-82.5684Q76.0742-87.8418 72.8271-90.8936Q69.5801-93.9453 63.9648-93.9453L45.4102-93.9453Q39.7949-93.9453 36.5479-90.8936Q33.3008-87.8418 33.3008-82.5684Z"/>
  </g>
  <g id="Light-M" transform="matrix(1 0 0 1 1098.98 1126)">
   <path d="M32.0312 14.5996L76.3184 14.5996Q81.0059 14.5996 84.1064 11.6455Q87.207 8.69141 87.4512 4.00391L91.0645-68.8965L98.0469-68.8965Q99.2188-68.8965 100.024-69.7266Q100.83-70.5566 100.83-71.7285Q100.83-72.9492 100-73.7549Q99.1699-74.5605 98.0469-74.5605L10.3516-74.5605Q9.17969-74.5605 8.3252-73.7305Q7.4707-72.9004 7.4707-71.7285Q7.4707-70.5566 8.3252-69.7266Q9.17969-68.8965 10.3516-68.8965L17.334-68.8965L20.9473 4.00391Q21.1426 8.74023 24.2188 11.6699Q27.2949 14.5996 32.0312 14.5996ZM32.5195 8.83789Q30.1758 8.83789 28.5645 7.27539Q26.9531 5.71289 26.8555 3.36914L23.2422-68.8965L84.9609-68.8965L81.4453 3.36914Q81.3477 5.71289 79.7363 7.27539Q78.125 8.83789 75.7812 8.83789ZM39.5996-0.537109Q40.6738-0.537109 41.333-1.19629Q41.9922-1.85547 41.9922-2.83203L40.3809-56.8848Q40.3809-57.9102 39.6973-58.5205Q39.0137-59.1309 37.9883-59.1309Q36.8652-59.1309 36.2061-58.4961Q35.5469-57.8613 35.5469-56.8359L37.1582-2.83203Q37.207-1.80664 37.8662-1.17188Q38.5254-0.537109 39.5996-0.537109ZM54.1992-0.537109Q55.2734-0.537109 55.9814-1.19629Q56.6895-1.85547 56.6895-2.83203L56.6895-56.8359Q56.6895-57.8613 55.9814-58.4961Q55.2734-59.1309 54.1992-59.1309Q53.0762-59.1309 52.3926-58.4961Q51.709-57.8613 51.709-56.8359L51.709-2.83203Q51.709-1.85547 52.3926-1.19629Q53.0762-0.537109 54.1992-0.537109ZM68.75-0.537109Q69.8242-0.537109 70.4834-1.14746Q71.1426-1.75781 71.1914-2.83203L72.7539-56.7871Q72.8027-57.8125 72.1436-58.4717Q71.4844-59.1309 70.3613-59.1309Q69.3359-59.1309 68.6768-58.4961Q68.0176-57.8613 67.9688-56.8359L66.3574-2.83203Q66.3574-1.80664 66.9922-1.17188Q67.627-0.537109 68.75-0.537109ZM33.3008-71.875L39.2578-71.875L39.2578-82.2266Q39.2578-84.6191 40.7715-86.0352Q42.2852-87.4512 44.873-87.4512L63.3789-87.4512Q65.9668-87.4512 67.4805-86.0352Q68.9941-84.6191 68.9941-82.2266L68.9941-71.875L75-71.875L75-82.5684Q75-87.4512 71.9727-90.2588Q68.9453-93.0664 63.6719-93.0664L44.5801-93.0664Q39.3066-93.0664 36.3037-90.2588Q33.3008-87.4512 33.3008-82.5684Z"/>
  </g>
  <g id="Thin-M" transform="matrix(1 0 0 1 803.029 1126)">
   <path d="M31.5918 14.3066L75.1953 14.3066Q79.248 14.3066 82.1045 11.5967Q84.9609 8.88672 85.2051 4.93164L89.0625-70.4102L97.5586-70.4102Q98.3398-70.4102 98.8281-70.9229Q99.3164-71.4355 99.3164-72.1191Q99.3164-72.9004 98.8037-73.4131Q98.291-73.9258 97.5586-73.9258L9.27734-73.9258Q8.59375-73.9258 8.03223-73.3887Q7.4707-72.8516 7.4707-72.1191Q7.4707-71.3867 8.03223-70.8984Q8.59375-70.4102 9.27734-70.4102L17.8223-70.4102L21.6797 4.93164Q21.9238 8.88672 24.7559 11.5967Q27.5879 14.3066 31.5918 14.3066ZM31.7383 10.7422Q29.1504 10.7422 27.2949 8.95996Q25.4395 7.17773 25.293 4.63867L21.3867-70.4102L85.3516-70.4102L81.4941 4.63867Q81.3965 7.17773 79.4922 8.95996Q77.5879 10.7422 75.0488 10.7422ZM38.7207-0.0488281Q39.4043-0.0488281 39.8193-0.512695Q40.2344-0.976562 40.2344-1.61133L38.4766-58.0078Q38.4766-58.6426 38.0127-59.0576Q37.5488-59.4727 36.9141-59.4727Q36.2305-59.4727 35.7666-59.0576Q35.3027-58.6426 35.3027-57.959L37.1094-1.51367Q37.1094-0.878906 37.5488-0.463867Q37.9883-0.0488281 38.7207-0.0488281ZM53.418-0.0488281Q54.1504-0.0488281 54.6143-0.488281Q55.0781-0.927734 55.0781-1.61133L55.0781-57.959Q55.0781-58.5938 54.6143-59.0332Q54.1504-59.4727 53.418-59.4727Q52.7344-59.4727 52.2949-59.0332Q51.8555-58.5938 51.8555-57.959L51.8555-1.61133Q51.8555-0.927734 52.2949-0.488281Q52.7344-0.0488281 53.418-0.0488281ZM68.1641 0Q68.8477 0 69.2871-0.415039Q69.7266-0.830078 69.7266-1.46484L71.5332-57.8613Q71.5332-58.5938 71.0938-59.0088Q70.6543-59.4238 69.9219-59.4238Q69.2871-59.4238 68.8477-59.0332Q68.4082-58.6426 68.3594-57.959L66.6016-1.51367Q66.6016-0.878906 66.9922-0.439453Q67.3828 0 68.1641 0ZM33.252-72.2168L36.8652-72.2168L36.8652-82.4219Q36.8652-85.2539 38.623-86.8652Q40.3809-88.4766 43.5059-88.4766L63.2812-88.4766Q66.4062-88.4766 68.1641-86.8652Q69.9219-85.2539 69.9219-82.4219L69.9219-72.2168L73.5352-72.2168L73.5352-82.5195Q73.5352-86.9629 70.8252-89.4531Q68.1152-91.9434 63.2812-91.9434L43.457-91.9434Q38.7207-91.9434 35.9863-89.4531Q33.252-86.9629 33.252-82.5195Z"/>
  </g>
  <g id="Ultralight-M" transform="matrix(1 0 0 1 506.733 1126)">
   <path d="M31.3965 14.1602L74.6582 14.1602Q78.3203 14.1602 81.0791 11.5723Q83.8379 8.98438 84.0332 5.41992L88.0859-71.1914L97.3633-71.1914Q97.8516-71.1914 98.1689-71.5332Q98.4863-71.875 98.4863-72.3633Q98.4863-72.9004 98.1445-73.2178Q97.8027-73.5352 97.3633-73.5352L8.74023-73.5352Q8.25195-73.5352 7.86133-73.1934Q7.4707-72.8516 7.4707-72.3633Q7.4707-71.8262 7.86133-71.5088Q8.25195-71.1914 8.74023-71.1914L18.0176-71.1914L22.0703 5.41992Q22.2656 8.98438 25 11.5723Q27.7344 14.1602 31.3965 14.1602ZM31.3965 11.7188Q28.6621 11.7188 26.6357 9.81445Q24.6094 7.91016 24.4629 5.27344L20.459-71.1914L85.5469-71.1914L81.4941 5.27344Q81.3965 7.91016 79.3701 9.81445Q77.3438 11.7188 74.6582 11.7188ZM38.2324 0.195312Q38.7207 0.195312 39.0381-0.146484Q39.3555-0.488281 39.3555-0.927734L37.5-58.5938Q37.5-59.0332 37.1582-59.3506Q36.8164-59.668 36.377-59.668Q35.8398-59.668 35.5225-59.3506Q35.2051-59.0332 35.2051-58.4961L37.0605-0.878906Q37.0605-0.390625 37.3779-0.0976562Q37.6953 0.195312 38.2324 0.195312ZM53.0762 0.195312Q53.5645 0.195312 53.9062-0.12207Q54.248-0.439453 54.248-0.927734L54.248-58.4961Q54.248-58.9844 53.9062-59.3262Q53.5645-59.668 53.0762-59.668Q52.5391-59.668 52.2461-59.3262Q51.9531-58.9844 51.9531-58.4961L51.9531-0.927734Q51.9531-0.439453 52.2461-0.12207Q52.5391 0.195312 53.0762 0.195312ZM67.8223 0.292969Q68.3594 0.292969 68.6768-0.0244141Q68.9941-0.341797 68.9941-0.830078L70.8496-58.3984Q70.8496-58.9355 70.5322-59.2529Q70.2148-59.5703 69.7266-59.5703Q69.2383-59.5703 68.9209-59.2773Q68.6035-58.9844 68.6035-58.5449L66.6992-0.878906Q66.6992-0.390625 66.9922-0.0488281Q67.2852 0.292969 67.8223 0.292969ZM33.252-72.3633L35.6445-72.3633L35.6445-82.5195Q35.6445-85.5957 37.5244-87.2803Q39.4043-88.9648 42.7734-88.9648L63.2324-88.9648Q66.6016-88.9648 68.5059-87.2803Q70.4102-85.5957 70.4102-82.5195L70.4102-72.3633L72.8027-72.3633L72.8027-82.5195Q72.8027-86.7188 70.2393-89.0381Q67.6758-91.3574 63.0859-91.3574L42.8711-91.3574Q38.3789-91.3574 35.8154-89.0381Q33.252-86.7188 33.252-82.5195Z"/>
  </g>
  <g id="Black-S" transform="matrix(1 0 0 1 2886.43 696)">
   <path d="M29.1992 6.54297L64.7461 6.54297Q70.5566 6.54297 73.8037 3.71094Q77.0508 0.878906 77.2949-4.98047L79.6387-57.6172L82.1289-57.6172Q84.7168-57.6172 86.4014-59.2041Q88.0859-60.791 88.0859-63.3789Q88.0859-65.918 86.4014-67.4805Q84.7168-69.043 82.1289-69.043L11.8164-69.043Q9.22852-69.043 7.54395-67.4805Q5.85938-65.918 5.85938-63.3789Q5.85938-60.791 7.54395-59.2041Q9.22852-57.6172 11.8164-57.6172L14.3066-57.6172L16.6504-4.98047Q16.8945 0.878906 20.1416 3.71094Q23.3887 6.54297 29.1992 6.54297ZM31.0547-5.17578Q29.6875-5.17578 29.0283-6.03027Q28.3691-6.88477 28.2715-8.59375L26.0742-57.6172L67.8711-57.6172L65.6738-8.59375Q65.625-6.88477 64.9414-6.03027Q64.2578-5.17578 62.8906-5.17578ZM35.9863-9.57031Q37.793-9.57031 38.8184-10.6445Q39.8438-11.7188 39.7949-13.4277L38.6719-49.4629Q38.623-51.1719 37.5488-52.1973Q36.4746-53.2227 34.7168-53.2227Q33.0078-53.2227 32.0068-52.1729Q31.0059-51.123 31.0547-49.4141L32.1777-13.3301Q32.2266-11.6699 33.2764-10.6201Q34.3262-9.57031 35.9863-9.57031ZM46.9727-9.57031Q48.6816-9.57031 49.707-10.5957Q50.7324-11.6211 50.7324-13.2812L50.7324-49.5117Q50.7324-51.2207 49.707-52.2217Q48.6816-53.2227 46.9727-53.2227Q45.3125-53.2227 44.2627-52.2217Q43.2129-51.2207 43.2129-49.5117L43.2129-13.2812Q43.2129-11.6211 44.2627-10.5957Q45.3125-9.57031 46.9727-9.57031ZM57.959-9.57031Q59.6191-9.57031 60.6689-10.6201Q61.7188-11.6699 61.7676-13.3301L62.8906-49.4141Q62.9395-51.123 61.9385-52.1729Q60.9375-53.2227 59.2285-53.2227Q57.4707-53.2227 56.3965-52.1973Q55.3223-51.1719 55.2734-49.4629L54.1504-13.4277Q54.1016-11.7188 55.127-10.6445Q56.1523-9.57031 57.959-9.57031ZM26.6602-67.334L38.5742-67.334L38.5742-74.0234Q38.5742-74.8047 39.0869-75.1953Q39.5996-75.5859 40.5762-75.5859L53.3691-75.5859Q54.3457-75.5859 54.8584-75.1953Q55.3711-74.8047 55.3711-74.0234L55.3711-67.334L67.2852-67.334L67.2852-74.2188Q67.2852-79.7363 63.9893-82.5928Q60.6934-85.4492 54.2969-85.4492L39.6484-85.4492Q33.252-85.4492 29.9561-82.5928Q26.6602-79.7363 26.6602-74.2188Z"/>
  </g>
  <g id="Heavy-S" transform="matrix(1 0 0 1 2590.62 696)">
   <path d="M28.3203 5.95703L63.8184 5.95703Q69.2871 5.95703 72.3877 3.19824Q75.4883 0.439453 75.7324-5.07812L78.125-58.2031L80.957-58.2031Q83.252-58.2031 84.7656-59.6436Q86.2793-61.084 86.2793-63.3789Q86.2793-65.625 84.7656-67.0654Q83.252-68.5059 80.957-68.5059L11.1816-68.5059Q8.88672-68.5059 7.37305-67.0654Q5.85938-65.625 5.85938-63.3789Q5.85938-61.084 7.37305-59.6436Q8.88672-58.2031 11.1816-58.2031L14.0137-58.2031L16.4062-5.07812Q16.6504 0.439453 19.751 3.19824Q22.8516 5.95703 28.3203 5.95703ZM29.8828-4.54102Q28.5156-4.54102 27.7588-5.44434Q27.002-6.34766 26.9043-8.00781L24.6094-58.2031L67.4805-58.2031L65.2344-8.00781Q65.1855-6.34766 64.4287-5.44434Q63.6719-4.54102 62.2559-4.54102ZM35.0098-9.32617Q36.6699-9.32617 37.6465-10.3271Q38.623-11.3281 38.5742-12.8906L37.4512-49.8535Q37.4023-51.416 36.4014-52.3682Q35.4004-53.3203 33.7891-53.3203Q32.1777-53.3203 31.25-52.3438Q30.3223-51.3672 30.3711-49.8047L31.4941-12.793Q31.543-11.2793 32.5195-10.3027Q33.4961-9.32617 35.0098-9.32617ZM46.0938-9.32617Q47.6562-9.32617 48.6328-10.2783Q49.6094-11.2305 49.6094-12.7441L49.6094-49.9023Q49.6094-51.4648 48.6328-52.3926Q47.6562-53.3203 46.0938-53.3203Q44.5312-53.3203 43.5303-52.3926Q42.5293-51.4648 42.5293-49.9023L42.5293-12.7441Q42.5293-11.2305 43.5303-10.2783Q44.5312-9.32617 46.0938-9.32617ZM57.1289-9.32617Q58.6914-9.32617 59.668-10.3027Q60.6445-11.2793 60.6934-12.793L61.8164-49.8047Q61.8652-51.3672 60.9131-52.3438Q59.9609-53.3203 58.3496-53.3203Q56.7383-53.3203 55.7373-52.3682Q54.7363-51.416 54.6875-49.8535L53.6133-12.8906Q53.5645-11.3281 54.5166-10.3271Q55.4688-9.32617 57.1289-9.32617ZM26.5137-66.4551L37.2559-66.4551L37.2559-73.4863Q37.2559-74.4629 37.8906-74.9756Q38.5254-75.4883 39.5996-75.4883L52.5391-75.4883Q53.6133-75.4883 54.2236-74.9756Q54.834-74.4629 54.834-73.4863L54.834-66.4551L65.625-66.4551L65.625-73.7793Q65.625-79.0039 62.4756-81.7871Q59.3262-84.5703 53.3203-84.5703L38.7695-84.5703Q32.8125-84.5703 29.6631-81.7871Q26.5137-79.0039 26.5137-73.7793Z"/>
  </g>
  <g id="Bold-S" transform="matrix(1 0 0 1 2294.91 696)">
   <path d="M27.3926 5.32227L62.793 5.32227Q67.8711 5.32227 70.8252 2.6123Q73.7793-0.0976562 74.0234-5.22461L76.416-58.8867L79.6875-58.8867Q81.6406-58.8867 82.959-60.1807Q84.2773-61.4746 84.2773-63.4277Q84.2773-65.332 82.959-66.6016Q81.6406-67.8711 79.6875-67.8711L10.4492-67.8711Q8.54492-67.8711 7.20215-66.6016Q5.85938-65.332 5.85938-63.4277Q5.85938-61.4746 7.20215-60.1807Q8.54492-58.8867 10.4492-58.8867L13.7207-58.8867L16.1621-5.17578Q16.4062-0.0488281 19.3359 2.63672Q22.2656 5.32227 27.3926 5.32227ZM28.6133-3.85742Q27.1973-3.85742 26.3428-4.78516Q25.4883-5.71289 25.3906-7.37305L23.0469-58.8867L67.041-58.8867L64.7461-7.37305Q64.6973-5.71289 63.8428-4.78516Q62.9883-3.85742 61.5234-3.85742ZM33.9355-9.08203Q35.4492-9.08203 36.3525-9.96094Q37.2559-10.8398 37.207-12.2559L36.084-50.293Q36.0352-51.7578 35.1318-52.6123Q34.2285-53.4668 32.7637-53.4668Q31.2988-53.4668 30.4199-52.5879Q29.541-51.709 29.5898-50.293L30.7129-12.207Q30.7617-10.791 31.6406-9.93652Q32.5195-9.08203 33.9355-9.08203ZM45.0684-9.08203Q46.582-9.08203 47.4609-9.93652Q48.3398-10.791 48.3398-12.207L48.3398-50.3418Q48.3398-51.7578 47.4609-52.6123Q46.582-53.4668 45.0684-53.4668Q43.6523-53.4668 42.7246-52.6123Q41.7969-51.7578 41.7969-50.3418L41.7969-12.207Q41.7969-10.791 42.7246-9.93652Q43.6523-9.08203 45.0684-9.08203ZM56.25-9.08203Q57.6172-9.08203 58.5205-9.93652Q59.4238-10.791 59.4727-12.207L60.5957-50.293Q60.6445-51.709 59.7656-52.5879Q58.8867-53.4668 57.4219-53.4668Q55.957-53.4668 55.0537-52.6123Q54.1504-51.7578 54.1016-50.293L52.9785-12.2559Q52.9297-10.8398 53.8086-9.96094Q54.6875-9.08203 56.25-9.08203ZM26.416-65.4785L35.8398-65.4785L35.8398-72.9492Q35.8398-74.0723 36.5723-74.7314Q37.3047-75.3906 38.5742-75.3906L51.5625-75.3906Q52.832-75.3906 53.5645-74.7314Q54.2969-74.0723 54.2969-72.9492L54.2969-65.4785L63.7207-65.4785L63.7207-73.291Q63.7207-78.2227 60.7422-80.8838Q57.7637-83.5449 52.2949-83.5449L37.8418-83.5449Q32.3242-83.5449 29.3701-80.8838Q26.416-78.2227 26.416-73.291Z"/>
  </g>
  <g id="Semibold-S" transform="matrix(1 0 0 1 1998.88 696)">
   <path d="M26.709 4.83398L62.0605 4.83398Q66.8945 4.83398 69.7266 2.19727Q72.5586-0.439453 72.8027-5.27344L75.2441-59.3262L78.8086-59.3262Q80.5176-59.3262 81.7139-60.498Q82.9102-61.6699 82.9102-63.4277Q82.9102-65.1367 81.7139-66.2842Q80.5176-67.4316 78.8086-67.4316L9.96094-67.4316Q8.25195-67.4316 7.05566-66.2842Q5.85938-65.1367 5.85938-63.4277Q5.85938-61.6699 7.05566-60.498Q8.25195-59.3262 9.96094-59.3262L13.5254-59.3262L15.9668-5.22461Q16.2109-0.390625 19.0186 2.22168Q21.8262 4.83398 26.709 4.83398ZM27.7344-3.32031Q26.2695-3.32031 25.3662-4.29688Q24.4629-5.27344 24.3652-6.93359L21.9238-59.3262L66.748-59.3262L64.4043-6.93359Q64.3555-5.27344 63.4521-4.29688Q62.5488-3.32031 60.9863-3.32031ZM33.2031-8.88672Q34.6191-8.88672 35.4492-9.69238Q36.2793-10.498 36.2305-11.8164L35.1074-50.5859Q35.1074-51.9531 34.2529-52.7344Q33.3984-53.5156 32.0312-53.5156Q30.6641-53.5156 29.834-52.71Q29.0039-51.9043 29.0039-50.5859L30.127-11.8164Q30.1758-10.4492 31.0303-9.66797Q31.8848-8.88672 33.2031-8.88672ZM44.3848-8.88672Q45.8008-8.88672 46.6309-9.69238Q47.4609-10.498 47.4609-11.7676L47.4609-50.6348Q47.4609-51.9043 46.6309-52.71Q45.8008-53.5156 44.3848-53.5156Q43.0176-53.5156 42.1387-52.71Q41.2598-51.9043 41.2598-50.6348L41.2598-11.7676Q41.2598-10.498 42.1387-9.69238Q43.0176-8.88672 44.3848-8.88672ZM55.6152-8.88672Q56.8848-8.88672 57.7393-9.66797Q58.5938-10.4492 58.6426-11.8164L59.7168-50.5859Q59.7656-51.9043 58.9355-52.71Q58.1055-53.5156 56.7383-53.5156Q55.3711-53.5156 54.541-52.7344Q53.7109-51.9531 53.6621-50.5859L52.5391-11.8164Q52.4902-10.498 53.3203-9.69238Q54.1504-8.88672 55.6152-8.88672ZM26.2695-64.7949L34.8145-64.7949L34.8145-72.5098Q34.8145-73.8281 35.6201-74.5605Q36.4258-75.293 37.793-75.293L50.9277-75.293Q52.2461-75.293 53.0518-74.5605Q53.8574-73.8281 53.8574-72.5098L53.8574-64.7949L62.4023-64.7949L62.4023-72.9004Q62.4023-77.6367 59.5459-80.249Q56.6895-82.8613 51.5137-82.8613L37.1582-82.8613Q31.9824-82.8613 29.126-80.249Q26.2695-77.6367 26.2695-72.9004Z"/>
  </g>
  <g id="Medium-S" transform="matrix(1 0 0 1 1702.71 696)">
   <path d="M26.1719 4.49219L61.5234 4.49219Q66.1621 4.49219 68.8965 1.9043Q71.6309-0.683594 71.875-5.32227L74.3652-59.7168L78.125-59.7168Q79.6875-59.7168 80.7617-60.791Q81.8359-61.8652 81.8359-63.4277Q81.8359-64.9414 80.7617-66.04Q79.6875-67.1387 78.125-67.1387L9.57031-67.1387Q8.05664-67.1387 6.95801-66.04Q5.85938-64.9414 5.85938-63.4277Q5.85938-61.8652 6.95801-60.791Q8.05664-59.7168 9.57031-59.7168L13.3301-59.7168L15.8691-5.32227Q16.0645-0.634766 18.7744 1.92871Q21.4844 4.49219 26.1719 4.49219ZM27.0508-2.97852Q25.5859-2.97852 24.6094-3.97949Q23.6328-4.98047 23.5352-6.5918L21.0449-59.7168L66.5039-59.7168L64.1602-6.5918Q64.1113-4.98047 63.1348-3.97949Q62.1582-2.97852 60.5957-2.97852ZM32.6172-8.74023Q33.9355-8.74023 34.7412-9.49707Q35.5469-10.2539 35.498-11.5234L34.375-50.8301Q34.375-52.0996 33.5693-52.832Q32.7637-53.5645 31.4941-53.5645Q30.1758-53.5645 29.3945-52.8076Q28.6133-52.0508 28.6133-50.8301L29.7363-11.4746Q29.7852-10.2051 30.5664-9.47266Q31.3477-8.74023 32.6172-8.74023ZM43.8477-8.74023Q45.2148-8.74023 46.0205-9.49707Q46.8262-10.2539 46.8262-11.4746L46.8262-50.8301Q46.8262-52.0508 46.0205-52.8076Q45.2148-53.5645 43.8477-53.5645Q42.5293-53.5645 41.6992-52.8076Q40.8691-52.0508 40.8691-50.8301L40.8691-11.4746Q40.8691-10.2539 41.6992-9.49707Q42.5293-8.74023 43.8477-8.74023ZM55.127-8.74023Q56.3477-8.74023 57.1533-9.47266Q57.959-10.2051 58.0078-11.4746L59.082-50.8301Q59.1309-52.0508 58.3252-52.8076Q57.5195-53.5645 56.2012-53.5645Q54.9316-53.5645 54.1504-52.832Q53.3691-52.0996 53.3203-50.8301L52.2461-11.5234Q52.1973-10.2539 52.9785-9.49707Q53.7598-8.74023 55.127-8.74023ZM26.2207-64.3066L34.0332-64.3066L34.0332-72.2168Q34.0332-73.584 34.9121-74.4141Q35.791-75.2441 37.2559-75.2441L50.3906-75.2441Q51.8066-75.2441 52.6855-74.4141Q53.5645-73.584 53.5645-72.2168L53.5645-64.3066L61.4258-64.3066L61.4258-72.6562Q61.4258-77.1973 58.667-79.7607Q55.9082-82.3242 50.9766-82.3242L36.6211-82.3242Q31.7383-82.3242 28.9795-79.7607Q26.2207-77.1973 26.2207-72.6562Z"/>
  </g>
  <g id="Regular-S" transform="matrix(1 0 0 1 1406.68 696)">
   <path d="M25.5371 4.05273L60.8398 4.05273Q65.1855 4.05273 67.8223 1.51367Q70.459-1.02539 70.7031-5.41992L73.1934-60.1562L77.2461-60.1562Q78.5645-60.1562 79.5166-61.1328Q80.4688-62.1094 80.4688-63.4277Q80.4688-64.7461 79.5166-65.7227Q78.5645-66.6992 77.2461-66.6992L9.08203-66.6992Q7.8125-66.6992 6.83594-65.7227Q5.85938-64.7461 5.85938-63.4277Q5.85938-62.1094 6.83594-61.1328Q7.8125-60.1562 9.08203-60.1562L13.1348-60.1562L15.6738-5.37109Q15.8691-0.976562 18.4814 1.53809Q21.0938 4.05273 25.5371 4.05273ZM26.1719-2.49023Q24.6582-2.49023 23.6328-3.51562Q22.6074-4.54102 22.5098-6.15234L19.9707-60.1562L66.2109-60.1562L63.8184-6.15234Q63.7695-4.54102 62.7441-3.51562Q61.7188-2.49023 60.1074-2.49023ZM31.8848-8.54492Q33.1055-8.54492 33.8623-9.25293Q34.6191-9.96094 34.5703-11.084L33.4473-51.123Q33.4473-52.2949 32.6904-52.9785Q31.9336-53.6621 30.7617-53.6621Q29.541-53.6621 28.8086-52.9541Q28.0762-52.2461 28.0762-51.123L29.1992-11.084Q29.248-9.91211 29.9805-9.22852Q30.7129-8.54492 31.8848-8.54492ZM43.1641-8.54492Q44.4336-8.54492 45.1904-9.25293Q45.9473-9.96094 45.9473-11.084L45.9473-51.123Q45.9473-52.2461 45.1904-52.9541Q44.4336-53.6621 43.1641-53.6621Q41.9434-53.6621 41.1621-52.9541Q40.3809-52.2461 40.3809-51.123L40.3809-11.084Q40.3809-9.96094 41.1621-9.25293Q41.9434-8.54492 43.1641-8.54492ZM54.4922-8.54492Q55.6152-8.54492 56.3721-9.22852Q57.1289-9.91211 57.1777-11.084L58.252-51.123Q58.3008-52.2461 57.5439-52.9541Q56.7871-53.6621 55.5664-53.6621Q54.3945-53.6621 53.6621-52.9785Q52.9297-52.2949 52.8809-51.123L51.8066-11.084Q51.7578-9.96094 52.4902-9.25293Q53.2227-8.54492 54.4922-8.54492ZM26.123-63.623L33.0566-63.623L33.0566-71.8262Q33.0566-73.3398 34.0088-74.2432Q34.9609-75.1465 36.5234-75.1465L49.7559-75.1465Q51.2695-75.1465 52.2217-74.2432Q53.1738-73.3398 53.1738-71.8262L53.1738-63.623L60.1562-63.623L60.1562-72.3145Q60.1562-76.6602 57.4951-79.1504Q54.834-81.6406 50.2441-81.6406L35.9863-81.6406Q31.3965-81.6406 28.7598-79.1504Q26.123-76.6602 26.123-72.3145Z"/>
  </g>
  <g id="Light-S" transform="matrix(1 0 0 1 1110.48 696)">
   <path d="M25.2441 3.85742L60.1074 3.85742Q64.0137 3.85742 66.5039 1.48926Q68.9941-0.878906 69.1895-4.78516L71.875-61.1328L76.9531-61.1328Q77.9785-61.1328 78.7109-61.9141Q79.4434-62.6953 79.4434-63.7207Q79.4434-64.7461 78.7109-65.5029Q77.9785-66.2598 76.9531-66.2598L8.39844-66.2598Q7.37305-66.2598 6.61621-65.5029Q5.85938-64.7461 5.85938-63.7207Q5.85938-62.6465 6.61621-61.8896Q7.37305-61.1328 8.39844-61.1328L13.4277-61.1328L16.2109-4.73633Q16.3574-0.878906 18.8232 1.48926Q21.2891 3.85742 25.2441 3.85742ZM25.6836-1.2207Q23.9746-1.2207 22.7783-2.39258Q21.582-3.56445 21.4844-5.32227L18.75-61.1328L66.4551-61.1328L63.8184-5.32227Q63.7695-3.56445 62.5732-2.39258Q61.377-1.2207 59.5703-1.2207ZM31.2988-8.20312Q32.2754-8.20312 32.8613-8.78906Q33.4473-9.375 33.3984-10.2539L32.1777-51.8555Q32.1777-52.7832 31.5674-53.3203Q30.957-53.8574 30.0293-53.8574Q29.1016-53.8574 28.5156-53.3203Q27.9297-52.7832 27.9297-51.8555L29.1504-10.2051Q29.1992-9.32617 29.7607-8.76465Q30.3223-8.20312 31.2988-8.20312ZM42.6758-8.20312Q43.6523-8.20312 44.2627-8.76465Q44.873-9.32617 44.873-10.2539L44.873-51.8555Q44.873-52.7344 44.2627-53.2959Q43.6523-53.8574 42.6758-53.8574Q41.6992-53.8574 41.0889-53.2959Q40.4785-52.7344 40.4785-51.8555L40.4785-10.2539Q40.4785-9.32617 41.0889-8.76465Q41.6992-8.20312 42.6758-8.20312ZM54.0527-8.20312Q54.9805-8.20312 55.5664-8.74023Q56.1523-9.27734 56.2012-10.2051L57.4219-51.8555Q57.4219-52.7344 56.8359-53.2959Q56.25-53.8574 55.2734-53.8574Q54.3457-53.8574 53.7598-53.3203Q53.1738-52.7832 53.125-51.8555L51.9531-10.2051Q51.9043-9.32617 52.4902-8.76465Q53.0762-8.20312 54.0527-8.20312ZM26.123-63.8184L31.4453-63.8184L31.4453-71.9727Q31.4453-73.7305 32.5684-74.7803Q33.6914-75.8301 35.5957-75.8301L49.707-75.8301Q51.5625-75.8301 52.6855-74.7803Q53.8086-73.7305 53.8086-71.9727L53.8086-63.8184L59.1797-63.8184L59.1797-72.3145Q59.1797-76.3184 56.7383-78.6133Q54.2969-80.9082 50-80.9082L35.2539-80.9082Q31.0059-80.9082 28.5645-78.6133Q26.123-76.3184 26.123-72.3145Z"/>
  </g>
  <g id="Thin-S" transform="matrix(1 0 0 1 814.43 696)">
   <path d="M24.8535 3.61328L59.1309 3.61328Q62.4512 3.61328 64.7217 1.44043Q66.9922-0.732422 67.1875-3.95508L70.166-62.5L76.5625-62.5Q77.1973-62.5 77.6611-62.9639Q78.125-63.4277 78.125-64.0625Q78.125-64.7461 77.6367-65.1855Q77.1484-65.625 76.5625-65.625L7.4707-65.625Q6.83594-65.625 6.34766-65.1611Q5.85938-64.6973 5.85938-64.0625Q5.85938-63.4277 6.34766-62.9639Q6.83594-62.5 7.4707-62.5L13.8184-62.5L16.8457-3.90625Q17.041-0.683594 19.2871 1.46484Q21.5332 3.61328 24.8535 3.61328ZM25 0.439453Q23.0957 0.439453 21.6553-0.927734Q20.2148-2.29492 20.1172-4.24805L17.1387-62.5L66.7969-62.5L63.8672-4.24805Q63.7695-2.29492 62.3291-0.927734Q60.8887 0.439453 58.9355 0.439453ZM30.4688-7.76367Q31.1523-7.76367 31.5186-8.1543Q31.8848-8.54492 31.8848-9.13086L30.5176-52.8809Q30.5176-53.4668 30.1025-53.8086Q29.6875-54.1504 29.1016-54.1504Q28.4668-54.1504 28.1006-53.7842Q27.7344-53.418 27.7344-52.832L29.1016-9.08203Q29.1016-8.49609 29.4678-8.12988Q29.834-7.76367 30.4688-7.76367ZM41.9922-7.76367Q42.627-7.76367 43.0176-8.12988Q43.4082-8.49609 43.4082-9.13086L43.4082-52.832Q43.4082-53.418 43.0176-53.7842Q42.627-54.1504 41.9922-54.1504Q41.3574-54.1504 40.9668-53.7842Q40.5762-53.418 40.5762-52.832L40.5762-9.13086Q40.5762-8.49609 40.9668-8.12988Q41.3574-7.76367 41.9922-7.76367ZM53.5156-7.71484Q54.1504-7.71484 54.541-8.08105Q54.9316-8.44727 54.9316-9.0332L56.2988-52.7832Q56.2988-53.418 55.8838-53.7598Q55.4688-54.1016 54.8828-54.1016Q54.2969-54.1016 53.9062-53.7598Q53.5156-53.418 53.4668-52.832L52.0996-9.08203Q52.0996-8.49609 52.4902-8.10547Q52.8809-7.71484 53.5156-7.71484ZM26.0742-64.1113L29.3457-64.1113L29.3457-72.1191Q29.3457-74.2676 30.6885-75.4883Q32.0312-76.709 34.3262-76.709L49.6094-76.709Q51.9531-76.709 53.2959-75.4883Q54.6387-74.2676 54.6387-72.1191L54.6387-64.1113L57.9102-64.1113L57.9102-72.2656Q57.9102-75.8301 55.7129-77.8564Q53.5156-79.8828 49.6582-79.8828L34.2773-79.8828Q30.4688-79.8828 28.2715-77.8564Q26.0742-75.8301 26.0742-72.2656Z"/>
  </g>
  <g id="Ultralight-S" transform="matrix(1 0 0 1 518.061 696)">
   <path d="M24.6582 3.51562L58.6426 3.51562Q61.6211 3.51562 63.8184 1.44043Q66.0156-0.634766 66.1621-3.51562L69.2871-63.1348L76.3184-63.1348Q76.8066-63.1348 77.124-63.4766Q77.4414-63.8184 77.4414-64.2578Q77.4414-64.7461 77.0996-65.0391Q76.7578-65.332 76.3184-65.332L6.98242-65.332Q6.54297-65.332 6.20117-65.0146Q5.85938-64.6973 5.85938-64.2578Q5.85938-63.7695 6.20117-63.4521Q6.54297-63.1348 6.98242-63.1348L14.0625-63.1348L17.2363-3.51562Q17.3828-0.634766 19.5312 1.44043Q21.6797 3.51562 24.6582 3.51562ZM24.6582 1.31836Q22.6074 1.31836 21.0693-0.146484Q19.5312-1.61133 19.4336-3.71094L16.3086-63.1348L66.9434-63.1348L63.8672-3.71094Q63.7695-1.61133 62.2314-0.146484Q60.6934 1.31836 58.5449 1.31836ZM30.0781-7.56836Q30.5664-7.56836 30.8105-7.86133Q31.0547-8.1543 31.0547-8.54492L29.6387-53.3691Q29.6387-53.8086 29.3213-54.0527Q29.0039-54.2969 28.6133-54.2969Q28.1738-54.2969 27.9053-54.0527Q27.6367-53.8086 27.6367-53.3203L29.0527-8.49609Q29.0527-8.10547 29.3213-7.83691Q29.5898-7.56836 30.0781-7.56836ZM41.6504-7.56836Q42.1387-7.56836 42.4072-7.83691Q42.6758-8.10547 42.6758-8.54492L42.6758-53.3203Q42.6758-53.7598 42.4072-54.0283Q42.1387-54.2969 41.6504-54.2969Q41.2109-54.2969 40.9424-54.0283Q40.6738-53.7598 40.6738-53.3203L40.6738-8.54492Q40.6738-8.10547 40.9424-7.83691Q41.2109-7.56836 41.6504-7.56836ZM53.2227-7.4707Q53.7109-7.4707 53.9795-7.76367Q54.248-8.05664 54.248-8.44727L55.7129-53.2715Q55.7129-53.7598 55.4199-54.0039Q55.127-54.248 54.6875-54.248Q54.248-54.248 53.9551-54.0039Q53.6621-53.7598 53.6621-53.3691L52.1973-8.49609Q52.1973-8.10547 52.4902-7.78809Q52.7832-7.4707 53.2227-7.4707ZM26.0742-64.2578L28.2715-64.2578L28.2715-72.2168Q28.2715-74.5605 29.7119-75.8789Q31.1523-77.1973 33.6914-77.1973L49.5605-77.1973Q52.1484-77.1973 53.5889-75.8789Q55.0293-74.5605 55.0293-72.2168L55.0293-64.2578L57.2266-64.2578L57.2266-72.2656Q57.2266-75.6348 55.2002-77.5146Q53.1738-79.3945 49.5117-79.3945L33.7402-79.3945Q30.1758-79.3945 28.125-77.5146Q26.0742-75.6348 26.0742-72.2656Z"/>
  </g>
 </g>
</svg>
