<?xml version="1.0" encoding="UTF-8"?>
<!--Generator: Apple Native CoreSVG 149-->
<!DOCTYPE svg
PUBLIC "-//W3C//DTD SVG 1.1//EN"
       "http://www.w3.org/Graphics/SVG/1.1/DTD/svg11.dtd">
<svg version="1.1" xmlns="http://www.w3.org/2000/svg" xmlns:xlink="http://www.w3.org/1999/xlink" width="3300" height="2200">
 <!--glyph: "uni1002B4.medium", point size: 100.0, font version: "17.0d9e1", template writer version: "59"-->
 <g id="Notes">
  <rect height="2200" id="artboard" style="fill:white;opacity:1" width="3300" x="0" y="0"/>
  <line style="fill:none;stroke:black;opacity:1;stroke-width:0.5;" x1="263" x2="3036" y1="292" y2="292"/>
  <text style="stroke:none;fill:black;font-family:sans-serif;font-size:13;font-weight:bold;" transform="matrix(1 0 0 1 263 322)">Weight/Scale Variations</text>
  <text style="stroke:none;fill:black;font-family:sans-serif;font-size:13;text-anchor:middle;" transform="matrix(1 0 0 1 559.711 322)">Ultralight</text>
  <text style="stroke:none;fill:black;font-family:sans-serif;font-size:13;text-anchor:middle;" transform="matrix(1 0 0 1 856.422 322)">Thin</text>
  <text style="stroke:none;fill:black;font-family:sans-serif;font-size:13;text-anchor:middle;" transform="matrix(1 0 0 1 1153.13 322)">Light</text>
  <text style="stroke:none;fill:black;font-family:sans-serif;font-size:13;text-anchor:middle;" transform="matrix(1 0 0 1 1449.84 322)">Regular</text>
  <text style="stroke:none;fill:black;font-family:sans-serif;font-size:13;text-anchor:middle;" transform="matrix(1 0 0 1 1746.56 322)">Medium</text>
  <text style="stroke:none;fill:black;font-family:sans-serif;font-size:13;text-anchor:middle;" transform="matrix(1 0 0 1 2043.27 322)">Semibold</text>
  <text style="stroke:none;fill:black;font-family:sans-serif;font-size:13;text-anchor:middle;" transform="matrix(1 0 0 1 2339.98 322)">Bold</text>
  <text style="stroke:none;fill:black;font-family:sans-serif;font-size:13;text-anchor:middle;" transform="matrix(1 0 0 1 2636.69 322)">Heavy</text>
  <text style="stroke:none;fill:black;font-family:sans-serif;font-size:13;text-anchor:middle;" transform="matrix(1 0 0 1 2933.4 322)">Black</text>
  <line style="fill:none;stroke:black;opacity:1;stroke-width:0.5;" x1="263" x2="3036" y1="1903" y2="1903"/>
  <g transform="matrix(1 0 0 1 263 1933)">
   <path d="M9.24805 0.830078Q10.8691 0.830078 12.2949 0.214844Q13.7207-0.400391 14.8096-1.49414Q15.8984-2.58789 16.5186-4.01367Q17.1387-5.43945 17.1387-7.05078Q17.1387-8.66211 16.5186-10.0879Q15.8984-11.5137 14.8047-12.6074Q13.7109-13.7012 12.2852-14.3164Q10.8594-14.9316 9.23828-14.9316Q7.62695-14.9316 6.20117-14.3164Q4.77539-13.7012 3.69141-12.6074Q2.60742-11.5137 1.9873-10.0879Q1.36719-8.66211 1.36719-7.05078Q1.36719-5.43945 1.9873-4.01367Q2.60742-2.58789 3.69629-1.49414Q4.78516-0.400391 6.21094 0.214844Q7.63672 0.830078 9.24805 0.830078ZM9.24805-0.654297Q7.91992-0.654297 6.7627-1.14746Q5.60547-1.64062 4.73145-2.51953Q3.85742-3.39844 3.36426-4.56055Q2.87109-5.72266 2.87109-7.05078Q2.87109-8.37891 3.35938-9.54102Q3.84766-10.7031 4.72168-11.582Q5.5957-12.4609 6.75293-12.9541Q7.91016-13.4473 9.23828-13.4473Q10.5762-13.4473 11.7334-12.9541Q12.8906-12.4609 13.7695-11.582Q14.6484-10.7031 15.1465-9.54102Q15.6445-8.37891 15.6445-7.05078Q15.6445-5.72266 15.1514-4.56055Q14.6582-3.39844 13.7842-2.51953Q12.9102-1.64062 11.748-1.14746Q10.5859-0.654297 9.24805-0.654297ZM5.83984-7.04102Q5.83984-6.71875 6.04492-6.51855Q6.25-6.31836 6.5918-6.31836L8.50586-6.31836L8.50586-4.39453Q8.50586-4.0625 8.70605-3.85742Q8.90625-3.65234 9.22852-3.65234Q9.56055-3.65234 9.76562-3.85742Q9.9707-4.0625 9.9707-4.39453L9.9707-6.31836L11.8945-6.31836Q12.2266-6.31836 12.4316-6.51855Q12.6367-6.71875 12.6367-7.04102Q12.6367-7.37305 12.4316-7.57812Q12.2266-7.7832 11.8945-7.7832L9.9707-7.7832L9.9707-9.69727Q9.9707-10.0391 9.76562-10.2441Q9.56055-10.4492 9.22852-10.4492Q8.90625-10.4492 8.70605-10.2441Q8.50586-10.0391 8.50586-9.69727L8.50586-7.7832L6.5918-7.7832Q6.25-7.7832 6.04492-7.57812Q5.83984-7.37305 5.83984-7.04102Z"/>
  </g>
  <g transform="matrix(1 0 0 1 281.867 1933)">
   <path d="M11.709 2.91016Q13.75 2.91016 15.5518 2.12891Q17.3535 1.34766 18.7305-0.0292969Q20.1074-1.40625 20.8887-3.20801Q21.6699-5.00977 21.6699-7.05078Q21.6699-9.0918 20.8887-10.8936Q20.1074-12.6953 18.7305-14.0723Q17.3535-15.4492 15.5469-16.2305Q13.7402-17.0117 11.6992-17.0117Q9.6582-17.0117 7.85645-16.2305Q6.05469-15.4492 4.68262-14.0723Q3.31055-12.6953 2.5293-10.8936Q1.74805-9.0918 1.74805-7.05078Q1.74805-5.00977 2.5293-3.20801Q3.31055-1.40625 4.6875-0.0292969Q6.06445 1.34766 7.86621 2.12891Q9.66797 2.91016 11.709 2.91016ZM11.709 1.25Q9.98047 1.25 8.47656 0.605469Q6.97266-0.0390625 5.83496-1.17676Q4.69727-2.31445 4.05762-3.81836Q3.41797-5.32227 3.41797-7.05078Q3.41797-8.7793 4.05762-10.2832Q4.69727-11.7871 5.83008-12.9297Q6.96289-14.0723 8.4668-14.7119Q9.9707-15.3516 11.6992-15.3516Q13.4277-15.3516 14.9316-14.7119Q16.4355-14.0723 17.5781-12.9297Q18.7207-11.7871 19.3652-10.2832Q20.0098-8.7793 20.0098-7.05078Q20.0098-5.32227 19.3701-3.81836Q18.7305-2.31445 17.5928-1.17676Q16.4551-0.0390625 14.9463 0.605469Q13.4375 1.25 11.709 1.25ZM7.39258-7.04102Q7.39258-6.68945 7.62695-6.46484Q7.86133-6.24023 8.23242-6.24023L10.8789-6.24023L10.8789-3.57422Q10.8789-3.21289 11.1035-2.9834Q11.3281-2.75391 11.6797-2.75391Q12.0508-2.75391 12.2852-2.9834Q12.5195-3.21289 12.5195-3.57422L12.5195-6.24023L15.1758-6.24023Q15.5371-6.24023 15.7715-6.46484Q16.0059-6.68945 16.0059-7.04102Q16.0059-7.41211 15.7715-7.6416Q15.5371-7.87109 15.1758-7.87109L12.5195-7.87109L12.5195-10.5176Q12.5195-10.8984 12.2852-11.1279Q12.0508-11.3574 11.6797-11.3574Q11.3281-11.3574 11.1035-11.1279Q10.8789-10.8984 10.8789-10.5176L10.8789-7.87109L8.23242-7.87109Q7.85156-7.87109 7.62207-7.6416Q7.39258-7.41211 7.39258-7.04102Z"/>
  </g>
  <g transform="matrix(1 0 0 1 305.646 1933)">
   <path d="M14.9707 5.66406Q17.0605 5.66406 18.96 5.01465Q20.8594 4.36523 22.4512 3.19336Q24.043 2.02148 25.2197 0.429688Q26.3965-1.16211 27.0459-3.06641Q27.6953-4.9707 27.6953-7.05078Q27.6953-9.14062 27.0459-11.04Q26.3965-12.9395 25.2197-14.5312Q24.043-16.123 22.4512-17.2998Q20.8594-18.4766 18.9551-19.126Q17.0508-19.7754 14.9609-19.7754Q12.8711-19.7754 10.9717-19.126Q9.07227-18.4766 7.48535-17.2998Q5.89844-16.123 4.72168-14.5312Q3.54492-12.9395 2.90039-11.04Q2.25586-9.14062 2.25586-7.05078Q2.25586-4.9707 2.90527-3.06641Q3.55469-1.16211 4.72656 0.429688Q5.89844 2.02148 7.49023 3.19336Q9.08203 4.36523 10.9814 5.01465Q12.8809 5.66406 14.9707 5.66406ZM14.9707 3.84766Q13.1641 3.84766 11.5283 3.2959Q9.89258 2.74414 8.53516 1.74805Q7.17773 0.751953 6.17676-0.610352Q5.17578-1.97266 4.62891-3.6084Q4.08203-5.24414 4.08203-7.05078Q4.08203-8.86719 4.62891-10.5029Q5.17578-12.1387 6.17188-13.501Q7.16797-14.8633 8.52539-15.8594Q9.88281-16.8555 11.5186-17.4023Q13.1543-17.9492 14.9609-17.9492Q16.7773-17.9492 18.4131-17.4023Q20.0488-16.8555 21.4111-15.8594Q22.7734-14.8633 23.7695-13.501Q24.7656-12.1387 25.3174-10.5029Q25.8691-8.86719 25.8691-7.05078Q25.8789-5.24414 25.332-3.6084Q24.7852-1.97266 23.7842-0.610352Q22.7832 0.751953 21.4209 1.74805Q20.0586 2.74414 18.4229 3.2959Q16.7871 3.84766 14.9707 3.84766ZM9.45312-7.04102Q9.45312-6.66016 9.71191-6.41113Q9.9707-6.16211 10.3711-6.16211L14.0625-6.16211L14.0625-2.46094Q14.0625-2.06055 14.3115-1.80664Q14.5605-1.55273 14.9414-1.55273Q15.3516-1.55273 15.6055-1.80664Q15.8594-2.06055 15.8594-2.46094L15.8594-6.16211L19.5605-6.16211Q19.9609-6.16211 20.2148-6.41113Q20.4688-6.66016 20.4688-7.04102Q20.4688-7.45117 20.2148-7.70508Q19.9609-7.95898 19.5605-7.95898L15.8594-7.95898L15.8594-11.6504Q15.8594-12.0605 15.6055-12.3145Q15.3516-12.5684 14.9414-12.5684Q14.5605-12.5684 14.3115-12.3096Q14.0625-12.0508 14.0625-11.6504L14.0625-7.95898L10.3711-7.95898Q9.96094-7.95898 9.70703-7.70508Q9.45312-7.45117 9.45312-7.04102Z"/>
  </g>
  <text style="stroke:none;fill:black;font-family:sans-serif;font-size:13;font-weight:bold;" transform="matrix(1 0 0 1 263 1953)">Design Variations</text>
  <text style="stroke:none;fill:black;font-family:sans-serif;font-size:13;" transform="matrix(1 0 0 1 263 1971)">Symbols are supported in up to nine weights and three scales.</text>
  <text style="stroke:none;fill:black;font-family:sans-serif;font-size:13;" transform="matrix(1 0 0 1 263 1989)">For optimal layout with text and other symbols, vertically align</text>
  <text style="stroke:none;fill:black;font-family:sans-serif;font-size:13;" transform="matrix(1 0 0 1 263 2007)">symbols with the adjacent text.</text>
  <line style="fill:none;stroke:#00AEEF;stroke-width:0.5;opacity:1.0;" x1="776" x2="776" y1="1919" y2="1933"/>
  <g transform="matrix(1 0 0 1 776 1933)">
   <path d="M3.31055 0.15625Q3.70117 0.15625 3.91602-0.00976562Q4.13086-0.175781 4.26758-0.585938L5.52734-4.0332L11.2891-4.0332L12.5488-0.585938Q12.6855-0.175781 12.9004-0.00976562Q13.1152 0.15625 13.4961 0.15625Q13.8867 0.15625 14.1162-0.0585938Q14.3457-0.273438 14.3457-0.644531Q14.3457-0.869141 14.2383-1.17188L9.6582-13.3691Q9.48242-13.8184 9.17969-14.043Q8.87695-14.2676 8.4082-14.2676Q7.5-14.2676 7.17773-13.3789L2.59766-1.16211Q2.49023-0.859375 2.49023-0.634766Q2.49023-0.263672 2.70996-0.0537109Q2.92969 0.15625 3.31055 0.15625ZM6.00586-5.51758L8.37891-12.0898L8.42773-12.0898L10.8008-5.51758Z"/>
  </g>
  <line style="fill:none;stroke:#00AEEF;stroke-width:0.5;opacity:1.0;" x1="793.197" x2="793.197" y1="1919" y2="1933"/>
  <text style="stroke:none;fill:black;font-family:sans-serif;font-size:13;font-weight:bold;" transform="matrix(1 0 0 1 776 1953)">Margins</text>
  <text style="stroke:none;fill:black;font-family:sans-serif;font-size:13;" transform="matrix(1 0 0 1 776 1971)">Leading and trailing margins on the left and right side of each symbol</text>
  <text style="stroke:none;fill:black;font-family:sans-serif;font-size:13;" transform="matrix(1 0 0 1 776 1989)">can be adjusted by modifying the x-location of the margin guidelines.</text>
  <text style="stroke:none;fill:black;font-family:sans-serif;font-size:13;" transform="matrix(1 0 0 1 776 2007)">Modifications are automatically applied proportionally to all</text>
  <text style="stroke:none;fill:black;font-family:sans-serif;font-size:13;" transform="matrix(1 0 0 1 776 2025)">scales and weights.</text>
  <g transform="matrix(1 0 0 1 1289 1933)">
   <path d="M2.8418 1.86523L4.54102 3.57422Q5.18555 4.22852 5.90332 4.17969Q6.62109 4.13086 7.31445 3.35938L18.0078-8.42773L17.041-9.4043L6.42578 2.27539Q6.16211 2.57812 5.89355 2.61719Q5.625 2.65625 5.27344 2.30469L4.10156 1.14258Q3.75 0.791016 3.79395 0.522461Q3.83789 0.253906 4.14062-0.0195312L15.6152-10.8203L14.6387-11.7871L3.04688-0.898438Q2.30469-0.214844 2.25098 0.498047Q2.19727 1.21094 2.8418 1.86523ZM9.25781-16.3281Q8.94531-16.0254 8.90625-15.6348Q8.86719-15.2441 9.04297-14.9512Q9.21875-14.6777 9.55566-14.541Q9.89258-14.4043 10.3809-14.5215Q11.4746-14.7754 12.5977-14.7314Q13.7207-14.6875 14.7949-13.9844L14.209-12.5293Q13.9551-11.9043 14.0674-11.4404Q14.1797-10.9766 14.5801-10.5664L16.875-8.25195Q17.2363-7.88086 17.5781-7.82227Q17.9199-7.76367 18.3398-7.8418L19.4043-8.03711L20.0684-7.36328L20.0293-6.80664Q20-6.43555 20.1221-6.12305Q20.2441-5.81055 20.6055-5.44922L21.3672-4.70703Q21.7285-4.3457 22.1533-4.33105Q22.5781-4.31641 22.9297-4.66797L25.8398-7.58789Q26.1914-7.93945 26.1816-8.35449Q26.1719-8.76953 25.8105-9.13086L25.0391-9.89258Q24.6875-10.2539 24.3799-10.3857Q24.0723-10.5176 23.7109-10.4883L23.1348-10.4395L22.4902-11.0742L22.7344-12.1973Q22.832-12.6172 22.6953-12.9834Q22.5586-13.3496 22.1191-13.7891L19.9219-15.9766Q18.6719-17.2168 17.2607-17.8369Q15.8496-18.457 14.4189-18.4814Q12.9883-18.5059 11.665-17.959Q10.3418-17.4121 9.25781-16.3281ZM10.752-15.957Q11.6602-16.6211 12.7002-16.9043Q13.7402-17.1875 14.8047-17.085Q15.8691-16.9824 16.8701-16.5137Q17.8711-16.0449 18.7012-15.2051L21.1328-12.793Q21.3086-12.6172 21.3525-12.4512Q21.3965-12.2852 21.3379-12.0312L21.0156-10.5469L22.5195-9.0625L23.5059-9.12109Q23.6914-9.13086 23.7891-9.09668Q23.8867-9.0625 24.0332-8.91602L24.6094-8.33984L22.168-5.89844L21.5918-6.47461Q21.4453-6.62109 21.4062-6.71875Q21.3672-6.81641 21.377-7.01172L21.4453-7.98828L19.9512-9.47266L18.4277-9.21875Q18.1836-9.16992 18.042-9.2041Q17.9004-9.23828 17.7148-9.41406L15.7129-11.416Q15.5176-11.5918 15.4932-11.7529Q15.4688-11.9141 15.5859-12.1875L16.4648-14.2773Q15.293-15.3711 13.8281-15.791Q12.3633-16.2109 10.8398-15.7617Q10.7227-15.7324 10.6885-15.8057Q10.6543-15.8789 10.752-15.957Z"/>
  </g>
  <text style="stroke:none;fill:black;font-family:sans-serif;font-size:13;font-weight:bold;" transform="matrix(1 0 0 1 1289 1953)">Exporting</text>
  <text style="stroke:none;fill:black;font-family:sans-serif;font-size:13;" transform="matrix(1 0 0 1 1289 1971)">Symbols should be outlined when exporting to ensure the</text>
  <text style="stroke:none;fill:black;font-family:sans-serif;font-size:13;" transform="matrix(1 0 0 1 1289 1989)">design is preserved when submitting to Xcode.</text>
  <text id="template-version" style="stroke:none;fill:black;font-family:sans-serif;font-size:13;text-anchor:end;" transform="matrix(1 0 0 1 3036 1933)">Template v.2.0</text>
  <text style="stroke:none;fill:black;font-family:sans-serif;font-size:13;text-anchor:end;" transform="matrix(1 0 0 1 3036 1951)">Requires Xcode 13 or greater</text>
  <text id="descriptive-name" style="stroke:none;fill:black;font-family:sans-serif;font-size:13;text-anchor:end;" transform="matrix(1 0 0 1 3036 1969)">Generated from heart</text>
  <text style="stroke:none;fill:black;font-family:sans-serif;font-size:13;text-anchor:end;" transform="matrix(1 0 0 1 3036 1987)">Typeset at 100 points</text>
  <text style="stroke:none;fill:black;font-family:sans-serif;font-size:13;" transform="matrix(1 0 0 1 263 726)">Small</text>
  <text style="stroke:none;fill:black;font-family:sans-serif;font-size:13;" transform="matrix(1 0 0 1 263 1156)">Medium</text>
  <text style="stroke:none;fill:black;font-family:sans-serif;font-size:13;" transform="matrix(1 0 0 1 263 1586)">Large</text>
 </g>
 <g id="Guides">
  <g id="H-reference" style="fill:#27AAE1;stroke:none;" transform="matrix(1 0 0 1 339 696)">
   <path d="M0.976562 0L3.66211 0L29.3457-67.1387L30.0293-67.1387L30.0293-70.459L28.125-70.459ZM11.6699-24.4629L46.9727-24.4629L46.2402-26.709L12.4512-26.709ZM55.127 0L57.7637 0L30.6152-70.459L29.4434-70.459L29.4434-67.1387Z"/>
  </g>
  <line id="Baseline-S" style="fill:none;stroke:#27AAE1;opacity:1;stroke-width:0.5;" x1="263" x2="3036" y1="696" y2="696"/>
  <line id="Capline-S" style="fill:none;stroke:#27AAE1;opacity:1;stroke-width:0.5;" x1="263" x2="3036" y1="625.541" y2="625.541"/>
  <g id="H-reference" style="fill:#27AAE1;stroke:none;" transform="matrix(1 0 0 1 339 1126)">
   <path d="M0.976562 0L3.66211 0L29.3457-67.1387L30.0293-67.1387L30.0293-70.459L28.125-70.459ZM11.6699-24.4629L46.9727-24.4629L46.2402-26.709L12.4512-26.709ZM55.127 0L57.7637 0L30.6152-70.459L29.4434-70.459L29.4434-67.1387Z"/>
  </g>
  <line id="Baseline-M" style="fill:none;stroke:#27AAE1;opacity:1;stroke-width:0.5;" x1="263" x2="3036" y1="1126" y2="1126"/>
  <line id="Capline-M" style="fill:none;stroke:#27AAE1;opacity:1;stroke-width:0.5;" x1="263" x2="3036" y1="1055.54" y2="1055.54"/>
  <g id="H-reference" style="fill:#27AAE1;stroke:none;" transform="matrix(1 0 0 1 339 1556)">
   <path d="M0.976562 0L3.66211 0L29.3457-67.1387L30.0293-67.1387L30.0293-70.459L28.125-70.459ZM11.6699-24.4629L46.9727-24.4629L46.2402-26.709L12.4512-26.709ZM55.127 0L57.7637 0L30.6152-70.459L29.4434-70.459L29.4434-67.1387Z"/>
  </g>
  <line id="Baseline-L" style="fill:none;stroke:#27AAE1;opacity:1;stroke-width:0.5;" x1="263" x2="3036" y1="1556" y2="1556"/>
  <line id="Capline-L" style="fill:none;stroke:#27AAE1;opacity:1;stroke-width:0.5;" x1="263" x2="3036" y1="1485.54" y2="1485.54"/>
  <line id="left-margin" style="fill:none;stroke:#00AEEF;stroke-width:0.5;opacity:1.0;" x1="1389.3" x2="1389.3" y1="1030.79" y2="1150.12"/>
  <line id="right-margin" style="fill:none;stroke:#00AEEF;stroke-width:0.5;opacity:1.0;" x1="1510.39" x2="1510.39" y1="1030.79" y2="1150.12"/>
 </g>
 <g id="Symbols">
  <g id="Black-L" transform="matrix(1 0 0 1 2851.54 1556)">
   <path d="M14.3555-52.5879Q14.3555-42.3828 18.4326-32.2266Q22.5098-22.0703 30.0537-12.2314Q37.5977-2.39258 48.1201 6.90918Q58.6426 16.2109 71.5332 24.707Q74.3652 26.6113 77.124 28.1006Q79.8828 29.5898 81.8359 29.5898Q83.8379 29.5898 86.5967 28.1006Q89.3555 26.6113 92.1875 24.707Q105.078 16.2109 115.601 6.90918Q126.123-2.39258 133.667-12.2314Q141.211-22.0703 145.288-32.2266Q149.365-42.3828 149.365-52.5879Q149.365-62.4512 146.191-70.459Q143.018-78.4668 137.476-84.2285Q131.934-89.9902 124.756-93.0664Q117.578-96.1426 109.57-96.1426Q103.027-96.1426 97.7783-94.4824Q92.5293-92.8223 88.5742-89.917Q84.6191-87.0117 81.8359-83.252Q79.1504-87.0117 75.1709-89.917Q71.1914-92.8223 65.9424-94.4824Q60.6934-96.1426 54.1504-96.1426Q46.1426-96.1426 38.9648-93.0664Q31.7871-89.9902 26.2451-84.2285Q20.7031-78.4668 17.5293-70.459Q14.3555-62.4512 14.3555-52.5879ZM36.1328-52.832Q36.1328-59.4727 38.9404-64.5508Q41.748-69.6289 46.6064-72.4854Q51.4648-75.3418 57.5684-75.3418Q62.4512-75.3418 65.918-73.8037Q69.3848-72.2656 71.8018-69.9219Q74.2188-67.5781 76.0742-65.0879Q77.4902-63.1348 78.833-62.1582Q80.1758-61.1816 81.8359-61.1816Q83.4961-61.1816 84.79-62.1582Q86.084-63.1348 87.5977-65.0879Q89.5508-67.5781 91.9922-69.9219Q94.4336-72.2656 97.8516-73.8037Q101.27-75.3418 106.152-75.3418Q112.256-75.3418 117.114-72.4854Q121.973-69.6289 124.78-64.5508Q127.588-59.4727 127.588-52.832Q127.588-45.9473 124.365-38.4277Q121.143-30.9082 115.21-23.2422Q109.277-15.5762 101.025-8.1543Q92.7734-0.732422 82.7148 5.95703Q82.1289 6.34766 81.8359 6.34766Q81.5918 6.34766 81.0059 5.95703Q70.9473-0.732422 62.6953-8.1543Q54.4434-15.5762 48.4863-23.2422Q42.5293-30.9082 39.3311-38.4277Q36.1328-45.9473 36.1328-52.832Z"/>
  </g>
  <g id="Heavy-L" transform="matrix(1 0 0 1 2555.98 1556)">
   <path d="M14.5508-52.7344Q14.5508-42.5781 18.6279-32.4951Q22.7051-22.4121 30.249-12.6709Q37.793-2.92969 48.3398 6.32324Q58.8867 15.5762 71.8262 24.0234Q74.2188 25.6348 76.6113 26.8799Q79.0039 28.125 80.6641 28.125Q82.4219 28.125 84.8145 26.8799Q87.207 25.6348 89.5508 24.0234Q102.49 15.5762 113.037 6.32324Q123.584-2.92969 131.152-12.6709Q138.721-22.4121 142.798-32.4951Q146.875-42.5781 146.875-52.7344Q146.875-62.1582 143.823-69.8975Q140.771-77.6367 135.425-83.2275Q130.078-88.8184 123.071-91.7969Q116.064-94.7754 108.203-94.7754Q101.807-94.7754 96.6064-93.0908Q91.4062-91.4062 87.4268-88.4033Q83.4473-85.4004 80.6641-81.4941Q77.9785-85.4004 73.9746-88.4033Q69.9707-91.4062 64.7705-93.0908Q59.5703-94.7754 53.2227-94.7754Q45.3125-94.7754 38.3301-91.7969Q31.3477-88.8184 26.001-83.2275Q20.6543-77.6367 17.6025-69.8975Q14.5508-62.1582 14.5508-52.7344ZM33.2031-52.8809Q33.2031-60.0098 36.1572-65.4053Q39.1113-70.8008 44.2383-73.8281Q49.3652-76.8555 55.8105-76.8555Q60.9375-76.8555 64.624-75.1709Q68.3105-73.4863 70.8984-70.9473Q73.4863-68.4082 75.3906-65.6738Q76.709-63.7695 77.9297-62.8906Q79.1504-62.0117 80.6641-62.0117Q82.1777-62.0117 83.3496-62.915Q84.5215-63.8184 85.9863-65.6738Q87.9883-68.4082 90.6006-70.9473Q93.2129-73.4863 96.8506-75.1709Q100.488-76.8555 105.615-76.8555Q112.061-76.8555 117.163-73.8281Q122.266-70.8008 125.22-65.4053Q128.174-60.0098 128.174-52.8809Q128.174-45.5566 124.731-37.6953Q121.289-29.834 115.015-21.9238Q108.74-14.0137 100.244-6.46973Q91.748 1.07422 81.6406 7.8125Q80.957 8.25195 80.6641 8.25195Q80.4199 8.25195 79.7852 7.8125Q69.6777 1.07422 61.1572-6.46973Q52.6367-14.0137 46.3623-21.9238Q40.0879-29.834 36.6455-37.6953Q33.2031-45.5566 33.2031-52.8809Z"/>
  </g>
  <g id="Bold-L" transform="matrix(1 0 0 1 2260.56 1556)">
   <path d="M14.7461-52.8809Q14.7461-42.7734 18.8232-32.8125Q22.9004-22.8516 30.4688-13.1836Q38.0371-3.51562 48.6084 5.66406Q59.1797 14.8438 72.2168 23.291Q74.0723 24.5605 76.0254 25.5371Q77.9785 26.5137 79.3945 26.5137Q80.8594 26.5137 82.8125 25.5371Q84.7656 24.5605 86.6699 23.291Q99.6582 14.8438 110.229 5.66406Q120.801-3.51562 128.369-13.1836Q135.938-22.8516 140.015-32.8125Q144.092-42.7734 144.092-52.8809Q144.092-61.8652 141.187-69.2871Q138.281-76.709 133.13-82.1045Q127.979-87.5 121.191-90.4053Q114.404-93.3105 106.641-93.3105Q100.488-93.3105 95.3369-91.5771Q90.1855-89.8438 86.1816-86.7432Q82.1777-83.6426 79.3945-79.541Q76.709-83.6426 72.6807-86.7188Q68.6523-89.7949 63.501-91.5527Q58.3496-93.3105 52.1973-93.3105Q44.4336-93.3105 37.6465-90.4053Q30.8594-87.5 25.708-82.1045Q20.5566-76.709 17.6514-69.2871Q14.7461-61.8652 14.7461-52.8809ZM29.9805-52.9785Q29.9805-60.5957 33.1055-66.3574Q36.2305-72.1191 41.626-75.3418Q47.0215-78.5645 53.8574-78.5645Q59.2285-78.5645 63.1592-76.7334Q67.0898-74.9023 69.873-72.1191Q72.6562-69.3359 74.6582-66.3574Q75.8789-64.5508 76.9775-63.7451Q78.0762-62.9395 79.3945-62.9395Q80.7617-62.9395 81.7871-63.7451Q82.8125-64.5508 84.1797-66.3574Q86.2793-69.2871 89.0625-72.0947Q91.8457-74.9023 95.7275-76.7334Q99.6094-78.5645 104.98-78.5645Q111.816-78.5645 117.236-75.3418Q122.656-72.1191 125.757-66.3574Q128.857-60.5957 128.857-52.9785Q128.857-45.1172 125.146-36.8896Q121.436-28.6621 114.819-20.4834Q108.203-12.3047 99.3896-4.61426Q90.5762 3.07617 80.4199 9.86328Q79.6875 10.3516 79.3945 10.3516Q79.1504 10.3516 78.418 9.86328Q68.2617 3.07617 59.4727-4.61426Q50.6836-12.3047 44.043-20.4834Q37.4023-28.6621 33.6914-36.8896Q29.9805-45.1172 29.9805-52.9785Z"/>
  </g>
  <g id="Semibold-L" transform="matrix(1 0 0 1 1964.75 1556)">
   <path d="M14.8926-52.9785Q14.8926-42.9199 18.9697-33.0078Q23.0469-23.0957 30.6152-13.501Q38.1836-3.90625 48.7793 5.2002Q59.375 14.3066 72.4121 22.7539Q73.9258 23.7793 75.6104 24.585Q77.2949 25.3906 78.5156 25.3906Q79.7852 25.3906 81.4453 24.585Q83.1055 23.7793 84.6191 22.7539Q97.6562 14.3066 108.252 5.2002Q118.848-3.90625 126.416-13.501Q133.984-23.0957 138.062-33.0078Q142.139-42.9199 142.139-52.9785Q142.139-61.6699 139.355-68.8721Q136.572-76.0742 131.567-81.3232Q126.562-86.5723 119.897-89.4043Q113.232-92.2363 105.566-92.2363Q99.5605-92.2363 94.458-90.4785Q89.3555-88.7207 85.3271-85.5469Q81.2988-82.373 78.5156-78.1738Q75.7812-82.373 71.7529-85.5225Q67.7246-88.6719 62.5977-90.4541Q57.4707-92.2363 51.4648-92.2363Q43.7988-92.2363 37.1338-89.4043Q30.4688-86.5723 25.4883-81.3232Q20.5078-76.0742 17.7002-68.8721Q14.8926-61.6699 14.8926-52.9785ZM27.6855-53.0273Q27.6855-60.9863 30.9326-66.9922Q34.1797-72.998 39.7705-76.3672Q45.3613-79.7363 52.4902-79.7363Q58.0566-79.7363 62.1582-77.8076Q66.2598-75.8789 69.165-72.9004Q72.0703-69.9219 74.1211-66.7969Q75.293-65.0391 76.2939-64.2822Q77.2949-63.5254 78.5156-63.5254Q79.7363-63.5254 80.6885-64.3066Q81.6406-65.0879 82.959-66.7969Q85.0586-69.9219 87.9883-72.876Q90.918-75.8301 94.9707-77.7832Q99.0234-79.7363 104.541-79.7363Q111.67-79.7363 117.261-76.3672Q122.852-72.998 126.074-66.9922Q129.297-60.9863 129.297-53.0273Q129.297-44.8242 125.415-36.3281Q121.533-27.832 114.648-19.4824Q107.764-11.1328 98.7793-3.34473Q89.7949 4.44336 79.5898 11.2305Q78.7598 11.8164 78.5156 11.8164Q78.2715 11.8164 77.4414 11.2305Q67.2852 4.44336 58.2764-3.34473Q49.2676-11.1328 42.3828-19.4824Q35.498-27.832 31.5918-36.3281Q27.6855-44.8242 27.6855-53.0273Z"/>
  </g>
  <g id="Medium-L" transform="matrix(1 0 0 1 1668.72 1556)">
   <path d="M14.9902-53.0273Q14.9902-43.0176 19.0674-33.1543Q23.1445-23.291 30.7373-13.7695Q38.3301-4.24805 48.9258 4.83398Q59.5215 13.916 72.6074 22.3633Q73.8281 23.1934 75.293 23.877Q76.7578 24.5605 77.832 24.5605Q78.9551 24.5605 80.3955 23.877Q81.8359 23.1934 83.1055 22.3633Q96.1426 13.916 106.738 4.83398Q117.334-4.24805 124.927-13.7695Q132.52-23.291 136.597-33.1543Q140.674-43.0176 140.674-53.0273Q140.674-61.4746 137.964-68.5303Q135.254-75.5859 130.347-80.7373Q125.439-85.8887 118.896-88.6719Q112.354-91.4551 104.785-91.4551Q98.877-91.4551 93.7744-89.6729Q88.6719-87.8906 84.6436-84.668Q80.6152-81.4453 77.832-77.1484Q75.0977-81.4453 71.0693-84.6436Q67.041-87.8418 61.9141-89.6484Q56.7871-91.4551 50.9277-91.4551Q43.3105-91.4551 36.7676-88.6719Q30.2246-85.8887 25.3418-80.7373Q20.459-75.5859 17.7246-68.5303Q14.9902-61.4746 14.9902-53.0273ZM26.0254-53.0762Q26.0254-61.2793 29.3457-67.4805Q32.666-73.6816 38.4033-77.1484Q44.1406-80.6152 51.4648-80.6152Q57.1777-80.6152 61.4014-78.6133Q65.625-76.6113 68.6279-73.5107Q71.6309-70.4102 73.7305-67.1387Q74.8535-65.4297 75.7812-64.7217Q76.709-64.0137 77.832-64.0137Q78.9551-64.0137 79.834-64.7461Q80.7129-65.4785 81.9824-67.1387Q84.1309-70.3613 87.1582-73.4619Q90.1855-76.5625 94.3604-78.5889Q98.5352-80.6152 104.248-80.6152Q111.523-80.6152 117.285-77.1484Q123.047-73.6816 126.367-67.4805Q129.688-61.2793 129.688-53.0762Q129.688-44.5801 125.635-35.8887Q121.582-27.1973 114.526-18.7012Q107.471-10.2051 98.3154-2.34375Q89.1602 5.51758 78.9551 12.3047Q78.0762 12.8906 77.832 12.8906Q77.5879 12.8906 76.709 12.3047Q66.5527 5.51758 57.3975-2.34375Q48.2422-10.2051 41.1621-18.7012Q34.082-27.1973 30.0537-35.8887Q26.0254-44.5801 26.0254-53.0762Z"/>
  </g>
  <g id="Regular-L" transform="matrix(1 0 0 1 1372.89 1556)">
   <path d="M15.1367-53.125Q15.1367-43.1641 19.2139-33.374Q23.291-23.584 30.8838-14.1113Q38.4766-4.63867 49.0967 4.39453Q59.7168 13.4277 72.8516 21.875Q73.7305 22.4609 74.9023 22.9492Q76.0742 23.4375 76.9531 23.4375Q77.8809 23.4375 79.0283 22.9492Q80.1758 22.4609 81.1035 21.875Q94.1895 13.4277 104.81 4.39453Q115.43-4.63867 123.022-14.1113Q130.615-23.584 134.692-33.374Q138.77-43.1641 138.77-53.125Q138.77-61.2793 136.157-68.1152Q133.545-74.9512 128.784-79.9561Q124.023-84.9609 117.627-87.6953Q111.23-90.4297 103.711-90.4297Q97.9492-90.4297 92.8955-88.623Q87.8418-86.8164 83.7891-83.5205Q79.7363-80.2246 76.9531-75.8301Q74.2188-80.2246 70.166-83.4961Q66.1133-86.7676 61.0352-88.5986Q55.957-90.4297 50.1953-90.4297Q42.6758-90.4297 36.2793-87.6953Q29.8828-84.9609 25.1465-79.9561Q20.4102-74.9512 17.7734-68.1152Q15.1367-61.2793 15.1367-53.125ZM23.7793-53.125Q23.7793-61.6699 27.2217-68.1152Q30.6641-74.5605 36.5967-78.1738Q42.5293-81.7871 50.0977-81.7871Q56.0059-81.7871 60.4004-79.6631Q64.7949-77.5391 67.9199-74.292Q71.0449-71.0449 73.1934-67.5781Q74.2676-65.918 75.0977-65.2832Q75.9277-64.6484 76.9531-64.6484Q77.9785-64.6484 78.7598-65.3076Q79.541-65.9668 80.7617-67.5781Q82.959-70.9961 86.1084-74.2432Q89.2578-77.4902 93.6035-79.6387Q97.9492-81.7871 103.809-81.7871Q111.377-81.7871 117.334-78.1738Q123.291-74.5605 126.709-68.1152Q130.127-61.6699 130.127-53.125Q130.127-44.2871 125.903-35.3271Q121.68-26.3672 114.38-17.7002Q107.08-9.0332 97.7295-1.07422Q88.3789 6.88477 78.125 13.7207Q77.1973 14.3555 76.9531 14.3555Q76.709 14.3555 75.7812 13.7207Q65.5762 6.88477 56.2256-1.07422Q46.875-9.0332 39.5508-17.7002Q32.2266-26.3672 28.0029-35.3271Q23.7793-44.2871 23.7793-53.125Z"/>
  </g>
  <g id="Light-L" transform="matrix(1 0 0 1 1077.74 1556)">
   <path d="M14.5996-53.125Q14.5996-43.3594 18.7256-33.7402Q22.8516-24.1211 30.4443-14.8193Q38.0371-5.51758 48.5596 3.36914Q59.082 12.2559 71.875 20.6055Q72.6562 21.1426 73.6328 21.5332Q74.6094 21.9238 75.3906 21.9238Q76.2207 21.9238 77.1729 21.5332Q78.125 21.1426 78.9062 20.6055Q91.6992 12.2559 102.222 3.36914Q112.744-5.51758 120.337-14.8193Q127.93-24.1211 132.056-33.7402Q136.182-43.3594 136.182-53.125Q136.182-61.0352 133.643-67.6758Q131.104-74.3164 126.465-79.1992Q121.826-84.082 115.601-86.7432Q109.375-89.4043 102.051-89.4043Q96.3867-89.4043 91.3086-87.5244Q86.2305-85.6445 82.1289-82.2021Q78.0273-78.7598 75.3906-74.1211Q72.8027-78.7598 68.7012-82.1777Q64.5996-85.5957 59.4971-87.5Q54.3945-89.4043 48.7305-89.4043Q41.4062-89.4043 35.1807-86.7432Q28.9551-84.082 24.3408-79.1992Q19.7266-74.3164 17.1631-67.6758Q14.5996-61.0352 14.5996-53.125ZM21.1914-53.125Q21.1914-61.9141 24.7803-68.6035Q28.3691-75.293 34.5703-79.0527Q40.7715-82.8125 48.6816-82.8125Q54.541-82.8125 59.0088-80.6885Q63.4766-78.5645 66.7725-75.1709Q70.0684-71.7773 72.2656-67.9199Q73.1445-66.5527 73.8281-65.9912Q74.5117-65.4297 75.3906-65.4297Q76.2695-65.4297 76.9287-65.9912Q77.5879-66.5527 78.5156-67.9199Q80.8105-71.7285 84.1064-75.1221Q87.4023-78.5156 91.8457-80.6641Q96.2891-82.8125 102.1-82.8125Q110.01-82.8125 116.235-79.0527Q122.461-75.293 126.025-68.6035Q129.59-61.9141 129.59-53.125Q129.59-44.2383 125.366-35.2539Q121.143-26.2695 113.745-17.5781Q106.348-8.88672 96.7285-0.78125Q87.1094 7.32422 76.416 14.502Q75.6348 15.0391 75.3906 15.0391Q75.1465 15.0391 74.3652 14.502Q63.7207 7.32422 54.1016-0.78125Q44.4824-8.88672 37.085-17.5781Q29.6875-26.2695 25.4395-35.2539Q21.1914-44.2383 21.1914-53.125Z"/>
  </g>
  <g id="Thin-L" transform="matrix(1 0 0 1 783.082 1556)">
   <path d="M13.8672-53.125Q13.8672-43.6035 18.042-34.2529Q22.2168-24.9023 29.834-15.7959Q37.4512-6.68945 47.8271 2.02637Q58.2031 10.7422 70.6543 18.9453Q71.1914 19.3848 71.9482 19.6777Q72.7051 19.9707 73.3398 19.9707Q73.9746 19.9707 74.7314 19.6777Q75.4883 19.3848 76.0254 18.9453Q88.4766 10.7422 98.8525 2.02637Q109.229-6.68945 116.821-15.7959Q124.414-24.9023 128.613-34.2529Q132.812-43.6035 132.812-53.125Q132.812-60.7422 130.347-67.1143Q127.881-73.4863 123.413-78.1982Q118.945-82.9102 112.915-85.498Q106.885-88.0859 99.8535-88.0859Q94.3848-88.0859 89.2334-86.084Q84.082-84.082 79.9316-80.4199Q75.7812-76.7578 73.3398-71.8262Q70.8984-76.7578 66.748-80.4199Q62.5977-84.082 57.4463-86.084Q52.2949-88.0859 46.8262-88.0859Q39.7461-88.0859 33.7158-85.498Q27.6855-82.9102 23.2422-78.1982Q18.7988-73.4863 16.333-67.1143Q13.8672-60.7422 13.8672-53.125ZM17.8223-53.125Q17.8223-62.2559 21.582-69.2383Q25.3418-76.2207 31.8848-80.1758Q38.4277-84.1309 46.8262-84.1309Q52.5391-84.1309 57.1533-82.0068Q61.7676-79.8828 65.2344-76.3184Q68.7012-72.7539 71.0938-68.3594Q71.6797-67.3828 72.168-66.9434Q72.6562-66.5039 73.3398-66.5039Q74.0234-66.5039 74.5117-66.9434Q75-67.3828 75.5859-68.3594Q77.9785-72.7051 81.4453-76.2939Q84.9121-79.8828 89.5264-82.0068Q94.1406-84.1309 99.8535-84.1309Q108.203-84.1309 114.771-80.1758Q121.338-76.2207 125.098-69.2383Q128.857-62.2559 128.857-53.125Q128.857-44.1406 124.609-35.1562Q120.361-26.1719 112.842-17.4072Q105.322-8.64258 95.3857-0.341797Q85.4492 7.95898 74.1211 15.5273Q73.584 15.918 73.3398 15.918Q73.0957 15.918 72.5586 15.5273Q61.2305 7.95898 51.2939-0.341797Q41.3574-8.64258 33.8135-17.4072Q26.2695-26.1719 22.0459-35.1562Q17.8223-44.1406 17.8223-53.125Z"/>
  </g>
  <g id="Ultralight-L" transform="matrix(1 0 0 1 487.445 1556)">
   <path d="M13.5254-53.125Q13.5254-43.75 17.7246-34.4971Q21.9238-25.2441 29.541-16.2842Q37.1582-7.32422 47.4609 1.29395Q57.7637 9.91211 69.9707 18.1152Q70.459 18.457 71.0938 18.7012Q71.7285 18.9453 72.2656 18.9453Q72.8516 18.9453 73.4619 18.7012Q74.0723 18.457 74.5605 18.1152Q86.7676 9.91211 97.0703 1.29395Q107.373-7.32422 114.99-16.2842Q122.607-25.2441 126.831-34.4971Q131.055-43.75 131.055-53.125Q131.055-60.5957 128.638-66.8457Q126.221-73.0957 121.851-77.71Q117.48-82.3242 111.572-84.8633Q105.664-87.4023 98.7305-87.4023Q93.3105-87.4023 88.1348-85.3271Q82.959-83.252 78.8086-79.5166Q74.6582-75.7812 72.2656-70.6543Q69.9219-75.7812 65.7471-79.5166Q61.5723-83.252 56.3965-85.3271Q51.2207-87.4023 45.8496-87.4023Q38.916-87.4023 32.9834-84.8633Q27.0508-82.3242 22.6807-77.71Q18.3105-73.0957 15.918-66.8457Q13.5254-60.5957 13.5254-53.125ZM16.0645-53.125Q16.0645-62.4023 19.9463-69.5557Q23.8281-76.709 30.542-80.7617Q37.2559-84.8145 45.8984-84.8145Q51.5625-84.8145 56.2256-82.6904Q60.8887-80.5664 64.4775-76.9043Q68.0664-73.2422 70.459-68.5547Q70.8984-67.7734 71.3135-67.4072Q71.7285-67.041 72.2656-67.041Q72.8516-67.041 73.2666-67.4072Q73.6816-67.7734 74.0723-68.5547Q76.5137-73.2422 80.1025-76.9043Q83.6914-80.5664 88.3545-82.6904Q93.0176-84.8145 98.6816-84.8145Q107.275-84.8145 114.014-80.7617Q120.752-76.709 124.634-69.5557Q128.516-62.4023 128.516-53.125Q128.516-44.0918 124.268-35.1074Q120.02-26.123 112.427-17.334Q104.834-8.54492 94.7266-0.146484Q84.6191 8.25195 72.9492 16.0156Q72.5098 16.3574 72.2656 16.3574Q72.0215 16.3574 71.582 16.0156Q59.9609 8.25195 49.8535-0.146484Q39.7461-8.54492 32.1533-17.334Q24.5605-26.123 20.3125-35.1074Q16.0645-44.0918 16.0645-53.125Z"/>
  </g>
  <g id="Black-M" transform="matrix(1 0 0 1 2869.53 1126)">
   <path d="M10.7422-48.584Q10.7422-38.0371 16.2842-27.5635Q21.8262-17.0898 31.7627-7.25098Q41.6992 2.58789 54.7852 11.377Q57.3242 13.0859 59.7412 14.4287Q62.1582 15.7715 63.8672 15.7715Q65.5762 15.7715 67.9688 14.4287Q70.3613 13.0859 72.9492 11.377Q86.0352 2.58789 95.9473-7.25098Q105.859-17.0898 111.426-27.5635Q116.992-38.0371 116.992-48.584Q116.992-56.4941 114.429-62.8906Q111.865-69.2871 107.471-73.8281Q103.076-78.3691 97.4121-80.8105Q91.748-83.252 85.498-83.252Q77.6855-83.252 72.3389-80.4443Q66.9922-77.6367 63.8672-73.3887Q60.7422-77.6367 55.3711-80.4443Q50-83.252 42.2363-83.252Q35.9863-83.252 30.3223-80.8105Q24.6582-78.3691 20.2393-73.8281Q15.8203-69.2871 13.2812-62.8906Q10.7422-56.4941 10.7422-48.584ZM29.541-48.8281Q29.541-53.6621 31.665-57.3975Q33.7891-61.1328 37.4268-63.2324Q41.0645-65.332 45.6055-65.332Q49.1699-65.332 51.6846-64.2578Q54.1992-63.1836 56.0059-61.499Q57.8125-59.8145 59.1797-58.0078Q60.3027-56.4941 61.4014-55.6885Q62.5-54.8828 63.8672-54.8828Q65.2344-54.8828 66.2842-55.6885Q67.334-56.4941 68.457-58.0078Q69.9707-59.8633 71.7529-61.5479Q73.5352-63.2324 76.0254-64.2822Q78.5156-65.332 82.1289-65.332Q86.6699-65.332 90.2832-63.2324Q93.8965-61.1328 96.0205-57.3975Q98.1445-53.6621 98.1445-48.8281Q98.1445-43.8477 95.8496-38.3057Q93.5547-32.7637 89.1846-27.002Q84.8145-21.2402 78.5645-15.5762Q72.3145-9.91211 64.4043-4.63867Q64.0625-4.39453 63.8672-4.39453Q63.623-4.39453 63.3301-4.63867Q55.3711-9.91211 49.1211-15.5762Q42.8711-21.2402 38.501-27.002Q34.1309-32.7637 31.8359-38.3057Q29.541-43.8477 29.541-48.8281Z"/>
  </g>
  <g id="Heavy-M" transform="matrix(1 0 0 1 2573.6 1126)">
   <path d="M11.0352-48.6816Q11.0352-38.1836 16.5771-27.7832Q22.1191-17.3828 32.1045-7.59277Q42.0898 2.19727 55.3223 10.9863Q57.4219 12.4023 59.5215 13.5254Q61.6211 14.6484 63.0859 14.6484Q64.5508 14.6484 66.626 13.5254Q68.7012 12.4023 70.8496 10.9863Q84.1309 2.19727 94.0674-7.59277Q104.004-17.3828 109.57-27.7832Q115.137-38.1836 115.137-48.6816Q115.137-56.2988 112.671-62.4512Q110.205-68.6035 105.981-72.998Q101.758-77.3926 96.2402-79.7607Q90.7227-82.1289 84.5215-82.1289Q76.9531-82.1289 71.6064-79.2969Q66.2598-76.4648 63.0859-72.0215Q59.9121-76.4648 54.541-79.2969Q49.1699-82.1289 41.6504-82.1289Q35.498-82.1289 29.9805-79.7607Q24.4629-77.3926 20.1904-72.998Q15.918-68.6035 13.4766-62.4512Q11.0352-56.2988 11.0352-48.6816ZM27.2949-48.877Q27.2949-54.1016 29.5166-58.1055Q31.7383-62.1094 35.5713-64.3555Q39.4043-66.6016 44.1895-66.6016Q47.998-66.6016 50.708-65.4053Q53.418-64.209 55.3711-62.3291Q57.3242-60.4492 58.7402-58.4961Q59.8145-56.9824 60.8154-56.25Q61.8164-55.5176 63.0859-55.5176Q64.3555-55.5176 65.3076-56.2744Q66.2598-57.0312 67.3828-58.4961Q68.9453-60.498 70.8496-62.3535Q72.7539-64.209 75.4395-65.4053Q78.125-66.6016 81.9824-66.6016Q86.7676-66.6016 90.5762-64.3555Q94.3848-62.1094 96.6309-58.1055Q98.877-54.1016 98.877-48.877Q98.877-43.457 96.3379-37.5977Q93.7988-31.7383 89.1357-25.7568Q84.4727-19.7754 78.0273-14.0137Q71.582-8.25195 63.7207-3.02734Q63.2812-2.68555 63.0859-2.68555Q62.8418-2.68555 62.4512-3.02734Q54.541-8.25195 48.0957-14.0137Q41.6504-19.7754 36.9873-25.7568Q32.3242-31.7383 29.8096-37.5977Q27.2949-43.457 27.2949-48.877Z"/>
  </g>
  <g id="Bold-M" transform="matrix(1 0 0 1 2277.77 1126)">
   <path d="M11.4258-48.8281Q11.4258-38.3789 16.9434-28.0518Q22.4609-17.7246 32.4707-7.95898Q42.4805 1.80664 55.9082 10.5957Q57.5684 11.6699 59.2773 12.5488Q60.9863 13.4277 62.207 13.4277Q63.4766 13.4277 65.1611 12.5488Q66.8457 11.6699 68.5547 10.5957Q81.9824 1.80664 91.9678-7.95898Q101.953-17.7246 107.495-28.0518Q113.037-38.3789 113.037-48.8281Q113.037-56.0547 110.718-61.9385Q108.398-67.8223 104.321-72.0703Q100.244-76.3184 94.8975-78.6133Q89.5508-80.9082 83.4473-80.9082Q76.123-80.9082 70.7764-78.0273Q65.4297-75.1465 62.207-70.5566Q59.0332-75.1465 53.6621-78.0273Q48.291-80.9082 41.0156-80.9082Q34.9121-80.9082 29.5654-78.6133Q24.2188-76.3184 20.1172-72.0703Q16.0156-67.8223 13.7207-61.9385Q11.4258-56.0547 11.4258-48.8281ZM24.7559-48.9746Q24.7559-54.6387 27.0996-58.9355Q29.4434-63.2324 33.4961-65.625Q37.5488-68.0176 42.627-68.0176Q46.7285-68.0176 49.6582-66.6748Q52.5879-65.332 54.6631-63.2568Q56.7383-61.1816 58.2031-59.082Q59.2773-57.5684 60.1807-56.9092Q61.084-56.25 62.207-56.25Q63.3301-56.25 64.209-56.9336Q65.0879-57.6172 66.1621-59.082Q67.7734-61.1816 69.8486-63.2568Q71.9238-65.332 74.8047-66.6748Q77.6855-68.0176 81.7871-68.0176Q86.9141-68.0176 90.9424-65.625Q94.9707-63.2324 97.3145-58.9355Q99.6582-54.6387 99.6582-48.9746Q99.6582-43.0664 96.875-36.8164Q94.0918-30.5664 89.1113-24.3408Q84.1309-18.1152 77.4658-12.2559Q70.8008-6.39648 62.9883-1.2207Q62.4023-0.78125 62.207-0.78125Q62.0117-0.78125 61.4746-1.2207Q53.6621-6.39648 46.9727-12.2559Q40.2832-18.1152 35.3027-24.3408Q30.3223-30.5664 27.5391-36.8164Q24.7559-43.0664 24.7559-48.9746Z"/>
  </g>
  <g id="Semibold-M" transform="matrix(1 0 0 1 1981.67 1126)">
   <path d="M11.6211-48.9258Q11.6211-38.4766 17.1387-28.1982Q22.6562-17.9199 32.7148-8.22754Q42.7734 1.46484 56.2988 10.2539Q57.666 11.1328 59.1064 11.8652Q60.5469 12.5977 61.6211 12.5977Q62.6953 12.5977 64.1357 11.8652Q65.5762 11.1328 66.9434 10.2539Q80.4688 1.46484 90.5029-8.22754Q100.537-17.9199 106.055-28.1982Q111.572-38.4766 111.572-48.9258Q111.572-55.8594 109.326-61.5723Q107.08-67.2852 103.149-71.4355Q99.2188-75.5859 93.9697-77.832Q88.7207-80.0781 82.666-80.0781Q75.5371-80.0781 70.1904-77.1484Q64.8438-74.2188 61.6211-69.4824Q58.3984-74.2188 53.0273-77.1484Q47.6562-80.0781 40.5273-80.0781Q34.5215-80.0781 29.2725-77.832Q24.0234-75.5859 20.0439-71.4355Q16.0645-67.2852 13.8428-61.5723Q11.6211-55.8594 11.6211-48.9258ZM22.998-48.9746Q22.998-54.9805 25.415-59.4727Q27.832-63.9648 32.0312-66.4795Q36.2305-68.9941 41.5527-68.9941Q45.8008-68.9941 48.9014-67.5293Q52.002-66.0645 54.1748-63.8672Q56.3477-61.6699 57.8613-59.4238Q58.8867-57.959 59.7168-57.3486Q60.5469-56.7383 61.6211-56.7383Q62.6465-56.7383 63.4521-57.373Q64.2578-58.0078 65.332-59.4238Q66.9434-61.6699 69.1162-63.8916Q71.2891-66.1133 74.3408-67.5537Q77.3926-68.9941 81.6406-68.9941Q86.9629-68.9941 91.1621-66.4795Q95.3613-63.9648 97.7783-59.4727Q100.195-54.9805 100.195-48.9746Q100.195-42.7734 97.2412-36.2793Q94.2871-29.7852 89.0869-23.3887Q83.8867-16.9922 77.0508-11.0352Q70.2148-5.07812 62.4512 0.0488281Q61.8164 0.537109 61.6211 0.537109Q61.377 0.537109 60.7422 0.0488281Q53.0273-5.07812 46.1914-11.0352Q39.3555-16.9922 34.1309-23.3887Q28.9062-29.7852 25.9521-36.2793Q22.998-42.7734 22.998-48.9746Z"/>
  </g>
  <g id="Medium-M" transform="matrix(1 0 0 1 1685.42 1126)">
   <path d="M11.8164-48.9746Q11.8164-38.5742 17.334-28.3447Q22.8516-18.1152 32.9102-8.42285Q42.9688 1.26953 56.6406 10.0586Q57.7148 10.7422 58.9844 11.3281Q60.2539 11.9141 61.1328 11.9141Q62.1094 11.9141 63.3545 11.3281Q64.5996 10.7422 65.7227 10.0586Q79.3457 1.26953 89.4043-8.42285Q99.4629-18.1152 104.956-28.3447Q110.449-38.5742 110.449-48.9746Q110.449-55.7129 108.301-61.3037Q106.152-66.8945 102.295-70.9473Q98.4375-75 93.2617-77.1973Q88.0859-79.3945 82.0801-79.3945Q75.1465-79.3945 69.7998-76.4648Q64.4531-73.5352 61.1328-68.7012Q57.9102-73.5352 52.5391-76.4648Q47.168-79.3945 40.1855-79.3945Q34.2285-79.3945 29.0527-77.1973Q23.877-75 20.0195-70.9473Q16.1621-66.8945 13.9893-61.3037Q11.8164-55.7129 11.8164-48.9746ZM21.6309-49.0234Q21.6309-55.2246 24.1211-59.8877Q26.6113-64.5508 30.9326-67.1387Q35.2539-69.7266 40.7227-69.7266Q45.1172-69.7266 48.3398-68.1885Q51.5625-66.6504 53.8086-64.3555Q56.0547-62.0605 57.5684-59.7168Q58.6426-58.252 59.3994-57.6904Q60.1562-57.1289 61.1328-57.1289Q62.1094-57.1289 62.8662-57.7148Q63.623-58.3008 64.6973-59.7168Q66.3086-62.0117 68.5791-64.3555Q70.8496-66.6992 73.999-68.2129Q77.1484-69.7266 81.5918-69.7266Q87.0117-69.7266 91.333-67.1387Q95.6543-64.5508 98.1445-59.8877Q100.635-55.2246 100.635-49.0234Q100.635-42.5781 97.5342-35.8643Q94.4336-29.1504 89.0625-22.6318Q83.6914-16.1133 76.7334-10.1074Q69.7754-4.10156 62.0605 1.02539Q61.3281 1.51367 61.1328 1.51367Q60.9375 1.51367 60.2539 1.02539Q52.5391-4.10156 45.5811-10.1074Q38.623-16.1133 33.2275-22.6318Q27.832-29.1504 24.7314-35.8643Q21.6309-42.5781 21.6309-49.0234Z"/>
  </g>
  <g id="Regular-M" transform="matrix(1 0 0 1 1389.3 1126)">
   <path d="M12.0605-49.0723Q12.0605-38.6719 17.5537-28.4912Q23.0469-18.3105 33.1543-8.66699Q43.2617 0.976562 57.0312 9.76562Q57.8125 10.2539 58.8135 10.6689Q59.8145 11.084 60.5469 11.084Q61.3281 11.084 62.3291 10.6689Q63.3301 10.2539 64.1113 9.76562Q77.8809 0.976562 87.9639-8.66699Q98.0469-18.3105 103.54-28.4912Q109.033-38.6719 109.033-49.0723Q109.033-55.5664 106.958-60.9619Q104.883-66.3574 101.147-70.3125Q97.4121-74.2676 92.3584-76.416Q87.3047-78.5645 81.3477-78.5645Q74.5605-78.5645 69.2139-75.5859Q63.8672-72.6074 60.5469-67.6758Q57.2754-72.6074 51.9043-75.5859Q46.5332-78.5645 39.7461-78.5645Q33.8379-78.5645 28.7842-76.416Q23.7305-74.2676 19.9707-70.3125Q16.2109-66.3574 14.1357-60.9619Q12.0605-55.5664 12.0605-49.0723ZM19.9219-49.0723Q19.9219-55.5664 22.4854-60.4248Q25.0488-65.2832 29.5166-67.9932Q33.9844-70.7031 39.6484-70.7031Q44.2383-70.7031 47.6074-69.0674Q50.9766-67.4316 53.3203-64.9902Q55.6641-62.5488 57.2266-60.1074Q58.252-58.6426 58.96-58.1299Q59.668-57.6172 60.5469-57.6172Q61.4258-57.6172 62.1094-58.1543Q62.793-58.6914 63.8672-60.1074Q65.5273-62.5 67.8955-64.9658Q70.2637-67.4316 73.5596-69.0674Q76.8555-70.7031 81.4453-70.7031Q87.1094-70.7031 91.5771-67.9932Q96.0449-65.2832 98.6084-60.4248Q101.172-55.5664 101.172-49.0723Q101.172-42.2852 97.9004-35.3271Q94.6289-28.3691 89.0381-21.6797Q83.4473-14.9902 76.3428-8.91113Q69.2383-2.83203 61.5723 2.24609Q60.7422 2.83203 60.5469 2.83203Q60.3516 2.83203 59.5703 2.24609Q51.9043-2.83203 44.7998-8.91113Q37.6953-14.9902 32.0801-21.6797Q26.4648-28.3691 23.1934-35.3271Q19.9219-42.2852 19.9219-49.0723Z"/>
  </g>
  <g id="Light-M" transform="matrix(1 0 0 1 1094 1126)">
   <path d="M11.5723-49.0723Q11.5723-38.916 17.1143-28.9551Q22.6562-18.9941 32.6904-9.52148Q42.7246-0.0488281 56.1523 8.64258Q56.8359 9.08203 57.666 9.39941Q58.4961 9.7168 59.1309 9.7168Q59.8145 9.7168 60.6445 9.39941Q61.4746 9.08203 62.1582 8.64258Q75.5859-0.0488281 85.5957-9.52148Q95.6055-18.9941 101.172-28.9551Q106.738-38.916 106.738-49.0723Q106.738-55.3711 104.712-60.5957Q102.686-65.8203 99.0479-69.6533Q95.4102-73.4863 90.5273-75.5615Q85.6445-77.6367 79.834-77.6367Q73.1934-77.6367 67.7246-74.5117Q62.2559-71.3867 59.1309-66.1133Q56.0059-71.3867 50.5371-74.5117Q45.0684-77.6367 38.4277-77.6367Q32.666-77.6367 27.7832-75.5615Q22.9004-73.4863 19.2383-69.6533Q15.5762-65.8203 13.5742-60.5957Q11.5723-55.3711 11.5723-49.0723ZM17.627-49.0723Q17.627-55.8105 20.3125-60.8643Q22.998-65.918 27.6855-68.7744Q32.373-71.6309 38.3789-71.6309Q42.9199-71.6309 46.3623-69.9951Q49.8047-68.3594 52.2705-65.7959Q54.7363-63.2324 56.3965-60.4004Q57.2266-59.1797 57.8125-58.7646Q58.3984-58.3496 59.1309-58.3496Q59.8633-58.3496 60.4492-58.7891Q61.0352-59.2285 61.8652-60.4004Q63.5742-63.1836 66.0889-65.7715Q68.6035-68.3594 71.9971-69.9951Q75.3906-71.6309 79.8828-71.6309Q85.8887-71.6309 90.5762-68.7744Q95.2637-65.918 97.9736-60.8643Q100.684-55.8105 100.684-49.0723Q100.684-42.2363 97.3877-35.2783Q94.0918-28.3203 88.4277-21.582Q82.7637-14.8438 75.4395-8.64258Q68.1152-2.44141 60.0098 2.92969Q59.3262 3.41797 59.1309 3.41797Q58.9355 3.41797 58.3008 2.92969Q50.1953-2.44141 42.8711-8.64258Q35.5469-14.8438 29.8584-21.582Q24.1699-28.3203 20.8984-35.2783Q17.627-42.2363 17.627-49.0723Z"/>
  </g>
  <g id="Thin-M" transform="matrix(1 0 0 1 799.147 1126)">
   <path d="M10.8887-49.0723Q10.8887-39.209 16.5283-29.541Q22.168-19.873 32.1289-10.6445Q42.0898-1.41602 54.9805 7.12891Q55.4688 7.4707 56.1035 7.71484Q56.7383 7.95898 57.2754 7.95898Q57.8125 7.95898 58.4229 7.71484Q59.0332 7.4707 59.5215 7.12891Q72.5098-1.41602 82.4463-10.6445Q92.3828-19.873 98.0225-29.541Q103.662-39.209 103.662-49.0723Q103.662-55.0781 101.733-60.083Q99.8047-65.0879 96.3135-68.7744Q92.8223-72.4609 88.1104-74.4629Q83.3984-76.4648 77.832-76.4648Q71.4355-76.4648 65.7959-73.0957Q60.1562-69.7266 57.2754-64.1113Q54.3457-69.7266 48.7305-73.0957Q43.1152-76.4648 36.7188-76.4648Q31.1523-76.4648 26.4648-74.4629Q21.7773-72.4609 18.2617-68.7744Q14.7461-65.0879 12.8174-60.083Q10.8887-55.0781 10.8887-49.0723ZM14.5508-49.0723Q14.5508-56.1035 17.4072-61.4502Q20.2637-66.7969 25.2686-69.8242Q30.2734-72.8516 36.7188-72.8516Q41.1621-72.8516 44.7021-71.1914Q48.2422-69.5312 50.9033-66.8213Q53.5645-64.1113 55.3223-60.791Q55.8594-59.9609 56.2988-59.6191Q56.7383-59.2773 57.2754-59.2773Q57.8613-59.2773 58.2764-59.6191Q58.6914-59.9609 59.1797-60.791Q61.0352-64.0625 63.6963-66.7969Q66.3574-69.5312 69.873-71.1914Q73.3887-72.8516 77.8809-72.8516Q84.2773-72.8516 89.2578-69.8242Q94.2383-66.7969 97.1191-61.4502Q100-56.1035 100-49.0723Q100-42.1875 96.7285-35.2051Q93.457-28.2227 87.6465-21.46Q81.8359-14.6973 74.2188-8.30078Q66.6016-1.9043 57.959 3.85742Q57.4707 4.19922 57.2754 4.19922Q57.0801 4.19922 56.6406 3.85742Q47.9492-1.9043 40.332-8.30078Q32.7148-14.6973 26.9287-21.46Q21.1426-28.2227 17.8467-35.2051Q14.5508-42.1875 14.5508-49.0723Z"/>
  </g>
  <g id="Ultralight-M" transform="matrix(1 0 0 1 503.388 1126)">
   <path d="M10.5469-49.0723Q10.5469-39.3555 16.2354-29.834Q21.9238-20.3125 31.8115-11.2061Q41.6992-2.09961 54.3945 6.34766Q54.834 6.68945 55.3467 6.86035Q55.8594 7.03125 56.3477 7.03125Q56.7871 7.03125 57.2998 6.86035Q57.8125 6.68945 58.2031 6.34766Q70.9473-2.09961 80.835-11.2061Q90.7227-20.3125 96.4111-29.834Q102.1-39.3555 102.1-49.0723Q102.1-54.9316 100.195-59.8389Q98.291-64.7461 94.873-68.335Q91.4551-71.9238 86.8652-73.877Q82.2754-75.8301 76.8066-75.8301Q70.5078-75.8301 64.7949-72.3633Q59.082-68.8965 56.3477-63.0371Q53.5156-68.8965 47.8271-72.3633Q42.1387-75.8301 35.8398-75.8301Q30.3711-75.8301 25.7812-73.877Q21.1914-71.9238 17.7734-68.335Q14.3555-64.7461 12.4512-59.8389Q10.5469-54.9316 10.5469-49.0723ZM12.9883-49.0723Q12.9883-56.25 15.9424-61.7432Q18.8965-67.2363 24.0479-70.3613Q29.1992-73.4863 35.8398-73.4863Q40.2344-73.4863 43.8232-71.8262Q47.4121-70.166 50.1709-67.3584Q52.9297-64.5508 54.7852-61.0352Q55.1758-60.3027 55.5176-60.0342Q55.8594-59.7656 56.3477-59.7656Q56.7871-59.7656 57.1289-60.0342Q57.4707-60.3027 57.8125-61.0352Q59.7168-64.5508 62.4756-67.3584Q65.2344-70.166 68.8232-71.8262Q72.4121-73.4863 76.8066-73.4863Q83.4473-73.4863 88.5986-70.3613Q93.75-67.2363 96.7041-61.7432Q99.6582-56.25 99.6582-49.0723Q99.6582-42.1387 96.3623-35.1562Q93.0664-28.1738 87.207-21.3867Q81.3477-14.5996 73.584-8.10547Q65.8203-1.61133 56.8848 4.3457Q56.543 4.58984 56.3477 4.58984Q56.1523 4.58984 55.7617 4.3457Q46.8262-1.61133 39.0625-8.10547Q31.2988-14.5996 25.4395-21.3867Q19.5801-28.1738 16.2842-35.1562Q12.9883-42.1387 12.9883-49.0723Z"/>
  </g>
  <g id="Black-S" transform="matrix(1 0 0 1 2883.2 696)">
   <path d="M8.30078-45.6543Q8.30078-37.4023 12.6465-29.1992Q16.9922-20.9961 24.7559-13.2812Q32.5195-5.56641 42.7246 1.31836Q44.873 2.73438 46.8506 3.85742Q48.8281 4.98047 50.1953 4.98047Q51.6113 4.98047 53.5889 3.85742Q55.5664 2.73438 57.666 1.31836Q67.8711-5.56641 75.6348-13.2812Q83.3984-20.9961 87.7441-29.1992Q92.0898-37.4023 92.0898-45.6543Q92.0898-54.0527 88.5986-60.2051Q85.1074-66.3574 79.4189-69.751Q73.7305-73.1445 67.1875-73.1445Q61.0352-73.1445 56.8359-70.9473Q52.6367-68.75 50.1953-65.4297Q47.8027-68.75 43.5791-70.9473Q39.3555-73.1445 33.2031-73.1445Q26.6602-73.1445 20.9717-69.751Q15.2832-66.3574 11.792-60.2051Q8.30078-54.0527 8.30078-45.6543ZM23.7305-45.8496Q23.7305-49.5605 25.3662-52.3926Q27.002-55.2246 29.8096-56.8604Q32.6172-58.4961 36.084-58.4961Q38.8184-58.4961 40.7227-57.6904Q42.627-56.8848 44.0186-55.6152Q45.4102-54.3457 46.4844-52.9297Q47.3145-51.7578 48.2178-51.123Q49.1211-50.4883 50.1953-50.4883Q51.3184-50.4883 52.1484-51.123Q52.9785-51.7578 53.8574-52.9297Q55.0293-54.3945 56.3965-55.6641Q57.7637-56.9336 59.668-57.7148Q61.5723-58.4961 64.3066-58.4961Q67.8223-58.4961 70.6055-56.8604Q73.3887-55.2246 75.0244-52.3926Q76.6602-49.5605 76.6602-45.8496Q76.6602-42.0898 74.9268-37.8418Q73.1934-33.5938 69.8486-29.1504Q66.5039-24.707 61.6699-20.2881Q56.8359-15.8691 50.5859-11.7188Q50.3906-11.5723 50.1953-11.5723Q50.0488-11.5723 49.8047-11.7188Q43.5547-15.8691 38.7207-20.2881Q33.8867-24.707 30.542-29.1504Q27.1973-33.5938 25.4639-37.8418Q23.7305-42.0898 23.7305-45.8496Z"/>
  </g>
  <g id="Heavy-S" transform="matrix(1 0 0 1 2586.98 696)">
   <path d="M8.64258-45.752Q8.64258-37.5 12.9639-29.3213Q17.2852-21.1426 25.0977-13.4521Q32.9102-5.76172 43.2617 1.12305Q45.0684 2.34375 46.7773 3.27148Q48.4863 4.19922 49.707 4.19922Q50.9277 4.19922 52.6367 3.27148Q54.3457 2.34375 56.1035 1.12305Q66.5039-5.76172 74.3164-13.4521Q82.1289-21.1426 86.4502-29.3213Q90.7715-37.5 90.7715-45.752Q90.7715-53.8086 87.4268-59.7656Q84.082-65.7227 78.5645-69.0186Q73.0469-72.3145 66.5527-72.3145Q60.5469-72.3145 56.3721-70.1172Q52.1973-67.9199 49.707-64.4531Q47.2656-67.8711 43.042-70.0928Q38.8184-72.3145 32.8613-72.3145Q26.3672-72.3145 20.8496-69.0186Q15.332-65.7227 11.9873-59.7656Q8.64258-53.8086 8.64258-45.752ZM22.0703-45.8984Q22.0703-49.9023 23.7793-52.9541Q25.4883-56.0059 28.4424-57.7393Q31.3965-59.4727 35.0586-59.4727Q37.9883-59.4727 40.0635-58.5449Q42.1387-57.6172 43.6035-56.2256Q45.0684-54.834 46.1914-53.3203Q47.0215-52.1484 47.876-51.5381Q48.7305-50.9277 49.707-50.9277Q50.7324-50.9277 51.5137-51.5381Q52.2949-52.1484 53.1738-53.3203Q54.3945-54.834 55.8594-56.25Q57.3242-57.666 59.375-58.5693Q61.4258-59.4727 64.3555-59.4727Q68.0664-59.4727 70.9961-57.7393Q73.9258-56.0059 75.6348-52.9541Q77.3438-49.9023 77.3438-45.8984Q77.3438-41.7969 75.415-37.2559Q73.4863-32.7148 69.8975-28.1006Q66.3086-23.4863 61.3281-18.9941Q56.3477-14.502 50.1953-10.4004Q49.9023-10.2051 49.707-10.2051Q49.5605-10.2051 49.2188-10.4004Q43.0664-14.502 38.0859-18.9941Q33.1055-23.4863 29.5166-28.1006Q25.9277-32.7148 23.999-37.2559Q22.0703-41.7969 22.0703-45.8984Z"/>
  </g>
  <g id="Bold-S" transform="matrix(1 0 0 1 2290.83 696)">
   <path d="M8.98438-45.8984Q8.98438-37.6465 13.3057-29.4922Q17.627-21.3379 25.4639-13.6719Q33.3008-6.00586 43.8965 0.927734Q45.3125 1.85547 46.7285 2.6123Q48.1445 3.36914 49.1699 3.36914Q50.1953 3.36914 51.6113 2.6123Q53.0273 1.85547 54.3945 0.927734Q64.9902-6.00586 72.8516-13.6719Q80.7129-21.3379 85.0098-29.4922Q89.3066-37.6465 89.3066-45.8984Q89.3066-53.5156 86.1328-59.2529Q82.959-64.9902 77.6123-68.1885Q72.2656-71.3867 65.8203-71.3867Q60.0586-71.3867 55.8838-69.165Q51.709-66.9434 49.1699-63.4277Q46.6309-66.9434 42.4561-69.165Q38.2812-71.3867 32.4707-71.3867Q26.0742-71.3867 20.7275-68.1885Q15.3809-64.9902 12.1826-59.2529Q8.98438-53.5156 8.98438-45.8984ZM20.2148-45.9961Q20.2148-50.3418 22.0215-53.6133Q23.8281-56.8848 26.9287-58.7158Q30.0293-60.5469 33.8867-60.5469Q37.0605-60.5469 39.3066-59.5215Q41.5527-58.4961 43.1396-56.9336Q44.7266-55.3711 45.8496-53.7598Q46.7285-52.5391 47.4854-52.002Q48.2422-51.4648 49.1699-51.4648Q50.0977-51.4648 50.8057-52.002Q51.5137-52.5391 52.4414-53.7598Q53.6621-55.3711 55.2246-56.9336Q56.7871-58.4961 59.0332-59.5215Q61.2793-60.5469 64.4531-60.5469Q68.3594-60.5469 71.4355-58.7158Q74.5117-56.8848 76.2939-53.6133Q78.0762-50.3418 78.0762-45.9961Q78.0762-41.4551 75.9277-36.5967Q73.7793-31.7383 69.9463-26.9043Q66.1133-22.0703 60.9619-17.5293Q55.8105-12.9883 49.8047-8.98438Q49.3164-8.64258 49.1699-8.64258Q49.0234-8.64258 48.5352-8.98438Q42.5293-12.9883 37.3779-17.5293Q32.2266-22.0703 28.3691-26.9043Q24.5117-31.7383 22.3633-36.5967Q20.2148-41.4551 20.2148-45.9961Z"/>
  </g>
  <g id="Semibold-S" transform="matrix(1 0 0 1 1994.51 696)">
   <path d="M9.22852-45.9473Q9.22852-37.6953 13.5254-29.5898Q17.8223-21.4844 25.708-13.8184Q33.5938-6.15234 44.3359 0.78125Q45.459 1.51367 46.6797 2.12402Q47.9004 2.73438 48.7793 2.73438Q49.6582 2.73438 50.8789 2.12402Q52.0996 1.51367 53.2227 0.78125Q63.9648-6.15234 71.8262-13.8184Q79.6875-21.4844 83.9844-29.5898Q88.2812-37.6953 88.2812-45.9473Q88.2812-53.3203 85.2051-58.9111Q82.1289-64.502 76.9043-67.627Q71.6797-70.752 65.332-70.752Q59.668-70.752 55.5176-68.5303Q51.3672-66.3086 48.7793-62.6465Q46.1914-66.2598 42.0166-68.5059Q37.8418-70.752 32.2266-70.752Q25.8301-70.752 20.6055-67.627Q15.3809-64.502 12.3047-58.9111Q9.22852-53.3203 9.22852-45.9473ZM18.9453-45.9961Q18.9453-50.5859 20.8008-54.0283Q22.6562-57.4707 25.8545-59.375Q29.0527-61.2793 33.1055-61.2793Q36.4258-61.2793 38.7939-60.1562Q41.1621-59.0332 42.8223-57.373Q44.4824-55.7129 45.6055-54.0527Q46.4844-52.832 47.1924-52.3193Q47.9004-51.8066 48.7793-51.8066Q49.6094-51.8066 50.293-52.3193Q50.9766-52.832 51.9043-54.0527Q53.125-55.7129 54.7852-57.373Q56.4453-59.0332 58.7891-60.1562Q61.1328-61.2793 64.4531-61.2793Q68.5059-61.2793 71.7041-59.375Q74.9023-57.4707 76.7578-54.0283Q78.6133-50.5859 78.6133-45.9961Q78.6133-41.2109 76.2939-36.1328Q73.9746-31.0547 69.9463-26.0742Q65.918-21.0938 60.6689-16.5039Q55.4199-11.9141 49.4629-7.95898Q48.9258-7.56836 48.7793-7.56836Q48.6328-7.56836 48.0957-7.95898Q42.1387-11.9141 36.8652-16.5039Q31.5918-21.0938 27.5635-26.0742Q23.5352-31.0547 21.2402-36.1328Q18.9453-41.2109 18.9453-45.9961Z"/>
  </g>
  <g id="Medium-S" transform="matrix(1 0 0 1 1698.09 696)">
   <path d="M9.42383-45.9961Q9.42383-37.7441 13.7207-29.6387Q18.0176-21.5332 25.9033-13.8916Q33.7891-6.25 44.6289 0.683594Q45.6055 1.26953 46.6553 1.78223Q47.7051 2.29492 48.4863 2.29492Q49.2676 2.29492 50.3418 1.78223Q51.416 1.26953 52.2949 0.683594Q63.1348-6.25 71.0449-13.8916Q78.9551-21.5332 83.252-29.6387Q87.5488-37.7441 87.5488-45.9961Q87.5488-53.1738 84.5459-58.6426Q81.543-64.1113 76.416-67.1875Q71.2891-70.2637 64.9414-70.2637Q59.375-70.2637 55.249-68.0176Q51.123-65.7715 48.4863-62.1094Q45.8984-65.7227 41.7236-67.9932Q37.5488-70.2637 31.9824-70.2637Q25.6348-70.2637 20.5078-67.1875Q15.3809-64.1113 12.4023-58.6426Q9.42383-53.1738 9.42383-45.9961ZM17.9688-46.0449Q17.9688-50.7812 19.873-54.3457Q21.7773-57.9102 25.0488-59.8877Q28.3203-61.8652 32.4707-61.8652Q35.9375-61.8652 38.4033-60.6689Q40.8691-59.4727 42.5781-57.7393Q44.2871-56.0059 45.459-54.2969Q46.2891-53.0273 46.9727-52.5391Q47.6562-52.0508 48.4863-52.0508Q49.2676-52.0508 49.9268-52.5391Q50.5859-53.0273 51.5137-54.2969Q52.7344-55.957 54.4434-57.7148Q56.1523-59.4727 58.5938-60.6689Q61.0352-61.8652 64.502-61.8652Q68.6523-61.8652 71.9238-59.8877Q75.1953-57.9102 77.0996-54.3457Q79.0039-50.7812 79.0039-46.0449Q79.0039-41.0156 76.5869-35.791Q74.1699-30.5664 69.9951-25.4639Q65.8203-20.3613 60.4736-15.7227Q55.127-11.084 49.2676-7.17773Q48.6328-6.78711 48.4863-6.78711Q48.3398-6.78711 47.7051-7.17773Q41.8457-11.084 36.4746-15.7227Q31.1035-20.3613 26.9531-25.4639Q22.8027-30.5664 20.3857-35.791Q17.9688-41.0156 17.9688-46.0449Z"/>
  </g>
  <g id="Regular-S" transform="matrix(1 0 0 1 1401.75 696)">
   <path d="M9.66797-46.0938Q9.66797-37.8418 13.9404-29.7607Q18.2129-21.6797 26.1475-14.0381Q34.082-6.39648 45.0684 0.537109Q45.752 0.976562 46.6064 1.34277Q47.4609 1.70898 48.0957 1.70898Q48.7305 1.70898 49.6094 1.34277Q50.4883 0.976562 51.123 0.537109Q62.1094-6.39648 70.0439-14.0381Q77.9785-21.6797 82.251-29.7607Q86.5234-37.8418 86.5234-46.0938Q86.5234-52.9785 83.6426-58.3008Q80.7617-63.623 75.7568-66.626Q70.752-69.6289 64.4531-69.6289Q59.0332-69.6289 54.9072-67.3828Q50.7812-65.1367 48.0957-61.377Q45.459-65.0879 41.3086-67.3584Q37.1582-69.6289 31.7383-69.6289Q25.4395-69.6289 20.4346-66.626Q15.4297-63.623 12.5488-58.3008Q9.66797-52.9785 9.66797-46.0938ZM16.6992-46.0938Q16.6992-51.0742 18.6523-54.7852Q20.6055-58.4961 23.999-60.5469Q27.3926-62.5977 31.6895-62.5977Q35.3027-62.5977 37.8906-61.3281Q40.4785-60.0586 42.2607-58.2031Q44.043-56.3477 45.2148-54.5898Q46.0938-53.3203 46.7285-52.8564Q47.3633-52.3926 48.0957-52.3926Q48.8281-52.3926 49.4385-52.8564Q50.0488-53.3203 50.9766-54.5898Q52.2461-56.2988 54.0283-58.1543Q55.8105-60.0098 58.374-61.3037Q60.9375-62.5977 64.5508-62.5977Q68.8477-62.5977 72.2168-60.5469Q75.5859-58.4961 77.5391-54.7852Q79.4922-51.0742 79.4922-46.0938Q79.4922-40.7715 76.9287-35.3271Q74.3652-29.8828 70.0195-24.6582Q65.6738-19.4336 60.2051-14.7461Q54.7363-10.0586 48.9746-6.20117Q48.2422-5.71289 48.0957-5.71289Q47.9492-5.71289 47.2656-6.20117Q41.4551-10.0586 35.9863-14.7461Q30.5176-19.4336 26.1719-24.6582Q21.8262-29.8828 19.2627-35.3271Q16.6992-40.7715 16.6992-46.0938Z"/>
  </g>
  <g id="Light-S" transform="matrix(1 0 0 1 1106.28 696)">
   <path d="M9.22852-46.0938Q9.22852-38.0371 13.5498-30.1514Q17.8711-22.2656 25.7568-14.7705Q33.6426-7.27539 44.3359-0.439453Q44.873-0.0976562 45.5811 0.219727Q46.2891 0.537109 46.875 0.537109Q47.4121 0.537109 48.1445 0.219727Q48.877-0.0976562 49.4141-0.439453Q60.0586-7.27539 67.9443-14.7705Q75.8301-22.2656 80.1514-30.1514Q84.4727-38.0371 84.4727-46.0938Q84.4727-52.7344 81.6895-57.8613Q78.9062-62.9883 74.0723-65.918Q69.2383-68.8477 63.1348-68.8477Q57.8613-68.8477 53.6133-66.4307Q49.3652-64.0137 46.875-60.0098Q44.3359-64.0137 40.0879-66.4307Q35.8398-68.8477 30.5664-68.8477Q24.4629-68.8477 19.6289-65.918Q14.7949-62.9883 12.0117-57.8613Q9.22852-52.7344 9.22852-46.0938ZM14.6484-46.0938Q14.6484-51.2695 16.7236-55.1514Q18.7988-59.0332 22.3877-61.2061Q25.9766-63.3789 30.5664-63.3789Q34.1309-63.3789 36.792-62.1094Q39.4531-60.8398 41.333-58.8867Q43.2129-56.9336 44.4824-54.834Q45.166-53.8086 45.7031-53.418Q46.2402-53.0273 46.875-53.0273Q47.4609-53.0273 47.9736-53.418Q48.4863-53.8086 49.2188-54.834Q50.5371-56.8848 52.4414-58.8379Q54.3457-60.791 56.9824-62.085Q59.6191-63.3789 63.1836-63.3789Q67.7734-63.3789 71.3379-61.2061Q74.9023-59.0332 76.9775-55.1514Q79.0527-51.2695 79.0527-46.0938Q79.0527-40.7227 76.4893-35.2783Q73.9258-29.834 69.5068-24.585Q65.0879-19.3359 59.4238-14.5264Q53.7598-9.7168 47.6074-5.56641Q47.0215-5.17578 46.875-5.17578Q46.7285-5.17578 46.1426-5.56641Q39.9414-9.7168 34.3018-14.5264Q28.6621-19.3359 24.2188-24.585Q19.7754-29.834 17.2119-35.2783Q14.6484-40.7227 14.6484-46.0938Z"/>
  </g>
  <g id="Thin-S" transform="matrix(1 0 0 1 811.207 696)">
   <path d="M8.64258-46.0938Q8.64258-38.2812 13.0371-30.6396Q17.4316-22.998 25.2441-15.7227Q33.0566-8.44727 43.3105-1.75781Q43.7012-1.46484 44.2383-1.26953Q44.7754-1.07422 45.2148-1.07422Q45.6543-1.07422 46.1914-1.26953Q46.7285-1.46484 47.1191-1.75781Q57.373-8.44727 65.1855-15.7227Q72.998-22.998 77.3926-30.6396Q81.7871-38.2812 81.7871-46.0938Q81.7871-52.3926 79.1016-57.2754Q76.416-62.1582 71.8018-64.9658Q67.1875-67.7734 61.377-67.7734Q56.2988-67.7734 51.9287-65.1611Q47.5586-62.5488 45.2148-58.2031Q42.8711-62.5488 38.501-65.1611Q34.1309-67.7734 29.0527-67.7734Q23.2422-67.7734 18.6035-64.9658Q13.9648-62.1582 11.3037-57.2754Q8.64258-52.3926 8.64258-46.0938ZM11.9629-46.0938Q11.9629-51.5137 14.1846-55.6641Q16.4062-59.8145 20.2637-62.1338Q24.1211-64.4531 29.0527-64.4531Q32.5684-64.4531 35.3027-63.1592Q38.0371-61.8652 40.0879-59.7656Q42.1387-57.666 43.5547-55.1758Q43.9941-54.4434 44.3848-54.1504Q44.7754-53.8574 45.2148-53.8574Q45.6543-53.8574 46.0205-54.1504Q46.3867-54.4434 46.875-55.1758Q48.291-57.666 50.3174-59.7656Q52.3438-61.8652 55.1025-63.1592Q57.8613-64.4531 61.377-64.4531Q66.3086-64.4531 70.166-62.1338Q74.0234-59.8145 76.2451-55.6641Q78.4668-51.5137 78.4668-46.0938Q78.4668-40.6738 75.8789-35.2051Q73.291-29.7363 68.7744-24.4385Q64.2578-19.1406 58.3252-14.1846Q52.3926-9.22852 45.752-4.73633Q45.3613-4.49219 45.2148-4.49219Q45.0684-4.49219 44.6777-4.73633Q37.9883-9.22852 32.0801-14.1846Q26.1719-19.1406 21.6309-24.4385Q17.0898-29.7363 14.5264-35.2051Q11.9629-40.6738 11.9629-46.0938Z"/>
  </g>
  <g id="Ultralight-S" transform="matrix(1 0 0 1 515.351 696)">
   <path d="M8.34961-46.0938Q8.34961-38.4277 12.793-30.9082Q17.2363-23.3887 25-16.2354Q32.7637-9.08203 42.8223-2.39258Q43.1152-2.19727 43.5303-2.02637Q43.9453-1.85547 44.3848-1.85547Q44.7266-1.85547 45.166-2.02637Q45.6055-2.19727 45.9473-2.39258Q55.957-9.08203 63.7451-16.2354Q71.5332-23.3887 75.9521-30.9082Q80.3711-38.4277 80.3711-46.0938Q80.3711-52.2461 77.7832-57.0068Q75.1953-61.7676 70.6787-64.502Q66.1621-67.2363 60.4492-67.2363Q55.4688-67.2363 51.0254-64.5264Q46.582-61.8164 44.3848-57.2754Q42.1387-61.8164 37.6953-64.5264Q33.252-67.2363 28.2715-67.2363Q22.5586-67.2363 18.0664-64.502Q13.5742-61.7676 10.9619-57.0068Q8.34961-52.2461 8.34961-46.0938ZM10.5469-46.0938Q10.5469-51.6602 12.8418-55.9082Q15.1367-60.1562 19.165-62.5732Q23.1934-64.9902 28.2715-64.9902Q31.7383-64.9902 34.5459-63.6963Q37.3535-62.4023 39.4775-60.2295Q41.6016-58.0566 43.0664-55.3711Q43.3594-54.7852 43.6768-54.541Q43.9941-54.2969 44.3848-54.2969Q44.7266-54.2969 45.0195-54.541Q45.3125-54.7852 45.6543-55.3711Q47.1191-58.0566 49.2432-60.2295Q51.3672-62.4023 54.1748-63.6963Q56.9824-64.9902 60.4492-64.9902Q65.5762-64.9902 69.5801-62.5732Q73.584-60.1562 75.8789-55.9082Q78.1738-51.6602 78.1738-46.0938Q78.1738-40.625 75.5859-35.1562Q72.998-29.6875 68.4326-24.3896Q63.8672-19.0918 57.8125-14.0381Q51.7578-8.98438 44.8242-4.3457Q44.5312-4.10156 44.3848-4.10156Q44.2383-4.10156 43.8965-4.3457Q36.9629-8.98438 30.9326-14.0381Q24.9023-19.0918 20.2881-24.3896Q15.6738-29.6875 13.1104-35.1562Q10.5469-40.625 10.5469-46.0938Z"/>
  </g>
 </g>
</svg>
