<?xml version="1.0" encoding="UTF-8"?>
<!--Generator: Apple Native CoreSVG 149-->
<!DOCTYPE svg
PUBLIC "-//W3C//DTD SVG 1.1//EN"
       "http://www.w3.org/Graphics/SVG/1.1/DTD/svg11.dtd">
<svg version="1.1" xmlns="http://www.w3.org/2000/svg" xmlns:xlink="http://www.w3.org/1999/xlink" width="3300" height="2200">
 <!--glyph: "uni10028A.medium", point size: 100.0, font version: "17.0d9e1", template writer version: "59"-->
 <g id="Notes">
  <rect height="2200" id="artboard" style="fill:white;opacity:1" width="3300" x="0" y="0"/>
  <line style="fill:none;stroke:black;opacity:1;stroke-width:0.5;" x1="263" x2="3036" y1="292" y2="292"/>
  <text style="stroke:none;fill:black;font-family:sans-serif;font-size:13;font-weight:bold;" transform="matrix(1 0 0 1 263 322)">Weight/Scale Variations</text>
  <text style="stroke:none;fill:black;font-family:sans-serif;font-size:13;text-anchor:middle;" transform="matrix(1 0 0 1 559.711 322)">Ultralight</text>
  <text style="stroke:none;fill:black;font-family:sans-serif;font-size:13;text-anchor:middle;" transform="matrix(1 0 0 1 856.422 322)">Thin</text>
  <text style="stroke:none;fill:black;font-family:sans-serif;font-size:13;text-anchor:middle;" transform="matrix(1 0 0 1 1153.13 322)">Light</text>
  <text style="stroke:none;fill:black;font-family:sans-serif;font-size:13;text-anchor:middle;" transform="matrix(1 0 0 1 1449.84 322)">Regular</text>
  <text style="stroke:none;fill:black;font-family:sans-serif;font-size:13;text-anchor:middle;" transform="matrix(1 0 0 1 1746.56 322)">Medium</text>
  <text style="stroke:none;fill:black;font-family:sans-serif;font-size:13;text-anchor:middle;" transform="matrix(1 0 0 1 2043.27 322)">Semibold</text>
  <text style="stroke:none;fill:black;font-family:sans-serif;font-size:13;text-anchor:middle;" transform="matrix(1 0 0 1 2339.98 322)">Bold</text>
  <text style="stroke:none;fill:black;font-family:sans-serif;font-size:13;text-anchor:middle;" transform="matrix(1 0 0 1 2636.69 322)">Heavy</text>
  <text style="stroke:none;fill:black;font-family:sans-serif;font-size:13;text-anchor:middle;" transform="matrix(1 0 0 1 2933.4 322)">Black</text>
  <line style="fill:none;stroke:black;opacity:1;stroke-width:0.5;" x1="263" x2="3036" y1="1903" y2="1903"/>
  <g transform="matrix(1 0 0 1 263 1933)">
   <path d="M9.24805 0.830078Q10.8691 0.830078 12.2949 0.214844Q13.7207-0.400391 14.8096-1.49414Q15.8984-2.58789 16.5186-4.01367Q17.1387-5.43945 17.1387-7.05078Q17.1387-8.66211 16.5186-10.0879Q15.8984-11.5137 14.8047-12.6074Q13.7109-13.7012 12.2852-14.3164Q10.8594-14.9316 9.23828-14.9316Q7.62695-14.9316 6.20117-14.3164Q4.77539-13.7012 3.69141-12.6074Q2.60742-11.5137 1.9873-10.0879Q1.36719-8.66211 1.36719-7.05078Q1.36719-5.43945 1.9873-4.01367Q2.60742-2.58789 3.69629-1.49414Q4.78516-0.400391 6.21094 0.214844Q7.63672 0.830078 9.24805 0.830078ZM9.24805-0.654297Q7.91992-0.654297 6.7627-1.14746Q5.60547-1.64062 4.73145-2.51953Q3.85742-3.39844 3.36426-4.56055Q2.87109-5.72266 2.87109-7.05078Q2.87109-8.37891 3.35938-9.54102Q3.84766-10.7031 4.72168-11.582Q5.5957-12.4609 6.75293-12.9541Q7.91016-13.4473 9.23828-13.4473Q10.5762-13.4473 11.7334-12.9541Q12.8906-12.4609 13.7695-11.582Q14.6484-10.7031 15.1465-9.54102Q15.6445-8.37891 15.6445-7.05078Q15.6445-5.72266 15.1514-4.56055Q14.6582-3.39844 13.7842-2.51953Q12.9102-1.64062 11.748-1.14746Q10.5859-0.654297 9.24805-0.654297ZM5.83984-7.04102Q5.83984-6.71875 6.04492-6.51855Q6.25-6.31836 6.5918-6.31836L8.50586-6.31836L8.50586-4.39453Q8.50586-4.0625 8.70605-3.85742Q8.90625-3.65234 9.22852-3.65234Q9.56055-3.65234 9.76562-3.85742Q9.9707-4.0625 9.9707-4.39453L9.9707-6.31836L11.8945-6.31836Q12.2266-6.31836 12.4316-6.51855Q12.6367-6.71875 12.6367-7.04102Q12.6367-7.37305 12.4316-7.57812Q12.2266-7.7832 11.8945-7.7832L9.9707-7.7832L9.9707-9.69727Q9.9707-10.0391 9.76562-10.2441Q9.56055-10.4492 9.22852-10.4492Q8.90625-10.4492 8.70605-10.2441Q8.50586-10.0391 8.50586-9.69727L8.50586-7.7832L6.5918-7.7832Q6.25-7.7832 6.04492-7.57812Q5.83984-7.37305 5.83984-7.04102Z"/>
  </g>
  <g transform="matrix(1 0 0 1 281.867 1933)">
   <path d="M11.709 2.91016Q13.75 2.91016 15.5518 2.12891Q17.3535 1.34766 18.7305-0.0292969Q20.1074-1.40625 20.8887-3.20801Q21.6699-5.00977 21.6699-7.05078Q21.6699-9.0918 20.8887-10.8936Q20.1074-12.6953 18.7305-14.0723Q17.3535-15.4492 15.5469-16.2305Q13.7402-17.0117 11.6992-17.0117Q9.6582-17.0117 7.85645-16.2305Q6.05469-15.4492 4.68262-14.0723Q3.31055-12.6953 2.5293-10.8936Q1.74805-9.0918 1.74805-7.05078Q1.74805-5.00977 2.5293-3.20801Q3.31055-1.40625 4.6875-0.0292969Q6.06445 1.34766 7.86621 2.12891Q9.66797 2.91016 11.709 2.91016ZM11.709 1.25Q9.98047 1.25 8.47656 0.605469Q6.97266-0.0390625 5.83496-1.17676Q4.69727-2.31445 4.05762-3.81836Q3.41797-5.32227 3.41797-7.05078Q3.41797-8.7793 4.05762-10.2832Q4.69727-11.7871 5.83008-12.9297Q6.96289-14.0723 8.4668-14.7119Q9.9707-15.3516 11.6992-15.3516Q13.4277-15.3516 14.9316-14.7119Q16.4355-14.0723 17.5781-12.9297Q18.7207-11.7871 19.3652-10.2832Q20.0098-8.7793 20.0098-7.05078Q20.0098-5.32227 19.3701-3.81836Q18.7305-2.31445 17.5928-1.17676Q16.4551-0.0390625 14.9463 0.605469Q13.4375 1.25 11.709 1.25ZM7.39258-7.04102Q7.39258-6.68945 7.62695-6.46484Q7.86133-6.24023 8.23242-6.24023L10.8789-6.24023L10.8789-3.57422Q10.8789-3.21289 11.1035-2.9834Q11.3281-2.75391 11.6797-2.75391Q12.0508-2.75391 12.2852-2.9834Q12.5195-3.21289 12.5195-3.57422L12.5195-6.24023L15.1758-6.24023Q15.5371-6.24023 15.7715-6.46484Q16.0059-6.68945 16.0059-7.04102Q16.0059-7.41211 15.7715-7.6416Q15.5371-7.87109 15.1758-7.87109L12.5195-7.87109L12.5195-10.5176Q12.5195-10.8984 12.2852-11.1279Q12.0508-11.3574 11.6797-11.3574Q11.3281-11.3574 11.1035-11.1279Q10.8789-10.8984 10.8789-10.5176L10.8789-7.87109L8.23242-7.87109Q7.85156-7.87109 7.62207-7.6416Q7.39258-7.41211 7.39258-7.04102Z"/>
  </g>
  <g transform="matrix(1 0 0 1 305.646 1933)">
   <path d="M14.9707 5.66406Q17.0605 5.66406 18.96 5.01465Q20.8594 4.36523 22.4512 3.19336Q24.043 2.02148 25.2197 0.429688Q26.3965-1.16211 27.0459-3.06641Q27.6953-4.9707 27.6953-7.05078Q27.6953-9.14062 27.0459-11.04Q26.3965-12.9395 25.2197-14.5312Q24.043-16.123 22.4512-17.2998Q20.8594-18.4766 18.9551-19.126Q17.0508-19.7754 14.9609-19.7754Q12.8711-19.7754 10.9717-19.126Q9.07227-18.4766 7.48535-17.2998Q5.89844-16.123 4.72168-14.5312Q3.54492-12.9395 2.90039-11.04Q2.25586-9.14062 2.25586-7.05078Q2.25586-4.9707 2.90527-3.06641Q3.55469-1.16211 4.72656 0.429688Q5.89844 2.02148 7.49023 3.19336Q9.08203 4.36523 10.9814 5.01465Q12.8809 5.66406 14.9707 5.66406ZM14.9707 3.84766Q13.1641 3.84766 11.5283 3.2959Q9.89258 2.74414 8.53516 1.74805Q7.17773 0.751953 6.17676-0.610352Q5.17578-1.97266 4.62891-3.6084Q4.08203-5.24414 4.08203-7.05078Q4.08203-8.86719 4.62891-10.5029Q5.17578-12.1387 6.17188-13.501Q7.16797-14.8633 8.52539-15.8594Q9.88281-16.8555 11.5186-17.4023Q13.1543-17.9492 14.9609-17.9492Q16.7773-17.9492 18.4131-17.4023Q20.0488-16.8555 21.4111-15.8594Q22.7734-14.8633 23.7695-13.501Q24.7656-12.1387 25.3174-10.5029Q25.8691-8.86719 25.8691-7.05078Q25.8789-5.24414 25.332-3.6084Q24.7852-1.97266 23.7842-0.610352Q22.7832 0.751953 21.4209 1.74805Q20.0586 2.74414 18.4229 3.2959Q16.7871 3.84766 14.9707 3.84766ZM9.45312-7.04102Q9.45312-6.66016 9.71191-6.41113Q9.9707-6.16211 10.3711-6.16211L14.0625-6.16211L14.0625-2.46094Q14.0625-2.06055 14.3115-1.80664Q14.5605-1.55273 14.9414-1.55273Q15.3516-1.55273 15.6055-1.80664Q15.8594-2.06055 15.8594-2.46094L15.8594-6.16211L19.5605-6.16211Q19.9609-6.16211 20.2148-6.41113Q20.4688-6.66016 20.4688-7.04102Q20.4688-7.45117 20.2148-7.70508Q19.9609-7.95898 19.5605-7.95898L15.8594-7.95898L15.8594-11.6504Q15.8594-12.0605 15.6055-12.3145Q15.3516-12.5684 14.9414-12.5684Q14.5605-12.5684 14.3115-12.3096Q14.0625-12.0508 14.0625-11.6504L14.0625-7.95898L10.3711-7.95898Q9.96094-7.95898 9.70703-7.70508Q9.45312-7.45117 9.45312-7.04102Z"/>
  </g>
  <text style="stroke:none;fill:black;font-family:sans-serif;font-size:13;font-weight:bold;" transform="matrix(1 0 0 1 263 1953)">Design Variations</text>
  <text style="stroke:none;fill:black;font-family:sans-serif;font-size:13;" transform="matrix(1 0 0 1 263 1971)">Symbols are supported in up to nine weights and three scales.</text>
  <text style="stroke:none;fill:black;font-family:sans-serif;font-size:13;" transform="matrix(1 0 0 1 263 1989)">For optimal layout with text and other symbols, vertically align</text>
  <text style="stroke:none;fill:black;font-family:sans-serif;font-size:13;" transform="matrix(1 0 0 1 263 2007)">symbols with the adjacent text.</text>
  <line style="fill:none;stroke:#00AEEF;stroke-width:0.5;opacity:1.0;" x1="776" x2="776" y1="1919" y2="1933"/>
  <g transform="matrix(1 0 0 1 776 1933)">
   <path d="M3.31055 0.15625Q3.70117 0.15625 3.91602-0.00976562Q4.13086-0.175781 4.26758-0.585938L5.52734-4.0332L11.2891-4.0332L12.5488-0.585938Q12.6855-0.175781 12.9004-0.00976562Q13.1152 0.15625 13.4961 0.15625Q13.8867 0.15625 14.1162-0.0585938Q14.3457-0.273438 14.3457-0.644531Q14.3457-0.869141 14.2383-1.17188L9.6582-13.3691Q9.48242-13.8184 9.17969-14.043Q8.87695-14.2676 8.4082-14.2676Q7.5-14.2676 7.17773-13.3789L2.59766-1.16211Q2.49023-0.859375 2.49023-0.634766Q2.49023-0.263672 2.70996-0.0537109Q2.92969 0.15625 3.31055 0.15625ZM6.00586-5.51758L8.37891-12.0898L8.42773-12.0898L10.8008-5.51758Z"/>
  </g>
  <line style="fill:none;stroke:#00AEEF;stroke-width:0.5;opacity:1.0;" x1="793.197" x2="793.197" y1="1919" y2="1933"/>
  <text style="stroke:none;fill:black;font-family:sans-serif;font-size:13;font-weight:bold;" transform="matrix(1 0 0 1 776 1953)">Margins</text>
  <text style="stroke:none;fill:black;font-family:sans-serif;font-size:13;" transform="matrix(1 0 0 1 776 1971)">Leading and trailing margins on the left and right side of each symbol</text>
  <text style="stroke:none;fill:black;font-family:sans-serif;font-size:13;" transform="matrix(1 0 0 1 776 1989)">can be adjusted by modifying the x-location of the margin guidelines.</text>
  <text style="stroke:none;fill:black;font-family:sans-serif;font-size:13;" transform="matrix(1 0 0 1 776 2007)">Modifications are automatically applied proportionally to all</text>
  <text style="stroke:none;fill:black;font-family:sans-serif;font-size:13;" transform="matrix(1 0 0 1 776 2025)">scales and weights.</text>
  <g transform="matrix(1 0 0 1 1289 1933)">
   <path d="M2.8418 1.86523L4.54102 3.57422Q5.18555 4.22852 5.90332 4.17969Q6.62109 4.13086 7.31445 3.35938L18.0078-8.42773L17.041-9.4043L6.42578 2.27539Q6.16211 2.57812 5.89355 2.61719Q5.625 2.65625 5.27344 2.30469L4.10156 1.14258Q3.75 0.791016 3.79395 0.522461Q3.83789 0.253906 4.14062-0.0195312L15.6152-10.8203L14.6387-11.7871L3.04688-0.898438Q2.30469-0.214844 2.25098 0.498047Q2.19727 1.21094 2.8418 1.86523ZM9.25781-16.3281Q8.94531-16.0254 8.90625-15.6348Q8.86719-15.2441 9.04297-14.9512Q9.21875-14.6777 9.55566-14.541Q9.89258-14.4043 10.3809-14.5215Q11.4746-14.7754 12.5977-14.7314Q13.7207-14.6875 14.7949-13.9844L14.209-12.5293Q13.9551-11.9043 14.0674-11.4404Q14.1797-10.9766 14.5801-10.5664L16.875-8.25195Q17.2363-7.88086 17.5781-7.82227Q17.9199-7.76367 18.3398-7.8418L19.4043-8.03711L20.0684-7.36328L20.0293-6.80664Q20-6.43555 20.1221-6.12305Q20.2441-5.81055 20.6055-5.44922L21.3672-4.70703Q21.7285-4.3457 22.1533-4.33105Q22.5781-4.31641 22.9297-4.66797L25.8398-7.58789Q26.1914-7.93945 26.1816-8.35449Q26.1719-8.76953 25.8105-9.13086L25.0391-9.89258Q24.6875-10.2539 24.3799-10.3857Q24.0723-10.5176 23.7109-10.4883L23.1348-10.4395L22.4902-11.0742L22.7344-12.1973Q22.832-12.6172 22.6953-12.9834Q22.5586-13.3496 22.1191-13.7891L19.9219-15.9766Q18.6719-17.2168 17.2607-17.8369Q15.8496-18.457 14.4189-18.4814Q12.9883-18.5059 11.665-17.959Q10.3418-17.4121 9.25781-16.3281ZM10.752-15.957Q11.6602-16.6211 12.7002-16.9043Q13.7402-17.1875 14.8047-17.085Q15.8691-16.9824 16.8701-16.5137Q17.8711-16.0449 18.7012-15.2051L21.1328-12.793Q21.3086-12.6172 21.3525-12.4512Q21.3965-12.2852 21.3379-12.0312L21.0156-10.5469L22.5195-9.0625L23.5059-9.12109Q23.6914-9.13086 23.7891-9.09668Q23.8867-9.0625 24.0332-8.91602L24.6094-8.33984L22.168-5.89844L21.5918-6.47461Q21.4453-6.62109 21.4062-6.71875Q21.3672-6.81641 21.377-7.01172L21.4453-7.98828L19.9512-9.47266L18.4277-9.21875Q18.1836-9.16992 18.042-9.2041Q17.9004-9.23828 17.7148-9.41406L15.7129-11.416Q15.5176-11.5918 15.4932-11.7529Q15.4688-11.9141 15.5859-12.1875L16.4648-14.2773Q15.293-15.3711 13.8281-15.791Q12.3633-16.2109 10.8398-15.7617Q10.7227-15.7324 10.6885-15.8057Q10.6543-15.8789 10.752-15.957Z"/>
  </g>
  <text style="stroke:none;fill:black;font-family:sans-serif;font-size:13;font-weight:bold;" transform="matrix(1 0 0 1 1289 1953)">Exporting</text>
  <text style="stroke:none;fill:black;font-family:sans-serif;font-size:13;" transform="matrix(1 0 0 1 1289 1971)">Symbols should be outlined when exporting to ensure the</text>
  <text style="stroke:none;fill:black;font-family:sans-serif;font-size:13;" transform="matrix(1 0 0 1 1289 1989)">design is preserved when submitting to Xcode.</text>
  <text id="template-version" style="stroke:none;fill:black;font-family:sans-serif;font-size:13;text-anchor:end;" transform="matrix(1 0 0 1 3036 1933)">Template v.2.0</text>
  <text style="stroke:none;fill:black;font-family:sans-serif;font-size:13;text-anchor:end;" transform="matrix(1 0 0 1 3036 1951)">Requires Xcode 13 or greater</text>
  <text id="descriptive-name" style="stroke:none;fill:black;font-family:sans-serif;font-size:13;text-anchor:end;" transform="matrix(1 0 0 1 3036 1969)">Generated from backward.fill</text>
  <text style="stroke:none;fill:black;font-family:sans-serif;font-size:13;text-anchor:end;" transform="matrix(1 0 0 1 3036 1987)">Typeset at 100 points</text>
  <text style="stroke:none;fill:black;font-family:sans-serif;font-size:13;" transform="matrix(1 0 0 1 263 726)">Small</text>
  <text style="stroke:none;fill:black;font-family:sans-serif;font-size:13;" transform="matrix(1 0 0 1 263 1156)">Medium</text>
  <text style="stroke:none;fill:black;font-family:sans-serif;font-size:13;" transform="matrix(1 0 0 1 263 1586)">Large</text>
 </g>
 <g id="Guides">
  <g id="H-reference" style="fill:#27AAE1;stroke:none;" transform="matrix(1 0 0 1 339 696)">
   <path d="M0.976562 0L3.66211 0L29.3457-67.1387L30.0293-67.1387L30.0293-70.459L28.125-70.459ZM11.6699-24.4629L46.9727-24.4629L46.2402-26.709L12.4512-26.709ZM55.127 0L57.7637 0L30.6152-70.459L29.4434-70.459L29.4434-67.1387Z"/>
  </g>
  <line id="Baseline-S" style="fill:none;stroke:#27AAE1;opacity:1;stroke-width:0.5;" x1="263" x2="3036" y1="696" y2="696"/>
  <line id="Capline-S" style="fill:none;stroke:#27AAE1;opacity:1;stroke-width:0.5;" x1="263" x2="3036" y1="625.541" y2="625.541"/>
  <g id="H-reference" style="fill:#27AAE1;stroke:none;" transform="matrix(1 0 0 1 339 1126)">
   <path d="M0.976562 0L3.66211 0L29.3457-67.1387L30.0293-67.1387L30.0293-70.459L28.125-70.459ZM11.6699-24.4629L46.9727-24.4629L46.2402-26.709L12.4512-26.709ZM55.127 0L57.7637 0L30.6152-70.459L29.4434-70.459L29.4434-67.1387Z"/>
  </g>
  <line id="Baseline-M" style="fill:none;stroke:#27AAE1;opacity:1;stroke-width:0.5;" x1="263" x2="3036" y1="1126" y2="1126"/>
  <line id="Capline-M" style="fill:none;stroke:#27AAE1;opacity:1;stroke-width:0.5;" x1="263" x2="3036" y1="1055.54" y2="1055.54"/>
  <g id="H-reference" style="fill:#27AAE1;stroke:none;" transform="matrix(1 0 0 1 339 1556)">
   <path d="M0.976562 0L3.66211 0L29.3457-67.1387L30.0293-67.1387L30.0293-70.459L28.125-70.459ZM11.6699-24.4629L46.9727-24.4629L46.2402-26.709L12.4512-26.709ZM55.127 0L57.7637 0L30.6152-70.459L29.4434-70.459L29.4434-67.1387Z"/>
  </g>
  <line id="Baseline-L" style="fill:none;stroke:#27AAE1;opacity:1;stroke-width:0.5;" x1="263" x2="3036" y1="1556" y2="1556"/>
  <line id="Capline-L" style="fill:none;stroke:#27AAE1;opacity:1;stroke-width:0.5;" x1="263" x2="3036" y1="1485.54" y2="1485.54"/>
  <line id="left-margin" style="fill:none;stroke:#00AEEF;stroke-width:0.5;opacity:1.0;" x1="1375.77" x2="1375.77" y1="1030.79" y2="1150.12"/>
  <line id="right-margin" style="fill:none;stroke:#00AEEF;stroke-width:0.5;opacity:1.0;" x1="1523.92" x2="1523.92" y1="1030.79" y2="1150.12"/>
 </g>
 <g id="Symbols">
  <g id="Black-L" transform="matrix(1 0 0 1 2825.76 1556)">
   <path d="M86.8164 18.7012Q92.3828 18.7012 96.46 14.6973Q100.537 10.6934 100.537 3.41797L100.537-75.293Q100.537-82.666 96.5332-86.6455Q92.5293-90.625 86.9141-90.625Q84.2773-90.625 81.8359-89.9902Q79.3945-89.3555 76.9043-87.8906L11.377-49.6582Q6.93359-47.0215 4.27246-43.8721Q1.61133-40.7227 1.61133-36.084Q1.61133-31.3965 4.3457-28.0762Q7.08008-24.7559 11.377-22.2656L76.9043 16.0156Q79.3457 17.4316 81.7871 18.0664Q84.2285 18.7012 86.8164 18.7012ZM185.449 18.7012Q191.016 18.7012 195.093 14.6973Q199.17 10.6934 199.17 3.41797L199.17-75.293Q199.17-82.666 195.166-86.6455Q191.162-90.625 185.547-90.625Q182.91-90.625 180.469-89.9902Q178.027-89.3555 175.488-87.8906L109.961-49.6582Q105.566-47.0215 102.905-43.8721Q100.244-40.7227 100.244-36.084Q100.244-31.3965 102.954-28.0762Q105.664-24.7559 109.961-22.2656L175.488 16.0156Q177.979 17.4316 180.42 18.0664Q182.861 18.7012 185.449 18.7012Z"/>
  </g>
  <g id="Heavy-L" transform="matrix(1 0 0 1 2532.25 1556)">
   <path d="M84.8633 17.4805Q89.9414 17.4805 93.6523 13.8184Q97.3633 10.1562 97.3633 3.41797L97.3633-74.9023Q97.3633-81.7383 93.7012-85.376Q90.0391-89.0137 84.9609-89.0137Q82.5195-89.0137 80.2734-88.3789Q78.0273-87.7441 75.6836-86.4258L10.4004-48.2422Q6.29883-45.8008 3.95508-42.8955Q1.61133-39.9902 1.61133-35.8887Q1.61133-31.6895 4.02832-28.6621Q6.44531-25.6348 10.4004-23.291L75.6836 14.8926Q77.9785 16.2109 80.2246 16.8457Q82.4707 17.4805 84.8633 17.4805ZM180.322 17.4805Q185.4 17.4805 189.087 13.8184Q192.773 10.1562 192.773 3.41797L192.773-74.9023Q192.773-81.7383 189.136-85.376Q185.498-89.0137 180.371-89.0137Q177.979-89.0137 175.732-88.3789Q173.486-87.7441 171.094-86.4258L105.811-48.2422Q101.758-45.8008 99.4141-42.8955Q97.0703-39.9902 97.0703-35.8887Q97.0703-31.6895 99.4629-28.6621Q101.855-25.6348 105.811-23.291L171.094 14.8926Q173.438 16.2109 175.684 16.8457Q177.93 17.4805 180.322 17.4805Z"/>
  </g>
  <g id="Bold-L" transform="matrix(1 0 0 1 2239.1 1556)">
   <path d="M82.7148 16.1133Q87.207 16.1133 90.5029 12.8418Q93.7988 9.57031 93.7988 3.41797L93.7988-74.5117Q93.7988-80.7129 90.5518-83.96Q87.3047-87.207 82.7637-87.207Q80.5664-87.207 78.54-86.5967Q76.5137-85.9863 74.3652-84.7656L9.32617-46.6309Q5.66406-44.4336 3.6377-41.8213Q1.61133-39.209 1.61133-35.6445Q1.61133-32.0312 3.66211-29.3213Q5.71289-26.6113 9.32617-24.4629L74.3652 13.6719Q76.4648 14.8926 78.4912 15.5029Q80.5176 16.1133 82.7148 16.1133ZM174.609 16.1133Q179.102 16.1133 182.397 12.8418Q185.693 9.57031 185.693 3.41797L185.693-74.5117Q185.693-80.7129 182.422-83.96Q179.15-87.207 174.658-87.207Q172.412-87.207 170.386-86.5967Q168.359-85.9863 166.211-84.7656L101.221-46.6309Q97.5098-44.4336 95.5078-41.8213Q93.5059-39.209 93.5059-35.6445Q93.5059-32.0312 95.5566-29.3213Q97.6074-26.6113 101.221-24.4629L166.211 13.6719Q168.359 14.8926 170.386 15.5029Q172.412 16.1133 174.609 16.1133Z"/>
  </g>
  <g id="Semibold-L" transform="matrix(1 0 0 1 1944.85 1556)">
   <path d="M81.2012 15.1855Q85.3027 15.1855 88.3301 12.1582Q91.3574 9.13086 91.3574 3.41797L91.3574-74.2188Q91.3574-79.9805 88.3545-82.9834Q85.3516-85.9863 81.25-85.9863Q79.1992-85.9863 77.3193-85.376Q75.4395-84.7656 73.4375-83.5938L8.59375-45.5078Q5.17578-43.5059 3.39355-41.0889Q1.61133-38.6719 1.61133-35.4492Q1.61133-32.2754 3.41797-29.7607Q5.22461-27.2461 8.59375-25.2441L73.4375 12.8418Q75.4395 13.9648 77.2949 14.5752Q79.1504 15.1855 81.2012 15.1855ZM170.654 15.1855Q174.707 15.1855 177.734 12.1582Q180.762 9.13086 180.762 3.41797L180.762-74.2188Q180.762-79.9805 177.759-82.9834Q174.756-85.9863 170.654-85.9863Q168.604-85.9863 166.724-85.376Q164.844-84.7656 162.842-83.5938L97.998-45.5078Q94.5801-43.5059 92.7979-41.0889Q91.0156-38.6719 91.0156-35.4492Q91.0156-32.2754 92.8223-29.7607Q94.6289-27.2461 97.998-25.2441L162.842 12.8418Q164.844 13.9648 166.699 14.5752Q168.555 15.1855 170.654 15.1855Z"/>
  </g>
  <g id="Medium-L" transform="matrix(1 0 0 1 1650 1556)">
   <path d="M80.0781 14.4531Q83.8867 14.4531 86.6943 11.6211Q89.502 8.78906 89.502 3.41797L89.502-74.0234Q89.502-79.4434 86.7188-82.2266Q83.9355-85.0098 80.127-85.0098Q78.1738-85.0098 76.3916-84.4238Q74.6094-83.8379 72.7539-82.7148L8.00781-44.6777Q4.83398-42.7734 3.22266-40.5029Q1.61133-38.2324 1.61133-35.3027Q1.61133-32.4219 3.22266-30.1025Q4.83398-27.7832 8.00781-25.8789L72.7539 12.1582Q74.6094 13.2812 76.3672 13.8672Q78.125 14.4531 80.0781 14.4531ZM167.627 14.4531Q171.436 14.4531 174.243 11.6211Q177.051 8.78906 177.051 3.41797L177.051-74.0234Q177.051-79.4434 174.268-82.2266Q171.484-85.0098 167.627-85.0098Q165.674-85.0098 163.916-84.4238Q162.158-83.8379 160.254-82.7148L95.6055-44.6777Q92.334-42.7734 90.7471-40.5029Q89.1602-38.2324 89.1602-35.3027Q89.1602-32.4219 90.7959-30.1025Q92.4316-27.7832 95.6055-25.8789L160.254 12.1582Q162.158 13.2812 163.916 13.8672Q165.674 14.4531 167.627 14.4531Z"/>
  </g>
  <g id="Regular-L" transform="matrix(1 0 0 1 1355.73 1556)">
   <path d="M78.6133 13.5254Q82.0312 13.5254 84.5459 10.9619Q87.0605 8.39844 87.0605 3.41797L87.0605-73.7305Q87.0605-78.7109 84.5459-81.25Q82.0312-83.7891 78.6133-83.7891Q76.8066-83.7891 75.1953-83.2031Q73.584-82.6172 71.8262-81.5918L7.27539-43.6035Q4.3457-41.8457 2.97852-39.7705Q1.61133-37.6953 1.61133-35.1562Q1.61133-32.666 2.97852-30.542Q4.3457-28.418 7.27539-26.6602L71.8262 11.3281Q73.584 12.3535 75.1953 12.9395Q76.8066 13.5254 78.6133 13.5254ZM163.721 13.5254Q167.139 13.5254 169.653 10.9619Q172.168 8.39844 172.168 3.41797L172.168-73.7305Q172.168-78.7109 169.653-81.25Q167.139-83.7891 163.721-83.7891Q161.914-83.7891 160.303-83.2031Q158.691-82.6172 156.934-81.5918L92.4316-43.6035Q89.4531-41.8457 88.0859-39.7705Q86.7188-37.6953 86.7188-35.1562Q86.7188-32.666 88.1104-30.542Q89.502-28.418 92.4316-26.6602L156.934 11.3281Q158.691 12.3535 160.303 12.9395Q161.914 13.5254 163.721 13.5254Z"/>
  </g>
  <g id="Light-L" transform="matrix(1 0 0 1 1061.02 1556)">
   <path d="M77.4902 12.4023Q80.4688 12.4023 82.7637 10.1318Q85.0586 7.86133 85.0586 3.32031L85.0586-73.5352Q85.0586-78.125 82.7637-80.3711Q80.4688-82.6172 77.4902-82.6172Q75.8789-82.6172 74.3652-82.0312Q72.8516-81.4453 71.3867-80.6152L6.34766-42.334Q3.95508-40.918 2.7832-39.1602Q1.61133-37.4023 1.61133-35.1562Q1.61133-32.9102 2.80762-31.1035Q4.00391-29.2969 6.34766-27.8809L71.3867 10.4004Q72.8516 11.2305 74.3652 11.8164Q75.8789 12.4023 77.4902 12.4023ZM160.596 12.4023Q163.574 12.4023 165.869 10.1318Q168.164 7.86133 168.164 3.32031L168.164-73.5352Q168.164-78.125 165.869-80.3711Q163.574-82.6172 160.596-82.6172Q158.984-82.6172 157.495-82.0312Q156.006-81.4453 154.492-80.6152L89.502-42.334Q87.0605-40.918 85.8887-39.1602Q84.7168-37.4023 84.7168-35.1562Q84.7168-32.9102 85.9131-31.1035Q87.1094-29.2969 89.502-27.8809L154.492 10.4004Q155.957 11.2305 157.471 11.8164Q158.984 12.4023 160.596 12.4023Z"/>
  </g>
  <g id="Thin-L" transform="matrix(1 0 0 1 766.945 1556)">
   <path d="M75.9766 10.8887Q78.4668 10.8887 80.4443 9.00879Q82.4219 7.12891 82.4219 3.125L82.4219-73.291Q82.4219-77.2949 80.4443-79.1748Q78.4668-81.0547 75.9766-81.0547Q74.6582-81.0547 73.291-80.4932Q71.9238-79.9316 70.752-79.248L5.12695-40.6738Q3.4668-39.6484 2.53906-38.3301Q1.61133-37.0117 1.61133-35.1074Q1.61133-33.252 2.56348-31.8359Q3.51562-30.4199 5.12695-29.4922L70.752 9.13086Q71.875 9.76562 73.2666 10.3271Q74.6582 10.8887 75.9766 10.8887ZM156.494 10.8887Q158.936 10.8887 160.913 9.00879Q162.891 7.12891 162.891 3.125L162.891-73.291Q162.891-77.2949 160.913-79.1748Q158.936-81.0547 156.494-81.0547Q155.127-81.0547 153.76-80.4932Q152.393-79.9316 151.221-79.248L85.6445-40.6738Q83.9355-39.6484 83.0078-38.3301Q82.0801-37.0117 82.0801-35.1074Q82.0801-33.252 83.0322-31.8359Q83.9844-30.4199 85.6445-29.4922L151.221 9.13086Q152.344 9.76562 153.735 10.3271Q155.127 10.8887 156.494 10.8887Z"/>
  </g>
  <g id="Ultralight-L" transform="matrix(1 0 0 1 471.601 1556)">
   <path d="M75.1953 10.1074Q77.3926 10.1074 79.2236 8.44727Q81.0547 6.78711 81.0547 3.07617L81.0547-73.1934Q81.0547-76.9043 79.2236-78.5645Q77.3926-80.2246 75.1953-80.2246Q74.0234-80.2246 72.7295-79.6875Q71.4355-79.1504 70.459-78.6133L4.49219-39.8438Q3.22266-39.0137 2.41699-37.915Q1.61133-36.8164 1.61133-35.1074Q1.61133-33.3984 2.44141-32.2021Q3.27148-31.0059 4.49219-30.2734L70.459 8.49609Q71.3867 9.0332 72.7051 9.57031Q74.0234 10.1074 75.1953 10.1074ZM154.346 10.1074Q156.494 10.1074 158.325 8.44727Q160.156 6.78711 160.156 3.07617L160.156-73.1934Q160.156-76.9043 158.325-78.5645Q156.494-80.2246 154.346-80.2246Q153.174-80.2246 151.88-79.6875Q150.586-79.1504 149.561-78.6133L83.6914-39.8438Q82.3242-39.0137 81.5186-37.915Q80.7129-36.8164 80.7129-35.1074Q80.7129-33.3984 81.543-32.2021Q82.373-31.0059 83.6914-30.2734L149.561 8.49609Q150.537 9.0332 151.855 9.57031Q153.174 10.1074 154.346 10.1074Z"/>
  </g>
  <g id="Black-M" transform="matrix(1 0 0 1 2847.93 1126)">
   <path d="M68.5547 7.27539Q73.1934 7.27539 76.5869 3.95508Q79.9805 0.634766 79.9805-5.32227L79.9805-66.5527Q79.9805-72.5586 76.6357-75.8545Q73.291-79.1504 68.6523-79.1504Q66.5039-79.1504 64.4775-78.6377Q62.4512-78.125 60.4492-76.9531L9.32617-47.168Q5.76172-45.1172 3.51562-42.5537Q1.26953-39.9902 1.26953-36.0352Q1.26953-32.0801 3.58887-29.3701Q5.9082-26.6602 9.32617-24.707L60.4492 5.07812Q62.4512 6.25 64.4531 6.7627Q66.4551 7.27539 68.5547 7.27539ZM147.021 7.27539Q151.66 7.27539 155.054 3.95508Q158.447 0.634766 158.447-5.32227L158.447-66.5527Q158.447-72.5586 155.127-75.8545Q151.807-79.1504 147.168-79.1504Q145.02-79.1504 142.993-78.6377Q140.967-78.125 138.916-76.9531L87.793-47.168Q84.2285-45.1172 81.9824-42.5537Q79.7363-39.9902 79.7363-36.0352Q79.7363-32.0801 82.0557-29.3701Q84.375-26.6602 87.793-24.707L138.916 5.07812Q140.918 6.25 142.92 6.7627Q144.922 7.27539 147.021 7.27539Z"/>
  </g>
  <g id="Heavy-M" transform="matrix(1 0 0 1 2553.9 1126)">
   <path d="M66.8945 6.29883Q71.1426 6.29883 74.2188 3.27148Q77.2949 0.244141 77.2949-5.27344L77.2949-66.2109Q77.2949-71.7773 74.2432-74.8047Q71.1914-77.832 66.9922-77.832Q64.9902-77.832 63.1348-77.3193Q61.2793-76.8066 59.375-75.7324L8.59375-46.0449Q5.22461-44.1406 3.24707-41.748Q1.26953-39.3555 1.26953-35.8398Q1.26953-32.3242 3.32031-29.8096Q5.37109-27.2949 8.59375-25.4883L59.375 4.19922Q61.2793 5.32227 63.1104 5.81055Q64.9414 6.29883 66.8945 6.29883ZM142.676 6.29883Q146.924 6.29883 150 3.27148Q153.076 0.244141 153.076-5.27344L153.076-66.2109Q153.076-71.7773 150.049-74.8047Q147.021-77.832 142.822-77.832Q140.82-77.832 138.965-77.3193Q137.109-76.8066 135.156-75.7324L84.375-46.0449Q81.0547-44.1406 79.0527-41.748Q77.0508-39.3555 77.0508-35.8398Q77.0508-32.3242 79.1016-29.8096Q81.1523-27.2949 84.375-25.4883L135.156 4.19922Q137.061 5.32227 138.892 5.81055Q140.723 6.29883 142.676 6.29883Z"/>
  </g>
  <g id="Bold-M" transform="matrix(1 0 0 1 2260.19 1126)">
   <path d="M65.0879 5.22461Q68.8477 5.22461 71.582 2.49023Q74.3164-0.244141 74.3164-5.27344L74.3164-65.8691Q74.3164-70.8984 71.6064-73.6328Q68.8965-76.3672 65.1367-76.3672Q63.2812-76.3672 61.6211-75.8789Q59.9609-75.3906 58.2031-74.3652L7.76367-44.8242Q4.6875-43.0176 2.97852-40.8447Q1.26953-38.6719 1.26953-35.6445Q1.26953-32.6172 3.02734-30.3467Q4.78516-28.0762 7.76367-26.3184L58.2031 3.22266Q59.9609 4.24805 61.6211 4.73633Q63.2812 5.22461 65.0879 5.22461ZM137.842 5.22461Q141.602 5.22461 144.336 2.49023Q147.07-0.244141 147.07-5.27344L147.07-65.8691Q147.07-70.8984 144.385-73.6328Q141.699-76.3672 137.939-76.3672Q136.084-76.3672 134.424-75.8789Q132.764-75.3906 131.006-74.3652L80.5664-44.8242Q77.4902-43.0176 75.7812-40.8447Q74.0723-38.6719 74.0723-35.6445Q74.0723-32.6172 75.8057-30.3467Q77.5391-28.0762 80.5664-26.3184L131.006 3.22266Q132.715 4.24805 134.375 4.73633Q136.035 5.22461 137.842 5.22461Z"/>
  </g>
  <g id="Semibold-M" transform="matrix(1 0 0 1 1965.56 1126)">
   <path d="M63.7695 4.49219Q67.2363 4.49219 69.7266 1.95312Q72.2168-0.585938 72.2168-5.22461L72.2168-65.625Q72.2168-70.3125 69.751-72.8271Q67.2852-75.3418 63.8184-75.3418Q62.1094-75.3418 60.5713-74.8535Q59.0332-74.3652 57.373-73.3887L7.17773-43.9453Q4.24805-42.2363 2.75879-40.1855Q1.26953-38.1348 1.26953-35.4492Q1.26953-32.7637 2.80762-30.6641Q4.3457-28.5645 7.17773-26.9043L57.373 2.53906Q59.0332 3.51562 60.5713 4.00391Q62.1094 4.49219 63.7695 4.49219ZM134.521 4.49219Q137.939 4.49219 140.43 1.95312Q142.92-0.585938 142.92-5.22461L142.92-65.625Q142.92-70.3125 140.454-72.8271Q137.988-75.3418 134.57-75.3418Q132.812-75.3418 131.299-74.8535Q129.785-74.3652 128.076-73.3887L77.8809-43.9453Q75-42.2363 73.4863-40.1855Q71.9727-38.1348 71.9727-35.4492Q71.9727-32.7637 73.5107-30.6641Q75.0488-28.5645 77.8809-26.9043L128.076 2.53906Q129.736 3.51562 131.274 4.00391Q132.812 4.49219 134.521 4.49219Z"/>
  </g>
  <g id="Medium-M" transform="matrix(1 0 0 1 1670.43 1126)">
   <path d="M62.8418 3.90625Q66.0156 3.90625 68.335 1.53809Q70.6543-0.830078 70.6543-5.22461L70.6543-65.4297Q70.6543-69.8242 68.3594-72.1924Q66.0645-74.5605 62.8418-74.5605Q61.2305-74.5605 59.79-74.0723Q58.3496-73.584 56.7871-72.6562L6.78711-43.2617Q3.95508-41.6504 2.6123-39.7217Q1.26953-37.793 1.26953-35.3516Q1.26953-32.9102 2.63672-30.9326Q4.00391-28.9551 6.78711-27.3438L56.7871 2.05078Q58.3496 2.97852 59.79 3.44238Q61.2305 3.90625 62.8418 3.90625ZM131.982 3.90625Q135.156 3.90625 137.476 1.53809Q139.795-0.830078 139.795-5.22461L139.795-65.4297Q139.795-69.8242 137.5-72.1924Q135.205-74.5605 131.982-74.5605Q130.371-74.5605 128.931-74.0723Q127.49-73.584 125.879-72.6562L75.8789-43.2617Q73.1445-41.6504 71.7773-39.7217Q70.4102-37.793 70.4102-35.3516Q70.4102-32.9102 71.7773-30.9326Q73.1445-28.9551 75.8789-27.3438L125.879 2.05078Q127.441 2.97852 128.906 3.44238Q130.371 3.90625 131.982 3.90625Z"/>
  </g>
  <g id="Regular-M" transform="matrix(1 0 0 1 1375.77 1126)">
   <path d="M61.5723 3.17383Q64.4531 3.17383 66.5283 1.02539Q68.6035-1.12305 68.6035-5.17578L68.6035-65.1855Q68.6035-69.2383 66.5283-71.3867Q64.4531-73.5352 61.5723-73.5352Q60.0586-73.5352 58.7402-73.0713Q57.4219-72.6074 55.957-71.7285L6.20117-42.4316Q3.56445-40.918 2.41699-39.1113Q1.26953-37.3047 1.26953-35.2051Q1.26953-33.1055 2.44141-31.2744Q3.61328-29.4434 6.20117-27.9297L55.957 1.36719Q57.4219 2.24609 58.7402 2.70996Q60.0586 3.17383 61.5723 3.17383ZM128.662 3.17383Q131.543 3.17383 133.618 1.02539Q135.693-1.12305 135.693-5.17578L135.693-65.1855Q135.693-69.2383 133.618-71.3867Q131.543-73.5352 128.662-73.5352Q127.148-73.5352 125.854-73.0713Q124.561-72.6074 123.047-71.7285L73.291-42.4316Q70.7031-40.918 69.5312-39.1113Q68.3594-37.3047 68.3594-35.2051Q68.3594-33.1055 69.5312-31.2744Q70.7031-29.4434 73.291-27.9297L123.047 1.36719Q124.512 2.24609 125.83 2.70996Q127.148 3.17383 128.662 3.17383Z"/>
  </g>
  <g id="Light-M" transform="matrix(1 0 0 1 1080.84 1126)">
   <path d="M60.5469 2.14844Q63.0371 2.14844 64.917 0.268555Q66.7969-1.61133 66.7969-5.27344L66.7969-65.0391Q66.7969-68.7012 64.917-70.5811Q63.0371-72.4609 60.5469-72.4609Q59.2285-72.4609 58.0078-72.0215Q56.7871-71.582 55.5176-70.8496L5.37109-41.3086Q3.22266-40.0879 2.24609-38.5742Q1.26953-37.0605 1.26953-35.1562Q1.26953-33.3008 2.27051-31.7627Q3.27148-30.2246 5.37109-29.0039L55.5176 0.537109Q56.7871 1.26953 58.0078 1.70898Q59.2285 2.14844 60.5469 2.14844ZM125.879 2.14844Q128.369 2.14844 130.249 0.268555Q132.129-1.61133 132.129-5.27344L132.129-65.0391Q132.129-68.7012 130.249-70.5811Q128.369-72.4609 125.879-72.4609Q124.512-72.4609 123.315-72.0215Q122.119-71.582 120.85-70.8496L70.6543-41.3086Q68.5547-40.0879 67.5537-38.5742Q66.5527-37.0605 66.5527-35.1562Q66.5527-33.3008 67.5781-31.7627Q68.6035-30.2246 70.6543-29.0039L120.85 0.537109Q122.07 1.26953 123.291 1.70898Q124.512 2.14844 125.879 2.14844Z"/>
  </g>
  <g id="Thin-M" transform="matrix(1 0 0 1 786.5 1126)">
   <path d="M59.2285 0.830078Q61.2305 0.830078 62.8418-0.708008Q64.4531-2.24609 64.4531-5.46875L64.4531-64.7949Q64.4531-68.0176 62.8418-69.5557Q61.2305-71.0938 59.2285-71.0938Q58.1055-71.0938 57.0312-70.6543Q55.957-70.2148 54.9805-69.6777L4.24805-39.8438Q2.7832-38.9648 2.02637-37.8418Q1.26953-36.7188 1.26953-35.1562Q1.26953-33.5938 2.05078-32.4219Q2.83203-31.25 4.24805-30.4199L54.9805-0.585938Q55.9082-0.0488281 57.0068 0.390625Q58.1055 0.830078 59.2285 0.830078ZM122.168 0.830078Q124.17 0.830078 125.757-0.708008Q127.344-2.24609 127.344-5.46875L127.344-64.7949Q127.344-68.0176 125.757-69.5557Q124.17-71.0938 122.168-71.0938Q121.045-71.0938 119.971-70.6543Q118.896-70.2148 117.92-69.6777L67.1875-39.8438Q65.7227-38.9648 64.9414-37.8418Q64.1602-36.7188 64.1602-35.1562Q64.1602-33.5938 64.9658-32.4219Q65.7715-31.25 67.1875-30.4199L117.92-0.585938Q118.848-0.0488281 119.946 0.390625Q121.045 0.830078 122.168 0.830078Z"/>
  </g>
  <g id="Ultralight-M" transform="matrix(1 0 0 1 490.986 1126)">
   <path d="M58.5449 0.146484Q60.2539 0.146484 61.7432-1.2207Q63.2324-2.58789 63.2324-5.51758L63.2324-64.6973Q63.2324-67.627 61.7432-68.9941Q60.2539-70.3613 58.5449-70.3613Q57.5684-70.3613 56.543-69.9463Q55.5176-69.5312 54.6875-69.043L3.71094-39.0625Q2.58789-38.3789 1.92871-37.4512Q1.26953-36.5234 1.26953-35.1074Q1.26953-33.7402 1.95312-32.7637Q2.63672-31.7871 3.71094-31.1523L54.6875-1.17188Q55.4688-0.683594 56.5186-0.268555Q57.5684 0.146484 58.5449 0.146484ZM120.264 0.146484Q122.021 0.146484 123.486-1.2207Q124.951-2.58789 124.951-5.51758L124.951-64.6973Q124.951-67.627 123.486-68.9941Q122.021-70.3613 120.264-70.3613Q119.287-70.3613 118.262-69.9463Q117.236-69.5312 116.406-69.043L65.4297-39.0625Q64.3066-38.3789 63.623-37.4512Q62.9395-36.5234 62.9395-35.1074Q62.9395-33.7402 63.6475-32.7637Q64.3555-31.7871 65.4297-31.1523L116.406-1.17188Q117.188-0.683594 118.237-0.268555Q119.287 0.146484 120.264 0.146484Z"/>
  </g>
  <g id="Black-S" transform="matrix(1 0 0 1 2865.72 696)">
   <path d="M54.1504-1.70898Q57.9102-1.70898 60.6445-4.37012Q63.3789-7.03125 63.3789-11.8164L63.3789-59.8633Q63.3789-64.6973 60.6934-67.334Q58.0078-69.9707 54.248-69.9707Q52.5391-69.9707 50.9033-69.5801Q49.2676-69.1895 47.6562-68.2617L7.4707-44.873Q4.63867-43.2129 2.80762-41.1865Q0.976562-39.1602 0.976562-35.9375Q0.976562-32.7148 2.88086-30.542Q4.78516-28.3691 7.4707-26.8066L47.6562-3.41797Q49.2188-2.49023 50.8545-2.09961Q52.4902-1.70898 54.1504-1.70898ZM116.357-1.70898Q120.117-1.70898 122.852-4.37012Q125.586-7.03125 125.586-11.8164L125.586-59.8633Q125.586-64.6973 122.9-67.334Q120.215-69.9707 116.455-69.9707Q114.746-69.9707 113.11-69.5801Q111.475-69.1895 109.863-68.2617L69.6777-44.873Q66.8457-43.2129 65.0146-41.1865Q63.1836-39.1602 63.1836-35.9375Q63.1836-32.7148 65.0879-30.542Q66.9922-28.3691 69.6777-26.8066L109.863-3.41797Q111.426-2.49023 113.062-2.09961Q114.697-1.70898 116.357-1.70898Z"/>
  </g>
  <g id="Heavy-S" transform="matrix(1 0 0 1 2571.09 696)">
   <path d="M52.8809-2.39258Q56.2988-2.39258 58.8135-4.8584Q61.3281-7.32422 61.3281-11.7676L61.3281-59.6191Q61.3281-64.1113 58.8623-66.5527Q56.3965-68.9941 52.9297-68.9941Q51.3184-68.9941 49.8291-68.6035Q48.3398-68.2129 46.8262-67.334L6.93359-44.043Q4.24805-42.4805 2.6123-40.5518Q0.976562-38.623 0.976562-35.7422Q0.976562-32.9102 2.66113-30.8594Q4.3457-28.8086 6.93359-27.2949L46.8262-4.05273Q48.291-3.17383 49.8047-2.7832Q51.3184-2.39258 52.8809-2.39258ZM112.988-2.39258Q116.455-2.39258 118.945-4.8584Q121.436-7.32422 121.436-11.7676L121.436-59.6191Q121.436-64.1113 118.97-66.5527Q116.504-68.9941 113.086-68.9941Q111.475-68.9941 109.961-68.6035Q108.447-68.2129 106.934-67.334L67.0898-44.043Q64.3555-42.4805 62.7441-40.5518Q61.1328-38.623 61.1328-35.7422Q61.1328-32.9102 62.8174-30.8594Q64.502-28.8086 67.0898-27.2949L106.934-4.05273Q108.447-3.17383 109.937-2.7832Q111.426-2.39258 112.988-2.39258Z"/>
  </g>
  <g id="Bold-S" transform="matrix(1 0 0 1 2276.67 696)">
   <path d="M51.4648-3.17383Q54.541-3.17383 56.7627-5.41992Q58.9844-7.66602 58.9844-11.7188L58.9844-59.3262Q58.9844-63.4277 56.7871-65.6494Q54.5898-67.8711 51.5137-67.8711Q50-67.8711 48.6572-67.4805Q47.3145-67.0898 45.8496-66.2598L6.34766-43.1641Q3.80859-41.6504 2.39258-39.8682Q0.976562-38.0859 0.976562-35.5957Q0.976562-33.1055 2.44141-31.2256Q3.90625-29.3457 6.34766-27.8809L45.8496-4.78516Q47.2656-3.95508 48.6328-3.56445Q50-3.17383 51.4648-3.17383ZM109.277-3.17383Q112.354-3.17383 114.6-5.41992Q116.846-7.66602 116.846-11.7188L116.846-59.3262Q116.846-63.4277 114.624-65.6494Q112.402-67.8711 109.326-67.8711Q107.812-67.8711 106.47-67.4805Q105.127-67.0898 103.662-66.2598L64.209-43.1641Q61.6211-41.6504 60.2051-39.8682Q58.7891-38.0859 58.7891-35.5957Q58.7891-33.1055 60.2539-31.2256Q61.7188-29.3457 64.209-27.8809L103.662-4.78516Q105.078-3.95508 106.445-3.56445Q107.812-3.17383 109.277-3.17383Z"/>
  </g>
  <g id="Semibold-S" transform="matrix(1 0 0 1 1981.57 696)">
   <path d="M50.4395-3.71094Q53.3203-3.71094 55.3467-5.78613Q57.373-7.86133 57.373-11.6699L57.373-59.082Q57.373-62.9883 55.3711-65.0391Q53.3691-67.0898 50.4883-67.0898Q49.0723-67.0898 47.8271-66.6992Q46.582-66.3086 45.2148-65.5273L5.95703-42.5293Q3.51562-41.0645 2.24609-39.3555Q0.976562-37.6465 0.976562-35.4492Q0.976562-33.2031 2.27051-31.4453Q3.56445-29.6875 5.95703-28.2715L45.2148-5.27344Q46.5332-4.44336 47.8027-4.07715Q49.0723-3.71094 50.4395-3.71094ZM106.689-3.71094Q109.521-3.71094 111.572-5.78613Q113.623-7.86133 113.623-11.6699L113.623-59.082Q113.623-62.9883 111.597-65.0391Q109.57-67.0898 106.689-67.0898Q105.273-67.0898 104.028-66.6992Q102.783-66.3086 101.416-65.5273L62.207-42.5293Q59.7168-41.0645 58.4473-39.3555Q57.1777-37.6465 57.1777-35.4492Q57.1777-33.2031 58.4717-31.4453Q59.7656-29.6875 62.207-28.2715L101.416-5.27344Q102.783-4.44336 104.028-4.07715Q105.273-3.71094 106.689-3.71094Z"/>
  </g>
  <g id="Medium-S" transform="matrix(1 0 0 1 1686.06 696)">
   <path d="M49.707-4.10156Q52.3926-4.10156 54.2725-6.0791Q56.1523-8.05664 56.1523-11.6699L56.1523-58.9355Q56.1523-62.5977 54.2725-64.5508Q52.3926-66.5039 49.707-66.5039Q48.3887-66.5039 47.2168-66.1133Q46.0449-65.7227 44.6777-64.9902L5.61523-42.041Q3.27148-40.6738 2.12402-39.0137Q0.976562-37.3535 0.976562-35.3516Q0.976562-33.3008 2.14844-31.6406Q3.32031-29.9805 5.61523-28.5645L44.6777-5.66406Q45.9961-4.83398 47.1924-4.46777Q48.3887-4.10156 49.707-4.10156ZM104.688-4.10156Q107.373-4.10156 109.302-6.0791Q111.23-8.05664 111.23-11.6699L111.23-58.9355Q111.23-62.5977 109.326-64.5508Q107.422-66.5039 104.736-66.5039Q103.369-66.5039 102.197-66.1133Q101.025-65.7227 99.707-64.9902L60.6445-42.041Q58.3008-40.6738 57.1289-39.0137Q55.957-37.3535 55.957-35.3516Q55.957-33.3008 57.1289-31.6406Q58.3008-29.9805 60.6445-28.5645L99.707-5.66406Q101.025-4.83398 102.197-4.46777Q103.369-4.10156 104.688-4.10156Z"/>
  </g>
  <g id="Regular-S" transform="matrix(1 0 0 1 1390.93 696)">
   <path d="M48.7305-4.63867Q51.1719-4.63867 52.8809-6.44531Q54.5898-8.25195 54.5898-11.6211L54.5898-58.7402Q54.5898-62.1582 52.8809-63.9648Q51.1719-65.7715 48.7305-65.7715Q47.4609-65.7715 46.3867-65.3809Q45.3125-64.9902 44.043-64.2578L5.22461-41.4062Q2.97852-40.0879 1.97754-38.5254Q0.976562-36.9629 0.976562-35.2051Q0.976562-33.4473 1.97754-31.8848Q2.97852-30.3223 5.22461-28.9551L44.043-6.15234Q45.3125-5.37109 46.3867-5.00488Q47.4609-4.63867 48.7305-4.63867ZM102.148-4.63867Q104.59-4.63867 106.323-6.44531Q108.057-8.25195 108.057-11.6211L108.057-58.7402Q108.057-62.1582 106.323-63.9648Q104.59-65.7715 102.148-65.7715Q100.879-65.7715 99.8047-65.3809Q98.7305-64.9902 97.4609-64.2578L58.6914-41.4062Q56.3965-40.0879 55.3955-38.5254Q54.3945-36.9629 54.3945-35.2051Q54.3945-33.4473 55.3955-31.8848Q56.3965-30.3223 58.6914-28.9551L97.4609-6.15234Q98.7305-5.37109 99.8047-5.00488Q100.879-4.63867 102.148-4.63867Z"/>
  </g>
  <g id="Light-S" transform="matrix(1 0 0 1 1095.81 696)">
   <path d="M47.8516-5.51758Q49.9512-5.51758 51.4893-7.10449Q53.0273-8.69141 53.0273-11.7188L53.0273-58.5938Q53.0273-61.6699 51.4893-63.2568Q49.9512-64.8438 47.8516-64.8438Q46.7285-64.8438 45.752-64.4531Q44.7754-64.0625 43.6523-63.4766L4.49219-40.4297Q2.68555-39.3555 1.83105-38.0371Q0.976562-36.7188 0.976562-35.2051Q0.976562-33.6426 1.83105-32.3242Q2.68555-31.0059 4.49219-29.9316L43.6523-6.88477Q44.7266-6.25 45.7275-5.88379Q46.7285-5.51758 47.8516-5.51758ZM99.6582-5.51758Q101.758-5.51758 103.32-7.10449Q104.883-8.69141 104.883-11.7188L104.883-58.5938Q104.883-61.6699 103.32-63.2568Q101.758-64.8438 99.6582-64.8438Q98.584-64.8438 97.583-64.4531Q96.582-64.0625 95.5078-63.4766L56.3965-40.4297Q54.541-39.3555 53.6865-38.0371Q52.832-36.7188 52.832-35.2051Q52.832-33.6426 53.6865-32.3242Q54.541-31.0059 56.3965-29.9316L95.5078-6.88477Q96.582-6.25 97.583-5.88379Q98.584-5.51758 99.6582-5.51758Z"/>
  </g>
  <g id="Thin-S" transform="matrix(1 0 0 1 801.198 696)">
   <path d="M46.6797-6.68945Q48.3398-6.68945 49.6338-7.9834Q50.9277-9.27734 50.9277-11.8652L50.9277-58.4473Q50.9277-61.0352 49.6338-62.3047Q48.3398-63.5742 46.6797-63.5742Q45.752-63.5742 44.873-63.2324Q43.9941-62.8906 43.1641-62.4512L3.51562-39.1113Q2.29492-38.3789 1.63574-37.4023Q0.976562-36.4258 0.976562-35.1562Q0.976562-33.8867 1.63574-32.8857Q2.29492-31.8848 3.51562-31.1523L43.1641-7.86133Q43.9941-7.42188 44.873-7.05566Q45.752-6.68945 46.6797-6.68945ZM96.3867-6.68945Q98.0469-6.68945 99.3652-7.9834Q100.684-9.27734 100.684-11.8652L100.684-58.4473Q100.684-61.0352 99.3652-62.3047Q98.0469-63.5742 96.3867-63.5742Q95.5078-63.5742 94.6289-63.2324Q93.75-62.8906 92.9199-62.4512L53.3203-39.1113Q52.0508-38.3789 51.3916-37.4023Q50.7324-36.4258 50.7324-35.1562Q50.7324-33.8867 51.3916-32.8857Q52.0508-31.8848 53.3203-31.1523L92.9199-7.86133Q93.75-7.42188 94.6289-7.05566Q95.5078-6.68945 96.3867-6.68945Z"/>
  </g>
  <g id="Ultralight-S" transform="matrix(1 0 0 1 505.561 696)">
   <path d="M46.0449-7.32422Q47.5098-7.32422 48.6816-8.44727Q49.8535-9.57031 49.8535-11.9629L49.8535-58.3496Q49.8535-60.6934 48.6816-61.8164Q47.5098-62.9395 46.0449-62.9395Q45.2148-62.9395 44.4336-62.5977Q43.6523-62.2559 42.9199-61.9141L3.02734-38.4766Q2.05078-37.8418 1.51367-37.0605Q0.976562-36.2793 0.976562-35.1562Q0.976562-34.0332 1.53809-33.2031Q2.09961-32.373 3.02734-31.8359L42.9199-8.39844Q43.6035-8.00781 44.4092-7.66602Q45.2148-7.32422 46.0449-7.32422ZM94.6777-7.32422Q96.1426-7.32422 97.3389-8.44727Q98.5352-9.57031 98.5352-11.9629L98.5352-58.3496Q98.5352-60.6934 97.3389-61.8164Q96.1426-62.9395 94.6777-62.9395Q93.9453-62.9395 93.1152-62.5977Q92.2852-62.2559 91.6016-61.9141L51.7578-38.4766Q50.7812-37.8418 50.2197-37.0605Q49.6582-36.2793 49.6582-35.1562Q49.6582-34.0332 50.2197-33.2031Q50.7812-32.373 51.7578-31.8359L91.6016-8.39844Q92.2852-8.00781 93.1152-7.66602Q93.9453-7.32422 94.6777-7.32422Z"/>
  </g>
 </g>
</svg>
