<?xml version="1.0" encoding="UTF-8"?>
<!--Generator: Apple Native CoreSVG 149-->
<!DOCTYPE svg
PUBLIC "-//W3C//DTD SVG 1.1//EN"
       "http://www.w3.org/Graphics/SVG/1.1/DTD/svg11.dtd">
<svg version="1.1" xmlns="http://www.w3.org/2000/svg" xmlns:xlink="http://www.w3.org/1999/xlink" width="3300" height="2200">
 <!--glyph: "uni100E83.medium", point size: 100.0, font version: "17.0d9e1", template writer version: "59"-->
 <g id="Notes">
  <rect height="2200" id="artboard" style="fill:white;opacity:1" width="3300" x="0" y="0"/>
  <line style="fill:none;stroke:black;opacity:1;stroke-width:0.5;" x1="263" x2="3036" y1="292" y2="292"/>
  <text style="stroke:none;fill:black;font-family:sans-serif;font-size:13;font-weight:bold;" transform="matrix(1 0 0 1 263 322)">Weight/Scale Variations</text>
  <text style="stroke:none;fill:black;font-family:sans-serif;font-size:13;text-anchor:middle;" transform="matrix(1 0 0 1 559.711 322)">Ultralight</text>
  <text style="stroke:none;fill:black;font-family:sans-serif;font-size:13;text-anchor:middle;" transform="matrix(1 0 0 1 856.422 322)">Thin</text>
  <text style="stroke:none;fill:black;font-family:sans-serif;font-size:13;text-anchor:middle;" transform="matrix(1 0 0 1 1153.13 322)">Light</text>
  <text style="stroke:none;fill:black;font-family:sans-serif;font-size:13;text-anchor:middle;" transform="matrix(1 0 0 1 1449.84 322)">Regular</text>
  <text style="stroke:none;fill:black;font-family:sans-serif;font-size:13;text-anchor:middle;" transform="matrix(1 0 0 1 1746.56 322)">Medium</text>
  <text style="stroke:none;fill:black;font-family:sans-serif;font-size:13;text-anchor:middle;" transform="matrix(1 0 0 1 2043.27 322)">Semibold</text>
  <text style="stroke:none;fill:black;font-family:sans-serif;font-size:13;text-anchor:middle;" transform="matrix(1 0 0 1 2339.98 322)">Bold</text>
  <text style="stroke:none;fill:black;font-family:sans-serif;font-size:13;text-anchor:middle;" transform="matrix(1 0 0 1 2636.69 322)">Heavy</text>
  <text style="stroke:none;fill:black;font-family:sans-serif;font-size:13;text-anchor:middle;" transform="matrix(1 0 0 1 2933.4 322)">Black</text>
  <line style="fill:none;stroke:black;opacity:1;stroke-width:0.5;" x1="263" x2="3036" y1="1903" y2="1903"/>
  <g transform="matrix(1 0 0 1 263 1933)">
   <path d="M9.24805 0.830078Q10.8691 0.830078 12.2949 0.214844Q13.7207-0.400391 14.8096-1.49414Q15.8984-2.58789 16.5186-4.01367Q17.1387-5.43945 17.1387-7.05078Q17.1387-8.66211 16.5186-10.0879Q15.8984-11.5137 14.8047-12.6074Q13.7109-13.7012 12.2852-14.3164Q10.8594-14.9316 9.23828-14.9316Q7.62695-14.9316 6.20117-14.3164Q4.77539-13.7012 3.69141-12.6074Q2.60742-11.5137 1.9873-10.0879Q1.36719-8.66211 1.36719-7.05078Q1.36719-5.43945 1.9873-4.01367Q2.60742-2.58789 3.69629-1.49414Q4.78516-0.400391 6.21094 0.214844Q7.63672 0.830078 9.24805 0.830078ZM9.24805-0.654297Q7.91992-0.654297 6.7627-1.14746Q5.60547-1.64062 4.73145-2.51953Q3.85742-3.39844 3.36426-4.56055Q2.87109-5.72266 2.87109-7.05078Q2.87109-8.37891 3.35938-9.54102Q3.84766-10.7031 4.72168-11.582Q5.5957-12.4609 6.75293-12.9541Q7.91016-13.4473 9.23828-13.4473Q10.5762-13.4473 11.7334-12.9541Q12.8906-12.4609 13.7695-11.582Q14.6484-10.7031 15.1465-9.54102Q15.6445-8.37891 15.6445-7.05078Q15.6445-5.72266 15.1514-4.56055Q14.6582-3.39844 13.7842-2.51953Q12.9102-1.64062 11.748-1.14746Q10.5859-0.654297 9.24805-0.654297ZM5.83984-7.04102Q5.83984-6.71875 6.04492-6.51855Q6.25-6.31836 6.5918-6.31836L8.50586-6.31836L8.50586-4.39453Q8.50586-4.0625 8.70605-3.85742Q8.90625-3.65234 9.22852-3.65234Q9.56055-3.65234 9.76562-3.85742Q9.9707-4.0625 9.9707-4.39453L9.9707-6.31836L11.8945-6.31836Q12.2266-6.31836 12.4316-6.51855Q12.6367-6.71875 12.6367-7.04102Q12.6367-7.37305 12.4316-7.57812Q12.2266-7.7832 11.8945-7.7832L9.9707-7.7832L9.9707-9.69727Q9.9707-10.0391 9.76562-10.2441Q9.56055-10.4492 9.22852-10.4492Q8.90625-10.4492 8.70605-10.2441Q8.50586-10.0391 8.50586-9.69727L8.50586-7.7832L6.5918-7.7832Q6.25-7.7832 6.04492-7.57812Q5.83984-7.37305 5.83984-7.04102Z"/>
  </g>
  <g transform="matrix(1 0 0 1 281.867 1933)">
   <path d="M11.709 2.91016Q13.75 2.91016 15.5518 2.12891Q17.3535 1.34766 18.7305-0.0292969Q20.1074-1.40625 20.8887-3.20801Q21.6699-5.00977 21.6699-7.05078Q21.6699-9.0918 20.8887-10.8936Q20.1074-12.6953 18.7305-14.0723Q17.3535-15.4492 15.5469-16.2305Q13.7402-17.0117 11.6992-17.0117Q9.6582-17.0117 7.85645-16.2305Q6.05469-15.4492 4.68262-14.0723Q3.31055-12.6953 2.5293-10.8936Q1.74805-9.0918 1.74805-7.05078Q1.74805-5.00977 2.5293-3.20801Q3.31055-1.40625 4.6875-0.0292969Q6.06445 1.34766 7.86621 2.12891Q9.66797 2.91016 11.709 2.91016ZM11.709 1.25Q9.98047 1.25 8.47656 0.605469Q6.97266-0.0390625 5.83496-1.17676Q4.69727-2.31445 4.05762-3.81836Q3.41797-5.32227 3.41797-7.05078Q3.41797-8.7793 4.05762-10.2832Q4.69727-11.7871 5.83008-12.9297Q6.96289-14.0723 8.4668-14.7119Q9.9707-15.3516 11.6992-15.3516Q13.4277-15.3516 14.9316-14.7119Q16.4355-14.0723 17.5781-12.9297Q18.7207-11.7871 19.3652-10.2832Q20.0098-8.7793 20.0098-7.05078Q20.0098-5.32227 19.3701-3.81836Q18.7305-2.31445 17.5928-1.17676Q16.4551-0.0390625 14.9463 0.605469Q13.4375 1.25 11.709 1.25ZM7.39258-7.04102Q7.39258-6.68945 7.62695-6.46484Q7.86133-6.24023 8.23242-6.24023L10.8789-6.24023L10.8789-3.57422Q10.8789-3.21289 11.1035-2.9834Q11.3281-2.75391 11.6797-2.75391Q12.0508-2.75391 12.2852-2.9834Q12.5195-3.21289 12.5195-3.57422L12.5195-6.24023L15.1758-6.24023Q15.5371-6.24023 15.7715-6.46484Q16.0059-6.68945 16.0059-7.04102Q16.0059-7.41211 15.7715-7.6416Q15.5371-7.87109 15.1758-7.87109L12.5195-7.87109L12.5195-10.5176Q12.5195-10.8984 12.2852-11.1279Q12.0508-11.3574 11.6797-11.3574Q11.3281-11.3574 11.1035-11.1279Q10.8789-10.8984 10.8789-10.5176L10.8789-7.87109L8.23242-7.87109Q7.85156-7.87109 7.62207-7.6416Q7.39258-7.41211 7.39258-7.04102Z"/>
  </g>
  <g transform="matrix(1 0 0 1 305.646 1933)">
   <path d="M14.9707 5.66406Q17.0605 5.66406 18.96 5.01465Q20.8594 4.36523 22.4512 3.19336Q24.043 2.02148 25.2197 0.429688Q26.3965-1.16211 27.0459-3.06641Q27.6953-4.9707 27.6953-7.05078Q27.6953-9.14062 27.0459-11.04Q26.3965-12.9395 25.2197-14.5312Q24.043-16.123 22.4512-17.2998Q20.8594-18.4766 18.9551-19.126Q17.0508-19.7754 14.9609-19.7754Q12.8711-19.7754 10.9717-19.126Q9.07227-18.4766 7.48535-17.2998Q5.89844-16.123 4.72168-14.5312Q3.54492-12.9395 2.90039-11.04Q2.25586-9.14062 2.25586-7.05078Q2.25586-4.9707 2.90527-3.06641Q3.55469-1.16211 4.72656 0.429688Q5.89844 2.02148 7.49023 3.19336Q9.08203 4.36523 10.9814 5.01465Q12.8809 5.66406 14.9707 5.66406ZM14.9707 3.84766Q13.1641 3.84766 11.5283 3.2959Q9.89258 2.74414 8.53516 1.74805Q7.17773 0.751953 6.17676-0.610352Q5.17578-1.97266 4.62891-3.6084Q4.08203-5.24414 4.08203-7.05078Q4.08203-8.86719 4.62891-10.5029Q5.17578-12.1387 6.17188-13.501Q7.16797-14.8633 8.52539-15.8594Q9.88281-16.8555 11.5186-17.4023Q13.1543-17.9492 14.9609-17.9492Q16.7773-17.9492 18.4131-17.4023Q20.0488-16.8555 21.4111-15.8594Q22.7734-14.8633 23.7695-13.501Q24.7656-12.1387 25.3174-10.5029Q25.8691-8.86719 25.8691-7.05078Q25.8789-5.24414 25.332-3.6084Q24.7852-1.97266 23.7842-0.610352Q22.7832 0.751953 21.4209 1.74805Q20.0586 2.74414 18.4229 3.2959Q16.7871 3.84766 14.9707 3.84766ZM9.45312-7.04102Q9.45312-6.66016 9.71191-6.41113Q9.9707-6.16211 10.3711-6.16211L14.0625-6.16211L14.0625-2.46094Q14.0625-2.06055 14.3115-1.80664Q14.5605-1.55273 14.9414-1.55273Q15.3516-1.55273 15.6055-1.80664Q15.8594-2.06055 15.8594-2.46094L15.8594-6.16211L19.5605-6.16211Q19.9609-6.16211 20.2148-6.41113Q20.4688-6.66016 20.4688-7.04102Q20.4688-7.45117 20.2148-7.70508Q19.9609-7.95898 19.5605-7.95898L15.8594-7.95898L15.8594-11.6504Q15.8594-12.0605 15.6055-12.3145Q15.3516-12.5684 14.9414-12.5684Q14.5605-12.5684 14.3115-12.3096Q14.0625-12.0508 14.0625-11.6504L14.0625-7.95898L10.3711-7.95898Q9.96094-7.95898 9.70703-7.70508Q9.45312-7.45117 9.45312-7.04102Z"/>
  </g>
  <text style="stroke:none;fill:black;font-family:sans-serif;font-size:13;font-weight:bold;" transform="matrix(1 0 0 1 263 1953)">Design Variations</text>
  <text style="stroke:none;fill:black;font-family:sans-serif;font-size:13;" transform="matrix(1 0 0 1 263 1971)">Symbols are supported in up to nine weights and three scales.</text>
  <text style="stroke:none;fill:black;font-family:sans-serif;font-size:13;" transform="matrix(1 0 0 1 263 1989)">For optimal layout with text and other symbols, vertically align</text>
  <text style="stroke:none;fill:black;font-family:sans-serif;font-size:13;" transform="matrix(1 0 0 1 263 2007)">symbols with the adjacent text.</text>
  <line style="fill:none;stroke:#00AEEF;stroke-width:0.5;opacity:1.0;" x1="776" x2="776" y1="1919" y2="1933"/>
  <g transform="matrix(1 0 0 1 776 1933)">
   <path d="M3.31055 0.15625Q3.70117 0.15625 3.91602-0.00976562Q4.13086-0.175781 4.26758-0.585938L5.52734-4.0332L11.2891-4.0332L12.5488-0.585938Q12.6855-0.175781 12.9004-0.00976562Q13.1152 0.15625 13.4961 0.15625Q13.8867 0.15625 14.1162-0.0585938Q14.3457-0.273438 14.3457-0.644531Q14.3457-0.869141 14.2383-1.17188L9.6582-13.3691Q9.48242-13.8184 9.17969-14.043Q8.87695-14.2676 8.4082-14.2676Q7.5-14.2676 7.17773-13.3789L2.59766-1.16211Q2.49023-0.859375 2.49023-0.634766Q2.49023-0.263672 2.70996-0.0537109Q2.92969 0.15625 3.31055 0.15625ZM6.00586-5.51758L8.37891-12.0898L8.42773-12.0898L10.8008-5.51758Z"/>
  </g>
  <line style="fill:none;stroke:#00AEEF;stroke-width:0.5;opacity:1.0;" x1="793.197" x2="793.197" y1="1919" y2="1933"/>
  <text style="stroke:none;fill:black;font-family:sans-serif;font-size:13;font-weight:bold;" transform="matrix(1 0 0 1 776 1953)">Margins</text>
  <text style="stroke:none;fill:black;font-family:sans-serif;font-size:13;" transform="matrix(1 0 0 1 776 1971)">Leading and trailing margins on the left and right side of each symbol</text>
  <text style="stroke:none;fill:black;font-family:sans-serif;font-size:13;" transform="matrix(1 0 0 1 776 1989)">can be adjusted by modifying the x-location of the margin guidelines.</text>
  <text style="stroke:none;fill:black;font-family:sans-serif;font-size:13;" transform="matrix(1 0 0 1 776 2007)">Modifications are automatically applied proportionally to all</text>
  <text style="stroke:none;fill:black;font-family:sans-serif;font-size:13;" transform="matrix(1 0 0 1 776 2025)">scales and weights.</text>
  <g transform="matrix(1 0 0 1 1289 1933)">
   <path d="M2.8418 1.86523L4.54102 3.57422Q5.18555 4.22852 5.90332 4.17969Q6.62109 4.13086 7.31445 3.35938L18.0078-8.42773L17.041-9.4043L6.42578 2.27539Q6.16211 2.57812 5.89355 2.61719Q5.625 2.65625 5.27344 2.30469L4.10156 1.14258Q3.75 0.791016 3.79395 0.522461Q3.83789 0.253906 4.14062-0.0195312L15.6152-10.8203L14.6387-11.7871L3.04688-0.898438Q2.30469-0.214844 2.25098 0.498047Q2.19727 1.21094 2.8418 1.86523ZM9.25781-16.3281Q8.94531-16.0254 8.90625-15.6348Q8.86719-15.2441 9.04297-14.9512Q9.21875-14.6777 9.55566-14.541Q9.89258-14.4043 10.3809-14.5215Q11.4746-14.7754 12.5977-14.7314Q13.7207-14.6875 14.7949-13.9844L14.209-12.5293Q13.9551-11.9043 14.0674-11.4404Q14.1797-10.9766 14.5801-10.5664L16.875-8.25195Q17.2363-7.88086 17.5781-7.82227Q17.9199-7.76367 18.3398-7.8418L19.4043-8.03711L20.0684-7.36328L20.0293-6.80664Q20-6.43555 20.1221-6.12305Q20.2441-5.81055 20.6055-5.44922L21.3672-4.70703Q21.7285-4.3457 22.1533-4.33105Q22.5781-4.31641 22.9297-4.66797L25.8398-7.58789Q26.1914-7.93945 26.1816-8.35449Q26.1719-8.76953 25.8105-9.13086L25.0391-9.89258Q24.6875-10.2539 24.3799-10.3857Q24.0723-10.5176 23.7109-10.4883L23.1348-10.4395L22.4902-11.0742L22.7344-12.1973Q22.832-12.6172 22.6953-12.9834Q22.5586-13.3496 22.1191-13.7891L19.9219-15.9766Q18.6719-17.2168 17.2607-17.8369Q15.8496-18.457 14.4189-18.4814Q12.9883-18.5059 11.665-17.959Q10.3418-17.4121 9.25781-16.3281ZM10.752-15.957Q11.6602-16.6211 12.7002-16.9043Q13.7402-17.1875 14.8047-17.085Q15.8691-16.9824 16.8701-16.5137Q17.8711-16.0449 18.7012-15.2051L21.1328-12.793Q21.3086-12.6172 21.3525-12.4512Q21.3965-12.2852 21.3379-12.0312L21.0156-10.5469L22.5195-9.0625L23.5059-9.12109Q23.6914-9.13086 23.7891-9.09668Q23.8867-9.0625 24.0332-8.91602L24.6094-8.33984L22.168-5.89844L21.5918-6.47461Q21.4453-6.62109 21.4062-6.71875Q21.3672-6.81641 21.377-7.01172L21.4453-7.98828L19.9512-9.47266L18.4277-9.21875Q18.1836-9.16992 18.042-9.2041Q17.9004-9.23828 17.7148-9.41406L15.7129-11.416Q15.5176-11.5918 15.4932-11.7529Q15.4688-11.9141 15.5859-12.1875L16.4648-14.2773Q15.293-15.3711 13.8281-15.791Q12.3633-16.2109 10.8398-15.7617Q10.7227-15.7324 10.6885-15.8057Q10.6543-15.8789 10.752-15.957Z"/>
  </g>
  <text style="stroke:none;fill:black;font-family:sans-serif;font-size:13;font-weight:bold;" transform="matrix(1 0 0 1 1289 1953)">Exporting</text>
  <text style="stroke:none;fill:black;font-family:sans-serif;font-size:13;" transform="matrix(1 0 0 1 1289 1971)">Symbols should be outlined when exporting to ensure the</text>
  <text style="stroke:none;fill:black;font-family:sans-serif;font-size:13;" transform="matrix(1 0 0 1 1289 1989)">design is preserved when submitting to Xcode.</text>
  <text id="template-version" style="stroke:none;fill:black;font-family:sans-serif;font-size:13;text-anchor:end;" transform="matrix(1 0 0 1 3036 1933)">Template v.2.0</text>
  <text style="stroke:none;fill:black;font-family:sans-serif;font-size:13;text-anchor:end;" transform="matrix(1 0 0 1 3036 1951)">Requires Xcode 13 or greater</text>
  <text id="descriptive-name" style="stroke:none;fill:black;font-family:sans-serif;font-size:13;text-anchor:end;" transform="matrix(1 0 0 1 3036 1969)">Generated from backward.circle</text>
  <text style="stroke:none;fill:black;font-family:sans-serif;font-size:13;text-anchor:end;" transform="matrix(1 0 0 1 3036 1987)">Typeset at 100 points</text>
  <text style="stroke:none;fill:black;font-family:sans-serif;font-size:13;" transform="matrix(1 0 0 1 263 726)">Small</text>
  <text style="stroke:none;fill:black;font-family:sans-serif;font-size:13;" transform="matrix(1 0 0 1 263 1156)">Medium</text>
  <text style="stroke:none;fill:black;font-family:sans-serif;font-size:13;" transform="matrix(1 0 0 1 263 1586)">Large</text>
 </g>
 <g id="Guides">
  <g id="H-reference" style="fill:#27AAE1;stroke:none;" transform="matrix(1 0 0 1 339 696)">
   <path d="M0.976562 0L3.66211 0L29.3457-67.1387L30.0293-67.1387L30.0293-70.459L28.125-70.459ZM11.6699-24.4629L46.9727-24.4629L46.2402-26.709L12.4512-26.709ZM55.127 0L57.7637 0L30.6152-70.459L29.4434-70.459L29.4434-67.1387Z"/>
  </g>
  <line id="Baseline-S" style="fill:none;stroke:#27AAE1;opacity:1;stroke-width:0.5;" x1="263" x2="3036" y1="696" y2="696"/>
  <line id="Capline-S" style="fill:none;stroke:#27AAE1;opacity:1;stroke-width:0.5;" x1="263" x2="3036" y1="625.541" y2="625.541"/>
  <g id="H-reference" style="fill:#27AAE1;stroke:none;" transform="matrix(1 0 0 1 339 1126)">
   <path d="M0.976562 0L3.66211 0L29.3457-67.1387L30.0293-67.1387L30.0293-70.459L28.125-70.459ZM11.6699-24.4629L46.9727-24.4629L46.2402-26.709L12.4512-26.709ZM55.127 0L57.7637 0L30.6152-70.459L29.4434-70.459L29.4434-67.1387Z"/>
  </g>
  <line id="Baseline-M" style="fill:none;stroke:#27AAE1;opacity:1;stroke-width:0.5;" x1="263" x2="3036" y1="1126" y2="1126"/>
  <line id="Capline-M" style="fill:none;stroke:#27AAE1;opacity:1;stroke-width:0.5;" x1="263" x2="3036" y1="1055.54" y2="1055.54"/>
  <g id="H-reference" style="fill:#27AAE1;stroke:none;" transform="matrix(1 0 0 1 339 1556)">
   <path d="M0.976562 0L3.66211 0L29.3457-67.1387L30.0293-67.1387L30.0293-70.459L28.125-70.459ZM11.6699-24.4629L46.9727-24.4629L46.2402-26.709L12.4512-26.709ZM55.127 0L57.7637 0L30.6152-70.459L29.4434-70.459L29.4434-67.1387Z"/>
  </g>
  <line id="Baseline-L" style="fill:none;stroke:#27AAE1;opacity:1;stroke-width:0.5;" x1="263" x2="3036" y1="1556" y2="1556"/>
  <line id="Capline-L" style="fill:none;stroke:#27AAE1;opacity:1;stroke-width:0.5;" x1="263" x2="3036" y1="1485.54" y2="1485.54"/>
  <line id="left-margin" style="fill:none;stroke:#00AEEF;stroke-width:0.5;opacity:1.0;" x1="1391.3" x2="1391.3" y1="1030.79" y2="1150.12"/>
  <line id="right-margin" style="fill:none;stroke:#00AEEF;stroke-width:0.5;opacity:1.0;" x1="1508.39" x2="1508.39" y1="1030.79" y2="1150.12"/>
 </g>
 <g id="Symbols">
  <g id="Black-L" transform="matrix(1 0 0 1 2854.05 1556)">
   <path d="M79.3457 32.8613Q90.5762 32.8613 100.757 29.3945Q110.938 25.9277 119.458 19.6777Q127.979 13.4277 134.229 4.90723Q140.479-3.61328 143.945-13.7939Q147.412-23.9746 147.412-35.2051Q147.412-46.4355 143.945-56.6162Q140.479-66.7969 134.204-75.3174Q127.93-83.8379 119.434-90.1123Q110.938-96.3867 100.732-99.8291Q90.5273-103.271 79.2969-103.271Q68.1152-103.271 57.9102-99.8291Q47.7051-96.3867 39.209-90.1123Q30.7129-83.8379 24.4385-75.3174Q18.1641-66.7969 14.7217-56.6162Q11.2793-46.4355 11.2793-35.2051Q11.2793-23.9746 14.7217-13.7939Q18.1641-3.61328 24.4385 4.90723Q30.7129 13.4277 39.2334 19.6777Q47.7539 25.9277 57.9346 29.3945Q68.1152 32.8613 79.3457 32.8613ZM79.3457 12.4023Q71.4355 12.4023 64.2822 10.0098Q57.1289 7.61719 51.1963 3.24707Q45.2637-1.12305 40.8936-7.08008Q36.5234-13.0371 34.1309-20.166Q31.7383-27.2949 31.7383-35.2051Q31.7383-43.1152 34.1309-50.2686Q36.5234-57.4219 40.8936-63.3545Q45.2637-69.2871 51.1963-73.6572Q57.1289-78.0273 64.2578-80.4199Q71.3867-82.8125 79.2969-82.8125Q87.207-82.8125 94.3604-80.4199Q101.514-78.0273 107.471-73.6572Q113.428-69.2871 117.798-63.3545Q122.168-57.4219 124.561-50.2686Q126.953-43.1152 126.953-35.2051Q126.953-27.2949 124.561-20.166Q122.168-13.0371 117.798-7.08008Q113.428-1.12305 107.495 3.24707Q101.562 7.61719 94.4092 10.0098Q87.2559 12.4023 79.3457 12.4023ZM70.3125-14.9902Q72.4121-14.9902 73.9502-16.4795Q75.4883-17.9688 75.4883-20.752L75.4883-51.2207Q75.4883-54.0039 73.9746-55.5176Q72.4609-57.0312 70.3613-57.0312Q69.2871-57.0312 68.3594-56.7627Q67.4316-56.4941 66.5039-55.957L41.2109-41.1621Q39.502-40.2344 38.4766-39.0381Q37.4512-37.8418 37.4512-36.0352Q37.4512-34.2773 38.501-33.0078Q39.5508-31.7383 41.2109-30.8105L66.5039-16.0645Q67.4316-15.4785 68.3594-15.2344Q69.2871-14.9902 70.3125-14.9902ZM108.154-14.9902Q110.254-14.9902 111.841-16.4795Q113.428-17.9688 113.428-20.752L113.428-51.2207Q113.428-54.0039 111.89-55.5176Q110.352-57.0312 108.203-57.0312Q107.178-57.0312 106.25-56.7627Q105.322-56.4941 104.346-55.957L79.0527-41.1621Q77.3438-40.2344 76.3428-39.0381Q75.3418-37.8418 75.3418-36.0352Q75.3418-34.2773 76.3672-33.0078Q77.3926-31.7383 79.0527-30.8105L104.346-16.0645Q105.322-15.4785 106.226-15.2344Q107.129-14.9902 108.154-14.9902Z"/>
  </g>
  <g id="Heavy-L" transform="matrix(1 0 0 1 2558.39 1556)">
   <path d="M78.2715 31.7871Q89.3555 31.7871 99.3652 28.3691Q109.375 24.9512 117.749 18.7988Q126.123 12.6465 132.3 4.24805Q138.477-4.15039 141.895-14.1602Q145.312-24.1699 145.312-35.2051Q145.312-46.2402 141.895-56.2744Q138.477-66.3086 132.3-74.6826Q126.123-83.0566 117.749-89.2578Q109.375-95.459 99.3408-98.8525Q89.3066-102.246 78.2227-102.246Q67.2363-102.246 57.2021-98.8525Q47.168-95.459 38.7939-89.2578Q30.4199-83.0566 24.2432-74.6826Q18.0664-66.3086 14.6729-56.2744Q11.2793-46.2402 11.2793-35.2051Q11.2793-24.1699 14.6729-14.1602Q18.0664-4.15039 24.2432 4.24805Q30.4199 12.6465 38.8184 18.7988Q47.2168 24.9512 57.2266 28.3691Q67.2363 31.7871 78.2715 31.7871ZM78.2715 14.0137Q70.1172 14.0137 62.7197 11.5479Q55.3223 9.08203 49.1943 4.56543Q43.0664 0.0488281 38.5498-6.12793Q34.0332-12.3047 31.543-19.6777Q29.0527-27.0508 29.0527-35.2051Q29.0527-43.4082 31.543-50.8057Q34.0332-58.2031 38.5254-64.3311Q43.0176-70.459 49.1699-74.9756Q55.3223-79.4922 62.6953-81.9824Q70.0684-84.4727 78.2227-84.4727Q86.4258-84.4727 93.8232-81.9824Q101.221-79.4922 107.373-74.9756Q113.525-70.459 118.042-64.3311Q122.559-58.2031 125.049-50.8057Q127.539-43.4082 127.539-35.2051Q127.539-27.0508 125.049-19.6777Q122.559-12.3047 118.042-6.12793Q113.525 0.0488281 107.397 4.56543Q101.27 9.08203 93.8721 11.5479Q86.4746 14.0137 78.2715 14.0137ZM69.3848-14.3066Q71.3379-14.3066 72.8027-15.7227Q74.2676-17.1387 74.2676-19.8242L74.2676-51.8066Q74.2676-54.4922 72.8271-55.9082Q71.3867-57.3242 69.3848-57.3242Q68.4082-57.3242 67.5049-57.0557Q66.6016-56.7871 65.6738-56.2988L39.1113-40.7227Q37.4512-39.7949 36.5234-38.6475Q35.5957-37.5 35.5957-35.8398Q35.5957-34.2285 36.5479-33.0078Q37.5-31.7871 39.1113-30.9082L65.6738-15.332Q66.6016-14.7949 67.5049-14.5508Q68.4082-14.3066 69.3848-14.3066ZM107.861-14.3066Q109.814-14.3066 111.304-15.7227Q112.793-17.1387 112.793-19.8242L112.793-51.8066Q112.793-54.4922 111.353-55.9082Q109.912-57.3242 107.861-57.3242Q106.885-57.3242 106.006-57.0557Q105.127-56.7871 104.15-56.2988L77.5879-40.7227Q75.9277-39.7949 75.0244-38.6475Q74.1211-37.5 74.1211-35.8398Q74.1211-34.2285 75.0488-33.0078Q75.9766-31.7871 77.5879-30.9082L104.15-15.332Q105.127-14.7949 106.006-14.5508Q106.885-14.3066 107.861-14.3066Z"/>
  </g>
  <g id="Bold-L" transform="matrix(1 0 0 1 2262.85 1556)">
   <path d="M77.0996 30.6152Q87.9395 30.6152 97.7783 27.2461Q107.617 23.877 115.869 17.8223Q124.121 11.7676 130.176 3.51562Q136.23-4.73633 139.6-14.5752Q142.969-24.4141 142.969-35.2539Q142.969-46.0938 139.6-55.9326Q136.23-65.7715 130.151-73.999Q124.072-82.2266 115.845-88.3057Q107.617-94.3848 97.7539-97.7295Q87.8906-101.074 77.0508-101.074Q66.2598-101.074 56.3965-97.7295Q46.5332-94.3848 38.3301-88.3057Q30.127-82.2266 24.0479-73.999Q17.9688-65.7715 14.624-55.9326Q11.2793-46.0938 11.2793-35.2539Q11.2793-24.4141 14.624-14.5752Q17.9688-4.73633 24.0479 3.51562Q30.127 11.7676 38.3545 17.8223Q46.582 23.877 56.4209 27.2461Q66.2598 30.6152 77.0996 30.6152ZM77.0996 15.8203Q68.6523 15.8203 60.9863 13.2568Q53.3203 10.6934 46.9482 6.00586Q40.5762 1.31836 35.8887-5.07812Q31.2012-11.4746 28.6377-19.1162Q26.0742-26.7578 26.0742-35.2539Q26.0742-43.75 28.6377-51.416Q31.2012-59.082 35.8887-65.4541Q40.5762-71.8262 46.9238-76.4893Q53.2715-81.1523 60.9375-83.7158Q68.6035-86.2793 77.0508-86.2793Q85.5469-86.2793 93.2129-83.7158Q100.879-81.1523 107.275-76.4893Q113.672-71.8262 118.335-65.4541Q122.998-59.082 125.586-51.416Q128.174-43.75 128.174-35.2539Q128.174-26.7578 125.61-19.1162Q123.047-11.4746 118.359-5.07812Q113.672 1.31836 107.3 6.00586Q100.928 10.6934 93.2617 13.2568Q85.5957 15.8203 77.0996 15.8203ZM68.4082-13.5254Q70.2637-13.5254 71.6309-14.8682Q72.998-16.2109 72.998-18.75L72.998-52.4414Q72.998-55.0293 71.6309-56.3721Q70.2637-57.7148 68.4082-57.7148Q67.4805-57.7148 66.626-57.4463Q65.7715-57.1777 64.8926-56.6406L36.8164-40.1855Q35.2539-39.3066 34.4238-38.208Q33.5938-37.1094 33.5938-35.6445Q33.5938-34.1797 34.4482-33.0322Q35.3027-31.8848 36.8164-31.0059L64.8926-14.5508Q65.7715-14.0137 66.626-13.7695Q67.4805-13.5254 68.4082-13.5254ZM107.568-13.5254Q109.424-13.5254 110.815-14.8682Q112.207-16.2109 112.207-18.75L112.207-52.4414Q112.207-55.0293 110.84-56.3721Q109.473-57.7148 107.617-57.7148Q106.689-57.7148 105.835-57.4463Q104.98-57.1777 104.053-56.6406L76.0254-40.1855Q74.4629-39.3066 73.6328-38.208Q72.8027-37.1094 72.8027-35.6445Q72.8027-34.1797 73.6572-33.0322Q74.5117-31.8848 76.0254-31.0059L104.053-14.5508Q104.98-14.0137 105.811-13.7695Q106.641-13.5254 107.568-13.5254Z"/>
  </g>
  <g id="Semibold-L" transform="matrix(1 0 0 1 1966.97 1556)">
   <path d="M76.2695 29.7852Q86.9629 29.7852 96.6797 26.4648Q106.396 23.1445 114.551 17.1631Q122.705 11.1816 128.687 3.02734Q134.668-5.12695 137.988-14.8438Q141.309-24.5605 141.309-35.2539Q141.309-45.9473 137.988-55.6641Q134.668-65.3809 128.662-73.5107Q122.656-81.6406 114.526-87.6465Q106.396-93.6523 96.6553-96.9727Q86.9141-100.293 76.2207-100.293Q65.5273-100.293 55.8105-96.9727Q46.0938-93.6523 37.9883-87.6465Q29.8828-81.6406 23.877-73.5107Q17.8711-65.3809 14.5752-55.6641Q11.2793-45.9473 11.2793-35.2539Q11.2793-24.5605 14.5996-14.8438Q17.9199-5.12695 23.9014 3.02734Q29.8828 11.1816 38.0127 17.1631Q46.1426 23.1445 55.8594 26.4648Q65.5762 29.7852 76.2695 29.7852ZM76.2695 17.041Q67.627 17.041 59.7656 14.4043Q51.9043 11.7676 45.3857 6.98242Q38.8672 2.19727 34.0576-4.3457Q29.248-10.8887 26.6357-18.7256Q24.0234-26.5625 24.0234-35.2539Q24.0234-43.9453 26.6357-51.8066Q29.248-59.668 34.0332-66.1865Q38.8184-72.7051 45.3369-77.4902Q51.8555-82.2754 59.7168-84.9121Q67.5781-87.5488 76.2207-87.5488Q84.9609-87.5488 92.7979-84.9121Q100.635-82.2754 107.178-77.4902Q113.721-72.7051 118.506-66.1865Q123.291-59.668 125.928-51.8066Q128.564-43.9453 128.564-35.2539Q128.613-26.5625 126.001-18.7256Q123.389-10.8887 118.579-4.3457Q113.77 2.19727 107.227 6.98242Q100.684 11.7676 92.8467 14.4043Q85.0098 17.041 76.2695 17.041ZM67.6758-12.9395Q69.4336-12.9395 70.752-14.2334Q72.0703-15.5273 72.0703-18.0176L72.0703-52.8809Q72.0703-55.3711 70.752-56.6406Q69.4336-57.9102 67.6758-57.9102Q66.7969-57.9102 65.9668-57.6416Q65.1367-57.373 64.2578-56.8848L35.1562-39.8438Q33.6914-38.9648 32.9346-37.915Q32.1777-36.8652 32.1777-35.4492Q32.1777-34.1309 32.9346-33.0078Q33.6914-31.8848 35.1562-31.0547L64.2578-14.0137Q65.1367-13.4766 65.9668-13.208Q66.7969-12.9395 67.6758-12.9395ZM107.324-12.9395Q109.131-12.9395 110.449-14.2334Q111.768-15.5273 111.768-18.0176L111.768-52.8809Q111.768-55.3711 110.449-56.6406Q109.131-57.9102 107.373-57.9102Q106.445-57.9102 105.64-57.6416Q104.834-57.373 103.955-56.8848L74.9023-39.8438Q73.3887-38.9648 72.6318-37.915Q71.875-36.8652 71.875-35.4492Q71.875-34.1309 72.6562-33.0078Q73.4375-31.8848 74.9023-31.0547L103.955-14.0137Q104.834-13.4766 105.64-13.208Q106.445-12.9395 107.324-12.9395Z"/>
  </g>
  <g id="Medium-L" transform="matrix(1 0 0 1 1670.87 1556)">
   <path d="M75.6836 29.1504Q86.2305 29.1504 95.8496 25.8545Q105.469 22.5586 113.55 16.626Q121.631 10.6934 127.563 2.63672Q133.496-5.41992 136.792-15.0635Q140.088-24.707 140.088-35.2539Q140.088-45.8496 136.792-55.4688Q133.496-65.0879 127.539-73.1445Q121.582-81.2012 113.525-87.1582Q105.469-93.1152 95.8252-96.3867Q86.1816-99.6582 75.6348-99.6582Q65.0391-99.6582 55.4199-96.3867Q45.8008-93.1152 37.7441-87.1582Q29.6875-81.2012 23.7549-73.1445Q17.8223-65.0879 14.5508-55.4688Q11.2793-45.8496 11.2793-35.2539Q11.2793-24.707 14.5508-15.0635Q17.8223-5.41992 23.7549 2.63672Q29.6875 10.6934 37.7686 16.626Q45.8496 22.5586 55.4688 25.8545Q65.0879 29.1504 75.6836 29.1504ZM75.6836 18.0176Q66.8457 18.0176 58.8379 15.332Q50.8301 12.6465 44.2139 7.76367Q37.5977 2.88086 32.6904-3.78418Q27.7832-10.4492 25.1221-18.4326Q22.4609-26.416 22.4609-35.2539Q22.4609-44.1406 25.1221-52.124Q27.7832-60.1074 32.666-66.748Q37.5488-73.3887 44.165-78.2715Q50.7812-83.1543 58.7891-85.8154Q66.7969-88.4766 75.6348-88.4766Q84.4727-88.4766 92.4805-85.8154Q100.488-83.1543 107.129-78.2715Q113.77-73.3887 118.652-66.748Q123.535-60.1074 126.221-52.124Q128.906-44.1406 128.906-35.2539Q128.955-26.416 126.294-18.4326Q123.633-10.4492 118.726-3.78418Q113.818 2.88086 107.178 7.76367Q100.537 12.6465 92.5293 15.332Q84.5215 18.0176 75.6836 18.0176ZM67.1387-12.5488Q68.8477-12.5488 70.0928-13.7939Q71.3379-15.0391 71.3379-17.4805L71.3379-53.2227Q71.3379-55.6641 70.0928-56.8848Q68.8477-58.1055 67.1387-58.1055Q66.2598-58.1055 65.4541-57.8369Q64.6484-57.5684 63.8184-57.0801L33.9355-39.5508Q32.5195-38.7207 31.8115-37.6709Q31.1035-36.6211 31.1035-35.3516Q31.1035-34.082 31.8115-33.0078Q32.5195-31.9336 33.9355-31.1523L63.8184-13.5742Q64.6484-13.0859 65.4541-12.8174Q66.2598-12.5488 67.1387-12.5488ZM107.178-12.5488Q108.887-12.5488 110.156-13.7939Q111.426-15.0391 111.426-17.4805L111.426-53.2227Q111.426-55.6641 110.156-56.8848Q108.887-58.1055 107.178-58.1055Q106.299-58.1055 105.493-57.8369Q104.688-57.5684 103.857-57.0801L74.0234-39.5508Q72.6074-38.7207 71.875-37.6709Q71.1426-36.6211 71.1426-35.3516Q71.1426-34.082 71.875-33.0078Q72.6074-31.9336 74.0234-31.1523L103.857-13.5742Q104.688-13.0859 105.493-12.8174Q106.299-12.5488 107.178-12.5488Z"/>
  </g>
  <g id="Regular-L" transform="matrix(1 0 0 1 1374.97 1556)">
   <path d="M74.8535 28.3203Q85.3027 28.3203 94.7998 25.0732Q104.297 21.8262 112.256 15.9668Q120.215 10.1074 126.099 2.14844Q131.982-5.81055 135.229-15.332Q138.477-24.8535 138.477-35.2539Q138.477-45.7031 135.229-55.2002Q131.982-64.6973 126.099-72.6562Q120.215-80.6152 112.256-86.499Q104.297-92.3828 94.7754-95.6299Q85.2539-98.877 74.8047-98.877Q64.3555-98.877 54.8584-95.6299Q45.3613-92.3828 37.4268-86.499Q29.4922-80.6152 23.6084-72.6562Q17.7246-64.6973 14.502-55.2002Q11.2793-45.7031 11.2793-35.2539Q11.2793-24.8535 14.5264-15.332Q17.7734-5.81055 23.6328 2.14844Q29.4922 10.1074 37.4512 15.9668Q45.4102 21.8262 54.9072 25.0732Q64.4043 28.3203 74.8535 28.3203ZM74.8535 19.2383Q65.8203 19.2383 57.6416 16.4795Q49.4629 13.7207 42.6758 8.74023Q35.8887 3.75977 30.8838-3.05176Q25.8789-9.86328 23.1445-18.042Q20.4102-26.2207 20.4102-35.2539Q20.4102-44.3359 23.1445-52.5146Q25.8789-60.6934 30.8594-67.5049Q35.8398-74.3164 42.627-79.2969Q49.4141-84.2773 57.5928-87.0117Q65.7715-89.7461 74.8047-89.7461Q83.8867-89.7461 92.0654-87.0117Q100.244-84.2773 107.056-79.2969Q113.867-74.3164 118.848-67.5049Q123.828-60.6934 126.587-52.5146Q129.346-44.3359 129.346-35.2539Q129.395-26.2207 126.66-18.042Q123.926-9.86328 118.921-3.05176Q113.916 3.75977 107.104 8.74023Q100.293 13.7207 92.1143 16.4795Q83.9355 19.2383 74.8535 19.2383ZM66.4062-12.0117Q68.0176-12.0117 69.2139-13.208Q70.4102-14.4043 70.4102-16.748L70.4102-53.6621Q70.4102-56.0059 69.2139-57.1777Q68.0176-58.3496 66.4062-58.3496Q65.5762-58.3496 64.7949-58.0811Q64.0137-57.8125 63.1836-57.3242L32.3242-39.209Q30.957-38.3789 30.3223-37.3779Q29.6875-36.377 29.6875-35.2051Q29.6875-34.0332 30.3223-33.0078Q30.957-31.9824 32.3242-31.2012L63.1836-13.0371Q64.0137-12.5488 64.7949-12.2803Q65.5762-12.0117 66.4062-12.0117ZM106.934-12.0117Q108.545-12.0117 109.741-13.208Q110.938-14.4043 110.938-16.748L110.938-53.6621Q110.938-56.0059 109.741-57.1777Q108.545-58.3496 106.934-58.3496Q106.104-58.3496 105.322-58.0811Q104.541-57.8125 103.711-57.3242L72.9004-39.209Q71.5332-38.3789 70.874-37.3779Q70.2148-36.377 70.2148-35.2051Q70.2148-34.0332 70.874-33.0078Q71.5332-31.9824 72.9004-31.2012L103.711-13.0371Q104.541-12.5488 105.322-12.2803Q106.104-12.0117 106.934-12.0117Z"/>
  </g>
  <g id="Light-L" transform="matrix(1 0 0 1 1079.18 1556)">
   <path d="M73.9258 27.3926Q84.2285 27.3926 93.6035 24.1943Q102.979 20.9961 110.815 15.2344Q118.652 9.47266 124.438 1.63574Q130.225-6.20117 133.423-15.5762Q136.621-24.9512 136.621-35.2539Q136.621-45.5566 133.423-54.9316Q130.225-64.3066 124.438-72.1436Q118.652-79.9805 110.815-85.7666Q102.979-91.5527 93.6035-94.751Q84.2285-97.9492 73.877-97.9492Q63.5742-97.9492 54.2236-94.751Q44.873-91.5527 37.0361-85.7666Q29.1992-79.9805 23.4131-72.1436Q17.627-64.3066 14.4531-54.9316Q11.2793-45.5566 11.2793-35.2539Q11.2793-24.9512 14.4775-15.5762Q17.6758-6.20117 23.4375 1.63574Q29.1992 9.47266 37.0361 15.2344Q44.873 20.9961 54.248 24.1943Q63.623 27.3926 73.9258 27.3926ZM73.9258 20.5078Q64.6973 20.5078 56.3232 17.6758Q47.9492 14.8438 40.9912 9.74121Q34.0332 4.63867 28.9307-2.31934Q23.8281-9.27734 21.0205-17.6514Q18.2129-26.0254 18.2129-35.2539Q18.2129-44.5312 21.0205-52.8809Q23.8281-61.2305 28.9307-68.2129Q34.0332-75.1953 40.9912-80.2979Q47.9492-85.4004 56.2988-88.208Q64.6484-91.0156 73.877-91.0156Q83.1543-91.0156 91.5283-88.208Q99.9023-85.4004 106.86-80.2979Q113.818-75.1953 118.945-68.2129Q124.072-61.2305 126.88-52.8809Q129.688-44.5312 129.688-35.2539Q129.736-26.0254 126.929-17.6514Q124.121-9.27734 118.994-2.31934Q113.867 4.63867 106.909 9.74121Q99.9512 14.8438 91.5771 17.6758Q83.2031 20.5078 73.9258 20.5078ZM65.7227-11.9629Q67.1387-11.9629 68.2617-13.0371Q69.3848-14.1113 69.3848-16.3086L69.3848-54.1504Q69.3848-56.3477 68.2617-57.4219Q67.1387-58.4961 65.7227-58.4961Q64.9414-58.4961 64.1846-58.2031Q63.4277-57.9102 62.7441-57.5195L30.7617-38.7207Q29.6387-38.0371 29.0771-37.1826Q28.5156-36.3281 28.5156-35.2539Q28.5156-34.1309 29.0771-33.252Q29.6387-32.373 30.7617-31.6895L62.7441-12.8906Q63.4277-12.5 64.1846-12.2314Q64.9414-11.9629 65.7227-11.9629ZM106.396-11.9629Q107.861-11.9629 108.96-13.0371Q110.059-14.1113 110.059-16.3086L110.059-54.1504Q110.059-56.3477 108.96-57.4219Q107.861-58.4961 106.396-58.4961Q105.615-58.4961 104.858-58.2031Q104.102-57.9102 103.418-57.5195L71.4844-38.7207Q70.3613-38.0371 69.7754-37.1826Q69.1895-36.3281 69.1895-35.2539Q69.1895-34.1309 69.7754-33.252Q70.3613-32.373 71.4844-31.6895L103.418-12.8906Q104.102-12.5 104.858-12.2314Q105.615-11.9629 106.396-11.9629Z"/>
  </g>
  <g id="Thin-L" transform="matrix(1 0 0 1 783.693 1556)">
   <path d="M72.7051 26.1719Q82.8613 26.1719 92.041 23.0469Q101.221 19.9219 108.911 14.2822Q116.602 8.64258 122.266 0.952148Q127.93-6.73828 131.055-15.9424Q134.18-25.1465 134.18-35.2539Q134.18-45.4102 131.055-54.5898Q127.93-63.7695 122.29-71.46Q116.65-79.1504 108.936-84.8145Q101.221-90.4785 92.0166-93.6035Q82.8125-96.7285 72.7051-96.7285Q62.5488-96.7285 53.3691-93.6035Q44.1895-90.4785 36.499-84.8145Q28.8086-79.1504 23.1689-71.46Q17.5293-63.7695 14.4043-54.5898Q11.2793-45.4102 11.2793-35.2539Q11.2793-25.1465 14.4043-15.9424Q17.5293-6.73828 23.1689 0.952148Q28.8086 8.64258 36.5234 14.2822Q44.2383 19.9219 53.418 23.0469Q62.5977 26.1719 72.7051 26.1719ZM72.7051 22.168Q63.2324 22.168 54.6143 19.2627Q45.9961 16.3574 38.8184 11.084Q31.6406 5.81055 26.3428-1.36719Q21.0449-8.54492 18.1641-17.1631Q15.2832-25.7812 15.2832-35.2539Q15.2832-44.7754 18.1641-53.3936Q21.0449-62.0117 26.3428-69.1895Q31.6406-76.3672 38.8184-81.6406Q45.9961-86.9141 54.5898-89.8193Q63.1836-92.7246 72.7051-92.7246Q82.2266-92.7246 90.8203-89.8193Q99.4141-86.9141 106.616-81.6406Q113.818-76.3672 119.092-69.1895Q124.365-62.0117 127.271-53.3936Q130.176-44.7754 130.176-35.2539Q130.176-25.7812 127.271-17.1631Q124.365-8.54492 119.092-1.36719Q113.818 5.81055 106.641 11.084Q99.4629 16.3574 90.8447 19.2627Q82.2266 22.168 72.7051 22.168ZM64.7949-11.8164Q66.0156-11.8164 67.0166-12.7686Q68.0176-13.7207 68.0176-15.7227L68.0176-54.7363Q68.0176-56.7383 67.0166-57.6904Q66.0156-58.6426 64.7949-58.6426Q64.1113-58.6426 63.4033-58.3496Q62.6953-58.0566 62.1582-57.7148L28.7598-38.1348Q27.9297-37.5977 27.4658-36.8896Q27.002-36.1816 27.002-35.2539Q27.002-34.2773 27.4658-33.5449Q27.9297-32.8125 28.7598-32.373L62.1582-12.6953Q62.6953-12.4023 63.4033-12.1094Q64.1113-11.8164 64.7949-11.8164ZM105.713-11.8164Q106.934-11.8164 107.935-12.7686Q108.936-13.7207 108.936-15.7227L108.936-54.7363Q108.936-56.7383 107.935-57.6904Q106.934-58.6426 105.713-58.6426Q105.029-58.6426 104.321-58.3496Q103.613-58.0566 103.027-57.7148L69.6777-38.1348Q68.8477-37.5977 68.3594-36.8896Q67.8711-36.1816 67.8711-35.2539Q67.8711-34.2773 68.3594-33.5449Q68.8477-32.8125 69.6777-32.373L103.027-12.6953Q103.613-12.4023 104.321-12.1094Q105.029-11.8164 105.713-11.8164Z"/>
  </g>
  <g id="Ultralight-L" transform="matrix(1 0 0 1 487.592 1556)">
   <path d="M72.0703 25.5371Q82.1289 25.5371 91.2354 22.4609Q100.342 19.3848 107.935 13.7939Q115.527 8.20312 121.143 0.585938Q126.758-7.03125 129.858-16.1133Q132.959-25.1953 132.959-35.2539Q132.959-45.3125 129.858-54.4189Q126.758-63.5254 121.167-71.1182Q115.576-78.7109 107.959-84.3262Q100.342-89.9414 91.2354-93.0176Q82.1289-96.0938 72.0703-96.0938Q62.0605-96.0938 52.9541-93.0176Q43.8477-89.9414 36.2305-84.3262Q28.6133-78.7109 23.0225-71.1182Q17.4316-63.5254 14.3555-54.4189Q11.2793-45.3125 11.2793-35.2539Q11.2793-25.1953 14.3555-16.1133Q17.4316-7.03125 23.0225 0.585938Q28.6133 8.20312 36.2305 13.7939Q43.8477 19.3848 52.9541 22.4609Q62.0605 25.5371 72.0703 25.5371ZM72.0703 23.0469Q62.4512 23.0469 53.7109 20.0928Q44.9707 17.1387 37.6709 11.792Q30.3711 6.44531 25.0244-0.854492Q19.6777-8.1543 16.7236-16.8945Q13.7695-25.6348 13.7695-35.2539Q13.7695-44.9219 16.7236-53.6377Q19.6777-62.3535 25.0244-69.6533Q30.3711-76.9531 37.6953-82.3242Q45.0195-87.6953 53.7354-90.6494Q62.4512-93.6035 72.0703-93.6035Q81.7383-93.6035 90.4785-90.6494Q99.2188-87.6953 106.494-82.3242Q113.77-76.9531 119.141-69.6533Q124.512-62.3535 127.466-53.6377Q130.42-44.9219 130.42-35.2539Q130.371-25.6348 127.441-16.8945Q124.512-8.1543 119.141-0.854492Q113.77 6.44531 106.494 11.792Q99.2188 17.1387 90.4785 20.0928Q81.7383 23.0469 72.0703 23.0469ZM64.3066-11.8164Q65.3809-11.8164 66.333-12.6953Q67.2852-13.5742 67.2852-15.4297L67.2852-55.0781Q67.2852-56.9824 66.333-57.8613Q65.3809-58.7402 64.3066-58.7402Q63.6719-58.7402 62.9639-58.4473Q62.2559-58.1543 61.8164-57.8613L27.6855-37.793Q27.002-37.4023 26.5869-36.792Q26.1719-36.1816 26.1719-35.3027Q26.1719-34.375 26.5869-33.7402Q27.002-33.1055 27.6855-32.7148L61.8164-12.6465Q62.2559-12.3535 62.9639-12.085Q63.6719-11.8164 64.3066-11.8164ZM105.273-11.8164Q106.445-11.8164 107.373-12.6953Q108.301-13.5742 108.301-15.4297L108.301-55.0781Q108.301-56.9824 107.373-57.8613Q106.445-58.7402 105.273-58.7402Q104.688-58.7402 103.979-58.4473Q103.271-58.1543 102.783-57.8613L68.7012-37.793Q68.0176-37.4023 67.5781-36.792Q67.1387-36.1816 67.1387-35.3027Q67.1387-34.375 67.5781-33.7402Q68.0176-33.1055 68.7012-32.7148L102.783-12.6465Q103.271-12.3535 103.979-12.085Q104.688-11.8164 105.273-11.8164Z"/>
  </g>
  <g id="Black-M" transform="matrix(1 0 0 1 2871.32 1126)">
   <path d="M62.0605 18.1152Q73.0957 18.1152 82.7637 13.9648Q92.4316 9.81445 99.7559 2.46582Q107.08-4.88281 111.255-14.5264Q115.43-24.1699 115.43-35.2051Q115.43-46.2402 111.255-55.8838Q107.08-65.5273 99.7559-72.876Q92.4316-80.2246 82.7637-84.375Q73.0957-88.5254 62.0605-88.5254Q51.0742-88.5254 41.4062-84.375Q31.7383-80.2246 24.3896-72.876Q17.041-65.5273 12.8906-55.8838Q8.74023-46.2402 8.74023-35.2051Q8.74023-24.1699 12.8906-14.5264Q17.041-4.88281 24.3896 2.46582Q31.7383 9.81445 41.4062 13.9648Q51.0742 18.1152 62.0605 18.1152ZM62.0605 0.732422Q54.6387 0.732422 48.1201-2.05078Q41.6016-4.83398 36.6455-9.76562Q31.6895-14.6973 28.9062-21.2158Q26.123-27.7344 26.123-35.2051Q26.123-42.6758 28.9062-49.1943Q31.6895-55.7129 36.6455-60.6445Q41.6016-65.5762 48.1201-68.3594Q54.6387-71.1426 62.0605-71.1426Q69.5312-71.1426 76.0498-68.3594Q82.5684-65.5762 87.5-60.6445Q92.4316-55.7129 95.2393-49.1943Q98.0469-42.6758 98.0469-35.2051Q98.0469-27.7344 95.2393-21.2158Q92.4316-14.6973 87.5-9.76562Q82.5684-4.83398 76.0498-2.05078Q69.5312 0.732422 62.0605 0.732422ZM55.0781-20.1172Q56.7383-20.1172 57.9834-21.3135Q59.2285-22.5098 59.2285-24.6582L59.2285-47.3145Q59.2285-49.4629 58.0078-50.6592Q56.7871-51.8555 55.127-51.8555Q54.2969-51.8555 53.54-51.6602Q52.7832-51.4648 52.0996-51.0742L33.252-40.0879Q31.9336-39.3555 31.0791-38.4277Q30.2246-37.5 30.2246-36.0352Q30.2246-34.5703 31.1035-33.5938Q31.9824-32.6172 33.252-31.8848L52.0996-20.8984Q52.7832-20.5078 53.5156-20.3125Q54.248-20.1172 55.0781-20.1172ZM83.8867-20.1172Q85.5957-20.1172 86.8652-21.3135Q88.1348-22.5098 88.1348-24.6582L88.1348-47.3145Q88.1348-49.4629 86.8896-50.6592Q85.6445-51.8555 83.9355-51.8555Q83.1543-51.8555 82.3975-51.6602Q81.6406-51.4648 80.9082-51.0742L62.0605-40.0879Q60.7422-39.3555 59.9365-38.4277Q59.1309-37.5 59.1309-36.0352Q59.1309-34.5703 59.9609-33.5938Q60.791-32.6172 62.0605-31.8848L80.9082-20.8984Q81.6406-20.5078 82.373-20.3125Q83.1055-20.1172 83.8867-20.1172Z"/>
  </g>
  <g id="Heavy-M" transform="matrix(1 0 0 1 2575.43 1126)">
   <path d="M61.2305 17.2852Q72.0703 17.2852 81.5918 13.1836Q91.1133 9.08203 98.3154 1.85547Q105.518-5.37109 109.644-14.8682Q113.77-24.3652 113.77-35.2051Q113.77-46.0449 109.644-55.542Q105.518-65.0391 98.3154-72.29Q91.1133-79.541 81.5918-83.6182Q72.0703-87.6953 61.2305-87.6953Q50.4395-87.6953 40.918-83.6182Q31.3965-79.541 24.1699-72.29Q16.9434-65.0391 12.8418-55.542Q8.74023-46.0449 8.74023-35.2051Q8.74023-24.3652 12.8418-14.8682Q16.9434-5.37109 24.1699 1.85547Q31.3965 9.08203 40.918 13.1836Q50.4395 17.2852 61.2305 17.2852ZM61.2305 2.05078Q53.5156 2.05078 46.7529-0.854492Q39.9902-3.75977 34.8633-8.8623Q29.7363-13.9648 26.8555-20.7275Q23.9746-27.4902 23.9746-35.2051Q23.9746-42.9688 26.8555-49.7314Q29.7363-56.4941 34.8633-61.5967Q39.9902-66.6992 46.7529-69.5801Q53.5156-72.4609 61.2305-72.4609Q68.9453-72.4609 75.708-69.5801Q82.4707-66.6992 87.5977-61.5967Q92.7246-56.4941 95.6299-49.7314Q98.5352-42.9688 98.5352-35.2051Q98.5352-27.4902 95.6299-20.7275Q92.7246-13.9648 87.6221-8.8623Q82.5195-3.75977 75.7568-0.854492Q68.9941 2.05078 61.2305 2.05078ZM54.2969-19.4824Q55.9082-19.4824 57.0801-20.6055Q58.252-21.7285 58.252-23.8281L58.252-47.7539Q58.252-49.8535 57.0801-51.001Q55.9082-52.1484 54.3457-52.1484Q53.5645-52.1484 52.832-51.9531Q52.0996-51.7578 51.416-51.3672L31.4941-39.7461Q30.2246-39.0137 29.4434-38.1104Q28.6621-37.207 28.6621-35.8398Q28.6621-34.5215 29.4678-33.5693Q30.2734-32.6172 31.4941-31.8848L51.416-20.2637Q52.0996-19.873 52.8076-19.6777Q53.5156-19.4824 54.2969-19.4824ZM83.6914-19.4824Q85.3516-19.4824 86.5479-20.6055Q87.7441-21.7285 87.7441-23.8281L87.7441-47.7539Q87.7441-49.8535 86.5479-51.001Q85.3516-52.1484 83.7402-52.1484Q83.0078-52.1484 82.2754-51.9531Q81.543-51.7578 80.8105-51.3672L60.8887-39.7461Q59.6191-39.0137 58.8867-38.1104Q58.1543-37.207 58.1543-35.8398Q58.1543-34.5215 58.9111-33.5693Q59.668-32.6172 60.8887-31.8848L80.8105-20.2637Q81.543-19.873 82.251-19.6777Q82.959-19.4824 83.6914-19.4824Z"/>
  </g>
  <g id="Bold-M" transform="matrix(1 0 0 1 2279.65 1126)">
   <path d="M60.3027 16.3574Q70.9473 16.3574 80.2734 12.3291Q89.5996 8.30078 96.7041 1.17188Q103.809-5.95703 107.861-15.2832Q111.914-24.6094 111.914-35.2539Q111.914-45.8496 107.861-55.1758Q103.809-64.502 96.7041-71.6309Q89.5996-78.7598 80.249-82.7881Q70.8984-86.8164 60.3027-86.8164Q49.707-86.8164 40.3564-82.7881Q31.0059-78.7598 23.9014-71.6309Q16.7969-64.502 12.7686-55.1758Q8.74023-45.8496 8.74023-35.2539Q8.74023-24.6094 12.7686-15.2832Q16.7969-5.95703 23.9258 1.17188Q31.0547 8.30078 40.3809 12.3291Q49.707 16.3574 60.3027 16.3574ZM60.3027 3.51562Q52.2949 3.51562 45.2637 0.488281Q38.2324-2.53906 32.9102-7.83691Q27.5879-13.1348 24.6094-20.166Q21.6309-27.1973 21.6309-35.2539Q21.6309-43.3105 24.6094-50.3174Q27.5879-57.3242 32.9102-62.6465Q38.2324-67.9688 45.2393-70.9717Q52.2461-73.9746 60.3027-73.9746Q68.3594-73.9746 75.3662-70.9717Q82.373-67.9688 87.6953-62.6465Q93.0176-57.3242 96.0449-50.3174Q99.0723-43.3105 99.0723-35.2539Q99.0723-27.1973 96.0693-20.166Q93.0664-13.1348 87.7441-7.83691Q82.4219-2.53906 75.3906 0.488281Q68.3594 3.51562 60.3027 3.51562ZM53.4668-18.75Q54.9805-18.75 56.0791-19.8242Q57.1777-20.8984 57.1777-22.9492L57.1777-48.291Q57.1777-50.3418 56.1035-51.416Q55.0293-52.4902 53.5156-52.4902Q52.7344-52.4902 52.0508-52.2949Q51.3672-52.0996 50.6836-51.709L29.6387-39.3555Q28.3691-38.623 27.6611-37.7441Q26.9531-36.8652 26.9531-35.6445Q26.9531-34.4238 27.6611-33.4961Q28.3691-32.5684 29.6387-31.8848L50.6836-19.5312Q51.3672-19.1406 52.0508-18.9453Q52.7344-18.75 53.4668-18.75ZM83.5449-18.75Q85.1074-18.75 86.2061-19.8242Q87.3047-20.8984 87.3047-22.9492L87.3047-48.291Q87.3047-50.3418 86.2061-51.416Q85.1074-52.4902 83.5938-52.4902Q82.8613-52.4902 82.1533-52.2949Q81.4453-52.0996 80.7617-51.709L59.668-39.3555Q58.4473-38.623 57.7637-37.7441Q57.0801-36.8652 57.0801-35.6445Q57.0801-34.4238 57.7637-33.4961Q58.4473-32.5684 59.668-31.8848L80.7617-19.5312Q81.4453-19.1406 82.1289-18.9453Q82.8125-18.75 83.5449-18.75Z"/>
  </g>
  <g id="Semibold-M" transform="matrix(1 0 0 1 1983.6 1126)">
   <path d="M59.668 15.6738Q70.1172 15.6738 79.3457 11.6943Q88.5742 7.71484 95.6055 0.683594Q102.637-6.34766 106.616-15.5518Q110.596-24.7559 110.596-35.2539Q110.596-45.7031 106.616-54.9072Q102.637-64.1113 95.6055-71.1426Q88.5742-78.1738 79.3457-82.1777Q70.1172-86.1816 59.6191-86.1816Q49.1699-86.1816 39.9658-82.1777Q30.7617-78.1738 23.7305-71.1426Q16.6992-64.1113 12.7197-54.9072Q8.74023-45.7031 8.74023-35.2539Q8.74023-24.7559 12.7197-15.5518Q16.6992-6.34766 23.7305 0.683594Q30.7617 7.71484 39.9902 11.6943Q49.2188 15.6738 59.668 15.6738ZM59.668 4.49219Q51.416 4.49219 44.2139 1.41602Q37.0117-1.66016 31.543-7.10449Q26.0742-12.5488 23.0225-19.751Q19.9707-26.9531 19.9707-35.2539Q19.9707-43.5059 23.0225-50.708Q26.0742-57.9102 31.5186-63.3789Q36.9629-68.8477 44.165-71.8994Q51.3672-74.9512 59.6191-74.9512Q67.9199-74.9512 75.1221-71.8994Q82.3242-68.8477 87.7686-63.3789Q93.2129-57.9102 96.3135-50.708Q99.4141-43.5059 99.4141-35.2539Q99.4141-26.9531 96.3379-19.751Q93.2617-12.5488 87.8174-7.10449Q82.373-1.66016 75.1465 1.41602Q67.9199 4.49219 59.668 4.49219ZM52.8809-18.2129Q54.3457-18.2129 55.3955-19.2627Q56.4453-20.3125 56.4453-22.3145L56.4453-48.6328Q56.4453-50.6348 55.4199-51.6846Q54.3945-52.7344 52.9297-52.7344Q52.1973-52.7344 51.5381-52.5391Q50.8789-52.3438 50.1953-51.9043L28.3203-39.1113Q27.0508-38.3789 26.416-37.5Q25.7812-36.6211 25.7812-35.498Q25.7812-34.375 26.416-33.4717Q27.0508-32.5684 28.3203-31.8359L50.1953-19.043Q50.8789-18.6035 51.5137-18.4082Q52.1484-18.2129 52.8809-18.2129ZM83.4473-18.2129Q84.9121-18.2129 85.9619-19.2627Q87.0117-20.3125 87.0117-22.3145L87.0117-48.6328Q87.0117-50.6348 85.9619-51.6846Q84.9121-52.7344 83.4473-52.7344Q82.7637-52.7344 82.0801-52.5391Q81.3965-52.3438 80.7129-51.9043L58.8379-39.1113Q57.6172-38.3789 56.9824-37.5Q56.3477-36.6211 56.3477-35.498Q56.3477-34.375 56.9824-33.4717Q57.6172-32.5684 58.8379-31.8359L80.7129-19.043Q81.3965-18.6035 82.0557-18.4082Q82.7148-18.2129 83.4473-18.2129Z"/>
  </g>
  <g id="Medium-M" transform="matrix(1 0 0 1 1687.38 1126)">
   <path d="M59.1797 15.1855Q69.5312 15.1855 78.6621 11.2305Q87.793 7.27539 94.751 0.317383Q101.709-6.64062 105.664-15.7715Q109.619-24.9023 109.619-35.2539Q109.619-45.6055 105.664-54.7363Q101.709-63.8672 94.751-70.8252Q87.793-77.7832 78.6377-81.7383Q69.4824-85.6934 59.1309-85.6934Q48.7793-85.6934 39.6484-81.7383Q30.5176-77.7832 23.584-70.8252Q16.6504-63.8672 12.6953-54.7363Q8.74023-45.6055 8.74023-35.2539Q8.74023-24.9023 12.6953-15.7715Q16.6504-6.64062 23.6084 0.317383Q30.5664 7.27539 39.6973 11.2305Q48.8281 15.1855 59.1797 15.1855ZM59.1797 5.27344Q50.7324 5.27344 43.4082 2.12402Q36.084-1.02539 30.5176-6.5918Q24.9512-12.1582 21.8262-19.4824Q18.7012-26.8066 18.7012-35.2539Q18.7012-43.7012 21.8262-51.0254Q24.9512-58.3496 30.4932-63.916Q36.0352-69.4824 43.3838-72.6074Q50.7324-75.7324 59.1309-75.7324Q67.5781-75.7324 74.9023-72.6074Q82.2266-69.4824 87.8174-63.916Q93.4082-58.3496 96.5576-51.0254Q99.707-43.7012 99.707-35.2539Q99.707-26.8066 96.582-19.4824Q93.457-12.1582 87.8906-6.5918Q82.3242-1.02539 74.9756 2.12402Q67.627 5.27344 59.1797 5.27344ZM52.4414-17.8223Q53.8574-17.8223 54.8584-18.8477Q55.8594-19.873 55.8594-21.8262L55.8594-48.9258Q55.8594-50.8789 54.8584-51.8799Q53.8574-52.8809 52.4414-52.8809Q51.709-52.8809 51.0742-52.6855Q50.4395-52.4902 49.7559-52.0996L27.2949-38.8672Q26.0254-38.1348 25.4395-37.2803Q24.8535-36.4258 24.8535-35.4004Q24.8535-34.3262 25.4639-33.4229Q26.0742-32.5195 27.2949-31.8359L49.7559-18.6523Q50.4395-18.2129 51.0742-18.0176Q51.709-17.8223 52.4414-17.8223ZM83.3008-17.8223Q84.7656-17.8223 85.7666-18.8477Q86.7676-19.873 86.7676-21.8262L86.7676-48.9258Q86.7676-50.8789 85.7666-51.8799Q84.7656-52.8809 83.3496-52.8809Q82.6172-52.8809 81.958-52.6855Q81.2988-52.4902 80.6152-52.0996L58.1543-38.8672Q56.9336-38.1348 56.3477-37.2803Q55.7617-36.4258 55.7617-35.4004Q55.7617-34.3262 56.3477-33.4229Q56.9336-32.5195 58.1543-31.8359L80.6152-18.6523Q81.2988-18.2129 81.958-18.0176Q82.6172-17.8223 83.3008-17.8223Z"/>
  </g>
  <g id="Regular-M" transform="matrix(1 0 0 1 1391.3 1126)">
   <path d="M58.5449 14.5508Q68.75 14.5508 77.7588 10.6445Q86.7676 6.73828 93.6523-0.146484Q100.537-7.03125 104.443-16.04Q108.35-25.0488 108.35-35.2539Q108.35-45.459 104.443-54.4678Q100.537-63.4766 93.6523-70.3613Q86.7676-77.2461 77.7344-81.1523Q68.7012-85.0586 58.4961-85.0586Q48.291-85.0586 39.2822-81.1523Q30.2734-77.2461 23.4131-70.3613Q16.5527-63.4766 12.6465-54.4678Q8.74023-45.459 8.74023-35.2539Q8.74023-25.0488 12.6465-16.04Q16.5527-7.03125 23.4375-0.146484Q30.3223 6.73828 39.3311 10.6445Q48.3398 14.5508 58.5449 14.5508ZM58.5449 6.25Q49.9023 6.25 42.3828 3.02734Q34.8633-0.195312 29.1748-5.88379Q23.4863-11.5723 20.2881-19.0918Q17.0898-26.6113 17.0898-35.2539Q17.0898-43.8965 20.2881-51.416Q23.4863-58.9355 29.1504-64.6484Q34.8145-70.3613 42.334-73.5596Q49.8535-76.7578 58.4961-76.7578Q67.1387-76.7578 74.6582-73.5596Q82.1777-70.3613 87.8906-64.6484Q93.6035-58.9355 96.8262-51.416Q100.049-43.8965 100.049-35.2539Q100.049-26.6113 96.8506-19.0918Q93.6523-11.5723 87.9639-5.88379Q82.2754-0.195312 74.7314 3.02734Q67.1875 6.25 58.5449 6.25ZM51.8555-17.334Q53.2227-17.334 54.1748-18.3105Q55.127-19.2871 55.127-21.1914L55.127-49.2676Q55.127-51.1719 54.1748-52.1484Q53.2227-53.125 51.8555-53.125Q51.1719-53.125 50.5615-52.9297Q49.9512-52.7344 49.2676-52.2949L25.9766-38.623Q24.7559-37.8906 24.2188-37.0361Q23.6816-36.1816 23.6816-35.2539Q23.6816-34.2773 24.2188-33.3984Q24.7559-32.5195 25.9766-31.8359L49.2676-18.1641Q49.9512-17.7246 50.5615-17.5293Q51.1719-17.334 51.8555-17.334ZM83.2031-17.334Q84.5703-17.334 85.5225-18.3105Q86.4746-19.2871 86.4746-21.1914L86.4746-49.2676Q86.4746-51.1719 85.5225-52.1484Q84.5703-53.125 83.2031-53.125Q82.5195-53.125 81.8848-52.9297Q81.25-52.7344 80.5664-52.2949L57.2754-38.623Q56.1035-37.8906 55.5664-37.0361Q55.0293-36.1816 55.0293-35.2539Q55.0293-34.2773 55.5664-33.3984Q56.1035-32.5195 57.2754-31.8359L80.5664-18.1641Q81.25-17.7246 81.8848-17.5293Q82.5195-17.334 83.2031-17.334Z"/>
  </g>
  <g id="Light-M" transform="matrix(1 0 0 1 1095.42 1126)">
   <path d="M57.7148 13.7207Q67.7734 13.7207 76.6357 9.8877Q85.498 6.05469 92.2607-0.708008Q99.0234-7.4707 102.856-16.333Q106.689-25.1953 106.689-35.2539Q106.689-45.3125 102.856-54.1748Q99.0234-63.0371 92.2607-69.7998Q85.498-76.5625 76.6113-80.3955Q67.7246-84.2285 57.666-84.2285Q47.6074-84.2285 38.7451-80.3955Q29.8828-76.5625 23.1445-69.7998Q16.4062-63.0371 12.5732-54.1748Q8.74023-45.3125 8.74023-35.2539Q8.74023-25.1953 12.5732-16.333Q16.4062-7.4707 23.1689-0.708008Q29.9316 6.05469 38.7939 9.8877Q47.6562 13.7207 57.7148 13.7207ZM57.7148 7.37305Q48.877 7.37305 41.1377 4.07715Q33.3984 0.78125 27.5391-5.07812Q21.6797-10.9375 18.3838-18.6768Q15.0879-26.416 15.0879-35.2539Q15.0879-44.0918 18.3838-51.8311Q21.6797-59.5703 27.5391-65.4541Q33.3984-71.3379 41.1133-74.6338Q48.8281-77.9297 57.666-77.9297Q66.5527-77.9297 74.2676-74.6338Q81.9824-71.3379 87.8662-65.4541Q93.75-59.5703 97.0703-51.8311Q100.391-44.0918 100.391-35.2539Q100.391-26.416 97.0703-18.6768Q93.75-10.9375 87.915-5.07812Q82.0801 0.78125 74.3408 4.07715Q66.6016 7.37305 57.7148 7.37305ZM51.2695-17.2852Q52.4414-17.2852 53.3447-18.1641Q54.248-19.043 54.248-20.8008L54.248-49.707Q54.248-51.4648 53.3447-52.3438Q52.4414-53.2227 51.2695-53.2227Q50.6348-53.2227 50.0488-53.0273Q49.4629-52.832 48.877-52.4414L24.6094-38.1836Q23.584-37.5977 23.1201-36.8652Q22.6562-36.1328 22.6562-35.2539Q22.6562-34.375 23.1201-33.6182Q23.584-32.8613 24.6094-32.3242L48.877-18.0664Q49.4629-17.6758 50.0488-17.4805Q50.6348-17.2852 51.2695-17.2852ZM82.7148-17.2852Q83.9355-17.2852 84.8145-18.1641Q85.6934-19.043 85.6934-20.8008L85.6934-49.707Q85.6934-51.4648 84.8145-52.3438Q83.9355-53.2227 82.7148-53.2227Q82.1289-53.2227 81.5186-53.0273Q80.9082-52.832 80.3223-52.4414L56.0547-38.1836Q55.0781-37.5977 54.5898-36.8652Q54.1016-36.1328 54.1016-35.2539Q54.1016-34.375 54.5898-33.6182Q55.0781-32.8613 56.0547-32.3242L80.3223-18.0664Q80.9082-17.6758 81.5186-17.4805Q82.1289-17.2852 82.7148-17.2852Z"/>
  </g>
  <g id="Thin-M" transform="matrix(1 0 0 1 799.782 1126)">
   <path d="M56.5918 12.5977Q66.5039 12.5977 75.1709 8.88672Q83.8379 5.17578 90.4297-1.44043Q97.0215-8.05664 100.781-16.7236Q104.541-25.3906 104.541-35.2539Q104.541-45.1172 100.781-53.7842Q97.0215-62.4512 90.4297-69.0674Q83.8379-75.6836 75.1709-79.3945Q66.5039-83.1055 56.5918-83.1055Q46.7285-83.1055 38.0615-79.3945Q29.3945-75.6836 22.8271-69.0674Q16.2598-62.4512 12.5-53.7842Q8.74023-45.1172 8.74023-35.2539Q8.74023-25.3906 12.4756-16.7236Q16.2109-8.05664 22.8027-1.44043Q29.3945 5.17578 38.0859 8.88672Q46.7773 12.5977 56.5918 12.5977ZM56.5918 8.88672Q47.4609 8.88672 39.4775 5.44434Q31.4941 2.00195 25.415-4.05273Q19.3359-10.1074 15.918-18.1152Q12.5-26.123 12.5-35.2539Q12.5-44.3848 15.918-52.3926Q19.3359-60.4004 25.415-66.4795Q31.4941-72.5586 39.4775-76.001Q47.4609-79.4434 56.5918-79.4434Q65.7715-79.4434 73.7549-76.001Q81.7383-72.5586 87.8174-66.4795Q93.8965-60.4004 97.3389-52.3926Q100.781-44.3848 100.781-35.2539Q100.781-26.123 97.3633-18.1152Q93.9453-10.1074 87.8662-4.05273Q81.7871 2.00195 73.7793 5.44434Q65.7715 8.88672 56.5918 8.88672ZM50.3906-17.0898Q51.3672-17.0898 52.1729-17.8711Q52.9785-18.6523 52.9785-20.2148L52.9785-50.1953Q52.9785-51.8066 52.1729-52.5635Q51.3672-53.3203 50.3906-53.3203Q49.8535-53.3203 49.292-53.1006Q48.7305-52.8809 48.291-52.6367L22.7051-37.5977Q22.0215-37.1582 21.6309-36.5723Q21.2402-35.9863 21.2402-35.2539Q21.2402-34.4727 21.6309-33.8623Q22.0215-33.252 22.7051-32.8613L48.291-17.8223Q48.7305-17.5781 49.292-17.334Q49.8535-17.0898 50.3906-17.0898ZM82.0312-17.0898Q83.0566-17.0898 83.8379-17.8711Q84.6191-18.6523 84.6191-20.2148L84.6191-50.1953Q84.6191-51.8066 83.8379-52.5635Q83.0566-53.3203 82.0312-53.3203Q81.543-53.3203 80.957-53.1006Q80.3711-52.8809 79.9316-52.6367L54.3945-37.5977Q53.6621-37.1582 53.2715-36.5723Q52.8809-35.9863 52.8809-35.2539Q52.8809-34.4727 53.2715-33.8623Q53.6621-33.252 54.3945-32.8613L79.9316-17.8223Q80.3711-17.5781 80.957-17.334Q81.543-17.0898 82.0312-17.0898Z"/>
  </g>
  <g id="Ultralight-M" transform="matrix(1 0 0 1 503.632 1126)">
   <path d="M56.0547 12.0605Q65.8203 12.0605 74.3896 8.37402Q82.959 4.6875 89.4775-1.83105Q95.9961-8.34961 99.707-16.9189Q103.418-25.4883 103.418-35.2539Q103.418-45.0195 99.707-53.5889Q95.9961-62.1582 89.4775-68.6768Q82.959-75.1953 74.3896-78.8818Q65.8203-82.5684 56.0547-82.5684Q46.2891-82.5684 37.7197-78.8818Q29.1504-75.1953 22.6562-68.6768Q16.1621-62.1582 12.4512-53.5889Q8.74023-45.0195 8.74023-35.2539Q8.74023-25.4883 12.4268-16.9189Q16.1133-8.34961 22.6318-1.83105Q29.1504 4.6875 37.7197 8.37402Q46.2891 12.0605 56.0547 12.0605ZM56.0547 9.66797Q46.7773 9.66797 38.6475 6.17676Q30.5176 2.68555 24.3164-3.49121Q18.1152-9.66797 14.624-17.8223Q11.1328-25.9766 11.1328-35.2539Q11.1328-44.5312 14.624-52.6855Q18.1152-60.8398 24.3164-67.041Q30.5176-73.2422 38.6475-76.7334Q46.7773-80.2246 56.0547-80.2246Q65.3809-80.2246 73.5107-76.7334Q81.6406-73.2422 87.8174-67.041Q93.9941-60.8398 97.5098-52.6855Q101.025-44.5312 101.025-35.2539Q101.025-25.9766 97.5098-17.8223Q93.9941-9.66797 87.8174-3.49121Q81.6406 2.68555 73.5107 6.17676Q65.3809 9.66797 56.0547 9.66797ZM50-17.0898Q50.8789-17.0898 51.6357-17.7979Q52.3926-18.5059 52.3926-19.9707L52.3926-50.4883Q52.3926-52.002 51.6357-52.71Q50.8789-53.418 50-53.418Q49.5117-53.418 48.9746-53.1982Q48.4375-52.9785 47.998-52.7344L21.8262-37.3047Q21.2402-37.0117 20.8984-36.4746Q20.5566-35.9375 20.5566-35.2539Q20.5566-34.5703 20.8984-34.0576Q21.2402-33.5449 21.8262-33.2031L47.998-17.7734Q48.4375-17.5293 48.9746-17.3096Q49.5117-17.0898 50-17.0898ZM81.6895-17.0898Q82.666-17.0898 83.3984-17.7979Q84.1309-18.5059 84.1309-19.9707L84.1309-50.4883Q84.1309-52.002 83.3984-52.71Q82.666-53.418 81.6895-53.418Q81.25-53.418 80.7129-53.1982Q80.1758-52.9785 79.7363-52.7344L53.5645-37.3047Q52.9785-37.0117 52.6123-36.4746Q52.2461-35.9375 52.2461-35.2539Q52.2461-34.5703 52.6123-34.0576Q52.9785-33.5449 53.5645-33.2031L79.7363-17.7734Q80.1758-17.5293 80.7129-17.3096Q81.25-17.0898 81.6895-17.0898Z"/>
  </g>
  <g id="Black-S" transform="matrix(1 0 0 1 2884.57 696)">
   <path d="M48.8281 6.78711Q57.5195 6.78711 65.1123 3.51562Q72.7051 0.244141 78.4912-5.54199Q84.2773-11.3281 87.5488-18.9209Q90.8203-26.5137 90.8203-35.2051Q90.8203-43.8965 87.5488-51.4893Q84.2773-59.082 78.4912-64.8682Q72.7051-70.6543 65.1123-73.9258Q57.5195-77.1973 48.8281-77.1973Q40.1367-77.1973 32.5439-73.9258Q24.9512-70.6543 19.165-64.8682Q13.3789-59.082 10.1074-51.4893Q6.83594-43.8965 6.83594-35.2051Q6.83594-26.5137 10.1074-18.9209Q13.3789-11.3281 19.165-5.54199Q24.9512 0.244141 32.5439 3.51562Q40.1367 6.78711 48.8281 6.78711ZM48.8281-7.37305Q43.0664-7.37305 38.0127-9.5459Q32.959-11.7188 29.1504-15.5273Q25.3418-19.3359 23.1689-24.3896Q20.9961-29.4434 20.9961-35.2051Q20.9961-40.9668 23.1689-46.0205Q25.3418-51.0742 29.1504-54.8828Q32.959-58.6914 38.0127-60.8643Q43.0664-63.0371 48.8281-63.0371Q54.5898-63.0371 59.6436-60.8643Q64.6973-58.6914 68.5059-54.8828Q72.3145-51.0742 74.4873-46.0205Q76.6602-40.9668 76.6602-35.2051Q76.6602-29.4434 74.4873-24.3896Q72.3145-19.3359 68.5059-15.5273Q64.6973-11.7188 59.6436-9.5459Q54.5898-7.37305 48.8281-7.37305ZM43.3105-23.584Q44.6289-23.584 45.6299-24.5361Q46.6309-25.4883 46.6309-27.1973L46.6309-44.5801Q46.6309-46.2891 45.6543-47.2412Q44.6777-48.1934 43.3594-48.1934Q42.7246-48.1934 42.1143-48.0469Q41.5039-47.9004 40.9668-47.5586L26.4648-39.1113Q25.4395-38.5742 24.7559-37.8418Q24.0723-37.1094 24.0723-35.9375Q24.0723-34.7656 24.7803-33.9844Q25.4883-33.2031 26.4648-32.666L40.9668-24.2188Q41.5039-23.877 42.0898-23.7305Q42.6758-23.584 43.3105-23.584ZM65.7227-23.584Q67.0898-23.584 68.0908-24.5361Q69.0918-25.4883 69.0918-27.1973L69.0918-44.5801Q69.0918-46.2891 68.1152-47.2412Q67.1387-48.1934 65.7715-48.1934Q65.1367-48.1934 64.5508-48.0469Q63.9648-47.9004 63.3789-47.5586L48.877-39.1113Q47.8516-38.5742 47.1924-37.8418Q46.5332-37.1094 46.5332-35.9375Q46.5332-34.7656 47.2168-33.9844Q47.9004-33.2031 48.877-32.666L63.3789-24.2188Q63.9648-23.877 64.5264-23.7305Q65.0879-23.584 65.7227-23.584Z"/>
  </g>
  <g id="Heavy-S" transform="matrix(1 0 0 1 2588.47 696)">
   <path d="M48.1934 6.15234Q56.7871 6.15234 64.2578 2.92969Q71.7285-0.292969 77.4414-6.00586Q83.1543-11.7188 86.377-19.1895Q89.5996-26.6602 89.5996-35.2051Q89.5996-43.75 86.377-51.2451Q83.1543-58.7402 77.4414-64.4531Q71.7285-70.166 64.2334-73.3887Q56.7383-76.6113 48.1934-76.6113Q39.6484-76.6113 32.1777-73.3887Q24.707-70.166 18.9941-64.4531Q13.2812-58.7402 10.0586-51.2451Q6.83594-43.75 6.83594-35.2051Q6.83594-26.6602 10.0586-19.1895Q13.2812-11.7188 18.9941-6.00586Q24.707-0.292969 32.2021 2.92969Q39.6973 6.15234 48.1934 6.15234ZM48.1934-6.39648Q42.2363-6.39648 37.0117-8.64258Q31.7871-10.8887 27.8564-14.8438Q23.9258-18.7988 21.6797-24.0234Q19.4336-29.248 19.4336-35.2051Q19.4336-41.1621 21.6553-46.4111Q23.877-51.6602 27.832-55.5908Q31.7871-59.5215 37.0117-61.7676Q42.2363-64.0137 48.1934-64.0137Q54.1992-64.0137 59.4238-61.7676Q64.6484-59.5215 68.5791-55.5908Q72.5098-51.6602 74.7803-46.4111Q77.0508-41.1621 77.0508-35.2051Q77.0508-29.248 74.8047-24.0234Q72.5586-18.7988 68.6035-14.8438Q64.6484-10.8887 59.4238-8.64258Q54.1992-6.39648 48.1934-6.39648ZM42.7734-23.0469Q44.043-23.0469 44.9951-23.9502Q45.9473-24.8535 45.9473-26.5625L45.9473-44.9219Q45.9473-46.582 45.0195-47.5098Q44.0918-48.4375 42.8223-48.4375Q42.1875-48.4375 41.6016-48.291Q41.0156-48.1445 40.4785-47.8027L25.1953-38.8672Q24.1699-38.3301 23.5352-37.5977Q22.9004-36.8652 22.9004-35.791Q22.9004-34.7168 23.5596-33.9355Q24.2188-33.1543 25.1953-32.6172L40.4785-23.6816Q41.0156-23.3398 41.5771-23.1934Q42.1387-23.0469 42.7734-23.0469ZM65.6738-23.0469Q66.9922-23.0469 67.9443-23.9502Q68.8965-24.8535 68.8965-26.5625L68.8965-44.9219Q68.8965-46.582 67.9443-47.5098Q66.9922-48.4375 65.7227-48.4375Q65.0879-48.4375 64.5264-48.291Q63.9648-48.1445 63.3789-47.8027L48.0957-38.8672Q47.0703-38.3301 46.46-37.5977Q45.8496-36.8652 45.8496-35.791Q45.8496-34.7168 46.4844-33.9355Q47.1191-33.1543 48.0957-32.6172L63.3789-23.6816Q63.9648-23.3398 64.502-23.1934Q65.0391-23.0469 65.6738-23.0469Z"/>
  </g>
  <g id="Bold-S" transform="matrix(1 0 0 1 2292.42 696)">
   <path d="M47.5586 5.46875Q55.957 5.46875 63.3057 2.29492Q70.6543-0.878906 76.2695-6.51855Q81.8848-12.1582 85.083-19.5068Q88.2812-26.8555 88.2812-35.2539Q88.2812-43.6035 85.083-50.9766Q81.8848-58.3496 76.2695-63.9648Q70.6543-69.5801 63.2812-72.7539Q55.9082-75.9277 47.5098-75.9277Q39.1602-75.9277 31.7871-72.7539Q24.4141-69.5801 18.8232-63.9648Q13.2324-58.3496 10.0342-50.9766Q6.83594-43.6035 6.83594-35.2539Q6.83594-26.8555 10.0342-19.5068Q13.2324-12.1582 18.8477-6.51855Q24.4629-0.878906 31.8115 2.29492Q39.1602 5.46875 47.5586 5.46875ZM47.5586-5.32227Q41.3574-5.32227 35.9375-7.6416Q30.5176-9.96094 26.416-14.0625Q22.3145-18.1641 19.9951-23.6084Q17.6758-29.0527 17.6758-35.2539Q17.6758-41.4551 19.9951-46.875Q22.3145-52.2949 26.3916-56.3965Q30.4688-60.498 35.8887-62.8174Q41.3086-65.1367 47.5098-65.1367Q53.7598-65.1367 59.1797-62.8174Q64.5996-60.498 68.7012-56.3965Q72.8027-52.2949 75.1221-46.875Q77.4414-41.4551 77.4414-35.2539Q77.4414-29.0527 75.1221-23.6084Q72.8027-18.1641 68.7256-14.0625Q64.6484-9.96094 59.2041-7.6416Q53.7598-5.32227 47.5586-5.32227ZM42.1387-22.4609Q43.3594-22.4609 44.2627-23.3398Q45.166-24.2188 45.166-25.8301L45.166-45.3125Q45.166-46.9727 44.2871-47.8516Q43.4082-48.7305 42.1875-48.7305Q41.6016-48.7305 41.04-48.584Q40.4785-48.4375 39.8926-48.0469L23.7793-38.623Q22.7539-38.0371 22.168-37.3047Q21.582-36.5723 21.582-35.5957Q21.582-34.6191 22.168-33.8623Q22.7539-33.1055 23.7793-32.5195L39.8926-23.0957Q40.4785-22.7539 41.0156-22.6074Q41.5527-22.4609 42.1387-22.4609ZM65.625-22.4609Q66.8457-22.4609 67.749-23.3398Q68.6523-24.2188 68.6523-25.8301L68.6523-45.3125Q68.6523-46.9727 67.7734-47.8516Q66.8945-48.7305 65.625-48.7305Q65.0391-48.7305 64.4775-48.584Q63.916-48.4375 63.3301-48.0469L47.2168-38.623Q46.1914-38.0371 45.6299-37.3047Q45.0684-36.5723 45.0684-35.5957Q45.0684-34.6191 45.6299-33.8623Q46.1914-33.1055 47.2168-32.5195L63.3301-23.0957Q63.916-22.7539 64.4531-22.6074Q64.9902-22.4609 65.625-22.4609Z"/>
  </g>
  <g id="Semibold-S" transform="matrix(1 0 0 1 1996.2 696)">
   <path d="M47.0703 4.98047Q55.3711 4.98047 62.6465 1.85547Q69.9219-1.26953 75.4639-6.86035Q81.0059-12.4512 84.1553-19.7266Q87.3047-27.002 87.3047-35.2539Q87.3047-43.5059 84.1553-50.7812Q81.0059-58.0566 75.4395-63.623Q69.873-69.1895 62.5977-72.3389Q55.3223-75.4883 47.0215-75.4883Q38.7695-75.4883 31.4941-72.3389Q24.2188-69.1895 18.6768-63.623Q13.1348-58.0566 9.98535-50.7812Q6.83594-43.5059 6.83594-35.2539Q6.83594-27.002 9.98535-19.7266Q13.1348-12.4512 18.7012-6.86035Q24.2676-1.26953 31.543 1.85547Q38.8184 4.98047 47.0703 4.98047ZM47.0703-4.58984Q40.7227-4.58984 35.1562-6.95801Q29.5898-9.32617 25.3906-13.5254Q21.1914-17.7246 18.8232-23.291Q16.4551-28.8574 16.4551-35.2539Q16.4551-41.6016 18.8232-47.168Q21.1914-52.7344 25.3662-56.9336Q29.541-61.1328 35.1074-63.5254Q40.6738-65.918 47.0215-65.918Q53.418-65.918 58.9844-63.5254Q64.5508-61.1328 68.75-56.9336Q72.9492-52.7344 75.3418-47.168Q77.7344-41.6016 77.7344-35.2539Q77.7344-28.8574 75.3662-23.291Q72.998-17.7246 68.7988-13.5254Q64.5996-9.32617 59.0332-6.95801Q53.4668-4.58984 47.0703-4.58984ZM41.6992-21.9727Q42.8711-21.9727 43.7256-22.8271Q44.5801-23.6816 44.5801-25.293L44.5801-45.5078Q44.5801-47.1191 43.7256-47.9736Q42.8711-48.8281 41.6992-48.8281Q41.1621-48.8281 40.6006-48.6816Q40.0391-48.5352 39.502-48.1934L22.7539-38.3789Q21.7285-37.793 21.1914-37.0605Q20.6543-36.3281 20.6543-35.4004Q20.6543-34.5215 21.1914-33.7646Q21.7285-33.0078 22.7539-32.4219L39.502-22.6074Q40.0391-22.2656 40.5762-22.1191Q41.1133-21.9727 41.6992-21.9727ZM65.5273-21.9727Q66.748-21.9727 67.6025-22.8271Q68.457-23.6816 68.457-25.293L68.457-45.5078Q68.457-47.1191 67.6025-47.9736Q66.748-48.8281 65.5273-48.8281Q64.9414-48.8281 64.4043-48.6816Q63.8672-48.5352 63.2812-48.1934L46.582-38.3789Q45.5566-37.793 45.0195-37.0605Q44.4824-36.3281 44.4824-35.4004Q44.4824-34.5215 45.0195-33.7646Q45.5566-33.0078 46.582-32.4219L63.2812-22.6074Q63.8672-22.2656 64.4043-22.1191Q64.9414-21.9727 65.5273-21.9727Z"/>
  </g>
  <g id="Medium-S" transform="matrix(1 0 0 1 1699.83 696)">
   <path d="M46.7285 4.63867Q54.9316 4.63867 62.1338 1.51367Q69.3359-1.61133 74.8535-7.12891Q80.3711-12.6465 83.4961-19.8486Q86.6211-27.0508 86.6211-35.2539Q86.6211-43.4082 83.4961-50.6348Q80.3711-57.8613 74.8291-63.3789Q69.2871-68.8965 62.085-71.9971Q54.8828-75.0977 46.6797-75.0977Q38.4766-75.0977 31.2744-71.9971Q24.0723-68.8965 18.5791-63.3789Q13.0859-57.8613 9.96094-50.6348Q6.83594-43.4082 6.83594-35.2539Q6.83594-27.0508 9.96094-19.8486Q13.0859-12.6465 18.6035-7.12891Q24.1211-1.61133 31.3232 1.51367Q38.5254 4.63867 46.7285 4.63867ZM46.7285-4.00391Q40.2344-4.00391 34.5703-6.4209Q28.9062-8.83789 24.6338-13.1348Q20.3613-17.4316 17.9443-23.0957Q15.5273-28.7598 15.5273-35.2539Q15.5273-41.748 17.9199-47.4121Q20.3125-53.0762 24.585-57.373Q28.8574-61.6699 34.5215-64.0869Q40.1855-66.5039 46.6797-66.5039Q53.1738-66.5039 58.8379-64.0869Q64.502-61.6699 68.7988-57.373Q73.0957-53.0762 75.5127-47.4121Q77.9297-41.748 77.9297-35.2539Q77.9297-28.7598 75.5127-23.0957Q73.0957-17.4316 68.8477-13.1348Q64.5996-8.83789 58.9111-6.4209Q53.2227-4.00391 46.7285-4.00391ZM41.3574-21.6309Q42.5293-21.6309 43.3594-22.4854Q44.1895-23.3398 44.1895-24.9023L44.1895-45.752Q44.1895-47.3145 43.3594-48.1445Q42.5293-48.9746 41.3574-48.9746Q40.8203-48.9746 40.2832-48.8281Q39.7461-48.6816 39.209-48.291L22.0215-38.2812Q20.9961-37.6465 20.4834-36.9141Q19.9707-36.1816 19.9707-35.3516Q19.9707-34.4727 20.4834-33.7402Q20.9961-33.0078 22.0215-32.373L39.209-22.2656Q39.7461-21.9238 40.2832-21.7773Q40.8203-21.6309 41.3574-21.6309ZM65.5273-21.6309Q66.6504-21.6309 67.4805-22.4854Q68.3105-23.3398 68.3105-24.9023L68.3105-45.752Q68.3105-47.3145 67.5049-48.1445Q66.6992-48.9746 65.5273-48.9746Q64.9414-48.9746 64.4043-48.8281Q63.8672-48.6816 63.2812-48.291L46.0938-38.2812Q45.0684-37.6465 44.5801-36.9141Q44.0918-36.1816 44.0918-35.3516Q44.0918-34.4727 44.5801-33.7402Q45.0684-33.0078 46.0938-32.373L63.2812-22.2656Q63.8672-21.9238 64.3799-21.7773Q64.8926-21.6309 65.5273-21.6309Z"/>
  </g>
  <g id="Regular-S" transform="matrix(1 0 0 1 1403.58 696)">
   <path d="M46.2402 4.15039Q54.3457 4.15039 61.4746 1.07422Q68.6035-2.00195 74.0479-7.4707Q79.4922-12.9395 82.5928-20.0684Q85.6934-27.1973 85.6934-35.2539Q85.6934-43.3105 82.5928-50.4395Q79.4922-57.5684 74.0234-63.0371Q68.5547-68.5059 61.4258-71.582Q54.2969-74.6582 46.1914-74.6582Q38.1348-74.6582 31.0059-71.582Q23.877-68.5059 18.457-63.0371Q13.0371-57.5684 9.93652-50.4395Q6.83594-43.3105 6.83594-35.2539Q6.83594-27.1973 9.93652-20.0684Q13.0371-12.9395 18.4814-7.4707Q23.9258-2.00195 31.0547 1.07422Q38.1836 4.15039 46.2402 4.15039ZM46.2402-3.27148Q39.5996-3.27148 33.8135-5.7373Q28.0273-8.20312 23.6572-12.5977Q19.2871-16.9922 16.8213-22.8027Q14.3555-28.6133 14.3555-35.2539Q14.3555-41.8945 16.7969-47.7051Q19.2383-53.5156 23.6084-57.9102Q27.9785-62.3047 33.7646-64.7705Q39.5508-67.2363 46.1914-67.2363Q52.8809-67.2363 58.667-64.7705Q64.4531-62.3047 68.8477-57.9102Q73.2422-53.5156 75.7324-47.7051Q78.2227-41.8945 78.2227-35.2539Q78.2227-28.6133 75.7568-22.8027Q73.291-16.9922 68.9209-12.5977Q64.5508-8.20312 58.7402-5.7373Q52.9297-3.27148 46.2402-3.27148ZM40.918-21.2402Q42.041-21.2402 42.8223-22.0459Q43.6035-22.8516 43.6035-24.4141L43.6035-45.9961Q43.6035-47.5586 42.8223-48.3643Q42.041-49.1699 40.918-49.1699Q40.3809-49.1699 39.8682-49.0234Q39.3555-48.877 38.7695-48.4863L20.9961-38.0859Q19.9707-37.4512 19.5068-36.7188Q19.043-35.9863 19.043-35.2051Q19.043-34.4238 19.5068-33.6914Q19.9707-32.959 20.9961-32.3242L38.7695-21.875Q39.3555-21.5332 39.8682-21.3867Q40.3809-21.2402 40.918-21.2402ZM65.4297-21.2402Q66.5527-21.2402 67.334-22.0459Q68.1152-22.8516 68.1152-24.4141L68.1152-45.9961Q68.1152-47.5586 67.334-48.3643Q66.5527-49.1699 65.4297-49.1699Q64.8438-49.1699 64.3311-49.0234Q63.8184-48.877 63.2324-48.4863L45.459-38.0859Q44.4336-37.4512 43.9697-36.7188Q43.5059-35.9863 43.5059-35.2051Q43.5059-34.4238 43.9697-33.6914Q44.4336-32.959 45.459-32.3242L63.2324-21.875Q63.8184-21.5332 64.3311-21.3867Q64.8438-21.2402 65.4297-21.2402Z"/>
  </g>
  <g id="Light-S" transform="matrix(1 0 0 1 1107.6 696)">
   <path d="M45.5078 3.41797Q53.4668 3.41797 60.4736 0.415039Q67.4805-2.58789 72.8271-7.95898Q78.1738-13.3301 81.2012-20.3125Q84.2285-27.2949 84.2285-35.2539Q84.2285-43.2129 81.2012-50.1953Q78.1738-57.1777 72.8027-62.5488Q67.4316-67.9199 60.4492-70.9229Q53.4668-73.9258 45.459-73.9258Q37.5488-73.9258 30.542-70.9229Q23.5352-67.9199 18.2129-62.5488Q12.8906-57.1777 9.86328-50.1953Q6.83594-43.2129 6.83594-35.2539Q6.83594-27.2949 9.86328-20.3125Q12.8906-13.3301 18.2373-7.95898Q23.584-2.58789 30.5908 0.415039Q37.5977 3.41797 45.5078 3.41797ZM45.5078-2.29492Q38.6719-2.29492 32.6904-4.83398Q26.709-7.37305 22.1924-11.9141Q17.6758-16.4551 15.1367-22.4365Q12.5977-28.418 12.5977-35.2539Q12.5977-42.0898 15.1367-48.0713Q17.6758-54.0527 22.1924-58.5938Q26.709-63.1348 32.666-65.6738Q38.623-68.2129 45.459-68.2129Q52.3438-68.2129 58.3252-65.6738Q64.3066-63.1348 68.8232-58.5938Q73.3398-54.0527 75.9277-48.0713Q78.5156-42.0898 78.5156-35.2539Q78.5156-28.418 75.9521-22.4365Q73.3887-16.4551 68.8721-11.9141Q64.3555-7.37305 58.374-4.83398Q52.3926-2.29492 45.5078-2.29492ZM40.3809-21.1914Q41.3574-21.1914 42.0654-21.9238Q42.7734-22.6562 42.7734-24.0723L42.7734-46.3867Q42.7734-47.8027 42.0654-48.5352Q41.3574-49.2676 40.3809-49.2676Q39.8438-49.2676 39.3799-49.1211Q38.916-48.9746 38.3789-48.6328L19.7754-37.6953Q18.9453-37.207 18.5303-36.5723Q18.1152-35.9375 18.1152-35.2539Q18.1152-34.5215 18.5303-33.8867Q18.9453-33.252 19.7754-32.7637L38.3789-21.7773Q38.916-21.4844 39.3799-21.3379Q39.8438-21.1914 40.3809-21.1914ZM64.9902-21.1914Q65.9668-21.1914 66.6992-21.9238Q67.4316-22.6562 67.4316-24.0723L67.4316-46.3867Q67.4316-47.8027 66.6992-48.5352Q65.9668-49.2676 64.9902-49.2676Q64.4531-49.2676 63.9648-49.1211Q63.4766-48.9746 62.9883-48.6328L44.3848-37.6953Q43.5059-37.207 43.0908-36.5723Q42.6758-35.9375 42.6758-35.2539Q42.6758-34.5215 43.0908-33.8867Q43.5059-33.252 44.3848-32.7637L62.9883-21.7773Q63.4766-21.4844 63.9648-21.3379Q64.4531-21.1914 64.9902-21.1914Z"/>
  </g>
  <g id="Thin-S" transform="matrix(1 0 0 1 811.867 696)">
   <path d="M44.5312 2.44141Q52.3438 2.44141 59.1553-0.488281Q65.9668-3.41797 71.1914-8.64258Q76.416-13.8672 79.3457-20.6787Q82.2754-27.4902 82.2754-35.2539Q82.2754-43.0176 79.3457-49.8291Q76.416-56.6406 71.1914-61.8652Q65.9668-67.0898 59.1553-70.0195Q52.3438-72.9492 44.5312-72.9492Q36.7676-72.9492 29.9316-70.0195Q23.0957-67.0898 17.9199-61.8652Q12.7441-56.6406 9.79004-49.8291Q6.83594-43.0176 6.83594-35.2539Q6.83594-27.4902 9.79004-20.6787Q12.7441-13.8672 17.9199-8.64258Q23.0957-3.41797 29.9316-0.488281Q36.7676 2.44141 44.5312 2.44141ZM44.5312-0.927734Q37.4512-0.927734 31.2256-3.58887Q25-6.25 20.2881-10.9619Q15.5762-15.6738 12.915-21.9238Q10.2539-28.1738 10.2539-35.2539Q10.2539-42.334 12.915-48.584Q15.5762-54.834 20.2881-59.5459Q25-64.2578 31.2256-66.9189Q37.4512-69.5801 44.5312-69.5801Q51.6602-69.5801 57.8857-66.9189Q64.1113-64.2578 68.8232-59.5459Q73.5352-54.834 76.1963-48.584Q78.8574-42.334 78.8574-35.2539Q78.8574-28.1738 76.1963-21.9238Q73.5352-15.6738 68.8232-10.9619Q64.1113-6.25 57.8857-3.58887Q51.6602-0.927734 44.5312-0.927734ZM39.6484-21.0449Q40.4785-21.0449 41.1133-21.6797Q41.748-22.3145 41.748-23.5352L41.748-46.8262Q41.748-48.0957 41.1133-48.7305Q40.4785-49.3652 39.6484-49.3652Q39.1602-49.3652 38.7207-49.1943Q38.2812-49.0234 37.9395-48.7793L18.1641-37.1582Q17.5293-36.8164 17.2119-36.3281Q16.8945-35.8398 16.8945-35.2051Q16.8945-34.5703 17.2119-34.082Q17.5293-33.5938 18.1641-33.252L37.9395-21.6309Q38.2812-21.3867 38.7207-21.2158Q39.1602-21.0449 39.6484-21.0449ZM64.4043-21.0449Q65.2344-21.0449 65.8691-21.6797Q66.5039-22.3145 66.5039-23.5352L66.5039-46.8262Q66.5039-48.0957 65.8691-48.7305Q65.2344-49.3652 64.4043-49.3652Q63.9648-49.3652 63.5254-49.1943Q63.0859-49.0234 62.6465-48.7793L42.9199-37.1582Q42.2852-36.8164 41.9678-36.3281Q41.6504-35.8398 41.6504-35.2051Q41.6504-34.5703 41.9678-34.082Q42.2852-33.5938 42.9199-33.252L62.6465-21.6309Q63.0859-21.3867 63.5254-21.2158Q63.9648-21.0449 64.4043-21.0449Z"/>
  </g>
  <g id="Ultralight-S" transform="matrix(1 0 0 1 515.644 696)">
   <path d="M44.043 1.95312Q51.7578 1.95312 58.4717-0.927734Q65.1855-3.80859 70.3369-8.95996Q75.4883-14.1113 78.3936-20.8252Q81.2988-27.5391 81.2988-35.2539Q81.2988-42.9688 78.3936-49.6826Q75.4883-56.3965 70.3369-61.5479Q65.1855-66.6992 58.4717-69.5801Q51.7578-72.4609 44.043-72.4609Q36.377-72.4609 29.6387-69.5801Q22.9004-66.6992 17.7734-61.5479Q12.6465-56.3965 9.74121-49.6826Q6.83594-42.9688 6.83594-35.2539Q6.83594-27.5391 9.74121-20.8252Q12.6465-14.1113 17.7734-8.95996Q22.9004-3.80859 29.6387-0.927734Q36.377 1.95312 44.043 1.95312ZM44.043-0.292969Q36.8164-0.292969 30.4688-3.00293Q24.1211-5.71289 19.3115-10.5225Q14.502-15.332 11.7676-21.6797Q9.0332-28.0273 9.0332-35.2539Q9.0332-42.4805 11.7676-48.8281Q14.502-55.1758 19.3115-59.9854Q24.1211-64.7949 30.4688-67.5049Q36.8164-70.2148 44.043-70.2148Q51.2695-70.2148 57.6416-67.5049Q64.0137-64.7949 68.7988-59.9854Q73.584-55.1758 76.3184-48.8281Q79.0527-42.4805 79.0527-35.2539Q79.0527-28.0273 76.3428-21.6797Q73.6328-15.332 68.8232-10.5225Q64.0137-5.71289 57.666-3.00293Q51.3184-0.292969 44.043-0.292969ZM39.2578-20.9961Q39.9902-20.9961 40.5762-21.582Q41.1621-22.168 41.1621-23.3398L41.1621-47.0703Q41.1621-48.291 40.5762-48.877Q39.9902-49.4629 39.2578-49.4629Q38.8184-49.4629 38.4033-49.292Q37.9883-49.1211 37.6465-48.9258L17.2852-36.9141Q16.8457-36.6211 16.5527-36.2061Q16.2598-35.791 16.2598-35.2539Q16.2598-34.668 16.5527-34.2529Q16.8457-33.8379 17.2852-33.5449L37.6465-21.582Q37.9883-21.3379 38.4033-21.167Q38.8184-20.9961 39.2578-20.9961ZM64.1113-20.9961Q64.8438-20.9961 65.4297-21.582Q66.0156-22.168 66.0156-23.3398L66.0156-47.0703Q66.0156-48.291 65.4297-48.877Q64.8438-49.4629 64.1113-49.4629Q63.6719-49.4629 63.2568-49.292Q62.8418-49.1211 62.5-48.9258L42.1875-36.9141Q41.6504-36.6211 41.3574-36.2061Q41.0645-35.791 41.0645-35.2539Q41.0645-34.668 41.3574-34.2529Q41.6504-33.8379 42.1875-33.5449L62.5-21.582Q62.8418-21.3379 63.2568-21.167Q63.6719-20.9961 64.1113-20.9961Z"/>
  </g>
 </g>
</svg>
