<?xml version="1.0" encoding="UTF-8"?>
<!--Generator: Apple Native CoreSVG 149-->
<!DOCTYPE svg
PUBLIC "-//W3C//DTD SVG 1.1//EN"
       "http://www.w3.org/Graphics/SVG/1.1/DTD/svg11.dtd">
<svg version="1.1" xmlns="http://www.w3.org/2000/svg" xmlns:xlink="http://www.w3.org/1999/xlink" width="3300" height="2200">
 <!--glyph: "uni1002A0.medium", point size: 100.0, font version: "17.0d9e1", template writer version: "59"-->
 <g id="Notes">
  <rect height="2200" id="artboard" style="fill:white;opacity:1" width="3300" x="0" y="0"/>
  <line style="fill:none;stroke:black;opacity:1;stroke-width:0.5;" x1="263" x2="3036" y1="292" y2="292"/>
  <text style="stroke:none;fill:black;font-family:sans-serif;font-size:13;font-weight:bold;" transform="matrix(1 0 0 1 263 322)">Weight/Scale Variations</text>
  <text style="stroke:none;fill:black;font-family:sans-serif;font-size:13;text-anchor:middle;" transform="matrix(1 0 0 1 559.711 322)">Ultralight</text>
  <text style="stroke:none;fill:black;font-family:sans-serif;font-size:13;text-anchor:middle;" transform="matrix(1 0 0 1 856.422 322)">Thin</text>
  <text style="stroke:none;fill:black;font-family:sans-serif;font-size:13;text-anchor:middle;" transform="matrix(1 0 0 1 1153.13 322)">Light</text>
  <text style="stroke:none;fill:black;font-family:sans-serif;font-size:13;text-anchor:middle;" transform="matrix(1 0 0 1 1449.84 322)">Regular</text>
  <text style="stroke:none;fill:black;font-family:sans-serif;font-size:13;text-anchor:middle;" transform="matrix(1 0 0 1 1746.56 322)">Medium</text>
  <text style="stroke:none;fill:black;font-family:sans-serif;font-size:13;text-anchor:middle;" transform="matrix(1 0 0 1 2043.27 322)">Semibold</text>
  <text style="stroke:none;fill:black;font-family:sans-serif;font-size:13;text-anchor:middle;" transform="matrix(1 0 0 1 2339.98 322)">Bold</text>
  <text style="stroke:none;fill:black;font-family:sans-serif;font-size:13;text-anchor:middle;" transform="matrix(1 0 0 1 2636.69 322)">Heavy</text>
  <text style="stroke:none;fill:black;font-family:sans-serif;font-size:13;text-anchor:middle;" transform="matrix(1 0 0 1 2933.4 322)">Black</text>
  <line style="fill:none;stroke:black;opacity:1;stroke-width:0.5;" x1="263" x2="3036" y1="1903" y2="1903"/>
  <g transform="matrix(1 0 0 1 263 1933)">
   <path d="M9.24805 0.830078Q10.8691 0.830078 12.2949 0.214844Q13.7207-0.400391 14.8096-1.49414Q15.8984-2.58789 16.5186-4.01367Q17.1387-5.43945 17.1387-7.05078Q17.1387-8.66211 16.5186-10.0879Q15.8984-11.5137 14.8047-12.6074Q13.7109-13.7012 12.2852-14.3164Q10.8594-14.9316 9.23828-14.9316Q7.62695-14.9316 6.20117-14.3164Q4.77539-13.7012 3.69141-12.6074Q2.60742-11.5137 1.9873-10.0879Q1.36719-8.66211 1.36719-7.05078Q1.36719-5.43945 1.9873-4.01367Q2.60742-2.58789 3.69629-1.49414Q4.78516-0.400391 6.21094 0.214844Q7.63672 0.830078 9.24805 0.830078ZM9.24805-0.654297Q7.91992-0.654297 6.7627-1.14746Q5.60547-1.64062 4.73145-2.51953Q3.85742-3.39844 3.36426-4.56055Q2.87109-5.72266 2.87109-7.05078Q2.87109-8.37891 3.35938-9.54102Q3.84766-10.7031 4.72168-11.582Q5.5957-12.4609 6.75293-12.9541Q7.91016-13.4473 9.23828-13.4473Q10.5762-13.4473 11.7334-12.9541Q12.8906-12.4609 13.7695-11.582Q14.6484-10.7031 15.1465-9.54102Q15.6445-8.37891 15.6445-7.05078Q15.6445-5.72266 15.1514-4.56055Q14.6582-3.39844 13.7842-2.51953Q12.9102-1.64062 11.748-1.14746Q10.5859-0.654297 9.24805-0.654297ZM5.83984-7.04102Q5.83984-6.71875 6.04492-6.51855Q6.25-6.31836 6.5918-6.31836L8.50586-6.31836L8.50586-4.39453Q8.50586-4.0625 8.70605-3.85742Q8.90625-3.65234 9.22852-3.65234Q9.56055-3.65234 9.76562-3.85742Q9.9707-4.0625 9.9707-4.39453L9.9707-6.31836L11.8945-6.31836Q12.2266-6.31836 12.4316-6.51855Q12.6367-6.71875 12.6367-7.04102Q12.6367-7.37305 12.4316-7.57812Q12.2266-7.7832 11.8945-7.7832L9.9707-7.7832L9.9707-9.69727Q9.9707-10.0391 9.76562-10.2441Q9.56055-10.4492 9.22852-10.4492Q8.90625-10.4492 8.70605-10.2441Q8.50586-10.0391 8.50586-9.69727L8.50586-7.7832L6.5918-7.7832Q6.25-7.7832 6.04492-7.57812Q5.83984-7.37305 5.83984-7.04102Z"/>
  </g>
  <g transform="matrix(1 0 0 1 281.867 1933)">
   <path d="M11.709 2.91016Q13.75 2.91016 15.5518 2.12891Q17.3535 1.34766 18.7305-0.0292969Q20.1074-1.40625 20.8887-3.20801Q21.6699-5.00977 21.6699-7.05078Q21.6699-9.0918 20.8887-10.8936Q20.1074-12.6953 18.7305-14.0723Q17.3535-15.4492 15.5469-16.2305Q13.7402-17.0117 11.6992-17.0117Q9.6582-17.0117 7.85645-16.2305Q6.05469-15.4492 4.68262-14.0723Q3.31055-12.6953 2.5293-10.8936Q1.74805-9.0918 1.74805-7.05078Q1.74805-5.00977 2.5293-3.20801Q3.31055-1.40625 4.6875-0.0292969Q6.06445 1.34766 7.86621 2.12891Q9.66797 2.91016 11.709 2.91016ZM11.709 1.25Q9.98047 1.25 8.47656 0.605469Q6.97266-0.0390625 5.83496-1.17676Q4.69727-2.31445 4.05762-3.81836Q3.41797-5.32227 3.41797-7.05078Q3.41797-8.7793 4.05762-10.2832Q4.69727-11.7871 5.83008-12.9297Q6.96289-14.0723 8.4668-14.7119Q9.9707-15.3516 11.6992-15.3516Q13.4277-15.3516 14.9316-14.7119Q16.4355-14.0723 17.5781-12.9297Q18.7207-11.7871 19.3652-10.2832Q20.0098-8.7793 20.0098-7.05078Q20.0098-5.32227 19.3701-3.81836Q18.7305-2.31445 17.5928-1.17676Q16.4551-0.0390625 14.9463 0.605469Q13.4375 1.25 11.709 1.25ZM7.39258-7.04102Q7.39258-6.68945 7.62695-6.46484Q7.86133-6.24023 8.23242-6.24023L10.8789-6.24023L10.8789-3.57422Q10.8789-3.21289 11.1035-2.9834Q11.3281-2.75391 11.6797-2.75391Q12.0508-2.75391 12.2852-2.9834Q12.5195-3.21289 12.5195-3.57422L12.5195-6.24023L15.1758-6.24023Q15.5371-6.24023 15.7715-6.46484Q16.0059-6.68945 16.0059-7.04102Q16.0059-7.41211 15.7715-7.6416Q15.5371-7.87109 15.1758-7.87109L12.5195-7.87109L12.5195-10.5176Q12.5195-10.8984 12.2852-11.1279Q12.0508-11.3574 11.6797-11.3574Q11.3281-11.3574 11.1035-11.1279Q10.8789-10.8984 10.8789-10.5176L10.8789-7.87109L8.23242-7.87109Q7.85156-7.87109 7.62207-7.6416Q7.39258-7.41211 7.39258-7.04102Z"/>
  </g>
  <g transform="matrix(1 0 0 1 305.646 1933)">
   <path d="M14.9707 5.66406Q17.0605 5.66406 18.96 5.01465Q20.8594 4.36523 22.4512 3.19336Q24.043 2.02148 25.2197 0.429688Q26.3965-1.16211 27.0459-3.06641Q27.6953-4.9707 27.6953-7.05078Q27.6953-9.14062 27.0459-11.04Q26.3965-12.9395 25.2197-14.5312Q24.043-16.123 22.4512-17.2998Q20.8594-18.4766 18.9551-19.126Q17.0508-19.7754 14.9609-19.7754Q12.8711-19.7754 10.9717-19.126Q9.07227-18.4766 7.48535-17.2998Q5.89844-16.123 4.72168-14.5312Q3.54492-12.9395 2.90039-11.04Q2.25586-9.14062 2.25586-7.05078Q2.25586-4.9707 2.90527-3.06641Q3.55469-1.16211 4.72656 0.429688Q5.89844 2.02148 7.49023 3.19336Q9.08203 4.36523 10.9814 5.01465Q12.8809 5.66406 14.9707 5.66406ZM14.9707 3.84766Q13.1641 3.84766 11.5283 3.2959Q9.89258 2.74414 8.53516 1.74805Q7.17773 0.751953 6.17676-0.610352Q5.17578-1.97266 4.62891-3.6084Q4.08203-5.24414 4.08203-7.05078Q4.08203-8.86719 4.62891-10.5029Q5.17578-12.1387 6.17188-13.501Q7.16797-14.8633 8.52539-15.8594Q9.88281-16.8555 11.5186-17.4023Q13.1543-17.9492 14.9609-17.9492Q16.7773-17.9492 18.4131-17.4023Q20.0488-16.8555 21.4111-15.8594Q22.7734-14.8633 23.7695-13.501Q24.7656-12.1387 25.3174-10.5029Q25.8691-8.86719 25.8691-7.05078Q25.8789-5.24414 25.332-3.6084Q24.7852-1.97266 23.7842-0.610352Q22.7832 0.751953 21.4209 1.74805Q20.0586 2.74414 18.4229 3.2959Q16.7871 3.84766 14.9707 3.84766ZM9.45312-7.04102Q9.45312-6.66016 9.71191-6.41113Q9.9707-6.16211 10.3711-6.16211L14.0625-6.16211L14.0625-2.46094Q14.0625-2.06055 14.3115-1.80664Q14.5605-1.55273 14.9414-1.55273Q15.3516-1.55273 15.6055-1.80664Q15.8594-2.06055 15.8594-2.46094L15.8594-6.16211L19.5605-6.16211Q19.9609-6.16211 20.2148-6.41113Q20.4688-6.66016 20.4688-7.04102Q20.4688-7.45117 20.2148-7.70508Q19.9609-7.95898 19.5605-7.95898L15.8594-7.95898L15.8594-11.6504Q15.8594-12.0605 15.6055-12.3145Q15.3516-12.5684 14.9414-12.5684Q14.5605-12.5684 14.3115-12.3096Q14.0625-12.0508 14.0625-11.6504L14.0625-7.95898L10.3711-7.95898Q9.96094-7.95898 9.70703-7.70508Q9.45312-7.45117 9.45312-7.04102Z"/>
  </g>
  <text style="stroke:none;fill:black;font-family:sans-serif;font-size:13;font-weight:bold;" transform="matrix(1 0 0 1 263 1953)">Design Variations</text>
  <text style="stroke:none;fill:black;font-family:sans-serif;font-size:13;" transform="matrix(1 0 0 1 263 1971)">Symbols are supported in up to nine weights and three scales.</text>
  <text style="stroke:none;fill:black;font-family:sans-serif;font-size:13;" transform="matrix(1 0 0 1 263 1989)">For optimal layout with text and other symbols, vertically align</text>
  <text style="stroke:none;fill:black;font-family:sans-serif;font-size:13;" transform="matrix(1 0 0 1 263 2007)">symbols with the adjacent text.</text>
  <line style="fill:none;stroke:#00AEEF;stroke-width:0.5;opacity:1.0;" x1="776" x2="776" y1="1919" y2="1933"/>
  <g transform="matrix(1 0 0 1 776 1933)">
   <path d="M3.31055 0.15625Q3.70117 0.15625 3.91602-0.00976562Q4.13086-0.175781 4.26758-0.585938L5.52734-4.0332L11.2891-4.0332L12.5488-0.585938Q12.6855-0.175781 12.9004-0.00976562Q13.1152 0.15625 13.4961 0.15625Q13.8867 0.15625 14.1162-0.0585938Q14.3457-0.273438 14.3457-0.644531Q14.3457-0.869141 14.2383-1.17188L9.6582-13.3691Q9.48242-13.8184 9.17969-14.043Q8.87695-14.2676 8.4082-14.2676Q7.5-14.2676 7.17773-13.3789L2.59766-1.16211Q2.49023-0.859375 2.49023-0.634766Q2.49023-0.263672 2.70996-0.0537109Q2.92969 0.15625 3.31055 0.15625ZM6.00586-5.51758L8.37891-12.0898L8.42773-12.0898L10.8008-5.51758Z"/>
  </g>
  <line style="fill:none;stroke:#00AEEF;stroke-width:0.5;opacity:1.0;" x1="793.197" x2="793.197" y1="1919" y2="1933"/>
  <text style="stroke:none;fill:black;font-family:sans-serif;font-size:13;font-weight:bold;" transform="matrix(1 0 0 1 776 1953)">Margins</text>
  <text style="stroke:none;fill:black;font-family:sans-serif;font-size:13;" transform="matrix(1 0 0 1 776 1971)">Leading and trailing margins on the left and right side of each symbol</text>
  <text style="stroke:none;fill:black;font-family:sans-serif;font-size:13;" transform="matrix(1 0 0 1 776 1989)">can be adjusted by modifying the x-location of the margin guidelines.</text>
  <text style="stroke:none;fill:black;font-family:sans-serif;font-size:13;" transform="matrix(1 0 0 1 776 2007)">Modifications are automatically applied proportionally to all</text>
  <text style="stroke:none;fill:black;font-family:sans-serif;font-size:13;" transform="matrix(1 0 0 1 776 2025)">scales and weights.</text>
  <g transform="matrix(1 0 0 1 1289 1933)">
   <path d="M2.8418 1.86523L4.54102 3.57422Q5.18555 4.22852 5.90332 4.17969Q6.62109 4.13086 7.31445 3.35938L18.0078-8.42773L17.041-9.4043L6.42578 2.27539Q6.16211 2.57812 5.89355 2.61719Q5.625 2.65625 5.27344 2.30469L4.10156 1.14258Q3.75 0.791016 3.79395 0.522461Q3.83789 0.253906 4.14062-0.0195312L15.6152-10.8203L14.6387-11.7871L3.04688-0.898438Q2.30469-0.214844 2.25098 0.498047Q2.19727 1.21094 2.8418 1.86523ZM9.25781-16.3281Q8.94531-16.0254 8.90625-15.6348Q8.86719-15.2441 9.04297-14.9512Q9.21875-14.6777 9.55566-14.541Q9.89258-14.4043 10.3809-14.5215Q11.4746-14.7754 12.5977-14.7314Q13.7207-14.6875 14.7949-13.9844L14.209-12.5293Q13.9551-11.9043 14.0674-11.4404Q14.1797-10.9766 14.5801-10.5664L16.875-8.25195Q17.2363-7.88086 17.5781-7.82227Q17.9199-7.76367 18.3398-7.8418L19.4043-8.03711L20.0684-7.36328L20.0293-6.80664Q20-6.43555 20.1221-6.12305Q20.2441-5.81055 20.6055-5.44922L21.3672-4.70703Q21.7285-4.3457 22.1533-4.33105Q22.5781-4.31641 22.9297-4.66797L25.8398-7.58789Q26.1914-7.93945 26.1816-8.35449Q26.1719-8.76953 25.8105-9.13086L25.0391-9.89258Q24.6875-10.2539 24.3799-10.3857Q24.0723-10.5176 23.7109-10.4883L23.1348-10.4395L22.4902-11.0742L22.7344-12.1973Q22.832-12.6172 22.6953-12.9834Q22.5586-13.3496 22.1191-13.7891L19.9219-15.9766Q18.6719-17.2168 17.2607-17.8369Q15.8496-18.457 14.4189-18.4814Q12.9883-18.5059 11.665-17.959Q10.3418-17.4121 9.25781-16.3281ZM10.752-15.957Q11.6602-16.6211 12.7002-16.9043Q13.7402-17.1875 14.8047-17.085Q15.8691-16.9824 16.8701-16.5137Q17.8711-16.0449 18.7012-15.2051L21.1328-12.793Q21.3086-12.6172 21.3525-12.4512Q21.3965-12.2852 21.3379-12.0312L21.0156-10.5469L22.5195-9.0625L23.5059-9.12109Q23.6914-9.13086 23.7891-9.09668Q23.8867-9.0625 24.0332-8.91602L24.6094-8.33984L22.168-5.89844L21.5918-6.47461Q21.4453-6.62109 21.4062-6.71875Q21.3672-6.81641 21.377-7.01172L21.4453-7.98828L19.9512-9.47266L18.4277-9.21875Q18.1836-9.16992 18.042-9.2041Q17.9004-9.23828 17.7148-9.41406L15.7129-11.416Q15.5176-11.5918 15.4932-11.7529Q15.4688-11.9141 15.5859-12.1875L16.4648-14.2773Q15.293-15.3711 13.8281-15.791Q12.3633-16.2109 10.8398-15.7617Q10.7227-15.7324 10.6885-15.8057Q10.6543-15.8789 10.752-15.957Z"/>
  </g>
  <text style="stroke:none;fill:black;font-family:sans-serif;font-size:13;font-weight:bold;" transform="matrix(1 0 0 1 1289 1953)">Exporting</text>
  <text style="stroke:none;fill:black;font-family:sans-serif;font-size:13;" transform="matrix(1 0 0 1 1289 1971)">Symbols should be outlined when exporting to ensure the</text>
  <text style="stroke:none;fill:black;font-family:sans-serif;font-size:13;" transform="matrix(1 0 0 1 1289 1989)">design is preserved when submitting to Xcode.</text>
  <text id="template-version" style="stroke:none;fill:black;font-family:sans-serif;font-size:13;text-anchor:end;" transform="matrix(1 0 0 1 3036 1933)">Template v.2.0</text>
  <text style="stroke:none;fill:black;font-family:sans-serif;font-size:13;text-anchor:end;" transform="matrix(1 0 0 1 3036 1951)">Requires Xcode 13 or greater</text>
  <text id="descriptive-name" style="stroke:none;fill:black;font-family:sans-serif;font-size:13;text-anchor:end;" transform="matrix(1 0 0 1 3036 1969)">Generated from speaker</text>
  <text style="stroke:none;fill:black;font-family:sans-serif;font-size:13;text-anchor:end;" transform="matrix(1 0 0 1 3036 1987)">Typeset at 100 points</text>
  <text style="stroke:none;fill:black;font-family:sans-serif;font-size:13;" transform="matrix(1 0 0 1 263 726)">Small</text>
  <text style="stroke:none;fill:black;font-family:sans-serif;font-size:13;" transform="matrix(1 0 0 1 263 1156)">Medium</text>
  <text style="stroke:none;fill:black;font-family:sans-serif;font-size:13;" transform="matrix(1 0 0 1 263 1586)">Large</text>
 </g>
 <g id="Guides">
  <g id="H-reference" style="fill:#27AAE1;stroke:none;" transform="matrix(1 0 0 1 339 696)">
   <path d="M0.976562 0L3.66211 0L29.3457-67.1387L30.0293-67.1387L30.0293-70.459L28.125-70.459ZM11.6699-24.4629L46.9727-24.4629L46.2402-26.709L12.4512-26.709ZM55.127 0L57.7637 0L30.6152-70.459L29.4434-70.459L29.4434-67.1387Z"/>
  </g>
  <line id="Baseline-S" style="fill:none;stroke:#27AAE1;opacity:1;stroke-width:0.5;" x1="263" x2="3036" y1="696" y2="696"/>
  <line id="Capline-S" style="fill:none;stroke:#27AAE1;opacity:1;stroke-width:0.5;" x1="263" x2="3036" y1="625.541" y2="625.541"/>
  <g id="H-reference" style="fill:#27AAE1;stroke:none;" transform="matrix(1 0 0 1 339 1126)">
   <path d="M0.976562 0L3.66211 0L29.3457-67.1387L30.0293-67.1387L30.0293-70.459L28.125-70.459ZM11.6699-24.4629L46.9727-24.4629L46.2402-26.709L12.4512-26.709ZM55.127 0L57.7637 0L30.6152-70.459L29.4434-70.459L29.4434-67.1387Z"/>
  </g>
  <line id="Baseline-M" style="fill:none;stroke:#27AAE1;opacity:1;stroke-width:0.5;" x1="263" x2="3036" y1="1126" y2="1126"/>
  <line id="Capline-M" style="fill:none;stroke:#27AAE1;opacity:1;stroke-width:0.5;" x1="263" x2="3036" y1="1055.54" y2="1055.54"/>
  <g id="H-reference" style="fill:#27AAE1;stroke:none;" transform="matrix(1 0 0 1 339 1556)">
   <path d="M0.976562 0L3.66211 0L29.3457-67.1387L30.0293-67.1387L30.0293-70.459L28.125-70.459ZM11.6699-24.4629L46.9727-24.4629L46.2402-26.709L12.4512-26.709ZM55.127 0L57.7637 0L30.6152-70.459L29.4434-70.459L29.4434-67.1387Z"/>
  </g>
  <line id="Baseline-L" style="fill:none;stroke:#27AAE1;opacity:1;stroke-width:0.5;" x1="263" x2="3036" y1="1556" y2="1556"/>
  <line id="Capline-L" style="fill:none;stroke:#27AAE1;opacity:1;stroke-width:0.5;" x1="263" x2="3036" y1="1485.54" y2="1485.54"/>
  <line id="left-margin" style="fill:none;stroke:#00AEEF;stroke-width:0.5;opacity:1.0;" x1="1400.21" x2="1400.21" y1="1030.79" y2="1150.12"/>
  <line id="right-margin" style="fill:none;stroke:#00AEEF;stroke-width:0.5;opacity:1.0;" x1="1499.48" x2="1499.48" y1="1030.79" y2="1150.12"/>
 </g>
 <g id="Symbols">
  <g id="Black-L" transform="matrix(1 0 0 1 2862.45 1556)">
   <path d="M39.3066-4.19922L56.4941-4.19922Q57.0312-4.19922 57.4219-3.80859L82.4219 18.5547Q85.5957 21.3867 88.2812 22.7051Q90.9668 24.0234 94.2383 24.0234Q99.2188 24.0234 102.588 20.6787Q105.957 17.334 105.957 12.3535L105.957-82.6172Q105.957-87.5488 102.563-90.9912Q99.1699-94.4336 94.1895-94.4336Q91.1133-94.4336 88.4277-93.0908Q85.7422-91.748 82.4219-88.7695L57.4219-66.6016Q56.8848-66.2109 56.4941-66.2109L39.3066-66.2109Q30.5176-66.2109 25.9033-61.3525Q21.2891-56.4941 21.2891-47.3633L21.2891-23.0469Q21.2891-13.8672 25.9033-9.0332Q30.5176-4.19922 39.3066-4.19922ZM42.4805-22.1191Q41.6016-22.1191 41.0645-22.6562Q40.5273-23.1934 40.5273-24.0723L40.5273-46.2891Q40.5273-47.168 41.0645-47.7051Q41.6016-48.2422 42.4805-48.2422L60.6445-48.2422Q62.1094-48.2422 63.2324-48.6328Q64.3555-49.0234 65.4297-50.0488L84.9121-67.9688Q85.1074-68.1641 85.3516-68.2373Q85.5957-68.3105 85.8398-68.3105Q86.7188-68.3105 86.7188-67.334L86.7188-2.97852Q86.7188-1.95312 85.8398-1.95312Q85.5957-1.95312 85.3516-2.0752Q85.1074-2.19727 84.9121-2.34375L65.4297-20.3125Q64.3555-21.3379 63.2324-21.7285Q62.1094-22.1191 60.6445-22.1191Z"/>
  </g>
  <g id="Heavy-L" transform="matrix(1 0 0 1 2567.77 1556)">
   <path d="M37.1582-5.66406L54.6387-5.66406Q55.3223-5.66406 55.7617-5.22461L81.6895 17.9688Q84.5703 20.5566 87.0361 21.7773Q89.502 22.998 92.4805 22.998Q96.9727 22.998 99.9756 19.9951Q102.979 16.9922 102.979 12.5488L102.979-82.7637Q102.979-87.207 99.9512-90.3076Q96.9238-93.4082 92.4316-93.4082Q89.5996-93.4082 87.1582-92.1387Q84.7168-90.8691 81.6895-88.1836L55.7617-65.1367Q55.2246-64.6973 54.6387-64.6973L37.1582-64.6973Q29.0527-64.6973 24.8535-60.2783Q20.6543-55.8594 20.6543-47.3633L20.6543-22.9492Q20.6543-14.4531 24.8535-10.0586Q29.0527-5.66406 37.1582-5.66406ZM39.6973-21.2402Q38.5254-21.2402 37.915-21.8506Q37.3047-22.4609 37.3047-23.584L37.3047-46.7285Q37.3047-47.8516 37.915-48.4619Q38.5254-49.0723 39.6973-49.0723L58.3008-49.0723Q59.7168-49.0723 60.8154-49.4629Q61.9141-49.8535 62.9883-50.8789L84.4238-70.5078Q84.6191-70.7031 84.8633-70.8008Q85.1074-70.8984 85.4004-70.8984Q86.2793-70.8984 86.2793-69.9219L86.2793-0.439453Q86.2793 0.585938 85.4004 0.585938Q85.1562 0.585938 84.9121 0.463867Q84.668 0.341797 84.4238 0.146484L62.9883-19.4336Q61.9141-20.459 60.8154-20.8496Q59.7168-21.2402 58.3008-21.2402Z"/>
  </g>
  <g id="Bold-L" transform="matrix(1 0 0 1 2273.33 1556)">
   <path d="M34.8145-7.32422L52.6367-7.32422Q53.3691-7.32422 53.9551-6.78711L80.9082 17.334Q83.4961 19.6289 85.6934 20.7275Q87.8906 21.8262 90.5762 21.8262Q94.4336 21.8262 97.0215 19.2383Q99.6094 16.6504 99.6094 12.7441L99.6094-82.959Q99.6094-86.8164 97.0215-89.5508Q94.4336-92.2852 90.4785-92.2852Q87.9395-92.2852 85.791-91.1133Q83.6426-89.9414 80.9082-87.5L53.9551-63.4766Q53.3691-62.9883 52.6367-62.9883L34.8145-62.9883Q27.4414-62.9883 23.6816-59.0576Q19.9219-55.127 19.9219-47.4121L19.9219-22.8516Q19.9219-15.1367 23.7061-11.2305Q27.4902-7.32422 34.8145-7.32422ZM36.5723-20.2148Q35.1562-20.2148 34.4482-20.9229Q33.7402-21.6309 33.7402-23.0469L33.7402-47.2168Q33.7402-48.6328 34.4482-49.3408Q35.1562-50.0488 36.5723-50.0488L55.6641-50.0488Q57.0801-50.0488 58.1299-50.415Q59.1797-50.7812 60.3027-51.7578L83.8379-73.3398Q84.082-73.5352 84.3506-73.6816Q84.6191-73.8281 84.9121-73.8281Q85.791-73.8281 85.791-72.8516L85.791 2.44141Q85.791 3.41797 84.9121 3.41797Q84.668 3.41797 84.3994 3.2959Q84.1309 3.17383 83.8867 2.92969L60.3027-18.5059Q59.2285-19.4824 58.1543-19.8486Q57.0801-20.2148 55.6641-20.2148Z"/>
  </g>
  <g id="Semibold-L" transform="matrix(1 0 0 1 1978.2 1556)">
   <path d="M33.1543-8.44727L51.2207-8.44727Q52.0508-8.44727 52.6367-7.86133L80.3711 16.8457Q82.7148 18.9453 84.7412 19.9951Q86.7676 21.0449 89.209 21.0449Q92.6758 21.0449 94.9951 18.7012Q97.3145 16.3574 97.3145 12.8906L97.3145-83.1055Q97.3145-86.5723 94.9951-89.0137Q92.6758-91.4551 89.1113-91.4551Q86.7676-91.4551 84.8145-90.3564Q82.8613-89.2578 80.3711-87.0605L52.6367-62.3535Q52.0508-61.8164 51.2207-61.8164L33.1543-61.8164Q26.3184-61.8164 22.876-58.2031Q19.4336-54.5898 19.4336-47.4121L19.4336-22.8027Q19.4336-15.5762 22.9004-12.0117Q26.3672-8.44727 33.1543-8.44727ZM34.375-19.5312Q32.7637-19.5312 32.0068-20.2881Q31.25-21.0449 31.25-22.6562L31.25-47.5586Q31.25-49.1699 32.0068-49.9268Q32.7637-50.6836 34.375-50.6836L53.8574-50.6836Q55.2246-50.6836 56.25-51.0254Q57.2754-51.3672 58.3984-52.3926L83.4473-75.2441Q83.6914-75.4883 83.96-75.6348Q84.2285-75.7812 84.5703-75.7812Q85.4492-75.7812 85.4492-74.8047L85.4492 4.39453Q85.4492 5.37109 84.5703 5.37109Q84.2773 5.37109 84.0332 5.24902Q83.7891 5.12695 83.4961 4.83398L58.3984-17.8223Q57.3242-18.7988 56.2744-19.165Q55.2246-19.5312 53.8574-19.5312Z"/>
  </g>
  <g id="Medium-L" transform="matrix(1 0 0 1 1682.66 1556)">
   <path d="M31.8848-9.32617L50.1465-9.32617Q51.0254-9.32617 51.709-8.69141L79.9316 16.5039Q82.1289 18.457 84.0332 19.4336Q85.9375 20.4102 88.1836 20.4102Q91.3574 20.4102 93.457 18.2861Q95.5566 16.1621 95.5566 12.9883L95.5566-83.1543Q95.5566-86.3281 93.457-88.5986Q91.3574-90.8691 88.0859-90.8691Q85.8887-90.8691 84.082-89.7949Q82.2754-88.7207 79.9316-86.6699L51.709-61.4746Q51.0742-60.9375 50.1465-60.9375L31.8848-60.9375Q25.4883-60.9375 22.2656-57.5684Q19.043-54.1992 19.043-47.4609L19.043-22.7051Q19.043-15.9668 22.2656-12.6465Q25.4883-9.32617 31.8848-9.32617ZM32.7637-18.9941Q31.0059-18.9941 30.2002-19.8242Q29.3945-20.6543 29.3945-22.4121L29.3945-47.8027Q29.3945-49.5605 30.2002-50.3906Q31.0059-51.2207 32.7637-51.2207L52.4902-51.2207Q53.8086-51.2207 54.834-51.5381Q55.8594-51.8555 56.9824-52.832L83.1543-76.7578Q83.4473-76.9531 83.6914-77.1484Q83.9355-77.3438 84.3262-77.3438Q85.2051-77.3438 85.2051-76.3672L85.2051 5.85938Q85.2051 6.83594 84.3262 6.83594Q84.0332 6.83594 83.7646 6.71387Q83.4961 6.5918 83.2031 6.29883L56.9824-17.2852Q55.9082-18.3105 54.8584-18.6523Q53.8086-18.9941 52.4902-18.9941Z"/>
  </g>
  <g id="Regular-L" transform="matrix(1 0 0 1 1387.52 1556)">
   <path d="M30.2734-10.4492L48.7305-10.4492Q49.707-10.4492 50.4395-9.76562L79.3945 16.0645Q81.3477 17.8223 83.0811 18.7256Q84.8145 19.6289 86.8652 19.6289Q89.6484 19.6289 91.4551 17.7734Q93.2617 15.918 93.2617 13.1348L93.2617-83.3008Q93.2617-86.084 91.4551-88.0859Q89.6484-90.0879 86.7676-90.0879Q84.7168-90.0879 83.1055-89.0869Q81.4941-88.0859 79.3945-86.2305L50.4395-60.3516Q49.8047-59.7656 48.7305-59.7656L30.2734-59.7656Q24.3652-59.7656 21.46-56.7383Q18.5547-53.7109 18.5547-47.4609L18.5547-22.6562Q18.5547-16.4062 21.4844-13.4277Q24.4141-10.4492 30.2734-10.4492ZM30.6152-18.3105Q28.6621-18.3105 27.8076-19.1895Q26.9531-20.0684 26.9531-22.0215L26.9531-48.1445Q26.9531-50.0977 27.8076-50.9766Q28.6621-51.8555 30.6152-51.8555L50.6836-51.8555Q52.002-51.8555 53.0029-52.1729Q54.0039-52.4902 55.127-53.4668L82.7637-78.6621Q83.0566-78.9062 83.3252-79.1016Q83.5938-79.2969 83.9844-79.2969Q84.8633-79.2969 84.8633-78.3203L84.8633 7.8125Q84.8633 8.78906 83.9844 8.78906Q83.6914 8.78906 83.4229 8.66699Q83.1543 8.54492 82.8125 8.20312L55.127-16.6504Q54.0527-17.627 53.0273-17.9688Q52.002-18.3105 50.6836-18.3105Z"/>
  </g>
  <g id="Light-L" transform="matrix(1 0 0 1 1093.15 1556)">
   <path d="M27.832-11.5723L46.8262-11.5723Q47.998-11.5723 48.877-10.7422L78.4668 15.625Q80.0293 17.041 81.5186 17.8223Q83.0078 18.6035 84.7656 18.6035Q87.207 18.6035 88.6963 16.9922Q90.1855 15.3809 90.1855 12.9395L90.1855-83.252Q90.1855-85.6445 88.6963-87.3779Q87.207-89.1113 84.7168-89.1113Q82.9102-89.1113 81.5186-88.2324Q80.127-87.3535 78.4668-85.8887L48.877-59.2285Q48.1445-58.5449 46.8262-58.5449L27.832-58.5449Q22.6562-58.5449 20.1416-55.9082Q17.627-53.2715 17.627-47.9004L17.627-22.0703Q17.627-16.6992 20.166-14.1357Q22.7051-11.5723 27.832-11.5723ZM28.0762-17.627Q25.8789-17.627 24.9756-18.5791Q24.0723-19.5312 24.0723-21.6797L24.0723-48.3398Q24.0723-50.5371 24.9756-51.4648Q25.8789-52.3926 28.0762-52.3926L48.0469-52.3926Q49.4141-52.3926 50.4395-52.71Q51.4648-53.0273 52.6367-54.0039L81.3477-80.2734Q81.6895-80.5664 81.9824-80.7861Q82.2754-81.0059 82.7637-81.0059Q83.6914-81.0059 83.6914-79.9805L83.6914 9.375Q83.6914 10.498 82.7637 10.498Q82.4707 10.498 82.1533 10.3516Q81.8359 10.2051 81.3965 9.76562L52.6367-15.9668Q51.5625-16.9434 50.4883-17.2852Q49.4141-17.627 48.0469-17.627Z"/>
  </g>
  <g id="Thin-L" transform="matrix(1 0 0 1 799.537 1556)">
   <path d="M24.6582-13.0371L44.3359-13.0371Q45.752-13.0371 46.7773-12.1094L77.2949 14.9902Q78.2715 15.9668 79.4434 16.5771Q80.6152 17.1875 81.9824 17.1875Q83.9355 17.1875 85.0098 15.8936Q86.084 14.5996 86.084 12.6953L86.084-83.252Q86.084-85.1074 85.0098-86.4502Q83.9355-87.793 81.9336-87.793Q80.5664-87.793 79.4434-87.085Q78.3203-86.377 77.2949-85.498L46.7773-57.7148Q45.9473-56.9336 44.3359-56.9336L24.6582-56.9336Q20.4102-56.9336 18.4082-54.8096Q16.4062-52.6855 16.4062-48.4863L16.4062-21.3379Q16.4062-17.041 18.4326-15.0391Q20.459-13.0371 24.6582-13.0371ZM24.707-16.748Q22.2168-16.748 21.2646-17.749Q20.3125-18.75 20.3125-21.2402L20.3125-48.584Q20.3125-51.0742 21.2646-52.0752Q22.2168-53.0762 24.707-53.0762L44.5312-53.0762Q45.9961-53.0762 47.0703-53.3936Q48.1445-53.7109 49.2676-54.7852L79.4434-82.373Q79.8828-82.7148 80.2246-83.0078Q80.5664-83.3008 81.1035-83.3008Q82.1777-83.3008 82.1777-82.1289L82.1777 11.4746Q82.1777 12.7441 81.1523 12.7441Q80.8105 12.7441 80.4688 12.5488Q80.127 12.3535 79.541 11.8652L49.2676-15.0879Q48.1934-16.0645 47.0947-16.4062Q45.9961-16.748 44.5312-16.748Z"/>
  </g>
  <g id="Ultralight-L" transform="matrix(1 0 0 1 504.413 1556)">
   <path d="M22.998-13.7695L43.0664-13.7695Q44.5801-13.7695 45.7031-12.7441L76.6602 14.6973Q77.3926 15.4297 78.3691 15.9668Q79.3457 16.5039 80.5664 16.5039Q82.2754 16.5039 83.1299 15.3809Q83.9844 14.2578 83.9844 12.5977L83.9844-83.2031Q83.9844-84.8145 83.1299-85.9863Q82.2754-87.1582 80.5664-87.1582Q79.3457-87.1582 78.3691-86.5234Q77.3926-85.8887 76.6602-85.2539L45.7031-56.9336Q44.8242-56.1035 43.0664-56.1035L22.998-56.1035Q19.2871-56.1035 17.5293-54.248Q15.7715-52.3926 15.7715-48.7793L15.7715-20.9473Q15.7715-17.2363 17.5537-15.5029Q19.3359-13.7695 22.998-13.7695ZM22.998-16.3086Q20.3613-16.3086 19.3604-17.3584Q18.3594-18.4082 18.3594-21.0449L18.3594-48.6816Q18.3594-51.3672 19.3604-52.417Q20.3613-53.4668 22.998-53.4668L42.7246-53.4668Q44.2383-53.4668 45.3369-53.7842Q46.4355-54.1016 47.6074-55.127L78.5156-83.4961Q78.9551-83.8379 79.3213-84.1553Q79.6875-84.4727 80.2734-84.4727Q81.3965-84.4727 81.3965-83.252L81.3965 12.5488Q81.3965 13.8672 80.3711 13.8672Q79.9805 13.8672 79.6143 13.6719Q79.248 13.4766 78.6133 12.9395L47.6074-14.5996Q46.5332-15.5762 45.3857-15.9424Q44.2383-16.3086 42.7246-16.3086Z"/>
  </g>
  <g id="Black-M" transform="matrix(1 0 0 1 2877.47 1126)">
   <path d="M31.4453-10.3027L44.7266-10.3027Q45.1172-10.3027 45.3613-10.0098L64.1602 6.78711Q66.748 9.08203 68.9453 10.1562Q71.1426 11.2305 73.8281 11.2305Q77.9785 11.2305 80.8105 8.39844Q83.6426 5.56641 83.6426 1.41602L83.6426-71.7773Q83.6426-75.9277 80.8105-78.7842Q77.9785-81.6406 73.8281-81.6406Q71.2891-81.6406 69.0674-80.5908Q66.8457-79.541 64.1602-77.1484L45.3613-60.4004Q44.9707-60.1074 44.7266-60.1074L31.4453-60.1074Q24.3164-60.1074 20.5078-56.1279Q16.6992-52.1484 16.6992-44.7266L16.6992-25.6348Q16.6992-18.2617 20.5078-14.2822Q24.3164-10.3027 31.4453-10.3027ZM34.4727-25.5859Q33.8867-25.5859 33.5205-25.9766Q33.1543-26.3672 33.1543-26.9043L33.1543-43.5059Q33.1543-44.043 33.5205-44.4092Q33.8867-44.7754 34.4727-44.7754L48.0957-44.7754Q49.3164-44.7754 50.1953-45.0928Q51.0742-45.4102 51.9531-46.1914L65.7715-58.9844Q65.918-59.1309 66.0889-59.1797Q66.2598-59.2285 66.4551-59.2285Q67.1875-59.2285 67.1875-58.4473L67.1875-11.9141Q67.1875-11.0352 66.4551-11.0352Q66.0645-11.0352 65.7715-11.377L51.9531-24.1699Q51.0742-25 50.1953-25.293Q49.3164-25.5859 48.0957-25.5859Z"/>
  </g>
  <g id="Heavy-M" transform="matrix(1 0 0 1 2582.25 1126)">
   <path d="M29.8828-11.5234L43.3105-11.5234Q43.7988-11.5234 44.0918-11.1816L63.6719 6.29883Q66.0645 8.44727 68.0908 9.44824Q70.1172 10.4492 72.5586 10.4492Q76.3184 10.4492 78.8574 7.91016Q81.3965 5.37109 81.3965 1.66016L81.3965-71.9727Q81.3965-75.6836 78.8574-78.2715Q76.3184-80.8594 72.5586-80.8594Q70.2148-80.8594 68.1885-79.8584Q66.1621-78.8574 63.6719-76.6113L44.0918-59.2285Q43.7012-58.8867 43.3105-58.8867L29.8828-58.8867Q23.291-58.8867 19.7754-55.249Q16.2598-51.6113 16.2598-44.6777L16.2598-25.6836Q16.2598-18.7988 19.7754-15.1611Q23.291-11.5234 29.8828-11.5234ZM32.2754-24.8535Q31.4941-24.8535 31.0791-25.293Q30.6641-25.7324 30.6641-26.5137L30.6641-43.8965Q30.6641-44.6289 31.0791-45.0684Q31.4941-45.5078 32.2754-45.5078L46.3867-45.5078Q47.5098-45.5078 48.3643-45.8008Q49.2188-46.0938 50.0977-46.875L65.5762-61.084Q65.7227-61.2793 65.8936-61.3281Q66.0645-61.377 66.3086-61.377Q66.9922-61.377 66.9922-60.6445L66.9922-9.76562Q66.9922-8.93555 66.3086-8.93555Q65.918-8.93555 65.5762-9.27734L50.0977-23.4863Q49.2188-24.2676 48.3643-24.5605Q47.5098-24.8535 46.3867-24.8535Z"/>
  </g>
  <g id="Bold-M" transform="matrix(1 0 0 1 2287.19 1126)">
   <path d="M28.1738-12.8418L41.7969-12.8418Q42.334-12.8418 42.6758-12.5L63.0859 5.81055Q65.2832 7.71484 67.1143 8.64258Q68.9453 9.57031 71.1914 9.57031Q74.4629 9.57031 76.6602 7.37305Q78.8574 5.17578 78.8574 1.9043L78.8574-72.168Q78.8574-75.4395 76.6357-77.71Q74.4141-79.9805 71.1426-79.9805Q68.9941-79.9805 67.2119-79.0283Q65.4297-78.0762 63.0859-76.0254L42.6758-57.9102Q42.2852-57.5195 41.7969-57.5195L28.1738-57.5195Q22.1191-57.5195 18.9697-54.248Q15.8203-50.9766 15.8203-44.6289L15.8203-25.7324Q15.8203-19.3848 18.9697-16.1133Q22.1191-12.8418 28.1738-12.8418ZM29.834-24.0723Q28.8574-24.0723 28.3447-24.585Q27.832-25.0977 27.832-26.0254L27.832-44.3359Q27.832-45.2637 28.3447-45.7764Q28.8574-46.2891 29.834-46.2891L44.4824-46.2891Q45.5566-46.2891 46.3867-46.582Q47.2168-46.875 48.0469-47.6562L65.3809-63.4766Q65.5273-63.6719 65.7227-63.7451Q65.918-63.8184 66.1133-63.8184Q66.7969-63.8184 66.7969-63.0859L66.7969-7.37305Q66.7969-6.54297 66.1133-6.54297Q65.7227-6.54297 65.3809-6.93359L48.0469-22.7051Q47.2168-23.4863 46.3867-23.7793Q45.5566-24.0723 44.4824-24.0723Z"/>
  </g>
  <g id="Semibold-M" transform="matrix(1 0 0 1 1991.63 1126)">
   <path d="M26.9531-13.7695L40.6738-13.7695Q41.3086-13.7695 41.6992-13.3789L62.6953 5.41992Q64.6973 7.22656 66.4307 8.08105Q68.1641 8.93555 70.2148 8.93555Q73.1445 8.93555 75.1221 6.95801Q77.0996 4.98047 77.0996 2.09961L77.0996-72.2656Q77.0996-75.2441 75.0977-77.2949Q73.0957-79.3457 70.1172-79.3457Q68.1152-79.3457 66.5039-78.4424Q64.8926-77.5391 62.6953-75.6348L41.6992-56.9824Q41.2598-56.5918 40.6738-56.5918L26.9531-56.5918Q21.2891-56.5918 18.3838-53.5645Q15.4785-50.5371 15.4785-44.5801L15.4785-25.7324Q15.4785-19.7754 18.3838-16.7725Q21.2891-13.7695 26.9531-13.7695ZM28.125-23.4863Q27.0508-23.4863 26.4648-24.0479Q25.8789-24.6094 25.8789-25.6836L25.8789-44.6289Q25.8789-45.7031 26.4648-46.2646Q27.0508-46.8262 28.125-46.8262L43.1152-46.8262Q44.1406-46.8262 44.9707-47.0947Q45.8008-47.3633 46.6309-48.1445L65.1855-65.0879Q65.3809-65.2832 65.5762-65.3809Q65.7715-65.4785 65.9668-65.4785Q66.6504-65.4785 66.6504-64.7461L66.6504-5.66406Q66.6504-4.93164 65.9668-4.93164Q65.5762-4.93164 65.2344-5.27344L46.6309-22.168Q45.8008-22.9492 44.9707-23.2178Q44.1406-23.4863 43.1152-23.4863Z"/>
  </g>
  <g id="Medium-M" transform="matrix(1 0 0 1 1695.8 1126)">
   <path d="M26.0254-14.4531L39.8926-14.4531Q40.5273-14.4531 40.9668-14.0625L62.4023 5.12695Q64.3066 6.83594 65.918 7.6416Q67.5293 8.44727 69.4824 8.44727Q72.168 8.44727 73.9502 6.66504Q75.7324 4.88281 75.7324 2.19727L75.7324-72.3633Q75.7324-75.0977 73.9258-76.9775Q72.1191-78.8574 69.3848-78.8574Q67.4805-78.8574 65.9912-78.0029Q64.502-77.1484 62.4023-75.293L40.9668-56.2988Q40.5273-55.8594 39.8926-55.8594L26.0254-55.8594Q20.6543-55.8594 17.9443-53.0518Q15.2344-50.2441 15.2344-44.5312L15.2344-25.7324Q15.2344-20.1172 17.9443-17.2852Q20.6543-14.4531 26.0254-14.4531ZM26.8555-23.0469Q25.6348-23.0469 25.0244-23.6572Q24.4141-24.2676 24.4141-25.4395L24.4141-44.8242Q24.4141-46.0449 25.0244-46.6553Q25.6348-47.2656 26.8555-47.2656L42.1387-47.2656Q43.1152-47.2656 43.9209-47.5098Q44.7266-47.7539 45.5566-48.5352L65.0879-66.3574Q65.2832-66.5527 65.4785-66.626Q65.6738-66.6992 65.918-66.6992Q66.5527-66.6992 66.5527-66.0156L66.5527-4.44336Q66.5527-3.66211 65.918-3.66211Q65.5273-3.66211 65.1367-4.05273L45.5566-21.7773Q44.7266-22.5098 43.9209-22.7783Q43.1152-23.0469 42.1387-23.0469Z"/>
  </g>
  <g id="Regular-M" transform="matrix(1 0 0 1 1400.21 1126)">
   <path d="M24.8535-15.3809L38.8184-15.3809Q39.502-15.3809 39.9902-14.9414L62.0117 4.78516Q63.7695 6.34766 65.2588 7.10449Q66.748 7.86133 68.5059 7.86133Q70.8984 7.86133 72.4609 6.29883Q74.0234 4.73633 74.0234 2.39258L74.0234-72.5098Q74.0234-74.9023 72.4365-76.5869Q70.8496-78.2715 68.4082-78.2715Q66.6504-78.2715 65.3076-77.4414Q63.9648-76.6113 62.0117-74.9023L39.9902-55.3711Q39.5508-54.9316 38.8184-54.9316L24.8535-54.9316Q19.873-54.9316 17.3828-52.3682Q14.8926-49.8047 14.8926-44.4824L14.8926-25.7812Q14.8926-20.5078 17.3828-17.9443Q19.873-15.3809 24.8535-15.3809ZM25.1953-22.5098Q23.8281-22.5098 23.1689-23.1445Q22.5098-23.7793 22.5098-25.1465L22.5098-45.1172Q22.5098-46.4844 23.1689-47.1436Q23.8281-47.8027 25.1953-47.8027L40.8203-47.8027Q41.748-47.8027 42.5293-48.0469Q43.3105-48.291 44.1406-49.0723L64.9414-67.9688Q65.1367-68.1641 65.332-68.2617Q65.5273-68.3594 65.7715-68.3594Q66.4062-68.3594 66.4062-67.6758L66.4062-2.7832Q66.4062-2.05078 65.7715-2.05078Q65.3809-2.05078 64.9902-2.44141L44.1406-21.2402Q43.3105-21.9727 42.5293-22.2412Q41.748-22.5098 40.8203-22.5098Z"/>
  </g>
  <g id="Light-M" transform="matrix(1 0 0 1 1105.6 1126)">
   <path d="M22.6562-16.3574L37.1094-16.3574Q37.9883-16.3574 38.5742-15.8203L61.2305 4.39453Q62.5977 5.61523 63.8672 6.27441Q65.1367 6.93359 66.6016 6.93359Q68.7012 6.93359 69.9707 5.56641Q71.2402 4.19922 71.2402 2.24609L71.2402-72.4609Q71.2402-74.5117 69.9463-75.9521Q68.6523-77.3926 66.5527-77.3926Q65.0391-77.3926 63.8916-76.6846Q62.7441-75.9766 61.2305-74.6094L38.5742-54.3457Q38.0371-53.8574 37.1094-53.8574L22.6562-53.8574Q18.3594-53.8574 16.2109-51.6357Q14.0625-49.4141 14.0625-44.873L14.0625-25.293Q14.0625-20.752 16.2109-18.5547Q18.3594-16.3574 22.6562-16.3574ZM22.9004-21.9238Q21.3379-21.9238 20.6543-22.6074Q19.9707-23.291 19.9707-24.8535L19.9707-45.2637Q19.9707-46.875 20.6543-47.583Q21.3379-48.291 22.9004-48.291L38.4277-48.291Q39.4531-48.291 40.2588-48.5352Q41.0645-48.7793 41.8945-49.5605L63.6719-69.3848Q63.916-69.6289 64.1357-69.7754Q64.3555-69.9219 64.6484-69.9219Q65.3809-69.9219 65.3809-69.1406L65.3809-1.36719Q65.3809-0.537109 64.6973-0.537109Q64.2578-0.537109 63.7207-1.02539L41.8945-20.6055Q41.0645-21.3867 40.2588-21.6553Q39.4531-21.9238 38.4277-21.9238Z"/>
  </g>
  <g id="Thin-M" transform="matrix(1 0 0 1 811.671 1126)">
   <path d="M19.7754-17.7246L34.8633-17.7246Q35.9375-17.7246 36.7188-16.9922L60.1562 3.85742Q61.0352 4.63867 62.0117 5.17578Q62.9883 5.71289 64.1113 5.71289Q65.7715 5.71289 66.6748 4.63867Q67.5781 3.56445 67.5781 2.00195L67.5781-72.4609Q67.5781-73.9746 66.6748-75.0977Q65.7715-76.2207 64.0625-76.2207Q62.9395-76.2207 62.0361-75.6592Q61.1328-75.0977 60.1562-74.2676L36.7188-52.9785Q36.084-52.3926 34.8633-52.3926L19.7754-52.3926Q16.3086-52.3926 14.6484-50.6348Q12.9883-48.877 12.9883-45.3613L12.9883-24.6094Q12.9883-21.0938 14.6729-19.4092Q16.3574-17.7246 19.7754-17.7246ZM19.873-21.0938Q18.0176-21.0938 17.2852-21.8506Q16.5527-22.6074 16.5527-24.4629L16.5527-45.5078Q16.5527-47.3633 17.2852-48.1445Q18.0176-48.9258 19.873-48.9258L35.2539-48.9258Q36.377-48.9258 37.207-49.1455Q38.0371-49.3652 38.916-50.2441L62.0117-71.2891Q62.3047-71.582 62.5732-71.7773Q62.8418-71.9727 63.1836-71.9727Q64.0137-71.9727 64.0137-71.1426L64.0137 0.488281Q64.0137 1.41602 63.2324 1.41602Q62.7441 1.41602 62.0605 0.830078L38.916-19.7754Q38.0859-20.5566 37.2314-20.8252Q36.377-21.0938 35.2539-21.0938Z"/>
  </g>
  <g id="Ultralight-M" transform="matrix(1 0 0 1 516.401 1126)">
   <path d="M18.3105-18.3594L33.7402-18.3594Q34.9121-18.3594 35.791-17.627L59.6191 3.56445Q60.2051 4.15039 61.0352 4.61426Q61.8652 5.07812 62.8418 5.07812Q64.2578 5.07812 64.9902 4.12598Q65.7227 3.17383 65.7227 1.9043L65.7227-72.4121Q65.7227-73.7305 64.9902-74.6826Q64.2578-75.6348 62.8418-75.6348Q61.8652-75.6348 61.084-75.1465Q60.3027-74.6582 59.6191-74.0723L35.791-52.2949Q35.0586-51.6602 33.7402-51.6602L18.3105-51.6602Q15.2832-51.6602 13.8672-50.1465Q12.4512-48.6328 12.4512-45.6055L12.4512-24.2676Q12.4512-21.2402 13.8916-19.7998Q15.332-18.3594 18.3105-18.3594ZM18.3594-20.7031Q16.3574-20.7031 15.6006-21.4844Q14.8438-22.2656 14.8438-24.2676L14.8438-45.6055Q14.8438-47.6074 15.6006-48.4375Q16.3574-49.2676 18.3594-49.2676L33.6426-49.2676Q34.8145-49.2676 35.6689-49.4873Q36.5234-49.707 37.3535-50.5859L61.1328-72.2656Q61.4746-72.5586 61.7432-72.8027Q62.0117-73.0469 62.4512-73.0469Q63.3301-73.0469 63.3301-72.1191L63.3301 1.41602Q63.3301 2.44141 62.5 2.44141Q61.9629 2.44141 61.1816 1.75781L37.3535-19.3848Q36.5234-20.166 35.6689-20.4346Q34.8145-20.7031 33.6426-20.7031Z"/>
  </g>
  <g id="Black-S" transform="matrix(1 0 0 1 2889.26 696)">
   <path d="M25-15.3809L35.3516-15.3809Q35.6445-15.3809 35.8398-15.1855L50.3906-2.19727Q52.4414-0.390625 54.1992 0.488281Q55.957 1.36719 58.1055 1.36719Q61.4746 1.36719 63.7695-0.927734Q66.0645-3.22266 66.0645-6.5918L66.0645-63.8184Q66.0645-67.1875 63.7695-69.4824Q61.4746-71.7773 58.1055-71.7773Q56.1035-71.7773 54.3213-70.9473Q52.5391-70.1172 50.3906-68.2129L35.8398-55.2734Q35.5469-55.0293 35.3516-55.0293L25-55.0293Q19.2871-55.0293 16.2354-51.8311Q13.1836-48.6328 13.1836-42.7246L13.1836-27.6855Q13.1836-21.7773 16.2354-18.5791Q19.2871-15.3809 25-15.3809ZM27.5391-27.8809Q27.1484-27.8809 26.8799-28.1738Q26.6113-28.4668 26.6113-28.8086L26.6113-41.6016Q26.6113-41.9922 26.8799-42.2607Q27.1484-42.5293 27.5391-42.5293L38.0859-42.5293Q39.0625-42.5293 39.7705-42.7734Q40.4785-43.0176 41.1133-43.6523L51.5137-53.2715Q51.6113-53.3691 51.7578-53.418Q51.9043-53.4668 52.0508-53.4668Q52.6367-53.4668 52.6367-52.832L52.6367-17.5293Q52.6367-16.8457 52.0508-16.8457Q51.7578-16.8457 51.5137-17.0898L41.1133-26.7578Q39.9414-27.8809 38.0859-27.8809Z"/>
  </g>
  <g id="Heavy-S" transform="matrix(1 0 0 1 2593.55 696)">
   <path d="M23.9258-16.2598L34.375-16.2598Q34.7168-16.2598 34.9609-16.0645L50.0488-2.53906Q52.002-0.830078 53.6377-0.0244141Q55.2734 0.78125 57.2754 0.78125Q60.3027 0.78125 62.3779-1.26953Q64.4531-3.32031 64.4531-6.39648L64.4531-63.9648Q64.4531-67.041 62.3779-69.1162Q60.3027-71.1914 57.2754-71.1914Q55.3711-71.1914 53.7354-70.4102Q52.0996-69.6289 50.0488-67.8223L34.9609-54.3945Q34.6191-54.1504 34.375-54.1504L23.9258-54.1504Q18.6035-54.1504 15.7715-51.1719Q12.9395-48.1934 12.9395-42.627L12.9395-27.7832Q12.9395-22.2168 15.7715-19.2383Q18.6035-16.2598 23.9258-16.2598ZM25.9766-27.3438Q25.4395-27.3438 25.1221-27.6855Q24.8047-28.0273 24.8047-28.5156L24.8047-41.8945Q24.8047-42.4316 25.1221-42.749Q25.4395-43.0664 25.9766-43.0664L36.9141-43.0664Q37.8418-43.0664 38.5254-43.3105Q39.209-43.5547 39.8438-44.1895L51.5137-54.9316Q51.6113-55.0293 51.7578-55.0781Q51.9043-55.127 52.0508-55.127Q52.6367-55.127 52.6367-54.4922L52.6367-15.8691Q52.6367-15.2344 52.0508-15.2344Q51.7578-15.2344 51.5137-15.4785L39.8438-26.2207Q38.6719-27.3438 36.9141-27.3438Z"/>
  </g>
  <g id="Bold-S" transform="matrix(1 0 0 1 2297.94 696)">
   <path d="M22.7539-17.2852L33.3008-17.2852Q33.6914-17.2852 33.9355-17.041L49.707-2.92969Q51.5137-1.36719 53.0273-0.585938Q54.541 0.195312 56.3477 0.195312Q59.0332 0.195312 60.8643-1.63574Q62.6953-3.4668 62.6953-6.15234L62.6953-64.1602Q62.6953-66.8457 60.8643-68.7256Q59.0332-70.6055 56.2988-70.6055Q54.541-70.6055 53.0762-69.8242Q51.6113-69.043 49.707-67.334L33.9355-53.418Q33.6426-53.125 33.3008-53.125L22.7539-53.125Q17.8223-53.125 15.2344-50.4395Q12.6465-47.7539 12.6465-42.5293L12.6465-27.8809Q12.6465-22.7051 15.2344-19.9951Q17.8223-17.2852 22.7539-17.2852ZM24.2188-26.709Q23.5352-26.709 23.1445-27.0996Q22.7539-27.4902 22.7539-28.1738L22.7539-42.2852Q22.7539-42.9688 23.1445-43.335Q23.5352-43.7012 24.2188-43.7012L35.5957-43.7012Q36.4746-43.7012 37.1094-43.9209Q37.7441-44.1406 38.4277-44.7754L51.5137-56.7383Q51.6113-56.8359 51.7578-56.9092Q51.9043-56.9824 52.0508-56.9824Q52.5879-56.9824 52.5879-56.3965L52.5879-14.0137Q52.5879-13.4277 52.0996-13.4277Q51.7578-13.4277 51.5137-13.6719L38.4277-25.6836Q37.2559-26.709 35.5957-26.709Z"/>
  </g>
  <g id="Semibold-S" transform="matrix(1 0 0 1 2002.01 696)">
   <path d="M21.9238-17.9688L32.5684-17.9688Q32.959-17.9688 33.252-17.7246L49.4141-3.17383Q51.123-1.70898 52.5635-0.976562Q54.0039-0.244141 55.7129-0.244141Q58.1543-0.244141 59.8145-1.87988Q61.4746-3.51562 61.4746-6.00586L61.4746-64.2578Q61.4746-66.6992 59.8145-68.4326Q58.1543-70.166 55.6641-70.166Q53.9551-70.166 52.6123-69.4092Q51.2695-68.6523 49.4141-66.9922L33.252-52.6855Q32.9102-52.4414 32.5684-52.4414L21.9238-52.4414Q17.2363-52.4414 14.8193-49.9268Q12.4023-47.4121 12.4023-42.4316L12.4023-27.9297Q12.4023-22.998 14.8193-20.4834Q17.2363-17.9688 21.9238-17.9688ZM22.998-26.2695Q22.168-26.2695 21.7529-26.709Q21.3379-27.1484 21.3379-27.9297L21.3379-42.4805Q21.3379-43.3105 21.7529-43.7256Q22.168-44.1406 22.998-44.1406L34.668-44.1406Q35.498-44.1406 36.1328-44.3359Q36.7676-44.5312 37.4023-45.166L51.5137-58.0078Q51.6113-58.1055 51.7578-58.1787Q51.9043-58.252 52.0508-58.252Q52.5879-58.252 52.5879-57.7148L52.5879-12.7441Q52.5879-12.1582 52.0996-12.1582Q51.7578-12.1582 51.5137-12.4512L37.4023-25.2441Q36.2793-26.2695 34.668-26.2695Z"/>
  </g>
  <g id="Medium-S" transform="matrix(1 0 0 1 1705.88 696)">
   <path d="M21.3379-18.5059L31.9824-18.5059Q32.4219-18.5059 32.7148-18.2129L49.2188-3.41797Q50.8789-1.95312 52.2461-1.26953Q53.6133-0.585938 55.2246-0.585938Q57.4707-0.585938 59.0088-2.0752Q60.5469-3.56445 60.5469-5.85938L60.5469-64.3555Q60.5469-66.6504 59.0088-68.2373Q57.4707-69.8242 55.127-69.8242Q53.5645-69.8242 52.2949-69.0918Q51.0254-68.3594 49.2188-66.748L32.7148-52.1973Q32.373-51.9043 31.9824-51.9043L21.3379-51.9043Q16.8457-51.9043 14.5508-49.5361Q12.2559-47.168 12.2559-42.3828L12.2559-28.0273Q12.2559-23.2422 14.5508-20.874Q16.8457-18.5059 21.3379-18.5059ZM22.0703-25.9766Q21.1914-25.9766 20.7275-26.416Q20.2637-26.8555 20.2637-27.7344L20.2637-42.6758Q20.2637-43.5547 20.7275-43.9941Q21.1914-44.4336 22.0703-44.4336L33.9844-44.4336Q34.7656-44.4336 35.376-44.6533Q35.9863-44.873 36.6699-45.459L51.5137-58.9355Q51.6113-59.0332 51.7578-59.1064Q51.9043-59.1797 52.0508-59.1797Q52.5391-59.1797 52.5391-58.6914L52.5391-11.7676Q52.5391-11.1816 52.0996-11.1816Q51.7578-11.1816 51.5137-11.4746L36.6699-24.9512Q35.5469-25.9766 33.9844-25.9766Z"/>
  </g>
  <g id="Regular-S" transform="matrix(1 0 0 1 1409.93 696)">
   <path d="M20.5078-19.1895L31.25-19.1895Q31.6895-19.1895 32.0312-18.8965L48.9746-3.66211Q50.5371-2.29492 51.8066-1.66016Q53.0762-1.02539 54.5898-1.02539Q56.5918-1.02539 57.959-2.34375Q59.3262-3.66211 59.3262-5.71289L59.3262-64.4531Q59.3262-66.5039 57.959-67.9443Q56.5918-69.3848 54.4922-69.3848Q52.9785-69.3848 51.8311-68.6768Q50.6836-67.9688 48.9746-66.4551L32.0312-51.5137Q31.6895-51.2207 31.25-51.2207L20.5078-51.2207Q16.3086-51.2207 14.1846-49.0234Q12.0605-46.8262 12.0605-42.2852L12.0605-28.0762Q12.0605-23.584 14.1846-21.3867Q16.3086-19.1895 20.5078-19.1895ZM20.8496-25.5371Q19.873-25.5371 19.3848-26.0254Q18.8965-26.5137 18.8965-27.4902L18.8965-42.9199Q18.8965-43.8965 19.3848-44.3848Q19.873-44.873 20.8496-44.873L33.1055-44.873Q33.8379-44.873 34.4238-45.0684Q35.0098-45.2637 35.6934-45.8496L51.5137-60.2051Q51.6113-60.3027 51.7578-60.376Q51.9043-60.4492 52.0508-60.4492Q52.5391-60.4492 52.5391-59.9609L52.5391-10.498Q52.5391-9.96094 52.0996-9.96094Q51.7578-9.96094 51.5137-10.2539L35.6934-24.5605Q34.5703-25.5371 33.1055-25.5371Z"/>
  </g>
  <g id="Light-S" transform="matrix(1 0 0 1 1115.07 696)">
   <path d="M18.6035-20.0684L29.7363-20.0684Q30.3223-20.0684 30.7617-19.6777L48.2422-4.05273Q49.5117-2.92969 50.5859-2.39258Q51.6602-1.85547 52.9297-1.85547Q54.6387-1.85547 55.7617-2.97852Q56.8848-4.10156 56.8848-5.85938L56.8848-64.4043Q56.8848-66.1621 55.7617-67.3828Q54.6387-68.6035 52.8809-68.6035Q51.5625-68.6035 50.5859-67.9932Q49.6094-67.3828 48.2422-66.2109L30.7617-50.5859Q30.3711-50.2441 29.7363-50.2441L18.6035-50.2441Q14.9414-50.2441 13.1348-48.3643Q11.3281-46.4844 11.3281-42.627L11.3281-27.6367Q11.3281-23.7793 13.1348-21.9238Q14.9414-20.0684 18.6035-20.0684ZM18.7988-25Q17.6758-25 17.1631-25.5371Q16.6504-26.0742 16.6504-27.2461L16.6504-43.0664Q16.6504-44.2383 17.1631-44.7754Q17.6758-45.3125 18.7988-45.3125L31.0059-45.3125Q31.7871-45.3125 32.3975-45.4834Q33.0078-45.6543 33.6914-46.2891L50.3906-61.4746Q50.5371-61.6211 50.708-61.7188Q50.8789-61.8164 51.0742-61.8164Q51.6113-61.8164 51.6113-61.2793L51.6113-9.22852Q51.6113-8.64258 51.123-8.64258Q50.7812-8.64258 50.3906-8.98438L33.6914-24.0234Q32.5684-25 31.0059-25Z"/>
  </g>
  <g id="Thin-S" transform="matrix(1 0 0 1 820.827 696)">
   <path d="M16.0645-21.2402L27.7832-21.2402Q28.5645-21.2402 29.1016-20.7031L47.3145-4.54102Q48.0957-3.75977 48.9258-3.34473Q49.7559-2.92969 50.7324-2.92969Q52.0508-2.92969 52.832-3.83301Q53.6133-4.73633 53.6133-6.00586L53.6133-64.4043Q53.6133-65.6738 52.832-66.626Q52.0508-67.5781 50.6836-67.5781Q49.707-67.5781 48.9502-67.1143Q48.1934-66.6504 47.3145-65.8691L29.1016-49.4141Q28.6133-48.9746 27.7832-48.9746L16.0645-48.9746Q13.1836-48.9746 11.7676-47.4854Q10.3516-45.9961 10.3516-43.0664L10.3516-27.002Q10.3516-24.0723 11.7676-22.6562Q13.1836-21.2402 16.0645-21.2402ZM16.1621-24.3164Q14.7461-24.3164 14.1846-24.9023Q13.623-25.4883 13.623-26.9043L13.623-43.2129Q13.623-44.6777 14.1846-45.2637Q14.7461-45.8496 16.1621-45.8496L28.2227-45.8496Q29.1016-45.8496 29.7363-46.0205Q30.3711-46.1914 31.0547-46.875L48.877-63.1348Q49.1211-63.3301 49.3164-63.501Q49.5117-63.6719 49.8047-63.6719Q50.4395-63.6719 50.4395-62.9883L50.4395-7.56836Q50.4395-6.88477 49.8535-6.88477Q49.4141-6.88477 48.9258-7.32422L31.0547-23.291Q29.8828-24.3164 28.2227-24.3164Z"/>
  </g>
  <g id="Ultralight-S" transform="matrix(1 0 0 1 525.385 696)">
   <path d="M14.7461-21.8262L26.7578-21.8262Q27.6367-21.8262 28.2715-21.2402L46.8262-4.78516Q47.4121-4.19922 48.0957-3.83301Q48.7793-3.4668 49.6094-3.4668Q50.7324-3.4668 51.3428-4.24805Q51.9531-5.0293 51.9531-6.10352L51.9531-64.3555Q51.9531-65.4785 51.3428-66.2842Q50.7324-67.0898 49.6094-67.0898Q48.7793-67.0898 48.1201-66.6748Q47.4609-66.2598 46.8262-65.7227L28.2715-48.7793Q27.7344-48.291 26.7578-48.291L14.7461-48.291Q12.2559-48.291 11.0596-47.0459Q9.86328-45.8008 9.86328-43.2617L9.86328-26.709Q9.86328-24.2188 11.0596-23.0225Q12.2559-21.8262 14.7461-21.8262ZM14.7461-23.9258Q13.2324-23.9258 12.6709-24.5605Q12.1094-25.1953 12.1094-26.709L12.1094-43.3105Q12.1094-44.873 12.6709-45.5078Q13.2324-46.1426 14.7461-46.1426L26.8066-46.1426Q27.6855-46.1426 28.3447-46.3135Q29.0039-46.4844 29.6875-47.168L48.0957-64.0137Q48.3887-64.209 48.6084-64.4043Q48.8281-64.5996 49.1211-64.5996Q49.8047-64.5996 49.8047-63.8672L49.8047-6.73828Q49.8047-5.95703 49.1699-5.95703Q48.7793-5.95703 48.1445-6.49414L29.6875-22.9492Q28.5156-23.9258 26.8066-23.9258Z"/>
  </g>
 </g>
</svg>
