<?xml version="1.0" encoding="UTF-8"?>
<!--Generator: Apple Native CoreSVG 149-->
<!DOCTYPE svg
PUBLIC "-//W3C//DTD SVG 1.1//EN"
       "http://www.w3.org/Graphics/SVG/1.1/DTD/svg11.dtd">
<svg version="1.1" xmlns="http://www.w3.org/2000/svg" xmlns:xlink="http://www.w3.org/1999/xlink" width="3300" height="2200">
 <!--glyph: "uni100213.medium", point size: 100.0, font version: "17.0d9e1", template writer version: "59"-->
 <g id="Notes">
  <rect height="2200" id="artboard" style="fill:white;opacity:1" width="3300" x="0" y="0"/>
  <line style="fill:none;stroke:black;opacity:1;stroke-width:0.5;" x1="263" x2="3036" y1="292" y2="292"/>
  <text style="stroke:none;fill:black;font-family:sans-serif;font-size:13;font-weight:bold;" transform="matrix(1 0 0 1 263 322)">Weight/Scale Variations</text>
  <text style="stroke:none;fill:black;font-family:sans-serif;font-size:13;text-anchor:middle;" transform="matrix(1 0 0 1 559.711 322)">Ultralight</text>
  <text style="stroke:none;fill:black;font-family:sans-serif;font-size:13;text-anchor:middle;" transform="matrix(1 0 0 1 856.422 322)">Thin</text>
  <text style="stroke:none;fill:black;font-family:sans-serif;font-size:13;text-anchor:middle;" transform="matrix(1 0 0 1 1153.13 322)">Light</text>
  <text style="stroke:none;fill:black;font-family:sans-serif;font-size:13;text-anchor:middle;" transform="matrix(1 0 0 1 1449.84 322)">Regular</text>
  <text style="stroke:none;fill:black;font-family:sans-serif;font-size:13;text-anchor:middle;" transform="matrix(1 0 0 1 1746.56 322)">Medium</text>
  <text style="stroke:none;fill:black;font-family:sans-serif;font-size:13;text-anchor:middle;" transform="matrix(1 0 0 1 2043.27 322)">Semibold</text>
  <text style="stroke:none;fill:black;font-family:sans-serif;font-size:13;text-anchor:middle;" transform="matrix(1 0 0 1 2339.98 322)">Bold</text>
  <text style="stroke:none;fill:black;font-family:sans-serif;font-size:13;text-anchor:middle;" transform="matrix(1 0 0 1 2636.69 322)">Heavy</text>
  <text style="stroke:none;fill:black;font-family:sans-serif;font-size:13;text-anchor:middle;" transform="matrix(1 0 0 1 2933.4 322)">Black</text>
  <line style="fill:none;stroke:black;opacity:1;stroke-width:0.5;" x1="263" x2="3036" y1="1903" y2="1903"/>
  <g transform="matrix(1 0 0 1 263 1933)">
   <path d="M9.24805 0.830078Q10.8691 0.830078 12.2949 0.214844Q13.7207-0.400391 14.8096-1.49414Q15.8984-2.58789 16.5186-4.01367Q17.1387-5.43945 17.1387-7.05078Q17.1387-8.66211 16.5186-10.0879Q15.8984-11.5137 14.8047-12.6074Q13.7109-13.7012 12.2852-14.3164Q10.8594-14.9316 9.23828-14.9316Q7.62695-14.9316 6.20117-14.3164Q4.77539-13.7012 3.69141-12.6074Q2.60742-11.5137 1.9873-10.0879Q1.36719-8.66211 1.36719-7.05078Q1.36719-5.43945 1.9873-4.01367Q2.60742-2.58789 3.69629-1.49414Q4.78516-0.400391 6.21094 0.214844Q7.63672 0.830078 9.24805 0.830078ZM9.24805-0.654297Q7.91992-0.654297 6.7627-1.14746Q5.60547-1.64062 4.73145-2.51953Q3.85742-3.39844 3.36426-4.56055Q2.87109-5.72266 2.87109-7.05078Q2.87109-8.37891 3.35938-9.54102Q3.84766-10.7031 4.72168-11.582Q5.5957-12.4609 6.75293-12.9541Q7.91016-13.4473 9.23828-13.4473Q10.5762-13.4473 11.7334-12.9541Q12.8906-12.4609 13.7695-11.582Q14.6484-10.7031 15.1465-9.54102Q15.6445-8.37891 15.6445-7.05078Q15.6445-5.72266 15.1514-4.56055Q14.6582-3.39844 13.7842-2.51953Q12.9102-1.64062 11.748-1.14746Q10.5859-0.654297 9.24805-0.654297ZM5.83984-7.04102Q5.83984-6.71875 6.04492-6.51855Q6.25-6.31836 6.5918-6.31836L8.50586-6.31836L8.50586-4.39453Q8.50586-4.0625 8.70605-3.85742Q8.90625-3.65234 9.22852-3.65234Q9.56055-3.65234 9.76562-3.85742Q9.9707-4.0625 9.9707-4.39453L9.9707-6.31836L11.8945-6.31836Q12.2266-6.31836 12.4316-6.51855Q12.6367-6.71875 12.6367-7.04102Q12.6367-7.37305 12.4316-7.57812Q12.2266-7.7832 11.8945-7.7832L9.9707-7.7832L9.9707-9.69727Q9.9707-10.0391 9.76562-10.2441Q9.56055-10.4492 9.22852-10.4492Q8.90625-10.4492 8.70605-10.2441Q8.50586-10.0391 8.50586-9.69727L8.50586-7.7832L6.5918-7.7832Q6.25-7.7832 6.04492-7.57812Q5.83984-7.37305 5.83984-7.04102Z"/>
  </g>
  <g transform="matrix(1 0 0 1 281.867 1933)">
   <path d="M11.709 2.91016Q13.75 2.91016 15.5518 2.12891Q17.3535 1.34766 18.7305-0.0292969Q20.1074-1.40625 20.8887-3.20801Q21.6699-5.00977 21.6699-7.05078Q21.6699-9.0918 20.8887-10.8936Q20.1074-12.6953 18.7305-14.0723Q17.3535-15.4492 15.5469-16.2305Q13.7402-17.0117 11.6992-17.0117Q9.6582-17.0117 7.85645-16.2305Q6.05469-15.4492 4.68262-14.0723Q3.31055-12.6953 2.5293-10.8936Q1.74805-9.0918 1.74805-7.05078Q1.74805-5.00977 2.5293-3.20801Q3.31055-1.40625 4.6875-0.0292969Q6.06445 1.34766 7.86621 2.12891Q9.66797 2.91016 11.709 2.91016ZM11.709 1.25Q9.98047 1.25 8.47656 0.605469Q6.97266-0.0390625 5.83496-1.17676Q4.69727-2.31445 4.05762-3.81836Q3.41797-5.32227 3.41797-7.05078Q3.41797-8.7793 4.05762-10.2832Q4.69727-11.7871 5.83008-12.9297Q6.96289-14.0723 8.4668-14.7119Q9.9707-15.3516 11.6992-15.3516Q13.4277-15.3516 14.9316-14.7119Q16.4355-14.0723 17.5781-12.9297Q18.7207-11.7871 19.3652-10.2832Q20.0098-8.7793 20.0098-7.05078Q20.0098-5.32227 19.3701-3.81836Q18.7305-2.31445 17.5928-1.17676Q16.4551-0.0390625 14.9463 0.605469Q13.4375 1.25 11.709 1.25ZM7.39258-7.04102Q7.39258-6.68945 7.62695-6.46484Q7.86133-6.24023 8.23242-6.24023L10.8789-6.24023L10.8789-3.57422Q10.8789-3.21289 11.1035-2.9834Q11.3281-2.75391 11.6797-2.75391Q12.0508-2.75391 12.2852-2.9834Q12.5195-3.21289 12.5195-3.57422L12.5195-6.24023L15.1758-6.24023Q15.5371-6.24023 15.7715-6.46484Q16.0059-6.68945 16.0059-7.04102Q16.0059-7.41211 15.7715-7.6416Q15.5371-7.87109 15.1758-7.87109L12.5195-7.87109L12.5195-10.5176Q12.5195-10.8984 12.2852-11.1279Q12.0508-11.3574 11.6797-11.3574Q11.3281-11.3574 11.1035-11.1279Q10.8789-10.8984 10.8789-10.5176L10.8789-7.87109L8.23242-7.87109Q7.85156-7.87109 7.62207-7.6416Q7.39258-7.41211 7.39258-7.04102Z"/>
  </g>
  <g transform="matrix(1 0 0 1 305.646 1933)">
   <path d="M14.9707 5.66406Q17.0605 5.66406 18.96 5.01465Q20.8594 4.36523 22.4512 3.19336Q24.043 2.02148 25.2197 0.429688Q26.3965-1.16211 27.0459-3.06641Q27.6953-4.9707 27.6953-7.05078Q27.6953-9.14062 27.0459-11.04Q26.3965-12.9395 25.2197-14.5312Q24.043-16.123 22.4512-17.2998Q20.8594-18.4766 18.9551-19.126Q17.0508-19.7754 14.9609-19.7754Q12.8711-19.7754 10.9717-19.126Q9.07227-18.4766 7.48535-17.2998Q5.89844-16.123 4.72168-14.5312Q3.54492-12.9395 2.90039-11.04Q2.25586-9.14062 2.25586-7.05078Q2.25586-4.9707 2.90527-3.06641Q3.55469-1.16211 4.72656 0.429688Q5.89844 2.02148 7.49023 3.19336Q9.08203 4.36523 10.9814 5.01465Q12.8809 5.66406 14.9707 5.66406ZM14.9707 3.84766Q13.1641 3.84766 11.5283 3.2959Q9.89258 2.74414 8.53516 1.74805Q7.17773 0.751953 6.17676-0.610352Q5.17578-1.97266 4.62891-3.6084Q4.08203-5.24414 4.08203-7.05078Q4.08203-8.86719 4.62891-10.5029Q5.17578-12.1387 6.17188-13.501Q7.16797-14.8633 8.52539-15.8594Q9.88281-16.8555 11.5186-17.4023Q13.1543-17.9492 14.9609-17.9492Q16.7773-17.9492 18.4131-17.4023Q20.0488-16.8555 21.4111-15.8594Q22.7734-14.8633 23.7695-13.501Q24.7656-12.1387 25.3174-10.5029Q25.8691-8.86719 25.8691-7.05078Q25.8789-5.24414 25.332-3.6084Q24.7852-1.97266 23.7842-0.610352Q22.7832 0.751953 21.4209 1.74805Q20.0586 2.74414 18.4229 3.2959Q16.7871 3.84766 14.9707 3.84766ZM9.45312-7.04102Q9.45312-6.66016 9.71191-6.41113Q9.9707-6.16211 10.3711-6.16211L14.0625-6.16211L14.0625-2.46094Q14.0625-2.06055 14.3115-1.80664Q14.5605-1.55273 14.9414-1.55273Q15.3516-1.55273 15.6055-1.80664Q15.8594-2.06055 15.8594-2.46094L15.8594-6.16211L19.5605-6.16211Q19.9609-6.16211 20.2148-6.41113Q20.4688-6.66016 20.4688-7.04102Q20.4688-7.45117 20.2148-7.70508Q19.9609-7.95898 19.5605-7.95898L15.8594-7.95898L15.8594-11.6504Q15.8594-12.0605 15.6055-12.3145Q15.3516-12.5684 14.9414-12.5684Q14.5605-12.5684 14.3115-12.3096Q14.0625-12.0508 14.0625-11.6504L14.0625-7.95898L10.3711-7.95898Q9.96094-7.95898 9.70703-7.70508Q9.45312-7.45117 9.45312-7.04102Z"/>
  </g>
  <text style="stroke:none;fill:black;font-family:sans-serif;font-size:13;font-weight:bold;" transform="matrix(1 0 0 1 263 1953)">Design Variations</text>
  <text style="stroke:none;fill:black;font-family:sans-serif;font-size:13;" transform="matrix(1 0 0 1 263 1971)">Symbols are supported in up to nine weights and three scales.</text>
  <text style="stroke:none;fill:black;font-family:sans-serif;font-size:13;" transform="matrix(1 0 0 1 263 1989)">For optimal layout with text and other symbols, vertically align</text>
  <text style="stroke:none;fill:black;font-family:sans-serif;font-size:13;" transform="matrix(1 0 0 1 263 2007)">symbols with the adjacent text.</text>
  <line style="fill:none;stroke:#00AEEF;stroke-width:0.5;opacity:1.0;" x1="776" x2="776" y1="1919" y2="1933"/>
  <g transform="matrix(1 0 0 1 776 1933)">
   <path d="M3.31055 0.15625Q3.70117 0.15625 3.91602-0.00976562Q4.13086-0.175781 4.26758-0.585938L5.52734-4.0332L11.2891-4.0332L12.5488-0.585938Q12.6855-0.175781 12.9004-0.00976562Q13.1152 0.15625 13.4961 0.15625Q13.8867 0.15625 14.1162-0.0585938Q14.3457-0.273438 14.3457-0.644531Q14.3457-0.869141 14.2383-1.17188L9.6582-13.3691Q9.48242-13.8184 9.17969-14.043Q8.87695-14.2676 8.4082-14.2676Q7.5-14.2676 7.17773-13.3789L2.59766-1.16211Q2.49023-0.859375 2.49023-0.634766Q2.49023-0.263672 2.70996-0.0537109Q2.92969 0.15625 3.31055 0.15625ZM6.00586-5.51758L8.37891-12.0898L8.42773-12.0898L10.8008-5.51758Z"/>
  </g>
  <line style="fill:none;stroke:#00AEEF;stroke-width:0.5;opacity:1.0;" x1="793.197" x2="793.197" y1="1919" y2="1933"/>
  <text style="stroke:none;fill:black;font-family:sans-serif;font-size:13;font-weight:bold;" transform="matrix(1 0 0 1 776 1953)">Margins</text>
  <text style="stroke:none;fill:black;font-family:sans-serif;font-size:13;" transform="matrix(1 0 0 1 776 1971)">Leading and trailing margins on the left and right side of each symbol</text>
  <text style="stroke:none;fill:black;font-family:sans-serif;font-size:13;" transform="matrix(1 0 0 1 776 1989)">can be adjusted by modifying the x-location of the margin guidelines.</text>
  <text style="stroke:none;fill:black;font-family:sans-serif;font-size:13;" transform="matrix(1 0 0 1 776 2007)">Modifications are automatically applied proportionally to all</text>
  <text style="stroke:none;fill:black;font-family:sans-serif;font-size:13;" transform="matrix(1 0 0 1 776 2025)">scales and weights.</text>
  <g transform="matrix(1 0 0 1 1289 1933)">
   <path d="M2.8418 1.86523L4.54102 3.57422Q5.18555 4.22852 5.90332 4.17969Q6.62109 4.13086 7.31445 3.35938L18.0078-8.42773L17.041-9.4043L6.42578 2.27539Q6.16211 2.57812 5.89355 2.61719Q5.625 2.65625 5.27344 2.30469L4.10156 1.14258Q3.75 0.791016 3.79395 0.522461Q3.83789 0.253906 4.14062-0.0195312L15.6152-10.8203L14.6387-11.7871L3.04688-0.898438Q2.30469-0.214844 2.25098 0.498047Q2.19727 1.21094 2.8418 1.86523ZM9.25781-16.3281Q8.94531-16.0254 8.90625-15.6348Q8.86719-15.2441 9.04297-14.9512Q9.21875-14.6777 9.55566-14.541Q9.89258-14.4043 10.3809-14.5215Q11.4746-14.7754 12.5977-14.7314Q13.7207-14.6875 14.7949-13.9844L14.209-12.5293Q13.9551-11.9043 14.0674-11.4404Q14.1797-10.9766 14.5801-10.5664L16.875-8.25195Q17.2363-7.88086 17.5781-7.82227Q17.9199-7.76367 18.3398-7.8418L19.4043-8.03711L20.0684-7.36328L20.0293-6.80664Q20-6.43555 20.1221-6.12305Q20.2441-5.81055 20.6055-5.44922L21.3672-4.70703Q21.7285-4.3457 22.1533-4.33105Q22.5781-4.31641 22.9297-4.66797L25.8398-7.58789Q26.1914-7.93945 26.1816-8.35449Q26.1719-8.76953 25.8105-9.13086L25.0391-9.89258Q24.6875-10.2539 24.3799-10.3857Q24.0723-10.5176 23.7109-10.4883L23.1348-10.4395L22.4902-11.0742L22.7344-12.1973Q22.832-12.6172 22.6953-12.9834Q22.5586-13.3496 22.1191-13.7891L19.9219-15.9766Q18.6719-17.2168 17.2607-17.8369Q15.8496-18.457 14.4189-18.4814Q12.9883-18.5059 11.665-17.959Q10.3418-17.4121 9.25781-16.3281ZM10.752-15.957Q11.6602-16.6211 12.7002-16.9043Q13.7402-17.1875 14.8047-17.085Q15.8691-16.9824 16.8701-16.5137Q17.8711-16.0449 18.7012-15.2051L21.1328-12.793Q21.3086-12.6172 21.3525-12.4512Q21.3965-12.2852 21.3379-12.0312L21.0156-10.5469L22.5195-9.0625L23.5059-9.12109Q23.6914-9.13086 23.7891-9.09668Q23.8867-9.0625 24.0332-8.91602L24.6094-8.33984L22.168-5.89844L21.5918-6.47461Q21.4453-6.62109 21.4062-6.71875Q21.3672-6.81641 21.377-7.01172L21.4453-7.98828L19.9512-9.47266L18.4277-9.21875Q18.1836-9.16992 18.042-9.2041Q17.9004-9.23828 17.7148-9.41406L15.7129-11.416Q15.5176-11.5918 15.4932-11.7529Q15.4688-11.9141 15.5859-12.1875L16.4648-14.2773Q15.293-15.3711 13.8281-15.791Q12.3633-16.2109 10.8398-15.7617Q10.7227-15.7324 10.6885-15.8057Q10.6543-15.8789 10.752-15.957Z"/>
  </g>
  <text style="stroke:none;fill:black;font-family:sans-serif;font-size:13;font-weight:bold;" transform="matrix(1 0 0 1 1289 1953)">Exporting</text>
  <text style="stroke:none;fill:black;font-family:sans-serif;font-size:13;" transform="matrix(1 0 0 1 1289 1971)">Symbols should be outlined when exporting to ensure the</text>
  <text style="stroke:none;fill:black;font-family:sans-serif;font-size:13;" transform="matrix(1 0 0 1 1289 1989)">design is preserved when submitting to Xcode.</text>
  <text id="template-version" style="stroke:none;fill:black;font-family:sans-serif;font-size:13;text-anchor:end;" transform="matrix(1 0 0 1 3036 1933)">Template v.2.0</text>
  <text style="stroke:none;fill:black;font-family:sans-serif;font-size:13;text-anchor:end;" transform="matrix(1 0 0 1 3036 1951)">Requires Xcode 13 or greater</text>
  <text id="descriptive-name" style="stroke:none;fill:black;font-family:sans-serif;font-size:13;text-anchor:end;" transform="matrix(1 0 0 1 3036 1969)">Generated from trash.circle</text>
  <text style="stroke:none;fill:black;font-family:sans-serif;font-size:13;text-anchor:end;" transform="matrix(1 0 0 1 3036 1987)">Typeset at 100 points</text>
  <text style="stroke:none;fill:black;font-family:sans-serif;font-size:13;" transform="matrix(1 0 0 1 263 726)">Small</text>
  <text style="stroke:none;fill:black;font-family:sans-serif;font-size:13;" transform="matrix(1 0 0 1 263 1156)">Medium</text>
  <text style="stroke:none;fill:black;font-family:sans-serif;font-size:13;" transform="matrix(1 0 0 1 263 1586)">Large</text>
 </g>
 <g id="Guides">
  <g id="H-reference" style="fill:#27AAE1;stroke:none;" transform="matrix(1 0 0 1 339 696)">
   <path d="M0.976562 0L3.66211 0L29.3457-67.1387L30.0293-67.1387L30.0293-70.459L28.125-70.459ZM11.6699-24.4629L46.9727-24.4629L46.2402-26.709L12.4512-26.709ZM55.127 0L57.7637 0L30.6152-70.459L29.4434-70.459L29.4434-67.1387Z"/>
  </g>
  <line id="Baseline-S" style="fill:none;stroke:#27AAE1;opacity:1;stroke-width:0.5;" x1="263" x2="3036" y1="696" y2="696"/>
  <line id="Capline-S" style="fill:none;stroke:#27AAE1;opacity:1;stroke-width:0.5;" x1="263" x2="3036" y1="625.541" y2="625.541"/>
  <g id="H-reference" style="fill:#27AAE1;stroke:none;" transform="matrix(1 0 0 1 339 1126)">
   <path d="M0.976562 0L3.66211 0L29.3457-67.1387L30.0293-67.1387L30.0293-70.459L28.125-70.459ZM11.6699-24.4629L46.9727-24.4629L46.2402-26.709L12.4512-26.709ZM55.127 0L57.7637 0L30.6152-70.459L29.4434-70.459L29.4434-67.1387Z"/>
  </g>
  <line id="Baseline-M" style="fill:none;stroke:#27AAE1;opacity:1;stroke-width:0.5;" x1="263" x2="3036" y1="1126" y2="1126"/>
  <line id="Capline-M" style="fill:none;stroke:#27AAE1;opacity:1;stroke-width:0.5;" x1="263" x2="3036" y1="1055.54" y2="1055.54"/>
  <g id="H-reference" style="fill:#27AAE1;stroke:none;" transform="matrix(1 0 0 1 339 1556)">
   <path d="M0.976562 0L3.66211 0L29.3457-67.1387L30.0293-67.1387L30.0293-70.459L28.125-70.459ZM11.6699-24.4629L46.9727-24.4629L46.2402-26.709L12.4512-26.709ZM55.127 0L57.7637 0L30.6152-70.459L29.4434-70.459L29.4434-67.1387Z"/>
  </g>
  <line id="Baseline-L" style="fill:none;stroke:#27AAE1;opacity:1;stroke-width:0.5;" x1="263" x2="3036" y1="1556" y2="1556"/>
  <line id="Capline-L" style="fill:none;stroke:#27AAE1;opacity:1;stroke-width:0.5;" x1="263" x2="3036" y1="1485.54" y2="1485.54"/>
  <line id="left-margin" style="fill:none;stroke:#00AEEF;stroke-width:0.5;opacity:1.0;" x1="1391.3" x2="1391.3" y1="1030.79" y2="1150.12"/>
  <line id="right-margin" style="fill:none;stroke:#00AEEF;stroke-width:0.5;opacity:1.0;" x1="1508.39" x2="1508.39" y1="1030.79" y2="1150.12"/>
 </g>
 <g id="Symbols">
  <g id="Black-L" transform="matrix(1 0 0 1 2854.05 1556)">
   <path d="M79.3457 32.8613Q90.5762 32.8613 100.757 29.3945Q110.938 25.9277 119.458 19.6777Q127.979 13.4277 134.229 4.90723Q140.479-3.61328 143.945-13.7939Q147.412-23.9746 147.412-35.2051Q147.412-46.4355 143.945-56.6162Q140.479-66.7969 134.204-75.3174Q127.93-83.8379 119.434-90.1123Q110.938-96.3867 100.732-99.8291Q90.5273-103.271 79.2969-103.271Q68.1152-103.271 57.9102-99.8291Q47.7051-96.3867 39.209-90.1123Q30.7129-83.8379 24.4385-75.3174Q18.1641-66.7969 14.7217-56.6162Q11.2793-46.4355 11.2793-35.2051Q11.2793-23.9746 14.7217-13.7939Q18.1641-3.61328 24.4385 4.90723Q30.7129 13.4277 39.2334 19.6777Q47.7539 25.9277 57.9346 29.3945Q68.1152 32.8613 79.3457 32.8613ZM79.3457 12.4023Q71.4355 12.4023 64.2822 10.0098Q57.1289 7.61719 51.1963 3.24707Q45.2637-1.12305 40.8936-7.08008Q36.5234-13.0371 34.1309-20.166Q31.7383-27.2949 31.7383-35.2051Q31.7383-43.1152 34.1309-50.2686Q36.5234-57.4219 40.8936-63.3545Q45.2637-69.2871 51.1963-73.6572Q57.1289-78.0273 64.2578-80.4199Q71.3867-82.8125 79.2969-82.8125Q87.207-82.8125 94.3604-80.4199Q101.514-78.0273 107.471-73.6572Q113.428-69.2871 117.798-63.3545Q122.168-57.4219 124.561-50.2686Q126.953-43.1152 126.953-35.2051Q126.953-27.2949 124.561-20.166Q122.168-13.0371 117.798-7.08008Q113.428-1.12305 107.495 3.24707Q101.562 7.61719 94.4092 10.0098Q87.2559 12.4023 79.3457 12.4023ZM66.1133-1.17188L92.5293-1.17188Q96.582-1.17188 98.7793-3.17383Q100.977-5.17578 101.221-9.22852L103.174-51.5137L106.396-51.5137Q108.252-51.5137 109.424-52.6367Q110.596-53.7598 110.645-55.5664Q110.645-57.3242 109.448-58.4229Q108.252-59.5215 106.396-59.5215L94.7266-59.5215L94.7266-62.4512Q94.7266-66.748 91.9434-69.2383Q89.1602-71.7285 83.9844-71.7285L74.6094-71.7285Q69.4824-71.7285 66.6748-69.2383Q63.8672-66.748 63.8672-62.4512L63.8672-59.5215L52.1973-59.5215Q50.4395-59.5215 49.2432-58.4229Q48.0469-57.3242 47.998-55.5664Q47.9492-53.7598 49.1943-52.6367Q50.4395-51.5137 52.1973-51.5137L55.4688-51.5137L57.4219-9.22852Q57.6172-5.17578 59.8389-3.17383Q62.0605-1.17188 66.1133-1.17188ZM69.3359-10.4492Q66.9434-10.4492 66.8457-12.8906L65.918-45.0684Q65.8691-47.7051 68.457-47.7051Q70.8496-47.7051 70.9473-45.166L71.8262-12.9395Q71.875-11.8164 71.167-11.1328Q70.459-10.4492 69.3359-10.4492ZM79.3457-10.4492Q76.8066-10.4492 76.8066-12.8906L76.8066-45.3125Q76.8066-47.7051 79.3457-47.7051Q81.8848-47.7051 81.8848-45.3125L81.8848-12.8906Q81.8848-10.4492 79.3457-10.4492ZM89.3555-10.4492Q88.1836-10.4492 87.4756-11.1328Q86.7676-11.8164 86.8164-12.9395L87.6953-45.166Q87.793-47.7051 90.2344-47.7051Q92.8223-47.7051 92.7246-45.0684L91.8457-12.8906Q91.748-10.4492 89.3555-10.4492ZM72.0703-59.5215L72.1191-62.5Q72.168-63.4766 72.876-64.1357Q73.584-64.7949 74.6582-64.7949L83.9844-64.7949Q85.1074-64.7949 85.791-64.1357Q86.4746-63.4766 86.5234-62.5L86.5723-59.5215Z"/>
  </g>
  <g id="Heavy-L" transform="matrix(1 0 0 1 2558.39 1556)">
   <path d="M78.2715 31.7871Q89.3555 31.7871 99.3652 28.3691Q109.375 24.9512 117.749 18.7988Q126.123 12.6465 132.3 4.24805Q138.477-4.15039 141.895-14.1602Q145.312-24.1699 145.312-35.2051Q145.312-46.2402 141.895-56.2744Q138.477-66.3086 132.3-74.6826Q126.123-83.0566 117.749-89.2578Q109.375-95.459 99.3408-98.8525Q89.3066-102.246 78.2227-102.246Q67.2363-102.246 57.2021-98.8525Q47.168-95.459 38.7939-89.2578Q30.4199-83.0566 24.2432-74.6826Q18.0664-66.3086 14.6729-56.2744Q11.2793-46.2402 11.2793-35.2051Q11.2793-24.1699 14.6729-14.1602Q18.0664-4.15039 24.2432 4.24805Q30.4199 12.6465 38.8184 18.7988Q47.2168 24.9512 57.2266 28.3691Q67.2363 31.7871 78.2715 31.7871ZM78.2715 14.0137Q70.1172 14.0137 62.7197 11.5479Q55.3223 9.08203 49.1943 4.56543Q43.0664 0.0488281 38.5498-6.12793Q34.0332-12.3047 31.543-19.6777Q29.0527-27.0508 29.0527-35.2051Q29.0527-43.4082 31.543-50.8057Q34.0332-58.2031 38.5254-64.3311Q43.0176-70.459 49.1699-74.9756Q55.3223-79.4922 62.6953-81.9824Q70.0684-84.4727 78.2227-84.4727Q86.4258-84.4727 93.8232-81.9824Q101.221-79.4922 107.373-74.9756Q113.525-70.459 118.042-64.3311Q122.559-58.2031 125.049-50.8057Q127.539-43.4082 127.539-35.2051Q127.539-27.0508 125.049-19.6777Q122.559-12.3047 118.042-6.12793Q113.525 0.0488281 107.397 4.56543Q101.27 9.08203 93.8721 11.5479Q86.4746 14.0137 78.2715 14.0137ZM64.4043-0.439453L92.1875-0.439453Q95.9961-0.439453 98.1201-2.39258Q100.244-4.3457 100.488-8.1543L102.49-52.4414L106.201-52.4414Q107.861-52.4414 108.911-53.4668Q109.961-54.4922 110.01-56.1035Q110.059-57.7148 108.96-58.7158Q107.861-59.7168 106.201-59.7168L93.6035-59.7168L93.6035-63.2324Q93.6035-67.3828 90.918-69.7998Q88.2324-72.2168 83.3496-72.2168L73.1445-72.2168Q68.3105-72.2168 65.6006-69.7998Q62.8906-67.3828 62.8906-63.2324L62.8906-59.7168L50.293-59.7168Q48.6816-59.7168 47.6074-58.7158Q46.5332-57.7148 46.4844-56.1035Q46.4355-54.4922 47.5586-53.4668Q48.6816-52.4414 50.293-52.4414L54.0527-52.4414L56.1035-8.1543Q56.2988-4.3457 58.4229-2.39258Q60.5469-0.439453 64.4043-0.439453ZM68.0664-9.86328Q65.7715-9.86328 65.6738-12.1582L64.5996-45.6055Q64.5508-48.0957 67.041-48.0957Q69.3848-48.0957 69.4824-45.7031L70.459-12.2559Q70.5078-11.1816 69.8486-10.5225Q69.1895-9.86328 68.0664-9.86328ZM78.2715-9.86328Q75.8301-9.86328 75.8301-12.207L75.8301-45.8008Q75.8301-48.0957 78.2715-48.0957Q80.7129-48.0957 80.7129-45.8008L80.7129-12.207Q80.7129-9.86328 78.2715-9.86328ZM88.4277-9.86328Q87.3047-9.86328 86.6211-10.5225Q85.9375-11.1816 85.9863-12.2559L87.0117-45.7031Q87.1094-48.0957 89.4531-48.0957Q91.9434-48.0957 91.8945-45.6055L90.8203-12.1582Q90.7227-9.86328 88.4277-9.86328ZM70.5078-59.7168L70.5566-63.1836Q70.5566-64.2578 71.3135-64.9414Q72.0703-65.625 73.2422-65.625L83.252-65.625Q84.4727-65.625 85.2051-64.9414Q85.9375-64.2578 85.9863-63.1836L85.9863-59.7168Z"/>
  </g>
  <g id="Bold-L" transform="matrix(1 0 0 1 2262.85 1556)">
   <path d="M77.0996 30.6152Q87.9395 30.6152 97.7783 27.2461Q107.617 23.877 115.869 17.8223Q124.121 11.7676 130.176 3.51562Q136.23-4.73633 139.6-14.5752Q142.969-24.4141 142.969-35.2539Q142.969-46.0938 139.6-55.9326Q136.23-65.7715 130.151-73.999Q124.072-82.2266 115.845-88.3057Q107.617-94.3848 97.7539-97.7295Q87.8906-101.074 77.0508-101.074Q66.2598-101.074 56.3965-97.7295Q46.5332-94.3848 38.3301-88.3057Q30.127-82.2266 24.0479-73.999Q17.9688-65.7715 14.624-55.9326Q11.2793-46.0938 11.2793-35.2539Q11.2793-24.4141 14.624-14.5752Q17.9688-4.73633 24.0479 3.51562Q30.127 11.7676 38.3545 17.8223Q46.582 23.877 56.4209 27.2461Q66.2598 30.6152 77.0996 30.6152ZM77.0996 15.8203Q68.6523 15.8203 60.9863 13.2568Q53.3203 10.6934 46.9482 6.00586Q40.5762 1.31836 35.8887-5.07812Q31.2012-11.4746 28.6377-19.1162Q26.0742-26.7578 26.0742-35.2539Q26.0742-43.75 28.6377-51.416Q31.2012-59.082 35.8887-65.4541Q40.5762-71.8262 46.9238-76.4893Q53.2715-81.1523 60.9375-83.7158Q68.6035-86.2793 77.0508-86.2793Q85.5469-86.2793 93.2129-83.7158Q100.879-81.1523 107.275-76.4893Q113.672-71.8262 118.335-65.4541Q122.998-59.082 125.586-51.416Q128.174-43.75 128.174-35.2539Q128.174-26.7578 125.61-19.1162Q123.047-11.4746 118.359-5.07812Q113.672 1.31836 107.3 6.00586Q100.928 10.6934 93.2617 13.2568Q85.5957 15.8203 77.0996 15.8203ZM62.4512 0.341797L91.7969 0.341797Q95.3613 0.341797 97.3877-1.53809Q99.4141-3.41797 99.6094-6.98242L101.758-53.5156L105.957-53.5156Q107.422-53.5156 108.35-54.4434Q109.277-55.3711 109.326-56.7383Q109.375-58.1543 108.398-59.0576Q107.422-59.9609 105.957-59.9609L92.3828-59.9609L92.3828-64.0625Q92.3828-68.0664 89.7949-70.4346Q87.207-72.8027 82.666-72.8027L71.4844-72.8027Q66.9434-72.8027 64.3799-70.4346Q61.8164-68.0664 61.8164-64.0625L61.8164-59.9609L48.0957-59.9609Q46.7285-59.9609 45.7764-59.0576Q44.8242-58.1543 44.7754-56.7383Q44.7754-55.3711 45.752-54.4434Q46.7285-53.5156 48.0957-53.5156L52.4902-53.5156L54.6387-6.98242Q54.7852-3.41797 56.8115-1.53809Q58.8379 0.341797 62.4512 0.341797ZM66.6992-9.17969Q64.502-9.17969 64.4043-11.377L63.1348-46.1914Q63.0859-48.5352 65.4785-48.5352Q67.7246-48.5352 67.8223-46.2891L68.9453-11.4746Q68.9941-10.4492 68.3838-9.81445Q67.7734-9.17969 66.6992-9.17969ZM77.0508-9.17969Q74.707-9.17969 74.707-11.4258L74.707-46.3379Q74.707-48.5352 77.0508-48.5352Q79.3945-48.5352 79.3945-46.3379L79.3945-11.4258Q79.3945-9.17969 77.0508-9.17969ZM87.3535-9.17969Q86.2793-9.17969 85.6689-9.81445Q85.0586-10.4492 85.1074-11.4746L86.2305-46.2891Q86.3281-48.5352 88.623-48.5352Q91.0156-48.5352 90.918-46.1914L89.6484-11.377Q89.5996-9.17969 87.3535-9.17969ZM68.75-59.9609L68.75-63.9648Q68.7988-65.0879 69.5801-65.8203Q70.3613-66.5527 71.6309-66.5527L82.4707-66.5527Q83.7402-66.5527 84.5215-65.8203Q85.3027-65.0879 85.3516-63.9648L85.3516-59.9609Z"/>
  </g>
  <g id="Semibold-L" transform="matrix(1 0 0 1 1966.97 1556)">
   <path d="M76.2695 29.7852Q86.9629 29.7852 96.6797 26.4648Q106.396 23.1445 114.551 17.1631Q122.705 11.1816 128.687 3.02734Q134.668-5.12695 137.988-14.8438Q141.309-24.5605 141.309-35.2539Q141.309-45.9473 137.988-55.6641Q134.668-65.3809 128.662-73.5107Q122.656-81.6406 114.526-87.6465Q106.396-93.6523 96.6553-96.9727Q86.9141-100.293 76.2207-100.293Q65.5273-100.293 55.8105-96.9727Q46.0938-93.6523 37.9883-87.6465Q29.8828-81.6406 23.877-73.5107Q17.8711-65.3809 14.5752-55.6641Q11.2793-45.9473 11.2793-35.2539Q11.2793-24.5605 14.5996-14.8438Q17.9199-5.12695 23.9014 3.02734Q29.8828 11.1816 38.0127 17.1631Q46.1426 23.1445 55.8594 26.4648Q65.5762 29.7852 76.2695 29.7852ZM76.2695 17.041Q67.627 17.041 59.7656 14.4043Q51.9043 11.7676 45.3857 6.98242Q38.8672 2.19727 34.0576-4.3457Q29.248-10.8887 26.6357-18.7256Q24.0234-26.5625 24.0234-35.2539Q24.0234-43.9453 26.6357-51.8066Q29.248-59.668 34.0332-66.1865Q38.8184-72.7051 45.3369-77.4902Q51.8555-82.2754 59.7168-84.9121Q67.5781-87.5488 76.2207-87.5488Q84.9609-87.5488 92.7979-84.9121Q100.635-82.2754 107.178-77.4902Q113.721-72.7051 118.506-66.1865Q123.291-59.668 125.928-51.8066Q128.564-43.9453 128.564-35.2539Q128.613-26.5625 126.001-18.7256Q123.389-10.8887 118.579-4.3457Q113.77 2.19727 107.227 6.98242Q100.684 11.7676 92.8467 14.4043Q85.0098 17.041 76.2695 17.041ZM61.084 0.878906L91.5527 0.878906Q94.873 0.878906 96.8506-0.927734Q98.8281-2.73438 99.0234-6.15234L101.221-54.1992L105.811-54.1992Q107.08-54.1992 107.935-55.0537Q108.789-55.9082 108.838-57.1777Q108.887-58.4473 107.983-59.2773Q107.08-60.1074 105.811-60.1074L91.5039-60.1074L91.5039-64.6484Q91.5039-68.5547 88.9893-70.8496Q86.4746-73.1445 82.1777-73.1445L70.3613-73.1445Q66.0156-73.1445 63.5498-70.8496Q61.084-68.5547 61.084-64.6484L61.084-60.1074L46.582-60.1074Q45.3613-60.1074 44.4824-59.2773Q43.6035-58.4473 43.6035-57.1777Q43.6035-55.9082 44.4824-55.0537Q45.3613-54.1992 46.582-54.1992L51.416-54.1992L53.6133-6.15234Q53.7598-2.73438 55.7129-0.927734Q57.666 0.878906 61.084 0.878906ZM65.7227-8.74023Q63.5742-8.74023 63.4766-10.8398L62.1094-46.582Q62.0605-48.8281 64.4043-48.8281Q66.5527-48.8281 66.6504-46.6797L67.9199-10.8887Q67.9688-9.91211 67.3584-9.32617Q66.748-8.74023 65.7227-8.74023ZM76.1719-8.74023Q73.9258-8.74023 73.9258-10.8887L73.9258-46.6797Q73.9258-48.8281 76.1719-48.8281Q78.4668-48.8281 78.4668-46.6797L78.4668-10.8887Q78.4668-8.74023 76.1719-8.74023ZM86.6211-8.74023Q85.5957-8.74023 85.0098-9.32617Q84.4238-9.91211 84.4727-10.8887L85.6934-46.6797Q85.7422-48.8281 87.9883-48.8281Q90.332-48.8281 90.2832-46.582L88.8672-10.8398Q88.7695-8.74023 86.6211-8.74023ZM67.5293-60.1074L67.5293-64.4531Q67.5293-65.6738 68.3594-66.4307Q69.1895-67.1875 70.5078-67.1875L81.8848-67.1875Q83.2031-67.1875 84.0332-66.4307Q84.8633-65.6738 84.9121-64.4531L84.9121-60.1074Z"/>
  </g>
  <g id="Medium-L" transform="matrix(1 0 0 1 1670.87 1556)">
   <path d="M75.6836 29.1504Q86.2305 29.1504 95.8496 25.8545Q105.469 22.5586 113.55 16.626Q121.631 10.6934 127.563 2.63672Q133.496-5.41992 136.792-15.0635Q140.088-24.707 140.088-35.2539Q140.088-45.8496 136.792-55.4688Q133.496-65.0879 127.539-73.1445Q121.582-81.2012 113.525-87.1582Q105.469-93.1152 95.8252-96.3867Q86.1816-99.6582 75.6348-99.6582Q65.0391-99.6582 55.4199-96.3867Q45.8008-93.1152 37.7441-87.1582Q29.6875-81.2012 23.7549-73.1445Q17.8223-65.0879 14.5508-55.4688Q11.2793-45.8496 11.2793-35.2539Q11.2793-24.707 14.5508-15.0635Q17.8223-5.41992 23.7549 2.63672Q29.6875 10.6934 37.7686 16.626Q45.8496 22.5586 55.4688 25.8545Q65.0879 29.1504 75.6836 29.1504ZM75.6836 18.0176Q66.8457 18.0176 58.8379 15.332Q50.8301 12.6465 44.2139 7.76367Q37.5977 2.88086 32.6904-3.78418Q27.7832-10.4492 25.1221-18.4326Q22.4609-26.416 22.4609-35.2539Q22.4609-44.1406 25.1221-52.124Q27.7832-60.1074 32.666-66.748Q37.5488-73.3887 44.165-78.2715Q50.7812-83.1543 58.7891-85.8154Q66.7969-88.4766 75.6348-88.4766Q84.4727-88.4766 92.4805-85.8154Q100.488-83.1543 107.129-78.2715Q113.77-73.3887 118.652-66.748Q123.535-60.1074 126.221-52.124Q128.906-44.1406 128.906-35.2539Q128.955-26.416 126.294-18.4326Q123.633-10.4492 118.726-3.78418Q113.818 2.88086 107.178 7.76367Q100.537 12.6465 92.5293 15.332Q84.5215 18.0176 75.6836 18.0176ZM60.0586 1.31836L91.3574 1.31836Q94.5312 1.31836 96.4844-0.463867Q98.4375-2.24609 98.584-5.51758L100.83-54.7363L105.664-54.7363Q106.885-54.7363 107.666-55.542Q108.447-56.3477 108.496-57.4707Q108.545-58.6426 107.715-59.4238Q106.885-60.2051 105.664-60.2051L90.8691-60.2051L90.8691-65.0879Q90.8691-68.8965 88.4277-71.167Q85.9863-73.4375 81.7871-73.4375L69.4824-73.4375Q65.332-73.4375 62.915-71.167Q60.498-68.8965 60.498-65.0879L60.498-60.2051L45.459-60.2051Q44.3848-60.2051 43.5547-59.4238Q42.7246-58.6426 42.7246-57.4707Q42.7246-56.3477 43.5547-55.542Q44.3848-54.7363 45.459-54.7363L50.5859-54.7363L52.8809-5.51758Q52.9785-2.24609 54.8828-0.463867Q56.7871 1.31836 60.0586 1.31836ZM64.9902-8.34961Q62.8906-8.34961 62.793-10.4004L61.3281-46.875Q61.2793-49.0723 63.5742-49.0723Q65.6738-49.0723 65.7715-46.9727L67.0898-10.498Q67.1387-9.52148 66.5771-8.93555Q66.0156-8.34961 64.9902-8.34961ZM75.5371-8.34961Q73.3398-8.34961 73.3398-10.498L73.3398-46.9727Q73.3398-49.0723 75.5371-49.0723Q77.832-49.0723 77.832-46.9727L77.832-10.498Q77.832-8.34961 75.5371-8.34961ZM86.084-8.34961Q85.0586-8.34961 84.4971-8.93555Q83.9355-9.52148 83.9844-10.498L85.3027-46.9727Q85.3516-49.0723 87.5488-49.0723Q89.8438-49.0723 89.7949-46.875L88.2324-10.4004Q88.1836-8.34961 86.084-8.34961ZM66.6016-60.2051L66.6016-64.8438Q66.6016-66.1133 67.4561-66.8945Q68.3105-67.6758 69.6777-67.6758L81.4941-67.6758Q82.8613-67.6758 83.7158-66.8945Q84.5703-66.1133 84.5703-64.8438L84.5703-60.2051Z"/>
  </g>
  <g id="Regular-L" transform="matrix(1 0 0 1 1374.97 1556)">
   <path d="M74.8535 28.3203Q85.3027 28.3203 94.7998 25.0732Q104.297 21.8262 112.256 15.9668Q120.215 10.1074 126.099 2.14844Q131.982-5.81055 135.229-15.332Q138.477-24.8535 138.477-35.2539Q138.477-45.7031 135.229-55.2002Q131.982-64.6973 126.099-72.6562Q120.215-80.6152 112.256-86.499Q104.297-92.3828 94.7754-95.6299Q85.2539-98.877 74.8047-98.877Q64.3555-98.877 54.8584-95.6299Q45.3613-92.3828 37.4268-86.499Q29.4922-80.6152 23.6084-72.6562Q17.7246-64.6973 14.502-55.2002Q11.2793-45.7031 11.2793-35.2539Q11.2793-24.8535 14.5264-15.332Q17.7734-5.81055 23.6328 2.14844Q29.4922 10.1074 37.4512 15.9668Q45.4102 21.8262 54.9072 25.0732Q64.4043 28.3203 74.8535 28.3203ZM74.8535 19.2383Q65.8203 19.2383 57.6416 16.4795Q49.4629 13.7207 42.6758 8.74023Q35.8887 3.75977 30.8838-3.05176Q25.8789-9.86328 23.1445-18.042Q20.4102-26.2207 20.4102-35.2539Q20.4102-44.3359 23.1445-52.5146Q25.8789-60.6934 30.8594-67.5049Q35.8398-74.3164 42.627-79.2969Q49.4141-84.2773 57.5928-87.0117Q65.7715-89.7461 74.8047-89.7461Q83.8867-89.7461 92.0654-87.0117Q100.244-84.2773 107.056-79.2969Q113.867-74.3164 118.848-67.5049Q123.828-60.6934 126.587-52.5146Q129.346-44.3359 129.346-35.2539Q129.395-26.2207 126.66-18.042Q123.926-9.86328 118.921-3.05176Q113.916 3.75977 107.104 8.74023Q100.293 13.7207 92.1143 16.4795Q83.9355 19.2383 74.8535 19.2383ZM58.7402 1.85547L91.0645 1.85547Q94.0918 1.85547 95.9717 0.12207Q97.8516-1.61133 97.998-4.6875L100.293-55.4688L105.518-55.4688Q106.543-55.4688 107.251-56.2012Q107.959-56.9336 108.008-57.9102Q108.057-58.9355 107.3-59.6436Q106.543-60.3516 105.518-60.3516L89.9902-60.3516L89.9902-65.6738Q89.9902-69.3848 87.6221-71.6064Q85.2539-73.8281 81.2988-73.8281L68.3594-73.8281Q64.4043-73.8281 62.085-71.6064Q59.7656-69.3848 59.7656-65.6738L59.7656-60.3516L43.9941-60.3516Q43.0176-60.3516 42.2852-59.6436Q41.5527-58.9355 41.5527-57.9102Q41.5527-56.9336 42.2852-56.2012Q43.0176-55.4688 43.9941-55.4688L49.5117-55.4688L51.8555-4.6875Q51.9531-1.61133 53.7842 0.12207Q55.6152 1.85547 58.7402 1.85547ZM64.0137-7.91016Q62.0117-7.91016 61.9141-9.86328L60.3027-47.2656Q60.2539-49.3652 62.5-49.3652Q64.5508-49.3652 64.6484-47.3633L66.0645-9.96094Q66.1133-9.0332 65.5762-8.47168Q65.0391-7.91016 64.0137-7.91016ZM74.707-7.91016Q72.5586-7.91016 72.5586-9.96094L72.5586-47.3145Q72.5586-49.3652 74.707-49.3652Q76.9043-49.3652 76.9043-47.3145L76.9043-9.96094Q76.9043-7.91016 74.707-7.91016ZM85.3516-7.91016Q84.375-7.91016 83.8379-8.47168Q83.3008-9.0332 83.3496-9.96094L84.7656-47.3633Q84.8145-49.3652 86.9629-49.3652Q89.1602-49.3652 89.1113-47.2656L87.4512-9.86328Q87.4023-7.91016 85.3516-7.91016ZM65.3809-60.3516L65.3809-65.3809Q65.3809-66.6992 66.2598-67.5049Q67.1387-68.3105 68.5547-68.3105L80.9082-68.3105Q82.3242-68.3105 83.2275-67.5049Q84.1309-66.6992 84.1309-65.3809L84.1309-60.3516Z"/>
  </g>
  <g id="Light-L" transform="matrix(1 0 0 1 1079.18 1556)">
   <path d="M73.9258 27.3926Q84.2285 27.3926 93.6035 24.1943Q102.979 20.9961 110.815 15.2344Q118.652 9.47266 124.438 1.63574Q130.225-6.20117 133.423-15.5762Q136.621-24.9512 136.621-35.2539Q136.621-45.5566 133.423-54.9316Q130.225-64.3066 124.438-72.1436Q118.652-79.9805 110.815-85.7666Q102.979-91.5527 93.6035-94.751Q84.2285-97.9492 73.877-97.9492Q63.5742-97.9492 54.2236-94.751Q44.873-91.5527 37.0361-85.7666Q29.1992-79.9805 23.4131-72.1436Q17.627-64.3066 14.4531-54.9316Q11.2793-45.5566 11.2793-35.2539Q11.2793-24.9512 14.4775-15.5762Q17.6758-6.20117 23.4375 1.63574Q29.1992 9.47266 37.0361 15.2344Q44.873 20.9961 54.248 24.1943Q63.623 27.3926 73.9258 27.3926ZM73.9258 20.5078Q64.6973 20.5078 56.3232 17.6758Q47.9492 14.8438 40.9912 9.74121Q34.0332 4.63867 28.9307-2.31934Q23.8281-9.27734 21.0205-17.6514Q18.2129-26.0254 18.2129-35.2539Q18.2129-44.5312 21.0205-52.8809Q23.8281-61.2305 28.9307-68.2129Q34.0332-75.1953 40.9912-80.2979Q47.9492-85.4004 56.2988-88.208Q64.6484-91.0156 73.877-91.0156Q83.1543-91.0156 91.5283-88.208Q99.9023-85.4004 106.86-80.2979Q113.818-75.1953 118.945-68.2129Q124.072-61.2305 126.88-52.8809Q129.688-44.5312 129.688-35.2539Q129.736-26.0254 126.929-17.6514Q124.121-9.27734 118.994-2.31934Q113.867 4.63867 106.909 9.74121Q99.9512 14.8438 91.5771 17.6758Q83.2031 20.5078 73.9258 20.5078ZM58.0566 1.9043L90.0879 1.9043Q92.9688 1.9043 94.8975 0.12207Q96.8262-1.66016 96.9727-4.58984L99.4629-56.6895L105.029-56.6895Q105.908-56.6895 106.543-57.2998Q107.178-57.9102 107.178-58.7891Q107.227-59.668 106.567-60.2783Q105.908-60.8887 105.029-60.8887L88.8672-60.8887L88.8672-66.5039Q88.8672-69.9219 86.6211-72.0459Q84.375-74.1699 80.6152-74.1699L67.3828-74.1699Q63.6719-74.1699 61.4502-72.0459Q59.2285-69.9219 59.2285-66.5039L59.2285-60.8887L42.6758-60.8887Q41.8457-60.8887 41.2109-60.2783Q40.5762-59.668 40.5762-58.7891Q40.5762-57.9102 41.2109-57.2998Q41.8457-56.6895 42.6758-56.6895L48.6816-56.6895L51.2207-4.58984Q51.3184-1.66016 53.1982 0.12207Q55.0781 1.9043 58.0566 1.9043ZM63.1836-7.86133Q61.4746-7.86133 61.3281-9.66797L59.2773-47.8516Q59.2285-49.7559 61.2793-49.7559Q63.1836-49.7559 63.2812-47.998L65.0391-9.76562Q65.0879-8.93555 64.624-8.39844Q64.1602-7.86133 63.1836-7.86133ZM73.7793-7.91016Q71.8262-7.91016 71.8262-9.76562L71.8262-47.9004Q71.8262-49.7559 73.7793-49.7559Q75.7812-49.7559 75.7812-47.9004L75.7812-9.76562Q75.7812-7.91016 73.7793-7.91016ZM84.3262-7.86133Q83.4473-7.86133 82.959-8.39844Q82.4707-8.93555 82.5195-9.76562L84.2773-47.998Q84.375-49.7559 86.3281-49.7559Q88.3301-49.7559 88.2812-47.8516L86.1816-9.66797Q86.084-7.86133 84.3262-7.86133ZM63.8184-60.8887L63.8184-66.2598Q63.8184-67.7246 64.8193-68.6279Q65.8203-69.5312 67.4316-69.5312L80.2246-69.5312Q81.8359-69.5312 82.8613-68.6279Q83.8867-67.7246 83.8867-66.2598L83.8867-60.8887Z"/>
  </g>
  <g id="Thin-L" transform="matrix(1 0 0 1 783.693 1556)">
   <path d="M72.7051 26.1719Q82.8613 26.1719 92.041 23.0469Q101.221 19.9219 108.911 14.2822Q116.602 8.64258 122.266 0.952148Q127.93-6.73828 131.055-15.9424Q134.18-25.1465 134.18-35.2539Q134.18-45.4102 131.055-54.5898Q127.93-63.7695 122.29-71.46Q116.65-79.1504 108.936-84.8145Q101.221-90.4785 92.0166-93.6035Q82.8125-96.7285 72.7051-96.7285Q62.5488-96.7285 53.3691-93.6035Q44.1895-90.4785 36.499-84.8145Q28.8086-79.1504 23.1689-71.46Q17.5293-63.7695 14.4043-54.5898Q11.2793-45.4102 11.2793-35.2539Q11.2793-25.1465 14.4043-15.9424Q17.5293-6.73828 23.1689 0.952148Q28.8086 8.64258 36.5234 14.2822Q44.2383 19.9219 53.418 23.0469Q62.5977 26.1719 72.7051 26.1719ZM72.7051 22.168Q63.2324 22.168 54.6143 19.2627Q45.9961 16.3574 38.8184 11.084Q31.6406 5.81055 26.3428-1.36719Q21.0449-8.54492 18.1641-17.1631Q15.2832-25.7812 15.2832-35.2539Q15.2832-44.7754 18.1641-53.3936Q21.0449-62.0117 26.3428-69.1895Q31.6406-76.3672 38.8184-81.6406Q45.9961-86.9141 54.5898-89.8193Q63.1836-92.7246 72.7051-92.7246Q82.2266-92.7246 90.8203-89.8193Q99.4141-86.9141 106.616-81.6406Q113.818-76.3672 119.092-69.1895Q124.365-62.0117 127.271-53.3936Q130.176-44.7754 130.176-35.2539Q130.176-25.7812 127.271-17.1631Q124.365-8.54492 119.092-1.36719Q113.818 5.81055 106.641 11.084Q99.4629 16.3574 90.8447 19.2627Q82.2266 22.168 72.7051 22.168ZM57.1289 1.95312L88.7207 1.95312Q91.5039 1.95312 93.4814 0.12207Q95.459-1.70898 95.5566-4.44336L98.3887-58.3008L104.395-58.3008Q105.078-58.3008 105.591-58.7891Q106.104-59.2773 106.104-59.9609Q106.104-60.6445 105.591-61.1328Q105.078-61.6211 104.395-61.6211L87.4023-61.6211L87.4023-67.627Q87.4023-70.6055 85.2783-72.6318Q83.1543-74.6582 79.6875-74.6582L66.1133-74.6582Q62.6953-74.6582 60.5957-72.6318Q58.4961-70.6055 58.4961-67.627L58.4961-61.6211L40.9668-61.6211Q40.2832-61.6211 39.7705-61.1328Q39.2578-60.6445 39.2578-59.9609Q39.2578-59.2773 39.7705-58.7891Q40.2832-58.3008 40.9668-58.3008L47.5586-58.3008L50.3418-4.44336Q50.4395-1.70898 52.3926 0.12207Q54.3457 1.95312 57.1289 1.95312ZM62.1094-7.86133Q60.6934-7.86133 60.5469-9.375L57.959-48.6328Q57.8125-50.293 59.668-50.293Q61.3281-50.293 61.4258-48.8281L63.623-9.52148Q63.7207-8.78906 63.3301-8.3252Q62.9395-7.86133 62.1094-7.86133ZM72.5098-7.91016Q70.8496-7.91016 70.8496-9.52148L70.8496-48.7305Q70.8496-50.293 72.5098-50.293Q74.2188-50.293 74.2188-48.7305L74.2188-9.52148Q74.2188-7.91016 72.5098-7.91016ZM82.959-7.86133Q82.1289-7.86133 81.7383-8.3252Q81.3477-8.78906 81.4453-9.52148L83.6426-48.8281Q83.7402-50.293 85.4004-50.293Q87.2559-50.293 87.1094-48.6328L84.4727-9.375Q84.375-7.86133 82.959-7.86133ZM61.7676-61.6211L61.7676-67.3828Q61.7676-69.043 62.915-70.0928Q64.0625-71.1426 65.918-71.1426L79.2969-71.1426Q81.2012-71.1426 82.373-70.0928Q83.5449-69.043 83.5449-67.3828L83.5449-61.6211Z"/>
  </g>
  <g id="Ultralight-L" transform="matrix(1 0 0 1 487.592 1556)">
   <path d="M72.0703 25.5371Q82.1289 25.5371 91.2354 22.4609Q100.342 19.3848 107.935 13.7939Q115.527 8.20312 121.143 0.585938Q126.758-7.03125 129.858-16.1133Q132.959-25.1953 132.959-35.2539Q132.959-45.3125 129.858-54.4189Q126.758-63.5254 121.167-71.1182Q115.576-78.7109 107.959-84.3262Q100.342-89.9414 91.2354-93.0176Q82.1289-96.0938 72.0703-96.0938Q62.0605-96.0938 52.9541-93.0176Q43.8477-89.9414 36.2305-84.3262Q28.6133-78.7109 23.0225-71.1182Q17.4316-63.5254 14.3555-54.4189Q11.2793-45.3125 11.2793-35.2539Q11.2793-25.1953 14.3555-16.1133Q17.4316-7.03125 23.0225 0.585938Q28.6133 8.20312 36.2305 13.7939Q43.8477 19.3848 52.9541 22.4609Q62.0605 25.5371 72.0703 25.5371ZM72.0703 23.0469Q62.4512 23.0469 53.7109 20.0928Q44.9707 17.1387 37.6709 11.792Q30.3711 6.44531 25.0244-0.854492Q19.6777-8.1543 16.7236-16.8945Q13.7695-25.6348 13.7695-35.2539Q13.7695-44.9219 16.7236-53.6377Q19.6777-62.3535 25.0244-69.6533Q30.3711-76.9531 37.6953-82.3242Q45.0195-87.6953 53.7354-90.6494Q62.4512-93.6035 72.0703-93.6035Q81.7383-93.6035 90.4785-90.6494Q99.2188-87.6953 106.494-82.3242Q113.77-76.9531 119.141-69.6533Q124.512-62.3535 127.466-53.6377Q130.42-44.9219 130.42-35.2539Q130.371-25.6348 127.441-16.8945Q124.512-8.1543 119.141-0.854492Q113.77 6.44531 106.494 11.792Q99.2188 17.1387 90.4785 20.0928Q81.7383 23.0469 72.0703 23.0469ZM56.7383 2.00195L88.0859 2.00195Q90.7715 2.00195 92.7734 0.12207Q94.7754-1.75781 94.873-4.3457L97.8516-59.1309L104.102-59.1309Q104.688-59.1309 105.127-59.5215Q105.566-59.9121 105.566-60.5957Q105.566-61.1328 105.127-61.5479Q104.688-61.9629 104.102-61.9629L86.6699-61.9629L86.6699-68.1641Q86.6699-70.9961 84.6191-72.9248Q82.5684-74.8535 79.248-74.8535L65.4785-74.8535Q62.207-74.8535 60.1807-72.9248Q58.1543-70.9961 58.1543-68.1641L58.1543-61.9629L40.0879-61.9629Q39.502-61.9629 39.0625-61.5479Q38.623-61.1328 38.623-60.5957Q38.623-59.9121 39.0625-59.5215Q39.502-59.1309 40.0879-59.1309L47.0215-59.1309L49.9023-4.3457Q50-1.75781 52.002 0.12207Q54.0039 2.00195 56.7383 2.00195ZM61.5723-7.8125Q60.3516-7.8125 60.2051-9.22852L57.2754-49.0234Q57.1289-50.5859 58.8867-50.5859Q60.4004-50.5859 60.5469-49.2188L62.9395-9.42383Q63.0371-8.69141 62.6953-8.25195Q62.3535-7.8125 61.5723-7.8125ZM71.9238-7.91016Q70.4102-7.91016 70.4102-9.42383L70.4102-49.1211Q70.4102-50.5859 71.9238-50.5859Q73.4863-50.5859 73.4863-49.1211L73.4863-9.42383Q73.4863-7.91016 71.9238-7.91016ZM82.2754-7.8125Q81.543-7.8125 81.1768-8.25195Q80.8105-8.69141 80.9082-9.42383L83.3496-49.2188Q83.4961-50.5859 85.0098-50.5859Q86.7188-50.5859 86.5723-49.0234L83.6426-9.22852Q83.4961-7.8125 82.2754-7.8125ZM60.7422-61.9629L60.7422-67.9688Q60.7422-69.7266 61.9873-70.8252Q63.2324-71.9238 65.1855-71.9238L78.8574-71.9238Q80.9082-71.9238 82.1777-70.8252Q83.4473-69.7266 83.4473-67.9688L83.4473-61.9629Z"/>
  </g>
  <g id="Black-M" transform="matrix(1 0 0 1 2871.32 1126)">
   <path d="M62.0605 18.1152Q73.0957 18.1152 82.7637 13.9648Q92.4316 9.81445 99.7559 2.46582Q107.08-4.88281 111.255-14.5264Q115.43-24.1699 115.43-35.2051Q115.43-46.2402 111.255-55.8838Q107.08-65.5273 99.7559-72.876Q92.4316-80.2246 82.7637-84.375Q73.0957-88.5254 62.0605-88.5254Q51.0742-88.5254 41.4062-84.375Q31.7383-80.2246 24.3896-72.876Q17.041-65.5273 12.8906-55.8838Q8.74023-46.2402 8.74023-35.2051Q8.74023-24.1699 12.8906-14.5264Q17.041-4.88281 24.3896 2.46582Q31.7383 9.81445 41.4062 13.9648Q51.0742 18.1152 62.0605 18.1152ZM62.0605 0.732422Q54.6387 0.732422 48.1201-2.05078Q41.6016-4.83398 36.6455-9.76562Q31.6895-14.6973 28.9062-21.2158Q26.123-27.7344 26.123-35.2051Q26.123-42.6758 28.9062-49.1943Q31.6895-55.7129 36.6455-60.6445Q41.6016-65.5762 48.1201-68.3594Q54.6387-71.1426 62.0605-71.1426Q69.5312-71.1426 76.0498-68.3594Q82.5684-65.5762 87.5-60.6445Q92.4316-55.7129 95.2393-49.1943Q98.0469-42.6758 98.0469-35.2051Q98.0469-27.7344 95.2393-21.2158Q92.4316-14.6973 87.5-9.76562Q82.5684-4.83398 76.0498-2.05078Q69.5312 0.732422 62.0605 0.732422ZM52.4902-9.42383L71.6797-9.42383Q75-9.42383 76.7822-11.0596Q78.5645-12.6953 78.7598-15.9668L80.3223-47.4609L82.4707-47.4609Q84.0332-47.4609 85.0098-48.3887Q85.9863-49.3164 85.9863-50.7812Q85.9863-52.2949 85.0098-53.1982Q84.0332-54.1016 82.4707-54.1016L74.0234-54.1016L74.0234-55.957Q74.0234-59.3262 71.8018-61.2549Q69.5801-63.1836 65.3809-63.1836L58.7891-63.1836Q54.6387-63.1836 52.3926-61.2549Q50.1465-59.3262 50.1465-55.957L50.1465-54.1016L41.6992-54.1016Q40.1855-54.1016 39.209-53.1982Q38.2324-52.2949 38.1836-50.7812Q38.1348-49.3164 39.1602-48.3887Q40.1855-47.4609 41.6992-47.4609L43.9453-47.4609L45.459-15.9668Q45.5566-12.6953 47.3877-11.0596Q49.2188-9.42383 52.4902-9.42383ZM54.541-16.5039Q52.6855-16.5039 52.5879-18.457L51.9043-42.5781Q51.8066-44.6777 53.8574-44.6777Q55.7129-44.6777 55.8105-42.7246L56.4941-18.5059Q56.5918-16.5039 54.541-16.5039ZM62.1582-16.5039Q60.1562-16.5039 60.1562-18.457L60.1562-42.8223Q60.1562-44.6777 62.1582-44.6777Q64.0625-44.6777 64.0625-42.8223L64.0625-18.457Q64.0625-16.5039 62.1582-16.5039ZM69.7266-16.5039Q67.627-16.5039 67.7246-18.5059L68.4082-42.7246Q68.5059-44.6777 70.4102-44.6777Q72.4121-44.6777 72.3145-42.5781L71.6309-18.457Q71.5332-16.5039 69.7266-16.5039ZM56.6895-54.1016L56.7383-56.0547Q56.7871-56.8359 57.3486-57.3242Q57.9102-57.8125 58.7402-57.8125L65.4785-57.8125Q66.3574-57.8125 66.8945-57.3242Q67.4316-56.8359 67.4805-56.0547L67.5293-54.1016Z"/>
  </g>
  <g id="Heavy-M" transform="matrix(1 0 0 1 2575.43 1126)">
   <path d="M61.2305 17.2852Q72.0703 17.2852 81.5918 13.1836Q91.1133 9.08203 98.3154 1.85547Q105.518-5.37109 109.644-14.8682Q113.77-24.3652 113.77-35.2051Q113.77-46.0449 109.644-55.542Q105.518-65.0391 98.3154-72.29Q91.1133-79.541 81.5918-83.6182Q72.0703-87.6953 61.2305-87.6953Q50.4395-87.6953 40.918-83.6182Q31.3965-79.541 24.1699-72.29Q16.9434-65.0391 12.8418-55.542Q8.74023-46.0449 8.74023-35.2051Q8.74023-24.3652 12.8418-14.8682Q16.9434-5.37109 24.1699 1.85547Q31.3965 9.08203 40.918 13.1836Q50.4395 17.2852 61.2305 17.2852ZM61.2305 2.05078Q53.5156 2.05078 46.7529-0.854492Q39.9902-3.75977 34.8633-8.8623Q29.7363-13.9648 26.8555-20.7275Q23.9746-27.4902 23.9746-35.2051Q23.9746-42.9688 26.8555-49.7314Q29.7363-56.4941 34.8633-61.5967Q39.9902-66.6992 46.7529-69.5801Q53.5156-72.4609 61.2305-72.4609Q68.9453-72.4609 75.708-69.5801Q82.4707-66.6992 87.5977-61.5967Q92.7246-56.4941 95.6299-49.7314Q98.5352-42.9688 98.5352-35.2051Q98.5352-27.4902 95.6299-20.7275Q92.7246-13.9648 87.6221-8.8623Q82.5195-3.75977 75.7568-0.854492Q68.9941 2.05078 61.2305 2.05078ZM50.9277-8.74023L71.582-8.74023Q74.6582-8.74023 76.3672-10.3027Q78.0762-11.8652 78.2227-14.9414L79.834-48.0957L82.373-48.0957Q83.7891-48.0957 84.668-48.9502Q85.5469-49.8047 85.5469-51.123Q85.5957-52.4902 84.6924-53.3203Q83.7891-54.1504 82.373-54.1504L73.1445-54.1504L73.1445-56.543Q73.1445-59.8145 71.0205-61.6943Q68.8965-63.5742 64.9414-63.5742L57.5684-63.5742Q53.6133-63.5742 51.4648-61.6943Q49.3164-59.8145 49.3164-56.543L49.3164-54.1504L40.0879-54.1504Q38.7207-54.1504 37.8418-53.3203Q36.9629-52.4902 36.9141-51.123Q36.8652-49.8047 37.793-48.9502Q38.7207-48.0957 40.0879-48.0957L42.7734-48.0957L44.2871-14.9414Q44.3848-11.8652 46.1182-10.3027Q47.8516-8.74023 50.9277-8.74023ZM53.5156-15.918Q51.6602-15.918 51.6113-17.8223L50.8301-42.9688Q50.7324-44.9707 52.7344-44.9707Q54.5898-44.9707 54.6387-43.0664L55.4199-17.8711Q55.4688-15.918 53.5156-15.918ZM61.2793-15.918Q59.3262-15.918 59.3262-17.8223L59.3262-43.1641Q59.3262-44.9707 61.2793-44.9707Q63.1836-44.9707 63.1836-43.1641L63.1836-17.8223Q63.1836-15.918 61.2793-15.918ZM69.043-15.918Q67.041-15.918 67.0898-17.8711L67.8223-43.0664Q67.9199-44.9707 69.7754-44.9707Q71.7285-44.9707 71.6797-42.9688L70.8984-17.8223Q70.8496-15.918 69.043-15.918ZM55.4688-54.1504L55.5176-56.543Q55.5664-57.373 56.1279-57.8857Q56.6895-58.3984 57.5684-58.3984L64.9414-58.3984Q65.8203-58.3984 66.3818-57.8857Q66.9434-57.373 66.9922-56.543L67.041-54.1504Z"/>
  </g>
  <g id="Bold-M" transform="matrix(1 0 0 1 2279.65 1126)">
   <path d="M60.3027 16.3574Q70.9473 16.3574 80.2734 12.3291Q89.5996 8.30078 96.7041 1.17188Q103.809-5.95703 107.861-15.2832Q111.914-24.6094 111.914-35.2539Q111.914-45.8496 107.861-55.1758Q103.809-64.502 96.7041-71.6309Q89.5996-78.7598 80.249-82.7881Q70.8984-86.8164 60.3027-86.8164Q49.707-86.8164 40.3564-82.7881Q31.0059-78.7598 23.9014-71.6309Q16.7969-64.502 12.7686-55.1758Q8.74023-45.8496 8.74023-35.2539Q8.74023-24.6094 12.7686-15.2832Q16.7969-5.95703 23.9258 1.17188Q31.0547 8.30078 40.3809 12.3291Q49.707 16.3574 60.3027 16.3574ZM60.3027 3.51562Q52.2949 3.51562 45.2637 0.488281Q38.2324-2.53906 32.9102-7.83691Q27.5879-13.1348 24.6094-20.166Q21.6309-27.1973 21.6309-35.2539Q21.6309-43.3105 24.6094-50.3174Q27.5879-57.3242 32.9102-62.6465Q38.2324-67.9688 45.2393-70.9717Q52.2461-73.9746 60.3027-73.9746Q68.3594-73.9746 75.3662-70.9717Q82.373-67.9688 87.6953-62.6465Q93.0176-57.3242 96.0449-50.3174Q99.0723-43.3105 99.0723-35.2539Q99.0723-27.1973 96.0693-20.166Q93.0664-13.1348 87.7441-7.83691Q82.4219-2.53906 75.3906 0.488281Q68.3594 3.51562 60.3027 3.51562ZM49.2188-7.95898L71.4355-7.95898Q74.3164-7.95898 75.9277-9.44824Q77.5391-10.9375 77.6855-13.8184L79.2969-48.877L82.2754-48.877Q83.4961-48.877 84.3018-49.6338Q85.1074-50.3906 85.1074-51.5625Q85.1562-52.7344 84.3262-53.4912Q83.4961-54.248 82.2754-54.248L72.2168-54.248L72.2168-57.1777Q72.2168-60.3516 70.166-62.207Q68.1152-64.0625 64.4043-64.0625L56.2012-64.0625Q52.5391-64.0625 50.4883-62.207Q48.4375-60.3516 48.4375-57.1777L48.4375-54.248L38.3301-54.248Q37.1094-54.248 36.3281-53.4912Q35.5469-52.7344 35.498-51.5625Q35.498-50.3906 36.3037-49.6338Q37.1094-48.877 38.3301-48.877L41.4551-48.877L43.0176-13.8184Q43.1152-10.9375 44.7266-9.44824Q46.3379-7.95898 49.2188-7.95898ZM52.3438-15.2832Q50.5371-15.2832 50.4883-17.0898L49.6582-43.4082Q49.6094-45.3125 51.5137-45.3125Q53.3203-45.3125 53.3691-43.5059L54.1992-17.1387Q54.248-15.2832 52.3438-15.2832ZM60.3027-15.2832Q58.4473-15.2832 58.4473-17.0898L58.4473-43.5547Q58.4473-45.3125 60.3027-45.3125Q62.207-45.3125 62.207-43.5547L62.207-17.0898Q62.207-15.2832 60.3027-15.2832ZM68.2617-15.2832Q66.3574-15.2832 66.4062-17.1387L67.2363-43.5059Q67.2852-45.3125 69.1406-45.3125Q70.9961-45.3125 70.9473-43.4082L70.1172-17.0898Q70.0684-15.2832 68.2617-15.2832ZM54.1504-54.248L54.1992-57.0801Q54.1992-57.959 54.7852-58.4961Q55.3711-59.0332 56.2988-59.0332L64.3066-59.0332Q65.2344-59.0332 65.8203-58.4961Q66.4062-57.959 66.4551-57.0801L66.4551-54.248Z"/>
  </g>
  <g id="Semibold-M" transform="matrix(1 0 0 1 1983.6 1126)">
   <path d="M59.668 15.6738Q70.1172 15.6738 79.3457 11.6943Q88.5742 7.71484 95.6055 0.683594Q102.637-6.34766 106.616-15.5518Q110.596-24.7559 110.596-35.2539Q110.596-45.7031 106.616-54.9072Q102.637-64.1113 95.6055-71.1426Q88.5742-78.1738 79.3457-82.1777Q70.1172-86.1816 59.6191-86.1816Q49.1699-86.1816 39.9658-82.1777Q30.7617-78.1738 23.7305-71.1426Q16.6992-64.1113 12.7197-54.9072Q8.74023-45.7031 8.74023-35.2539Q8.74023-24.7559 12.7197-15.5518Q16.6992-6.34766 23.7305 0.683594Q30.7617 7.71484 39.9902 11.6943Q49.2188 15.6738 59.668 15.6738ZM59.668 4.49219Q51.416 4.49219 44.2139 1.41602Q37.0117-1.66016 31.543-7.10449Q26.0742-12.5488 23.0225-19.751Q19.9707-26.9531 19.9707-35.2539Q19.9707-43.5059 23.0225-50.708Q26.0742-57.9102 31.5186-63.3789Q36.9629-68.8477 44.165-71.8994Q51.3672-74.9512 59.6191-74.9512Q67.9199-74.9512 75.1221-71.8994Q82.3242-68.8477 87.7686-63.3789Q93.2129-57.9102 96.3135-50.708Q99.4141-43.5059 99.4141-35.2539Q99.4141-26.9531 96.3379-19.751Q93.2617-12.5488 87.8174-7.10449Q82.373-1.66016 75.1465 1.41602Q67.9199 4.49219 59.668 4.49219ZM47.998-7.42188L71.2891-7.42188Q74.0234-7.42188 75.5615-8.8623Q77.0996-10.3027 77.1973-12.9883L78.8574-49.3652L82.1777-49.3652Q83.252-49.3652 83.9844-50.0732Q84.7168-50.7812 84.7168-51.8066Q84.7656-52.8809 84.0088-53.5889Q83.252-54.2969 82.1777-54.2969L71.5332-54.2969L71.5332-57.5684Q71.5332-60.7422 69.5312-62.5732Q67.5293-64.4043 64.0137-64.4043L55.1758-64.4043Q51.709-64.4043 49.7314-62.5732Q47.7539-60.7422 47.7539-57.5684L47.7539-54.2969L37.0117-54.2969Q35.9375-54.2969 35.2051-53.5889Q34.4727-52.8809 34.4727-51.8066Q34.4727-50.7812 35.2051-50.0732Q35.9375-49.3652 37.0117-49.3652L40.4785-49.3652L42.0898-12.9883Q42.1875-10.3027 43.7256-8.8623Q45.2637-7.42188 47.998-7.42188ZM51.5137-14.8438Q49.707-14.8438 49.6582-16.6016L48.7793-43.7012Q48.7305-45.5566 50.6348-45.5566Q52.3926-45.5566 52.4414-43.75L53.2715-16.6016Q53.3203-14.8438 51.5137-14.8438ZM59.5703-14.8438Q57.7637-14.8438 57.7637-16.6016L57.7637-43.7988Q57.7637-45.5566 59.5703-45.5566Q61.4746-45.5566 61.4746-43.7988L61.4746-16.6016Q61.4746-14.8438 59.5703-14.8438ZM67.6758-14.8438Q65.8691-14.8438 65.8691-16.6016L66.748-43.75Q66.7969-45.5566 68.6035-45.5566Q70.4102-45.5566 70.4102-43.7012L69.4824-16.6016Q69.4336-14.8438 67.6758-14.8438ZM53.1738-54.2969L53.1738-57.4707Q53.2227-58.3496 53.8086-58.8867Q54.3945-59.4238 55.3223-59.4238L63.8184-59.4238Q64.7949-59.4238 65.3809-58.8867Q65.9668-58.3496 66.0156-57.4707L66.0156-54.2969Z"/>
  </g>
  <g id="Medium-M" transform="matrix(1 0 0 1 1687.38 1126)">
   <path d="M59.1797 15.1855Q69.5312 15.1855 78.6621 11.2305Q87.793 7.27539 94.751 0.317383Q101.709-6.64062 105.664-15.7715Q109.619-24.9023 109.619-35.2539Q109.619-45.6055 105.664-54.7363Q101.709-63.8672 94.751-70.8252Q87.793-77.7832 78.6377-81.7383Q69.4824-85.6934 59.1309-85.6934Q48.7793-85.6934 39.6484-81.7383Q30.5176-77.7832 23.584-70.8252Q16.6504-63.8672 12.6953-54.7363Q8.74023-45.6055 8.74023-35.2539Q8.74023-24.9023 12.6953-15.7715Q16.6504-6.64062 23.6084 0.317383Q30.5664 7.27539 39.6973 11.2305Q48.8281 15.1855 59.1797 15.1855ZM59.1797 5.27344Q50.7324 5.27344 43.4082 2.12402Q36.084-1.02539 30.5176-6.5918Q24.9512-12.1582 21.8262-19.4824Q18.7012-26.8066 18.7012-35.2539Q18.7012-43.7012 21.8262-51.0254Q24.9512-58.3496 30.4932-63.916Q36.0352-69.4824 43.3838-72.6074Q50.7324-75.7324 59.1309-75.7324Q67.5781-75.7324 74.9023-72.6074Q82.2266-69.4824 87.8174-63.916Q93.4082-58.3496 96.5576-51.0254Q99.707-43.7012 99.707-35.2539Q99.707-26.8066 96.582-19.4824Q93.457-12.1582 87.8906-6.5918Q82.3242-1.02539 74.9756 2.12402Q67.627 5.27344 59.1797 5.27344ZM47.0703-7.03125L71.2402-7.03125Q73.8281-7.03125 75.3418-8.42285Q76.8555-9.81445 76.9043-12.4023L78.5645-49.7559L82.1289-49.7559Q83.1055-49.7559 83.7891-50.415Q84.4727-51.0742 84.5215-52.002Q84.5703-53.0273 83.8379-53.6865Q83.1055-54.3457 82.1289-54.3457L71.0449-54.3457L71.0449-57.9102Q71.0449-60.9863 69.0918-62.8174Q67.1387-64.6484 63.7207-64.6484L54.4434-64.6484Q51.123-64.6484 49.1943-62.8174Q47.2656-60.9863 47.2656-57.9102L47.2656-54.3457L36.084-54.3457Q35.1074-54.3457 34.4238-53.6865Q33.7402-53.0273 33.7402-52.002Q33.7402-51.0742 34.4238-50.415Q35.1074-49.7559 36.084-49.7559L39.7949-49.7559L41.4062-12.4023Q41.5039-9.81445 42.9688-8.42285Q44.4336-7.03125 47.0703-7.03125ZM50.8789-14.502Q49.1211-14.502 49.1211-16.2109L48.1445-43.9453Q48.1445-45.7031 49.9512-45.7031Q51.709-45.7031 51.7578-43.9453L52.6367-16.2109Q52.6855-14.502 50.8789-14.502ZM59.082-14.502Q57.2754-14.502 57.2754-16.2109L57.2754-43.9941Q57.2754-45.7031 59.082-45.7031Q60.9375-45.7031 60.9375-43.9941L60.9375-16.2109Q60.9375-14.502 59.082-14.502ZM67.2852-14.502Q65.5273-14.502 65.5273-16.2109L66.4062-43.9453Q66.4551-45.7031 68.2617-45.7031Q70.0684-45.7031 70.0195-43.9453L69.0918-16.2109Q69.043-14.502 67.2852-14.502ZM52.4902-54.3457L52.4902-57.7148Q52.4902-58.6426 53.1006-59.2041Q53.7109-59.7656 54.6387-59.7656L63.5254-59.7656Q64.4531-59.7656 65.0879-59.2041Q65.7227-58.6426 65.7227-57.7148L65.7227-54.3457Z"/>
  </g>
  <g id="Regular-M" transform="matrix(1 0 0 1 1391.3 1126)">
   <path d="M58.5449 14.5508Q68.75 14.5508 77.7588 10.6445Q86.7676 6.73828 93.6523-0.146484Q100.537-7.03125 104.443-16.04Q108.35-25.0488 108.35-35.2539Q108.35-45.459 104.443-54.4678Q100.537-63.4766 93.6523-70.3613Q86.7676-77.2461 77.7344-81.1523Q68.7012-85.0586 58.4961-85.0586Q48.291-85.0586 39.2822-81.1523Q30.2734-77.2461 23.4131-70.3613Q16.5527-63.4766 12.6465-54.4678Q8.74023-45.459 8.74023-35.2539Q8.74023-25.0488 12.6465-16.04Q16.5527-7.03125 23.4375-0.146484Q30.3223 6.73828 39.3311 10.6445Q48.3398 14.5508 58.5449 14.5508ZM58.5449 6.25Q49.9023 6.25 42.3828 3.02734Q34.8633-0.195312 29.1748-5.88379Q23.4863-11.5723 20.2881-19.0918Q17.0898-26.6113 17.0898-35.2539Q17.0898-43.8965 20.2881-51.416Q23.4863-58.9355 29.1504-64.6484Q34.8145-70.3613 42.334-73.5596Q49.8535-76.7578 58.4961-76.7578Q67.1387-76.7578 74.6582-73.5596Q82.1777-70.3613 87.8906-64.6484Q93.6035-58.9355 96.8262-51.416Q100.049-43.8965 100.049-35.2539Q100.049-26.6113 96.8506-19.0918Q93.6523-11.5723 87.9639-5.88379Q82.2754-0.195312 74.7314 3.02734Q67.1875 6.25 58.5449 6.25ZM45.8984-6.49414L71.1426-6.49414Q73.584-6.49414 75.0244-7.83691Q76.4648-9.17969 76.5137-11.6211L78.1738-50.2441L82.0312-50.2441Q82.9102-50.2441 83.5205-50.8545Q84.1309-51.4648 84.1797-52.2949Q84.2285-53.1738 83.5693-53.7842Q82.9102-54.3945 82.0312-54.3945L70.3613-54.3945L70.3613-58.3496Q70.3613-61.377 68.4814-63.1592Q66.6016-64.9414 63.3789-64.9414L53.5156-64.9414Q50.3418-64.9414 48.4863-63.1592Q46.6309-61.377 46.6309-58.3496L46.6309-54.3945L34.8633-54.3945Q33.9844-54.3945 33.374-53.7842Q32.7637-53.1738 32.7637-52.2949Q32.7637-51.4648 33.374-50.8545Q33.9844-50.2441 34.8633-50.2441L38.8672-50.2441L40.5273-11.6211Q40.625-9.17969 42.0166-7.83691Q43.4082-6.49414 45.8984-6.49414ZM50.0977-14.0625Q48.3398-14.0625 48.3398-15.7227L47.3145-44.2383Q47.3145-45.9473 49.1211-45.9473Q50.8301-45.9473 50.8789-44.2383L51.8066-15.7227Q51.8066-14.0625 50.0977-14.0625ZM58.3984-14.0625Q56.6406-14.0625 56.6406-15.7227L56.6406-44.2383Q56.6406-45.9473 58.3984-45.9473Q60.2539-45.9473 60.2539-44.2383L60.2539-15.7227Q60.2539-14.0625 58.3984-14.0625ZM66.748-14.0625Q65.0391-14.0625 65.0391-15.7227L65.9668-44.2383Q66.0156-45.9473 67.7734-45.9473Q69.5312-45.9473 69.5312-44.2383L68.5059-15.7227Q68.5059-14.0625 66.748-14.0625ZM51.5625-54.3945L51.5625-58.1055Q51.5625-59.0332 52.1729-59.6191Q52.7832-60.2051 53.7598-60.2051L63.0859-60.2051Q64.0625-60.2051 64.6973-59.6191Q65.332-59.0332 65.332-58.1055L65.332-54.3945Z"/>
  </g>
  <g id="Light-M" transform="matrix(1 0 0 1 1095.42 1126)">
   <path d="M57.7148 13.7207Q67.7734 13.7207 76.6357 9.8877Q85.498 6.05469 92.2607-0.708008Q99.0234-7.4707 102.856-16.333Q106.689-25.1953 106.689-35.2539Q106.689-45.3125 102.856-54.1748Q99.0234-63.0371 92.2607-69.7998Q85.498-76.5625 76.6113-80.3955Q67.7246-84.2285 57.666-84.2285Q47.6074-84.2285 38.7451-80.3955Q29.8828-76.5625 23.1445-69.7998Q16.4062-63.0371 12.5732-54.1748Q8.74023-45.3125 8.74023-35.2539Q8.74023-25.1953 12.5732-16.333Q16.4062-7.4707 23.1689-0.708008Q29.9316 6.05469 38.7939 9.8877Q47.6562 13.7207 57.7148 13.7207ZM57.7148 7.37305Q48.877 7.37305 41.1377 4.07715Q33.3984 0.78125 27.5391-5.07812Q21.6797-10.9375 18.3838-18.6768Q15.0879-26.416 15.0879-35.2539Q15.0879-44.0918 18.3838-51.8311Q21.6797-59.5703 27.5391-65.4541Q33.3984-71.3379 41.1133-74.6338Q48.8281-77.9297 57.666-77.9297Q66.5527-77.9297 74.2676-74.6338Q81.9824-71.3379 87.8662-65.4541Q93.75-59.5703 97.0703-51.8311Q100.391-44.0918 100.391-35.2539Q100.391-26.416 97.0703-18.6768Q93.75-10.9375 87.915-5.07812Q82.0801 0.78125 74.3408 4.07715Q66.6016 7.37305 57.7148 7.37305ZM45.3125-6.44531L70.2637-6.44531Q72.5586-6.44531 74.0479-7.83691Q75.5371-9.22852 75.5859-11.5234L77.4414-51.3184L81.5918-51.3184Q82.373-51.3184 82.8857-51.8555Q83.3984-52.3926 83.4473-53.0762Q83.4961-53.8086 82.9346-54.3457Q82.373-54.8828 81.5918-54.8828L69.3848-54.8828L69.3848-59.082Q69.3848-61.8652 67.5781-63.5742Q65.7715-65.2832 62.793-65.2832L52.6367-65.2832Q49.6582-65.2832 47.9004-63.5742Q46.1426-61.8652 46.1426-59.082L46.1426-54.8828L33.6914-54.8828Q32.959-54.8828 32.4219-54.3457Q31.8848-53.8086 31.8848-53.0762Q31.8848-52.3926 32.4219-51.8555Q32.959-51.3184 33.6914-51.3184L38.1348-51.3184L39.9414-11.5234Q40.0391-9.22852 41.4795-7.83691Q42.9199-6.44531 45.3125-6.44531ZM49.3652-14.0625Q47.8516-14.0625 47.8027-15.5273L46.3867-44.7754Q46.3867-46.2891 48.0469-46.2891Q49.6094-46.2891 49.6582-44.8242L50.8789-15.5762Q50.9277-14.0625 49.3652-14.0625ZM57.5684-14.0625Q56.0059-14.0625 56.0059-15.5762L56.0059-44.7754Q56.0059-46.2891 57.5684-46.2891Q59.2285-46.2891 59.2285-44.7754L59.2285-15.5762Q59.2285-14.0625 57.5684-14.0625ZM65.8203-14.0625Q64.2578-14.0625 64.3066-15.5762L65.5273-44.8242Q65.625-46.2891 67.1875-46.2891Q68.7988-46.2891 68.75-44.7754L67.3828-15.5273Q67.334-14.0625 65.8203-14.0625ZM50.1465-54.8828L50.1465-58.8867Q50.1465-59.9609 50.8789-60.6201Q51.6113-61.2793 52.7832-61.2793L62.4512-61.2793Q63.623-61.2793 64.3799-60.6201Q65.1367-59.9609 65.1367-58.8867L65.1367-54.8828Z"/>
  </g>
  <g id="Thin-M" transform="matrix(1 0 0 1 799.782 1126)">
   <path d="M56.5918 12.5977Q66.5039 12.5977 75.1709 8.88672Q83.8379 5.17578 90.4297-1.44043Q97.0215-8.05664 100.781-16.7236Q104.541-25.3906 104.541-35.2539Q104.541-45.1172 100.781-53.7842Q97.0215-62.4512 90.4297-69.0674Q83.8379-75.6836 75.1709-79.3945Q66.5039-83.1055 56.5918-83.1055Q46.7285-83.1055 38.0615-79.3945Q29.3945-75.6836 22.8271-69.0674Q16.2598-62.4512 12.5-53.7842Q8.74023-45.1172 8.74023-35.2539Q8.74023-25.3906 12.4756-16.7236Q16.2109-8.05664 22.8027-1.44043Q29.3945 5.17578 38.0859 8.88672Q46.7773 12.5977 56.5918 12.5977ZM56.5918 8.88672Q47.4609 8.88672 39.4775 5.44434Q31.4941 2.00195 25.415-4.05273Q19.3359-10.1074 15.918-18.1152Q12.5-26.123 12.5-35.2539Q12.5-44.3848 15.918-52.3926Q19.3359-60.4004 25.415-66.4795Q31.4941-72.5586 39.4775-76.001Q47.4609-79.4434 56.5918-79.4434Q65.7715-79.4434 73.7549-76.001Q81.7383-72.5586 87.8174-66.4795Q93.8965-60.4004 97.3389-52.3926Q100.781-44.3848 100.781-35.2539Q100.781-26.123 97.3633-18.1152Q93.9453-10.1074 87.8662-4.05273Q81.7871 2.00195 73.7793 5.44434Q65.7715 8.88672 56.5918 8.88672ZM44.5312-6.44531L69.043-6.44531Q71.2402-6.44531 72.7539-7.83691Q74.2676-9.22852 74.3652-11.377L76.4648-52.7832L81.0547-52.7832Q81.6406-52.7832 82.0557-53.1738Q82.4707-53.5645 82.4707-54.1504Q82.4707-54.6875 82.0557-55.1025Q81.6406-55.5176 81.0547-55.5176L68.0664-55.5176L68.0664-60.1074Q68.0664-62.5 66.3818-64.0869Q64.6973-65.6738 61.9629-65.6738L51.5137-65.6738Q48.7793-65.6738 47.1436-64.0869Q45.5078-62.5 45.5078-60.1074L45.5078-55.5176L32.1289-55.5176Q31.543-55.5176 31.1279-55.1025Q30.7129-54.6875 30.7129-54.1504Q30.7129-53.5645 31.1279-53.1738Q31.543-52.7832 32.1289-52.7832L37.1094-52.7832L39.1602-11.377Q39.2578-9.22852 40.7715-7.83691Q42.2852-6.44531 44.5312-6.44531ZM48.3887-14.0137Q47.2168-14.0137 47.1191-15.2832L45.2148-45.459Q45.1172-46.7773 46.6309-46.7773Q47.9492-46.7773 47.998-45.5566L49.6094-15.332Q49.707-14.0137 48.3887-14.0137ZM56.4941-14.0625Q55.127-14.0625 55.127-15.332L55.127-45.5078Q55.127-46.7773 56.4941-46.7773Q57.8613-46.7773 57.8613-45.5078L57.8613-15.332Q57.8613-14.0625 56.4941-14.0625ZM64.5996-14.0137Q63.2812-14.0137 63.3301-15.332L64.9902-45.5566Q65.0391-46.7773 66.4062-46.7773Q67.8711-46.7773 67.7734-45.459L65.8691-15.2832Q65.7715-14.0137 64.5996-14.0137ZM48.3398-55.5176L48.3398-59.9121Q48.3398-61.1816 49.1943-61.9385Q50.0488-62.6953 51.416-62.6953L61.6211-62.6953Q63.0859-62.6953 63.9648-61.9385Q64.8438-61.1816 64.8438-59.9121L64.8438-55.5176Z"/>
  </g>
  <g id="Ultralight-M" transform="matrix(1 0 0 1 503.632 1126)">
   <path d="M56.0547 12.0605Q65.8203 12.0605 74.3896 8.37402Q82.959 4.6875 89.4775-1.83105Q95.9961-8.34961 99.707-16.9189Q103.418-25.4883 103.418-35.2539Q103.418-45.0195 99.707-53.5889Q95.9961-62.1582 89.4775-68.6768Q82.959-75.1953 74.3896-78.8818Q65.8203-82.5684 56.0547-82.5684Q46.2891-82.5684 37.7197-78.8818Q29.1504-75.1953 22.6562-68.6768Q16.1621-62.1582 12.4512-53.5889Q8.74023-45.0195 8.74023-35.2539Q8.74023-25.4883 12.4268-16.9189Q16.1133-8.34961 22.6318-1.83105Q29.1504 4.6875 37.7197 8.37402Q46.2891 12.0605 56.0547 12.0605ZM56.0547 9.66797Q46.7773 9.66797 38.6475 6.17676Q30.5176 2.68555 24.3164-3.49121Q18.1152-9.66797 14.624-17.8223Q11.1328-25.9766 11.1328-35.2539Q11.1328-44.5312 14.624-52.6855Q18.1152-60.8398 24.3164-67.041Q30.5176-73.2422 38.6475-76.7334Q46.7773-80.2246 56.0547-80.2246Q65.3809-80.2246 73.5107-76.7334Q81.6406-73.2422 87.8174-67.041Q93.9941-60.8398 97.5098-52.6855Q101.025-44.5312 101.025-35.2539Q101.025-25.9766 97.5098-17.8223Q93.9941-9.66797 87.8174-3.49121Q81.6406 2.68555 73.5107 6.17676Q65.3809 9.66797 56.0547 9.66797ZM44.1406-6.39648L68.457-6.39648Q70.5566-6.39648 72.0947-7.83691Q73.6328-9.27734 73.7305-11.2793L75.9766-53.5156L80.7617-53.5156Q81.25-53.5156 81.6162-53.8574Q81.9824-54.1992 81.9824-54.6875Q81.9824-55.127 81.6162-55.4932Q81.25-55.8594 80.7617-55.8594L67.3828-55.8594L67.3828-60.5957Q67.3828-62.8418 65.7715-64.3799Q64.1602-65.918 61.5723-65.918L50.9277-65.918Q48.3398-65.918 46.7529-64.3799Q45.166-62.8418 45.166-60.5957L45.166-55.8594L31.3477-55.8594Q30.8594-55.8594 30.4932-55.4932Q30.127-55.127 30.127-54.6875Q30.127-54.1992 30.4932-53.8574Q30.8594-53.5156 31.3477-53.5156L36.6211-53.5156L38.8184-11.2793Q38.916-9.27734 40.4297-7.83691Q41.9434-6.39648 44.1406-6.39648ZM47.9004-14.0137Q46.875-14.0137 46.7773-15.1367L44.5801-45.8496Q44.4824-47.0215 45.8984-47.0215Q47.1191-47.0215 47.2168-45.9473L48.9746-15.2344Q49.1211-14.0137 47.9004-14.0137ZM55.957-14.0625Q54.6875-14.0625 54.6875-15.2344L54.6875-45.8496Q54.6875-47.0215 55.957-47.0215Q57.1777-47.0215 57.1777-45.8496L57.1777-15.2344Q57.1777-14.0625 55.957-14.0625ZM63.9648-14.0137Q62.7441-14.0137 62.8418-15.2344L64.6973-45.9473Q64.7949-47.0215 66.0156-47.0215Q67.3828-47.0215 67.2363-45.8496L65.0879-15.1367Q64.9414-14.0137 63.9648-14.0137ZM47.3633-55.8594L47.3633-60.4004Q47.3633-61.8164 48.291-62.6221Q49.2188-63.4277 50.7812-63.4277L61.2305-63.4277Q62.793-63.4277 63.7451-62.6221Q64.6973-61.8164 64.6973-60.4004L64.6973-55.8594Z"/>
  </g>
  <g id="Black-S" transform="matrix(1 0 0 1 2884.57 696)">
   <path d="M48.8281 6.78711Q57.5195 6.78711 65.1123 3.51562Q72.7051 0.244141 78.4912-5.54199Q84.2773-11.3281 87.5488-18.9209Q90.8203-26.5137 90.8203-35.2051Q90.8203-43.8965 87.5488-51.4893Q84.2773-59.082 78.4912-64.8682Q72.7051-70.6543 65.1123-73.9258Q57.5195-77.1973 48.8281-77.1973Q40.1367-77.1973 32.5439-73.9258Q24.9512-70.6543 19.165-64.8682Q13.3789-59.082 10.1074-51.4893Q6.83594-43.8965 6.83594-35.2051Q6.83594-26.5137 10.1074-18.9209Q13.3789-11.3281 19.165-5.54199Q24.9512 0.244141 32.5439 3.51562Q40.1367 6.78711 48.8281 6.78711ZM48.8281-7.37305Q43.0664-7.37305 38.0127-9.5459Q32.959-11.7188 29.1504-15.5273Q25.3418-19.3359 23.1689-24.3896Q20.9961-29.4434 20.9961-35.2051Q20.9961-40.9668 23.1689-46.0205Q25.3418-51.0742 29.1504-54.8828Q32.959-58.6914 38.0127-60.8643Q43.0664-63.0371 48.8281-63.0371Q54.5898-63.0371 59.6436-60.8643Q64.6973-58.6914 68.5059-54.8828Q72.3145-51.0742 74.4873-46.0205Q76.6602-40.9668 76.6602-35.2051Q76.6602-29.4434 74.4873-24.3896Q72.3145-19.3359 68.5059-15.5273Q64.6973-11.7188 59.6436-9.5459Q54.5898-7.37305 48.8281-7.37305ZM41.5527-15.2344L56.1035-15.2344Q58.7891-15.2344 60.2051-16.5283Q61.6211-17.8223 61.7676-20.459L62.9883-44.6777L64.5996-44.6777Q65.8691-44.6777 66.6504-45.4102Q67.4316-46.1426 67.4316-47.3633Q67.4316-48.584 66.6504-49.292Q65.8691-50 64.5996-50L58.1543-50L58.1543-51.3184Q58.1543-54.0039 56.3965-55.5176Q54.6387-57.0312 51.3184-57.0312L46.3379-57.0312Q43.0664-57.0312 41.2842-55.5176Q39.502-54.0039 39.502-51.3184L39.502-50L33.0566-50Q31.8359-50 31.0547-49.292Q30.2734-48.584 30.2246-47.3633Q30.1758-46.1426 31.0059-45.4102Q31.8359-44.6777 33.0566-44.6777L34.7168-44.6777L35.8887-20.459Q35.9863-17.8223 37.4512-16.5283Q38.916-15.2344 41.5527-15.2344ZM42.9688-20.752Q41.5527-20.752 41.4551-22.2656L40.918-40.918Q40.8203-42.5781 42.4316-42.5781Q43.8965-42.5781 43.9941-41.0156L44.5312-22.3145Q44.6289-20.752 42.9688-20.752ZM48.877-20.752Q47.3145-20.752 47.3145-22.2656L47.3145-41.1133Q47.3145-42.5781 48.877-42.5781Q50.3906-42.5781 50.3906-41.1133L50.3906-22.2656Q50.3906-20.752 48.877-20.752ZM54.7363-20.752Q53.0762-20.752 53.1738-22.3145L53.7109-41.0156Q53.8086-42.5781 55.2734-42.5781Q56.8848-42.5781 56.7871-40.918L56.25-22.2656Q56.1523-20.752 54.7363-20.752ZM44.6777-50L44.7266-51.4648Q44.8242-52.832 46.2891-52.832L51.416-52.832Q52.8809-52.832 52.9785-51.4648L53.0273-50Z"/>
  </g>
  <g id="Heavy-S" transform="matrix(1 0 0 1 2588.47 696)">
   <path d="M48.1934 6.15234Q56.7871 6.15234 64.2578 2.92969Q71.7285-0.292969 77.4414-6.00586Q83.1543-11.7188 86.377-19.1895Q89.5996-26.6602 89.5996-35.2051Q89.5996-43.75 86.377-51.2451Q83.1543-58.7402 77.4414-64.4531Q71.7285-70.166 64.2334-73.3887Q56.7383-76.6113 48.1934-76.6113Q39.6484-76.6113 32.1777-73.3887Q24.707-70.166 18.9941-64.4531Q13.2812-58.7402 10.0586-51.2451Q6.83594-43.75 6.83594-35.2051Q6.83594-26.6602 10.0586-19.1895Q13.2812-11.7188 18.9941-6.00586Q24.707-0.292969 32.2021 2.92969Q39.6973 6.15234 48.1934 6.15234ZM48.1934-6.39648Q42.2363-6.39648 37.0117-8.64258Q31.7871-10.8887 27.8564-14.8438Q23.9258-18.7988 21.6797-24.0234Q19.4336-29.248 19.4336-35.2051Q19.4336-41.1621 21.6553-46.4111Q23.877-51.6602 27.832-55.5908Q31.7871-59.5215 37.0117-61.7676Q42.2363-64.0137 48.1934-64.0137Q54.1992-64.0137 59.4238-61.7676Q64.6484-59.5215 68.5791-55.5908Q72.5098-51.6602 74.7803-46.4111Q77.0508-41.1621 77.0508-35.2051Q77.0508-29.248 74.8047-24.0234Q72.5586-18.7988 68.6035-14.8438Q64.6484-10.8887 59.4238-8.64258Q54.1992-6.39648 48.1934-6.39648ZM40.2832-14.6484L56.1035-14.6484Q58.6426-14.6484 59.9854-15.8691Q61.3281-17.0898 61.4258-19.5801L62.6465-45.0684L64.5508-45.0684Q65.7227-45.0684 66.4307-45.7764Q67.1387-46.4844 67.1387-47.5586Q67.1875-48.6816 66.4551-49.3408Q65.7227-50 64.5508-50L57.5684-50L57.5684-51.709Q57.5684-54.3457 55.8594-55.835Q54.1504-57.3242 50.9766-57.3242L45.4102-57.3242Q42.2852-57.3242 40.5762-55.835Q38.8672-54.3457 38.8672-51.709L38.8672-50L31.8359-50Q30.7129-50 30.0049-49.3408Q29.2969-48.6816 29.248-47.5586Q29.1992-46.4844 29.9561-45.7764Q30.7129-45.0684 31.8359-45.0684L33.7891-45.0684L34.9609-19.5801Q35.0586-17.0898 36.4258-15.8691Q37.793-14.6484 40.2832-14.6484ZM42.1875-20.2637Q40.7227-20.2637 40.6738-21.7285L40.1367-41.1621Q40.0391-42.7734 41.6016-42.7734Q43.0664-42.7734 43.1641-41.2598L43.7012-21.7773Q43.7988-20.2637 42.1875-20.2637ZM48.2422-20.2637Q46.6797-20.2637 46.6797-21.7285L46.6797-41.3086Q46.6797-42.7734 48.2422-42.7734Q49.7559-42.7734 49.7559-41.3086L49.7559-21.7285Q49.7559-20.2637 48.2422-20.2637ZM54.248-20.2637Q52.6367-20.2637 52.7344-21.7773L53.2715-41.2598Q53.3691-42.7734 54.834-42.7734Q56.3965-42.7734 56.2988-41.1621L55.7617-21.7285Q55.7129-20.2637 54.248-20.2637ZM43.7988-50L43.8477-51.7578Q43.9453-53.1738 45.4102-53.1738L51.0254-53.1738Q52.4902-53.1738 52.5879-51.7578L52.6367-50Z"/>
  </g>
  <g id="Bold-S" transform="matrix(1 0 0 1 2292.42 696)">
   <path d="M47.5586 5.46875Q55.957 5.46875 63.3057 2.29492Q70.6543-0.878906 76.2695-6.51855Q81.8848-12.1582 85.083-19.5068Q88.2812-26.8555 88.2812-35.2539Q88.2812-43.6035 85.083-50.9766Q81.8848-58.3496 76.2695-63.9648Q70.6543-69.5801 63.2812-72.7539Q55.9082-75.9277 47.5098-75.9277Q39.1602-75.9277 31.7871-72.7539Q24.4141-69.5801 18.8232-63.9648Q13.2324-58.3496 10.0342-50.9766Q6.83594-43.6035 6.83594-35.2539Q6.83594-26.8555 10.0342-19.5068Q13.2324-12.1582 18.8477-6.51855Q24.4629-0.878906 31.8115 2.29492Q39.1602 5.46875 47.5586 5.46875ZM47.5586-5.32227Q41.3574-5.32227 35.9375-7.6416Q30.5176-9.96094 26.416-14.0625Q22.3145-18.1641 19.9951-23.6084Q17.6758-29.0527 17.6758-35.2539Q17.6758-41.4551 19.9951-46.875Q22.3145-52.2949 26.3916-56.3965Q30.4688-60.498 35.8887-62.8174Q41.3086-65.1367 47.5098-65.1367Q53.7598-65.1367 59.1797-62.8174Q64.5996-60.498 68.7012-56.3965Q72.8027-52.2949 75.1221-46.875Q77.4414-41.4551 77.4414-35.2539Q77.4414-29.0527 75.1221-23.6084Q72.8027-18.1641 68.7256-14.0625Q64.6484-9.96094 59.2041-7.6416Q53.7598-5.32227 47.5586-5.32227ZM38.916-14.0137L56.1523-14.0137Q58.4961-14.0137 59.7412-15.1611Q60.9863-16.3086 61.1328-18.6523L62.3047-45.5566L64.5508-45.5566Q65.5762-45.5566 66.2354-46.1914Q66.8945-46.8262 66.8945-47.8027Q66.8945-48.7793 66.2354-49.4141Q65.5762-50.0488 64.5508-50.0488L56.9336-50.0488L56.9336-52.1484Q56.9336-54.7363 55.2734-56.2256Q53.6133-57.7148 50.6836-57.7148L44.3848-57.7148Q41.4551-57.7148 39.7949-56.2256Q38.1348-54.7363 38.1348-52.1484L38.1348-50.0488L30.4688-50.0488Q29.4922-50.0488 28.8574-49.4141Q28.2227-48.7793 28.1738-47.8027Q28.1738-46.8262 28.833-46.1914Q29.4922-45.5566 30.4688-45.5566L32.7637-45.5566L33.9844-18.6523Q34.082-16.3086 35.3516-15.1611Q36.6211-14.0137 38.916-14.0137ZM41.3086-19.7266Q39.8438-19.7266 39.7949-21.1426L39.2578-41.5039Q39.209-43.0176 40.7227-43.0176Q42.1875-43.0176 42.2363-41.5527L42.8223-21.1914Q42.8711-19.7266 41.3086-19.7266ZM47.5586-19.7266Q46.0449-19.7266 46.0449-21.1426L46.0449-41.6016Q46.0449-43.0176 47.5586-43.0176Q49.0723-43.0176 49.0723-41.6016L49.0723-21.1426Q49.0723-19.7266 47.5586-19.7266ZM53.7598-19.7266Q52.1973-19.7266 52.2461-21.1914L52.832-41.5527Q52.8809-43.0176 54.3457-43.0176Q55.9082-43.0176 55.8105-41.5039L55.2734-21.1426Q55.2246-19.7266 53.7598-19.7266ZM42.8711-50.0488L42.9199-52.0996Q42.9688-53.5645 44.4824-53.5645L50.5859-53.5645Q52.0996-53.5645 52.1484-52.0996L52.1973-50.0488Z"/>
  </g>
  <g id="Semibold-S" transform="matrix(1 0 0 1 1996.2 696)">
   <path d="M47.0703 4.98047Q55.3711 4.98047 62.6465 1.85547Q69.9219-1.26953 75.4639-6.86035Q81.0059-12.4512 84.1553-19.7266Q87.3047-27.002 87.3047-35.2539Q87.3047-43.5059 84.1553-50.7812Q81.0059-58.0566 75.4395-63.623Q69.873-69.1895 62.5977-72.3389Q55.3223-75.4883 47.0215-75.4883Q38.7695-75.4883 31.4941-72.3389Q24.2188-69.1895 18.6768-63.623Q13.1348-58.0566 9.98535-50.7812Q6.83594-43.5059 6.83594-35.2539Q6.83594-27.002 9.98535-19.7266Q13.1348-12.4512 18.7012-6.86035Q24.2676-1.26953 31.543 1.85547Q38.8184 4.98047 47.0703 4.98047ZM47.0703-4.58984Q40.7227-4.58984 35.1562-6.95801Q29.5898-9.32617 25.3906-13.5254Q21.1914-17.7246 18.8232-23.291Q16.4551-28.8574 16.4551-35.2539Q16.4551-41.6016 18.8232-47.168Q21.1914-52.7344 25.3662-56.9336Q29.541-61.1328 35.1074-63.5254Q40.6738-65.918 47.0215-65.918Q53.418-65.918 58.9844-63.5254Q64.5508-61.1328 68.75-56.9336Q72.9492-52.7344 75.3418-47.168Q77.7344-41.6016 77.7344-35.2539Q77.7344-28.8574 75.3662-23.291Q72.998-17.7246 68.7988-13.5254Q64.5996-9.32617 59.0332-6.95801Q53.4668-4.58984 47.0703-4.58984ZM37.9395-13.5254L56.1523-13.5254Q58.3008-13.5254 59.5215-14.6484Q60.7422-15.7715 60.8398-17.9688L62.0117-45.8984L64.502-45.8984Q65.4297-45.8984 66.04-46.4844Q66.6504-47.0703 66.6504-47.9492Q66.6504-48.8281 66.04-49.4385Q65.4297-50.0488 64.502-50.0488L56.4453-50.0488L56.4453-52.4414Q56.4453-54.9805 54.834-56.4453Q53.2227-57.9102 50.3906-57.9102L43.6035-57.9102Q40.8203-57.9102 39.209-56.4453Q37.5977-54.9805 37.5977-52.4414L37.5977-50.0488L29.4922-50.0488Q28.6133-50.0488 28.0029-49.4385Q27.3926-48.8281 27.3926-47.9492Q27.3926-47.0703 28.0029-46.4844Q28.6133-45.8984 29.4922-45.8984L32.0312-45.8984L33.252-17.9688Q33.3008-15.7715 34.4971-14.6484Q35.6934-13.5254 37.9395-13.5254ZM40.625-19.3359Q39.209-19.3359 39.1602-20.752L38.5742-41.6992Q38.5742-43.1641 40.0879-43.1641Q41.5527-43.1641 41.5527-41.6992L42.1387-20.752Q42.1875-19.3359 40.625-19.3359ZM47.0215-19.3359Q45.5078-19.3359 45.5078-20.752L45.5078-41.748Q45.5078-43.1641 47.0215-43.1641Q48.5352-43.1641 48.5352-41.748L48.5352-20.752Q48.5352-19.3359 47.0215-19.3359ZM53.3691-19.3359Q51.8555-19.3359 51.8555-20.752L52.4414-41.6992Q52.4902-43.1641 53.9551-43.1641Q55.4688-43.1641 55.4199-41.6992L54.834-20.752Q54.834-19.3359 53.3691-19.3359ZM42.1875-50.0488L42.1875-52.3438Q42.2363-53.8086 43.7988-53.8086L50.2441-53.8086Q51.7578-53.8086 51.8066-52.3438L51.8066-50.0488Z"/>
  </g>
  <g id="Medium-S" transform="matrix(1 0 0 1 1699.83 696)">
   <path d="M46.7285 4.63867Q54.9316 4.63867 62.1338 1.51367Q69.3359-1.61133 74.8535-7.12891Q80.3711-12.6465 83.4961-19.8486Q86.6211-27.0508 86.6211-35.2539Q86.6211-43.4082 83.4961-50.6348Q80.3711-57.8613 74.8291-63.3789Q69.2871-68.8965 62.085-71.9971Q54.8828-75.0977 46.6797-75.0977Q38.4766-75.0977 31.2744-71.9971Q24.0723-68.8965 18.5791-63.3789Q13.0859-57.8613 9.96094-50.6348Q6.83594-43.4082 6.83594-35.2539Q6.83594-27.0508 9.96094-19.8486Q13.0859-12.6465 18.6035-7.12891Q24.1211-1.61133 31.3232 1.51367Q38.5254 4.63867 46.7285 4.63867ZM46.7285-4.00391Q40.2344-4.00391 34.5703-6.4209Q28.9062-8.83789 24.6338-13.1348Q20.3613-17.4316 17.9443-23.0957Q15.5273-28.7598 15.5273-35.2539Q15.5273-41.748 17.9199-47.4121Q20.3125-53.0762 24.585-57.373Q28.8574-61.6699 34.5215-64.0869Q40.1855-66.5039 46.6797-66.5039Q53.1738-66.5039 58.8379-64.0869Q64.502-61.6699 68.7988-57.373Q73.0957-53.0762 75.5127-47.4121Q77.9297-41.748 77.9297-35.2539Q77.9297-28.7598 75.5127-23.0957Q73.0957-17.4316 68.8477-13.1348Q64.5996-8.83789 58.9111-6.4209Q53.2227-4.00391 46.7285-4.00391ZM37.1582-13.1836L56.1523-13.1836Q58.2031-13.1836 59.375-14.2578Q60.5469-15.332 60.6445-17.4316L61.8164-46.1426L64.4531-46.1426Q65.332-46.1426 65.8936-46.7041Q66.4551-47.2656 66.4551-48.0957Q66.5039-48.9258 65.918-49.4873Q65.332-50.0488 64.4531-50.0488L56.0547-50.0488L56.0547-52.6855Q56.0547-55.2246 54.4678-56.665Q52.8809-58.1055 50.1953-58.1055L43.0176-58.1055Q40.332-58.1055 38.7695-56.665Q37.207-55.2246 37.207-52.6855L37.207-50.0488L28.7598-50.0488Q27.9297-50.0488 27.3682-49.4873Q26.8066-48.9258 26.8066-48.0957Q26.8066-47.2656 27.3682-46.7041Q27.9297-46.1426 28.7598-46.1426L31.4453-46.1426L32.7148-17.4316Q32.7637-15.332 33.9111-14.2578Q35.0586-13.1836 37.1582-13.1836ZM40.1367-19.043Q38.6719-19.043 38.6719-20.4102L38.0859-41.8457Q38.0859-43.3105 39.5508-43.3105Q41.0156-43.3105 41.0645-41.8457L41.6504-20.4102Q41.6504-19.043 40.1367-19.043ZM46.6309-19.043Q45.1172-19.043 45.1172-20.4102L45.1172-41.8945Q45.1172-43.3105 46.6309-43.3105Q48.1934-43.3105 48.1934-41.8945L48.1934-20.4102Q48.1934-19.043 46.6309-19.043ZM53.0762-19.043Q51.5625-19.043 51.6113-20.4102L52.1973-41.8457Q52.2461-43.3105 53.7109-43.3105Q55.1758-43.3105 55.127-41.8457L54.541-20.4102Q54.541-19.043 53.0762-19.043ZM41.6504-50.0488L41.6504-52.4902Q41.6992-54.0039 43.2617-54.0039L50-54.0039Q51.5625-54.0039 51.5625-52.4902L51.5625-50.0488Z"/>
  </g>
  <g id="Regular-S" transform="matrix(1 0 0 1 1403.58 696)">
   <path d="M46.2402 4.15039Q54.3457 4.15039 61.4746 1.07422Q68.6035-2.00195 74.0479-7.4707Q79.4922-12.9395 82.5928-20.0684Q85.6934-27.1973 85.6934-35.2539Q85.6934-43.3105 82.5928-50.4395Q79.4922-57.5684 74.0234-63.0371Q68.5547-68.5059 61.4258-71.582Q54.2969-74.6582 46.1914-74.6582Q38.1348-74.6582 31.0059-71.582Q23.877-68.5059 18.457-63.0371Q13.0371-57.5684 9.93652-50.4395Q6.83594-43.3105 6.83594-35.2539Q6.83594-27.1973 9.93652-20.0684Q13.0371-12.9395 18.4814-7.4707Q23.9258-2.00195 31.0547 1.07422Q38.1836 4.15039 46.2402 4.15039ZM46.2402-3.27148Q39.5996-3.27148 33.8135-5.7373Q28.0273-8.20312 23.6572-12.5977Q19.2871-16.9922 16.8213-22.8027Q14.3555-28.6133 14.3555-35.2539Q14.3555-41.8945 16.7969-47.7051Q19.2383-53.5156 23.6084-57.9102Q27.9785-62.3047 33.7646-64.7705Q39.5508-67.2363 46.1914-67.2363Q52.8809-67.2363 58.667-64.7705Q64.4531-62.3047 68.8477-57.9102Q73.2422-53.5156 75.7324-47.7051Q78.2227-41.8945 78.2227-35.2539Q78.2227-28.6133 75.7568-22.8027Q73.291-16.9922 68.9209-12.5977Q64.5508-8.20312 58.7402-5.7373Q52.9297-3.27148 46.2402-3.27148ZM36.2305-12.7441L56.1523-12.7441Q58.1055-12.7441 59.2041-13.7695Q60.3027-14.7949 60.4004-16.7969L61.5723-46.4355L64.4531-46.4355Q65.2344-46.4355 65.7471-46.9727Q66.2598-47.5098 66.2598-48.2422Q66.3086-48.9746 65.7715-49.5117Q65.2344-50.0488 64.4531-50.0488L55.6152-50.0488L55.6152-52.9785Q55.6152-55.4688 54.0771-56.9092Q52.5391-58.3496 49.9512-58.3496L42.334-58.3496Q39.7461-58.3496 38.2324-56.9092Q36.7188-55.4688 36.7188-52.9785L36.7188-50.0488L27.832-50.0488Q27.0996-50.0488 26.5869-49.5117Q26.0742-48.9746 26.0742-48.2422Q26.0742-47.5098 26.5869-46.9727Q27.0996-46.4355 27.832-46.4355L30.7617-46.4355L32.0312-16.7969Q32.0801-14.7949 33.1543-13.7695Q34.2285-12.7441 36.2305-12.7441ZM39.5508-18.6523Q38.0859-18.6523 38.0859-20.0195L37.5-42.041Q37.5-43.457 38.9648-43.457Q40.4297-43.457 40.4297-42.041L41.0156-20.0195Q41.0156-18.6523 39.5508-18.6523ZM46.1426-18.6523Q44.6777-18.6523 44.6777-20.0195L44.6777-42.041Q44.6777-43.457 46.1426-43.457Q47.7051-43.457 47.7051-42.041L47.7051-20.0195Q47.7051-18.6523 46.1426-18.6523ZM52.7344-18.6523Q51.2695-18.6523 51.2695-20.0195L51.8555-42.041Q51.9043-43.457 53.3691-43.457Q54.834-43.457 54.7852-42.041L54.1992-20.0195Q54.1992-18.6523 52.7344-18.6523ZM41.0156-50.0488L41.0156-52.7344Q41.0156-54.248 42.627-54.248L49.707-54.248Q51.2695-54.248 51.2695-52.7344L51.2695-50.0488Z"/>
  </g>
  <g id="Light-S" transform="matrix(1 0 0 1 1107.6 696)">
   <path d="M45.5078 3.41797Q53.4668 3.41797 60.4736 0.415039Q67.4805-2.58789 72.8271-7.95898Q78.1738-13.3301 81.2012-20.3125Q84.2285-27.2949 84.2285-35.2539Q84.2285-43.2129 81.2012-50.1953Q78.1738-57.1777 72.8027-62.5488Q67.4316-67.9199 60.4492-70.9229Q53.4668-73.9258 45.459-73.9258Q37.5488-73.9258 30.542-70.9229Q23.5352-67.9199 18.2129-62.5488Q12.8906-57.1777 9.86328-50.1953Q6.83594-43.2129 6.83594-35.2539Q6.83594-27.2949 9.86328-20.3125Q12.8906-13.3301 18.2373-7.95898Q23.584-2.58789 30.5908 0.415039Q37.5977 3.41797 45.5078 3.41797ZM45.5078-2.29492Q38.6719-2.29492 32.6904-4.83398Q26.709-7.37305 22.1924-11.9141Q17.6758-16.4551 15.1367-22.4365Q12.5977-28.418 12.5977-35.2539Q12.5977-42.0898 15.1367-48.0713Q17.6758-54.0527 22.1924-58.5938Q26.709-63.1348 32.666-65.6738Q38.623-68.2129 45.459-68.2129Q52.3438-68.2129 58.3252-65.6738Q64.3066-63.1348 68.8232-58.5938Q73.3398-54.0527 75.9277-48.0713Q78.5156-42.0898 78.5156-35.2539Q78.5156-28.418 75.9521-22.4365Q73.3887-16.4551 68.8721-11.9141Q64.3555-7.37305 58.374-4.83398Q52.3926-2.29492 45.5078-2.29492ZM35.6934-12.6953L55.3711-12.6953Q57.2266-12.6953 58.3496-13.7695Q59.4727-14.8438 59.5703-16.6992L60.9375-47.4121L64.0625-47.4121Q64.7461-47.4121 65.1855-47.8516Q65.625-48.291 65.625-48.9258Q65.625-49.5605 65.1855-50.0244Q64.7461-50.4883 64.0625-50.4883L54.7363-50.4883L54.7363-53.6621Q54.7363-55.9082 53.2715-57.2754Q51.8066-58.6426 49.4141-58.6426L41.5527-58.6426Q39.1602-58.6426 37.7197-57.2754Q36.2793-55.9082 36.2793-53.6621L36.2793-50.4883L26.8066-50.4883Q26.1719-50.4883 25.7324-50.0244Q25.293-49.5605 25.293-48.9258Q25.293-48.291 25.7324-47.8516Q26.1719-47.4121 26.8066-47.4121L30.0781-47.4121L31.4941-16.6992Q31.5918-14.8438 32.6904-13.7695Q33.7891-12.6953 35.6934-12.6953ZM38.916-18.6523Q37.6465-18.6523 37.6465-19.873L36.6699-42.5293Q36.6699-43.7988 38.0371-43.7988Q39.3066-43.7988 39.3555-42.5293L40.1855-19.873Q40.2344-18.6523 38.916-18.6523ZM45.4102-18.6523Q44.0918-18.6523 44.0918-19.873L44.0918-42.5293Q44.0918-43.7988 45.4102-43.7988Q46.7773-43.7988 46.7773-42.5293L46.7773-19.873Q46.7773-18.6523 45.4102-18.6523ZM51.9043-18.6523Q50.5859-18.6523 50.6348-19.873L51.4648-42.5293Q51.5137-43.7988 52.832-43.7988Q54.1992-43.7988 54.1016-42.5293L53.1738-19.873Q53.1738-18.6523 51.9043-18.6523ZM39.7949-50.4883L39.7949-53.418Q39.7949-55.2246 41.748-55.2246L49.1699-55.2246Q51.0742-55.2246 51.0742-53.418L51.0742-50.4883Z"/>
  </g>
  <g id="Thin-S" transform="matrix(1 0 0 1 811.867 696)">
   <path d="M44.5312 2.44141Q52.3438 2.44141 59.1553-0.488281Q65.9668-3.41797 71.1914-8.64258Q76.416-13.8672 79.3457-20.6787Q82.2754-27.4902 82.2754-35.2539Q82.2754-43.0176 79.3457-49.8291Q76.416-56.6406 71.1914-61.8652Q65.9668-67.0898 59.1553-70.0195Q52.3438-72.9492 44.5312-72.9492Q36.7676-72.9492 29.9316-70.0195Q23.0957-67.0898 17.9199-61.8652Q12.7441-56.6406 9.79004-49.8291Q6.83594-43.0176 6.83594-35.2539Q6.83594-27.4902 9.79004-20.6787Q12.7441-13.8672 17.9199-8.64258Q23.0957-3.41797 29.9316-0.488281Q36.7676 2.44141 44.5312 2.44141ZM44.5312-0.927734Q37.4512-0.927734 31.2256-3.58887Q25-6.25 20.2881-10.9619Q15.5762-15.6738 12.915-21.9238Q10.2539-28.1738 10.2539-35.2539Q10.2539-42.334 12.915-48.584Q15.5762-54.834 20.2881-59.5459Q25-64.2578 31.2256-66.9189Q37.4512-69.5801 44.5312-69.5801Q51.6602-69.5801 57.8857-66.9189Q64.1113-64.2578 68.8232-59.5459Q73.5352-54.834 76.1963-48.584Q78.8574-42.334 78.8574-35.2539Q78.8574-28.1738 76.1963-21.9238Q73.5352-15.6738 68.8232-10.9619Q64.1113-6.25 57.8857-3.58887Q51.6602-0.927734 44.5312-0.927734ZM35.0098-12.6953L54.2969-12.6953Q56.0547-12.6953 57.2266-13.7695Q58.3984-14.8438 58.4961-16.6016L60.0586-48.6816L63.5742-48.6816Q64.1113-48.6816 64.4287-49.0234Q64.7461-49.3652 64.7461-49.8535Q64.7949-50.293 64.4531-50.6592Q64.1113-51.0254 63.5742-51.0254L53.5645-51.0254L53.5645-54.541Q53.5645-56.4941 52.2217-57.7393Q50.8789-58.9844 48.6816-58.9844L40.5762-58.9844Q38.3789-58.9844 37.0605-57.7393Q35.7422-56.4941 35.7422-54.541L35.7422-51.0254L25.4395-51.0254Q25-51.0254 24.6338-50.6592Q24.2676-50.293 24.2676-49.8535Q24.2676-49.3652 24.6338-49.0234Q25-48.6816 25.4395-48.6816L29.248-48.6816L30.8105-16.6016Q30.9082-14.8438 32.0801-13.7695Q33.252-12.6953 35.0098-12.6953ZM38.0371-18.6035Q37.1094-18.6035 37.0117-19.6289L35.6445-43.1152Q35.5469-44.1895 36.7676-44.1895Q37.8418-44.1895 37.9395-43.2129L39.1113-19.7266Q39.1602-18.6035 38.0371-18.6035ZM44.4336-18.6523Q43.3105-18.6523 43.3105-19.7266L43.3105-43.1641Q43.3105-44.1895 44.4336-44.1895Q45.6055-44.1895 45.6055-43.1641L45.6055-19.7266Q45.6055-18.6523 44.4336-18.6523ZM50.8301-18.6035Q49.707-18.6035 49.7559-19.7266L50.9766-43.2129Q51.0254-44.1895 52.1484-44.1895Q53.3203-44.1895 53.2715-43.1152L51.8555-19.6289Q51.8066-18.6035 50.8301-18.6035ZM38.1348-51.0254L38.1348-54.3457Q38.1348-56.4453 40.5273-56.4453L48.4375-56.4453Q50.8301-56.4453 50.8301-54.3457L50.8301-51.0254Z"/>
  </g>
  <g id="Ultralight-S" transform="matrix(1 0 0 1 515.644 696)">
   <path d="M44.043 1.95312Q51.7578 1.95312 58.4717-0.927734Q65.1855-3.80859 70.3369-8.95996Q75.4883-14.1113 78.3936-20.8252Q81.2988-27.5391 81.2988-35.2539Q81.2988-42.9688 78.3936-49.6826Q75.4883-56.3965 70.3369-61.5479Q65.1855-66.6992 58.4717-69.5801Q51.7578-72.4609 44.043-72.4609Q36.377-72.4609 29.6387-69.5801Q22.9004-66.6992 17.7734-61.5479Q12.6465-56.3965 9.74121-49.6826Q6.83594-42.9688 6.83594-35.2539Q6.83594-27.5391 9.74121-20.8252Q12.6465-14.1113 17.7734-8.95996Q22.9004-3.80859 29.6387-0.927734Q36.377 1.95312 44.043 1.95312ZM44.043-0.292969Q36.8164-0.292969 30.4688-3.00293Q24.1211-5.71289 19.3115-10.5225Q14.502-15.332 11.7676-21.6797Q9.0332-28.0273 9.0332-35.2539Q9.0332-42.4805 11.7676-48.8281Q14.502-55.1758 19.3115-59.9854Q24.1211-64.7949 30.4688-67.5049Q36.8164-70.2148 44.043-70.2148Q51.2695-70.2148 57.6416-67.5049Q64.0137-64.7949 68.7988-59.9854Q73.584-55.1758 76.3184-48.8281Q79.0527-42.4805 79.0527-35.2539Q79.0527-28.0273 76.3428-21.6797Q73.6328-15.332 68.8232-10.5225Q64.0137-5.71289 57.666-3.00293Q51.3184-0.292969 44.043-0.292969ZM34.668-12.6465L53.8086-12.6465Q55.4688-12.6465 56.665-13.7695Q57.8613-14.8926 57.959-16.5039L59.668-49.3652L63.3789-49.3652Q63.8184-49.3652 64.0869-49.6338Q64.3555-49.9023 64.3555-50.3418Q64.3555-50.6836 64.0869-51.001Q63.8184-51.3184 63.3789-51.3184L52.9785-51.3184L52.9785-54.9805Q52.9785-56.7871 51.709-57.9834Q50.4395-59.1797 48.3398-59.1797L40.0879-59.1797Q37.9883-59.1797 36.7432-57.9834Q35.498-56.7871 35.498-54.9805L35.498-51.3184L24.8047-51.3184Q24.4141-51.3184 24.0967-51.001Q23.7793-50.6836 23.7793-50.3418Q23.7793-49.9023 24.0967-49.6338Q24.4141-49.3652 24.8047-49.3652L28.8086-49.3652L30.5176-16.5039Q30.6152-14.8926 31.7871-13.7695Q32.959-12.6465 34.668-12.6465ZM37.6465-18.6035Q36.8164-18.6035 36.7676-19.5312L35.1074-43.457Q35.0098-44.4336 36.1816-44.4336Q37.1582-44.4336 37.207-43.5547L38.5742-19.6289Q38.6719-18.6035 37.6465-18.6035ZM43.9941-18.6523Q42.9688-18.6523 42.9688-19.6289L42.9688-43.5059Q42.9688-44.4336 43.9941-44.4336Q45.0195-44.4336 45.0195-43.5059L45.0195-19.6289Q45.0195-18.6523 43.9941-18.6523ZM50.293-18.6035Q49.3164-18.6035 49.3652-19.6289L50.7812-43.5547Q50.8301-44.4336 51.8066-44.4336Q52.9297-44.4336 52.832-43.457L51.2207-19.5312Q51.123-18.6035 50.293-18.6035ZM37.3535-51.3184L37.3535-54.834Q37.3535-57.1289 39.9902-57.1289L48.0957-57.1289Q50.7324-57.1289 50.7324-54.834L50.7324-51.3184Z"/>
  </g>
 </g>
</svg>
