<?xml version="1.0" encoding="UTF-8"?>
<!--Generator: Apple Native CoreSVG 149-->
<!DOCTYPE svg
PUBLIC "-//W3C//DTD SVG 1.1//EN"
       "http://www.w3.org/Graphics/SVG/1.1/DTD/svg11.dtd">
<svg version="1.1" xmlns="http://www.w3.org/2000/svg" xmlns:xlink="http://www.w3.org/1999/xlink" width="3300" height="2200">
 <!--glyph: "uni10028D.medium", point size: 100.0, font version: "17.0d9e1", template writer version: "59"-->
 <g id="Notes">
  <rect height="2200" id="artboard" style="fill:white;opacity:1" width="3300" x="0" y="0"/>
  <line style="fill:none;stroke:black;opacity:1;stroke-width:0.5;" x1="263" x2="3036" y1="292" y2="292"/>
  <text style="stroke:none;fill:black;font-family:sans-serif;font-size:13;font-weight:bold;" transform="matrix(1 0 0 1 263 322)">Weight/Scale Variations</text>
  <text style="stroke:none;fill:black;font-family:sans-serif;font-size:13;text-anchor:middle;" transform="matrix(1 0 0 1 559.711 322)">Ultralight</text>
  <text style="stroke:none;fill:black;font-family:sans-serif;font-size:13;text-anchor:middle;" transform="matrix(1 0 0 1 856.422 322)">Thin</text>
  <text style="stroke:none;fill:black;font-family:sans-serif;font-size:13;text-anchor:middle;" transform="matrix(1 0 0 1 1153.13 322)">Light</text>
  <text style="stroke:none;fill:black;font-family:sans-serif;font-size:13;text-anchor:middle;" transform="matrix(1 0 0 1 1449.84 322)">Regular</text>
  <text style="stroke:none;fill:black;font-family:sans-serif;font-size:13;text-anchor:middle;" transform="matrix(1 0 0 1 1746.56 322)">Medium</text>
  <text style="stroke:none;fill:black;font-family:sans-serif;font-size:13;text-anchor:middle;" transform="matrix(1 0 0 1 2043.27 322)">Semibold</text>
  <text style="stroke:none;fill:black;font-family:sans-serif;font-size:13;text-anchor:middle;" transform="matrix(1 0 0 1 2339.98 322)">Bold</text>
  <text style="stroke:none;fill:black;font-family:sans-serif;font-size:13;text-anchor:middle;" transform="matrix(1 0 0 1 2636.69 322)">Heavy</text>
  <text style="stroke:none;fill:black;font-family:sans-serif;font-size:13;text-anchor:middle;" transform="matrix(1 0 0 1 2933.4 322)">Black</text>
  <line style="fill:none;stroke:black;opacity:1;stroke-width:0.5;" x1="263" x2="3036" y1="1903" y2="1903"/>
  <g transform="matrix(1 0 0 1 263 1933)">
   <path d="M9.24805 0.830078Q10.8691 0.830078 12.2949 0.214844Q13.7207-0.400391 14.8096-1.49414Q15.8984-2.58789 16.5186-4.01367Q17.1387-5.43945 17.1387-7.05078Q17.1387-8.66211 16.5186-10.0879Q15.8984-11.5137 14.8047-12.6074Q13.7109-13.7012 12.2852-14.3164Q10.8594-14.9316 9.23828-14.9316Q7.62695-14.9316 6.20117-14.3164Q4.77539-13.7012 3.69141-12.6074Q2.60742-11.5137 1.9873-10.0879Q1.36719-8.66211 1.36719-7.05078Q1.36719-5.43945 1.9873-4.01367Q2.60742-2.58789 3.69629-1.49414Q4.78516-0.400391 6.21094 0.214844Q7.63672 0.830078 9.24805 0.830078ZM9.24805-0.654297Q7.91992-0.654297 6.7627-1.14746Q5.60547-1.64062 4.73145-2.51953Q3.85742-3.39844 3.36426-4.56055Q2.87109-5.72266 2.87109-7.05078Q2.87109-8.37891 3.35938-9.54102Q3.84766-10.7031 4.72168-11.582Q5.5957-12.4609 6.75293-12.9541Q7.91016-13.4473 9.23828-13.4473Q10.5762-13.4473 11.7334-12.9541Q12.8906-12.4609 13.7695-11.582Q14.6484-10.7031 15.1465-9.54102Q15.6445-8.37891 15.6445-7.05078Q15.6445-5.72266 15.1514-4.56055Q14.6582-3.39844 13.7842-2.51953Q12.9102-1.64062 11.748-1.14746Q10.5859-0.654297 9.24805-0.654297ZM5.83984-7.04102Q5.83984-6.71875 6.04492-6.51855Q6.25-6.31836 6.5918-6.31836L8.50586-6.31836L8.50586-4.39453Q8.50586-4.0625 8.70605-3.85742Q8.90625-3.65234 9.22852-3.65234Q9.56055-3.65234 9.76562-3.85742Q9.9707-4.0625 9.9707-4.39453L9.9707-6.31836L11.8945-6.31836Q12.2266-6.31836 12.4316-6.51855Q12.6367-6.71875 12.6367-7.04102Q12.6367-7.37305 12.4316-7.57812Q12.2266-7.7832 11.8945-7.7832L9.9707-7.7832L9.9707-9.69727Q9.9707-10.0391 9.76562-10.2441Q9.56055-10.4492 9.22852-10.4492Q8.90625-10.4492 8.70605-10.2441Q8.50586-10.0391 8.50586-9.69727L8.50586-7.7832L6.5918-7.7832Q6.25-7.7832 6.04492-7.57812Q5.83984-7.37305 5.83984-7.04102Z"/>
  </g>
  <g transform="matrix(1 0 0 1 281.867 1933)">
   <path d="M11.709 2.91016Q13.75 2.91016 15.5518 2.12891Q17.3535 1.34766 18.7305-0.0292969Q20.1074-1.40625 20.8887-3.20801Q21.6699-5.00977 21.6699-7.05078Q21.6699-9.0918 20.8887-10.8936Q20.1074-12.6953 18.7305-14.0723Q17.3535-15.4492 15.5469-16.2305Q13.7402-17.0117 11.6992-17.0117Q9.6582-17.0117 7.85645-16.2305Q6.05469-15.4492 4.68262-14.0723Q3.31055-12.6953 2.5293-10.8936Q1.74805-9.0918 1.74805-7.05078Q1.74805-5.00977 2.5293-3.20801Q3.31055-1.40625 4.6875-0.0292969Q6.06445 1.34766 7.86621 2.12891Q9.66797 2.91016 11.709 2.91016ZM11.709 1.25Q9.98047 1.25 8.47656 0.605469Q6.97266-0.0390625 5.83496-1.17676Q4.69727-2.31445 4.05762-3.81836Q3.41797-5.32227 3.41797-7.05078Q3.41797-8.7793 4.05762-10.2832Q4.69727-11.7871 5.83008-12.9297Q6.96289-14.0723 8.4668-14.7119Q9.9707-15.3516 11.6992-15.3516Q13.4277-15.3516 14.9316-14.7119Q16.4355-14.0723 17.5781-12.9297Q18.7207-11.7871 19.3652-10.2832Q20.0098-8.7793 20.0098-7.05078Q20.0098-5.32227 19.3701-3.81836Q18.7305-2.31445 17.5928-1.17676Q16.4551-0.0390625 14.9463 0.605469Q13.4375 1.25 11.709 1.25ZM7.39258-7.04102Q7.39258-6.68945 7.62695-6.46484Q7.86133-6.24023 8.23242-6.24023L10.8789-6.24023L10.8789-3.57422Q10.8789-3.21289 11.1035-2.9834Q11.3281-2.75391 11.6797-2.75391Q12.0508-2.75391 12.2852-2.9834Q12.5195-3.21289 12.5195-3.57422L12.5195-6.24023L15.1758-6.24023Q15.5371-6.24023 15.7715-6.46484Q16.0059-6.68945 16.0059-7.04102Q16.0059-7.41211 15.7715-7.6416Q15.5371-7.87109 15.1758-7.87109L12.5195-7.87109L12.5195-10.5176Q12.5195-10.8984 12.2852-11.1279Q12.0508-11.3574 11.6797-11.3574Q11.3281-11.3574 11.1035-11.1279Q10.8789-10.8984 10.8789-10.5176L10.8789-7.87109L8.23242-7.87109Q7.85156-7.87109 7.62207-7.6416Q7.39258-7.41211 7.39258-7.04102Z"/>
  </g>
  <g transform="matrix(1 0 0 1 305.646 1933)">
   <path d="M14.9707 5.66406Q17.0605 5.66406 18.96 5.01465Q20.8594 4.36523 22.4512 3.19336Q24.043 2.02148 25.2197 0.429688Q26.3965-1.16211 27.0459-3.06641Q27.6953-4.9707 27.6953-7.05078Q27.6953-9.14062 27.0459-11.04Q26.3965-12.9395 25.2197-14.5312Q24.043-16.123 22.4512-17.2998Q20.8594-18.4766 18.9551-19.126Q17.0508-19.7754 14.9609-19.7754Q12.8711-19.7754 10.9717-19.126Q9.07227-18.4766 7.48535-17.2998Q5.89844-16.123 4.72168-14.5312Q3.54492-12.9395 2.90039-11.04Q2.25586-9.14062 2.25586-7.05078Q2.25586-4.9707 2.90527-3.06641Q3.55469-1.16211 4.72656 0.429688Q5.89844 2.02148 7.49023 3.19336Q9.08203 4.36523 10.9814 5.01465Q12.8809 5.66406 14.9707 5.66406ZM14.9707 3.84766Q13.1641 3.84766 11.5283 3.2959Q9.89258 2.74414 8.53516 1.74805Q7.17773 0.751953 6.17676-0.610352Q5.17578-1.97266 4.62891-3.6084Q4.08203-5.24414 4.08203-7.05078Q4.08203-8.86719 4.62891-10.5029Q5.17578-12.1387 6.17188-13.501Q7.16797-14.8633 8.52539-15.8594Q9.88281-16.8555 11.5186-17.4023Q13.1543-17.9492 14.9609-17.9492Q16.7773-17.9492 18.4131-17.4023Q20.0488-16.8555 21.4111-15.8594Q22.7734-14.8633 23.7695-13.501Q24.7656-12.1387 25.3174-10.5029Q25.8691-8.86719 25.8691-7.05078Q25.8789-5.24414 25.332-3.6084Q24.7852-1.97266 23.7842-0.610352Q22.7832 0.751953 21.4209 1.74805Q20.0586 2.74414 18.4229 3.2959Q16.7871 3.84766 14.9707 3.84766ZM9.45312-7.04102Q9.45312-6.66016 9.71191-6.41113Q9.9707-6.16211 10.3711-6.16211L14.0625-6.16211L14.0625-2.46094Q14.0625-2.06055 14.3115-1.80664Q14.5605-1.55273 14.9414-1.55273Q15.3516-1.55273 15.6055-1.80664Q15.8594-2.06055 15.8594-2.46094L15.8594-6.16211L19.5605-6.16211Q19.9609-6.16211 20.2148-6.41113Q20.4688-6.66016 20.4688-7.04102Q20.4688-7.45117 20.2148-7.70508Q19.9609-7.95898 19.5605-7.95898L15.8594-7.95898L15.8594-11.6504Q15.8594-12.0605 15.6055-12.3145Q15.3516-12.5684 14.9414-12.5684Q14.5605-12.5684 14.3115-12.3096Q14.0625-12.0508 14.0625-11.6504L14.0625-7.95898L10.3711-7.95898Q9.96094-7.95898 9.70703-7.70508Q9.45312-7.45117 9.45312-7.04102Z"/>
  </g>
  <text style="stroke:none;fill:black;font-family:sans-serif;font-size:13;font-weight:bold;" transform="matrix(1 0 0 1 263 1953)">Design Variations</text>
  <text style="stroke:none;fill:black;font-family:sans-serif;font-size:13;" transform="matrix(1 0 0 1 263 1971)">Symbols are supported in up to nine weights and three scales.</text>
  <text style="stroke:none;fill:black;font-family:sans-serif;font-size:13;" transform="matrix(1 0 0 1 263 1989)">For optimal layout with text and other symbols, vertically align</text>
  <text style="stroke:none;fill:black;font-family:sans-serif;font-size:13;" transform="matrix(1 0 0 1 263 2007)">symbols with the adjacent text.</text>
  <line style="fill:none;stroke:#00AEEF;stroke-width:0.5;opacity:1.0;" x1="776" x2="776" y1="1919" y2="1933"/>
  <g transform="matrix(1 0 0 1 776 1933)">
   <path d="M3.31055 0.15625Q3.70117 0.15625 3.91602-0.00976562Q4.13086-0.175781 4.26758-0.585938L5.52734-4.0332L11.2891-4.0332L12.5488-0.585938Q12.6855-0.175781 12.9004-0.00976562Q13.1152 0.15625 13.4961 0.15625Q13.8867 0.15625 14.1162-0.0585938Q14.3457-0.273438 14.3457-0.644531Q14.3457-0.869141 14.2383-1.17188L9.6582-13.3691Q9.48242-13.8184 9.17969-14.043Q8.87695-14.2676 8.4082-14.2676Q7.5-14.2676 7.17773-13.3789L2.59766-1.16211Q2.49023-0.859375 2.49023-0.634766Q2.49023-0.263672 2.70996-0.0537109Q2.92969 0.15625 3.31055 0.15625ZM6.00586-5.51758L8.37891-12.0898L8.42773-12.0898L10.8008-5.51758Z"/>
  </g>
  <line style="fill:none;stroke:#00AEEF;stroke-width:0.5;opacity:1.0;" x1="793.197" x2="793.197" y1="1919" y2="1933"/>
  <text style="stroke:none;fill:black;font-family:sans-serif;font-size:13;font-weight:bold;" transform="matrix(1 0 0 1 776 1953)">Margins</text>
  <text style="stroke:none;fill:black;font-family:sans-serif;font-size:13;" transform="matrix(1 0 0 1 776 1971)">Leading and trailing margins on the left and right side of each symbol</text>
  <text style="stroke:none;fill:black;font-family:sans-serif;font-size:13;" transform="matrix(1 0 0 1 776 1989)">can be adjusted by modifying the x-location of the margin guidelines.</text>
  <text style="stroke:none;fill:black;font-family:sans-serif;font-size:13;" transform="matrix(1 0 0 1 776 2007)">Modifications are automatically applied proportionally to all</text>
  <text style="stroke:none;fill:black;font-family:sans-serif;font-size:13;" transform="matrix(1 0 0 1 776 2025)">scales and weights.</text>
  <g transform="matrix(1 0 0 1 1289 1933)">
   <path d="M2.8418 1.86523L4.54102 3.57422Q5.18555 4.22852 5.90332 4.17969Q6.62109 4.13086 7.31445 3.35938L18.0078-8.42773L17.041-9.4043L6.42578 2.27539Q6.16211 2.57812 5.89355 2.61719Q5.625 2.65625 5.27344 2.30469L4.10156 1.14258Q3.75 0.791016 3.79395 0.522461Q3.83789 0.253906 4.14062-0.0195312L15.6152-10.8203L14.6387-11.7871L3.04688-0.898438Q2.30469-0.214844 2.25098 0.498047Q2.19727 1.21094 2.8418 1.86523ZM9.25781-16.3281Q8.94531-16.0254 8.90625-15.6348Q8.86719-15.2441 9.04297-14.9512Q9.21875-14.6777 9.55566-14.541Q9.89258-14.4043 10.3809-14.5215Q11.4746-14.7754 12.5977-14.7314Q13.7207-14.6875 14.7949-13.9844L14.209-12.5293Q13.9551-11.9043 14.0674-11.4404Q14.1797-10.9766 14.5801-10.5664L16.875-8.25195Q17.2363-7.88086 17.5781-7.82227Q17.9199-7.76367 18.3398-7.8418L19.4043-8.03711L20.0684-7.36328L20.0293-6.80664Q20-6.43555 20.1221-6.12305Q20.2441-5.81055 20.6055-5.44922L21.3672-4.70703Q21.7285-4.3457 22.1533-4.33105Q22.5781-4.31641 22.9297-4.66797L25.8398-7.58789Q26.1914-7.93945 26.1816-8.35449Q26.1719-8.76953 25.8105-9.13086L25.0391-9.89258Q24.6875-10.2539 24.3799-10.3857Q24.0723-10.5176 23.7109-10.4883L23.1348-10.4395L22.4902-11.0742L22.7344-12.1973Q22.832-12.6172 22.6953-12.9834Q22.5586-13.3496 22.1191-13.7891L19.9219-15.9766Q18.6719-17.2168 17.2607-17.8369Q15.8496-18.457 14.4189-18.4814Q12.9883-18.5059 11.665-17.959Q10.3418-17.4121 9.25781-16.3281ZM10.752-15.957Q11.6602-16.6211 12.7002-16.9043Q13.7402-17.1875 14.8047-17.085Q15.8691-16.9824 16.8701-16.5137Q17.8711-16.0449 18.7012-15.2051L21.1328-12.793Q21.3086-12.6172 21.3525-12.4512Q21.3965-12.2852 21.3379-12.0312L21.0156-10.5469L22.5195-9.0625L23.5059-9.12109Q23.6914-9.13086 23.7891-9.09668Q23.8867-9.0625 24.0332-8.91602L24.6094-8.33984L22.168-5.89844L21.5918-6.47461Q21.4453-6.62109 21.4062-6.71875Q21.3672-6.81641 21.377-7.01172L21.4453-7.98828L19.9512-9.47266L18.4277-9.21875Q18.1836-9.16992 18.042-9.2041Q17.9004-9.23828 17.7148-9.41406L15.7129-11.416Q15.5176-11.5918 15.4932-11.7529Q15.4688-11.9141 15.5859-12.1875L16.4648-14.2773Q15.293-15.3711 13.8281-15.791Q12.3633-16.2109 10.8398-15.7617Q10.7227-15.7324 10.6885-15.8057Q10.6543-15.8789 10.752-15.957Z"/>
  </g>
  <text style="stroke:none;fill:black;font-family:sans-serif;font-size:13;font-weight:bold;" transform="matrix(1 0 0 1 1289 1953)">Exporting</text>
  <text style="stroke:none;fill:black;font-family:sans-serif;font-size:13;" transform="matrix(1 0 0 1 1289 1971)">Symbols should be outlined when exporting to ensure the</text>
  <text style="stroke:none;fill:black;font-family:sans-serif;font-size:13;" transform="matrix(1 0 0 1 1289 1989)">design is preserved when submitting to Xcode.</text>
  <text id="template-version" style="stroke:none;fill:black;font-family:sans-serif;font-size:13;text-anchor:end;" transform="matrix(1 0 0 1 3036 1933)">Template v.2.0</text>
  <text style="stroke:none;fill:black;font-family:sans-serif;font-size:13;text-anchor:end;" transform="matrix(1 0 0 1 3036 1951)">Requires Xcode 13 or greater</text>
  <text id="descriptive-name" style="stroke:none;fill:black;font-family:sans-serif;font-size:13;text-anchor:end;" transform="matrix(1 0 0 1 3036 1969)">Generated from backward.end</text>
  <text style="stroke:none;fill:black;font-family:sans-serif;font-size:13;text-anchor:end;" transform="matrix(1 0 0 1 3036 1987)">Typeset at 100 points</text>
  <text style="stroke:none;fill:black;font-family:sans-serif;font-size:13;" transform="matrix(1 0 0 1 263 726)">Small</text>
  <text style="stroke:none;fill:black;font-family:sans-serif;font-size:13;" transform="matrix(1 0 0 1 263 1156)">Medium</text>
  <text style="stroke:none;fill:black;font-family:sans-serif;font-size:13;" transform="matrix(1 0 0 1 263 1586)">Large</text>
 </g>
 <g id="Guides">
  <g id="H-reference" style="fill:#27AAE1;stroke:none;" transform="matrix(1 0 0 1 339 696)">
   <path d="M0.976562 0L3.66211 0L29.3457-67.1387L30.0293-67.1387L30.0293-70.459L28.125-70.459ZM11.6699-24.4629L46.9727-24.4629L46.2402-26.709L12.4512-26.709ZM55.127 0L57.7637 0L30.6152-70.459L29.4434-70.459L29.4434-67.1387Z"/>
  </g>
  <line id="Baseline-S" style="fill:none;stroke:#27AAE1;opacity:1;stroke-width:0.5;" x1="263" x2="3036" y1="696" y2="696"/>
  <line id="Capline-S" style="fill:none;stroke:#27AAE1;opacity:1;stroke-width:0.5;" x1="263" x2="3036" y1="625.541" y2="625.541"/>
  <g id="H-reference" style="fill:#27AAE1;stroke:none;" transform="matrix(1 0 0 1 339 1126)">
   <path d="M0.976562 0L3.66211 0L29.3457-67.1387L30.0293-67.1387L30.0293-70.459L28.125-70.459ZM11.6699-24.4629L46.9727-24.4629L46.2402-26.709L12.4512-26.709ZM55.127 0L57.7637 0L30.6152-70.459L29.4434-70.459L29.4434-67.1387Z"/>
  </g>
  <line id="Baseline-M" style="fill:none;stroke:#27AAE1;opacity:1;stroke-width:0.5;" x1="263" x2="3036" y1="1126" y2="1126"/>
  <line id="Capline-M" style="fill:none;stroke:#27AAE1;opacity:1;stroke-width:0.5;" x1="263" x2="3036" y1="1055.54" y2="1055.54"/>
  <g id="H-reference" style="fill:#27AAE1;stroke:none;" transform="matrix(1 0 0 1 339 1556)">
   <path d="M0.976562 0L3.66211 0L29.3457-67.1387L30.0293-67.1387L30.0293-70.459L28.125-70.459ZM11.6699-24.4629L46.9727-24.4629L46.2402-26.709L12.4512-26.709ZM55.127 0L57.7637 0L30.6152-70.459L29.4434-70.459L29.4434-67.1387Z"/>
  </g>
  <line id="Baseline-L" style="fill:none;stroke:#27AAE1;opacity:1;stroke-width:0.5;" x1="263" x2="3036" y1="1556" y2="1556"/>
  <line id="Capline-L" style="fill:none;stroke:#27AAE1;opacity:1;stroke-width:0.5;" x1="263" x2="3036" y1="1485.54" y2="1485.54"/>
  <line id="left-margin" style="fill:none;stroke:#00AEEF;stroke-width:0.5;opacity:1.0;" x1="1399.67" x2="1399.67" y1="1030.79" y2="1150.12"/>
  <line id="right-margin" style="fill:none;stroke:#00AEEF;stroke-width:0.5;opacity:1.0;" x1="1500.02" x2="1500.02" y1="1030.79" y2="1150.12"/>
 </g>
 <g id="Symbols">
  <g id="Black-L" transform="matrix(1 0 0 1 2855.74 1556)">
   <path d="M28.3203 21.4844Q33.6426 21.4844 37.1338 18.0908Q40.625 14.6973 40.625 9.57031L40.625-80.0293Q40.625-85.1562 37.1338-88.5254Q33.6426-91.8945 28.3203-91.8945Q22.998-91.8945 19.5312-88.5254Q16.0645-85.1562 16.0645-80.0293L16.0645 9.57031Q16.0645 14.6973 19.5312 18.0908Q22.998 21.4844 28.3203 21.4844ZM125.488 19.4824Q131.104 19.4824 135.181 15.4785Q139.258 11.4746 139.258 4.19922L139.258-74.5605Q139.258-81.8848 135.229-85.8643Q131.201-89.8438 125.586-89.8438Q122.949-89.8438 120.508-89.209Q118.066-88.5742 115.576-87.1582L50.0488-48.877Q45.6055-46.2891 42.9443-43.1396Q40.2832-39.9902 40.2832-35.3027Q40.2832-30.6641 43.0176-27.3438Q45.752-24.0234 50.0488-21.4844L115.576 16.748Q118.066 18.2129 120.483 18.8477Q122.9 19.4824 125.488 19.4824ZM118.701-4.3457Q118.506-4.3457 118.311-4.39453Q118.115-4.44336 117.92-4.54102L66.4551-34.5215Q66.0156-34.7656 66.0156-35.2539Q66.0156-35.6934 66.4551-35.9375L117.92-65.8203Q118.164-65.9668 118.335-66.0156Q118.506-66.0645 118.652-66.0645Q118.994-66.0645 119.141-65.8936Q119.287-65.7227 119.287-65.4297L119.287-4.98047Q119.287-4.6875 119.141-4.5166Q118.994-4.3457 118.701-4.3457Z"/>
  </g>
  <g id="Heavy-L" transform="matrix(1 0 0 1 2562.45 1556)">
   <path d="M26.5137 20.166Q31.0059 20.166 33.9844 17.2852Q36.9629 14.4043 36.9629 10.0098L36.9629-80.4688Q36.9629-84.8145 33.9844-87.6953Q31.0059-90.5762 26.5137-90.5762Q21.9727-90.5762 19.0186-87.6953Q16.0645-84.8145 16.0645-80.4688L16.0645 10.0098Q16.0645 14.4043 19.0186 17.2852Q21.9727 20.166 26.5137 20.166ZM119.922 18.0664Q125 18.0664 128.711 14.4043Q132.422 10.7422 132.422 4.00391L132.422-74.3652Q132.422-81.1523 128.76-84.79Q125.098-88.4277 120.02-88.4277Q117.578-88.4277 115.332-87.793Q113.086-87.1582 110.742-85.8887L45.459-47.6562Q41.3574-45.2637 39.0137-42.3584Q36.6699-39.4531 36.6699-35.3027Q36.6699-31.1523 39.0625-28.1006Q41.4551-25.0488 45.459-22.7051L110.742 15.4785Q113.086 16.7969 115.308 17.4316Q117.529 18.0664 119.922 18.0664ZM114.209-2.49023Q113.965-2.49023 113.721-2.53906Q113.477-2.58789 113.184-2.7832L59.4238-34.2285Q58.7402-34.5703 58.7402-35.2539Q58.7402-35.8398 59.4238-36.2305L113.184-67.627Q113.525-67.8223 113.745-67.8711Q113.965-67.9199 114.16-67.9199Q114.6-67.9199 114.868-67.6758Q115.137-67.4316 115.137-66.8945L115.137-3.51562Q115.137-2.97852 114.868-2.73438Q114.6-2.49023 114.209-2.49023Z"/>
  </g>
  <g id="Bold-L" transform="matrix(1 0 0 1 2269.54 1556)">
   <path d="M24.5117 18.75Q28.0762 18.75 30.4932 16.4062Q32.9102 14.0625 32.9102 10.5469L32.9102-80.957Q32.9102-84.4727 30.4932-86.8164Q28.0762-89.1602 24.5117-89.1602Q20.8984-89.1602 18.4814-86.8164Q16.0645-84.4727 16.0645-80.957L16.0645 10.5469Q16.0645 14.0625 18.4814 16.4062Q20.8984 18.75 24.5117 18.75ZM113.721 16.4551Q118.213 16.4551 121.509 13.1836Q124.805 9.91211 124.805 3.80859L124.805-74.1699Q124.805-80.3223 121.533-83.5938Q118.262-86.8652 113.77-86.8652Q111.523-86.8652 109.497-86.2549Q107.471-85.6445 105.371-84.4238L40.332-46.2891Q36.6211-44.1406 34.6191-41.5039Q32.6172-38.8672 32.6172-35.2539Q32.6172-31.6895 34.668-28.9795Q36.7188-26.2695 40.332-24.1211L105.371 14.0137Q107.471 15.2344 109.497 15.8447Q111.523 16.4551 113.721 16.4551ZM109.229-0.390625Q108.936-0.390625 108.594-0.488281Q108.252-0.585938 107.91-0.78125L51.6113-33.8867Q50.6348-34.4238 50.6348-35.2539Q50.6348-36.0352 51.6113-36.5723L107.91-69.6289Q108.301-69.873 108.618-69.9707Q108.936-70.0684 109.18-70.0684Q109.717-70.0684 110.107-69.7021Q110.498-69.3359 110.498-68.5547L110.498-1.85547Q110.498-1.07422 110.107-0.732422Q109.717-0.390625 109.229-0.390625Z"/>
  </g>
  <g id="Semibold-L" transform="matrix(1 0 0 1 1975.47 1556)">
   <path d="M23.0957 17.7246Q26.0742 17.7246 28.0762 15.7715Q30.0781 13.8184 30.0781 10.8887L30.0781-81.2988Q30.0781-84.2285 28.0762-86.1816Q26.0742-88.1348 23.0957-88.1348Q20.1172-88.1348 18.0908-86.1816Q16.0645-84.2285 16.0645-81.2988L16.0645 10.8887Q16.0645 13.8184 18.0908 15.7715Q20.1172 17.7246 23.0957 17.7246ZM109.424 15.332Q113.477 15.332 116.504 12.3291Q119.531 9.32617 119.531 3.61328L119.531-74.0234Q119.531-79.7363 116.528-82.7393Q113.525-85.7422 109.424-85.7422Q107.373-85.7422 105.493-85.1318Q103.613-84.5215 101.611-83.4473L36.7676-45.3613Q33.3496-43.3105 31.5674-40.8936Q29.7852-38.4766 29.7852-35.2539Q29.7852-32.0801 31.5918-29.5654Q33.3984-27.0508 36.7676-25.0488L101.611 13.0371Q103.613 14.1602 105.493 14.7461Q107.373 15.332 109.424 15.332ZM105.762 1.07422Q105.42 1.07422 105.029 0.952148Q104.639 0.830078 104.248 0.585938L46.1914-33.6426Q45.0195-34.2773 45.0195-35.2051Q45.0195-36.1328 46.1914-36.8164L104.248-70.9961Q104.688-71.2402 105.054-71.3623Q105.42-71.4844 105.713-71.4844Q106.348-71.4844 106.812-71.0693Q107.275-70.6543 107.275-69.6777L107.275-0.732422Q107.275 0.244141 106.812 0.65918Q106.348 1.07422 105.762 1.07422Z"/>
  </g>
  <g id="Medium-L" transform="matrix(1 0 0 1 1680.76 1556)">
   <path d="M22.0215 16.9434Q24.5117 16.9434 26.2451 15.2832Q27.9785 13.623 27.9785 11.1816L27.9785-81.543Q27.9785-84.0332 26.2451-85.6934Q24.5117-87.3535 22.0215-87.3535Q19.5312-87.3535 17.7979-85.6934Q16.0645-84.0332 16.0645-81.543L16.0645 11.1816Q16.0645 13.623 17.7979 15.2832Q19.5312 16.9434 22.0215 16.9434ZM106.152 14.502Q109.912 14.502 112.72 11.7188Q115.527 8.93555 115.527 3.51562L115.527-73.9258Q115.527-79.3457 112.744-82.1289Q109.961-84.9121 106.152-84.9121Q104.199-84.9121 102.441-84.3262Q100.684-83.7402 98.7793-82.666L34.082-44.6289Q30.8594-42.7246 29.2725-40.4297Q27.6855-38.1348 27.6855-35.2051Q27.6855-32.3242 29.2969-30.0049Q30.9082-27.6855 34.082-25.7812L98.7793 12.2559Q100.684 13.3301 102.441 13.916Q104.199 14.502 106.152 14.502ZM103.125 2.19727Q102.783 2.19727 102.368 2.05078Q101.953 1.9043 101.465 1.61133L42.0898-33.4473Q40.7715-34.1797 40.7715-35.2051Q40.7715-36.2305 42.0898-36.9629L101.465-72.0215Q102.002-72.3145 102.393-72.4609Q102.783-72.6074 103.125-72.6074Q103.76-72.6074 104.321-72.1191Q104.883-71.6309 104.883-70.5566L104.883 0.146484Q104.883 1.2207 104.321 1.70898Q103.76 2.19727 103.125 2.19727Z"/>
  </g>
  <g id="Regular-L" transform="matrix(1 0 0 1 1386.66 1556)">
   <path d="M20.6543 15.9668Q22.5098 15.9668 23.8525 14.6729Q25.1953 13.3789 25.1953 11.5234L25.1953-81.8848Q25.1953-83.7891 23.8525-85.083Q22.5098-86.377 20.6543-86.377Q18.75-86.377 17.4072-85.083Q16.0645-83.7891 16.0645-81.8848L16.0645 11.5234Q16.0645 13.3789 17.4072 14.6729Q18.75 15.9668 20.6543 15.9668ZM101.904 13.4277Q105.273 13.4277 107.788 10.8887Q110.303 8.34961 110.303 3.36914L110.303-73.7793Q110.303-78.7598 107.788-81.2988Q105.273-83.8379 101.904-83.8379Q100.098-83.8379 98.4863-83.252Q96.875-82.666 95.1172-81.6895L30.5664-43.7012Q27.6367-41.9434 26.2695-39.8438Q24.9023-37.7441 24.9023-35.2051Q24.9023-32.7148 26.2695-30.5908Q27.6367-28.4668 30.5664-26.709L95.1172 11.2793Q96.875 12.2559 98.4863 12.8418Q100.098 13.4277 101.904 13.4277ZM99.707 3.61328Q99.3164 3.61328 98.8525 3.4668Q98.3887 3.32031 97.8516 2.97852L36.7676-33.2031Q35.2051-34.0332 35.2051-35.2051Q35.2051-36.3281 36.7676-37.207L97.8516-73.3887Q98.4375-73.7305 98.877-73.877Q99.3164-74.0234 99.707-74.0234Q100.439-74.0234 101.074-73.4863Q101.709-72.9492 101.709-71.6797L101.709 1.26953Q101.709 2.53906 101.074 3.07617Q100.439 3.61328 99.707 3.61328Z"/>
  </g>
  <g id="Light-L" transform="matrix(1 0 0 1 1092.05 1556)">
   <path d="M19.5312 14.7949Q20.9473 14.7949 21.9727 13.8184Q22.998 12.8418 22.998 11.4258L22.998-81.7871Q22.998-83.2031 21.9727-84.2041Q20.9473-85.2051 19.5312-85.2051Q18.1152-85.2051 17.0898-84.2041Q16.0645-83.2031 16.0645-81.7871L16.0645 11.4258Q16.0645 12.8418 17.0898 13.8184Q18.1152 14.7949 19.5312 14.7949ZM98.5352 12.2559Q101.514 12.2559 103.809 10.0098Q106.104 7.76367 106.104 3.22266L106.104-73.6328Q106.104-78.2227 103.809-80.4688Q101.514-82.7148 98.5352-82.7148Q96.9727-82.7148 95.459-82.1289Q93.9453-81.543 92.4316-80.7129L27.4414-42.4805Q25.0488-41.0156 23.8525-39.2578Q22.6562-37.5 22.6562-35.2539Q22.6562-33.0078 23.8525-31.2012Q25.0488-29.3945 27.4414-27.9297L92.4316 10.3027Q93.9453 11.1328 95.459 11.6943Q96.9727 12.2559 98.5352 12.2559ZM97.1191 4.93164Q96.6309 4.93164 96.0693 4.76074Q95.5078 4.58984 94.8242 4.15039L32.1289-32.8613Q30.3223-33.8379 30.3223-35.2539Q30.3223-36.5234 32.1289-37.5488L94.8242-74.5605Q95.6055-75.0488 96.1182-75.1953Q96.6309-75.3418 97.1191-75.3418Q97.9492-75.3418 98.7549-74.6826Q99.5605-74.0234 99.5605-72.3633L99.5605 1.95312Q99.5605 3.61328 98.7549 4.27246Q97.9492 4.93164 97.1191 4.93164Z"/>
  </g>
  <g id="Thin-L" transform="matrix(1 0 0 1 798.121 1556)">
   <path d="M18.0664 13.2324Q18.8965 13.2324 19.4824 12.6465Q20.0684 12.0605 20.0684 11.2305L20.0684-81.6406Q20.0684-82.4707 19.4824-83.0566Q18.8965-83.6426 18.0664-83.6426Q17.2363-83.6426 16.6504-83.0566Q16.0645-82.4707 16.0645-81.6406L16.0645 11.2305Q16.0645 12.0605 16.6504 12.6465Q17.2363 13.2324 18.0664 13.2324ZM94.1406 10.7422Q96.5332 10.7422 98.5352 8.8623Q100.537 6.98242 100.537 2.97852L100.537-73.4375Q100.537-77.4414 98.5352-79.3213Q96.5332-81.2012 94.1406-81.2012Q92.7734-81.2012 91.4062-80.6396Q90.0391-80.0781 88.916-79.4434L23.291-40.8691Q21.582-39.8438 20.6543-38.501Q19.7266-37.1582 19.7266-35.2539Q19.7266-33.3496 20.6787-31.958Q21.6309-30.5664 23.291-29.5898L88.916 8.98438Q90.0391 9.61914 91.4062 10.1807Q92.7734 10.7422 94.1406 10.7422ZM93.7012 6.68945Q93.1152 6.68945 92.4316 6.49414Q91.748 6.29883 90.7715 5.71289L26.0254-32.4219Q23.877-33.5938 23.877-35.2539Q23.877-36.7676 26.0254-38.0371L90.7715-76.1719Q91.8457-76.7578 92.4805-76.9287Q93.1152-77.0996 93.7012-77.0996Q94.6289-77.0996 95.6787-76.2939Q96.7285-75.4883 96.7285-73.291L96.7285 2.83203Q96.7285 4.98047 95.6787 5.83496Q94.6289 6.68945 93.7012 6.68945Z"/>
  </g>
  <g id="Ultralight-L" transform="matrix(1 0 0 1 502.851 1556)">
   <path d="M17.2852 12.4023Q17.8223 12.4023 18.1885 12.0605Q18.5547 11.7188 18.5547 11.1816L18.5547-81.543Q18.5547-82.0801 18.1885-82.4463Q17.8223-82.8125 17.2852-82.8125Q16.7969-82.8125 16.4307-82.4463Q16.0645-82.0801 16.0645-81.543L16.0645 11.1816Q16.0645 11.7188 16.4307 12.0605Q16.7969 12.4023 17.2852 12.4023ZM91.8457 9.91211Q93.9941 9.91211 95.8252 8.25195Q97.6562 6.5918 97.6562 2.88086L97.6562-73.3398Q97.6562-77.0996 95.8252-78.7598Q93.9941-80.4199 91.8457-80.4199Q90.6738-80.4199 89.3799-79.8828Q88.0859-79.3457 87.0605-78.7598L21.1426-40.0391Q19.8242-39.209 19.0186-38.1104Q18.2129-37.0117 18.2129-35.3027Q18.2129-33.5449 19.043-32.373Q19.873-31.2012 21.1426-30.4199L87.0605 8.34961Q88.0371 8.83789 89.3555 9.375Q90.6738 9.91211 91.8457 9.91211ZM91.9434 7.56836Q91.3086 7.56836 90.5518 7.37305Q89.7949 7.17773 88.7207 6.54297L22.9004-32.2266Q20.6055-33.4961 20.6055-35.3027Q20.6055-36.9141 22.9004-38.2812L88.7207-76.9531Q89.8926-77.6367 90.6006-77.832Q91.3086-78.0273 91.9434-78.0273Q92.9688-78.0273 94.1406-77.124Q95.3125-76.2207 95.3125-73.7793L95.3125 3.32031Q95.3125 5.71289 94.1406 6.64062Q92.9688 7.56836 91.9434 7.56836Z"/>
  </g>
  <g id="Black-M" transform="matrix(1 0 0 1 2871.02 1126)">
   <path d="M23.1445 9.42383Q27.832 9.42383 30.835 6.46973Q33.8379 3.51562 33.8379-0.927734L33.8379-69.5312Q33.8379-73.9746 30.835-76.9287Q27.832-79.8828 23.1445-79.8828Q18.457-79.8828 15.4541-76.9287Q12.4512-73.9746 12.4512-69.5312L12.4512-0.927734Q12.4512 3.51562 15.4541 6.46973Q18.457 9.42383 23.1445 9.42383ZM100.879 8.00781Q105.518 8.00781 108.911 4.71191Q112.305 1.41602 112.305-4.58984L112.305-65.8203Q112.305-71.8262 108.96-75.1221Q105.615-78.418 101.025-78.418Q98.877-78.418 96.8506-77.9053Q94.8242-77.3926 92.7734-76.2207L41.6504-46.4355Q38.0859-44.3848 35.8398-41.8213Q33.5938-39.2578 33.5938-35.3027Q33.5938-31.3477 35.9131-28.6377Q38.2324-25.9277 41.6504-23.9746L92.7734 5.85938Q94.7754 6.98242 96.7773 7.49512Q98.7793 8.00781 100.879 8.00781ZM94.9707-12.4512Q94.8242-12.4512 94.6777-12.4756Q94.5312-12.5 94.4336-12.5977L55.9082-34.8145Q55.7129-34.9609 55.7129-35.2539Q55.7129-35.5469 55.9082-35.6445L94.4336-57.8125Q94.5801-57.9102 94.6777-57.9346Q94.7754-57.959 94.9219-57.959Q95.1172-57.959 95.1904-57.8613Q95.2637-57.7637 95.2637-57.6172L95.2637-12.793Q95.2637-12.6465 95.1904-12.5488Q95.1172-12.4512 94.9707-12.4512Z"/>
  </g>
  <g id="Heavy-M" transform="matrix(1 0 0 1 2577.19 1126)">
   <path d="M21.582 8.39844Q25.5859 8.39844 28.1738 5.85938Q30.7617 3.32031 30.7617-0.439453L30.7617-69.9707Q30.7617-73.7793 28.1738-76.3184Q25.5859-78.8574 21.582-78.8574Q17.627-78.8574 15.0391-76.3184Q12.4512-73.7793 12.4512-69.9707L12.4512-0.439453Q12.4512 3.32031 15.0391 5.85938Q17.627 8.39844 21.582 8.39844ZM96.1426 6.88477Q100.391 6.88477 103.467 3.85742Q106.543 0.830078 106.543-4.73633L106.543-65.6738Q106.543-71.2402 103.491-74.2676Q100.439-77.2949 96.2891-77.2949Q94.2871-77.2949 92.4316-76.7822Q90.5762-76.2695 88.623-75.1953L37.8418-45.5078Q34.5215-43.5547 32.5195-41.1865Q30.5176-38.8184 30.5176-35.3027Q30.5176-31.7383 32.5684-29.248Q34.6191-26.7578 37.8418-24.9023L88.623 4.78516Q90.5273 5.85938 92.3584 6.37207Q94.1895 6.88477 96.1426 6.88477ZM91.1621-10.8887Q90.9668-10.8887 90.7959-10.9375Q90.625-10.9863 90.4297-11.1328L50.0488-34.5703Q49.6582-34.8145 49.6582-35.2539Q49.6582-35.6445 50.0488-35.8398L90.4297-59.2773Q90.6738-59.4238 90.7959-59.4727Q90.918-59.5215 91.1133-59.5215Q91.3574-59.5215 91.5283-59.3506Q91.6992-59.1797 91.6992-58.8867L91.6992-11.5234Q91.6992-11.2305 91.5283-11.0596Q91.3574-10.8887 91.1621-10.8887Z"/>
  </g>
  <g id="Bold-M" transform="matrix(1 0 0 1 2283.7 1126)">
   <path d="M19.873 7.27539Q23.0957 7.27539 25.2197 5.22461Q27.3438 3.17383 27.3438 0.0976562L27.3438-70.5078Q27.3438-73.584 25.2197-75.6592Q23.0957-77.7344 19.873-77.7344Q16.6992-77.7344 14.5752-75.6592Q12.4512-73.584 12.4512-70.5078L12.4512 0.0976562Q12.4512 3.17383 14.5752 5.22461Q16.6992 7.27539 19.873 7.27539ZM90.8691 5.61523Q94.6289 5.61523 97.3633 2.88086Q100.098 0.146484 100.098-4.93164L100.098-65.5273Q100.098-70.5566 97.3877-73.291Q94.6777-76.0254 90.9668-76.0254Q89.1602-76.0254 87.4756-75.5371Q85.791-75.0488 84.0332-74.0234L33.5938-44.4824Q30.5176-42.6758 28.8086-40.4785Q27.0996-38.2812 27.0996-35.2539Q27.0996-32.2266 28.833-29.9805Q30.5664-27.7344 33.5938-25.9766L84.0332 3.61328Q85.791 4.63867 87.4512 5.12695Q89.1113 5.61523 90.8691 5.61523ZM86.8652-9.17969Q86.6699-9.17969 86.4502-9.22852Q86.2305-9.27734 85.9863-9.47266L43.5547-34.3262Q42.9199-34.7168 42.9199-35.2539Q42.9199-35.791 43.5547-36.1328L85.9863-60.9863Q86.2793-61.1328 86.4746-61.2061Q86.6699-61.2793 86.8652-61.2793Q87.207-61.2793 87.4512-61.0352Q87.6953-60.791 87.6953-60.3516L87.6953-10.0586Q87.6953-9.61914 87.4512-9.39941Q87.207-9.17969 86.8652-9.17969Z"/>
  </g>
  <g id="Semibold-M" transform="matrix(1 0 0 1 1989.21 1126)">
   <path d="M18.7012 6.49414Q21.3867 6.49414 23.1689 4.76074Q24.9512 3.02734 24.9512 0.439453L24.9512-70.8496Q24.9512-73.4375 23.1689-75.1709Q21.3867-76.9043 18.7012-76.9043Q16.0156-76.9043 14.2334-75.1709Q12.4512-73.4375 12.4512-70.8496L12.4512 0.439453Q12.4512 3.02734 14.2334 4.76074Q16.0156 6.49414 18.7012 6.49414ZM87.207 4.6875Q90.6738 4.6875 93.1641 2.19727Q95.6543-0.292969 95.6543-5.0293L95.6543-65.3809Q95.6543-70.1172 93.1641-72.6074Q90.6738-75.0977 87.2559-75.0977Q85.5957-75.0977 84.0576-74.6338Q82.5195-74.1699 80.8105-73.1934L30.6152-43.75Q27.7344-42.041 26.2207-39.9902Q24.707-37.9395 24.707-35.2539Q24.707-32.5684 26.2451-30.4688Q27.7832-28.3691 30.6152-26.6602L80.8105 2.7832Q82.4707 3.75977 84.0088 4.22363Q85.5469 4.6875 87.207 4.6875ZM83.9355-7.95898Q83.6914-7.95898 83.4229-8.03223Q83.1543-8.10547 82.9102-8.30078L39.0137-34.1309Q38.2324-34.5703 38.2324-35.2051Q38.2324-35.8398 39.0137-36.2793L82.9102-62.1094Q83.2031-62.3047 83.4473-62.3779Q83.6914-62.4512 83.8867-62.4512Q84.2773-62.4512 84.5947-62.1826Q84.9121-61.9141 84.9121-61.3281L84.9121-9.08203Q84.9121-8.49609 84.5947-8.22754Q84.2773-7.95898 83.9355-7.95898Z"/>
  </g>
  <g id="Medium-M" transform="matrix(1 0 0 1 1694.19 1126)">
   <path d="M17.7734 5.9082Q20.0684 5.9082 21.6064 4.41895Q23.1445 2.92969 23.1445 0.732422L23.1445-71.0938Q23.1445-73.3398 21.6064-74.8291Q20.0684-76.3184 17.7734-76.3184Q15.5273-76.3184 13.9893-74.8291Q12.4512-73.3398 12.4512-71.0938L12.4512 0.732422Q12.4512 2.92969 13.9893 4.41895Q15.5273 5.9082 17.7734 5.9082ZM84.4727 4.05273Q87.6465 4.05273 89.9658 1.68457Q92.2852-0.683594 92.2852-5.12695L92.2852-65.2832Q92.2852-69.7266 89.9902-72.0947Q87.6953-74.4629 84.4727-74.4629Q82.9102-74.4629 81.4697-73.9746Q80.0293-73.4863 78.418-72.5586L28.418-43.2129Q25.6348-41.5527 24.2676-39.5996Q22.9004-37.6465 22.9004-35.2051Q22.9004-32.8125 24.292-30.835Q25.6836-28.8574 28.418-27.1973L78.418 2.19727Q79.9805 3.07617 81.4209 3.56445Q82.8613 4.05273 84.4727 4.05273ZM81.6895-7.03125Q81.4453-7.03125 81.1523-7.12891Q80.8594-7.22656 80.5664-7.42188L35.5957-34.0332Q34.668-34.5215 34.668-35.2051Q34.668-35.8887 35.5957-36.4258L80.5664-62.9883Q80.9082-63.1836 81.1768-63.2812Q81.4453-63.3789 81.6895-63.3789Q82.0801-63.3789 82.4463-63.0615Q82.8125-62.7441 82.8125-62.1094L82.8125-8.30078Q82.8125-7.66602 82.4463-7.34863Q82.0801-7.03125 81.6895-7.03125Z"/>
  </g>
  <g id="Regular-M" transform="matrix(1 0 0 1 1399.67 1126)">
   <path d="M16.6016 5.12695Q18.3594 5.12695 19.5801 3.95508Q20.8008 2.7832 20.8008 1.07422L20.8008-71.4355Q20.8008-73.1934 19.5801-74.3652Q18.3594-75.5371 16.6016-75.5371Q14.8926-75.5371 13.6719-74.3652Q12.4512-73.1934 12.4512-71.4355L12.4512 1.07422Q12.4512 2.7832 13.6719 3.95508Q14.8926 5.12695 16.6016 5.12695ZM80.8594 3.17383Q83.7402 3.17383 85.8154 1.02539Q87.8906-1.12305 87.8906-5.22461L87.8906-65.1855Q87.8906-69.2871 85.8154-71.4355Q83.7402-73.584 80.8594-73.584Q79.3945-73.584 78.0762-73.1201Q76.7578-72.6562 75.2441-71.7773L25.4883-42.4805Q22.9004-40.918 21.7285-39.1113Q20.5566-37.3047 20.5566-35.2051Q20.5566-33.1055 21.7285-31.2988Q22.9004-29.4922 25.4883-27.9297L75.2441 1.36719Q76.7578 2.24609 78.0762 2.70996Q79.3945 3.17383 80.8594 3.17383ZM78.7598-5.85938Q78.5156-5.85938 78.1982-5.95703Q77.8809-6.05469 77.5391-6.29883L31.1523-33.8379Q30.0781-34.4238 30.0781-35.2051Q30.0781-35.9863 31.1523-36.5723L77.5391-64.1113Q77.9297-64.3555 78.2227-64.4531Q78.5156-64.5508 78.7598-64.5508Q79.248-64.5508 79.6631-64.1846Q80.0781-63.8184 80.0781-63.0859L80.0781-7.32422Q80.0781-6.5918 79.6631-6.22559Q79.248-5.85938 78.7598-5.85938Z"/>
  </g>
  <g id="Light-M" transform="matrix(1 0 0 1 1104.84 1126)">
   <path d="M15.625 4.05273Q16.9434 4.05273 17.8711 3.14941Q18.7988 2.24609 18.7988 0.976562L18.7988-71.3379Q18.7988-72.6562 17.8711-73.5596Q16.9434-74.4629 15.625-74.4629Q14.3066-74.4629 13.3789-73.5596Q12.4512-72.6562 12.4512-71.3379L12.4512 0.976562Q12.4512 2.24609 13.3789 3.14941Q14.3066 4.05273 15.625 4.05273ZM77.8809 2.14844Q80.3711 2.14844 82.251 0.244141Q84.1309-1.66016 84.1309-5.37109L84.1309-65.0391Q84.1309-68.7988 82.251-70.6787Q80.3711-72.5586 77.8809-72.5586Q76.5625-72.5586 75.3418-72.1191Q74.1211-71.6797 72.8516-70.8984L22.6562-41.4062Q20.5566-40.1367 19.5557-38.623Q18.5547-37.1094 18.5547-35.2051Q18.5547-33.3496 19.5801-31.8115Q20.6055-30.2734 22.6562-29.0527L72.8516 0.488281Q74.1211 1.2207 75.3418 1.68457Q76.5625 2.14844 77.8809 2.14844ZM76.416-4.6875Q76.123-4.6875 75.7324-4.80957Q75.3418-4.93164 74.8535-5.22461L27.002-33.5449Q25.6836-34.2773 25.6836-35.2051Q25.6836-36.1328 27.002-36.9141L74.8535-65.1855Q75.3906-65.5273 75.7568-65.625Q76.123-65.7227 76.416-65.7227Q77.002-65.7227 77.5879-65.2588Q78.1738-64.7949 78.1738-63.7207L78.1738-6.73828Q78.1738-5.61523 77.5879-5.15137Q77.002-4.6875 76.416-4.6875Z"/>
  </g>
  <g id="Thin-M" transform="matrix(1 0 0 1 810.621 1126)">
   <path d="M14.3066 2.68555Q15.0879 2.68555 15.6494 2.14844Q16.2109 1.61133 16.2109 0.830078L16.2109-71.2402Q16.2109-72.0215 15.6494-72.5586Q15.0879-73.0957 14.3066-73.0957Q13.5742-73.0957 13.0127-72.5586Q12.4512-72.0215 12.4512-71.2402L12.4512 0.830078Q12.4512 1.61133 13.0127 2.14844Q13.5742 2.68555 14.3066 2.68555ZM73.877 0.732422Q75.8789 0.732422 77.5146-0.805664Q79.1504-2.34375 79.1504-5.56641L79.1504-64.8926Q79.1504-68.1152 77.5146-69.6533Q75.8789-71.1914 73.877-71.1914Q72.8027-71.1914 71.7285-70.752Q70.6543-70.3125 69.6777-69.7754L18.9453-39.9414Q17.4805-39.0625 16.7236-37.9395Q15.9668-36.8164 15.9668-35.2539Q15.9668-33.6914 16.748-32.5195Q17.5293-31.3477 18.9453-30.5176L69.6777-0.683594Q70.6055-0.0976562 71.7041 0.317383Q72.8027 0.732422 73.877 0.732422ZM73.3398-3.17383Q72.9492-3.17383 72.4365-3.2959Q71.9238-3.41797 71.2402-3.85742L21.5332-33.1543Q19.9219-34.0332 19.9219-35.2539Q19.9219-36.377 21.5332-37.3047L71.2402-66.6016Q71.9727-67.041 72.4609-67.1631Q72.9492-67.2852 73.3398-67.2852Q74.0234-67.2852 74.8291-66.6992Q75.6348-66.1133 75.6348-64.5508L75.6348-5.9082Q75.6348-4.3457 74.8291-3.75977Q74.0234-3.17383 73.3398-3.17383Z"/>
  </g>
  <g id="Ultralight-M" transform="matrix(1 0 0 1 515.204 1126)">
   <path d="M13.6719 1.95312Q14.1602 1.95312 14.502 1.58691Q14.8438 1.2207 14.8438 0.732422L14.8438-71.1426Q14.8438-71.6309 14.502-71.9971Q14.1602-72.3633 13.6719-72.3633Q13.1836-72.3633 12.8174-71.9971Q12.4512-71.6309 12.4512-71.1426L12.4512 0.732422Q12.4512 1.2207 12.8174 1.58691Q13.1836 1.95312 13.6719 1.95312ZM71.875 0.0488281Q73.6328 0.0488281 75.0977-1.34277Q76.5625-2.73438 76.5625-5.66406L76.5625-64.7949Q76.5625-67.7734 75.0977-69.1406Q73.6328-70.5078 71.875-70.5078Q70.8984-70.5078 69.873-70.0928Q68.8477-69.6777 68.0176-69.1895L17.041-39.209Q15.918-38.5254 15.2588-37.5977Q14.5996-36.6699 14.5996-35.2539Q14.5996-33.8867 15.2832-32.8857Q15.9668-31.8848 17.041-31.2988L68.0176-1.26953Q68.7988-0.78125 69.8486-0.366211Q70.8984 0.0488281 71.875 0.0488281ZM71.7773-2.34375Q71.2891-2.34375 70.752-2.49023Q70.2148-2.63672 69.4336-3.125L18.7012-32.9102Q16.9434-33.9355 16.9434-35.2539Q16.9434-36.4746 18.7012-37.5488L69.4336-67.334Q70.2637-67.8223 70.7764-67.9688Q71.2891-68.1152 71.7773-68.1152Q72.5098-68.1152 73.4131-67.4316Q74.3164-66.748 74.3164-64.9414L74.3164-5.51758Q74.3164-3.66211 73.4131-3.00293Q72.5098-2.34375 71.7773-2.34375Z"/>
  </g>
  <g id="Black-S" transform="matrix(1 0 0 1 2883.74 696)">
   <path d="M18.5547 0Q22.4121 0 24.8779-2.41699Q27.3438-4.83398 27.3438-8.49609L27.3438-61.9629Q27.3438-65.625 24.8779-68.042Q22.4121-70.459 18.5547-70.459Q14.6973-70.459 12.2314-68.042Q9.76562-65.625 9.76562-61.9629L9.76562-8.49609Q9.76562-4.83398 12.2314-2.41699Q14.6973 0 18.5547 0ZM80.3223-1.07422Q84.082-1.07422 86.8164-3.73535Q89.5508-6.39648 89.5508-11.1816L89.5508-59.2285Q89.5508-64.0625 86.8652-66.6992Q84.1797-69.3359 80.4199-69.3359Q78.7109-69.3359 77.0752-68.9453Q75.4395-68.5547 73.8281-67.627L33.6426-44.2383Q30.8105-42.5781 28.9795-40.5518Q27.1484-38.5254 27.1484-35.3027Q27.1484-32.0801 29.0527-29.9072Q30.957-27.7344 33.6426-26.1719L73.8281-2.7832Q75.3906-1.85547 77.0264-1.46484Q78.6621-1.07422 80.3223-1.07422ZM75.4395-17.7734Q75.3418-17.7734 75.2441-17.7979Q75.1465-17.8223 75.0488-17.8711L45.3613-34.9609Q45.2637-35.0586 45.2637-35.2539Q45.2637-35.4492 45.3613-35.498L75.0488-52.5391Q75.1465-52.6367 75.2441-52.6367Q75.3418-52.6367 75.3906-52.6367Q75.5371-52.6367 75.5859-52.5635Q75.6348-52.4902 75.6348-52.3926L75.6348-18.0176Q75.6348-17.9199 75.5859-17.8467Q75.5371-17.7734 75.4395-17.7734Z"/>
  </g>
  <g id="Heavy-S" transform="matrix(1 0 0 1 2589.25 696)">
   <path d="M17.3828-0.732422Q20.7031-0.732422 22.8271-2.83203Q24.9512-4.93164 24.9512-8.10547L24.9512-62.3535Q24.9512-65.5273 22.8271-67.627Q20.7031-69.7266 17.3828-69.7266Q14.0625-69.7266 11.9141-67.627Q9.76562-65.5273 9.76562-62.3535L9.76562-8.10547Q9.76562-4.93164 11.9141-2.83203Q14.0625-0.732422 17.3828-0.732422ZM76.6602-1.9043Q80.127-1.9043 82.6172-4.37012Q85.1074-6.83594 85.1074-11.2793L85.1074-59.1309Q85.1074-63.623 82.6416-66.0645Q80.1758-68.5059 76.709-68.5059Q75.1465-68.5059 73.6328-68.1152Q72.1191-67.7246 70.6055-66.8457L30.7617-43.6035Q28.0273-41.9922 26.3916-40.0635Q24.7559-38.1348 24.7559-35.3027Q24.7559-32.4219 26.4648-30.3955Q28.1738-28.3691 30.7617-26.8555L70.6055-3.56445Q72.0703-2.68555 73.584-2.29492Q75.0977-1.9043 76.6602-1.9043ZM72.4609-16.6016Q72.3633-16.6016 72.2412-16.626Q72.1191-16.6504 71.9727-16.748L40.8691-34.8145Q40.625-34.9609 40.625-35.2539Q40.625-35.498 40.8691-35.6445L71.9727-53.6621Q72.1191-53.7598 72.2412-53.7842Q72.3633-53.8086 72.4121-53.8086Q72.6074-53.8086 72.7051-53.7109Q72.8027-53.6133 72.8027-53.418L72.8027-16.9922Q72.8027-16.7969 72.7051-16.6992Q72.6074-16.6016 72.4609-16.6016Z"/>
  </g>
  <g id="Bold-S" transform="matrix(1 0 0 1 2295.03 696)">
   <path d="M16.0645-1.5625Q18.75-1.5625 20.5322-3.2959Q22.3145-5.0293 22.3145-7.61719L22.3145-62.8418Q22.3145-65.4297 20.5322-67.1631Q18.75-68.8965 16.0645-68.8965Q13.3301-68.8965 11.5479-67.1631Q9.76562-65.4297 9.76562-62.8418L9.76562-7.61719Q9.76562-5.0293 11.5479-3.2959Q13.3301-1.5625 16.0645-1.5625ZM72.5586-2.88086Q75.6836-2.88086 77.9053-5.10254Q80.127-7.32422 80.127-11.4258L80.127-59.0332Q80.127-63.1348 77.9297-65.3564Q75.7324-67.5781 72.6074-67.5781Q71.1426-67.5781 69.7998-67.1875Q68.457-66.7969 66.9922-65.9668L27.4902-42.8711Q24.9512-41.3574 23.5352-39.5508Q22.1191-37.7441 22.1191-35.2539Q22.1191-32.7637 23.584-30.9082Q25.0488-29.0527 27.4902-27.5879L66.9922-4.49219Q68.4082-3.61328 69.7754-3.24707Q71.1426-2.88086 72.5586-2.88086ZM69.1406-15.2832Q68.9941-15.2832 68.8721-15.332Q68.75-15.3809 68.5547-15.4785L35.8887-34.6191Q35.498-34.8633 35.498-35.2539Q35.498-35.5957 35.8887-35.8398L68.5547-54.9316Q68.75-55.0781 68.8721-55.1025Q68.9941-55.127 69.1406-55.127Q69.3848-55.127 69.5312-54.9805Q69.6777-54.834 69.6777-54.5898L69.6777-15.8691Q69.6777-15.5762 69.5312-15.4297Q69.3848-15.2832 69.1406-15.2832Z"/>
  </g>
  <g id="Semibold-S" transform="matrix(1 0 0 1 2000.03 696)">
   <path d="M15.1367-2.09961Q17.4316-2.09961 18.9697-3.58887Q20.5078-5.07812 20.5078-7.27539L20.5078-63.1348Q20.5078-65.332 18.9697-66.8213Q17.4316-68.3105 15.1367-68.3105Q12.8418-68.3105 11.3037-66.8213Q9.76562-65.332 9.76562-63.1348L9.76562-7.27539Q9.76562-5.07812 11.3037-3.58887Q12.8418-2.09961 15.1367-2.09961ZM69.7266-3.51562Q72.6074-3.51562 74.6582-5.59082Q76.709-7.66602 76.709-11.4746L76.709-58.9355Q76.709-62.7441 74.6582-64.8193Q72.6074-66.8945 69.7754-66.8945Q68.4082-66.8945 67.1387-66.5283Q65.8691-66.1621 64.4531-65.332L25.2441-42.334Q22.8027-40.8691 21.5576-39.1602Q20.3125-37.4512 20.3125-35.2539Q20.3125-33.0078 21.582-31.25Q22.8516-29.4922 25.2441-28.125L64.4531-5.07812Q65.8691-4.24805 67.1143-3.88184Q68.3594-3.51562 69.7266-3.51562ZM66.8457-14.3555Q66.6992-14.3555 66.5527-14.4287Q66.4062-14.502 66.2109-14.5996L32.4219-34.4727Q31.9336-34.8145 31.9336-35.2051Q31.9336-35.6445 32.4219-35.9375L66.2109-55.8105Q66.4062-55.957 66.5527-56.0059Q66.6992-56.0547 66.8457-56.0547Q67.0898-56.0547 67.2852-55.8594Q67.4805-55.6641 67.4805-55.3711L67.4805-15.0391Q67.4805-14.7461 67.2852-14.5508Q67.0898-14.3555 66.8457-14.3555Z"/>
  </g>
  <g id="Medium-S" transform="matrix(1 0 0 1 1704.64 696)">
   <path d="M14.4531-2.53906Q16.4062-2.53906 17.749-3.85742Q19.0918-5.17578 19.0918-7.03125L19.0918-63.3789Q19.0918-65.2832 17.749-66.6016Q16.4062-67.9199 14.4531-67.9199Q12.4512-67.9199 11.1084-66.6016Q9.76562-65.2832 9.76562-63.3789L9.76562-7.03125Q9.76562-5.17578 11.1084-3.85742Q12.4512-2.53906 14.4531-2.53906ZM67.5781-4.00391Q70.2637-4.00391 72.168-5.95703Q74.0723-7.91016 74.0723-11.5234L74.0723-58.8867Q74.0723-62.5 72.168-64.4531Q70.2637-66.4062 67.627-66.4062Q66.3086-66.4062 65.1367-66.04Q63.9648-65.6738 62.5977-64.8438L23.5352-41.9434Q21.1914-40.5273 20.0439-38.8916Q18.8965-37.2559 18.8965-35.2051Q18.8965-33.2031 20.0684-31.5186Q21.2402-29.834 23.5352-28.5156L62.5977-5.56641Q63.916-4.73633 65.1123-4.37012Q66.3086-4.00391 67.5781-4.00391ZM65.0879-13.6719Q64.9414-13.6719 64.7705-13.7451Q64.5996-13.8184 64.4043-13.9648L29.834-34.4238Q29.1992-34.7168 29.1992-35.2051Q29.1992-35.6934 29.834-36.0352L64.4043-56.4453Q64.5996-56.5918 64.7705-56.665Q64.9414-56.7383 65.0879-56.7383Q65.4297-56.7383 65.625-56.543Q65.8203-56.3477 65.8203-55.957L65.8203-14.4531Q65.8203-14.0625 65.625-13.8672Q65.4297-13.6719 65.0879-13.6719Z"/>
  </g>
  <g id="Regular-S" transform="matrix(1 0 0 1 1409.61 696)">
   <path d="M13.5254-3.07617Q15.0879-3.07617 16.1865-4.15039Q17.2852-5.22461 17.2852-6.73828L17.2852-63.6719Q17.2852-65.1855 16.1865-66.2598Q15.0879-67.334 13.5254-67.334Q11.9629-67.334 10.8643-66.2598Q9.76562-65.1855 9.76562-63.6719L9.76562-6.73828Q9.76562-5.22461 10.8643-4.15039Q11.9629-3.07617 13.5254-3.07617ZM64.7949-4.63867Q67.2363-4.63867 68.9697-6.44531Q70.7031-8.25195 70.7031-11.6211L70.7031-58.7891Q70.7031-62.1582 68.9697-63.9648Q67.2363-65.7715 64.7949-65.7715Q63.5742-65.7715 62.5-65.4053Q61.4258-65.0391 60.1074-64.2578L21.3379-41.4551Q19.0918-40.0879 18.0908-38.5254Q17.0898-36.9629 17.0898-35.2051Q17.0898-33.4473 18.0908-31.8848Q19.0918-30.3223 21.3379-29.0039L60.1074-6.15234Q61.4258-5.37109 62.5-5.00488Q63.5742-4.63867 64.7949-4.63867ZM62.8418-12.793Q62.6465-12.793 62.4756-12.8662Q62.3047-12.9395 62.0605-13.0859L26.416-34.2773Q25.6836-34.668 25.6836-35.2051Q25.6836-35.7422 26.416-36.1328L62.0605-57.3242Q62.3047-57.4707 62.4756-57.5439Q62.6465-57.6172 62.8418-57.6172Q63.1836-57.6172 63.4277-57.3975Q63.6719-57.1777 63.6719-56.7383L63.6719-13.6719Q63.6719-13.2324 63.4277-13.0127Q63.1836-12.793 62.8418-12.793Z"/>
  </g>
  <g id="Light-S" transform="matrix(1 0 0 1 1114.58 696)">
   <path d="M12.6465-4.00391Q13.8184-4.00391 14.6729-4.83398Q15.5273-5.66406 15.5273-6.83594L15.5273-63.5742Q15.5273-64.7461 14.6729-65.5762Q13.8184-66.4062 12.6465-66.4062Q11.4258-66.4062 10.5957-65.5762Q9.76562-64.7461 9.76562-63.5742L9.76562-6.83594Q9.76562-5.66406 10.5957-4.83398Q11.4258-4.00391 12.6465-4.00391ZM62.1582-5.56641Q64.2578-5.56641 65.7959-7.15332Q67.334-8.74023 67.334-11.7676L67.334-58.6914Q67.334-61.7188 65.7959-63.2812Q64.2578-64.8438 62.1582-64.8438Q61.084-64.8438 60.083-64.502Q59.082-64.1602 58.0078-63.5254L18.8477-40.4785Q17.041-39.3555 16.1865-38.0615Q15.332-36.7676 15.332-35.2051Q15.332-33.6914 16.1865-32.373Q17.041-31.0547 18.8477-29.9805L58.0078-6.93359Q59.082-6.29883 60.083-5.93262Q61.084-5.56641 62.1582-5.56641ZM60.791-11.7676Q60.5469-11.7676 60.2783-11.8408Q60.0098-11.9141 59.668-12.1582L22.7539-34.0332Q21.8262-34.5215 21.8262-35.2051Q21.8262-35.8887 22.7539-36.4258L59.668-58.3008Q60.0586-58.4961 60.3027-58.5938Q60.5469-58.6914 60.791-58.6914Q61.1816-58.6914 61.5723-58.374Q61.9629-58.0566 61.9629-57.2754L61.9629-13.1348Q61.9629-12.4023 61.5723-12.085Q61.1816-11.7676 60.791-11.7676Z"/>
  </g>
  <g id="Thin-S" transform="matrix(1 0 0 1 820.07 696)">
   <path d="M11.4746-5.27344Q12.1582-5.27344 12.6709-5.76172Q13.1836-6.25 13.1836-6.93359L13.1836-63.4766Q13.1836-64.1602 12.6709-64.6484Q12.1582-65.1367 11.4746-65.1367Q10.791-65.1367 10.2783-64.6484Q9.76562-64.1602 9.76562-63.4766L9.76562-6.93359Q9.76562-6.25 10.2783-5.76172Q10.791-5.27344 11.4746-5.27344ZM58.6426-6.78711Q60.3027-6.78711 61.6211-8.05664Q62.9395-9.32617 62.9395-11.9141L62.9395-58.4961Q62.9395-61.084 61.6211-62.3779Q60.3027-63.6719 58.6426-63.6719Q57.7637-63.6719 56.8848-63.3301Q56.0059-62.9883 55.1758-62.5L15.5273-39.209Q14.2578-38.4277 13.623-37.4756Q12.9883-36.5234 12.9883-35.2539Q12.9883-33.9844 13.6475-33.0078Q14.3066-32.0312 15.5273-31.25L55.1758-7.95898Q55.957-7.4707 56.8604-7.12891Q57.7637-6.78711 58.6426-6.78711ZM58.0566-10.4004Q57.7148-10.4004 57.3486-10.498Q56.9824-10.5957 56.4941-10.8887L17.9199-33.6914Q16.6992-34.3262 16.6992-35.2539Q16.6992-36.084 17.9199-36.7676L56.4941-59.5215Q57.0312-59.8633 57.373-59.9609Q57.7148-60.0586 58.0566-60.0586Q58.5938-60.0586 59.1553-59.6191Q59.7168-59.1797 59.7168-58.0566L59.7168-12.4023Q59.7168-11.2793 59.1553-10.8398Q58.5938-10.4004 58.0566-10.4004Z"/>
  </g>
  <g id="Ultralight-S" transform="matrix(1 0 0 1 524.506 696)">
   <path d="M10.8887-5.9082Q11.3281-5.9082 11.6455-6.22559Q11.9629-6.54297 11.9629-7.03125L11.9629-63.3789Q11.9629-63.8672 11.6455-64.1846Q11.3281-64.502 10.8887-64.502Q10.4004-64.502 10.083-64.1846Q9.76562-63.8672 9.76562-63.3789L9.76562-7.03125Q9.76562-6.54297 10.083-6.22559Q10.4004-5.9082 10.8887-5.9082ZM56.8359-7.42188Q58.3008-7.42188 59.4727-8.54492Q60.6445-9.66797 60.6445-12.0117L60.6445-58.4473Q60.6445-60.791 59.4727-61.9141Q58.3008-63.0371 56.8359-63.0371Q56.1035-63.0371 55.2734-62.6953Q54.4434-62.3535 53.7598-62.0117L13.8672-38.5254Q12.8906-37.9395 12.3291-37.1582Q11.7676-36.377 11.7676-35.2539Q11.7676-34.1309 12.3535-33.3252Q12.9395-32.5195 13.8672-31.9336L53.7598-8.44727Q54.3945-8.10547 55.249-7.76367Q56.1035-7.42188 56.8359-7.42188ZM56.6895-9.7168Q56.2988-9.7168 55.8838-9.81445Q55.4688-9.91211 54.8828-10.2539L15.4297-33.4961Q14.0625-34.2285 14.0625-35.2539Q14.0625-36.1816 15.4297-36.9629L54.8828-60.2051Q55.5176-60.5469 55.9082-60.6689Q56.2988-60.791 56.6895-60.791Q57.2266-60.791 57.9102-60.2783Q58.5938-59.7656 58.5938-58.3984L58.5938-12.0605Q58.5938-10.6934 57.9102-10.2051Q57.2266-9.7168 56.6895-9.7168Z"/>
  </g>
 </g>
</svg>
