<?xml version="1.0" encoding="UTF-8"?>
<!--Generator: Apple Native CoreSVG 149-->
<!DOCTYPE svg
PUBLIC "-//W3C//DTD SVG 1.1//EN"
       "http://www.w3.org/Graphics/SVG/1.1/DTD/svg11.dtd">
<svg version="1.1" xmlns="http://www.w3.org/2000/svg" xmlns:xlink="http://www.w3.org/1999/xlink" width="3300" height="2200">
 <!--glyph: "uni1002A2.medium", point size: 100.0, font version: "17.0d9e1", template writer version: "59"-->
 <g id="Notes">
  <rect height="2200" id="artboard" style="fill:white;opacity:1" width="3300" x="0" y="0"/>
  <line style="fill:none;stroke:black;opacity:1;stroke-width:0.5;" x1="263" x2="3036" y1="292" y2="292"/>
  <text style="stroke:none;fill:black;font-family:sans-serif;font-size:13;font-weight:bold;" transform="matrix(1 0 0 1 263 322)">Weight/Scale Variations</text>
  <text style="stroke:none;fill:black;font-family:sans-serif;font-size:13;text-anchor:middle;" transform="matrix(1 0 0 1 559.711 322)">Ultralight</text>
  <text style="stroke:none;fill:black;font-family:sans-serif;font-size:13;text-anchor:middle;" transform="matrix(1 0 0 1 856.422 322)">Thin</text>
  <text style="stroke:none;fill:black;font-family:sans-serif;font-size:13;text-anchor:middle;" transform="matrix(1 0 0 1 1153.13 322)">Light</text>
  <text style="stroke:none;fill:black;font-family:sans-serif;font-size:13;text-anchor:middle;" transform="matrix(1 0 0 1 1449.84 322)">Regular</text>
  <text style="stroke:none;fill:black;font-family:sans-serif;font-size:13;text-anchor:middle;" transform="matrix(1 0 0 1 1746.56 322)">Medium</text>
  <text style="stroke:none;fill:black;font-family:sans-serif;font-size:13;text-anchor:middle;" transform="matrix(1 0 0 1 2043.27 322)">Semibold</text>
  <text style="stroke:none;fill:black;font-family:sans-serif;font-size:13;text-anchor:middle;" transform="matrix(1 0 0 1 2339.98 322)">Bold</text>
  <text style="stroke:none;fill:black;font-family:sans-serif;font-size:13;text-anchor:middle;" transform="matrix(1 0 0 1 2636.69 322)">Heavy</text>
  <text style="stroke:none;fill:black;font-family:sans-serif;font-size:13;text-anchor:middle;" transform="matrix(1 0 0 1 2933.4 322)">Black</text>
  <line style="fill:none;stroke:black;opacity:1;stroke-width:0.5;" x1="263" x2="3036" y1="1903" y2="1903"/>
  <g transform="matrix(1 0 0 1 263 1933)">
   <path d="M9.24805 0.830078Q10.8691 0.830078 12.2949 0.214844Q13.7207-0.400391 14.8096-1.49414Q15.8984-2.58789 16.5186-4.01367Q17.1387-5.43945 17.1387-7.05078Q17.1387-8.66211 16.5186-10.0879Q15.8984-11.5137 14.8047-12.6074Q13.7109-13.7012 12.2852-14.3164Q10.8594-14.9316 9.23828-14.9316Q7.62695-14.9316 6.20117-14.3164Q4.77539-13.7012 3.69141-12.6074Q2.60742-11.5137 1.9873-10.0879Q1.36719-8.66211 1.36719-7.05078Q1.36719-5.43945 1.9873-4.01367Q2.60742-2.58789 3.69629-1.49414Q4.78516-0.400391 6.21094 0.214844Q7.63672 0.830078 9.24805 0.830078ZM9.24805-0.654297Q7.91992-0.654297 6.7627-1.14746Q5.60547-1.64062 4.73145-2.51953Q3.85742-3.39844 3.36426-4.56055Q2.87109-5.72266 2.87109-7.05078Q2.87109-8.37891 3.35938-9.54102Q3.84766-10.7031 4.72168-11.582Q5.5957-12.4609 6.75293-12.9541Q7.91016-13.4473 9.23828-13.4473Q10.5762-13.4473 11.7334-12.9541Q12.8906-12.4609 13.7695-11.582Q14.6484-10.7031 15.1465-9.54102Q15.6445-8.37891 15.6445-7.05078Q15.6445-5.72266 15.1514-4.56055Q14.6582-3.39844 13.7842-2.51953Q12.9102-1.64062 11.748-1.14746Q10.5859-0.654297 9.24805-0.654297ZM5.83984-7.04102Q5.83984-6.71875 6.04492-6.51855Q6.25-6.31836 6.5918-6.31836L8.50586-6.31836L8.50586-4.39453Q8.50586-4.0625 8.70605-3.85742Q8.90625-3.65234 9.22852-3.65234Q9.56055-3.65234 9.76562-3.85742Q9.9707-4.0625 9.9707-4.39453L9.9707-6.31836L11.8945-6.31836Q12.2266-6.31836 12.4316-6.51855Q12.6367-6.71875 12.6367-7.04102Q12.6367-7.37305 12.4316-7.57812Q12.2266-7.7832 11.8945-7.7832L9.9707-7.7832L9.9707-9.69727Q9.9707-10.0391 9.76562-10.2441Q9.56055-10.4492 9.22852-10.4492Q8.90625-10.4492 8.70605-10.2441Q8.50586-10.0391 8.50586-9.69727L8.50586-7.7832L6.5918-7.7832Q6.25-7.7832 6.04492-7.57812Q5.83984-7.37305 5.83984-7.04102Z"/>
  </g>
  <g transform="matrix(1 0 0 1 281.867 1933)">
   <path d="M11.709 2.91016Q13.75 2.91016 15.5518 2.12891Q17.3535 1.34766 18.7305-0.0292969Q20.1074-1.40625 20.8887-3.20801Q21.6699-5.00977 21.6699-7.05078Q21.6699-9.0918 20.8887-10.8936Q20.1074-12.6953 18.7305-14.0723Q17.3535-15.4492 15.5469-16.2305Q13.7402-17.0117 11.6992-17.0117Q9.6582-17.0117 7.85645-16.2305Q6.05469-15.4492 4.68262-14.0723Q3.31055-12.6953 2.5293-10.8936Q1.74805-9.0918 1.74805-7.05078Q1.74805-5.00977 2.5293-3.20801Q3.31055-1.40625 4.6875-0.0292969Q6.06445 1.34766 7.86621 2.12891Q9.66797 2.91016 11.709 2.91016ZM11.709 1.25Q9.98047 1.25 8.47656 0.605469Q6.97266-0.0390625 5.83496-1.17676Q4.69727-2.31445 4.05762-3.81836Q3.41797-5.32227 3.41797-7.05078Q3.41797-8.7793 4.05762-10.2832Q4.69727-11.7871 5.83008-12.9297Q6.96289-14.0723 8.4668-14.7119Q9.9707-15.3516 11.6992-15.3516Q13.4277-15.3516 14.9316-14.7119Q16.4355-14.0723 17.5781-12.9297Q18.7207-11.7871 19.3652-10.2832Q20.0098-8.7793 20.0098-7.05078Q20.0098-5.32227 19.3701-3.81836Q18.7305-2.31445 17.5928-1.17676Q16.4551-0.0390625 14.9463 0.605469Q13.4375 1.25 11.709 1.25ZM7.39258-7.04102Q7.39258-6.68945 7.62695-6.46484Q7.86133-6.24023 8.23242-6.24023L10.8789-6.24023L10.8789-3.57422Q10.8789-3.21289 11.1035-2.9834Q11.3281-2.75391 11.6797-2.75391Q12.0508-2.75391 12.2852-2.9834Q12.5195-3.21289 12.5195-3.57422L12.5195-6.24023L15.1758-6.24023Q15.5371-6.24023 15.7715-6.46484Q16.0059-6.68945 16.0059-7.04102Q16.0059-7.41211 15.7715-7.6416Q15.5371-7.87109 15.1758-7.87109L12.5195-7.87109L12.5195-10.5176Q12.5195-10.8984 12.2852-11.1279Q12.0508-11.3574 11.6797-11.3574Q11.3281-11.3574 11.1035-11.1279Q10.8789-10.8984 10.8789-10.5176L10.8789-7.87109L8.23242-7.87109Q7.85156-7.87109 7.62207-7.6416Q7.39258-7.41211 7.39258-7.04102Z"/>
  </g>
  <g transform="matrix(1 0 0 1 305.646 1933)">
   <path d="M14.9707 5.66406Q17.0605 5.66406 18.96 5.01465Q20.8594 4.36523 22.4512 3.19336Q24.043 2.02148 25.2197 0.429688Q26.3965-1.16211 27.0459-3.06641Q27.6953-4.9707 27.6953-7.05078Q27.6953-9.14062 27.0459-11.04Q26.3965-12.9395 25.2197-14.5312Q24.043-16.123 22.4512-17.2998Q20.8594-18.4766 18.9551-19.126Q17.0508-19.7754 14.9609-19.7754Q12.8711-19.7754 10.9717-19.126Q9.07227-18.4766 7.48535-17.2998Q5.89844-16.123 4.72168-14.5312Q3.54492-12.9395 2.90039-11.04Q2.25586-9.14062 2.25586-7.05078Q2.25586-4.9707 2.90527-3.06641Q3.55469-1.16211 4.72656 0.429688Q5.89844 2.02148 7.49023 3.19336Q9.08203 4.36523 10.9814 5.01465Q12.8809 5.66406 14.9707 5.66406ZM14.9707 3.84766Q13.1641 3.84766 11.5283 3.2959Q9.89258 2.74414 8.53516 1.74805Q7.17773 0.751953 6.17676-0.610352Q5.17578-1.97266 4.62891-3.6084Q4.08203-5.24414 4.08203-7.05078Q4.08203-8.86719 4.62891-10.5029Q5.17578-12.1387 6.17188-13.501Q7.16797-14.8633 8.52539-15.8594Q9.88281-16.8555 11.5186-17.4023Q13.1543-17.9492 14.9609-17.9492Q16.7773-17.9492 18.4131-17.4023Q20.0488-16.8555 21.4111-15.8594Q22.7734-14.8633 23.7695-13.501Q24.7656-12.1387 25.3174-10.5029Q25.8691-8.86719 25.8691-7.05078Q25.8789-5.24414 25.332-3.6084Q24.7852-1.97266 23.7842-0.610352Q22.7832 0.751953 21.4209 1.74805Q20.0586 2.74414 18.4229 3.2959Q16.7871 3.84766 14.9707 3.84766ZM9.45312-7.04102Q9.45312-6.66016 9.71191-6.41113Q9.9707-6.16211 10.3711-6.16211L14.0625-6.16211L14.0625-2.46094Q14.0625-2.06055 14.3115-1.80664Q14.5605-1.55273 14.9414-1.55273Q15.3516-1.55273 15.6055-1.80664Q15.8594-2.06055 15.8594-2.46094L15.8594-6.16211L19.5605-6.16211Q19.9609-6.16211 20.2148-6.41113Q20.4688-6.66016 20.4688-7.04102Q20.4688-7.45117 20.2148-7.70508Q19.9609-7.95898 19.5605-7.95898L15.8594-7.95898L15.8594-11.6504Q15.8594-12.0605 15.6055-12.3145Q15.3516-12.5684 14.9414-12.5684Q14.5605-12.5684 14.3115-12.3096Q14.0625-12.0508 14.0625-11.6504L14.0625-7.95898L10.3711-7.95898Q9.96094-7.95898 9.70703-7.70508Q9.45312-7.45117 9.45312-7.04102Z"/>
  </g>
  <text style="stroke:none;fill:black;font-family:sans-serif;font-size:13;font-weight:bold;" transform="matrix(1 0 0 1 263 1953)">Design Variations</text>
  <text style="stroke:none;fill:black;font-family:sans-serif;font-size:13;" transform="matrix(1 0 0 1 263 1971)">Symbols are supported in up to nine weights and three scales.</text>
  <text style="stroke:none;fill:black;font-family:sans-serif;font-size:13;" transform="matrix(1 0 0 1 263 1989)">For optimal layout with text and other symbols, vertically align</text>
  <text style="stroke:none;fill:black;font-family:sans-serif;font-size:13;" transform="matrix(1 0 0 1 263 2007)">symbols with the adjacent text.</text>
  <line style="fill:none;stroke:#00AEEF;stroke-width:0.5;opacity:1.0;" x1="776" x2="776" y1="1919" y2="1933"/>
  <g transform="matrix(1 0 0 1 776 1933)">
   <path d="M3.31055 0.15625Q3.70117 0.15625 3.91602-0.00976562Q4.13086-0.175781 4.26758-0.585938L5.52734-4.0332L11.2891-4.0332L12.5488-0.585938Q12.6855-0.175781 12.9004-0.00976562Q13.1152 0.15625 13.4961 0.15625Q13.8867 0.15625 14.1162-0.0585938Q14.3457-0.273438 14.3457-0.644531Q14.3457-0.869141 14.2383-1.17188L9.6582-13.3691Q9.48242-13.8184 9.17969-14.043Q8.87695-14.2676 8.4082-14.2676Q7.5-14.2676 7.17773-13.3789L2.59766-1.16211Q2.49023-0.859375 2.49023-0.634766Q2.49023-0.263672 2.70996-0.0537109Q2.92969 0.15625 3.31055 0.15625ZM6.00586-5.51758L8.37891-12.0898L8.42773-12.0898L10.8008-5.51758Z"/>
  </g>
  <line style="fill:none;stroke:#00AEEF;stroke-width:0.5;opacity:1.0;" x1="793.197" x2="793.197" y1="1919" y2="1933"/>
  <text style="stroke:none;fill:black;font-family:sans-serif;font-size:13;font-weight:bold;" transform="matrix(1 0 0 1 776 1953)">Margins</text>
  <text style="stroke:none;fill:black;font-family:sans-serif;font-size:13;" transform="matrix(1 0 0 1 776 1971)">Leading and trailing margins on the left and right side of each symbol</text>
  <text style="stroke:none;fill:black;font-family:sans-serif;font-size:13;" transform="matrix(1 0 0 1 776 1989)">can be adjusted by modifying the x-location of the margin guidelines.</text>
  <text style="stroke:none;fill:black;font-family:sans-serif;font-size:13;" transform="matrix(1 0 0 1 776 2007)">Modifications are automatically applied proportionally to all</text>
  <text style="stroke:none;fill:black;font-family:sans-serif;font-size:13;" transform="matrix(1 0 0 1 776 2025)">scales and weights.</text>
  <g transform="matrix(1 0 0 1 1289 1933)">
   <path d="M2.8418 1.86523L4.54102 3.57422Q5.18555 4.22852 5.90332 4.17969Q6.62109 4.13086 7.31445 3.35938L18.0078-8.42773L17.041-9.4043L6.42578 2.27539Q6.16211 2.57812 5.89355 2.61719Q5.625 2.65625 5.27344 2.30469L4.10156 1.14258Q3.75 0.791016 3.79395 0.522461Q3.83789 0.253906 4.14062-0.0195312L15.6152-10.8203L14.6387-11.7871L3.04688-0.898438Q2.30469-0.214844 2.25098 0.498047Q2.19727 1.21094 2.8418 1.86523ZM9.25781-16.3281Q8.94531-16.0254 8.90625-15.6348Q8.86719-15.2441 9.04297-14.9512Q9.21875-14.6777 9.55566-14.541Q9.89258-14.4043 10.3809-14.5215Q11.4746-14.7754 12.5977-14.7314Q13.7207-14.6875 14.7949-13.9844L14.209-12.5293Q13.9551-11.9043 14.0674-11.4404Q14.1797-10.9766 14.5801-10.5664L16.875-8.25195Q17.2363-7.88086 17.5781-7.82227Q17.9199-7.76367 18.3398-7.8418L19.4043-8.03711L20.0684-7.36328L20.0293-6.80664Q20-6.43555 20.1221-6.12305Q20.2441-5.81055 20.6055-5.44922L21.3672-4.70703Q21.7285-4.3457 22.1533-4.33105Q22.5781-4.31641 22.9297-4.66797L25.8398-7.58789Q26.1914-7.93945 26.1816-8.35449Q26.1719-8.76953 25.8105-9.13086L25.0391-9.89258Q24.6875-10.2539 24.3799-10.3857Q24.0723-10.5176 23.7109-10.4883L23.1348-10.4395L22.4902-11.0742L22.7344-12.1973Q22.832-12.6172 22.6953-12.9834Q22.5586-13.3496 22.1191-13.7891L19.9219-15.9766Q18.6719-17.2168 17.2607-17.8369Q15.8496-18.457 14.4189-18.4814Q12.9883-18.5059 11.665-17.959Q10.3418-17.4121 9.25781-16.3281ZM10.752-15.957Q11.6602-16.6211 12.7002-16.9043Q13.7402-17.1875 14.8047-17.085Q15.8691-16.9824 16.8701-16.5137Q17.8711-16.0449 18.7012-15.2051L21.1328-12.793Q21.3086-12.6172 21.3525-12.4512Q21.3965-12.2852 21.3379-12.0312L21.0156-10.5469L22.5195-9.0625L23.5059-9.12109Q23.6914-9.13086 23.7891-9.09668Q23.8867-9.0625 24.0332-8.91602L24.6094-8.33984L22.168-5.89844L21.5918-6.47461Q21.4453-6.62109 21.4062-6.71875Q21.3672-6.81641 21.377-7.01172L21.4453-7.98828L19.9512-9.47266L18.4277-9.21875Q18.1836-9.16992 18.042-9.2041Q17.9004-9.23828 17.7148-9.41406L15.7129-11.416Q15.5176-11.5918 15.4932-11.7529Q15.4688-11.9141 15.5859-12.1875L16.4648-14.2773Q15.293-15.3711 13.8281-15.791Q12.3633-16.2109 10.8398-15.7617Q10.7227-15.7324 10.6885-15.8057Q10.6543-15.8789 10.752-15.957Z"/>
  </g>
  <text style="stroke:none;fill:black;font-family:sans-serif;font-size:13;font-weight:bold;" transform="matrix(1 0 0 1 1289 1953)">Exporting</text>
  <text style="stroke:none;fill:black;font-family:sans-serif;font-size:13;" transform="matrix(1 0 0 1 1289 1971)">Symbols should be outlined when exporting to ensure the</text>
  <text style="stroke:none;fill:black;font-family:sans-serif;font-size:13;" transform="matrix(1 0 0 1 1289 1989)">design is preserved when submitting to Xcode.</text>
  <text id="template-version" style="stroke:none;fill:black;font-family:sans-serif;font-size:13;text-anchor:end;" transform="matrix(1 0 0 1 3036 1933)">Template v.2.0</text>
  <text style="stroke:none;fill:black;font-family:sans-serif;font-size:13;text-anchor:end;" transform="matrix(1 0 0 1 3036 1951)">Requires Xcode 13 or greater</text>
  <text id="descriptive-name" style="stroke:none;fill:black;font-family:sans-serif;font-size:13;text-anchor:end;" transform="matrix(1 0 0 1 3036 1969)">Generated from speaker.slash</text>
  <text style="stroke:none;fill:black;font-family:sans-serif;font-size:13;text-anchor:end;" transform="matrix(1 0 0 1 3036 1987)">Typeset at 100 points</text>
  <text style="stroke:none;fill:black;font-family:sans-serif;font-size:13;" transform="matrix(1 0 0 1 263 726)">Small</text>
  <text style="stroke:none;fill:black;font-family:sans-serif;font-size:13;" transform="matrix(1 0 0 1 263 1156)">Medium</text>
  <text style="stroke:none;fill:black;font-family:sans-serif;font-size:13;" transform="matrix(1 0 0 1 263 1586)">Large</text>
 </g>
 <g id="Guides">
  <g id="H-reference" style="fill:#27AAE1;stroke:none;" transform="matrix(1 0 0 1 339 696)">
   <path d="M0.976562 0L3.66211 0L29.3457-67.1387L30.0293-67.1387L30.0293-70.459L28.125-70.459ZM11.6699-24.4629L46.9727-24.4629L46.2402-26.709L12.4512-26.709ZM55.127 0L57.7637 0L30.6152-70.459L29.4434-70.459L29.4434-67.1387Z"/>
  </g>
  <line id="Baseline-S" style="fill:none;stroke:#27AAE1;opacity:1;stroke-width:0.5;" x1="263" x2="3036" y1="696" y2="696"/>
  <line id="Capline-S" style="fill:none;stroke:#27AAE1;opacity:1;stroke-width:0.5;" x1="263" x2="3036" y1="625.541" y2="625.541"/>
  <g id="H-reference" style="fill:#27AAE1;stroke:none;" transform="matrix(1 0 0 1 339 1126)">
   <path d="M0.976562 0L3.66211 0L29.3457-67.1387L30.0293-67.1387L30.0293-70.459L28.125-70.459ZM11.6699-24.4629L46.9727-24.4629L46.2402-26.709L12.4512-26.709ZM55.127 0L57.7637 0L30.6152-70.459L29.4434-70.459L29.4434-67.1387Z"/>
  </g>
  <line id="Baseline-M" style="fill:none;stroke:#27AAE1;opacity:1;stroke-width:0.5;" x1="263" x2="3036" y1="1126" y2="1126"/>
  <line id="Capline-M" style="fill:none;stroke:#27AAE1;opacity:1;stroke-width:0.5;" x1="263" x2="3036" y1="1055.54" y2="1055.54"/>
  <g id="H-reference" style="fill:#27AAE1;stroke:none;" transform="matrix(1 0 0 1 339 1556)">
   <path d="M0.976562 0L3.66211 0L29.3457-67.1387L30.0293-67.1387L30.0293-70.459L28.125-70.459ZM11.6699-24.4629L46.9727-24.4629L46.2402-26.709L12.4512-26.709ZM55.127 0L57.7637 0L30.6152-70.459L29.4434-70.459L29.4434-67.1387Z"/>
  </g>
  <line id="Baseline-L" style="fill:none;stroke:#27AAE1;opacity:1;stroke-width:0.5;" x1="263" x2="3036" y1="1556" y2="1556"/>
  <line id="Capline-L" style="fill:none;stroke:#27AAE1;opacity:1;stroke-width:0.5;" x1="263" x2="3036" y1="1485.54" y2="1485.54"/>
  <line id="left-margin" style="fill:none;stroke:#00AEEF;stroke-width:0.5;opacity:1.0;" x1="1400.21" x2="1400.21" y1="1030.79" y2="1150.12"/>
  <line id="right-margin" style="fill:none;stroke:#00AEEF;stroke-width:0.5;opacity:1.0;" x1="1499.48" x2="1499.48" y1="1030.79" y2="1150.12"/>
 </g>
 <g id="Symbols">
  <g id="Black-L" transform="matrix(1 0 0 1 2862.45 1556)">
   <path d="M39.3066-4.19922L56.543-4.19922Q57.0801-4.19922 57.4707-3.80859L82.5195 18.5547Q85.6934 21.3867 88.3789 22.7051Q91.0645 24.0234 94.3848 24.0234Q97.9004 24.0234 100.659 22.29Q103.418 20.5566 104.736 17.7734L84.3262-2.63672L65.332-20.4102Q64.3066-21.3867 63.2812-21.7529Q62.2559-22.1191 60.791-22.1191L42.4805-22.1191Q41.6016-22.1191 41.0645-22.6562Q40.5273-23.1934 40.5273-24.0723L40.5273-46.4355L25.7812-61.1328Q21.2891-56.543 21.2891-47.3633L21.2891-23.0469Q21.2891-13.8672 25.9033-9.0332Q30.5176-4.19922 39.3066-4.19922ZM105.908-23.3887L105.957-82.6172Q105.957-87.5488 102.637-90.9912Q99.3164-94.4336 94.3359-94.4336Q91.2109-94.4336 88.4766-93.0908Q85.7422-91.748 82.4219-88.7695L60.3027-69.1406L72.7051-56.7871L84.9121-67.9688Q85.1074-68.1641 85.3516-68.2373Q85.5957-68.3105 85.8398-68.3105Q86.7188-68.3105 86.7188-67.334L86.7188-42.6758ZM128.564 28.418Q130.273 30.0293 132.666 30.0537Q135.059 30.0781 136.719 28.418Q138.33 26.709 138.354 24.3408Q138.379 21.9727 136.719 20.2637L18.2129-98.0957Q16.5527-99.8047 14.1357-99.8047Q11.7188-99.8047 10.0098-98.0957Q8.39844-96.4844 8.39844-94.043Q8.39844-91.6016 10.0098-89.9902Z"/>
  </g>
  <g id="Heavy-L" transform="matrix(1 0 0 1 2567.77 1556)">
   <path d="M37.1582-5.66406L54.6875-5.66406Q55.3223-5.66406 55.8105-5.22461L81.7871 17.9688Q84.668 20.5566 87.1338 21.7773Q89.5996 22.998 92.627 22.998Q95.6543 22.998 98.0713 21.5088Q100.488 20.0195 101.709 17.5781L84.5215 0.439453L62.8418-19.5801Q61.8164-20.5566 60.8398-20.8984Q59.8633-21.2402 58.4473-21.2402L39.6973-21.2402Q38.5254-21.2402 37.915-21.8506Q37.3047-22.4609 37.3047-23.584L37.3047-46.8262L24.5117-59.6191Q20.6543-55.4688 20.6543-47.3633L20.6543-22.9492Q20.6543-14.4531 24.8535-10.0586Q29.0527-5.66406 37.1582-5.66406ZM102.93-22.0215L102.979-82.7637Q102.979-87.207 100-90.3076Q97.0215-93.4082 92.5293-93.4082Q89.6973-93.4082 87.207-92.1387Q84.7168-90.8691 81.6895-88.1836L58.0078-67.0898L68.7988-56.25L84.4238-70.5078Q84.6191-70.7031 84.8633-70.8008Q85.1074-70.8984 85.4004-70.8984Q86.2793-70.8984 86.2793-69.9219L86.2793-38.7207ZM124.951 27.8809Q126.562 29.3945 128.784 29.4189Q131.006 29.4434 132.568 27.8809Q134.082 26.3184 134.106 24.0967Q134.131 21.875 132.568 20.2637L17.041-95.1172Q15.4785-96.7285 13.2324-96.7285Q10.9863-96.7285 9.375-95.1172Q7.86133-93.6035 7.86133-91.333Q7.86133-89.0625 9.375-87.5488Z"/>
  </g>
  <g id="Bold-L" transform="matrix(1 0 0 1 2273.33 1556)">
   <path d="M34.8145-7.32422L52.6367-7.32422Q53.418-7.32422 53.9551-6.78711L80.957 17.334Q83.5449 19.6289 85.7422 20.7275Q87.9395 21.8262 90.625 21.8262Q93.1641 21.8262 95.1904 20.6299Q97.2168 19.4336 98.3398 17.3828L84.8145 3.90625L60.1074-18.6523Q59.082-19.5801 58.1543-19.8975Q57.2266-20.2148 55.8594-20.2148L36.5723-20.2148Q35.1562-20.2148 34.4482-20.9229Q33.7402-21.6309 33.7402-23.0469L33.7402-47.2656L23.0957-57.9102Q19.9219-54.2969 19.9219-47.4121L19.9219-22.8516Q19.9219-15.1367 23.7061-11.2305Q27.4902-7.32422 34.8145-7.32422ZM99.6094-20.5078L99.6094-82.959Q99.6094-86.8164 97.0459-89.5508Q94.4824-92.2852 90.5762-92.2852Q87.9883-92.2852 85.8154-91.1133Q83.6426-89.9414 80.9082-87.5L55.4199-64.7461L64.502-55.6641L83.8379-73.3398Q84.082-73.5352 84.3506-73.6816Q84.6191-73.8281 84.9121-73.8281Q85.791-73.8281 85.791-72.8516L85.791-34.3262ZM120.947 27.3438Q122.412 28.7598 124.487 28.7598Q126.562 28.7598 127.979 27.3438Q129.395 25.8789 129.419 23.8281Q129.443 21.7773 127.979 20.3125L15.7715-91.8457Q14.3066-93.3105 12.2314-93.3105Q10.1562-93.3105 8.69141-91.8457Q7.27539-90.4297 7.27539-88.3301Q7.27539-86.2305 8.69141-84.8633Z"/>
  </g>
  <g id="Semibold-L" transform="matrix(1 0 0 1 1978.2 1556)">
   <path d="M33.1543-8.44727L51.2207-8.44727Q52.0508-8.44727 52.6855-7.86133L80.3711 16.8457Q82.7148 18.9453 84.7656 19.9951Q86.8164 21.0449 89.2578 21.0449Q91.4551 21.0449 93.2129 20.0195Q94.9707 18.9941 95.9961 17.1875L84.9609 6.25L58.1543-17.9688Q57.1777-18.9453 56.2988-19.2383Q55.4199-19.5312 54.0527-19.5312L34.375-19.5312Q32.7637-19.5312 32.0068-20.2881Q31.25-21.0449 31.25-22.6562L31.25-47.5586L22.0703-56.7383Q19.4336-53.4668 19.4336-47.4121L19.4336-22.8027Q19.4336-15.5762 22.9004-12.0117Q26.3672-8.44727 33.1543-8.44727ZM97.2656-19.4336L97.3145-83.1055Q97.3145-86.5723 95.0195-89.0137Q92.7246-91.4551 89.1602-91.4551Q86.7676-91.4551 84.8145-90.3564Q82.8613-89.2578 80.3711-87.0605L53.6133-63.1348L61.4746-55.2734L83.4473-75.2441Q83.6914-75.4883 83.96-75.6348Q84.2285-75.7812 84.5703-75.7812Q85.4492-75.7812 85.4492-74.8047L85.4492-31.2988ZM118.164 26.9043Q119.531 28.2715 121.46 28.2715Q123.389 28.2715 124.756 26.9043Q126.123 25.5371 126.123 23.6328Q126.123 21.7285 124.756 20.3125L14.7949-89.5508Q13.4766-90.918 11.5234-90.9424Q9.57031-90.9668 8.1543-89.5508Q6.83594-88.2324 6.83594-86.2549Q6.83594-84.2773 8.1543-82.959Z"/>
  </g>
  <g id="Medium-L" transform="matrix(1 0 0 1 1682.66 1556)">
   <path d="M31.8848-9.32617L50.1465-9.32617Q51.0254-9.32617 51.709-8.69141L79.9805 16.5039Q82.1289 18.457 84.0332 19.4336Q85.9375 20.4102 88.2324 20.4102Q90.1367 20.4102 91.6992 19.5312Q93.2617 18.6523 94.2383 17.0898L85.1074 8.05664L56.7383-17.4805Q55.7617-18.4082 54.8828-18.7012Q54.0039-18.9941 52.6855-18.9941L32.7637-18.9941Q31.0059-18.9941 30.2002-19.8242Q29.3945-20.6543 29.3945-22.4121L29.3945-47.8027L21.3379-55.8594Q19.043-52.8809 19.043-47.4609L19.043-22.7051Q19.043-15.9668 22.2656-12.6465Q25.4883-9.32617 31.8848-9.32617ZM95.5566-18.6035L95.5566-83.1543Q95.5566-86.3281 93.4814-88.5986Q91.4062-90.8691 88.1348-90.8691Q85.8887-90.8691 84.082-89.7949Q82.2754-88.7207 79.9316-86.6699L52.2461-61.9141L59.2285-54.9316L83.1543-76.7578Q83.4473-76.9531 83.6914-77.1484Q83.9355-77.3438 84.3262-77.3438Q85.2051-77.3438 85.2051-76.3672L85.2051-29.0039ZM116.016 26.6113Q117.334 27.9297 119.189 27.9297Q121.045 27.9297 122.314 26.6113Q123.633 25.293 123.633 23.4619Q123.633 21.6309 122.314 20.3613L14.1113-87.793Q12.793-89.1113 10.9375-89.1357Q9.08203-89.1602 7.76367-87.793Q6.49414-86.5723 6.49414-84.6924Q6.49414-82.8125 7.76367-81.543Z"/>
  </g>
  <g id="Regular-L" transform="matrix(1 0 0 1 1387.52 1556)">
   <path d="M30.2734-10.4492L48.7305-10.4492Q49.707-10.4492 50.4395-9.76562L79.3945 16.0645Q81.3477 17.8223 83.0811 18.7256Q84.8145 19.6289 86.8652 19.6289Q88.4277 19.6289 89.7217 18.9453Q91.0156 18.2617 91.9434 16.9434L85.2539 10.4004L54.834-16.8457Q53.8574-17.7734 53.0273-18.042Q52.1973-18.3105 50.8789-18.3105L30.6152-18.3105Q28.6621-18.3105 27.8076-19.1895Q26.9531-20.0684 26.9531-22.0215L26.9531-48.0957L20.3613-54.6875Q18.5547-52.0508 18.5547-47.4609L18.5547-22.6562Q18.5547-16.4062 21.4844-13.4277Q24.4141-10.4492 30.2734-10.4492ZM93.2617-17.5781L93.2617-83.3008Q93.2617-86.084 91.4551-88.0859Q89.6484-90.0879 86.7676-90.0879Q84.7168-90.0879 83.1055-89.0869Q81.4941-88.0859 79.3945-86.2305L50.4883-60.3516L56.25-54.541L82.7637-78.6621Q83.0566-78.9062 83.3252-79.1016Q83.5938-79.2969 83.9844-79.2969Q84.8633-79.2969 84.8633-78.3203L84.8633-25.9766ZM113.281 26.2207Q114.502 27.4414 116.235 27.4414Q117.969 27.4414 119.189 26.2207Q120.41 25 120.41 23.291Q120.41 21.582 119.189 20.3613L13.2324-85.5469Q12.0117-86.7676 10.2783-86.792Q8.54492-86.8164 7.27539-85.5469Q6.10352-84.375 6.10352-82.6172Q6.10352-80.8594 7.27539-79.6875Z"/>
  </g>
  <g id="Light-L" transform="matrix(1 0 0 1 1093.15 1556)">
   <path d="M27.832-11.5723L46.8262-11.5723Q47.998-11.5723 48.877-10.7422L78.4668 15.625Q80.0293 16.9922 81.5186 17.7979Q83.0078 18.6035 84.7656 18.6035Q85.9863 18.6035 86.9873 18.1152Q87.9883 17.627 88.7207 16.6992L82.959 11.1328L52.4414-16.1133Q51.416-17.041 50.4883-17.334Q49.5605-17.627 48.1445-17.627L28.0762-17.627Q25.8789-17.627 24.9756-18.5791Q24.0723-19.5312 24.0723-21.6797L24.0723-47.9492L18.7988-53.2227Q17.627-51.2695 17.627-47.9004L17.627-22.0703Q17.627-16.6992 20.166-14.1357Q22.7051-11.5723 27.832-11.5723ZM90.1855-15.7227L90.1855-83.252Q90.1855-85.6445 88.6963-87.3779Q87.207-89.1113 84.7168-89.1113Q82.9102-89.1113 81.5186-88.2324Q80.127-87.3535 78.4668-85.8887L47.7539-58.1543L52.1973-53.6621L81.3477-80.2734Q81.6895-80.5664 81.9824-80.7861Q82.2754-81.0059 82.7637-81.0059Q83.6914-81.0059 83.6914-79.9805L83.6914-22.2168ZM109.619 25.1953Q110.547 26.1719 111.89 26.1719Q113.232 26.1719 114.16 25.1953Q115.137 24.2676 115.112 22.9492Q115.088 21.6309 114.16 20.6543L10.8887-82.6172Q9.96094-83.4961 8.61816-83.5449Q7.27539-83.5938 6.25-82.6172Q5.37109-81.6895 5.37109-80.3223Q5.37109-78.9551 6.25-78.0762Z"/>
  </g>
  <g id="Thin-L" transform="matrix(1 0 0 1 799.537 1556)">
   <path d="M24.6582-13.0371L44.3359-13.0371Q45.752-13.0371 46.7773-12.1094L77.2949 14.9902Q78.3203 15.918 79.4678 16.5527Q80.6152 17.1875 81.9824 17.1875Q82.7148 17.1875 83.3252 16.9678Q83.9355 16.748 84.4727 16.3574L79.8828 12.1582L49.2676-15.0879Q48.1934-16.0645 47.1191-16.4062Q46.0449-16.748 44.5312-16.748L24.707-16.748Q22.2168-16.748 21.2646-17.749Q20.3125-18.75 20.3125-21.2402L20.3125-47.8027L16.7969-51.3184Q16.4062-50.1953 16.4062-48.4863L16.4062-21.3379Q16.4062-17.041 18.4326-15.0391Q20.459-13.0371 24.6582-13.0371ZM86.084-13.3301L86.084-83.252Q86.084-85.1074 85.0098-86.4502Q83.9355-87.793 81.9336-87.793Q80.5664-87.793 79.4434-87.085Q78.3203-86.377 77.2949-85.498L44.1406-55.2734L46.875-52.5391L79.4434-82.373Q79.8828-82.7148 80.2246-83.0078Q80.5664-83.3008 81.1035-83.3008Q82.1777-83.3008 82.1777-82.1289L82.1777-17.2363ZM104.785 23.877Q105.322 24.4629 106.152 24.4629Q106.982 24.4629 107.568 23.877Q108.203 23.2422 108.179 22.4365Q108.154 21.6309 107.568 21.0449L7.76367-78.7109Q7.27539-79.1992 6.44531-79.2725Q5.61523-79.3457 4.98047-78.7109Q4.39453-78.125 4.39453-77.2949Q4.39453-76.4648 4.98047-75.8789Z"/>
  </g>
  <g id="Ultralight-L" transform="matrix(1 0 0 1 504.413 1556)">
   <path d="M22.998-13.7695L43.0664-13.7695Q44.5801-13.7695 45.7031-12.7441L76.6602 14.6973Q77.4414 15.3809 78.3936 15.9424Q79.3457 16.5039 80.5664 16.5039Q81.0547 16.5039 81.4697 16.4062Q81.8848 16.3086 82.2754 16.2109L78.3203 12.6465L47.6074-14.5996Q46.5332-15.5273 45.3857-15.918Q44.2383-16.3086 42.7246-16.3086L22.998-16.3086Q20.3613-16.3086 19.3604-17.3584Q18.3594-18.4082 18.3594-21.0449L18.3594-47.7051L15.7227-50.3418Q15.7715-49.6582 15.7715-48.7793L15.7715-20.9473Q15.7715-17.2363 17.5537-15.5029Q19.3359-13.7695 22.998-13.7695ZM83.9844-12.0605L83.9844-83.2031Q83.9844-84.8145 83.1299-85.9863Q82.2754-87.1582 80.5664-87.1582Q79.3457-87.1582 78.3691-86.5234Q77.3926-85.8887 76.6602-85.2539L42.2852-53.7598L44.1406-51.9531L78.5156-83.4961Q78.9551-83.8379 79.3213-84.1553Q79.6875-84.4727 80.2734-84.4727Q81.3965-84.4727 81.3965-83.252L81.3965-14.6484ZM102.295 23.1934Q102.637 23.584 103.223 23.584Q103.809 23.584 104.15 23.1934Q104.639 22.7539 104.59 22.2168Q104.541 21.6797 104.15 21.2891L6.20117-76.709Q5.85938-77.002 5.32227-77.0752Q4.78516-77.1484 4.29688-76.709Q3.90625-76.2695 3.90625-75.7324Q3.90625-75.1953 4.29688-74.8047Z"/>
  </g>
  <g id="Black-M" transform="matrix(1 0 0 1 2877.47 1126)">
   <path d="M31.4453-10.3027L44.7754-10.3027Q45.166-10.3027 45.4102-10.0098L64.3066 6.78711Q66.8457 9.08203 69.043 10.1562Q71.2402 11.2305 73.9258 11.2305Q76.9531 11.2305 79.2969 9.74121Q81.6406 8.25195 82.666 5.95703L64.4043-12.3047L51.9531-24.2188Q51.123-25 50.2441-25.293Q49.3652-25.5859 48.1934-25.5859L34.4727-25.5859Q33.8867-25.5859 33.5205-25.9766Q33.1543-26.3672 33.1543-26.9043L33.1543-43.5547L20.5566-56.1035Q18.7012-54.2969 17.7002-51.4404Q16.6992-48.584 16.6992-44.7266L16.6992-25.6348Q16.6992-18.2617 20.5078-14.2822Q24.3164-10.3027 31.4453-10.3027ZM83.5938-26.6113L83.6426-71.7773Q83.6426-75.9277 80.8594-78.7842Q78.0762-81.6406 73.9258-81.6406Q71.3867-81.6406 69.1162-80.5908Q66.8457-79.541 64.1602-77.1484L47.7539-62.5488L58.3008-52.0996L65.7715-58.9844Q65.918-59.1309 66.0889-59.1797Q66.2598-59.2285 66.4551-59.2285Q67.1875-59.2285 67.1875-58.4473L67.1875-43.1152ZM101.514 14.1602Q102.832 15.4297 104.688 15.4541Q106.543 15.4785 107.812 14.1602Q109.082 12.8906 109.106 11.0352Q109.131 9.17969 107.812 7.91016L14.3555-85.498Q13.0371-86.8164 11.1816-86.8164Q9.32617-86.8164 8.00781-85.498Q6.73828-84.2285 6.73828-82.3486Q6.73828-80.4688 8.00781-79.1992Z"/>
  </g>
  <g id="Heavy-M" transform="matrix(1 0 0 1 2582.25 1126)">
   <path d="M29.8828-11.5234L43.3594-11.5234Q43.8477-11.5234 44.1406-11.1816L63.7695 6.29883Q66.1133 8.44727 68.1396 9.44824Q70.166 10.4492 72.6562 10.4492Q75.293 10.4492 77.3682 9.15527Q79.4434 7.86133 80.4199 5.81055L65.1367-9.47266L50.0488-23.584Q49.2188-24.3164 48.4131-24.585Q47.6074-24.8535 46.4844-24.8535L32.2754-24.8535Q31.4941-24.8535 31.0791-25.293Q30.6641-25.7324 30.6641-26.5137L30.6641-43.9453L19.6289-54.9316Q18.0176-53.2715 17.1387-50.708Q16.2598-48.1445 16.2598-44.6777L16.2598-25.6836Q16.2598-18.7988 19.7754-15.1611Q23.291-11.5234 29.8828-11.5234ZM81.3477-25.6348L81.3965-71.9727Q81.3965-75.6836 78.8818-78.2715Q76.3672-80.8594 72.6074-80.8594Q70.2637-80.8594 68.2129-79.8584Q66.1621-78.8574 63.6719-76.6113L46.0938-60.9863L55.3711-51.7578L65.5762-61.084Q65.7227-61.2793 65.8936-61.3281Q66.0645-61.377 66.3086-61.377Q66.9922-61.377 66.9922-60.6445L66.9922-40.0391ZM98.7793 13.8672Q100 15.1367 101.807 15.1367Q103.613 15.1367 104.834 13.8672Q106.055 12.6465 106.079 10.8643Q106.104 9.08203 104.834 7.86133L13.6719-83.252Q12.4023-84.5215 10.6201-84.5215Q8.83789-84.5215 7.56836-83.252Q6.34766-82.0312 6.34766-80.2246Q6.34766-78.418 7.56836-77.1484Z"/>
  </g>
  <g id="Bold-M" transform="matrix(1 0 0 1 2287.19 1126)">
   <path d="M28.1738-12.8418L41.7969-12.8418Q42.334-12.8418 42.7246-12.5L63.1836 5.81055Q65.332 7.71484 67.1631 8.64258Q68.9941 9.57031 71.2402 9.57031Q73.4375 9.57031 75.1953 8.49609Q76.9531 7.42188 77.8809 5.66406L65.918-6.29883L47.9004-22.8516Q47.1191-23.584 46.3867-23.8281Q45.6543-24.0723 44.6289-24.0723L29.834-24.0723Q28.8574-24.0723 28.3447-24.585Q27.832-25.0977 27.832-26.0254L27.832-44.4336L18.6035-53.6133Q17.2363-52.1484 16.5283-49.8779Q15.8203-47.6074 15.8203-44.6289L15.8203-25.7324Q15.8203-19.3848 18.9697-16.1133Q22.1191-12.8418 28.1738-12.8418ZM78.8086-24.6094L78.8574-72.168Q78.8574-75.4395 76.6602-77.71Q74.4629-79.9805 71.1914-79.9805Q69.043-79.9805 67.2363-79.0283Q65.4297-78.0762 63.0859-76.0254L44.2383-59.2773L52.0996-51.416L65.3809-63.4766Q65.5273-63.6719 65.7227-63.7451Q65.918-63.8184 66.1133-63.8184Q66.7969-63.8184 66.7969-63.0859L66.7969-36.6699ZM95.752 13.5742Q96.9238 14.7949 98.6572 14.7949Q100.391 14.7949 101.514 13.5742Q102.734 12.4023 102.734 10.6934Q102.734 8.98438 101.514 7.8125L12.9883-80.7129Q11.7676-81.9336 10.0586-81.9336Q8.34961-81.9336 7.12891-80.7129Q5.95703-79.541 5.95703-77.8076Q5.95703-76.0742 7.12891-74.9023Z"/>
  </g>
  <g id="Semibold-M" transform="matrix(1 0 0 1 1991.63 1126)">
   <path d="M26.9531-13.7695L40.7227-13.7695Q41.3086-13.7695 41.6992-13.3789L62.7441 5.41992Q64.7949 7.22656 66.4795 8.08105Q68.1641 8.93555 70.2148 8.93555Q72.168 8.93555 73.7061 8.03223Q75.2441 7.12891 76.123 5.51758L66.4551-4.10156L46.4355-22.3145Q45.6543-23.0469 44.9707-23.2666Q44.2871-23.4863 43.3105-23.4863L28.125-23.4863Q27.0508-23.4863 26.4648-24.0479Q25.8789-24.6094 25.8789-25.6836L25.8789-44.7266L17.8711-52.6855Q16.6992-51.3184 16.0889-49.292Q15.4785-47.2656 15.4785-44.5801L15.4785-25.7324Q15.4785-19.7754 18.3838-16.7725Q21.2891-13.7695 26.9531-13.7695ZM77.0508-23.8281L77.0996-72.2656Q77.0996-75.2441 75.1221-77.2949Q73.1445-79.3457 70.166-79.3457Q68.1641-79.3457 66.5283-78.4424Q64.8926-77.5391 62.6953-75.6348L42.9199-58.0566L49.8535-51.123L65.1855-65.0879Q65.3809-65.2832 65.5762-65.3809Q65.7715-65.4785 65.9668-65.4785Q66.6504-65.4785 66.6504-64.7461L66.6504-34.2773ZM93.6035 13.3789Q94.7754 14.5508 96.4355 14.5508Q98.0957 14.5508 99.2188 13.3789Q100.391 12.207 100.391 10.5713Q100.391 8.93555 99.2188 7.76367L12.5-78.9551Q11.2793-80.127 9.64355-80.1514Q8.00781-80.1758 6.78711-78.9551Q5.66406-77.832 5.66406-76.1475Q5.66406-74.4629 6.78711-73.3398Z"/>
  </g>
  <g id="Medium-M" transform="matrix(1 0 0 1 1695.8 1126)">
   <path d="M26.0254-14.4531L39.8926-14.4531Q40.5273-14.4531 40.9668-14.0625L62.4023 5.12695Q64.3555 6.83594 65.9668 7.6416Q67.5781 8.44727 69.4824 8.44727Q71.1914 8.44727 72.583 7.66602Q73.9746 6.88477 74.8047 5.41992L66.8945-2.44141L45.3125-21.9238Q44.5801-22.6562 43.9209-22.8516Q43.2617-23.0469 42.2852-23.0469L26.8555-23.0469Q25.6348-23.0469 25.0244-23.6572Q24.4141-24.2676 24.4141-25.4395L24.4141-44.9707L17.334-52.002Q16.3086-50.7324 15.7715-48.8525Q15.2344-46.9727 15.2344-44.5312L15.2344-25.7324Q15.2344-20.1172 17.9443-17.2852Q20.6543-14.4531 26.0254-14.4531ZM75.7324-23.291L75.7324-72.3633Q75.7324-75.0977 73.9502-76.9775Q72.168-78.8574 69.3848-78.8574Q67.4805-78.8574 65.9912-78.0029Q64.502-77.1484 62.4023-75.293L41.9434-57.1289L48.1445-50.9277L65.0879-66.3574Q65.2832-66.5527 65.4785-66.626Q65.6738-66.6992 65.918-66.6992Q66.5527-66.6992 66.5527-66.0156L66.5527-32.5195ZM92.041 13.1836Q93.1641 14.3555 94.7998 14.3555Q96.4355 14.3555 97.5098 13.1836Q98.6328 12.0605 98.6328 10.4492Q98.6328 8.83789 97.5098 7.71484L12.1094-77.6367Q10.9863-78.7598 9.35059-78.7842Q7.71484-78.8086 6.5918-77.6367Q5.46875-76.5625 5.46875-74.9023Q5.46875-73.2422 6.5918-72.168Z"/>
  </g>
  <g id="Regular-M" transform="matrix(1 0 0 1 1400.21 1126)">
   <path d="M24.8535-15.3809L38.8184-15.3809Q39.502-15.3809 39.9902-14.9414L62.0117 4.78516Q63.8184 6.34766 65.2832 7.10449Q66.748 7.86133 68.5059 7.86133Q69.9219 7.86133 71.0938 7.22656Q72.2656 6.5918 73.0957 5.32227L67.4316-0.292969L43.8477-21.4355Q43.1152-22.1191 42.5293-22.3145Q41.9434-22.5098 41.0156-22.5098L25.1953-22.5098Q23.8281-22.5098 23.1689-23.1445Q22.5098-23.7793 22.5098-25.1465L22.5098-45.2637L16.6504-51.123Q15.7715-49.9512 15.332-48.291Q14.8926-46.6309 14.8926-44.4824L14.8926-25.7812Q14.8926-20.5078 17.3828-17.9443Q19.873-15.3809 24.8535-15.3809ZM74.0234-22.5586L74.0234-72.5098Q74.0234-74.9023 72.4365-76.5869Q70.8496-78.2715 68.4082-78.2715Q66.6504-78.2715 65.3076-77.4414Q63.9648-76.6113 62.0117-74.9023L40.6738-55.957L45.8984-50.6836L64.9414-67.9688Q65.1367-68.1641 65.332-68.2617Q65.5273-68.3594 65.7715-68.3594Q66.4062-68.3594 66.4062-67.6758L66.4062-30.1758ZM89.9414 12.9883Q91.0156 14.1113 92.6025 14.1113Q94.1895 14.1113 95.2148 12.9883Q96.3379 11.8652 96.3379 10.3271Q96.3379 8.78906 95.2148 7.66602L11.6211-75.9277Q10.498-77.002 8.93555-77.0264Q7.37305-77.0508 6.25-75.9277Q5.17578-74.8535 5.17578-73.2666Q5.17578-71.6797 6.25-70.6055Z"/>
  </g>
  <g id="Light-M" transform="matrix(1 0 0 1 1105.6 1126)">
   <path d="M22.6562-16.3574L37.1094-16.3574Q37.9883-16.3574 38.5742-15.8203L61.2305 4.39453Q62.6465 5.61523 63.8916 6.27441Q65.1367 6.93359 66.6016 6.93359Q67.7246 6.93359 68.6279 6.46973Q69.5312 6.00586 70.2148 5.12695L65.332 0.390625L41.6992-20.752Q40.918-21.4355 40.2344-21.6797Q39.5508-21.9238 38.5742-21.9238L22.9004-21.9238Q21.3379-21.9238 20.6543-22.6074Q19.9707-23.291 19.9707-24.8535L19.9707-45.166L15.2832-49.8047Q14.6973-48.9258 14.3799-47.6807Q14.0625-46.4355 14.0625-44.873L14.0625-25.293Q14.0625-20.752 16.2109-18.5547Q18.3594-16.3574 22.6562-16.3574ZM71.2402-20.9473L71.2402-72.4609Q71.2402-74.5117 69.9463-75.9521Q68.6523-77.3926 66.5527-77.3926Q65.0391-77.3926 63.8916-76.6846Q62.7441-75.9766 61.2305-74.6094L38.2324-54.0039L42.2852-49.9023L63.6719-69.3848Q63.916-69.6289 64.1357-69.7754Q64.3555-69.9219 64.6484-69.9219Q65.3809-69.9219 65.3809-69.1406L65.3809-26.8066ZM86.6211 12.0605Q87.4512 12.9395 88.6963 12.9395Q89.9414 12.9395 90.7227 12.0605Q91.6504 11.1816 91.626 10.0098Q91.6016 8.83789 90.7227 7.95898L9.52148-73.291Q8.69141-74.0723 7.4707-74.1211Q6.25-74.1699 5.37109-73.291Q4.54102-72.4121 4.54102-71.1914Q4.54102-69.9707 5.37109-69.1406Z"/>
  </g>
  <g id="Thin-M" transform="matrix(1 0 0 1 811.671 1126)">
   <path d="M19.7754-17.7246L34.8633-17.7246Q35.9375-17.7246 36.7188-16.9922L60.1562 3.85742Q61.084 4.63867 62.0361 5.17578Q62.9883 5.71289 64.1113 5.71289Q64.8438 5.71289 65.3809 5.49316Q65.918 5.27344 66.3574 4.83398L62.5977 1.26953L38.8672-19.873Q38.0371-20.5566 37.2314-20.8252Q36.4258-21.0938 35.3027-21.0938L19.873-21.0938Q18.0176-21.0938 17.2852-21.8506Q16.5527-22.6074 16.5527-24.4629L16.5527-44.9707L13.4277-48.0957Q13.2324-47.5586 13.1104-46.875Q12.9883-46.1914 12.9883-45.3613L12.9883-24.6094Q12.9883-21.0938 14.6729-19.4092Q16.3574-17.7246 19.7754-17.7246ZM67.5781-18.75L67.5781-72.4609Q67.5781-73.9746 66.6748-75.0977Q65.7715-76.2207 64.0625-76.2207Q62.9395-76.2207 62.0361-75.6592Q61.1328-75.0977 60.1562-74.2676L34.9609-51.3672L37.4512-48.877L62.0117-71.2891Q62.3047-71.582 62.5732-71.7773Q62.8418-71.9727 63.1836-71.9727Q64.0137-71.9727 64.0137-71.1426L64.0137-22.3145ZM82.2266 10.8887Q82.7637 11.4258 83.5205 11.4258Q84.2773 11.4258 84.7656 10.8887Q85.3516 10.3027 85.3516 9.57031Q85.3516 8.83789 84.7656 8.34961L6.68945-69.7754Q6.20117-70.2637 5.46875-70.2881Q4.73633-70.3125 4.15039-69.7754Q3.61328-69.2383 3.61328-68.4814Q3.61328-67.7246 4.15039-67.1875Z"/>
  </g>
  <g id="Ultralight-M" transform="matrix(1 0 0 1 516.401 1126)">
   <path d="M18.3105-18.3594L33.7402-18.3594Q34.9121-18.3594 35.791-17.627L59.6191 3.56445Q60.2539 4.10156 61.0596 4.58984Q61.8652 5.07812 62.8418 5.07812Q63.3301 5.07812 63.7207 4.98047Q64.1113 4.88281 64.4043 4.6875L61.1816 1.75781L37.4023-19.3848Q36.5723-20.1172 35.6934-20.4102Q34.8145-20.7031 33.6426-20.7031L18.3594-20.7031Q16.3574-20.7031 15.6006-21.4844Q14.8438-22.2656 14.8438-24.2676L14.8438-44.9219L12.5-47.2168Q12.5-46.875 12.4756-46.46Q12.4512-46.0449 12.4512-45.6055L12.4512-24.2676Q12.4512-21.2402 13.8916-19.7998Q15.332-18.3594 18.3105-18.3594ZM65.7227-17.6758L65.7227-72.4121Q65.7227-73.7305 64.9902-74.6826Q64.2578-75.6348 62.8418-75.6348Q61.8652-75.6348 61.084-75.1465Q60.3027-74.6582 59.6191-74.0723L33.3008-50.0488L35.0098-48.3887L61.1328-72.2656Q61.4746-72.5586 61.7432-72.8027Q62.0117-73.0469 62.4512-73.0469Q63.3301-73.0469 63.3301-72.1191L63.3301-20.0684ZM79.9805 10.2539Q80.3223 10.5957 80.8594 10.5957Q81.3965 10.5957 81.7383 10.2539Q82.1777 9.81445 82.1533 9.35059Q82.1289 8.88672 81.7383 8.54492L5.27344-67.9688Q4.98047-68.2617 4.46777-68.3105Q3.95508-68.3594 3.51562-67.9688Q3.17383-67.5781 3.17383-67.0898Q3.17383-66.6016 3.51562-66.2109Z"/>
  </g>
  <g id="Black-S" transform="matrix(1 0 0 1 2889.26 696)">
   <path d="M25-15.3809L35.4004-15.3809Q35.6934-15.3809 35.8887-15.1855L50.4883-2.19727Q52.5391-0.390625 54.2969 0.488281Q56.0547 1.36719 58.2031 1.36719Q60.6445 1.36719 62.5732 0.146484Q64.502-1.07422 65.2832-2.92969L50.0977-18.1152L41.1621-26.7578Q39.9902-27.8809 38.1348-27.8809L27.5391-27.8809Q27.1484-27.8809 26.8799-28.1738Q26.6113-28.4668 26.6113-28.8086L26.6113-41.6016L16.3086-51.8555Q14.7949-50.4395 13.9893-48.1201Q13.1836-45.8008 13.1836-42.7246L13.1836-27.6855Q13.1836-21.7773 16.2354-18.5791Q19.2871-15.3809 25-15.3809ZM66.0156-28.6621L66.0645-63.8184Q66.0645-67.1875 63.8184-69.4824Q61.5723-71.7773 58.2031-71.7773Q56.2012-71.7773 54.3701-70.9473Q52.5391-70.1172 50.3906-68.2129L37.793-56.9824L46.3379-48.4863L51.5137-53.2715Q51.6113-53.3691 51.7578-53.418Q51.9043-53.4668 52.0508-53.4668Q52.6367-53.4668 52.6367-52.832L52.6367-42.1387ZM80.127 3.51562Q81.1523 4.49219 82.6172 4.5166Q84.082 4.54102 85.0586 3.51562Q86.084 2.49023 86.084 1.0498Q86.084-0.390625 85.0586-1.41602L11.2793-75.1465Q10.2539-76.1719 8.78906-76.1719Q7.32422-76.1719 6.29883-75.1465Q5.32227-74.1699 5.32227-72.6807Q5.32227-71.1914 6.29883-70.2148Z"/>
  </g>
  <g id="Heavy-S" transform="matrix(1 0 0 1 2593.55 696)">
   <path d="M23.9258-16.2598L34.4238-16.2598Q34.7656-16.2598 34.9609-16.0645L50.1465-2.53906Q52.0508-0.830078 53.7109-0.0244141Q55.3711 0.78125 57.373 0.78125Q59.5215 0.78125 61.2305-0.268555Q62.9395-1.31836 63.7207-3.02734L50.9766-15.7715L39.7949-26.2695Q38.7207-27.3438 37.0117-27.3438L25.9766-27.3438Q25.4395-27.3438 25.1221-27.6855Q24.8047-28.0273 24.8047-28.5156L24.8047-41.9922L15.6738-51.0254Q14.3555-49.707 13.6475-47.5586Q12.9395-45.4102 12.9395-42.627L12.9395-27.7832Q12.9395-22.2168 15.7715-19.2383Q18.6035-16.2598 23.9258-16.2598ZM64.4531-28.0762L64.4531-63.9648Q64.4531-67.041 62.4268-69.1162Q60.4004-71.1914 57.3242-71.1914Q55.4199-71.1914 53.7598-70.4102Q52.0996-69.6289 50.0488-67.8223L36.6699-55.9082L44.2871-48.291L51.5137-54.9316Q51.6113-55.0293 51.7578-55.0781Q51.9043-55.127 52.0508-55.127Q52.6367-55.127 52.6367-54.4922L52.6367-39.9414ZM78.2227 3.36914Q79.1992 4.3457 80.6641 4.37012Q82.1289 4.39453 83.1055 3.36914Q84.082 2.39258 84.082 0.952148Q84.082-0.488281 83.1055-1.51367L10.9863-73.5352Q9.96094-74.5605 8.52051-74.5605Q7.08008-74.5605 6.05469-73.5352Q5.07812-72.5586 5.07812-71.0938Q5.07812-69.6289 6.05469-68.6523Z"/>
  </g>
  <g id="Bold-S" transform="matrix(1 0 0 1 2297.94 696)">
   <path d="M22.7539-17.2852L33.3496-17.2852Q33.6914-17.2852 33.9844-17.041L49.7559-2.92969Q51.5625-1.36719 53.0762-0.585938Q54.5898 0.195312 56.3965 0.195312Q58.252 0.195312 59.7412-0.732422Q61.2305-1.66016 62.0117-3.17383L51.9531-13.1836L38.2812-25.7812Q37.3047-26.709 35.7422-26.709L24.2188-26.709Q23.5352-26.709 23.1445-27.0996Q22.7539-27.4902 22.7539-28.1738L22.7539-42.3828L15.0391-50.0977Q13.8672-48.877 13.2568-46.9482Q12.6465-45.0195 12.6465-42.5293L12.6465-27.8809Q12.6465-22.7051 15.2344-19.9951Q17.8223-17.2852 22.7539-17.2852ZM62.6953-27.3926L62.6953-64.1602Q62.6953-66.8457 60.8887-68.7256Q59.082-70.6055 56.3477-70.6055Q54.5898-70.6055 53.1006-69.8242Q51.6113-69.043 49.707-67.334L35.4492-54.7363L42.041-48.1445L51.5137-56.7383Q51.6113-56.8359 51.7578-56.9092Q51.9043-56.9824 52.0508-56.9824Q52.5879-56.9824 52.5879-56.3965L52.5879-37.5488ZM76.0742 3.27148Q77.0996 4.24805 78.54 4.24805Q79.9805 4.24805 80.9082 3.27148Q81.9336 2.24609 81.9336 0.830078Q81.9336-0.585938 80.9082-1.61133L10.6934-71.7773Q9.66797-72.8027 8.25195-72.8027Q6.83594-72.8027 5.81055-71.7773Q4.83398-70.8008 4.83398-69.3604Q4.83398-67.9199 5.81055-66.9434Z"/>
  </g>
  <g id="Semibold-S" transform="matrix(1 0 0 1 2002.01 696)">
   <path d="M21.9238-17.9688L32.5684-17.9688Q32.959-17.9688 33.252-17.7246L49.4629-3.17383Q51.1719-1.70898 52.5879-0.976562Q54.0039-0.244141 55.7617-0.244141Q57.373-0.244141 58.7158-1.0498Q60.0586-1.85547 60.791-3.22266L52.6367-11.377L37.2559-25.3906Q36.2793-26.2695 34.8145-26.2695L22.998-26.2695Q22.168-26.2695 21.7529-26.709Q21.3379-27.1484 21.3379-27.9297L21.3379-42.6758L14.5508-49.4629Q13.4766-48.291 12.9395-46.5088Q12.4023-44.7266 12.4023-42.4316L12.4023-27.9297Q12.4023-22.998 14.8193-20.4834Q17.2363-17.9688 21.9238-17.9688ZM61.4746-26.9531L61.4746-64.2578Q61.4746-66.6992 59.8145-68.4326Q58.1543-70.166 55.6641-70.166Q54.0039-70.166 52.6367-69.4092Q51.2695-68.6523 49.4141-66.9922L34.5703-53.9062L40.4297-47.998L51.5137-58.0078Q51.6113-58.1055 51.7578-58.1787Q51.9043-58.252 52.0508-58.252Q52.5879-58.252 52.5879-57.7148L52.5879-35.8398ZM74.5605 3.125Q75.5859 4.10156 77.002 4.12598Q78.418 4.15039 79.3945 3.125Q80.3711 2.14844 80.3711 0.756836Q80.3711-0.634766 79.3945-1.66016L10.4492-70.5566Q9.42383-71.5332 8.00781-71.5332Q6.5918-71.5332 5.56641-70.5566Q4.63867-69.5801 4.63867-68.1396Q4.63867-66.6992 5.56641-65.7227Z"/>
  </g>
  <g id="Medium-S" transform="matrix(1 0 0 1 1705.88 696)">
   <path d="M21.3379-18.5059L31.9824-18.5059Q32.4219-18.5059 32.7148-18.2129L49.2676-3.41797Q50.8789-1.95312 52.2461-1.26953Q53.6133-0.585938 55.2246-0.585938Q56.7383-0.585938 57.9346-1.29395Q59.1309-2.00195 59.8633-3.27148L53.125-10.0098L36.4258-25.0977Q35.5469-25.9766 34.1797-25.9766L22.0703-25.9766Q21.1914-25.9766 20.7275-26.416Q20.2637-26.8555 20.2637-27.7344L20.2637-42.8711L14.209-48.9746Q13.2324-47.8516 12.7441-46.1914Q12.2559-44.5312 12.2559-42.3828L12.2559-28.0273Q12.2559-23.2422 14.5508-20.874Q16.8457-18.5059 21.3379-18.5059ZM60.5469-26.5625L60.5469-64.3555Q60.5469-66.6504 59.0088-68.2373Q57.4707-69.8242 55.1758-69.8242Q53.5645-69.8242 52.2949-69.0918Q51.0254-68.3594 49.2188-66.748L33.8867-53.2715L39.2578-47.9004L51.5137-58.9355Q51.6113-59.0332 51.7578-59.1064Q51.9043-59.1797 52.0508-59.1797Q52.5391-59.1797 52.5391-58.6914L52.5391-34.5703ZM73.4863 3.07617Q74.4629 4.05273 75.9033 4.05273Q77.3438 4.05273 78.2715 3.07617Q79.248 2.09961 79.248 0.683594Q79.248-0.732422 78.2715-1.70898L10.3516-69.6289Q9.32617-70.6055 7.91016-70.6055Q6.49414-70.6055 5.46875-69.6289Q4.54102-68.6523 4.54102-67.2119Q4.54102-65.7715 5.46875-64.7949Z"/>
  </g>
  <g id="Regular-S" transform="matrix(1 0 0 1 1409.93 696)">
   <path d="M20.5078-19.1895L31.25-19.1895Q31.6895-19.1895 32.0312-18.8965L48.9746-3.66211Q50.5371-2.29492 51.8066-1.66016Q53.0762-1.02539 54.5898-1.02539Q55.8594-1.02539 56.9092-1.61133Q57.959-2.19727 58.6914-3.36914L53.8086-8.20312L35.4004-24.7559Q34.5703-25.5371 33.3008-25.5371L20.8496-25.5371Q19.873-25.5371 19.3848-26.0254Q18.8965-26.5137 18.8965-27.4902L18.8965-43.1641L13.7207-48.3398Q12.8906-47.2656 12.4756-45.752Q12.0605-44.2383 12.0605-42.2852L12.0605-28.0762Q12.0605-23.584 14.1846-21.3867Q16.3086-19.1895 20.5078-19.1895ZM59.3262-26.123L59.3262-64.4531Q59.3262-66.5039 57.959-67.9443Q56.5918-69.3848 54.4922-69.3848Q52.9785-69.3848 51.8311-68.6768Q50.6836-67.9688 48.9746-66.4551L33.0566-52.4414L37.6953-47.7539L51.5137-60.2051Q51.6113-60.3027 51.7578-60.376Q51.9043-60.4492 52.0508-60.4492Q52.5391-60.4492 52.5391-59.9609L52.5391-32.9102ZM72.0215 2.97852Q72.998 3.95508 74.4141 3.95508Q75.8301 3.95508 76.7578 2.97852Q77.7344 2.00195 77.7344 0.610352Q77.7344-0.78125 76.7578-1.75781L10.1074-68.4082Q9.08203-69.3848 7.69043-69.3848Q6.29883-69.3848 5.27344-68.4082Q4.3457-67.4316 4.3457-66.0156Q4.3457-64.5996 5.27344-63.623Z"/>
  </g>
  <g id="Light-S" transform="matrix(1 0 0 1 1115.07 696)">
   <path d="M18.6035-20.0684L29.7363-20.0684Q30.3223-20.0684 30.7617-19.6777L48.2422-4.05273Q49.5117-2.92969 50.5859-2.39258Q51.6602-1.85547 52.9297-1.85547Q53.9062-1.85547 54.7119-2.29492Q55.5176-2.73438 56.1035-3.56445L51.9531-7.61719L33.4961-24.1699Q32.5684-25 31.1523-25L18.7988-25Q17.6758-25 17.1631-25.5371Q16.6504-26.0742 16.6504-27.2461L16.6504-43.0664L12.5-47.168Q11.9141-46.3379 11.6211-45.2148Q11.3281-44.0918 11.3281-42.627L11.3281-27.6367Q11.3281-23.7793 13.1348-21.9238Q14.9414-20.0684 18.6035-20.0684ZM56.8848-24.6582L56.8848-64.4043Q56.8848-66.1621 55.7617-67.3828Q54.6387-68.6035 52.8809-68.6035Q51.5625-68.6035 50.5859-67.9932Q49.6094-67.3828 48.2422-66.2109L30.9082-50.6836L34.4727-47.0703L50.3906-61.4746Q50.5371-61.6211 50.708-61.7188Q50.8789-61.8164 51.0742-61.8164Q51.6113-61.8164 51.6113-61.2793L51.6113-29.9316ZM69.0918 2.19727Q69.873 2.92969 70.9717 2.92969Q72.0703 2.92969 72.8027 2.19727Q73.584 1.41602 73.5596 0.341797Q73.5352-0.732422 72.8027-1.51367L8.25195-66.0645Q7.4707-66.7969 6.37207-66.8213Q5.27344-66.8457 4.49219-66.0645Q3.75977-65.2832 3.75977-64.1846Q3.75977-63.0859 4.49219-62.3535Z"/>
  </g>
  <g id="Thin-S" transform="matrix(1 0 0 1 820.827 696)">
   <path d="M16.0645-21.2402L27.7832-21.2402Q28.5645-21.2402 29.1016-20.7031L47.3145-4.54102Q48.1445-3.80859 48.9502-3.36914Q49.7559-2.92969 50.7324-2.92969Q51.3184-2.92969 51.8311-3.14941Q52.3438-3.36914 52.7344-3.80859L49.5117-6.78711L30.957-23.3398Q29.8828-24.3164 28.2715-24.3164L16.1621-24.3164Q14.7461-24.3164 14.1846-24.9023Q13.623-25.4883 13.623-26.9043L13.623-42.9199L10.8887-45.6543Q10.6445-45.166 10.498-44.5068Q10.3516-43.8477 10.3516-43.0664L10.3516-27.002Q10.3516-24.0723 11.7676-22.6562Q13.1836-21.2402 16.0645-21.2402ZM53.6133-22.7539L53.6133-64.4043Q53.6133-65.6738 52.832-66.626Q52.0508-67.5781 50.6836-67.5781Q49.707-67.5781 48.9502-67.1143Q48.1934-66.6504 47.3145-65.8691L28.0273-48.3398L30.2246-46.1426L48.877-63.1348Q49.1211-63.3301 49.3164-63.501Q49.5117-63.6719 49.8047-63.6719Q50.4395-63.6719 50.4395-62.9883L50.4395-25.9766ZM65.2832 1.12305Q65.7227 1.61133 66.4062 1.61133Q67.0898 1.61133 67.5781 1.12305Q68.0664 0.585938 68.0664-0.0732422Q68.0664-0.732422 67.5781-1.17188L5.81055-62.9395Q5.32227-63.4277 4.66309-63.4277Q4.00391-63.4277 3.51562-62.9395Q3.02734-62.4512 3.02734-61.792Q3.02734-61.1328 3.51562-60.6445Z"/>
  </g>
  <g id="Ultralight-S" transform="matrix(1 0 0 1 525.385 696)">
   <path d="M14.7461-21.8262L26.7578-21.8262Q27.6367-21.8262 28.2715-21.2402L46.8262-4.78516Q47.4609-4.24805 48.1201-3.85742Q48.7793-3.4668 49.6094-3.4668Q50-3.4668 50.3418-3.61328Q50.6836-3.75977 50.9766-3.90625L48.291-6.39648L29.6875-22.9492Q28.5156-23.9258 26.8066-23.9258L14.7461-23.9258Q13.2324-23.9258 12.6709-24.5605Q12.1094-25.1953 12.1094-26.709L12.1094-42.8223L10.0586-44.8242Q9.96094-44.5312 9.91211-44.1406Q9.86328-43.75 9.86328-43.2617L9.86328-26.709Q9.86328-24.2188 11.0596-23.0225Q12.2559-21.8262 14.7461-21.8262ZM51.9531-21.7773L51.9531-64.3555Q51.9531-65.4785 51.3428-66.2842Q50.7324-67.0898 49.6094-67.0898Q48.7793-67.0898 48.1201-66.6748Q47.4609-66.2598 46.8262-65.7227L26.5625-47.168L28.0762-45.6543L48.0957-64.0137Q48.3887-64.209 48.6084-64.4043Q48.8281-64.5996 49.1211-64.5996Q49.8047-64.5996 49.8047-63.8672L49.8047-23.9746ZM63.3301 0.585938Q63.623 0.927734 64.0869 0.927734Q64.5508 0.927734 64.8926 0.585938Q65.2832 0.195312 65.2588-0.244141Q65.2344-0.683594 64.8926-1.02539L4.54102-61.377Q4.24805-61.6699 3.78418-61.6943Q3.32031-61.7188 2.97852-61.377Q2.63672-61.0352 2.63672-60.5713Q2.63672-60.1074 2.97852-59.7656Z"/>
  </g>
 </g>
</svg>
