<?xml version="1.0" encoding="UTF-8"?>
<!--Generator: Apple Native CoreSVG 149-->
<!DOCTYPE svg
PUBLIC "-//W3C//DTD SVG 1.1//EN"
       "http://www.w3.org/Graphics/SVG/1.1/DTD/svg11.dtd">
<svg version="1.1" xmlns="http://www.w3.org/2000/svg" xmlns:xlink="http://www.w3.org/1999/xlink" width="3300" height="2200">
 <!--glyph: "uni1004A0.medium", point size: 100.0, font version: "17.0d9e1", template writer version: "59"-->
 <g id="Notes">
  <rect height="2200" id="artboard" style="fill:white;opacity:1" width="3300" x="0" y="0"/>
  <line style="fill:none;stroke:black;opacity:1;stroke-width:0.5;" x1="263" x2="3036" y1="292" y2="292"/>
  <text style="stroke:none;fill:black;font-family:sans-serif;font-size:13;font-weight:bold;" transform="matrix(1 0 0 1 263 322)">Weight/Scale Variations</text>
  <text style="stroke:none;fill:black;font-family:sans-serif;font-size:13;text-anchor:middle;" transform="matrix(1 0 0 1 559.711 322)">Ultralight</text>
  <text style="stroke:none;fill:black;font-family:sans-serif;font-size:13;text-anchor:middle;" transform="matrix(1 0 0 1 856.422 322)">Thin</text>
  <text style="stroke:none;fill:black;font-family:sans-serif;font-size:13;text-anchor:middle;" transform="matrix(1 0 0 1 1153.13 322)">Light</text>
  <text style="stroke:none;fill:black;font-family:sans-serif;font-size:13;text-anchor:middle;" transform="matrix(1 0 0 1 1449.84 322)">Regular</text>
  <text style="stroke:none;fill:black;font-family:sans-serif;font-size:13;text-anchor:middle;" transform="matrix(1 0 0 1 1746.56 322)">Medium</text>
  <text style="stroke:none;fill:black;font-family:sans-serif;font-size:13;text-anchor:middle;" transform="matrix(1 0 0 1 2043.27 322)">Semibold</text>
  <text style="stroke:none;fill:black;font-family:sans-serif;font-size:13;text-anchor:middle;" transform="matrix(1 0 0 1 2339.98 322)">Bold</text>
  <text style="stroke:none;fill:black;font-family:sans-serif;font-size:13;text-anchor:middle;" transform="matrix(1 0 0 1 2636.69 322)">Heavy</text>
  <text style="stroke:none;fill:black;font-family:sans-serif;font-size:13;text-anchor:middle;" transform="matrix(1 0 0 1 2933.4 322)">Black</text>
  <line style="fill:none;stroke:black;opacity:1;stroke-width:0.5;" x1="263" x2="3036" y1="1903" y2="1903"/>
  <g transform="matrix(1 0 0 1 263 1933)">
   <path d="M9.24805 0.830078Q10.8691 0.830078 12.2949 0.214844Q13.7207-0.400391 14.8096-1.49414Q15.8984-2.58789 16.5186-4.01367Q17.1387-5.43945 17.1387-7.05078Q17.1387-8.66211 16.5186-10.0879Q15.8984-11.5137 14.8047-12.6074Q13.7109-13.7012 12.2852-14.3164Q10.8594-14.9316 9.23828-14.9316Q7.62695-14.9316 6.20117-14.3164Q4.77539-13.7012 3.69141-12.6074Q2.60742-11.5137 1.9873-10.0879Q1.36719-8.66211 1.36719-7.05078Q1.36719-5.43945 1.9873-4.01367Q2.60742-2.58789 3.69629-1.49414Q4.78516-0.400391 6.21094 0.214844Q7.63672 0.830078 9.24805 0.830078ZM9.24805-0.654297Q7.91992-0.654297 6.7627-1.14746Q5.60547-1.64062 4.73145-2.51953Q3.85742-3.39844 3.36426-4.56055Q2.87109-5.72266 2.87109-7.05078Q2.87109-8.37891 3.35938-9.54102Q3.84766-10.7031 4.72168-11.582Q5.5957-12.4609 6.75293-12.9541Q7.91016-13.4473 9.23828-13.4473Q10.5762-13.4473 11.7334-12.9541Q12.8906-12.4609 13.7695-11.582Q14.6484-10.7031 15.1465-9.54102Q15.6445-8.37891 15.6445-7.05078Q15.6445-5.72266 15.1514-4.56055Q14.6582-3.39844 13.7842-2.51953Q12.9102-1.64062 11.748-1.14746Q10.5859-0.654297 9.24805-0.654297ZM5.83984-7.04102Q5.83984-6.71875 6.04492-6.51855Q6.25-6.31836 6.5918-6.31836L8.50586-6.31836L8.50586-4.39453Q8.50586-4.0625 8.70605-3.85742Q8.90625-3.65234 9.22852-3.65234Q9.56055-3.65234 9.76562-3.85742Q9.9707-4.0625 9.9707-4.39453L9.9707-6.31836L11.8945-6.31836Q12.2266-6.31836 12.4316-6.51855Q12.6367-6.71875 12.6367-7.04102Q12.6367-7.37305 12.4316-7.57812Q12.2266-7.7832 11.8945-7.7832L9.9707-7.7832L9.9707-9.69727Q9.9707-10.0391 9.76562-10.2441Q9.56055-10.4492 9.22852-10.4492Q8.90625-10.4492 8.70605-10.2441Q8.50586-10.0391 8.50586-9.69727L8.50586-7.7832L6.5918-7.7832Q6.25-7.7832 6.04492-7.57812Q5.83984-7.37305 5.83984-7.04102Z"/>
  </g>
  <g transform="matrix(1 0 0 1 281.867 1933)">
   <path d="M11.709 2.91016Q13.75 2.91016 15.5518 2.12891Q17.3535 1.34766 18.7305-0.0292969Q20.1074-1.40625 20.8887-3.20801Q21.6699-5.00977 21.6699-7.05078Q21.6699-9.0918 20.8887-10.8936Q20.1074-12.6953 18.7305-14.0723Q17.3535-15.4492 15.5469-16.2305Q13.7402-17.0117 11.6992-17.0117Q9.6582-17.0117 7.85645-16.2305Q6.05469-15.4492 4.68262-14.0723Q3.31055-12.6953 2.5293-10.8936Q1.74805-9.0918 1.74805-7.05078Q1.74805-5.00977 2.5293-3.20801Q3.31055-1.40625 4.6875-0.0292969Q6.06445 1.34766 7.86621 2.12891Q9.66797 2.91016 11.709 2.91016ZM11.709 1.25Q9.98047 1.25 8.47656 0.605469Q6.97266-0.0390625 5.83496-1.17676Q4.69727-2.31445 4.05762-3.81836Q3.41797-5.32227 3.41797-7.05078Q3.41797-8.7793 4.05762-10.2832Q4.69727-11.7871 5.83008-12.9297Q6.96289-14.0723 8.4668-14.7119Q9.9707-15.3516 11.6992-15.3516Q13.4277-15.3516 14.9316-14.7119Q16.4355-14.0723 17.5781-12.9297Q18.7207-11.7871 19.3652-10.2832Q20.0098-8.7793 20.0098-7.05078Q20.0098-5.32227 19.3701-3.81836Q18.7305-2.31445 17.5928-1.17676Q16.4551-0.0390625 14.9463 0.605469Q13.4375 1.25 11.709 1.25ZM7.39258-7.04102Q7.39258-6.68945 7.62695-6.46484Q7.86133-6.24023 8.23242-6.24023L10.8789-6.24023L10.8789-3.57422Q10.8789-3.21289 11.1035-2.9834Q11.3281-2.75391 11.6797-2.75391Q12.0508-2.75391 12.2852-2.9834Q12.5195-3.21289 12.5195-3.57422L12.5195-6.24023L15.1758-6.24023Q15.5371-6.24023 15.7715-6.46484Q16.0059-6.68945 16.0059-7.04102Q16.0059-7.41211 15.7715-7.6416Q15.5371-7.87109 15.1758-7.87109L12.5195-7.87109L12.5195-10.5176Q12.5195-10.8984 12.2852-11.1279Q12.0508-11.3574 11.6797-11.3574Q11.3281-11.3574 11.1035-11.1279Q10.8789-10.8984 10.8789-10.5176L10.8789-7.87109L8.23242-7.87109Q7.85156-7.87109 7.62207-7.6416Q7.39258-7.41211 7.39258-7.04102Z"/>
  </g>
  <g transform="matrix(1 0 0 1 305.646 1933)">
   <path d="M14.9707 5.66406Q17.0605 5.66406 18.96 5.01465Q20.8594 4.36523 22.4512 3.19336Q24.043 2.02148 25.2197 0.429688Q26.3965-1.16211 27.0459-3.06641Q27.6953-4.9707 27.6953-7.05078Q27.6953-9.14062 27.0459-11.04Q26.3965-12.9395 25.2197-14.5312Q24.043-16.123 22.4512-17.2998Q20.8594-18.4766 18.9551-19.126Q17.0508-19.7754 14.9609-19.7754Q12.8711-19.7754 10.9717-19.126Q9.07227-18.4766 7.48535-17.2998Q5.89844-16.123 4.72168-14.5312Q3.54492-12.9395 2.90039-11.04Q2.25586-9.14062 2.25586-7.05078Q2.25586-4.9707 2.90527-3.06641Q3.55469-1.16211 4.72656 0.429688Q5.89844 2.02148 7.49023 3.19336Q9.08203 4.36523 10.9814 5.01465Q12.8809 5.66406 14.9707 5.66406ZM14.9707 3.84766Q13.1641 3.84766 11.5283 3.2959Q9.89258 2.74414 8.53516 1.74805Q7.17773 0.751953 6.17676-0.610352Q5.17578-1.97266 4.62891-3.6084Q4.08203-5.24414 4.08203-7.05078Q4.08203-8.86719 4.62891-10.5029Q5.17578-12.1387 6.17188-13.501Q7.16797-14.8633 8.52539-15.8594Q9.88281-16.8555 11.5186-17.4023Q13.1543-17.9492 14.9609-17.9492Q16.7773-17.9492 18.4131-17.4023Q20.0488-16.8555 21.4111-15.8594Q22.7734-14.8633 23.7695-13.501Q24.7656-12.1387 25.3174-10.5029Q25.8691-8.86719 25.8691-7.05078Q25.8789-5.24414 25.332-3.6084Q24.7852-1.97266 23.7842-0.610352Q22.7832 0.751953 21.4209 1.74805Q20.0586 2.74414 18.4229 3.2959Q16.7871 3.84766 14.9707 3.84766ZM9.45312-7.04102Q9.45312-6.66016 9.71191-6.41113Q9.9707-6.16211 10.3711-6.16211L14.0625-6.16211L14.0625-2.46094Q14.0625-2.06055 14.3115-1.80664Q14.5605-1.55273 14.9414-1.55273Q15.3516-1.55273 15.6055-1.80664Q15.8594-2.06055 15.8594-2.46094L15.8594-6.16211L19.5605-6.16211Q19.9609-6.16211 20.2148-6.41113Q20.4688-6.66016 20.4688-7.04102Q20.4688-7.45117 20.2148-7.70508Q19.9609-7.95898 19.5605-7.95898L15.8594-7.95898L15.8594-11.6504Q15.8594-12.0605 15.6055-12.3145Q15.3516-12.5684 14.9414-12.5684Q14.5605-12.5684 14.3115-12.3096Q14.0625-12.0508 14.0625-11.6504L14.0625-7.95898L10.3711-7.95898Q9.96094-7.95898 9.70703-7.70508Q9.45312-7.45117 9.45312-7.04102Z"/>
  </g>
  <text style="stroke:none;fill:black;font-family:sans-serif;font-size:13;font-weight:bold;" transform="matrix(1 0 0 1 263 1953)">Design Variations</text>
  <text style="stroke:none;fill:black;font-family:sans-serif;font-size:13;" transform="matrix(1 0 0 1 263 1971)">Symbols are supported in up to nine weights and three scales.</text>
  <text style="stroke:none;fill:black;font-family:sans-serif;font-size:13;" transform="matrix(1 0 0 1 263 1989)">For optimal layout with text and other symbols, vertically align</text>
  <text style="stroke:none;fill:black;font-family:sans-serif;font-size:13;" transform="matrix(1 0 0 1 263 2007)">symbols with the adjacent text.</text>
  <line style="fill:none;stroke:#00AEEF;stroke-width:0.5;opacity:1.0;" x1="776" x2="776" y1="1919" y2="1933"/>
  <g transform="matrix(1 0 0 1 776 1933)">
   <path d="M3.31055 0.15625Q3.70117 0.15625 3.91602-0.00976562Q4.13086-0.175781 4.26758-0.585938L5.52734-4.0332L11.2891-4.0332L12.5488-0.585938Q12.6855-0.175781 12.9004-0.00976562Q13.1152 0.15625 13.4961 0.15625Q13.8867 0.15625 14.1162-0.0585938Q14.3457-0.273438 14.3457-0.644531Q14.3457-0.869141 14.2383-1.17188L9.6582-13.3691Q9.48242-13.8184 9.17969-14.043Q8.87695-14.2676 8.4082-14.2676Q7.5-14.2676 7.17773-13.3789L2.59766-1.16211Q2.49023-0.859375 2.49023-0.634766Q2.49023-0.263672 2.70996-0.0537109Q2.92969 0.15625 3.31055 0.15625ZM6.00586-5.51758L8.37891-12.0898L8.42773-12.0898L10.8008-5.51758Z"/>
  </g>
  <line style="fill:none;stroke:#00AEEF;stroke-width:0.5;opacity:1.0;" x1="793.197" x2="793.197" y1="1919" y2="1933"/>
  <text style="stroke:none;fill:black;font-family:sans-serif;font-size:13;font-weight:bold;" transform="matrix(1 0 0 1 776 1953)">Margins</text>
  <text style="stroke:none;fill:black;font-family:sans-serif;font-size:13;" transform="matrix(1 0 0 1 776 1971)">Leading and trailing margins on the left and right side of each symbol</text>
  <text style="stroke:none;fill:black;font-family:sans-serif;font-size:13;" transform="matrix(1 0 0 1 776 1989)">can be adjusted by modifying the x-location of the margin guidelines.</text>
  <text style="stroke:none;fill:black;font-family:sans-serif;font-size:13;" transform="matrix(1 0 0 1 776 2007)">Modifications are automatically applied proportionally to all</text>
  <text style="stroke:none;fill:black;font-family:sans-serif;font-size:13;" transform="matrix(1 0 0 1 776 2025)">scales and weights.</text>
  <g transform="matrix(1 0 0 1 1289 1933)">
   <path d="M2.8418 1.86523L4.54102 3.57422Q5.18555 4.22852 5.90332 4.17969Q6.62109 4.13086 7.31445 3.35938L18.0078-8.42773L17.041-9.4043L6.42578 2.27539Q6.16211 2.57812 5.89355 2.61719Q5.625 2.65625 5.27344 2.30469L4.10156 1.14258Q3.75 0.791016 3.79395 0.522461Q3.83789 0.253906 4.14062-0.0195312L15.6152-10.8203L14.6387-11.7871L3.04688-0.898438Q2.30469-0.214844 2.25098 0.498047Q2.19727 1.21094 2.8418 1.86523ZM9.25781-16.3281Q8.94531-16.0254 8.90625-15.6348Q8.86719-15.2441 9.04297-14.9512Q9.21875-14.6777 9.55566-14.541Q9.89258-14.4043 10.3809-14.5215Q11.4746-14.7754 12.5977-14.7314Q13.7207-14.6875 14.7949-13.9844L14.209-12.5293Q13.9551-11.9043 14.0674-11.4404Q14.1797-10.9766 14.5801-10.5664L16.875-8.25195Q17.2363-7.88086 17.5781-7.82227Q17.9199-7.76367 18.3398-7.8418L19.4043-8.03711L20.0684-7.36328L20.0293-6.80664Q20-6.43555 20.1221-6.12305Q20.2441-5.81055 20.6055-5.44922L21.3672-4.70703Q21.7285-4.3457 22.1533-4.33105Q22.5781-4.31641 22.9297-4.66797L25.8398-7.58789Q26.1914-7.93945 26.1816-8.35449Q26.1719-8.76953 25.8105-9.13086L25.0391-9.89258Q24.6875-10.2539 24.3799-10.3857Q24.0723-10.5176 23.7109-10.4883L23.1348-10.4395L22.4902-11.0742L22.7344-12.1973Q22.832-12.6172 22.6953-12.9834Q22.5586-13.3496 22.1191-13.7891L19.9219-15.9766Q18.6719-17.2168 17.2607-17.8369Q15.8496-18.457 14.4189-18.4814Q12.9883-18.5059 11.665-17.959Q10.3418-17.4121 9.25781-16.3281ZM10.752-15.957Q11.6602-16.6211 12.7002-16.9043Q13.7402-17.1875 14.8047-17.085Q15.8691-16.9824 16.8701-16.5137Q17.8711-16.0449 18.7012-15.2051L21.1328-12.793Q21.3086-12.6172 21.3525-12.4512Q21.3965-12.2852 21.3379-12.0312L21.0156-10.5469L22.5195-9.0625L23.5059-9.12109Q23.6914-9.13086 23.7891-9.09668Q23.8867-9.0625 24.0332-8.91602L24.6094-8.33984L22.168-5.89844L21.5918-6.47461Q21.4453-6.62109 21.4062-6.71875Q21.3672-6.81641 21.377-7.01172L21.4453-7.98828L19.9512-9.47266L18.4277-9.21875Q18.1836-9.16992 18.042-9.2041Q17.9004-9.23828 17.7148-9.41406L15.7129-11.416Q15.5176-11.5918 15.4932-11.7529Q15.4688-11.9141 15.5859-12.1875L16.4648-14.2773Q15.293-15.3711 13.8281-15.791Q12.3633-16.2109 10.8398-15.7617Q10.7227-15.7324 10.6885-15.8057Q10.6543-15.8789 10.752-15.957Z"/>
  </g>
  <text style="stroke:none;fill:black;font-family:sans-serif;font-size:13;font-weight:bold;" transform="matrix(1 0 0 1 1289 1953)">Exporting</text>
  <text style="stroke:none;fill:black;font-family:sans-serif;font-size:13;" transform="matrix(1 0 0 1 1289 1971)">Symbols should be outlined when exporting to ensure the</text>
  <text style="stroke:none;fill:black;font-family:sans-serif;font-size:13;" transform="matrix(1 0 0 1 1289 1989)">design is preserved when submitting to Xcode.</text>
  <text id="template-version" style="stroke:none;fill:black;font-family:sans-serif;font-size:13;text-anchor:end;" transform="matrix(1 0 0 1 3036 1933)">Template v.2.0</text>
  <text style="stroke:none;fill:black;font-family:sans-serif;font-size:13;text-anchor:end;" transform="matrix(1 0 0 1 3036 1951)">Requires Xcode 13 or greater</text>
  <text id="descriptive-name" style="stroke:none;fill:black;font-family:sans-serif;font-size:13;text-anchor:end;" transform="matrix(1 0 0 1 3036 1969)">Generated from link.circle</text>
  <text style="stroke:none;fill:black;font-family:sans-serif;font-size:13;text-anchor:end;" transform="matrix(1 0 0 1 3036 1987)">Typeset at 100 points</text>
  <text style="stroke:none;fill:black;font-family:sans-serif;font-size:13;" transform="matrix(1 0 0 1 263 726)">Small</text>
  <text style="stroke:none;fill:black;font-family:sans-serif;font-size:13;" transform="matrix(1 0 0 1 263 1156)">Medium</text>
  <text style="stroke:none;fill:black;font-family:sans-serif;font-size:13;" transform="matrix(1 0 0 1 263 1586)">Large</text>
 </g>
 <g id="Guides">
  <g id="H-reference" style="fill:#27AAE1;stroke:none;" transform="matrix(1 0 0 1 339 696)">
   <path d="M0.976562 0L3.66211 0L29.3457-67.1387L30.0293-67.1387L30.0293-70.459L28.125-70.459ZM11.6699-24.4629L46.9727-24.4629L46.2402-26.709L12.4512-26.709ZM55.127 0L57.7637 0L30.6152-70.459L29.4434-70.459L29.4434-67.1387Z"/>
  </g>
  <line id="Baseline-S" style="fill:none;stroke:#27AAE1;opacity:1;stroke-width:0.5;" x1="263" x2="3036" y1="696" y2="696"/>
  <line id="Capline-S" style="fill:none;stroke:#27AAE1;opacity:1;stroke-width:0.5;" x1="263" x2="3036" y1="625.541" y2="625.541"/>
  <g id="H-reference" style="fill:#27AAE1;stroke:none;" transform="matrix(1 0 0 1 339 1126)">
   <path d="M0.976562 0L3.66211 0L29.3457-67.1387L30.0293-67.1387L30.0293-70.459L28.125-70.459ZM11.6699-24.4629L46.9727-24.4629L46.2402-26.709L12.4512-26.709ZM55.127 0L57.7637 0L30.6152-70.459L29.4434-70.459L29.4434-67.1387Z"/>
  </g>
  <line id="Baseline-M" style="fill:none;stroke:#27AAE1;opacity:1;stroke-width:0.5;" x1="263" x2="3036" y1="1126" y2="1126"/>
  <line id="Capline-M" style="fill:none;stroke:#27AAE1;opacity:1;stroke-width:0.5;" x1="263" x2="3036" y1="1055.54" y2="1055.54"/>
  <g id="H-reference" style="fill:#27AAE1;stroke:none;" transform="matrix(1 0 0 1 339 1556)">
   <path d="M0.976562 0L3.66211 0L29.3457-67.1387L30.0293-67.1387L30.0293-70.459L28.125-70.459ZM11.6699-24.4629L46.9727-24.4629L46.2402-26.709L12.4512-26.709ZM55.127 0L57.7637 0L30.6152-70.459L29.4434-70.459L29.4434-67.1387Z"/>
  </g>
  <line id="Baseline-L" style="fill:none;stroke:#27AAE1;opacity:1;stroke-width:0.5;" x1="263" x2="3036" y1="1556" y2="1556"/>
  <line id="Capline-L" style="fill:none;stroke:#27AAE1;opacity:1;stroke-width:0.5;" x1="263" x2="3036" y1="1485.54" y2="1485.54"/>
  <line id="left-margin" style="fill:none;stroke:#00AEEF;stroke-width:0.5;opacity:1.0;" x1="1391.3" x2="1391.3" y1="1030.79" y2="1150.12"/>
  <line id="right-margin" style="fill:none;stroke:#00AEEF;stroke-width:0.5;opacity:1.0;" x1="1508.39" x2="1508.39" y1="1030.79" y2="1150.12"/>
 </g>
 <g id="Symbols">
  <g id="Black-L" transform="matrix(1 0 0 1 2854.05 1556)">
   <path d="M79.3457 32.8613Q90.5762 32.8613 100.757 29.3945Q110.938 25.9277 119.458 19.6777Q127.979 13.4277 134.229 4.90723Q140.479-3.61328 143.945-13.7939Q147.412-23.9746 147.412-35.2051Q147.412-46.4355 143.945-56.6162Q140.479-66.7969 134.204-75.3174Q127.93-83.8379 119.434-90.1123Q110.938-96.3867 100.732-99.8291Q90.5273-103.271 79.2969-103.271Q68.1152-103.271 57.9102-99.8291Q47.7051-96.3867 39.209-90.1123Q30.7129-83.8379 24.4385-75.3174Q18.1641-66.7969 14.7217-56.6162Q11.2793-46.4355 11.2793-35.2051Q11.2793-23.9746 14.7217-13.7939Q18.1641-3.61328 24.4385 4.90723Q30.7129 13.4277 39.2334 19.6777Q47.7539 25.9277 57.9346 29.3945Q68.1152 32.8613 79.3457 32.8613ZM79.3457 12.4023Q71.4355 12.4023 64.2822 10.0098Q57.1289 7.61719 51.1963 3.24707Q45.2637-1.12305 40.8936-7.08008Q36.5234-13.0371 34.1309-20.166Q31.7383-27.2949 31.7383-35.2051Q31.7383-43.1152 34.1309-50.2686Q36.5234-57.4219 40.8936-63.3545Q45.2637-69.2871 51.1963-73.6572Q57.1289-78.0273 64.2578-80.4199Q71.3867-82.8125 79.2969-82.8125Q87.207-82.8125 94.3604-80.4199Q101.514-78.0273 107.471-73.6572Q113.428-69.2871 117.798-63.3545Q122.168-57.4219 124.561-50.2686Q126.953-43.1152 126.953-35.2051Q126.953-27.2949 124.561-20.166Q122.168-13.0371 117.798-7.08008Q113.428-1.12305 107.495 3.24707Q101.562 7.61719 94.4092 10.0098Q87.2559 12.4023 79.3457 12.4023ZM50.3418-7.08008Q56.3965-0.976562 63.6719-1.58691Q70.9473-2.19727 78.0273-9.13086L84.7168-15.6738Q91.9434-22.6562 92.4316-30.1025Q92.9199-37.5488 86.7676-43.5059Q85.498-44.7266 84.0088-45.8496Q82.5195-46.9727 81.4453-47.6074Q79.7852-46.3379 78.1982-44.3115Q76.6113-42.2852 76.0742-40.8203Q77.1973-40.332 78.6377-39.4043Q80.0781-38.4766 80.957-37.6465Q84.2773-34.2773 83.7158-30.0293Q83.1543-25.7812 78.7109-21.3867L72.4609-15.1855Q68.0176-10.8398 63.7939-10.2539Q59.5703-9.66797 56.2012-12.9395Q52.832-16.2598 53.3936-20.5566Q53.9551-24.8535 58.3984-29.248L61.7676-32.5684Q61.1328-33.5449 60.791-35.4736Q60.4492-37.4023 60.4492-39.5752Q60.4492-41.748 60.9375-43.457L52.2949-34.8633Q45.3125-27.832 44.7754-20.5078Q44.2383-13.1836 50.3418-7.08008ZM106.055-63.3789Q99.9512-69.4336 92.7002-68.8477Q85.4492-68.2617 78.3691-61.3281L71.6309-54.7852Q64.4531-47.7539 63.9404-40.332Q63.4277-32.9102 69.6289-26.9531Q70.8496-25.6836 72.3633-24.5605Q73.877-23.4375 74.9512-22.8027Q76.6113-24.1211 78.1982-26.1475Q79.7852-28.1738 80.3223-29.6387Q79.1992-30.0781 77.7344-31.0059Q76.2695-31.9336 75.4395-32.7637Q72.1191-36.1328 72.6562-40.4053Q73.1934-44.6777 77.6855-49.0723L83.8867-55.2246Q88.3789-59.6191 92.5781-60.2051Q96.7773-60.791 100.195-57.4707Q103.516-54.1504 102.979-49.8779Q102.441-45.6055 97.998-41.2109L94.5801-37.8906Q95.2148-36.8652 95.5811-34.9365Q95.9473-33.0078 95.9229-30.8594Q95.8984-28.7109 95.459-27.002L104.053-35.5469Q111.084-42.5781 111.621-49.9268Q112.158-57.2754 106.055-63.3789Z"/>
  </g>
  <g id="Heavy-L" transform="matrix(1 0 0 1 2558.39 1556)">
   <path d="M78.2715 31.7871Q89.3555 31.7871 99.3652 28.3691Q109.375 24.9512 117.749 18.7988Q126.123 12.6465 132.3 4.24805Q138.477-4.15039 141.895-14.1602Q145.312-24.1699 145.312-35.2051Q145.312-46.2402 141.895-56.2744Q138.477-66.3086 132.3-74.6826Q126.123-83.0566 117.749-89.2578Q109.375-95.459 99.3408-98.8525Q89.3066-102.246 78.2227-102.246Q67.2363-102.246 57.2021-98.8525Q47.168-95.459 38.7939-89.2578Q30.4199-83.0566 24.2432-74.6826Q18.0664-66.3086 14.6729-56.2744Q11.2793-46.2402 11.2793-35.2051Q11.2793-24.1699 14.6729-14.1602Q18.0664-4.15039 24.2432 4.24805Q30.4199 12.6465 38.8184 18.7988Q47.2168 24.9512 57.2266 28.3691Q67.2363 31.7871 78.2715 31.7871ZM78.2715 14.0137Q70.1172 14.0137 62.7197 11.5479Q55.3223 9.08203 49.1943 4.56543Q43.0664 0.0488281 38.5498-6.12793Q34.0332-12.3047 31.543-19.6777Q29.0527-27.0508 29.0527-35.2051Q29.0527-43.4082 31.543-50.8057Q34.0332-58.2031 38.5254-64.3311Q43.0176-70.459 49.1699-74.9756Q55.3223-79.4922 62.6953-81.9824Q70.0684-84.4727 78.2227-84.4727Q86.4258-84.4727 93.8232-81.9824Q101.221-79.4922 107.373-74.9756Q113.525-70.459 118.042-64.3311Q122.559-58.2031 125.049-50.8057Q127.539-43.4082 127.539-35.2051Q127.539-27.0508 125.049-19.6777Q122.559-12.3047 118.042-6.12793Q113.525 0.0488281 107.397 4.56543Q101.27 9.08203 93.8721 11.5479Q86.4746 14.0137 78.2715 14.0137ZM48.877-6.78711Q54.834-0.78125 62.0117-1.34277Q69.1895-1.9043 76.1719-8.74023L83.6914-16.1621Q90.7715-23.0469 91.2598-30.3711Q91.748-37.6953 85.6934-43.6035Q84.2773-44.9707 82.7148-46.0693Q81.1523-47.168 79.9805-47.7539Q78.418-46.5332 76.9043-44.6533Q75.3906-42.7734 74.8535-41.3086Q76.2207-40.8691 77.7344-39.9902Q79.248-39.1113 80.2734-38.1348Q83.6914-34.668 83.1543-30.3223Q82.6172-25.9766 78.0762-21.4844L70.9473-14.3555Q66.4551-9.96094 62.1338-9.42383Q57.8125-8.88672 54.3457-12.2559Q50.8789-15.6738 51.3916-20.0684Q51.9043-24.4629 56.3965-28.8574L60.7422-33.2031Q60.1562-34.2285 59.8877-36.0107Q59.6191-37.793 59.6436-39.8193Q59.668-41.8457 60.1562-43.5059L50.7324-34.1309Q43.8965-27.1973 43.3594-19.9951Q42.8223-12.793 48.877-6.78711ZM105.371-63.7207Q99.3652-69.7266 92.2119-69.165Q85.0586-68.6035 78.0762-61.7676L70.5078-54.3457Q63.4277-47.4121 62.9395-40.1123Q62.4512-32.8125 68.5547-26.9043Q69.9219-25.4883 71.5088-24.3896Q73.0957-23.291 74.2676-22.7539Q75.8301-23.9258 77.3438-25.8301Q78.8574-27.7344 79.3945-29.1992Q78.0273-29.5898 76.4893-30.4932Q74.9512-31.3965 73.9746-32.3242Q70.5566-35.791 71.0693-40.1855Q71.582-44.5801 76.123-49.0234L83.252-56.1035Q87.793-60.5469 92.0898-61.084Q96.3867-61.6211 99.9023-58.2031Q103.32-54.7852 102.832-50.415Q102.344-46.0449 97.8027-41.6016L93.457-37.3047Q93.9941-36.2793 94.3115-34.4727Q94.6289-32.666 94.5801-30.6641Q94.5312-28.6621 94.043-27.002L103.467-36.3281Q110.352-43.2617 110.864-50.4883Q111.377-57.7148 105.371-63.7207Z"/>
  </g>
  <g id="Bold-L" transform="matrix(1 0 0 1 2262.85 1556)">
   <path d="M77.0996 30.6152Q87.9395 30.6152 97.7783 27.2461Q107.617 23.877 115.869 17.8223Q124.121 11.7676 130.176 3.51562Q136.23-4.73633 139.6-14.5752Q142.969-24.4141 142.969-35.2539Q142.969-46.0938 139.6-55.9326Q136.23-65.7715 130.151-73.999Q124.072-82.2266 115.845-88.3057Q107.617-94.3848 97.7539-97.7295Q87.8906-101.074 77.0508-101.074Q66.2598-101.074 56.3965-97.7295Q46.5332-94.3848 38.3301-88.3057Q30.127-82.2266 24.0479-73.999Q17.9688-65.7715 14.624-55.9326Q11.2793-46.0938 11.2793-35.2539Q11.2793-24.4141 14.624-14.5752Q17.9688-4.73633 24.0479 3.51562Q30.127 11.7676 38.3545 17.8223Q46.582 23.877 56.4209 27.2461Q66.2598 30.6152 77.0996 30.6152ZM77.0996 15.8203Q68.6523 15.8203 60.9863 13.2568Q53.3203 10.6934 46.9482 6.00586Q40.5762 1.31836 35.8887-5.07812Q31.2012-11.4746 28.6377-19.1162Q26.0742-26.7578 26.0742-35.2539Q26.0742-43.75 28.6377-51.416Q31.2012-59.082 35.8887-65.4541Q40.5762-71.8262 46.9238-76.4893Q53.2715-81.1523 60.9375-83.7158Q68.6035-86.2793 77.0508-86.2793Q85.5469-86.2793 93.2129-83.7158Q100.879-81.1523 107.275-76.4893Q113.672-71.8262 118.335-65.4541Q122.998-59.082 125.586-51.416Q128.174-43.75 128.174-35.2539Q128.174-26.7578 125.61-19.1162Q123.047-11.4746 118.359-5.07812Q113.672 1.31836 107.3 6.00586Q100.928 10.6934 93.2617 13.2568Q85.5957 15.8203 77.0996 15.8203ZM47.2656-6.44531Q53.1738-0.537109 60.2051-1.07422Q67.2363-1.61133 74.0723-8.34961L82.5684-16.748Q89.502-23.5352 89.9902-30.6885Q90.4785-37.8418 84.5215-43.7012Q82.959-45.2148 81.2988-46.3379Q79.6387-47.4609 78.3203-47.9004Q76.9043-46.8262 75.4883-45.0928Q74.0723-43.3594 73.4863-41.8457Q75.1465-41.5039 76.7578-40.6494Q78.3691-39.7949 79.4922-38.7207Q83.0566-35.1562 82.5439-30.6641Q82.0312-26.1719 77.4414-21.6309L69.2383-13.4766Q64.7461-9.0332 60.3027-8.52051Q55.8594-8.00781 52.2949-11.4746Q48.6816-15.0391 49.1699-19.5312Q49.6582-24.0234 54.1992-28.4668L59.668-33.9355Q59.1309-34.9609 58.9111-36.6211Q58.6914-38.2812 58.7646-40.1123Q58.8379-41.9434 59.375-43.5547L49.0723-33.3496Q42.2852-26.5625 41.7969-19.458Q41.3086-12.3535 47.2656-6.44531ZM104.639-64.1602Q98.6816-70.0195 91.6504-69.5068Q84.6191-68.9941 77.7832-62.2559L69.2871-53.8574Q62.3535-47.0215 61.8652-39.8682Q61.377-32.7148 67.3828-26.9043Q68.8965-25.3418 70.5566-24.2432Q72.2168-23.1445 73.5352-22.7051Q74.9512-23.7793 76.3916-25.5127Q77.832-27.2461 78.418-28.7109Q76.709-29.0527 75.0977-29.9072Q73.4863-30.7617 72.3633-31.8848Q68.7988-35.4492 69.3115-39.9414Q69.8242-44.4336 74.4629-48.9746L82.6172-57.0801Q87.1094-61.5723 91.5527-62.085Q95.9961-62.5977 99.6094-59.082Q103.174-55.5664 102.71-51.0742Q102.246-46.582 97.6562-42.0898L92.1875-36.6699Q92.7246-35.5957 92.9688-33.9355Q93.2129-32.2754 93.1152-30.4443Q93.0176-28.6133 92.5293-27.0508L102.783-37.2559Q109.57-44.043 110.083-51.1475Q110.596-58.252 104.639-64.1602Z"/>
  </g>
  <g id="Semibold-L" transform="matrix(1 0 0 1 1966.97 1556)">
   <path d="M76.2695 29.7852Q86.9629 29.7852 96.6797 26.4648Q106.396 23.1445 114.551 17.1631Q122.705 11.1816 128.687 3.02734Q134.668-5.12695 137.988-14.8438Q141.309-24.5605 141.309-35.2539Q141.309-45.9473 137.988-55.6641Q134.668-65.3809 128.662-73.5107Q122.656-81.6406 114.526-87.6465Q106.396-93.6523 96.6553-96.9727Q86.9141-100.293 76.2207-100.293Q65.5273-100.293 55.8105-96.9727Q46.0938-93.6523 37.9883-87.6465Q29.8828-81.6406 23.877-73.5107Q17.8711-65.3809 14.5752-55.6641Q11.2793-45.9473 11.2793-35.2539Q11.2793-24.5605 14.5996-14.8438Q17.9199-5.12695 23.9014 3.02734Q29.8828 11.1816 38.0127 17.1631Q46.1426 23.1445 55.8594 26.4648Q65.5762 29.7852 76.2695 29.7852ZM76.2695 17.041Q67.627 17.041 59.7656 14.4043Q51.9043 11.7676 45.3857 6.98242Q38.8672 2.19727 34.0576-4.3457Q29.248-10.8887 26.6357-18.7256Q24.0234-26.5625 24.0234-35.2539Q24.0234-43.9453 26.6357-51.8066Q29.248-59.668 34.0332-66.1865Q38.8184-72.7051 45.3369-77.4902Q51.8555-82.2754 59.7168-84.9121Q67.5781-87.5488 76.2207-87.5488Q84.9609-87.5488 92.7979-84.9121Q100.635-82.2754 107.178-77.4902Q113.721-72.7051 118.506-66.1865Q123.291-59.668 125.928-51.8066Q128.564-43.9453 128.564-35.2539Q128.613-26.5625 126.001-18.7256Q123.389-10.8887 118.579-4.3457Q113.77 2.19727 107.227 6.98242Q100.684 11.7676 92.8467 14.4043Q85.0098 17.041 76.2695 17.041ZM46.1426-6.25Q51.9531-0.390625 58.9355-0.90332Q65.918-1.41602 72.6562-8.05664L81.7871-17.1387Q88.623-23.877 89.0869-30.9326Q89.5508-37.9883 83.6914-43.7988Q82.0312-45.459 80.3223-46.5576Q78.6133-47.6562 77.1973-48.0469Q75.8789-47.0215 74.5117-45.4102Q73.1445-43.7988 72.5098-42.2852Q74.4141-41.9922 76.0742-41.1621Q77.7344-40.332 78.9551-39.1113Q82.6172-35.498 82.1045-30.9082Q81.5918-26.3184 76.9531-21.7773L68.0664-12.8906Q63.5742-8.39844 59.0332-7.91016Q54.4922-7.42188 50.8301-10.9863Q47.168-14.5996 47.6074-19.1895Q48.0469-23.7793 52.6855-28.2227L58.8867-34.4727Q58.3984-35.5469 58.2031-37.085Q58.0078-38.623 58.1299-40.332Q58.252-42.041 58.7891-43.6523L47.8516-32.8125Q41.2109-26.123 40.7227-19.1162Q40.2344-12.1094 46.1426-6.25ZM104.102-64.4531Q98.2422-70.2637 91.2842-69.7754Q84.3262-69.2871 77.5879-62.6465L68.4082-53.5645Q61.6211-46.8262 61.1328-39.7705Q60.6445-32.7148 66.5527-26.9043Q68.1641-25.2441 69.8975-24.1455Q71.6309-23.0469 73.0469-22.7051Q74.3652-23.6816 75.7324-25.293Q77.0996-26.9043 77.6855-28.418Q75.8301-28.7109 74.1455-29.541Q72.4609-30.3711 71.2402-31.5918Q67.5781-35.2051 68.0908-39.7949Q68.6035-44.3848 73.2422-48.9746L82.1289-57.8125Q86.6699-62.3535 91.1865-62.8174Q95.7031-63.2812 99.3652-59.668Q103.027-56.1035 102.588-51.5381Q102.148-46.9727 97.5586-42.4805L91.3086-36.2793Q91.7969-35.2051 91.9922-33.6426Q92.1875-32.0801 92.0654-30.3467Q91.9434-28.6133 91.4551-27.0996L102.344-37.8906Q109.033-44.5801 109.521-51.6113Q110.01-58.6426 104.102-64.4531Z"/>
  </g>
  <g id="Medium-L" transform="matrix(1 0 0 1 1670.87 1556)">
   <path d="M75.6836 29.1504Q86.2305 29.1504 95.8496 25.8545Q105.469 22.5586 113.55 16.626Q121.631 10.6934 127.563 2.63672Q133.496-5.41992 136.792-15.0635Q140.088-24.707 140.088-35.2539Q140.088-45.8496 136.792-55.4688Q133.496-65.0879 127.539-73.1445Q121.582-81.2012 113.525-87.1582Q105.469-93.1152 95.8252-96.3867Q86.1816-99.6582 75.6348-99.6582Q65.0391-99.6582 55.4199-96.3867Q45.8008-93.1152 37.7441-87.1582Q29.6875-81.2012 23.7549-73.1445Q17.8223-65.0879 14.5508-55.4688Q11.2793-45.8496 11.2793-35.2539Q11.2793-24.707 14.5508-15.0635Q17.8223-5.41992 23.7549 2.63672Q29.6875 10.6934 37.7686 16.626Q45.8496 22.5586 55.4688 25.8545Q65.0879 29.1504 75.6836 29.1504ZM75.6836 18.0176Q66.8457 18.0176 58.8379 15.332Q50.8301 12.6465 44.2139 7.76367Q37.5977 2.88086 32.6904-3.78418Q27.7832-10.4492 25.1221-18.4326Q22.4609-26.416 22.4609-35.2539Q22.4609-44.1406 25.1221-52.124Q27.7832-60.1074 32.666-66.748Q37.5488-73.3887 44.165-78.2715Q50.7812-83.1543 58.7891-85.8154Q66.7969-88.4766 75.6348-88.4766Q84.4727-88.4766 92.4805-85.8154Q100.488-83.1543 107.129-78.2715Q113.77-73.3887 118.652-66.748Q123.535-60.1074 126.221-52.124Q128.906-44.1406 128.906-35.2539Q128.955-26.416 126.294-18.4326Q123.633-10.4492 118.726-3.78418Q113.818 2.88086 107.178 7.76367Q100.537 12.6465 92.5293 15.332Q84.5215 18.0176 75.6836 18.0176ZM45.2637-6.05469Q51.0742-0.244141 57.959-0.732422Q64.8438-1.2207 71.5332-7.86133L81.2012-17.4316Q87.9395-24.1211 88.4033-31.1035Q88.8672-38.0859 83.0566-43.8965Q81.3477-45.5566 79.5654-46.6797Q77.7832-47.8027 76.3184-48.0957Q75.0488-47.168 73.7305-45.6299Q72.4121-44.0918 71.7773-42.5293Q73.8281-42.2852 75.5615-41.4795Q77.2949-40.6738 78.5645-39.4043Q82.2754-35.7422 81.7871-31.0791Q81.2988-26.416 76.6113-21.8262L67.1875-12.4023Q62.6465-7.86133 58.0566-7.39746Q53.4668-6.93359 49.7559-10.5957Q46.0449-14.2578 46.46-18.8965Q46.875-23.5352 51.5137-28.0273L58.3008-34.8145Q57.8613-35.9375 57.6904-37.4023Q57.5195-38.8672 57.666-40.5029Q57.8125-42.1387 58.3496-43.6523L46.9727-32.373Q40.332-25.7812 39.8682-18.8232Q39.4043-11.8652 45.2637-6.05469ZM103.711-64.6484Q97.8516-70.459 90.9668-69.9951Q84.082-69.5312 77.3926-62.8906L67.7734-53.3203Q61.0352-46.582 60.5469-39.5996Q60.0586-32.6172 65.918-26.9043Q67.627-25.1465 69.3848-24.0479Q71.1426-22.9492 72.6074-22.6562Q73.877-23.584 75.2197-25.1221Q76.5625-26.6602 77.1484-28.1738Q75.0977-28.4668 73.3887-29.2725Q71.6797-30.0781 70.4102-31.3477Q66.6992-35.0098 67.1875-39.6729Q67.6758-44.3359 72.3633-48.9258L81.7871-58.3008Q86.2793-62.8906 90.8936-63.3301Q95.5078-63.7695 99.2188-60.1074Q102.93-56.4941 102.515-51.8555Q102.1-47.2168 97.4609-42.7246L90.6738-35.9375Q91.1133-34.8145 91.2598-33.3252Q91.4062-31.8359 91.2598-30.2246Q91.1133-28.6133 90.625-27.0996L101.953-38.3789Q108.594-44.9707 109.082-51.9287Q109.57-58.8867 103.711-64.6484Z"/>
  </g>
  <g id="Regular-L" transform="matrix(1 0 0 1 1374.97 1556)">
   <path d="M74.8535 28.3203Q85.3027 28.3203 94.7998 25.0732Q104.297 21.8262 112.256 15.9668Q120.215 10.1074 126.099 2.14844Q131.982-5.81055 135.229-15.332Q138.477-24.8535 138.477-35.2539Q138.477-45.7031 135.229-55.2002Q131.982-64.6973 126.099-72.6562Q120.215-80.6152 112.256-86.499Q104.297-92.3828 94.7754-95.6299Q85.2539-98.877 74.8047-98.877Q64.3555-98.877 54.8584-95.6299Q45.3613-92.3828 37.4268-86.499Q29.4922-80.6152 23.6084-72.6562Q17.7246-64.6973 14.502-55.2002Q11.2793-45.7031 11.2793-35.2539Q11.2793-24.8535 14.5264-15.332Q17.7734-5.81055 23.6328 2.14844Q29.4922 10.1074 37.4512 15.9668Q45.4102 21.8262 54.9072 25.0732Q64.4043 28.3203 74.8535 28.3203ZM74.8535 19.2383Q65.8203 19.2383 57.6416 16.4795Q49.4629 13.7207 42.6758 8.74023Q35.8887 3.75977 30.8838-3.05176Q25.8789-9.86328 23.1445-18.042Q20.4102-26.2207 20.4102-35.2539Q20.4102-44.3359 23.1445-52.5146Q25.8789-60.6934 30.8594-67.5049Q35.8398-74.3164 42.627-79.2969Q49.4141-84.2773 57.5928-87.0117Q65.7715-89.7461 74.8047-89.7461Q83.8867-89.7461 92.0654-87.0117Q100.244-84.2773 107.056-79.2969Q113.867-74.3164 118.848-67.5049Q123.828-60.6934 126.587-52.5146Q129.346-44.3359 129.346-35.2539Q129.395-26.2207 126.66-18.042Q123.926-9.86328 118.921-3.05176Q113.916 3.75977 107.104 8.74023Q100.293 13.7207 92.1143 16.4795Q83.9355 19.2383 74.8535 19.2383ZM44.1406-5.81055Q49.9023-0.0976562 56.7139-0.561523Q63.5254-1.02539 70.1172-7.56836L80.4199-17.8223Q87.0605-24.4141 87.5244-31.2988Q87.9883-38.1836 82.2266-43.9453Q80.4199-45.752 78.5889-46.8506Q76.7578-47.9492 75.1953-48.1934Q74.0234-47.3145 72.7539-45.8984Q71.4844-44.4824 70.8496-42.9199Q73.0957-42.7246 74.8779-41.9434Q76.6602-41.1621 78.0273-39.7949Q81.8359-36.0352 81.3477-31.2988Q80.8594-26.5625 76.123-21.9238L66.0156-11.7676Q61.4746-7.22656 56.7871-6.78711Q52.0996-6.34766 48.3398-10.0586Q44.5312-13.8184 44.9219-18.5303Q45.3125-23.2422 50-27.7344L57.5195-35.3027Q57.1289-36.4258 57.0068-37.793Q56.8848-39.1602 57.0557-40.6738Q57.2266-42.1875 57.7637-43.7012L45.8008-31.8359Q39.2578-25.293 38.7939-18.4326Q38.3301-11.5723 44.1406-5.81055ZM103.174-64.9414Q97.4121-70.6543 90.6006-70.2148Q83.7891-69.7754 77.1973-63.2324L66.8945-52.9785Q60.2539-46.3379 59.79-39.4531Q59.3262-32.5684 65.0879-26.8555Q66.8945-25 68.7256-23.9258Q70.5566-22.8516 72.1191-22.6074Q73.291-23.4375 74.5605-24.8779Q75.8301-26.3184 76.4648-27.832Q74.2188-28.0762 72.4365-28.8574Q70.6543-29.6387 69.2871-31.0059Q65.4785-34.7656 65.9668-39.502Q66.4551-44.2383 71.1914-48.877L81.2988-58.9844Q85.8398-63.5742 90.5273-63.9893Q95.2148-64.4043 98.9746-60.6934Q102.783-56.9824 102.393-52.2705Q102.002-47.5586 97.3145-43.0176L89.7949-35.498Q90.1855-34.375 90.3076-32.9834Q90.4297-31.5918 90.2588-30.0781Q90.0879-28.5645 89.5508-27.0996L101.514-38.9648Q108.057-45.5078 108.521-52.3682Q108.984-59.2285 103.174-64.9414Z"/>
  </g>
  <g id="Light-L" transform="matrix(1 0 0 1 1079.18 1556)">
   <path d="M73.9258 27.3926Q84.2285 27.3926 93.6035 24.1943Q102.979 20.9961 110.815 15.2344Q118.652 9.47266 124.438 1.63574Q130.225-6.20117 133.423-15.5762Q136.621-24.9512 136.621-35.2539Q136.621-45.5566 133.423-54.9316Q130.225-64.3066 124.438-72.1436Q118.652-79.9805 110.815-85.7666Q102.979-91.5527 93.6035-94.751Q84.2285-97.9492 73.877-97.9492Q63.5742-97.9492 54.2236-94.751Q44.873-91.5527 37.0361-85.7666Q29.1992-79.9805 23.4131-72.1436Q17.627-64.3066 14.4531-54.9316Q11.2793-45.5566 11.2793-35.2539Q11.2793-24.9512 14.4775-15.5762Q17.6758-6.20117 23.4375 1.63574Q29.1992 9.47266 37.0361 15.2344Q44.873 20.9961 54.248 24.1943Q63.623 27.3926 73.9258 27.3926ZM73.9258 20.5078Q64.6973 20.5078 56.3232 17.6758Q47.9492 14.8438 40.9912 9.74121Q34.0332 4.63867 28.9307-2.31934Q23.8281-9.27734 21.0205-17.6514Q18.2129-26.0254 18.2129-35.2539Q18.2129-44.5312 21.0205-52.8809Q23.8281-61.2305 28.9307-68.2129Q34.0332-75.1953 40.9912-80.2979Q47.9492-85.4004 56.2988-88.208Q64.6484-91.0156 73.877-91.0156Q83.1543-91.0156 91.5283-88.208Q99.9023-85.4004 106.86-80.2979Q113.818-75.1953 118.945-68.2129Q124.072-61.2305 126.88-52.8809Q129.688-44.5312 129.688-35.2539Q129.736-26.0254 126.929-17.6514Q124.121-9.27734 118.994-2.31934Q113.867 4.63867 106.909 9.74121Q99.9512 14.8438 91.5771 17.6758Q83.2031 20.5078 73.9258 20.5078ZM43.3594-6.15234Q48.9258-0.683594 55.4443-1.07422Q61.9629-1.46484 68.1152-7.56836L79.5898-18.9941Q85.791-25.0977 86.1572-31.7139Q86.5234-38.3301 81.0059-43.7988Q78.9551-45.8008 76.9775-46.9482Q75-48.0957 73.1445-48.3398Q72.168-47.6074 71.0938-46.4111Q70.0195-45.2148 69.5312-43.8477Q71.875-43.75 73.8281-42.9199Q75.7812-42.0898 77.4902-40.332Q81.3965-36.5234 81.0547-31.7383Q80.7129-26.9531 76.123-22.4609L64.5996-10.9863Q60.2051-6.49414 55.4688-6.17676Q50.7324-5.85938 46.9238-9.66797Q43.0176-13.5254 43.2861-18.2861Q43.5547-23.0469 48.1445-27.3926L57.0801-36.4258Q56.7871-37.4023 56.7383-38.5742Q56.6895-39.7461 56.8848-41.0645Q57.0801-42.3828 57.6172-43.75L44.7266-30.9082Q38.5742-24.8047 38.208-18.2129Q37.8418-11.6211 43.3594-6.15234ZM101.904-64.7461Q96.3867-70.2148 89.8682-69.8486Q83.3496-69.4824 77.1973-63.3789L65.7227-51.9531Q59.5215-45.8008 59.1553-39.1846Q58.7891-32.5684 64.3066-27.0996Q66.3574-25.0977 68.335-23.9746Q70.3125-22.8516 72.168-22.6074Q73.1445-23.291 74.2188-24.5117Q75.293-25.7324 75.7812-27.0508Q73.4375-27.1973 71.46-28.0273Q69.4824-28.8574 67.8223-30.5664Q63.916-34.375 64.2578-39.1602Q64.5996-43.9453 69.1895-48.4375L80.6641-59.9121Q85.1074-64.4043 89.8438-64.6973Q94.5801-64.9902 98.3887-61.2305Q102.295-57.4219 102.026-52.6611Q101.758-47.9004 97.168-43.5059L88.2324-34.4727Q88.4766-33.5449 88.5498-32.3486Q88.623-31.1523 88.4277-29.834Q88.2324-28.5156 87.6953-27.1973L100.586-40.0391Q106.738-46.1426 107.104-52.71Q107.471-59.2773 101.904-64.7461Z"/>
  </g>
  <g id="Thin-L" transform="matrix(1 0 0 1 783.693 1556)">
   <path d="M72.7051 26.1719Q82.8613 26.1719 92.041 23.0469Q101.221 19.9219 108.911 14.2822Q116.602 8.64258 122.266 0.952148Q127.93-6.73828 131.055-15.9424Q134.18-25.1465 134.18-35.2539Q134.18-45.4102 131.055-54.5898Q127.93-63.7695 122.29-71.46Q116.65-79.1504 108.936-84.8145Q101.221-90.4785 92.0166-93.6035Q82.8125-96.7285 72.7051-96.7285Q62.5488-96.7285 53.3691-93.6035Q44.1895-90.4785 36.499-84.8145Q28.8086-79.1504 23.1689-71.46Q17.5293-63.7695 14.4043-54.5898Q11.2793-45.4102 11.2793-35.2539Q11.2793-25.1465 14.4043-15.9424Q17.5293-6.73828 23.1689 0.952148Q28.8086 8.64258 36.5234 14.2822Q44.2383 19.9219 53.418 23.0469Q62.5977 26.1719 72.7051 26.1719ZM72.7051 22.168Q63.2324 22.168 54.6143 19.2627Q45.9961 16.3574 38.8184 11.084Q31.6406 5.81055 26.3428-1.36719Q21.0449-8.54492 18.1641-17.1631Q15.2832-25.7812 15.2832-35.2539Q15.2832-44.7754 18.1641-53.3936Q21.0449-62.0117 26.3428-69.1895Q31.6406-76.3672 38.8184-81.6406Q45.9961-86.9141 54.5898-89.8193Q63.1836-92.7246 72.7051-92.7246Q82.2266-92.7246 90.8203-89.8193Q99.4141-86.9141 106.616-81.6406Q113.818-76.3672 119.092-69.1895Q124.365-62.0117 127.271-53.3936Q130.176-44.7754 130.176-35.2539Q130.176-25.7812 127.271-17.1631Q124.365-8.54492 119.092-1.36719Q113.818 5.81055 106.641 11.084Q99.4629 16.3574 90.8447 19.2627Q82.2266 22.168 72.7051 22.168ZM42.3828-6.5918Q47.6562-1.46484 53.7842-1.7334Q59.9121-2.00195 65.4785-7.51953L78.5156-20.5078Q84.1309-25.9766 84.375-32.2266Q84.6191-38.4766 79.3945-43.6035Q77.0508-45.8984 74.8779-47.0703Q72.7051-48.2422 70.4102-48.4863Q69.7266-47.998 68.9209-47.0703Q68.1152-46.1426 67.7734-45.0195Q70.3125-45.0684 72.5098-44.165Q74.707-43.2617 76.8066-41.0645Q80.8594-37.207 80.7129-32.3486Q80.5664-27.4902 76.123-23.1934L62.793-9.91211Q58.5449-5.51758 53.7598-5.39551Q48.9746-5.27344 45.0684-9.17969Q41.0156-13.0859 41.1621-17.9199Q41.3086-22.7539 45.7031-26.9531L56.4941-37.9395Q56.3965-38.6719 56.4209-39.5752Q56.4453-40.4785 56.6895-41.5283Q56.9336-42.5781 57.4707-43.7988L43.3105-29.6387Q37.7441-24.1211 37.4756-17.9199Q37.207-11.7188 42.3828-6.5918ZM100.293-64.4531Q95.0195-69.5801 88.8916-69.3115Q82.7637-69.043 77.2949-63.5254L64.1602-50.5859Q58.5938-45.0684 58.3496-38.8184Q58.1055-32.5684 63.3301-27.4414Q65.625-25.1465 67.8223-23.9746Q70.0195-22.8027 72.2656-22.5586Q72.998-23.0957 73.7793-23.999Q74.5605-24.9023 74.9512-26.0254Q72.4121-25.9766 70.2148-26.8799Q68.0176-27.7832 65.918-30.0293Q61.8164-33.8867 61.9873-38.7451Q62.1582-43.6035 66.5527-47.9004L79.9316-61.1328Q84.1797-65.5273 88.9648-65.6738Q93.75-65.8203 97.6562-61.8652Q101.66-58.0078 101.562-53.1738Q101.465-48.3398 97.0215-44.0918L86.1816-33.1543Q86.2793-32.4219 86.2793-31.4941Q86.2793-30.5664 86.0352-29.5166Q85.791-28.4668 85.2539-27.2461L99.3652-41.4062Q104.98-46.9238 105.249-53.1494Q105.518-59.375 100.293-64.4531Z"/>
  </g>
  <g id="Ultralight-L" transform="matrix(1 0 0 1 487.592 1556)">
   <path d="M72.0703 25.5371Q82.1289 25.5371 91.2354 22.4609Q100.342 19.3848 107.935 13.7939Q115.527 8.20312 121.143 0.585938Q126.758-7.03125 129.858-16.1133Q132.959-25.1953 132.959-35.2539Q132.959-45.3125 129.858-54.4189Q126.758-63.5254 121.167-71.1182Q115.576-78.7109 107.959-84.3262Q100.342-89.9414 91.2354-93.0176Q82.1289-96.0938 72.0703-96.0938Q62.0605-96.0938 52.9541-93.0176Q43.8477-89.9414 36.2305-84.3262Q28.6133-78.7109 23.0225-71.1182Q17.4316-63.5254 14.3555-54.4189Q11.2793-45.3125 11.2793-35.2539Q11.2793-25.1953 14.3555-16.1133Q17.4316-7.03125 23.0225 0.585938Q28.6133 8.20312 36.2305 13.7939Q43.8477 19.3848 52.9541 22.4609Q62.0605 25.5371 72.0703 25.5371ZM72.0703 23.0469Q62.4512 23.0469 53.7109 20.0928Q44.9707 17.1387 37.6709 11.792Q30.3711 6.44531 25.0244-0.854492Q19.6777-8.1543 16.7236-16.8945Q13.7695-25.6348 13.7695-35.2539Q13.7695-44.9219 16.7236-53.6377Q19.6777-62.3535 25.0244-69.6533Q30.3711-76.9531 37.6953-82.3242Q45.0195-87.6953 53.7354-90.6494Q62.4512-93.6035 72.0703-93.6035Q81.7383-93.6035 90.4785-90.6494Q99.2188-87.6953 106.494-82.3242Q113.77-76.9531 119.141-69.6533Q124.512-62.3535 127.466-53.6377Q130.42-44.9219 130.42-35.2539Q130.371-25.6348 127.441-16.8945Q124.512-8.1543 119.141-0.854492Q113.77 6.44531 106.494 11.792Q99.2188 17.1387 90.4785 20.0928Q81.7383 23.0469 72.0703 23.0469ZM41.8945-6.88477Q47.0215-1.85547 52.9541-2.0752Q58.8867-2.29492 64.1113-7.51953L77.9785-21.2891Q83.252-26.4648 83.4229-32.5439Q83.5938-38.623 78.5645-43.5547Q76.0742-45.9473 73.7793-47.168Q71.4844-48.3887 69.043-48.6328Q68.457-48.1934 67.7979-47.4365Q67.1387-46.6797 66.8945-45.6543Q69.5312-45.8008 71.8262-44.8486Q74.1211-43.8965 76.4648-41.4551Q80.5664-37.5488 80.5176-32.6416Q80.4688-27.7344 76.123-23.584L61.8652-9.375Q57.666-5.07812 52.8564-5.00488Q48.0469-4.93164 44.0918-8.93555Q39.9902-12.8906 40.0391-17.749Q40.0879-22.6074 44.4336-26.7578L56.2012-38.7207Q56.2012-39.3555 56.25-40.1367Q56.2988-40.918 56.5674-41.8213Q56.8359-42.7246 57.373-43.8477L42.5781-29.0527Q37.2559-23.8281 37.0605-17.7979Q36.8652-11.7676 41.8945-6.88477ZM99.4629-64.3066Q94.3359-69.2871 88.4033-69.0918Q82.4707-68.8965 77.2949-63.6719L63.3789-49.9023Q58.1055-44.7266 57.9346-38.6475Q57.7637-32.5684 62.793-27.6367Q65.2832-25.2441 67.5537-24.0234Q69.8242-22.8027 72.3145-22.5586Q72.9004-22.998 73.5596-23.7549Q74.2188-24.5117 74.4629-25.5371Q71.875-25.3906 69.5557-26.3428Q67.2363-27.2949 64.8926-29.7363Q60.791-33.6426 60.8398-38.5254Q60.8887-43.4082 65.2344-47.6074L79.4922-61.8164Q83.6914-66.1133 88.501-66.1621Q93.3105-66.2109 97.2656-62.2559Q101.367-58.3008 101.318-53.4424Q101.27-48.584 96.9238-44.4336L85.1562-32.4707Q85.1562-31.8359 85.1074-31.0547Q85.0586-30.2734 84.79-29.3457Q84.5215-28.418 83.9844-27.3438L98.7793-42.1387Q104.102-47.3633 104.297-53.3936Q104.492-59.4238 99.4629-64.3066Z"/>
  </g>
  <g id="Black-M" transform="matrix(1 0 0 1 2871.32 1126)">
   <path d="M62.0605 18.1152Q73.0957 18.1152 82.7637 13.9648Q92.4316 9.81445 99.7559 2.46582Q107.08-4.88281 111.255-14.5264Q115.43-24.1699 115.43-35.2051Q115.43-46.2402 111.255-55.8838Q107.08-65.5273 99.7559-72.876Q92.4316-80.2246 82.7637-84.375Q73.0957-88.5254 62.0605-88.5254Q51.0742-88.5254 41.4062-84.375Q31.7383-80.2246 24.3896-72.876Q17.041-65.5273 12.8906-55.8838Q8.74023-46.2402 8.74023-35.2051Q8.74023-24.1699 12.8906-14.5264Q17.041-4.88281 24.3896 2.46582Q31.7383 9.81445 41.4062 13.9648Q51.0742 18.1152 62.0605 18.1152ZM62.0605 0.732422Q54.6387 0.732422 48.1201-2.05078Q41.6016-4.83398 36.6455-9.76562Q31.6895-14.6973 28.9062-21.2158Q26.123-27.7344 26.123-35.2051Q26.123-42.6758 28.9062-49.1943Q31.6895-55.7129 36.6455-60.6445Q41.6016-65.5762 48.1201-68.3594Q54.6387-71.1426 62.0605-71.1426Q69.5312-71.1426 76.0498-68.3594Q82.5684-65.5762 87.5-60.6445Q92.4316-55.7129 95.2393-49.1943Q98.0469-42.6758 98.0469-35.2051Q98.0469-27.7344 95.2393-21.2158Q92.4316-14.6973 87.5-9.76562Q82.5684-4.83398 76.0498-2.05078Q69.5312 0.732422 62.0605 0.732422ZM39.9414-13.7695Q44.6777-9.08203 50.293-9.5459Q55.9082-10.0098 61.377-15.2832L66.2598-20.0195Q71.7773-25.3906 72.1436-31.1523Q72.5098-36.9141 67.7246-41.5039Q66.7969-42.3828 65.6494-43.2861Q64.502-44.1895 63.623-44.7754Q62.3535-43.7012 61.1084-42.0898Q59.8633-40.4785 59.5215-39.4531Q60.2051-39.0625 61.3281-38.2812Q62.4512-37.5 63.0859-36.8652Q65.625-34.3262 65.2344-31.1035Q64.8438-27.8809 61.4746-24.5605L56.9824-20.1172Q53.5645-16.7969 50.3906-16.3574Q47.2168-15.918 44.6289-18.4082Q42.0898-20.9473 42.5049-24.1943Q42.9199-27.4414 46.2891-30.7617L48.584-32.959Q47.8027-34.0332 47.5342-36.792Q47.2656-39.5508 47.8027-41.5527L41.4551-35.2539Q36.084-29.834 35.6689-24.1455Q35.2539-18.457 39.9414-13.7695ZM82.3242-56.6406Q77.6367-61.3281 71.9971-60.8643Q66.3574-60.4004 60.9375-55.127L56.0547-50.3906Q50.4883-45.0195 50.1465-39.2578Q49.8047-33.4961 54.5898-28.9062Q55.5176-28.0273 56.665-27.124Q57.8125-26.2207 58.6426-25.6348Q59.9609-26.709 61.1816-28.3203Q62.4023-29.9316 62.793-30.957Q62.1094-31.3477 60.9863-32.1289Q59.8633-32.9102 59.1797-33.5449Q56.6406-36.084 57.0557-39.3066Q57.4707-42.5293 60.791-45.8496L65.332-50.293Q68.7012-53.6133 71.8994-54.0527Q75.0977-54.4922 77.6367-52.002Q80.1758-49.4629 79.7607-46.2158Q79.3457-42.9688 76.0254-39.6484L73.7305-37.4512Q74.4629-36.377 74.7314-33.6182Q75-30.8594 74.5117-28.8574L80.8105-35.1562Q86.2305-40.5762 86.6211-46.2646Q87.0117-51.9531 82.3242-56.6406Z"/>
  </g>
  <g id="Heavy-M" transform="matrix(1 0 0 1 2575.43 1126)">
   <path d="M61.2305 17.2852Q72.0703 17.2852 81.5918 13.1836Q91.1133 9.08203 98.3154 1.85547Q105.518-5.37109 109.644-14.8682Q113.77-24.3652 113.77-35.2051Q113.77-46.0449 109.644-55.542Q105.518-65.0391 98.3154-72.29Q91.1133-79.541 81.5918-83.6182Q72.0703-87.6953 61.2305-87.6953Q50.4395-87.6953 40.918-83.6182Q31.3965-79.541 24.1699-72.29Q16.9434-65.0391 12.8418-55.542Q8.74023-46.0449 8.74023-35.2051Q8.74023-24.3652 12.8418-14.8682Q16.9434-5.37109 24.1699 1.85547Q31.3965 9.08203 40.918 13.1836Q50.4395 17.2852 61.2305 17.2852ZM61.2305 2.05078Q53.5156 2.05078 46.7529-0.854492Q39.9902-3.75977 34.8633-8.8623Q29.7363-13.9648 26.8555-20.7275Q23.9746-27.4902 23.9746-35.2051Q23.9746-42.9688 26.8555-49.7314Q29.7363-56.4941 34.8633-61.5967Q39.9902-66.6992 46.7529-69.5801Q53.5156-72.4609 61.2305-72.4609Q68.9453-72.4609 75.708-69.5801Q82.4707-66.6992 87.5977-61.5967Q92.7246-56.4941 95.6299-49.7314Q98.5352-42.9688 98.5352-35.2051Q98.5352-27.4902 95.6299-20.7275Q92.7246-13.9648 87.6221-8.8623Q82.5195-3.75977 75.7568-0.854492Q68.9941 2.05078 61.2305 2.05078ZM38.7207-13.3789Q43.4082-8.74023 48.999-9.17969Q54.5898-9.61914 60.0098-14.9414L65.4785-20.2637Q70.9473-25.6348 71.3379-31.3477Q71.7285-37.0605 66.9434-41.6504Q65.9668-42.627 64.7705-43.5059Q63.5742-44.3848 62.6465-44.873Q61.4258-43.8965 60.2295-42.3584Q59.0332-40.8203 58.6426-39.7461Q59.5703-39.4043 60.7178-38.6719Q61.8652-37.9395 62.5488-37.2559Q65.1855-34.6191 64.7705-31.2988Q64.3555-27.9785 60.8887-24.5605L55.8105-19.4824Q52.3438-16.1133 49.0723-15.6982Q45.8008-15.2832 43.1641-17.8223Q40.5273-20.459 40.9424-23.7793Q41.3574-27.0996 44.7754-30.5176L47.7051-33.3496Q46.9727-34.5215 46.7773-37.085Q46.582-39.6484 47.1191-41.6016L40.2344-34.7656Q34.8633-29.3457 34.4482-23.7061Q34.0332-18.0664 38.7207-13.3789ZM81.9336-57.0312Q77.2949-61.7188 71.7041-61.2549Q66.1133-60.791 60.6934-55.5176L55.2246-50.1953Q49.707-44.8242 49.3408-39.1357Q48.9746-33.4473 53.7598-28.8086Q54.7363-27.832 55.9326-26.9531Q57.1289-26.0742 58.0078-25.5859Q59.2773-26.5625 60.4492-28.1006Q61.6211-29.6387 62.0605-30.7129Q61.1328-31.0547 59.9854-31.7871Q58.8379-32.5195 58.1055-33.2031Q55.4688-35.8398 55.9082-39.1602Q56.3477-42.4805 59.7656-45.8984L64.8926-50.9766Q68.3105-54.3457 71.6064-54.7852Q74.9023-55.2246 77.5391-52.6367Q80.127-50 79.7363-46.6797Q79.3457-43.3594 75.9277-39.9902L72.998-37.1094Q73.6816-35.9375 73.9014-33.374Q74.1211-30.8105 73.584-28.8574L80.4688-35.6934Q85.8398-41.1133 86.2305-46.7529Q86.6211-52.3926 81.9336-57.0312Z"/>
  </g>
  <g id="Bold-M" transform="matrix(1 0 0 1 2279.65 1126)">
   <path d="M60.3027 16.3574Q70.9473 16.3574 80.2734 12.3291Q89.5996 8.30078 96.7041 1.17188Q103.809-5.95703 107.861-15.2832Q111.914-24.6094 111.914-35.2539Q111.914-45.8496 107.861-55.1758Q103.809-64.502 96.7041-71.6309Q89.5996-78.7598 80.249-82.7881Q70.8984-86.8164 60.3027-86.8164Q49.707-86.8164 40.3564-82.7881Q31.0059-78.7598 23.9014-71.6309Q16.7969-64.502 12.7686-55.1758Q8.74023-45.8496 8.74023-35.2539Q8.74023-24.6094 12.7686-15.2832Q16.7969-5.95703 23.9258 1.17188Q31.0547 8.30078 40.3809 12.3291Q49.707 16.3574 60.3027 16.3574ZM60.3027 3.51562Q52.2949 3.51562 45.2637 0.488281Q38.2324-2.53906 32.9102-7.83691Q27.5879-13.1348 24.6094-20.166Q21.6309-27.1973 21.6309-35.2539Q21.6309-43.3105 24.6094-50.3174Q27.5879-57.3242 32.9102-62.6465Q38.2324-67.9688 45.2393-70.9717Q52.2461-73.9746 60.3027-73.9746Q68.3594-73.9746 75.3662-70.9717Q82.373-67.9688 87.6953-62.6465Q93.0176-57.3242 96.0449-50.3174Q99.0723-43.3105 99.0723-35.2539Q99.0723-27.1973 96.0693-20.166Q93.0664-13.1348 87.7441-7.83691Q82.4219-2.53906 75.3906 0.488281Q68.3594 3.51562 60.3027 3.51562ZM37.3047-12.9883Q41.9434-8.39844 47.4854-8.81348Q53.0273-9.22852 58.4473-14.5508L64.5508-20.5566Q69.9707-25.9277 70.3857-31.5674Q70.8008-37.207 66.0645-41.7969Q64.9902-42.8711 63.7451-43.7256Q62.5-44.5801 61.5234-44.9707Q60.4004-44.0918 59.2285-42.6514Q58.0566-41.2109 57.6172-40.0879Q58.7891-39.7461 59.9854-39.0869Q61.1816-38.4277 61.9629-37.6465Q64.6484-34.9609 64.2334-31.5186Q63.8184-28.0762 60.2539-24.6094L54.4922-18.7988Q50.9766-15.3809 47.583-14.9658Q44.1895-14.5508 41.4551-17.1875Q38.7695-19.873 39.1602-23.3154Q39.5508-26.7578 43.0664-30.2246L46.7285-33.7891Q46.0449-35.0586 45.8984-37.4023Q45.752-39.7461 46.3379-41.6504L38.7695-34.1797Q33.4473-28.8086 33.0566-23.2422Q32.666-17.6758 37.3047-12.9883ZM81.4941-57.5195Q76.8555-62.1582 71.3135-61.7188Q65.7715-61.2793 60.4004-56.0059L54.2969-50Q48.8281-44.5801 48.4375-38.9648Q48.0469-33.3496 52.7344-28.7598Q53.8574-27.6367 55.1025-26.7822Q56.3477-25.9277 57.2754-25.5371Q58.4473-26.4648 59.5947-27.8809Q60.7422-29.2969 61.2305-30.4688Q60.0586-30.7617 58.8379-31.4453Q57.6172-32.1289 56.8359-32.8613Q54.1504-35.5957 54.5898-39.0137Q55.0293-42.4316 58.5449-45.9473L64.3555-51.709Q67.8223-55.1758 71.2158-55.5908Q74.6094-56.0059 77.3438-53.3691Q80.0781-50.6348 79.6875-47.2168Q79.2969-43.7988 75.7812-40.332L72.1191-36.7188Q72.7539-35.498 72.9004-33.1543Q73.0469-30.8105 72.5098-28.8574L80.0293-36.3281Q85.4004-41.6992 85.791-47.29Q86.1816-52.8809 81.4941-57.5195Z"/>
  </g>
  <g id="Semibold-M" transform="matrix(1 0 0 1 1983.6 1126)">
   <path d="M59.668 15.6738Q70.1172 15.6738 79.3457 11.6943Q88.5742 7.71484 95.6055 0.683594Q102.637-6.34766 106.616-15.5518Q110.596-24.7559 110.596-35.2539Q110.596-45.7031 106.616-54.9072Q102.637-64.1113 95.6055-71.1426Q88.5742-78.1738 79.3457-82.1777Q70.1172-86.1816 59.6191-86.1816Q49.1699-86.1816 39.9658-82.1777Q30.7617-78.1738 23.7305-71.1426Q16.6992-64.1113 12.7197-54.9072Q8.74023-45.7031 8.74023-35.2539Q8.74023-24.7559 12.7197-15.5518Q16.6992-6.34766 23.7305 0.683594Q30.7617 7.71484 39.9902 11.6943Q49.2188 15.6738 59.668 15.6738ZM59.668 4.49219Q51.416 4.49219 44.2139 1.41602Q37.0117-1.66016 31.543-7.10449Q26.0742-12.5488 23.0225-19.751Q19.9707-26.9531 19.9707-35.2539Q19.9707-43.5059 23.0225-50.708Q26.0742-57.9102 31.5186-63.3789Q36.9629-68.8477 44.165-71.8994Q51.3672-74.9512 59.6191-74.9512Q67.9199-74.9512 75.1221-71.8994Q82.3242-68.8477 87.7686-63.3789Q93.2129-57.9102 96.3135-50.708Q99.4141-43.5059 99.4141-35.2539Q99.4141-26.9531 96.3379-19.751Q93.2617-12.5488 87.8174-7.10449Q82.373-1.66016 75.1465 1.41602Q67.9199 4.49219 59.668 4.49219ZM36.2793-12.7441Q40.918-8.1543 46.4355-8.56934Q51.9531-8.98438 57.3242-14.3066L63.8672-20.752Q69.2871-26.1719 69.7021-31.7627Q70.1172-37.3535 65.4297-41.9434Q64.3066-43.1152 63.0371-43.9453Q61.7676-44.7754 60.7422-45.0684Q59.6191-44.2383 58.4961-42.8711Q57.373-41.5039 56.8848-40.332Q58.2031-40.0391 59.4482-39.4043Q60.6934-38.7695 61.5234-37.9883Q64.2578-35.2051 63.8184-31.6895Q63.3789-28.1738 59.7656-24.6582L53.5156-18.3594Q50-14.8926 46.5332-14.4775Q43.0664-14.0625 40.2832-16.748Q37.5-19.5312 37.8906-23.0225Q38.2812-26.5137 41.8457-30.0293L45.9961-34.1309Q45.4102-35.4492 45.2881-37.6465Q45.166-39.8438 45.752-41.748L37.793-33.8379Q32.4707-28.4668 32.0801-22.9248Q31.6895-17.3828 36.2793-12.7441ZM81.1523-57.9102Q76.5625-62.5 71.0449-62.085Q65.5273-61.6699 60.1562-56.3477L53.6621-49.8535Q48.1934-44.4824 47.7783-38.916Q47.3633-33.3496 52.0508-28.7109Q53.2227-27.5391 54.4922-26.709Q55.7617-25.8789 56.7383-25.5371Q57.8613-26.3672 58.9844-27.7344Q60.1074-29.1016 60.5957-30.3223Q59.2773-30.6152 58.0322-31.2256Q56.7871-31.8359 55.957-32.666Q53.2227-35.4492 53.6621-38.9404Q54.1016-42.4316 57.7148-45.9961L63.9648-52.2949Q67.4805-55.7617 70.9473-56.1768Q74.4141-56.5918 77.1973-53.9062Q79.9805-51.123 79.6143-47.6318Q79.248-44.1406 75.6348-40.625L71.4844-36.5234Q72.1191-35.2051 72.2168-33.0078Q72.3145-30.8105 71.7285-28.9062L79.6875-36.8164Q85.0586-42.1387 85.4492-47.6807Q85.8398-53.2227 81.1523-57.9102Z"/>
  </g>
  <g id="Medium-M" transform="matrix(1 0 0 1 1687.38 1126)">
   <path d="M59.1797 15.1855Q69.5312 15.1855 78.6621 11.2305Q87.793 7.27539 94.751 0.317383Q101.709-6.64062 105.664-15.7715Q109.619-24.9023 109.619-35.2539Q109.619-45.6055 105.664-54.7363Q101.709-63.8672 94.751-70.8252Q87.793-77.7832 78.6377-81.7383Q69.4824-85.6934 59.1309-85.6934Q48.7793-85.6934 39.6484-81.7383Q30.5176-77.7832 23.584-70.8252Q16.6504-63.8672 12.6953-54.7363Q8.74023-45.6055 8.74023-35.2539Q8.74023-24.9023 12.6953-15.7715Q16.6504-6.64062 23.6084 0.317383Q30.5664 7.27539 39.6973 11.2305Q48.8281 15.1855 59.1797 15.1855ZM59.1797 5.27344Q50.7324 5.27344 43.4082 2.12402Q36.084-1.02539 30.5176-6.5918Q24.9512-12.1582 21.8262-19.4824Q18.7012-26.8066 18.7012-35.2539Q18.7012-43.7012 21.8262-51.0254Q24.9512-58.3496 30.4932-63.916Q36.0352-69.4824 43.3838-72.6074Q50.7324-75.7324 59.1309-75.7324Q67.5781-75.7324 74.9023-72.6074Q82.2266-69.4824 87.8174-63.916Q93.4082-58.3496 96.5576-51.0254Q99.707-43.7012 99.707-35.2539Q99.707-26.8066 96.582-19.4824Q93.457-12.1582 87.8906-6.5918Q82.3242-1.02539 74.9756 2.12402Q67.627 5.27344 59.1797 5.27344ZM35.5469-12.5488Q40.1855-7.95898 45.6787-8.37402Q51.1719-8.78906 56.4941-14.1113L63.3789-20.8984Q68.7988-26.3184 69.2139-31.8604Q69.6289-37.4023 64.9902-41.9922Q63.7695-43.2129 62.4756-44.043Q61.1816-44.873 60.1562-45.166Q59.082-44.3359 57.959-43.042Q56.8359-41.748 56.3477-40.5273Q57.8125-40.2344 59.082-39.624Q60.3516-39.0137 61.1816-38.1836Q63.9648-35.4004 63.5254-31.8359Q63.0859-28.2715 59.4238-24.6582L52.832-18.0176Q49.2676-14.502 45.752-14.0869Q42.2363-13.6719 39.4043-16.4062Q36.5723-19.2383 36.9629-22.7783Q37.3535-26.3184 40.918-29.8828L45.459-34.375Q44.9219-35.7422 44.8486-37.8418Q44.7754-39.9414 45.3613-41.748L37.0117-33.5449Q31.7383-28.2227 31.3477-22.7051Q30.957-17.1875 35.5469-12.5488ZM80.957-58.1543Q76.3184-62.6953 70.8252-62.3047Q65.332-61.9141 60.0098-56.5918L53.1738-49.7559Q47.7051-44.3359 47.29-38.8184Q46.875-33.3008 51.5137-28.6621Q52.7344-27.4414 54.0527-26.6113Q55.3711-25.7812 56.3477-25.5371Q57.4219-26.3184 58.5449-27.6367Q59.668-28.9551 60.1562-30.1758Q58.6914-30.4199 57.4219-31.0303Q56.1523-31.6406 55.3223-32.4707Q52.5391-35.3027 53.0029-38.8672Q53.4668-42.4316 57.0801-45.9961L63.7207-52.6855Q67.2363-56.2012 70.752-56.6162Q74.2676-57.0312 77.1484-54.248Q79.9316-51.416 79.5654-47.876Q79.1992-44.3359 75.5859-40.8203L71.0449-36.2793Q71.6309-34.9609 71.7041-32.8857Q71.7773-30.8105 71.1914-28.9062L79.4922-37.1094Q84.8145-42.4805 85.2051-47.9736Q85.5957-53.4668 80.957-58.1543Z"/>
  </g>
  <g id="Regular-M" transform="matrix(1 0 0 1 1391.3 1126)">
   <path d="M58.5449 14.5508Q68.75 14.5508 77.7588 10.6445Q86.7676 6.73828 93.6523-0.146484Q100.537-7.03125 104.443-16.04Q108.35-25.0488 108.35-35.2539Q108.35-45.459 104.443-54.4678Q100.537-63.4766 93.6523-70.3613Q86.7676-77.2461 77.7344-81.1523Q68.7012-85.0586 58.4961-85.0586Q48.291-85.0586 39.2822-81.1523Q30.2734-77.2461 23.4131-70.3613Q16.5527-63.4766 12.6465-54.4678Q8.74023-45.459 8.74023-35.2539Q8.74023-25.0488 12.6465-16.04Q16.5527-7.03125 23.4375-0.146484Q30.3223 6.73828 39.3311 10.6445Q48.3398 14.5508 58.5449 14.5508ZM58.5449 6.25Q49.9023 6.25 42.3828 3.02734Q34.8633-0.195312 29.1748-5.88379Q23.4863-11.5723 20.2881-19.0918Q17.0898-26.6113 17.0898-35.2539Q17.0898-43.8965 20.2881-51.416Q23.4863-58.9355 29.1504-64.6484Q34.8145-70.3613 42.334-73.5596Q49.8535-76.7578 58.4961-76.7578Q67.1387-76.7578 74.6582-73.5596Q82.1777-70.3613 87.8906-64.6484Q93.6035-58.9355 96.8262-51.416Q100.049-43.8965 100.049-35.2539Q100.049-26.6113 96.8506-19.0918Q93.6523-11.5723 87.9639-5.88379Q82.2754-0.195312 74.7314 3.02734Q67.1875 6.25 58.5449 6.25ZM34.6191-12.2559Q39.209-7.71484 44.6777-8.10547Q50.1465-8.49609 55.4688-13.8184L62.793-21.0938Q68.1641-26.5137 68.6035-32.0068Q69.043-37.5 64.4043-42.0898Q63.1348-43.4082 61.8164-44.2139Q60.498-45.0195 59.4238-45.2148Q58.3984-44.4824 57.2998-43.2373Q56.2012-41.9922 55.6641-40.7227Q57.3242-40.4785 58.6182-39.917Q59.9121-39.3555 60.791-38.4766Q63.623-35.5957 63.1836-31.958Q62.7441-28.3203 58.9844-24.6582L51.9531-17.5293Q48.3398-13.9648 44.751-13.5742Q41.1621-13.1836 38.2812-15.9668Q35.4004-18.8477 35.7666-22.4609Q36.1328-26.0742 39.7949-29.6875L44.8242-34.668Q44.2871-36.084 44.2627-38.0371Q44.2383-39.9902 44.8242-41.7969L36.084-33.1543Q30.8105-27.832 30.4199-22.3633Q30.0293-16.8945 34.6191-12.2559ZM80.6641-58.4473Q76.0742-62.9883 70.6055-62.5977Q65.1367-62.207 59.8145-56.8848L52.5391-49.6094Q47.1191-44.1895 46.6797-38.7207Q46.2402-33.252 50.8789-28.6133Q52.1484-27.2949 53.4912-26.4893Q54.834-25.6836 55.8594-25.4883Q56.8848-26.2207 57.9834-27.4658Q59.082-28.7109 59.6191-29.9805Q57.959-30.2246 56.665-30.7861Q55.3711-31.3477 54.4922-32.2266Q51.6602-35.1074 52.124-38.7451Q52.5879-42.3828 56.2988-46.0449L63.3789-53.1738Q66.9434-56.7383 70.5322-57.1533Q74.1211-57.5684 77.0508-54.7363Q79.9316-51.8555 79.5654-48.2422Q79.1992-44.6289 75.4883-41.0645L70.459-36.0352Q71.0449-34.6191 71.0693-32.6904Q71.0938-30.7617 70.459-28.9062L79.1992-37.5488Q84.5215-42.8711 84.9121-48.3398Q85.3027-53.8086 80.6641-58.4473Z"/>
  </g>
  <g id="Light-M" transform="matrix(1 0 0 1 1095.42 1126)">
   <path d="M57.7148 13.7207Q67.7734 13.7207 76.6357 9.8877Q85.498 6.05469 92.2607-0.708008Q99.0234-7.4707 102.856-16.333Q106.689-25.1953 106.689-35.2539Q106.689-45.3125 102.856-54.1748Q99.0234-63.0371 92.2607-69.7998Q85.498-76.5625 76.6113-80.3955Q67.7246-84.2285 57.666-84.2285Q47.6074-84.2285 38.7451-80.3955Q29.8828-76.5625 23.1445-69.7998Q16.4062-63.0371 12.5732-54.1748Q8.74023-45.3125 8.74023-35.2539Q8.74023-25.1953 12.5732-16.333Q16.4062-7.4707 23.1689-0.708008Q29.9316 6.05469 38.7939 9.8877Q47.6562 13.7207 57.7148 13.7207ZM57.7148 7.37305Q48.877 7.37305 41.1377 4.07715Q33.3984 0.78125 27.5391-5.07812Q21.6797-10.9375 18.3838-18.6768Q15.0879-26.416 15.0879-35.2539Q15.0879-44.0918 18.3838-51.8311Q21.6797-59.5703 27.5391-65.4541Q33.3984-71.3379 41.1133-74.6338Q48.8281-77.9297 57.666-77.9297Q66.5527-77.9297 74.2676-74.6338Q81.9824-71.3379 87.8662-65.4541Q93.75-59.5703 97.0703-51.8311Q100.391-44.0918 100.391-35.2539Q100.391-26.416 97.0703-18.6768Q93.75-10.9375 87.915-5.07812Q82.0801 0.78125 74.3408 4.07715Q66.6016 7.37305 57.7148 7.37305ZM33.9355-12.5977Q38.3301-8.25195 43.5303-8.56934Q48.7305-8.88672 53.6621-13.8184L62.0117-22.1191Q66.9922-27.1484 67.3584-32.3975Q67.7246-37.6465 63.2812-41.9922Q61.8164-43.457 60.3516-44.3115Q58.8867-45.166 57.5684-45.3613Q56.6895-44.7266 55.7861-43.7012Q54.8828-42.6758 54.4434-41.5527Q56.25-41.4062 57.6904-40.7959Q59.1309-40.1855 60.3027-38.9648Q63.2324-36.0352 62.915-32.3486Q62.5977-28.6621 58.9844-25.1465L50.6836-16.8457Q47.168-13.3301 43.5303-13.0371Q39.8926-12.7441 36.9629-15.625Q34.0332-18.5547 34.3018-22.2168Q34.5703-25.8789 38.0859-29.3945L44.3848-35.6934Q44.043-36.9141 44.0674-38.5498Q44.0918-40.1855 44.6777-41.8457L35.1074-32.3242Q30.1758-27.3926 29.8584-22.168Q29.541-16.9434 33.9355-12.5977ZM79.541-58.252Q75.1465-62.5977 69.9463-62.2559Q64.7461-61.9141 59.8145-57.0312L51.4648-48.6816Q46.4355-43.7012 46.0938-38.4766Q45.752-33.252 50.1465-28.8574Q51.6602-27.3926 53.125-26.5381Q54.5898-25.6836 55.8594-25.4883Q56.7383-26.123 57.666-27.1484Q58.5938-28.1738 58.9844-29.2969Q57.2266-29.4434 55.7861-30.0537Q54.3457-30.6641 53.1738-31.8848Q50.1953-34.7656 50.5371-38.4521Q50.8789-42.1387 54.4922-45.7031L62.793-54.0039Q66.2598-57.5195 69.8975-57.8125Q73.5352-58.1055 76.5137-55.1758Q79.4922-52.2461 79.2236-48.584Q78.9551-44.9219 75.3418-41.5039L69.043-35.1562Q69.4824-33.9355 69.4336-32.2998Q69.3848-30.6641 68.75-29.0039L78.3203-38.5254Q83.3008-43.457 83.6182-48.6572Q83.9355-53.8574 79.541-58.252Z"/>
  </g>
  <g id="Thin-M" transform="matrix(1 0 0 1 799.782 1126)">
   <path d="M56.5918 12.5977Q66.5039 12.5977 75.1709 8.88672Q83.8379 5.17578 90.4297-1.44043Q97.0215-8.05664 100.781-16.7236Q104.541-25.3906 104.541-35.2539Q104.541-45.1172 100.781-53.7842Q97.0215-62.4512 90.4297-69.0674Q83.8379-75.6836 75.1709-79.3945Q66.5039-83.1055 56.5918-83.1055Q46.7285-83.1055 38.0615-79.3945Q29.3945-75.6836 22.8271-69.0674Q16.2598-62.4512 12.5-53.7842Q8.74023-45.1172 8.74023-35.2539Q8.74023-25.3906 12.4756-16.7236Q16.2109-8.05664 22.8027-1.44043Q29.3945 5.17578 38.0859 8.88672Q46.7773 12.5977 56.5918 12.5977ZM56.5918 8.88672Q47.4609 8.88672 39.4775 5.44434Q31.4941 2.00195 25.415-4.05273Q19.3359-10.1074 15.918-18.1152Q12.5-26.123 12.5-35.2539Q12.5-44.3848 15.918-52.3926Q19.3359-60.4004 25.415-66.4795Q31.4941-72.5586 39.4775-76.001Q47.4609-79.4434 56.5918-79.4434Q65.7715-79.4434 73.7549-76.001Q81.7383-72.5586 87.8174-66.4795Q93.8965-60.4004 97.3389-52.3926Q100.781-44.3848 100.781-35.2539Q100.781-26.123 97.3633-18.1152Q93.9453-10.1074 87.8662-4.05273Q81.7871 2.00195 73.7793 5.44434Q65.7715 8.88672 56.5918 8.88672ZM33.1055-12.9395Q37.207-8.88672 42.0654-9.13086Q46.9238-9.375 51.3184-13.7695L61.084-23.4863Q65.5273-27.8809 65.7715-32.8125Q66.0156-37.7441 61.9141-41.748Q60.1562-43.457 58.5205-44.3604Q56.8848-45.2637 55.1758-45.459Q54.541-45.0195 53.8818-44.2627Q53.2227-43.5059 52.9297-42.5781Q54.834-42.5781 56.4941-41.8945Q58.1543-41.2109 59.668-39.5996Q62.793-36.5723 62.6465-32.8125Q62.5-29.0527 58.9844-25.7324L49.0723-15.8203Q45.7031-12.4512 42.0166-12.3047Q38.3301-12.1582 35.3027-15.1367Q32.2754-18.1641 32.3975-21.875Q32.5195-25.5859 35.9375-28.9062L43.9453-37.0117Q43.75-37.9395 43.8721-39.1846Q43.9941-40.4297 44.5801-41.8457L33.8867-31.1523Q29.4434-26.7578 29.2236-21.875Q29.0039-16.9922 33.1055-12.9395ZM78.125-57.9102Q73.9746-62.0117 69.1162-61.7676Q64.2578-61.5234 59.8633-57.1289L50.0977-47.4121Q45.6543-43.0176 45.4102-38.0859Q45.166-33.1543 49.2676-29.1016Q51.0254-27.3926 52.6855-26.4893Q54.3457-25.5859 56.0059-25.4395Q56.6406-25.8789 57.2998-26.6357Q57.959-27.3926 58.252-28.3203Q56.3477-28.3203 54.6875-29.0039Q53.0273-29.6875 51.5137-31.3477Q48.3887-34.2773 48.5596-38.0371Q48.7305-41.7969 52.1973-45.166L62.1094-55.0293Q65.4785-58.4961 69.165-58.6426Q72.8516-58.7891 75.8789-55.7129Q78.9551-52.7344 78.833-48.999Q78.7109-45.2637 75.2441-41.9922L67.2363-33.8867Q67.4316-32.959 67.334-31.7139Q67.2363-30.4688 66.6016-29.0039L77.2949-39.6973Q81.7383-44.0918 81.9824-48.999Q82.2266-53.9062 78.125-57.9102Z"/>
  </g>
  <g id="Ultralight-M" transform="matrix(1 0 0 1 503.632 1126)">
   <path d="M56.0547 12.0605Q65.8203 12.0605 74.3896 8.37402Q82.959 4.6875 89.4775-1.83105Q95.9961-8.34961 99.707-16.9189Q103.418-25.4883 103.418-35.2539Q103.418-45.0195 99.707-53.5889Q95.9961-62.1582 89.4775-68.6768Q82.959-75.1953 74.3896-78.8818Q65.8203-82.5684 56.0547-82.5684Q46.2891-82.5684 37.7197-78.8818Q29.1504-75.1953 22.6562-68.6768Q16.1621-62.1582 12.4512-53.5889Q8.74023-45.0195 8.74023-35.2539Q8.74023-25.4883 12.4268-16.9189Q16.1133-8.34961 22.6318-1.83105Q29.1504 4.6875 37.7197 8.37402Q46.2891 12.0605 56.0547 12.0605ZM56.0547 9.66797Q46.7773 9.66797 38.6475 6.17676Q30.5176 2.68555 24.3164-3.49121Q18.1152-9.66797 14.624-17.8223Q11.1328-25.9766 11.1328-35.2539Q11.1328-44.5312 14.624-52.6855Q18.1152-60.8398 24.3164-67.041Q30.5176-73.2422 38.6475-76.7334Q46.7773-80.2246 56.0547-80.2246Q65.3809-80.2246 73.5107-76.7334Q81.6406-73.2422 87.8174-67.041Q93.9941-60.8398 97.5098-52.6855Q101.025-44.5312 101.025-35.2539Q101.025-25.9766 97.5098-17.8223Q93.9941-9.66797 87.8174-3.49121Q81.6406 2.68555 73.5107 6.17676Q65.3809 9.66797 56.0547 9.66797ZM32.6172-13.1836Q36.6211-9.27734 41.2598-9.44824Q45.8984-9.61914 50.0488-13.7695L60.5469-24.1699Q64.7461-28.3203 64.917-33.0811Q65.0879-37.8418 61.1328-41.6992Q59.2285-43.5059 57.4951-44.458Q55.7617-45.4102 53.9062-45.6055Q53.3691-45.2148 52.832-44.5801Q52.2949-43.9453 52.0508-43.1152Q54.1016-43.2129 55.835-42.4805Q57.5684-41.748 59.3262-39.9414Q62.5-36.9141 62.4268-33.1299Q62.3535-29.3457 58.9844-26.0742L48.1934-15.3809Q44.9219-12.0117 41.1865-11.9385Q37.4512-11.8652 34.4238-14.9414Q31.2988-17.9688 31.3721-21.7285Q31.4453-25.4883 34.7656-28.7598L43.6035-37.6953Q43.5547-38.4766 43.7012-39.5264Q43.8477-40.5762 44.4336-41.8945L33.2031-30.6152Q29.0039-26.4648 28.833-21.7529Q28.6621-17.041 32.6172-13.1836ZM77.3438-57.8125Q73.291-61.7676 68.6279-61.5479Q63.9648-61.3281 59.8633-57.2266L49.3652-46.7773Q45.166-42.6758 44.9951-37.915Q44.8242-33.1543 48.7793-29.2969Q50.6836-27.4902 52.4414-26.5381Q54.1992-25.5859 55.957-25.4395Q56.4941-25.8301 57.0557-26.4404Q57.6172-27.0508 57.8125-27.8809Q55.8105-27.7832 54.0527-28.4912Q52.2949-29.1992 50.5859-31.1035Q47.3633-34.082 47.4609-37.8662Q47.5586-41.6504 50.9277-44.9219L61.6699-55.6152Q64.9902-59.0332 68.7012-59.1064Q72.4121-59.1797 75.4883-56.0547Q78.6133-52.9785 78.5889-49.2432Q78.5645-45.5078 75.0977-42.2852L66.2598-33.3008Q66.3574-32.5195 66.1865-31.4697Q66.0156-30.4199 65.4297-29.1016L76.6602-40.3809Q80.8594-44.5312 81.0791-49.2432Q81.2988-53.9551 77.3438-57.8125Z"/>
  </g>
  <g id="Black-S" transform="matrix(1 0 0 1 2884.57 696)">
   <path d="M48.8281 6.78711Q57.5195 6.78711 65.1123 3.51562Q72.7051 0.244141 78.4912-5.54199Q84.2773-11.3281 87.5488-18.9209Q90.8203-26.5137 90.8203-35.2051Q90.8203-43.8965 87.5488-51.4893Q84.2773-59.082 78.4912-64.8682Q72.7051-70.6543 65.1123-73.9258Q57.5195-77.1973 48.8281-77.1973Q40.1367-77.1973 32.5439-73.9258Q24.9512-70.6543 19.165-64.8682Q13.3789-59.082 10.1074-51.4893Q6.83594-43.8965 6.83594-35.2051Q6.83594-26.5137 10.1074-18.9209Q13.3789-11.3281 19.165-5.54199Q24.9512 0.244141 32.5439 3.51562Q40.1367 6.78711 48.8281 6.78711ZM48.8281-7.37305Q43.0664-7.37305 38.0127-9.5459Q32.959-11.7188 29.1504-15.5273Q25.3418-19.3359 23.1689-24.3896Q20.9961-29.4434 20.9961-35.2051Q20.9961-40.9668 23.1689-46.0205Q25.3418-51.0742 29.1504-54.8828Q32.959-58.6914 38.0127-60.8643Q43.0664-63.0371 48.8281-63.0371Q54.5898-63.0371 59.6436-60.8643Q64.6973-58.6914 68.5059-54.8828Q72.3145-51.0742 74.4873-46.0205Q76.6602-40.9668 76.6602-35.2051Q76.6602-29.4434 74.4873-24.3896Q72.3145-19.3359 68.5059-15.5273Q64.6973-11.7188 59.6436-9.5459Q54.5898-7.37305 48.8281-7.37305ZM31.6406-18.5547Q35.3516-14.8438 39.7461-15.21Q44.1406-15.5762 48.3887-19.7266L52.0996-23.291Q56.4453-27.4902 56.7139-32.0068Q56.9824-36.5234 53.2227-40.0879Q52.4902-40.7715 51.6113-41.4795Q50.7324-42.1875 50.0488-42.6758Q49.0234-41.8457 48.0469-40.5762Q47.0703-39.3066 46.8262-38.4766Q47.3145-38.1836 48.1934-37.5732Q49.0723-36.9629 49.5605-36.4258Q51.5625-34.4727 51.2451-31.9824Q50.9277-29.4922 48.3398-26.9043L44.9219-23.5352Q42.2852-20.9961 39.8193-20.6299Q37.3535-20.2637 35.3516-22.2168Q33.3984-24.1699 33.7158-26.709Q34.0332-29.248 36.6211-31.7871L38.2812-33.3984Q37.6953-34.2285 37.4756-36.4258Q37.2559-38.623 37.6465-40.1855L32.8125-35.3516Q28.6133-31.1523 28.2959-26.6846Q27.9785-22.2168 31.6406-18.5547ZM64.5508-51.8555Q60.8398-55.5664 56.4453-55.2002Q52.0508-54.834 47.8027-50.6836L44.0918-47.1191Q39.7949-42.9688 39.5264-38.4277Q39.2578-33.8867 42.9688-30.3223Q43.7012-29.6387 44.6045-28.9307Q45.5078-28.2227 46.1426-27.7344Q47.168-28.5645 48.1445-29.8584Q49.1211-31.1523 49.3652-31.9336Q48.877-32.2266 48.0225-32.8613Q47.168-33.4961 46.6309-33.9844Q44.6777-35.9863 44.9707-38.4766Q45.2637-40.9668 47.8516-43.5059L51.2695-46.875Q53.9062-49.4629 56.3965-49.8047Q58.8867-50.1465 60.8398-48.1934Q62.8418-46.2402 62.5-43.7256Q62.1582-41.2109 59.5703-38.623L57.9102-37.0117Q58.4961-36.2305 58.7158-34.0088Q58.9355-31.7871 58.5449-30.2246L63.3789-35.0586Q67.5781-39.2578 67.8955-43.7256Q68.2129-48.1934 64.5508-51.8555Z"/>
  </g>
  <g id="Heavy-S" transform="matrix(1 0 0 1 2588.47 696)">
   <path d="M48.1934 6.15234Q56.7871 6.15234 64.2578 2.92969Q71.7285-0.292969 77.4414-6.00586Q83.1543-11.7188 86.377-19.1895Q89.5996-26.6602 89.5996-35.2051Q89.5996-43.75 86.377-51.2451Q83.1543-58.7402 77.4414-64.4531Q71.7285-70.166 64.2334-73.3887Q56.7383-76.6113 48.1934-76.6113Q39.6484-76.6113 32.1777-73.3887Q24.707-70.166 18.9941-64.4531Q13.2812-58.7402 10.0586-51.2451Q6.83594-43.75 6.83594-35.2051Q6.83594-26.6602 10.0586-19.1895Q13.2812-11.7188 18.9941-6.00586Q24.707-0.292969 32.2021 2.92969Q39.6973 6.15234 48.1934 6.15234ZM48.1934-6.39648Q42.2363-6.39648 37.0117-8.64258Q31.7871-10.8887 27.8564-14.8438Q23.9258-18.7988 21.6797-24.0234Q19.4336-29.248 19.4336-35.2051Q19.4336-41.1621 21.6553-46.4111Q23.877-51.6602 27.832-55.5908Q31.7871-59.5215 37.0117-61.7676Q42.2363-64.0137 48.1934-64.0137Q54.1992-64.0137 59.4238-61.7676Q64.6484-59.5215 68.5791-55.5908Q72.5098-51.6602 74.7803-46.4111Q77.0508-41.1621 77.0508-35.2051Q77.0508-29.248 74.8047-24.0234Q72.5586-18.7988 68.6035-14.8438Q64.6484-10.8887 59.4238-8.64258Q54.1992-6.39648 48.1934-6.39648ZM30.6152-18.2129Q34.3262-14.502 38.7207-14.8682Q43.1152-15.2344 47.4121-19.4336L51.4648-23.3887Q55.8105-27.6367 56.1035-32.1289Q56.3965-36.6211 52.6855-40.2344Q51.9043-40.9668 51.001-41.6504Q50.0977-42.334 49.4141-42.7246Q48.3887-41.9434 47.4365-40.7227Q46.4844-39.502 46.1914-38.623Q46.8262-38.3789 47.7295-37.793Q48.6328-37.207 49.1211-36.6699Q51.1719-34.668 50.8301-32.1045Q50.4883-29.541 47.8027-26.8555L44.043-23.0957Q41.3574-20.5078 38.8184-20.1416Q36.2793-19.7754 34.1797-21.7773Q32.1777-23.7793 32.4951-26.3916Q32.8125-29.0039 35.498-31.5918L37.5488-33.5938Q36.9629-34.5215 36.792-36.5967Q36.6211-38.6719 37.0117-40.2344L31.8359-35.0098Q27.5879-30.8105 27.2705-26.3428Q26.9531-21.875 30.6152-18.2129ZM64.3555-52.2461Q60.6445-55.957 56.25-55.5908Q51.8555-55.2246 47.5586-51.0254L43.5059-47.0703Q39.1602-42.8711 38.8672-38.3545Q38.5742-33.8379 42.2852-30.2246Q43.0664-29.4922 43.9697-28.8086Q44.873-28.125 45.5566-27.6855Q46.5332-28.4668 47.5098-29.7119Q48.4863-30.957 48.7793-31.8359Q48.0957-32.0801 47.2412-32.666Q46.3867-33.252 45.8008-33.7891Q43.8477-35.8398 44.165-38.4033Q44.4824-40.9668 47.168-43.6035L50.9277-47.3633Q53.6133-50 56.1768-50.3418Q58.7402-50.6836 60.7422-48.6816Q62.793-46.6797 62.4512-44.0918Q62.1094-41.5039 59.4727-38.8184L57.4219-36.8164Q57.959-35.9375 58.1543-33.8623Q58.3496-31.7871 57.9102-30.2246L63.1348-35.4004Q67.3828-39.6484 67.7002-44.1162Q68.0176-48.584 64.3555-52.2461Z"/>
  </g>
  <g id="Bold-S" transform="matrix(1 0 0 1 2292.42 696)">
   <path d="M47.5586 5.46875Q55.957 5.46875 63.3057 2.29492Q70.6543-0.878906 76.2695-6.51855Q81.8848-12.1582 85.083-19.5068Q88.2812-26.8555 88.2812-35.2539Q88.2812-43.6035 85.083-50.9766Q81.8848-58.3496 76.2695-63.9648Q70.6543-69.5801 63.2812-72.7539Q55.9082-75.9277 47.5098-75.9277Q39.1602-75.9277 31.7871-72.7539Q24.4141-69.5801 18.8232-63.9648Q13.2324-58.3496 10.0342-50.9766Q6.83594-43.6035 6.83594-35.2539Q6.83594-26.8555 10.0342-19.5068Q13.2324-12.1582 18.8477-6.51855Q24.4629-0.878906 31.8115 2.29492Q39.1602 5.46875 47.5586 5.46875ZM47.5586-5.32227Q41.3574-5.32227 35.9375-7.6416Q30.5176-9.96094 26.416-14.0625Q22.3145-18.1641 19.9951-23.6084Q17.6758-29.0527 17.6758-35.2539Q17.6758-41.4551 19.9951-46.875Q22.3145-52.2949 26.3916-56.3965Q30.4688-60.498 35.8887-62.8174Q41.3086-65.1367 47.5098-65.1367Q53.7598-65.1367 59.1797-62.8174Q64.5996-60.498 68.7012-56.3965Q72.8027-52.2949 75.1221-46.875Q77.4414-41.4551 77.4414-35.2539Q77.4414-29.0527 75.1221-23.6084Q72.8027-18.1641 68.7256-14.0625Q64.6484-9.96094 59.2041-7.6416Q53.7598-5.32227 47.5586-5.32227ZM29.5898-17.8223Q33.252-14.1602 37.6709-14.502Q42.0898-14.8438 46.3867-19.0918L50.8301-23.4863Q55.2246-27.7832 55.542-32.251Q55.8594-36.7188 52.1484-40.3809Q51.3184-41.2109 50.3906-41.8701Q49.4629-42.5293 48.7793-42.8223Q47.8027-42.0898 46.8506-40.918Q45.8984-39.7461 45.5566-38.8184Q46.3867-38.5742 47.29-38.0371Q48.1934-37.5 48.7305-36.9629Q50.8301-34.9121 50.4639-32.251Q50.0977-29.5898 47.3145-26.8066L43.1152-22.6562Q40.3809-19.9219 37.7441-19.5557Q35.1074-19.1895 33.0078-21.2891Q30.9082-23.3398 31.25-26.0254Q31.5918-28.7109 34.3262-31.3965L36.8164-33.8379Q36.2793-34.8633 36.1328-36.792Q35.9863-38.7207 36.4258-40.2832L30.8105-34.668Q26.5137-30.4199 26.1963-25.9766Q25.8789-21.5332 29.5898-17.8223ZM64.1602-52.6855Q60.498-56.3477 56.0791-56.0059Q51.6602-55.6641 47.3633-51.416L42.9199-47.0215Q38.5254-42.7246 38.208-38.2568Q37.8906-33.7891 41.6016-30.127Q42.4316-29.2969 43.3594-28.6377Q44.2871-27.9785 44.9707-27.6855Q45.9473-28.418 46.8994-29.5898Q47.8516-30.7617 48.1934-31.6895Q47.3633-31.9824 46.46-32.4951Q45.5566-33.0078 45.0195-33.5449Q42.9688-35.6445 43.3105-38.3057Q43.6523-40.9668 46.4355-43.7012L50.6348-47.9004Q53.3691-50.5859 56.0059-50.9521Q58.6426-51.3184 60.7422-49.2188Q62.8418-47.168 62.5-44.5068Q62.1582-41.8457 59.4238-39.1113L56.9336-36.6699Q57.4707-35.6445 57.6172-33.7158Q57.7637-31.7871 57.3242-30.2246L62.9395-35.8398Q67.2363-40.0879 67.5537-44.5312Q67.8711-48.9746 64.1602-52.6855Z"/>
  </g>
  <g id="Semibold-S" transform="matrix(1 0 0 1 1996.2 696)">
   <path d="M47.0703 4.98047Q55.3711 4.98047 62.6465 1.85547Q69.9219-1.26953 75.4639-6.86035Q81.0059-12.4512 84.1553-19.7266Q87.3047-27.002 87.3047-35.2539Q87.3047-43.5059 84.1553-50.7812Q81.0059-58.0566 75.4395-63.623Q69.873-69.1895 62.5977-72.3389Q55.3223-75.4883 47.0215-75.4883Q38.7695-75.4883 31.4941-72.3389Q24.2188-69.1895 18.6768-63.623Q13.1348-58.0566 9.98535-50.7812Q6.83594-43.5059 6.83594-35.2539Q6.83594-27.002 9.98535-19.7266Q13.1348-12.4512 18.7012-6.86035Q24.2676-1.26953 31.543 1.85547Q38.8184 4.98047 47.0703 4.98047ZM47.0703-4.58984Q40.7227-4.58984 35.1562-6.95801Q29.5898-9.32617 25.3906-13.5254Q21.1914-17.7246 18.8232-23.291Q16.4551-28.8574 16.4551-35.2539Q16.4551-41.6016 18.8232-47.168Q21.1914-52.7344 25.3662-56.9336Q29.541-61.1328 35.1074-63.5254Q40.6738-65.918 47.0215-65.918Q53.418-65.918 58.9844-63.5254Q64.5508-61.1328 68.75-56.9336Q72.9492-52.7344 75.3418-47.168Q77.7344-41.6016 77.7344-35.2539Q77.7344-28.8574 75.3662-23.291Q72.998-17.7246 68.7988-13.5254Q64.5996-9.32617 59.0332-6.95801Q53.4668-4.58984 47.0703-4.58984ZM28.8086-17.5781Q32.4707-13.8672 36.8896-14.209Q41.3086-14.5508 45.6543-18.8477L50.3418-23.5352Q54.7852-27.8809 55.1025-32.3242Q55.4199-36.7676 51.709-40.4785Q50.8789-41.3574 49.9268-41.9922Q48.9746-42.627 48.291-42.8711Q47.3633-42.1875 46.4111-41.04Q45.459-39.8926 45.0684-38.916Q46.0449-38.6719 46.9482-38.1836Q47.8516-37.6953 48.3887-37.1582Q50.5371-35.0586 50.1465-32.3242Q49.7559-29.5898 46.875-26.7578L42.4316-22.3145Q39.6484-19.5312 36.9629-19.165Q34.2773-18.7988 32.0801-20.8984Q29.9805-23.0469 30.3223-25.7568Q30.6641-28.4668 33.4961-31.25L36.2793-33.9844Q35.6934-35.1074 35.5957-36.9385Q35.498-38.7695 35.9863-40.2832L30.0293-34.4238Q25.7324-30.127 25.415-25.6836Q25.0977-21.2402 28.8086-17.5781ZM64.0137-52.9785Q60.3027-56.6406 55.9082-56.2988Q51.5137-55.957 47.168-51.6602L42.4316-46.9727Q38.0371-42.627 37.6953-38.1836Q37.3535-33.7402 41.0645-30.0781Q41.9434-29.1504 42.8955-28.5156Q43.8477-27.8809 44.4824-27.6367Q45.459-28.3203 46.4111-29.4678Q47.3633-30.6152 47.7539-31.5918Q46.7773-31.8359 45.874-32.3242Q44.9707-32.8125 44.3848-33.3496Q42.2852-35.498 42.6758-38.208Q43.0664-40.918 45.8984-43.75L50.3418-48.2422Q53.125-50.9766 55.835-51.3428Q58.5449-51.709 60.6934-49.6094Q62.8418-47.4609 62.5-44.751Q62.1582-42.041 59.3262-39.2578L56.543-36.5234Q57.0801-35.4492 57.1777-33.5938Q57.2754-31.7383 56.8359-30.2246L62.7441-36.084Q67.041-40.3809 67.3584-44.8242Q67.6758-49.2676 64.0137-52.9785Z"/>
  </g>
  <g id="Medium-S" transform="matrix(1 0 0 1 1699.83 696)">
   <path d="M46.7285 4.63867Q54.9316 4.63867 62.1338 1.51367Q69.3359-1.61133 74.8535-7.12891Q80.3711-12.6465 83.4961-19.8486Q86.6211-27.0508 86.6211-35.2539Q86.6211-43.4082 83.4961-50.6348Q80.3711-57.8613 74.8291-63.3789Q69.2871-68.8965 62.085-71.9971Q54.8828-75.0977 46.6797-75.0977Q38.4766-75.0977 31.2744-71.9971Q24.0723-68.8965 18.5791-63.3789Q13.0859-57.8613 9.96094-50.6348Q6.83594-43.4082 6.83594-35.2539Q6.83594-27.0508 9.96094-19.8486Q13.0859-12.6465 18.6035-7.12891Q24.1211-1.61133 31.3232 1.51367Q38.5254 4.63867 46.7285 4.63867ZM46.7285-4.00391Q40.2344-4.00391 34.5703-6.4209Q28.9062-8.83789 24.6338-13.1348Q20.3613-17.4316 17.9443-23.0957Q15.5273-28.7598 15.5273-35.2539Q15.5273-41.748 17.9199-47.4121Q20.3125-53.0762 24.585-57.373Q28.8574-61.6699 34.5215-64.0869Q40.1855-66.5039 46.6797-66.5039Q53.1738-66.5039 58.8379-64.0869Q64.502-61.6699 68.7988-57.373Q73.0957-53.0762 75.5127-47.4121Q77.9297-41.748 77.9297-35.2539Q77.9297-28.7598 75.5127-23.0957Q73.0957-17.4316 68.8477-13.1348Q64.5996-8.83789 58.9111-6.4209Q53.2227-4.00391 46.7285-4.00391ZM28.2227-17.334Q31.8848-13.6719 36.3037-14.0137Q40.7227-14.3555 45.0684-18.7012L50-23.584Q54.4434-27.9785 54.7852-32.4219Q55.127-36.8652 51.416-40.5273Q50.5371-41.4551 49.585-42.0898Q48.6328-42.7246 47.9004-42.9199Q47.0215-42.2363 46.0693-41.1377Q45.1172-40.0391 44.6777-39.0137Q45.752-38.7695 46.6797-38.3057Q47.6074-37.8418 48.1934-37.3047Q50.293-35.1562 49.9023-32.373Q49.5117-29.5898 46.582-26.709L41.9434-22.0703Q39.1113-19.2383 36.377-18.8721Q33.6426-18.5059 31.4453-20.6543Q29.2969-22.8027 29.6387-25.5615Q29.9805-28.3203 32.8125-31.1523L35.8398-34.1309Q35.3027-35.2539 35.2295-37.0117Q35.1562-38.7695 35.6445-40.2832L29.4434-34.2285Q25.1465-29.9316 24.8291-25.4883Q24.5117-21.0449 28.2227-17.334ZM63.8672-53.1738Q60.2051-56.8359 55.7861-56.5186Q51.3672-56.2012 47.0215-51.8555L42.0898-46.9727Q37.6953-42.5781 37.3535-38.1348Q37.0117-33.6914 40.7227-29.9805Q41.5527-29.1016 42.5293-28.4668Q43.5059-27.832 44.1406-27.6367Q45.1172-28.2715 46.0449-29.3945Q46.9727-30.5176 47.4121-31.543Q46.3379-31.7871 45.4102-32.251Q44.4824-32.7148 43.9453-33.2031Q41.7969-35.4492 42.1875-38.1836Q42.5781-40.918 45.5078-43.8477L50.1465-48.5352Q52.9785-51.3184 55.7129-51.6846Q58.4473-52.0508 60.6445-49.8535Q62.8418-47.7051 62.5-44.9707Q62.1582-42.2363 59.2773-39.4043L56.25-36.4258Q56.7871-35.2539 56.8604-33.4961Q56.9336-31.7383 56.4941-30.2246L62.6465-36.2793Q66.9434-40.625 67.2607-45.0439Q67.5781-49.4629 63.8672-53.1738Z"/>
  </g>
  <g id="Regular-S" transform="matrix(1 0 0 1 1403.58 696)">
   <path d="M46.2402 4.15039Q54.3457 4.15039 61.4746 1.07422Q68.6035-2.00195 74.0479-7.4707Q79.4922-12.9395 82.5928-20.0684Q85.6934-27.1973 85.6934-35.2539Q85.6934-43.3105 82.5928-50.4395Q79.4922-57.5684 74.0234-63.0371Q68.5547-68.5059 61.4258-71.582Q54.2969-74.6582 46.1914-74.6582Q38.1348-74.6582 31.0059-71.582Q23.877-68.5059 18.457-63.0371Q13.0371-57.5684 9.93652-50.4395Q6.83594-43.3105 6.83594-35.2539Q6.83594-27.1973 9.93652-20.0684Q13.0371-12.9395 18.4814-7.4707Q23.9258-2.00195 31.0547 1.07422Q38.1836 4.15039 46.2402 4.15039ZM46.2402-3.27148Q39.5996-3.27148 33.8135-5.7373Q28.0273-8.20312 23.6572-12.5977Q19.2871-16.9922 16.8213-22.8027Q14.3555-28.6133 14.3555-35.2539Q14.3555-41.8945 16.7969-47.7051Q19.2383-53.5156 23.6084-57.9102Q27.9785-62.3047 33.7646-64.7705Q39.5508-67.2363 46.1914-67.2363Q52.8809-67.2363 58.667-64.7705Q64.4531-62.3047 68.8477-57.9102Q73.2422-53.5156 75.7324-47.7051Q78.2227-41.8945 78.2227-35.2539Q78.2227-28.6133 75.7568-22.8027Q73.291-16.9922 68.9209-12.5977Q64.5508-8.20312 58.7402-5.7373Q52.9297-3.27148 46.2402-3.27148ZM27.4414-17.0898Q31.1035-13.4277 35.5225-13.7451Q39.9414-14.0625 44.3359-18.457L49.5117-23.6328Q53.9551-28.0762 54.3213-32.4951Q54.6875-36.9141 50.9766-40.625Q50.0977-41.6016 49.1211-42.2119Q48.1445-42.8223 47.4121-42.9688Q46.5332-42.334 45.6055-41.2598Q44.6777-40.1855 44.1895-39.1113Q45.4102-38.916 46.3379-38.4766Q47.2656-38.0371 47.8516-37.5Q50-35.3027 49.585-32.4707Q49.1699-29.6387 46.1914-26.6602L41.2598-21.7285Q38.3789-18.8477 35.5957-18.4814Q32.8125-18.1152 30.5664-20.3125Q28.3691-22.5098 28.7109-25.3174Q29.0527-28.125 31.9824-31.0059L35.3027-34.2773Q34.7656-35.498 34.7168-37.1582Q34.668-38.8184 35.1562-40.332L28.7109-33.9844Q24.3652-29.6387 24.0479-25.2197Q23.7305-20.8008 27.4414-17.0898ZM63.7207-53.4668Q60.0586-57.1289 55.6396-56.8115Q51.2207-56.4941 46.8262-52.0996L41.6504-46.9238Q37.207-42.4805 36.8408-38.0615Q36.4746-33.6426 40.1855-29.9316Q41.0645-28.9551 42.041-28.3447Q43.0176-27.7344 43.7012-27.5879Q44.6289-28.2227 45.5566-29.2969Q46.4844-30.3711 46.9727-31.4453Q45.752-31.6895 44.8242-32.1045Q43.8965-32.5195 43.3105-33.0566Q41.1621-35.3027 41.5771-38.1104Q41.9922-40.918 44.9707-43.8965L49.9023-48.877Q52.7344-51.709 55.542-52.0752Q58.3496-52.4414 60.5957-50.2441Q62.793-48.0469 62.4512-45.2393Q62.1094-42.4316 59.1797-39.5508L55.8594-36.2793Q56.3965-35.0586 56.4453-33.3984Q56.4941-31.7383 56.0059-30.2246L62.4512-36.5723Q66.7969-40.918 67.1143-45.3369Q67.4316-49.7559 63.7207-53.4668Z"/>
  </g>
  <g id="Light-S" transform="matrix(1 0 0 1 1107.6 696)">
   <path d="M45.5078 3.41797Q53.4668 3.41797 60.4736 0.415039Q67.4805-2.58789 72.8271-7.95898Q78.1738-13.3301 81.2012-20.3125Q84.2285-27.2949 84.2285-35.2539Q84.2285-43.2129 81.2012-50.1953Q78.1738-57.1777 72.8027-62.5488Q67.4316-67.9199 60.4492-70.9229Q53.4668-73.9258 45.459-73.9258Q37.5488-73.9258 30.542-70.9229Q23.5352-67.9199 18.2129-62.5488Q12.8906-57.1777 9.86328-50.1953Q6.83594-43.2129 6.83594-35.2539Q6.83594-27.2949 9.86328-20.3125Q12.8906-13.3301 18.2373-7.95898Q23.584-2.58789 30.5908 0.415039Q37.5977 3.41797 45.5078 3.41797ZM45.5078-2.29492Q38.6719-2.29492 32.6904-4.83398Q26.709-7.37305 22.1924-11.9141Q17.6758-16.4551 15.1367-22.4365Q12.5977-28.418 12.5977-35.2539Q12.5977-42.0898 15.1367-48.0713Q17.6758-54.0527 22.1924-58.5938Q26.709-63.1348 32.666-65.6738Q38.623-68.2129 45.459-68.2129Q52.3438-68.2129 58.3252-65.6738Q64.3066-63.1348 68.8232-58.5938Q73.3398-54.0527 75.9277-48.0713Q78.5156-42.0898 78.5156-35.2539Q78.5156-28.418 75.9521-22.4365Q73.3887-16.4551 68.8721-11.9141Q64.3555-7.37305 58.374-4.83398Q52.3926-2.29492 45.5078-2.29492ZM26.8555-17.3828Q30.3711-13.916 34.5459-14.1846Q38.7207-14.4531 42.7246-18.457L48.877-24.5605Q52.9785-28.6133 53.2471-32.8369Q53.5156-37.0605 50-40.5273Q48.9746-41.6504 47.876-42.3096Q46.7773-42.9688 45.8008-43.1152Q45.0684-42.5781 44.2871-41.6748Q43.5059-40.7715 43.1641-39.8438Q44.4824-39.7461 45.5566-39.2578Q46.6309-38.7695 47.4609-37.9395Q49.707-35.6934 49.3896-32.8369Q49.0723-29.9805 46.1914-27.0996L40.1855-21.0938Q37.4023-18.3105 34.5703-18.042Q31.7383-17.7734 29.4434-20.0195Q27.1973-22.2656 27.4414-25.1221Q27.6855-27.9785 30.5176-30.7617L34.9609-35.2051Q34.5703-36.2305 34.5703-37.6221Q34.5703-39.0137 35.0586-40.3809L27.8809-33.252Q23.877-29.248 23.6084-25.0488Q23.3398-20.8496 26.8555-17.3828ZM62.7441-53.3203Q59.2773-56.7871 55.0781-56.5186Q50.8789-56.25 46.875-52.2461L40.7227-46.1426Q36.6699-42.041 36.377-37.8418Q36.084-33.6426 39.5996-30.127Q40.6738-29.0527 41.7725-28.3936Q42.8711-27.7344 43.75-27.5879Q44.5312-28.125 45.3125-29.0039Q46.0938-29.8828 46.4844-30.8594Q45.1172-31.0059 44.0674-31.4697Q43.0176-31.9336 42.1875-32.7148Q39.9414-35.0098 40.2344-37.8662Q40.5273-40.7227 43.4082-43.5547L49.4141-49.6094Q52.1973-52.3926 55.0293-52.6611Q57.8613-52.9297 60.1562-50.6836Q62.4512-48.4375 62.207-45.5811Q61.9629-42.7246 59.082-39.9414L54.6387-35.498Q55.0293-34.4727 55.0293-33.0811Q55.0293-31.6895 54.541-30.3223L61.7188-37.4023Q65.7227-41.4062 65.9912-45.6055Q66.2598-49.8047 62.7441-53.3203Z"/>
  </g>
  <g id="Thin-S" transform="matrix(1 0 0 1 811.867 696)">
   <path d="M44.5312 2.44141Q52.3438 2.44141 59.1553-0.488281Q65.9668-3.41797 71.1914-8.64258Q76.416-13.8672 79.3457-20.6787Q82.2754-27.4902 82.2754-35.2539Q82.2754-43.0176 79.3457-49.8291Q76.416-56.6406 71.1914-61.8652Q65.9668-67.0898 59.1553-70.0195Q52.3438-72.9492 44.5312-72.9492Q36.7676-72.9492 29.9316-70.0195Q23.0957-67.0898 17.9199-61.8652Q12.7441-56.6406 9.79004-49.8291Q6.83594-43.0176 6.83594-35.2539Q6.83594-27.4902 9.79004-20.6787Q12.7441-13.8672 17.9199-8.64258Q23.0957-3.41797 29.9316-0.488281Q36.7676 2.44141 44.5312 2.44141ZM44.5312-0.927734Q37.4512-0.927734 31.2256-3.58887Q25-6.25 20.2881-10.9619Q15.5762-15.6738 12.915-21.9238Q10.2539-28.1738 10.2539-35.2539Q10.2539-42.334 12.915-48.584Q15.5762-54.834 20.2881-59.5459Q25-64.2578 31.2256-66.9189Q37.4512-69.5801 44.5312-69.5801Q51.6602-69.5801 57.8857-66.9189Q64.1113-64.2578 68.8232-59.5459Q73.5352-54.834 76.1963-48.584Q78.8574-42.334 78.8574-35.2539Q78.8574-28.1738 76.1963-21.9238Q73.5352-15.6738 68.8232-10.9619Q64.1113-6.25 57.8857-3.58887Q51.6602-0.927734 44.5312-0.927734ZM26.0742-17.6758Q29.3457-14.4531 33.2031-14.6484Q37.0605-14.8438 40.5762-18.4082L47.998-25.7324Q51.5625-29.2969 51.7578-33.2275Q51.9531-37.1582 48.7305-40.3809Q47.4121-41.6504 46.1426-42.3584Q44.873-43.0664 43.6523-43.2129Q43.1152-42.8223 42.5293-42.1631Q41.9434-41.5039 41.6992-40.7227Q43.1641-40.7715 44.4336-40.21Q45.7031-39.6484 46.8262-38.4766Q49.2188-36.1816 49.0723-33.252Q48.9258-30.3223 46.1914-27.6367L38.7207-20.2148Q36.0352-17.4805 33.1543-17.3584Q30.2734-17.2363 27.9297-19.5801Q25.5371-21.875 25.6592-24.8047Q25.7812-27.7344 28.5156-30.3711L34.4727-36.3281Q34.2773-37.1094 34.3506-38.1592Q34.4238-39.209 34.9121-40.3809L26.709-32.2266Q23.1445-28.7109 22.9492-24.8047Q22.7539-20.8984 26.0742-17.6758ZM61.4258-53.0762Q58.1543-56.25 54.2969-56.0547Q50.4395-55.8594 46.8262-52.3438L39.4531-45.0195Q35.8398-41.4551 35.6445-37.5244Q35.4492-33.5938 38.7695-30.3711Q40.0391-29.0527 41.3086-28.3691Q42.5781-27.6855 43.7988-27.5391Q44.3359-27.9297 44.8975-28.5889Q45.459-29.248 45.752-29.9805Q44.2383-29.9805 42.9932-30.5176Q41.748-31.0547 40.625-32.2266Q38.2324-34.5703 38.3789-37.4756Q38.5254-40.3809 41.2598-43.0664L48.7793-50.5371Q51.3672-53.2227 54.2725-53.3691Q57.1777-53.5156 59.5215-51.1719Q61.9141-48.8281 61.792-45.9229Q61.6699-43.0176 58.9355-40.3809L52.9785-34.375Q53.1738-33.5938 53.1006-32.5439Q53.0273-31.4941 52.5391-30.3223L60.6934-38.4766Q64.2578-42.041 64.4531-45.9473Q64.6484-49.8535 61.4258-53.0762Z"/>
  </g>
  <g id="Ultralight-S" transform="matrix(1 0 0 1 515.644 696)">
   <path d="M44.043 1.95312Q51.7578 1.95312 58.4717-0.927734Q65.1855-3.80859 70.3369-8.95996Q75.4883-14.1113 78.3936-20.8252Q81.2988-27.5391 81.2988-35.2539Q81.2988-42.9688 78.3936-49.6826Q75.4883-56.3965 70.3369-61.5479Q65.1855-66.6992 58.4717-69.5801Q51.7578-72.4609 44.043-72.4609Q36.377-72.4609 29.6387-69.5801Q22.9004-66.6992 17.7734-61.5479Q12.6465-56.3965 9.74121-49.6826Q6.83594-42.9688 6.83594-35.2539Q6.83594-27.5391 9.74121-20.8252Q12.6465-14.1113 17.7734-8.95996Q22.9004-3.80859 29.6387-0.927734Q36.377 1.95312 44.043 1.95312ZM44.043-0.292969Q36.8164-0.292969 30.4688-3.00293Q24.1211-5.71289 19.3115-10.5225Q14.502-15.332 11.7676-21.6797Q9.0332-28.0273 9.0332-35.2539Q9.0332-42.4805 11.7676-48.8281Q14.502-55.1758 19.3115-59.9854Q24.1211-64.7949 30.4688-67.5049Q36.8164-70.2148 44.043-70.2148Q51.2695-70.2148 57.6416-67.5049Q64.0137-64.7949 68.7988-59.9854Q73.584-55.1758 76.3184-48.8281Q79.0527-42.4805 79.0527-35.2539Q79.0527-28.0273 76.3428-21.6797Q73.6328-15.332 68.8232-10.5225Q64.0137-5.71289 57.666-3.00293Q51.3184-0.292969 44.043-0.292969ZM25.6836-17.8711Q28.8086-14.7949 32.5195-14.9658Q36.2305-15.1367 39.502-18.4082L47.5586-26.3672Q50.9277-29.6875 51.0498-33.4717Q51.1719-37.2559 48.0469-40.332Q46.6309-41.6992 45.2881-42.4316Q43.9453-43.1641 42.5293-43.3105Q42.1387-42.9688 41.6504-42.4316Q41.1621-41.8945 41.0156-41.2598Q42.5293-41.3086 43.8965-40.7471Q45.2637-40.1855 46.582-38.8184Q49.0234-36.4746 48.9258-33.5205Q48.8281-30.5664 46.1914-27.9785L37.9883-19.7754Q35.4004-17.1387 32.4951-17.0654Q29.5898-16.9922 27.1973-19.4336Q24.7559-21.7285 24.8047-24.6826Q24.8535-27.6367 27.5391-30.1758L34.2773-36.9629Q34.1797-37.6465 34.2773-38.501Q34.375-39.3555 34.8145-40.4297L26.1719-31.7871Q22.8027-28.4668 22.6562-24.707Q22.5098-20.9473 25.6836-17.8711ZM60.7422-52.9785Q57.6172-56.0547 53.9062-55.8838Q50.1953-55.7129 46.875-52.4414L38.8184-44.4824Q35.498-41.1621 35.3516-37.3779Q35.2051-33.5938 38.3789-30.5176Q39.7949-29.1504 41.1377-28.418Q42.4805-27.6855 43.8477-27.5391Q44.2383-27.8809 44.7266-28.3936Q45.2148-28.9062 45.4102-29.5898Q43.8477-29.541 42.5049-30.1025Q41.1621-30.6641 39.8438-32.0312Q37.4023-34.4238 37.4756-37.3535Q37.5488-40.2832 40.1855-42.8711L48.4375-51.0742Q51.0254-53.7109 53.9307-53.7842Q56.8359-53.8574 59.2285-51.4648Q61.6699-49.1211 61.6211-46.167Q61.5723-43.2129 58.8379-40.625L52.1973-33.8867Q52.2461-33.2031 52.1484-32.3486Q52.0508-31.4941 51.5625-30.4199L60.2051-39.0625Q63.5742-42.3828 63.7207-46.1426Q63.8672-49.9023 60.7422-52.9785Z"/>
  </g>
 </g>
</svg>
