<?xml version="1.0" encoding="UTF-8"?>
<!--Generator: Apple Native CoreSVG 149-->
<!DOCTYPE svg
PUBLIC "-//W3C//DTD SVG 1.1//EN"
       "http://www.w3.org/Graphics/SVG/1.1/DTD/svg11.dtd">
<svg version="1.1" xmlns="http://www.w3.org/2000/svg" xmlns:xlink="http://www.w3.org/1999/xlink" width="3300" height="2200">
 <!--glyph: "uni1002B9.medium", point size: 100.0, font version: "17.0d9e1", template writer version: "59"-->
 <g id="Notes">
  <rect height="2200" id="artboard" style="fill:white;opacity:1" width="3300" x="0" y="0"/>
  <line style="fill:none;stroke:black;opacity:1;stroke-width:0.5;" x1="263" x2="3036" y1="292" y2="292"/>
  <text style="stroke:none;fill:black;font-family:sans-serif;font-size:13;font-weight:bold;" transform="matrix(1 0 0 1 263 322)">Weight/Scale Variations</text>
  <text style="stroke:none;fill:black;font-family:sans-serif;font-size:13;text-anchor:middle;" transform="matrix(1 0 0 1 559.711 322)">Ultralight</text>
  <text style="stroke:none;fill:black;font-family:sans-serif;font-size:13;text-anchor:middle;" transform="matrix(1 0 0 1 856.422 322)">Thin</text>
  <text style="stroke:none;fill:black;font-family:sans-serif;font-size:13;text-anchor:middle;" transform="matrix(1 0 0 1 1153.13 322)">Light</text>
  <text style="stroke:none;fill:black;font-family:sans-serif;font-size:13;text-anchor:middle;" transform="matrix(1 0 0 1 1449.84 322)">Regular</text>
  <text style="stroke:none;fill:black;font-family:sans-serif;font-size:13;text-anchor:middle;" transform="matrix(1 0 0 1 1746.56 322)">Medium</text>
  <text style="stroke:none;fill:black;font-family:sans-serif;font-size:13;text-anchor:middle;" transform="matrix(1 0 0 1 2043.27 322)">Semibold</text>
  <text style="stroke:none;fill:black;font-family:sans-serif;font-size:13;text-anchor:middle;" transform="matrix(1 0 0 1 2339.98 322)">Bold</text>
  <text style="stroke:none;fill:black;font-family:sans-serif;font-size:13;text-anchor:middle;" transform="matrix(1 0 0 1 2636.69 322)">Heavy</text>
  <text style="stroke:none;fill:black;font-family:sans-serif;font-size:13;text-anchor:middle;" transform="matrix(1 0 0 1 2933.4 322)">Black</text>
  <line style="fill:none;stroke:black;opacity:1;stroke-width:0.5;" x1="263" x2="3036" y1="1903" y2="1903"/>
  <g transform="matrix(1 0 0 1 263 1933)">
   <path d="M9.24805 0.830078Q10.8691 0.830078 12.2949 0.214844Q13.7207-0.400391 14.8096-1.49414Q15.8984-2.58789 16.5186-4.01367Q17.1387-5.43945 17.1387-7.05078Q17.1387-8.66211 16.5186-10.0879Q15.8984-11.5137 14.8047-12.6074Q13.7109-13.7012 12.2852-14.3164Q10.8594-14.9316 9.23828-14.9316Q7.62695-14.9316 6.20117-14.3164Q4.77539-13.7012 3.69141-12.6074Q2.60742-11.5137 1.9873-10.0879Q1.36719-8.66211 1.36719-7.05078Q1.36719-5.43945 1.9873-4.01367Q2.60742-2.58789 3.69629-1.49414Q4.78516-0.400391 6.21094 0.214844Q7.63672 0.830078 9.24805 0.830078ZM9.24805-0.654297Q7.91992-0.654297 6.7627-1.14746Q5.60547-1.64062 4.73145-2.51953Q3.85742-3.39844 3.36426-4.56055Q2.87109-5.72266 2.87109-7.05078Q2.87109-8.37891 3.35938-9.54102Q3.84766-10.7031 4.72168-11.582Q5.5957-12.4609 6.75293-12.9541Q7.91016-13.4473 9.23828-13.4473Q10.5762-13.4473 11.7334-12.9541Q12.8906-12.4609 13.7695-11.582Q14.6484-10.7031 15.1465-9.54102Q15.6445-8.37891 15.6445-7.05078Q15.6445-5.72266 15.1514-4.56055Q14.6582-3.39844 13.7842-2.51953Q12.9102-1.64062 11.748-1.14746Q10.5859-0.654297 9.24805-0.654297ZM5.83984-7.04102Q5.83984-6.71875 6.04492-6.51855Q6.25-6.31836 6.5918-6.31836L8.50586-6.31836L8.50586-4.39453Q8.50586-4.0625 8.70605-3.85742Q8.90625-3.65234 9.22852-3.65234Q9.56055-3.65234 9.76562-3.85742Q9.9707-4.0625 9.9707-4.39453L9.9707-6.31836L11.8945-6.31836Q12.2266-6.31836 12.4316-6.51855Q12.6367-6.71875 12.6367-7.04102Q12.6367-7.37305 12.4316-7.57812Q12.2266-7.7832 11.8945-7.7832L9.9707-7.7832L9.9707-9.69727Q9.9707-10.0391 9.76562-10.2441Q9.56055-10.4492 9.22852-10.4492Q8.90625-10.4492 8.70605-10.2441Q8.50586-10.0391 8.50586-9.69727L8.50586-7.7832L6.5918-7.7832Q6.25-7.7832 6.04492-7.57812Q5.83984-7.37305 5.83984-7.04102Z"/>
  </g>
  <g transform="matrix(1 0 0 1 281.867 1933)">
   <path d="M11.709 2.91016Q13.75 2.91016 15.5518 2.12891Q17.3535 1.34766 18.7305-0.0292969Q20.1074-1.40625 20.8887-3.20801Q21.6699-5.00977 21.6699-7.05078Q21.6699-9.0918 20.8887-10.8936Q20.1074-12.6953 18.7305-14.0723Q17.3535-15.4492 15.5469-16.2305Q13.7402-17.0117 11.6992-17.0117Q9.6582-17.0117 7.85645-16.2305Q6.05469-15.4492 4.68262-14.0723Q3.31055-12.6953 2.5293-10.8936Q1.74805-9.0918 1.74805-7.05078Q1.74805-5.00977 2.5293-3.20801Q3.31055-1.40625 4.6875-0.0292969Q6.06445 1.34766 7.86621 2.12891Q9.66797 2.91016 11.709 2.91016ZM11.709 1.25Q9.98047 1.25 8.47656 0.605469Q6.97266-0.0390625 5.83496-1.17676Q4.69727-2.31445 4.05762-3.81836Q3.41797-5.32227 3.41797-7.05078Q3.41797-8.7793 4.05762-10.2832Q4.69727-11.7871 5.83008-12.9297Q6.96289-14.0723 8.4668-14.7119Q9.9707-15.3516 11.6992-15.3516Q13.4277-15.3516 14.9316-14.7119Q16.4355-14.0723 17.5781-12.9297Q18.7207-11.7871 19.3652-10.2832Q20.0098-8.7793 20.0098-7.05078Q20.0098-5.32227 19.3701-3.81836Q18.7305-2.31445 17.5928-1.17676Q16.4551-0.0390625 14.9463 0.605469Q13.4375 1.25 11.709 1.25ZM7.39258-7.04102Q7.39258-6.68945 7.62695-6.46484Q7.86133-6.24023 8.23242-6.24023L10.8789-6.24023L10.8789-3.57422Q10.8789-3.21289 11.1035-2.9834Q11.3281-2.75391 11.6797-2.75391Q12.0508-2.75391 12.2852-2.9834Q12.5195-3.21289 12.5195-3.57422L12.5195-6.24023L15.1758-6.24023Q15.5371-6.24023 15.7715-6.46484Q16.0059-6.68945 16.0059-7.04102Q16.0059-7.41211 15.7715-7.6416Q15.5371-7.87109 15.1758-7.87109L12.5195-7.87109L12.5195-10.5176Q12.5195-10.8984 12.2852-11.1279Q12.0508-11.3574 11.6797-11.3574Q11.3281-11.3574 11.1035-11.1279Q10.8789-10.8984 10.8789-10.5176L10.8789-7.87109L8.23242-7.87109Q7.85156-7.87109 7.62207-7.6416Q7.39258-7.41211 7.39258-7.04102Z"/>
  </g>
  <g transform="matrix(1 0 0 1 305.646 1933)">
   <path d="M14.9707 5.66406Q17.0605 5.66406 18.96 5.01465Q20.8594 4.36523 22.4512 3.19336Q24.043 2.02148 25.2197 0.429688Q26.3965-1.16211 27.0459-3.06641Q27.6953-4.9707 27.6953-7.05078Q27.6953-9.14062 27.0459-11.04Q26.3965-12.9395 25.2197-14.5312Q24.043-16.123 22.4512-17.2998Q20.8594-18.4766 18.9551-19.126Q17.0508-19.7754 14.9609-19.7754Q12.8711-19.7754 10.9717-19.126Q9.07227-18.4766 7.48535-17.2998Q5.89844-16.123 4.72168-14.5312Q3.54492-12.9395 2.90039-11.04Q2.25586-9.14062 2.25586-7.05078Q2.25586-4.9707 2.90527-3.06641Q3.55469-1.16211 4.72656 0.429688Q5.89844 2.02148 7.49023 3.19336Q9.08203 4.36523 10.9814 5.01465Q12.8809 5.66406 14.9707 5.66406ZM14.9707 3.84766Q13.1641 3.84766 11.5283 3.2959Q9.89258 2.74414 8.53516 1.74805Q7.17773 0.751953 6.17676-0.610352Q5.17578-1.97266 4.62891-3.6084Q4.08203-5.24414 4.08203-7.05078Q4.08203-8.86719 4.62891-10.5029Q5.17578-12.1387 6.17188-13.501Q7.16797-14.8633 8.52539-15.8594Q9.88281-16.8555 11.5186-17.4023Q13.1543-17.9492 14.9609-17.9492Q16.7773-17.9492 18.4131-17.4023Q20.0488-16.8555 21.4111-15.8594Q22.7734-14.8633 23.7695-13.501Q24.7656-12.1387 25.3174-10.5029Q25.8691-8.86719 25.8691-7.05078Q25.8789-5.24414 25.332-3.6084Q24.7852-1.97266 23.7842-0.610352Q22.7832 0.751953 21.4209 1.74805Q20.0586 2.74414 18.4229 3.2959Q16.7871 3.84766 14.9707 3.84766ZM9.45312-7.04102Q9.45312-6.66016 9.71191-6.41113Q9.9707-6.16211 10.3711-6.16211L14.0625-6.16211L14.0625-2.46094Q14.0625-2.06055 14.3115-1.80664Q14.5605-1.55273 14.9414-1.55273Q15.3516-1.55273 15.6055-1.80664Q15.8594-2.06055 15.8594-2.46094L15.8594-6.16211L19.5605-6.16211Q19.9609-6.16211 20.2148-6.41113Q20.4688-6.66016 20.4688-7.04102Q20.4688-7.45117 20.2148-7.70508Q19.9609-7.95898 19.5605-7.95898L15.8594-7.95898L15.8594-11.6504Q15.8594-12.0605 15.6055-12.3145Q15.3516-12.5684 14.9414-12.5684Q14.5605-12.5684 14.3115-12.3096Q14.0625-12.0508 14.0625-11.6504L14.0625-7.95898L10.3711-7.95898Q9.96094-7.95898 9.70703-7.70508Q9.45312-7.45117 9.45312-7.04102Z"/>
  </g>
  <text style="stroke:none;fill:black;font-family:sans-serif;font-size:13;font-weight:bold;" transform="matrix(1 0 0 1 263 1953)">Design Variations</text>
  <text style="stroke:none;fill:black;font-family:sans-serif;font-size:13;" transform="matrix(1 0 0 1 263 1971)">Symbols are supported in up to nine weights and three scales.</text>
  <text style="stroke:none;fill:black;font-family:sans-serif;font-size:13;" transform="matrix(1 0 0 1 263 1989)">For optimal layout with text and other symbols, vertically align</text>
  <text style="stroke:none;fill:black;font-family:sans-serif;font-size:13;" transform="matrix(1 0 0 1 263 2007)">symbols with the adjacent text.</text>
  <line style="fill:none;stroke:#00AEEF;stroke-width:0.5;opacity:1.0;" x1="776" x2="776" y1="1919" y2="1933"/>
  <g transform="matrix(1 0 0 1 776 1933)">
   <path d="M3.31055 0.15625Q3.70117 0.15625 3.91602-0.00976562Q4.13086-0.175781 4.26758-0.585938L5.52734-4.0332L11.2891-4.0332L12.5488-0.585938Q12.6855-0.175781 12.9004-0.00976562Q13.1152 0.15625 13.4961 0.15625Q13.8867 0.15625 14.1162-0.0585938Q14.3457-0.273438 14.3457-0.644531Q14.3457-0.869141 14.2383-1.17188L9.6582-13.3691Q9.48242-13.8184 9.17969-14.043Q8.87695-14.2676 8.4082-14.2676Q7.5-14.2676 7.17773-13.3789L2.59766-1.16211Q2.49023-0.859375 2.49023-0.634766Q2.49023-0.263672 2.70996-0.0537109Q2.92969 0.15625 3.31055 0.15625ZM6.00586-5.51758L8.37891-12.0898L8.42773-12.0898L10.8008-5.51758Z"/>
  </g>
  <line style="fill:none;stroke:#00AEEF;stroke-width:0.5;opacity:1.0;" x1="793.197" x2="793.197" y1="1919" y2="1933"/>
  <text style="stroke:none;fill:black;font-family:sans-serif;font-size:13;font-weight:bold;" transform="matrix(1 0 0 1 776 1953)">Margins</text>
  <text style="stroke:none;fill:black;font-family:sans-serif;font-size:13;" transform="matrix(1 0 0 1 776 1971)">Leading and trailing margins on the left and right side of each symbol</text>
  <text style="stroke:none;fill:black;font-family:sans-serif;font-size:13;" transform="matrix(1 0 0 1 776 1989)">can be adjusted by modifying the x-location of the margin guidelines.</text>
  <text style="stroke:none;fill:black;font-family:sans-serif;font-size:13;" transform="matrix(1 0 0 1 776 2007)">Modifications are automatically applied proportionally to all</text>
  <text style="stroke:none;fill:black;font-family:sans-serif;font-size:13;" transform="matrix(1 0 0 1 776 2025)">scales and weights.</text>
  <g transform="matrix(1 0 0 1 1289 1933)">
   <path d="M2.8418 1.86523L4.54102 3.57422Q5.18555 4.22852 5.90332 4.17969Q6.62109 4.13086 7.31445 3.35938L18.0078-8.42773L17.041-9.4043L6.42578 2.27539Q6.16211 2.57812 5.89355 2.61719Q5.625 2.65625 5.27344 2.30469L4.10156 1.14258Q3.75 0.791016 3.79395 0.522461Q3.83789 0.253906 4.14062-0.0195312L15.6152-10.8203L14.6387-11.7871L3.04688-0.898438Q2.30469-0.214844 2.25098 0.498047Q2.19727 1.21094 2.8418 1.86523ZM9.25781-16.3281Q8.94531-16.0254 8.90625-15.6348Q8.86719-15.2441 9.04297-14.9512Q9.21875-14.6777 9.55566-14.541Q9.89258-14.4043 10.3809-14.5215Q11.4746-14.7754 12.5977-14.7314Q13.7207-14.6875 14.7949-13.9844L14.209-12.5293Q13.9551-11.9043 14.0674-11.4404Q14.1797-10.9766 14.5801-10.5664L16.875-8.25195Q17.2363-7.88086 17.5781-7.82227Q17.9199-7.76367 18.3398-7.8418L19.4043-8.03711L20.0684-7.36328L20.0293-6.80664Q20-6.43555 20.1221-6.12305Q20.2441-5.81055 20.6055-5.44922L21.3672-4.70703Q21.7285-4.3457 22.1533-4.33105Q22.5781-4.31641 22.9297-4.66797L25.8398-7.58789Q26.1914-7.93945 26.1816-8.35449Q26.1719-8.76953 25.8105-9.13086L25.0391-9.89258Q24.6875-10.2539 24.3799-10.3857Q24.0723-10.5176 23.7109-10.4883L23.1348-10.4395L22.4902-11.0742L22.7344-12.1973Q22.832-12.6172 22.6953-12.9834Q22.5586-13.3496 22.1191-13.7891L19.9219-15.9766Q18.6719-17.2168 17.2607-17.8369Q15.8496-18.457 14.4189-18.4814Q12.9883-18.5059 11.665-17.959Q10.3418-17.4121 9.25781-16.3281ZM10.752-15.957Q11.6602-16.6211 12.7002-16.9043Q13.7402-17.1875 14.8047-17.085Q15.8691-16.9824 16.8701-16.5137Q17.8711-16.0449 18.7012-15.2051L21.1328-12.793Q21.3086-12.6172 21.3525-12.4512Q21.3965-12.2852 21.3379-12.0312L21.0156-10.5469L22.5195-9.0625L23.5059-9.12109Q23.6914-9.13086 23.7891-9.09668Q23.8867-9.0625 24.0332-8.91602L24.6094-8.33984L22.168-5.89844L21.5918-6.47461Q21.4453-6.62109 21.4062-6.71875Q21.3672-6.81641 21.377-7.01172L21.4453-7.98828L19.9512-9.47266L18.4277-9.21875Q18.1836-9.16992 18.042-9.2041Q17.9004-9.23828 17.7148-9.41406L15.7129-11.416Q15.5176-11.5918 15.4932-11.7529Q15.4688-11.9141 15.5859-12.1875L16.4648-14.2773Q15.293-15.3711 13.8281-15.791Q12.3633-16.2109 10.8398-15.7617Q10.7227-15.7324 10.6885-15.8057Q10.6543-15.8789 10.752-15.957Z"/>
  </g>
  <text style="stroke:none;fill:black;font-family:sans-serif;font-size:13;font-weight:bold;" transform="matrix(1 0 0 1 1289 1953)">Exporting</text>
  <text style="stroke:none;fill:black;font-family:sans-serif;font-size:13;" transform="matrix(1 0 0 1 1289 1971)">Symbols should be outlined when exporting to ensure the</text>
  <text style="stroke:none;fill:black;font-family:sans-serif;font-size:13;" transform="matrix(1 0 0 1 1289 1989)">design is preserved when submitting to Xcode.</text>
  <text id="template-version" style="stroke:none;fill:black;font-family:sans-serif;font-size:13;text-anchor:end;" transform="matrix(1 0 0 1 3036 1933)">Template v.2.0</text>
  <text style="stroke:none;fill:black;font-family:sans-serif;font-size:13;text-anchor:end;" transform="matrix(1 0 0 1 3036 1951)">Requires Xcode 13 or greater</text>
  <text id="descriptive-name" style="stroke:none;fill:black;font-family:sans-serif;font-size:13;text-anchor:end;" transform="matrix(1 0 0 1 3036 1969)">Generated from heart.circle.fill</text>
  <text style="stroke:none;fill:black;font-family:sans-serif;font-size:13;text-anchor:end;" transform="matrix(1 0 0 1 3036 1987)">Typeset at 100 points</text>
  <text style="stroke:none;fill:black;font-family:sans-serif;font-size:13;" transform="matrix(1 0 0 1 263 726)">Small</text>
  <text style="stroke:none;fill:black;font-family:sans-serif;font-size:13;" transform="matrix(1 0 0 1 263 1156)">Medium</text>
  <text style="stroke:none;fill:black;font-family:sans-serif;font-size:13;" transform="matrix(1 0 0 1 263 1586)">Large</text>
 </g>
 <g id="Guides">
  <g id="H-reference" style="fill:#27AAE1;stroke:none;" transform="matrix(1 0 0 1 339 696)">
   <path d="M0.976562 0L3.66211 0L29.3457-67.1387L30.0293-67.1387L30.0293-70.459L28.125-70.459ZM11.6699-24.4629L46.9727-24.4629L46.2402-26.709L12.4512-26.709ZM55.127 0L57.7637 0L30.6152-70.459L29.4434-70.459L29.4434-67.1387Z"/>
  </g>
  <line id="Baseline-S" style="fill:none;stroke:#27AAE1;opacity:1;stroke-width:0.5;" x1="263" x2="3036" y1="696" y2="696"/>
  <line id="Capline-S" style="fill:none;stroke:#27AAE1;opacity:1;stroke-width:0.5;" x1="263" x2="3036" y1="625.541" y2="625.541"/>
  <g id="H-reference" style="fill:#27AAE1;stroke:none;" transform="matrix(1 0 0 1 339 1126)">
   <path d="M0.976562 0L3.66211 0L29.3457-67.1387L30.0293-67.1387L30.0293-70.459L28.125-70.459ZM11.6699-24.4629L46.9727-24.4629L46.2402-26.709L12.4512-26.709ZM55.127 0L57.7637 0L30.6152-70.459L29.4434-70.459L29.4434-67.1387Z"/>
  </g>
  <line id="Baseline-M" style="fill:none;stroke:#27AAE1;opacity:1;stroke-width:0.5;" x1="263" x2="3036" y1="1126" y2="1126"/>
  <line id="Capline-M" style="fill:none;stroke:#27AAE1;opacity:1;stroke-width:0.5;" x1="263" x2="3036" y1="1055.54" y2="1055.54"/>
  <g id="H-reference" style="fill:#27AAE1;stroke:none;" transform="matrix(1 0 0 1 339 1556)">
   <path d="M0.976562 0L3.66211 0L29.3457-67.1387L30.0293-67.1387L30.0293-70.459L28.125-70.459ZM11.6699-24.4629L46.9727-24.4629L46.2402-26.709L12.4512-26.709ZM55.127 0L57.7637 0L30.6152-70.459L29.4434-70.459L29.4434-67.1387Z"/>
  </g>
  <line id="Baseline-L" style="fill:none;stroke:#27AAE1;opacity:1;stroke-width:0.5;" x1="263" x2="3036" y1="1556" y2="1556"/>
  <line id="Capline-L" style="fill:none;stroke:#27AAE1;opacity:1;stroke-width:0.5;" x1="263" x2="3036" y1="1485.54" y2="1485.54"/>
  <line id="left-margin" style="fill:none;stroke:#00AEEF;stroke-width:0.5;opacity:1.0;" x1="1391.3" x2="1391.3" y1="1030.79" y2="1150.12"/>
  <line id="right-margin" style="fill:none;stroke:#00AEEF;stroke-width:0.5;opacity:1.0;" x1="1508.39" x2="1508.39" y1="1030.79" y2="1150.12"/>
 </g>
 <g id="Symbols">
  <g id="Black-L" transform="matrix(1 0 0 1 2854.05 1556)">
   <path d="M79.3457 32.8613Q90.5762 32.8613 100.757 29.3945Q110.938 25.9277 119.458 19.6777Q127.979 13.4277 134.229 4.90723Q140.479-3.61328 143.945-13.7939Q147.412-23.9746 147.412-35.2051Q147.412-46.4355 143.945-56.6162Q140.479-66.7969 134.204-75.3174Q127.93-83.8379 119.434-90.1123Q110.938-96.3867 100.732-99.8291Q90.5273-103.271 79.2969-103.271Q68.1152-103.271 57.9102-99.8291Q47.7051-96.3867 39.209-90.1123Q30.7129-83.8379 24.4385-75.3174Q18.1641-66.7969 14.7217-56.6162Q11.2793-46.4355 11.2793-35.2051Q11.2793-23.9746 14.7217-13.7939Q18.1641-3.61328 24.4385 4.90723Q30.7129 13.4277 39.2334 19.6777Q47.7539 25.9277 57.9346 29.3945Q68.1152 32.8613 79.3457 32.8613ZM64.209-62.9883Q69.7266-62.9883 73.5352-60.2783Q77.3438-57.5684 79.3457-54.1016Q81.3477-57.5684 85.1562-60.2783Q88.9648-62.9883 94.4824-62.9883Q99.5117-62.9883 103.662-60.5225Q107.812-58.0566 110.278-53.5889Q112.744-49.1211 112.744-43.1641Q112.744-37.0605 110.303-31.665Q107.861-26.2695 104.102-21.7529Q100.342-17.2363 96.2402-13.7451Q92.1387-10.2539 88.6719-7.91016Q85.2051-5.56641 83.4961-4.58984Q82.5684-4.10156 81.4453-3.54004Q80.3223-2.97852 79.3945-2.97852Q78.4668-2.97852 77.2949-3.54004Q76.123-4.10156 75.1953-4.58984Q73.4863-5.61523 70.0439-7.95898Q66.6016-10.3027 62.4756-13.7939Q58.3496-17.2852 54.5898-21.7773Q50.8301-26.2695 48.3887-31.665Q45.9473-37.0605 45.9473-43.1641Q45.9473-49.1211 48.4131-53.5889Q50.8789-58.0566 55.0049-60.5225Q59.1309-62.9883 64.209-62.9883Z"/>
  </g>
  <g id="Heavy-L" transform="matrix(1 0 0 1 2558.39 1556)">
   <path d="M78.2715 31.7871Q89.3555 31.7871 99.3652 28.3691Q109.375 24.9512 117.749 18.7988Q126.123 12.6465 132.3 4.24805Q138.477-4.15039 141.895-14.1602Q145.312-24.1699 145.312-35.2051Q145.312-46.2402 141.895-56.2744Q138.477-66.3086 132.3-74.6826Q126.123-83.0566 117.749-89.2578Q109.375-95.459 99.3408-98.8525Q89.3066-102.246 78.2227-102.246Q67.2363-102.246 57.2021-98.8525Q47.168-95.459 38.7939-89.2578Q30.4199-83.0566 24.2432-74.6826Q18.0664-66.3086 14.6729-56.2744Q11.2793-46.2402 11.2793-35.2051Q11.2793-24.1699 14.6729-14.1602Q18.0664-4.15039 24.2432 4.24805Q30.4199 12.6465 38.8184 18.7988Q47.2168 24.9512 57.2266 28.3691Q67.2363 31.7871 78.2715 31.7871ZM63.0371-63.1836Q68.5059-63.1836 72.3389-60.4736Q76.1719-57.7637 78.2715-54.1016Q80.3711-57.7637 84.2285-60.4736Q88.0859-63.1836 93.5059-63.1836Q98.6328-63.1836 102.808-60.7178Q106.982-58.252 109.424-53.7842Q111.865-49.3164 111.865-43.457Q111.865-37.5488 109.546-32.2754Q107.227-27.002 103.54-22.4854Q99.8535-17.9688 95.752-14.3555Q91.6504-10.7422 87.9883-8.17871Q84.3262-5.61523 82.1289-4.24805Q81.2988-3.75977 80.249-3.22266Q79.1992-2.68555 78.3203-2.68555Q77.4902-2.68555 76.3916-3.22266Q75.293-3.75977 74.4141-4.24805Q72.2168-5.61523 68.5791-8.17871Q64.9414-10.7422 60.8154-14.3555Q56.6895-17.9688 53.0273-22.4609Q49.3652-26.9531 47.0215-32.251Q44.6777-37.5488 44.6777-43.457Q44.6777-49.3164 47.1436-53.7842Q49.6094-58.252 53.7598-60.7178Q57.9102-63.1836 63.0371-63.1836Z"/>
  </g>
  <g id="Bold-L" transform="matrix(1 0 0 1 2262.85 1556)">
   <path d="M77.0996 30.6152Q87.9395 30.6152 97.7783 27.2461Q107.617 23.877 115.869 17.8223Q124.121 11.7676 130.176 3.51562Q136.23-4.73633 139.6-14.5752Q142.969-24.4141 142.969-35.2539Q142.969-46.0938 139.6-55.9326Q136.23-65.7715 130.151-73.999Q124.072-82.2266 115.845-88.3057Q107.617-94.3848 97.7539-97.7295Q87.8906-101.074 77.0508-101.074Q66.2598-101.074 56.3965-97.7295Q46.5332-94.3848 38.3301-88.3057Q30.127-82.2266 24.0479-73.999Q17.9688-65.7715 14.624-55.9326Q11.2793-46.0938 11.2793-35.2539Q11.2793-24.4141 14.624-14.5752Q17.9688-4.73633 24.0479 3.51562Q30.127 11.7676 38.3545 17.8223Q46.582 23.877 56.4209 27.2461Q66.2598 30.6152 77.0996 30.6152ZM61.7676-63.4277Q67.1387-63.4277 71.0205-60.6934Q74.9023-57.959 77.0996-54.1016Q79.2969-57.959 83.2031-60.6934Q87.1094-63.4277 92.4316-63.4277Q97.6562-63.4277 101.855-60.9375Q106.055-58.4473 108.496-54.0039Q110.938-49.5605 110.938-43.75Q110.938-38.0859 108.716-32.9346Q106.494-27.7832 102.93-23.2666Q99.3652-18.75 95.2393-15.0146Q91.1133-11.2793 87.2559-8.47168Q83.3984-5.66406 80.6641-3.90625Q79.834-3.41797 78.8818-2.90527Q77.9297-2.39258 77.1973-2.39258Q76.416-2.39258 75.415-2.90527Q74.4141-3.41797 73.5352-3.90625Q70.8008-5.61523 66.9189-8.42285Q63.0371-11.2305 58.9355-14.9658Q54.834-18.7012 51.2695-23.2422Q47.7051-27.7832 45.4834-32.9346Q43.2617-38.0859 43.2617-43.75Q43.2617-49.5605 45.7031-54.0039Q48.1445-58.4473 52.3438-60.9375Q56.543-63.4277 61.7676-63.4277Z"/>
  </g>
  <g id="Semibold-L" transform="matrix(1 0 0 1 1966.97 1556)">
   <path d="M76.2695 29.7852Q86.9629 29.7852 96.6797 26.4648Q106.396 23.1445 114.551 17.1631Q122.705 11.1816 128.687 3.02734Q134.668-5.12695 137.988-14.8438Q141.309-24.5605 141.309-35.2539Q141.309-45.9473 137.988-55.6641Q134.668-65.3809 128.662-73.5107Q122.656-81.6406 114.526-87.6465Q106.396-93.6523 96.6553-96.9727Q86.9141-100.293 76.2207-100.293Q65.5273-100.293 55.8105-96.9727Q46.0938-93.6523 37.9883-87.6465Q29.8828-81.6406 23.877-73.5107Q17.8711-65.3809 14.5752-55.6641Q11.2793-45.9473 11.2793-35.2539Q11.2793-24.5605 14.5996-14.8438Q17.9199-5.12695 23.9014 3.02734Q29.8828 11.1816 38.0127 17.1631Q46.1426 23.1445 55.8594 26.4648Q65.5762 29.7852 76.2695 29.7852ZM60.8887-63.623Q66.1621-63.623 70.0928-60.8887Q74.0234-58.1543 76.2695-54.1016Q78.5156-58.1543 82.4707-60.8887Q86.4258-63.623 91.6504-63.623Q96.9727-63.623 101.172-61.1084Q105.371-58.5938 107.812-54.1748Q110.254-49.7559 110.254-43.9941Q110.254-38.5254 108.105-33.4473Q105.957-28.3691 102.466-23.8525Q98.9746-19.3359 94.8486-15.5273Q90.7227-11.7188 86.7188-8.71582Q82.7148-5.71289 79.5898-3.66211Q78.8574-3.17383 77.9541-2.70996Q77.0508-2.24609 76.3672-2.24609Q75.6836-2.24609 74.7314-2.70996Q73.7793-3.17383 72.9492-3.66211Q69.7754-5.66406 65.7471-8.64258Q61.7188-11.6211 57.6172-15.4541Q53.5156-19.2871 50.0488-23.8281Q46.582-28.3691 44.4336-33.4473Q42.2852-38.5254 42.2852-43.9941Q42.2852-49.7559 44.7266-54.1748Q47.168-58.5938 51.3672-61.1084Q55.5664-63.623 60.8887-63.623Z"/>
  </g>
  <g id="Medium-L" transform="matrix(1 0 0 1 1670.87 1556)">
   <path d="M75.6836 29.1504Q86.2305 29.1504 95.8496 25.8545Q105.469 22.5586 113.55 16.626Q121.631 10.6934 127.563 2.63672Q133.496-5.41992 136.792-15.0635Q140.088-24.707 140.088-35.2539Q140.088-45.8496 136.792-55.4688Q133.496-65.0879 127.539-73.1445Q121.582-81.2012 113.525-87.1582Q105.469-93.1152 95.8252-96.3867Q86.1816-99.6582 75.6348-99.6582Q65.0391-99.6582 55.4199-96.3867Q45.8008-93.1152 37.7441-87.1582Q29.6875-81.2012 23.7549-73.1445Q17.8223-65.0879 14.5508-55.4688Q11.2793-45.8496 11.2793-35.2539Q11.2793-24.707 14.5508-15.0635Q17.8223-5.41992 23.7549 2.63672Q29.6875 10.6934 37.7686 16.626Q45.8496 22.5586 55.4688 25.8545Q65.0879 29.1504 75.6836 29.1504ZM60.2051-63.7695Q65.4297-63.7695 69.3848-61.0107Q73.3398-58.252 75.6836-54.1016Q77.9785-58.252 81.9336-61.0107Q85.8887-63.7695 91.1133-63.7695Q96.4844-63.7695 100.684-61.2305Q104.883-58.6914 107.324-54.2725Q109.766-49.8535 109.766-44.1895Q109.766-38.7695 107.666-33.7891Q105.566-28.8086 102.148-24.292Q98.7305-19.7754 94.6045-15.8691Q90.4785-11.9629 86.3525-8.83789Q82.2266-5.71289 78.8086-3.4668Q78.0762-2.97852 77.2461-2.51465Q76.416-2.05078 75.7812-2.05078Q75.0977-2.05078 74.1943-2.51465Q73.291-2.97852 72.4609-3.4668Q69.043-5.66406 64.8926-8.76465Q60.7422-11.8652 56.6406-15.7715Q52.5391-19.6777 49.1211-24.2188Q45.7031-28.7598 43.6279-33.7646Q41.5527-38.7695 41.5527-44.1895Q41.5527-49.8535 43.9697-54.2725Q46.3867-58.6914 50.6104-61.2305Q54.834-63.7695 60.2051-63.7695Z"/>
  </g>
  <g id="Regular-L" transform="matrix(1 0 0 1 1374.97 1556)">
   <path d="M74.8535 28.3203Q85.3027 28.3203 94.7998 25.0732Q104.297 21.8262 112.256 15.9668Q120.215 10.1074 126.099 2.14844Q131.982-5.81055 135.229-15.332Q138.477-24.8535 138.477-35.2539Q138.477-45.7031 135.229-55.2002Q131.982-64.6973 126.099-72.6562Q120.215-80.6152 112.256-86.499Q104.297-92.3828 94.7754-95.6299Q85.2539-98.877 74.8047-98.877Q64.3555-98.877 54.8584-95.6299Q45.3613-92.3828 37.4268-86.499Q29.4922-80.6152 23.6084-72.6562Q17.7246-64.6973 14.502-55.2002Q11.2793-45.7031 11.2793-35.2539Q11.2793-24.8535 14.5264-15.332Q17.7734-5.81055 23.6328 2.14844Q29.4922 10.1074 37.4512 15.9668Q45.4102 21.8262 54.9072 25.0732Q64.4043 28.3203 74.8535 28.3203ZM59.3262-63.916Q64.502-63.916 68.4814-61.1572Q72.4609-58.3984 74.8535-54.1016Q77.1973-58.3984 81.2012-61.1572Q85.2051-63.916 90.332-63.916Q95.8008-63.916 100.024-61.377Q104.248-58.8379 106.665-54.4189Q109.082-50 109.082-44.3848Q109.082-39.1602 107.08-34.2529Q105.078-29.3457 101.709-24.8291Q98.3398-20.3125 94.2139-16.333Q90.0879-12.3535 85.8154-9.05762Q81.543-5.76172 77.7832-3.22266Q77.0996-2.73438 76.3184-2.29492Q75.5371-1.85547 74.9512-1.85547Q74.3652-1.85547 73.5107-2.29492Q72.6562-2.73438 71.875-3.22266Q68.0664-5.66406 63.7695-8.93555Q59.4727-12.207 55.3711-16.1865Q51.2695-20.166 47.9248-24.7314Q44.5801-29.2969 42.5781-34.2285Q40.5762-39.1602 40.5762-44.3848Q40.5762-50 42.9932-54.4189Q45.4102-58.8379 49.6582-61.377Q53.9062-63.916 59.3262-63.916Z"/>
  </g>
  <g id="Light-L" transform="matrix(1 0 0 1 1079.18 1556)">
   <path d="M73.9258 27.3926Q84.2285 27.3926 93.6035 24.1943Q102.979 20.9961 110.815 15.2344Q118.652 9.47266 124.438 1.63574Q130.225-6.20117 133.423-15.5762Q136.621-24.9512 136.621-35.2539Q136.621-45.5566 133.423-54.9316Q130.225-64.3066 124.438-72.1436Q118.652-79.9805 110.815-85.7666Q102.979-91.5527 93.6035-94.751Q84.2285-97.9492 73.877-97.9492Q63.5742-97.9492 54.2236-94.751Q44.873-91.5527 37.0361-85.7666Q29.1992-79.9805 23.4131-72.1436Q17.627-64.3066 14.4531-54.9316Q11.2793-45.5566 11.2793-35.2539Q11.2793-24.9512 14.4775-15.5762Q17.6758-6.20117 23.4375 1.63574Q29.1992 9.47266 37.0361 15.2344Q44.873 20.9961 54.248 24.1943Q63.623 27.3926 73.9258 27.3926ZM58.5449-63.8184Q63.6719-63.8184 67.6514-61.0596Q71.6309-58.3008 73.9258-54.1992Q76.1719-58.3008 80.2002-61.0596Q84.2285-63.8184 89.2578-63.8184Q94.6289-63.8184 98.8037-61.3281Q102.979-58.8379 105.371-54.5166Q107.764-50.1953 107.764-44.7266Q107.764-39.4043 105.664-34.4238Q103.564-29.4434 100.098-24.9268Q96.6309-20.4102 92.4805-16.4795Q88.3301-12.5488 84.1553-9.32617Q79.9805-6.10352 76.5137-3.66211Q75.8789-3.22266 75.1953-2.85645Q74.5117-2.49023 73.9746-2.49023Q73.4863-2.49023 72.7539-2.88086Q72.0215-3.27148 71.3379-3.66211Q67.7734-5.95703 63.5498-9.13086Q59.3262-12.3047 55.2002-16.2354Q51.0742-20.166 47.6562-24.7559Q44.2383-29.3457 42.1631-34.375Q40.0879-39.4043 40.0879-44.7266Q40.0879-50.1953 42.4805-54.5166Q44.873-58.8379 49.0479-61.3281Q53.2227-63.8184 58.5449-63.8184Z"/>
  </g>
  <g id="Thin-L" transform="matrix(1 0 0 1 783.693 1556)">
   <path d="M72.7051 26.1719Q82.8613 26.1719 92.041 23.0469Q101.221 19.9219 108.911 14.2822Q116.602 8.64258 122.266 0.952148Q127.93-6.73828 131.055-15.9424Q134.18-25.1465 134.18-35.2539Q134.18-45.4102 131.055-54.5898Q127.93-63.7695 122.29-71.46Q116.65-79.1504 108.936-84.8145Q101.221-90.4785 92.0166-93.6035Q82.8125-96.7285 72.7051-96.7285Q62.5488-96.7285 53.3691-93.6035Q44.1895-90.4785 36.499-84.8145Q28.8086-79.1504 23.1689-71.46Q17.5293-63.7695 14.4043-54.5898Q11.2793-45.4102 11.2793-35.2539Q11.2793-25.1465 14.4043-15.9424Q17.5293-6.73828 23.1689 0.952148Q28.8086 8.64258 36.5234 14.2822Q44.2383 19.9219 53.418 23.0469Q62.5977 26.1719 72.7051 26.1719ZM57.4707-63.7207Q62.5-63.7207 66.5039-60.9131Q70.5078-58.1055 72.6562-54.2969Q74.8535-58.1055 78.8574-60.9131Q82.8613-63.7207 87.8418-63.7207Q93.0664-63.7207 97.168-61.2793Q101.27-58.8379 103.613-54.6631Q105.957-50.4883 105.957-45.166Q105.957-39.6973 103.76-34.6436Q101.562-29.5898 97.9492-25.0488Q94.3359-20.5078 90.1611-16.626Q85.9863-12.7441 81.9092-9.64355Q77.832-6.54297 74.7559-4.24805Q74.2188-3.85742 73.6572-3.61328Q73.0957-3.36914 72.7051-3.36914Q72.2656-3.36914 71.7041-3.6377Q71.1426-3.90625 70.6055-4.24805Q67.334-6.29883 63.2324-9.32617Q59.1309-12.3535 54.9561-16.2842Q50.7812-20.2148 47.2412-24.8291Q43.7012-29.4434 41.5527-34.5703Q39.4043-39.6973 39.4043-45.166Q39.4043-50.4883 41.748-54.6631Q44.0918-58.8379 48.1934-61.2793Q52.2949-63.7207 57.4707-63.7207Z"/>
  </g>
  <g id="Ultralight-L" transform="matrix(1 0 0 1 487.592 1556)">
   <path d="M72.0703 25.5371Q82.1289 25.5371 91.2354 22.4609Q100.342 19.3848 107.935 13.7939Q115.527 8.20312 121.143 0.585938Q126.758-7.03125 129.858-16.1133Q132.959-25.1953 132.959-35.2539Q132.959-45.3125 129.858-54.4189Q126.758-63.5254 121.167-71.1182Q115.576-78.7109 107.959-84.3262Q100.342-89.9414 91.2354-93.0176Q82.1289-96.0938 72.0703-96.0938Q62.0605-96.0938 52.9541-93.0176Q43.8477-89.9414 36.2305-84.3262Q28.6133-78.7109 23.0225-71.1182Q17.4316-63.5254 14.3555-54.4189Q11.2793-45.3125 11.2793-35.2539Q11.2793-25.1953 14.3555-16.1133Q17.4316-7.03125 23.0225 0.585938Q28.6133 8.20312 36.2305 13.7939Q43.8477 19.3848 52.9541 22.4609Q62.0605 25.5371 72.0703 25.5371ZM56.9336-63.6719Q61.9629-63.6719 65.9668-60.8643Q69.9707-58.0566 72.0215-54.3945Q74.1211-58.0566 78.1494-60.8643Q82.1777-63.6719 87.1094-63.6719Q92.2852-63.6719 96.3379-61.2549Q100.391-58.8379 102.71-54.7363Q105.029-50.6348 105.029-45.459Q105.029-39.8438 102.783-34.7656Q100.537-29.6875 96.875-25.1465Q93.2129-20.6055 88.9893-16.748Q84.7656-12.8906 80.7617-9.83887Q76.7578-6.78711 73.877-4.54102Q73.3887-4.19922 72.9004-4.00391Q72.4121-3.80859 72.0215-3.80859Q71.6797-3.80859 71.1914-4.05273Q70.7031-4.29688 70.2148-4.54102Q67.1387-6.49414 63.0859-9.47266Q59.0332-12.4512 54.834-16.333Q50.6348-20.2148 47.0459-24.8535Q43.457-29.4922 41.2598-34.668Q39.0625-39.8438 39.0625-45.459Q39.0625-50.6348 41.3818-54.7363Q43.7012-58.8379 47.7539-61.2549Q51.8066-63.6719 56.9336-63.6719Z"/>
  </g>
  <g id="Black-M" transform="matrix(1 0 0 1 2871.32 1126)">
   <path d="M62.0605 18.1152Q73.0957 18.1152 82.7637 13.9648Q92.4316 9.81445 99.7559 2.46582Q107.08-4.88281 111.255-14.5264Q115.43-24.1699 115.43-35.2051Q115.43-46.2402 111.255-55.8838Q107.08-65.5273 99.7559-72.876Q92.4316-80.2246 82.7637-84.375Q73.0957-88.5254 62.0605-88.5254Q51.0742-88.5254 41.4062-84.375Q31.7383-80.2246 24.3896-72.876Q17.041-65.5273 12.8906-55.8838Q8.74023-46.2402 8.74023-35.2051Q8.74023-24.1699 12.8906-14.5264Q17.041-4.88281 24.3896 2.46582Q31.7383 9.81445 41.4062 13.9648Q51.0742 18.1152 62.0605 18.1152ZM50.4395-56.543Q54.7852-56.543 57.6904-54.4434Q60.5957-52.3438 62.0605-49.9023Q63.4766-52.3438 66.3818-54.4434Q69.2871-56.543 73.6328-56.543Q77.4414-56.543 80.6152-54.6387Q83.7891-52.7344 85.6934-49.3164Q87.5977-45.8984 87.5977-41.2598Q87.5977-36.2793 85.6201-31.9824Q83.6426-27.6855 80.5908-24.1699Q77.5391-20.6543 74.3652-18.0664Q71.1914-15.4785 68.7012-13.8916Q66.2109-12.3047 65.3809-11.9141Q64.5996-11.5723 63.7207-11.1328Q62.8418-10.6934 62.0605-10.6934Q61.2793-10.6934 60.3516-11.1328Q59.4238-11.5723 58.7402-11.9141Q57.9102-12.3535 55.4199-13.9404Q52.9297-15.5273 49.7314-18.1152Q46.5332-20.7031 43.5059-24.1943Q40.4785-27.6855 38.4766-31.9824Q36.4746-36.2793 36.4746-41.2598Q36.4746-45.8984 38.3789-49.3164Q40.2832-52.7344 43.457-54.6387Q46.6309-56.543 50.4395-56.543Z"/>
  </g>
  <g id="Heavy-M" transform="matrix(1 0 0 1 2575.43 1126)">
   <path d="M61.2305 17.2852Q72.0703 17.2852 81.5918 13.1836Q91.1133 9.08203 98.3154 1.85547Q105.518-5.37109 109.644-14.8682Q113.77-24.3652 113.77-35.2051Q113.77-46.0449 109.644-55.542Q105.518-65.0391 98.3154-72.29Q91.1133-79.541 81.5918-83.6182Q72.0703-87.6953 61.2305-87.6953Q50.4395-87.6953 40.918-83.6182Q31.3965-79.541 24.1699-72.29Q16.9434-65.0391 12.8418-55.542Q8.74023-46.0449 8.74023-35.2051Q8.74023-24.3652 12.8418-14.8682Q16.9434-5.37109 24.1699 1.85547Q31.3965 9.08203 40.918 13.1836Q50.4395 17.2852 61.2305 17.2852ZM49.5117-56.7383Q53.7598-56.7383 56.7139-54.6387Q59.668-52.5391 61.2305-49.9023Q62.7441-52.5391 65.6982-54.6387Q68.6523-56.7383 72.9004-56.7383Q76.8555-56.7383 80.0537-54.834Q83.252-52.9297 85.1562-49.4873Q87.0605-46.0449 87.0605-41.4551Q87.0605-36.7188 85.2051-32.5439Q83.3496-28.3691 80.3955-24.8535Q77.4414-21.3379 74.2676-18.6279Q71.0938-15.918 68.4082-14.0869Q65.7227-12.2559 64.3555-11.5234Q63.623-11.1328 62.793-10.7178Q61.9629-10.3027 61.2793-10.3027Q60.5469-10.3027 59.668-10.7178Q58.7891-11.1328 58.1055-11.5234Q56.7383-12.3047 54.0527-14.1357Q51.3672-15.9668 48.1689-18.6768Q44.9707-21.3867 42.041-24.8779Q39.1113-28.3691 37.2314-32.5439Q35.3516-36.7188 35.3516-41.4551Q35.3516-46.0449 37.2559-49.4873Q39.1602-52.9297 42.3584-54.834Q45.5566-56.7383 49.5117-56.7383Z"/>
  </g>
  <g id="Bold-M" transform="matrix(1 0 0 1 2279.65 1126)">
   <path d="M60.3027 16.3574Q70.9473 16.3574 80.2734 12.3291Q89.5996 8.30078 96.7041 1.17188Q103.809-5.95703 107.861-15.2832Q111.914-24.6094 111.914-35.2539Q111.914-45.8496 107.861-55.1758Q103.809-64.502 96.7041-71.6309Q89.5996-78.7598 80.249-82.7881Q70.8984-86.8164 60.3027-86.8164Q49.707-86.8164 40.3564-82.7881Q31.0059-78.7598 23.9014-71.6309Q16.7969-64.502 12.7686-55.1758Q8.74023-45.8496 8.74023-35.2539Q8.74023-24.6094 12.7686-15.2832Q16.7969-5.95703 23.9258 1.17188Q31.0547 8.30078 40.3809 12.3291Q49.707 16.3574 60.3027 16.3574ZM48.4375-57.0312Q52.6367-57.0312 55.6396-54.9316Q58.6426-52.832 60.3027-49.8535Q61.9629-52.832 64.9658-54.9316Q67.9688-57.0312 72.1191-57.0312Q76.1719-57.0312 79.4189-55.0781Q82.666-53.125 84.5703-49.6826Q86.4746-46.2402 86.4746-41.6992Q86.4746-37.207 84.7168-33.1787Q82.959-29.1504 80.1514-25.6348Q77.3438-22.1191 74.1699-19.2871Q70.9961-16.4551 68.0908-14.3555Q65.1855-12.2559 63.2324-11.0352Q62.5488-10.6934 61.7676-10.2783Q60.9863-9.86328 60.3516-9.86328Q59.7168-9.86328 58.8867-10.2783Q58.0566-10.6934 57.373-11.0352Q55.4199-12.2559 52.4902-14.3555Q49.5605-16.4551 46.3867-19.2871Q43.2129-22.1191 40.4053-25.6348Q37.5977-29.1504 35.8643-33.1787Q34.1309-37.207 34.1309-41.6992Q34.1309-46.2402 36.0107-49.6826Q37.8906-53.125 41.1377-55.0781Q44.3848-57.0312 48.4375-57.0312Z"/>
  </g>
  <g id="Semibold-M" transform="matrix(1 0 0 1 1983.6 1126)">
   <path d="M59.668 15.6738Q70.1172 15.6738 79.3457 11.6943Q88.5742 7.71484 95.6055 0.683594Q102.637-6.34766 106.616-15.5518Q110.596-24.7559 110.596-35.2539Q110.596-45.7031 106.616-54.9072Q102.637-64.1113 95.6055-71.1426Q88.5742-78.1738 79.3457-82.1777Q70.1172-86.1816 59.6191-86.1816Q49.1699-86.1816 39.9658-82.1777Q30.7617-78.1738 23.7305-71.1426Q16.6992-64.1113 12.7197-54.9072Q8.74023-45.7031 8.74023-35.2539Q8.74023-24.7559 12.7197-15.5518Q16.6992-6.34766 23.7305 0.683594Q30.7617 7.71484 39.9902 11.6943Q49.2188 15.6738 59.668 15.6738ZM47.7051-57.2266Q51.8555-57.2266 54.8828-55.127Q57.9102-53.0273 59.668-49.9023Q61.377-53.0273 64.4043-55.127Q67.4316-57.2266 71.582-57.2266Q75.6836-57.2266 78.9551-55.2734Q82.2266-53.3203 84.1309-49.8779Q86.0352-46.4355 86.0352-41.8945Q86.0352-37.5977 84.375-33.667Q82.7148-29.7363 79.9805-26.2207Q77.2461-22.7051 74.0723-19.7754Q70.8984-16.8457 67.8467-14.5508Q64.7949-12.2559 62.4023-10.7422Q61.7676-10.4004 61.0352-9.98535Q60.3027-9.57031 59.7168-9.57031Q59.1309-9.57031 58.3496-9.98535Q57.5684-10.4004 56.8848-10.7422Q54.4922-12.2559 51.416-14.5264Q48.3398-16.7969 45.1416-19.751Q41.9434-22.7051 39.2334-26.1963Q36.5234-29.6875 34.8877-33.6426Q33.252-37.5977 33.252-41.8945Q33.252-46.4355 35.1318-49.8779Q37.0117-53.3203 40.2832-55.2734Q43.5547-57.2266 47.7051-57.2266Z"/>
  </g>
  <g id="Medium-M" transform="matrix(1 0 0 1 1687.38 1126)">
   <path d="M59.1797 15.1855Q69.5312 15.1855 78.6621 11.2305Q87.793 7.27539 94.751 0.317383Q101.709-6.64062 105.664-15.7715Q109.619-24.9023 109.619-35.2539Q109.619-45.6055 105.664-54.7363Q101.709-63.8672 94.751-70.8252Q87.793-77.7832 78.6377-81.7383Q69.4824-85.6934 59.1309-85.6934Q48.7793-85.6934 39.6484-81.7383Q30.5176-77.7832 23.584-70.8252Q16.6504-63.8672 12.6953-54.7363Q8.74023-45.6055 8.74023-35.2539Q8.74023-24.9023 12.6953-15.7715Q16.6504-6.64062 23.6084 0.317383Q30.5664 7.27539 39.6973 11.2305Q48.8281 15.1855 59.1797 15.1855ZM47.168-57.373Q51.2695-57.373 54.3213-55.2734Q57.373-53.1738 59.1797-49.8535Q60.9863-53.1738 64.0381-55.2734Q67.0898-57.373 71.1914-57.373Q75.3906-57.373 78.6865-55.3955Q81.9824-53.418 83.8623-49.9512Q85.7422-46.4844 85.7422-41.9922Q85.7422-37.8418 84.1309-33.9844Q82.5195-30.127 79.8828-26.6113Q77.2461-23.0957 74.0723-20.0928Q70.8984-17.0898 67.7002-14.6729Q64.502-12.2559 61.8164-10.498Q61.2305-10.1562 60.5225-9.74121Q59.8145-9.32617 59.2773-9.32617Q58.7402-9.32617 57.959-9.74121Q57.1777-10.1562 56.4941-10.498Q53.8574-12.2559 50.6348-14.6484Q47.4121-17.041 44.2383-20.0684Q41.0645-23.0957 38.4277-26.5869Q35.791-30.0781 34.2041-33.96Q32.6172-37.8418 32.6172-41.9922Q32.6172-46.4844 34.4971-49.9512Q36.377-53.418 39.6729-55.3955Q42.9688-57.373 47.168-57.373Z"/>
  </g>
  <g id="Regular-M" transform="matrix(1 0 0 1 1391.3 1126)">
   <path d="M58.5449 14.5508Q68.75 14.5508 77.7588 10.6445Q86.7676 6.73828 93.6523-0.146484Q100.537-7.03125 104.443-16.04Q108.35-25.0488 108.35-35.2539Q108.35-45.459 104.443-54.4678Q100.537-63.4766 93.6523-70.3613Q86.7676-77.2461 77.7344-81.1523Q68.7012-85.0586 58.4961-85.0586Q48.291-85.0586 39.2822-81.1523Q30.2734-77.2461 23.4131-70.3613Q16.5527-63.4766 12.6465-54.4678Q8.74023-45.459 8.74023-35.2539Q8.74023-25.0488 12.6465-16.04Q16.5527-7.03125 23.4375-0.146484Q30.3223 6.73828 39.3311 10.6445Q48.3398 14.5508 58.5449 14.5508ZM46.4355-57.5195Q50.4883-57.5195 53.5645-55.4199Q56.6406-53.3203 58.5449-49.8535Q60.4004-53.3203 63.501-55.4199Q66.6016-57.5195 70.6055-57.5195Q74.9023-57.5195 78.2227-55.542Q81.543-53.5645 83.4229-50.0977Q85.3027-46.6309 85.3027-42.1387Q85.3027-38.1836 83.7891-34.4238Q82.2754-30.6641 79.7119-27.1484Q77.1484-23.6328 73.9746-20.5322Q70.8008-17.4316 67.4561-14.8193Q64.1113-12.207 61.0352-10.2051Q60.4492-9.81445 59.79-9.42383Q59.1309-9.0332 58.6426-9.0332Q58.1543-9.0332 57.4219-9.42383Q56.6895-9.81445 56.0059-10.2051Q52.9297-12.207 49.5605-14.7949Q46.1914-17.3828 43.0176-20.4834Q39.8438-23.584 37.2803-27.0996Q34.7168-30.6152 33.2275-34.3994Q31.7383-38.1836 31.7383-42.1387Q31.7383-46.6309 33.6182-50.0977Q35.498-53.5645 38.8184-55.542Q42.1387-57.5195 46.4355-57.5195Z"/>
  </g>
  <g id="Light-M" transform="matrix(1 0 0 1 1095.42 1126)">
   <path d="M57.7148 13.7207Q67.7734 13.7207 76.6357 9.8877Q85.498 6.05469 92.2607-0.708008Q99.0234-7.4707 102.856-16.333Q106.689-25.1953 106.689-35.2539Q106.689-45.3125 102.856-54.1748Q99.0234-63.0371 92.2607-69.7998Q85.498-76.5625 76.6113-80.3955Q67.7246-84.2285 57.666-84.2285Q47.6074-84.2285 38.7451-80.3955Q29.8828-76.5625 23.1445-69.7998Q16.4062-63.0371 12.5732-54.1748Q8.74023-45.3125 8.74023-35.2539Q8.74023-25.1953 12.5732-16.333Q16.4062-7.4707 23.1689-0.708008Q29.9316 6.05469 38.7939 9.8877Q47.6562 13.7207 57.7148 13.7207ZM45.752-57.4707Q49.7559-57.4707 52.832-55.3467Q55.9082-53.2227 57.7148-49.9512Q59.5215-53.2227 62.6221-55.3467Q65.7227-57.4707 69.6777-57.4707Q73.877-57.4707 77.124-55.5176Q80.3711-53.5645 82.251-50.1953Q84.1309-46.8262 84.1309-42.4805Q84.1309-38.3789 82.5195-34.5703Q80.9082-30.7617 78.2715-27.2461Q75.6348-23.7305 72.4365-20.6543Q69.2383-17.5781 65.9668-15.0635Q62.6953-12.5488 59.8633-10.5957Q59.375-10.2539 58.7891-9.93652Q58.2031-9.61914 57.7637-9.61914Q57.373-9.61914 56.7383-9.93652Q56.1035-10.2539 55.5176-10.5957Q52.6855-12.4512 49.3896-14.9658Q46.0938-17.4805 42.8955-20.5322Q39.6973-23.584 37.0605-27.124Q34.4238-30.6641 32.8613-34.5215Q31.2988-38.3789 31.2988-42.4805Q31.2988-46.8262 33.1543-50.1953Q35.0098-53.5645 38.2812-55.5176Q41.5527-57.4707 45.752-57.4707Z"/>
  </g>
  <g id="Thin-M" transform="matrix(1 0 0 1 799.782 1126)">
   <path d="M56.5918 12.5977Q66.5039 12.5977 75.1709 8.88672Q83.8379 5.17578 90.4297-1.44043Q97.0215-8.05664 100.781-16.7236Q104.541-25.3906 104.541-35.2539Q104.541-45.1172 100.781-53.7842Q97.0215-62.4512 90.4297-69.0674Q83.8379-75.6836 75.1709-79.3945Q66.5039-83.1055 56.5918-83.1055Q46.7285-83.1055 38.0615-79.3945Q29.3945-75.6836 22.8271-69.0674Q16.2598-62.4512 12.5-53.7842Q8.74023-45.1172 8.74023-35.2539Q8.74023-25.3906 12.4756-16.7236Q16.2109-8.05664 22.8027-1.44043Q29.3945 5.17578 38.0859 8.88672Q46.7773 12.5977 56.5918 12.5977ZM44.8242-57.2754Q48.7793-57.2754 51.8555-55.1514Q54.9316-53.0273 56.6406-49.9512Q58.3008-53.0273 61.4258-55.1514Q64.5508-57.2754 68.4082-57.2754Q72.5098-57.2754 75.6836-55.4199Q78.8574-53.5645 80.6885-50.2686Q82.5195-46.9727 82.5195-42.8711Q82.5195-38.623 80.835-34.7168Q79.1504-30.8105 76.416-27.2949Q73.6816-23.7793 70.4102-20.7764Q67.1387-17.7734 63.9648-15.332Q60.791-12.8906 58.3008-11.084Q57.9102-10.791 57.4463-10.5713Q56.9824-10.3516 56.6406-10.3516Q56.2988-10.3516 55.835-10.5713Q55.3711-10.791 54.9316-11.084Q52.3438-12.6953 49.1211-15.0879Q45.8984-17.4805 42.6758-20.5322Q39.4531-23.584 36.7188-27.1484Q33.9844-30.7129 32.3486-34.668Q30.7129-38.623 30.7129-42.8711Q30.7129-46.9727 32.5439-50.2686Q34.375-53.5645 37.5732-55.4199Q40.7715-57.2754 44.8242-57.2754Z"/>
  </g>
  <g id="Ultralight-M" transform="matrix(1 0 0 1 503.632 1126)">
   <path d="M56.0547 12.0605Q65.8203 12.0605 74.3896 8.37402Q82.959 4.6875 89.4775-1.83105Q95.9961-8.34961 99.707-16.9189Q103.418-25.4883 103.418-35.2539Q103.418-45.0195 99.707-53.5889Q95.9961-62.1582 89.4775-68.6768Q82.959-75.1953 74.3896-78.8818Q65.8203-82.5684 56.0547-82.5684Q46.2891-82.5684 37.7197-78.8818Q29.1504-75.1953 22.6562-68.6768Q16.1621-62.1582 12.4512-53.5889Q8.74023-45.0195 8.74023-35.2539Q8.74023-25.4883 12.4268-16.9189Q16.1133-8.34961 22.6318-1.83105Q29.1504 4.6875 37.7197 8.37402Q46.2891 12.0605 56.0547 12.0605ZM44.3359-57.2754Q48.2422-57.2754 51.3428-55.127Q54.4434-52.9785 56.1035-50.0488Q57.7148-52.9785 60.8398-55.127Q63.9648-57.2754 67.7734-57.2754Q71.8262-57.2754 74.9512-55.4199Q78.0762-53.5645 79.9072-50.3418Q81.7383-47.1191 81.7383-43.1152Q81.7383-38.7695 79.9805-34.8389Q78.2227-30.9082 75.4395-27.3926Q72.6562-23.877 69.3604-20.874Q66.0645-17.8711 62.9639-15.5029Q59.8633-13.1348 57.5195-11.3281Q57.1777-11.084 56.7627-10.9131Q56.3477-10.7422 56.0547-10.7422Q55.8105-10.7422 55.3955-10.9375Q54.9805-11.1328 54.5898-11.3281Q52.1484-12.8906 48.999-15.2344Q45.8496-17.5781 42.6025-20.5811Q39.3555-23.584 36.5723-27.1729Q33.7891-30.7617 32.1045-34.7656Q30.4199-38.7695 30.4199-43.1152Q30.4199-47.1191 32.2266-50.3418Q34.0332-53.5645 37.207-55.4199Q40.3809-57.2754 44.3359-57.2754Z"/>
  </g>
  <g id="Black-S" transform="matrix(1 0 0 1 2884.57 696)">
   <path d="M48.8281 6.78711Q57.5195 6.78711 65.1123 3.51562Q72.7051 0.244141 78.4912-5.54199Q84.2773-11.3281 87.5488-18.9209Q90.8203-26.5137 90.8203-35.2051Q90.8203-43.8965 87.5488-51.4893Q84.2773-59.082 78.4912-64.8682Q72.7051-70.6543 65.1123-73.9258Q57.5195-77.1973 48.8281-77.1973Q40.1367-77.1973 32.5439-73.9258Q24.9512-70.6543 19.165-64.8682Q13.3789-59.082 10.1074-51.4893Q6.83594-43.8965 6.83594-35.2051Q6.83594-26.5137 10.1074-18.9209Q13.3789-11.3281 19.165-5.54199Q24.9512 0.244141 32.5439 3.51562Q40.1367 6.78711 48.8281 6.78711ZM39.7949-51.8555Q43.2129-51.8555 45.4834-50.2197Q47.7539-48.584 48.8281-46.7285Q49.9512-48.584 52.1973-50.2197Q54.4434-51.8555 57.8613-51.8555Q62.3047-51.8555 65.5273-48.6084Q68.75-45.3613 68.75-39.8926Q68.75-35.9375 67.1387-32.5195Q65.5273-29.1016 63.1104-26.3672Q60.6934-23.6328 58.2031-21.6309Q55.7129-19.6289 53.833-18.457Q51.9531-17.2852 51.4648-17.0898Q50.8789-16.8457 50.1709-16.5039Q49.4629-16.1621 48.8281-16.1621Q48.1934-16.1621 47.4609-16.5039Q46.7285-16.8457 46.1914-17.0898Q45.752-17.334 43.8721-18.5059Q41.9922-19.6777 39.4775-21.6553Q36.9629-23.6328 34.5459-26.3916Q32.1289-29.1504 30.5176-32.5439Q28.9062-35.9375 28.9062-39.8926Q28.9062-45.3613 32.1289-48.6084Q35.3516-51.8555 39.7949-51.8555Z"/>
  </g>
  <g id="Heavy-S" transform="matrix(1 0 0 1 2588.47 696)">
   <path d="M48.1934 6.15234Q56.7871 6.15234 64.2578 2.92969Q71.7285-0.292969 77.4414-6.00586Q83.1543-11.7188 86.377-19.1895Q89.5996-26.6602 89.5996-35.2051Q89.5996-43.75 86.377-51.2451Q83.1543-58.7402 77.4414-64.4531Q71.7285-70.166 64.2334-73.3887Q56.7383-76.6113 48.1934-76.6113Q39.6484-76.6113 32.1777-73.3887Q24.707-70.166 18.9941-64.4531Q13.2812-58.7402 10.0586-51.2451Q6.83594-43.75 6.83594-35.2051Q6.83594-26.6602 10.0586-19.1895Q13.2812-11.7188 18.9941-6.00586Q24.707-0.292969 32.2021 2.92969Q39.6973 6.15234 48.1934 6.15234ZM39.1113-52.0508Q42.4805-52.0508 44.7754-50.415Q47.0703-48.7793 48.2422-46.7285Q49.4629-48.7793 51.7578-50.415Q54.0527-52.0508 57.373-52.0508Q62.0117-52.0508 65.2344-48.7549Q68.457-45.459 68.457-40.0391Q68.457-36.2793 66.9678-32.9834Q65.4785-29.6875 63.1592-26.9531Q60.8398-24.2188 58.3496-22.1191Q55.8594-20.0195 53.7842-18.6279Q51.709-17.2363 50.7812-16.6992Q50.1953-16.4551 49.5117-16.1133Q48.8281-15.7715 48.291-15.7715Q47.7051-15.7715 46.9971-16.1133Q46.2891-16.4551 45.7031-16.6992Q44.7754-17.2852 42.7246-18.6523Q40.6738-20.0195 38.1592-22.1191Q35.6445-24.2188 33.3496-26.9775Q31.0547-29.7363 29.541-33.0078Q28.0273-36.2793 28.0273-40.0391Q28.0273-45.459 31.25-48.7549Q34.4727-52.0508 39.1113-52.0508Z"/>
  </g>
  <g id="Bold-S" transform="matrix(1 0 0 1 2292.42 696)">
   <path d="M47.5586 5.46875Q55.957 5.46875 63.3057 2.29492Q70.6543-0.878906 76.2695-6.51855Q81.8848-12.1582 85.083-19.5068Q88.2812-26.8555 88.2812-35.2539Q88.2812-43.6035 85.083-50.9766Q81.8848-58.3496 76.2695-63.9648Q70.6543-69.5801 63.2812-72.7539Q55.9082-75.9277 47.5098-75.9277Q39.1602-75.9277 31.7871-72.7539Q24.4141-69.5801 18.8232-63.9648Q13.2324-58.3496 10.0342-50.9766Q6.83594-43.6035 6.83594-35.2539Q6.83594-26.8555 10.0342-19.5068Q13.2324-12.1582 18.8477-6.51855Q24.4629-0.878906 31.8115 2.29492Q39.1602 5.46875 47.5586 5.46875ZM38.2812-52.2949Q41.6016-52.2949 43.9453-50.6592Q46.2891-49.0234 47.5586-46.6797Q48.877-49.0234 51.2207-50.6592Q53.5645-52.2949 56.8359-52.2949Q61.6211-52.2949 64.8682-48.9502Q68.1152-45.6055 68.1152-40.1855Q68.1152-36.7188 66.7236-33.5449Q65.332-30.3711 63.1592-27.6367Q60.9863-24.9023 58.4961-22.6562Q56.0059-20.4102 53.7354-18.7988Q51.4648-17.1875 49.9512-16.2598Q49.4141-15.9668 48.7793-15.625Q48.1445-15.2832 47.6074-15.2832Q47.1191-15.2832 46.4355-15.625Q45.752-15.9668 45.166-16.2598Q43.7012-17.1875 41.4307-18.8232Q39.1602-20.459 36.6699-22.6562Q34.1797-24.8535 31.9824-27.6123Q29.7852-30.3711 28.3936-33.5449Q27.002-36.7188 27.002-40.1855Q27.002-45.6055 30.249-48.9502Q33.4961-52.2949 38.2812-52.2949Z"/>
  </g>
  <g id="Semibold-S" transform="matrix(1 0 0 1 1996.2 696)">
   <path d="M47.0703 4.98047Q55.3711 4.98047 62.6465 1.85547Q69.9219-1.26953 75.4639-6.86035Q81.0059-12.4512 84.1553-19.7266Q87.3047-27.002 87.3047-35.2539Q87.3047-43.5059 84.1553-50.7812Q81.0059-58.0566 75.4395-63.623Q69.873-69.1895 62.5977-72.3389Q55.3223-75.4883 47.0215-75.4883Q38.7695-75.4883 31.4941-72.3389Q24.2188-69.1895 18.6768-63.623Q13.1348-58.0566 9.98535-50.7812Q6.83594-43.5059 6.83594-35.2539Q6.83594-27.002 9.98535-19.7266Q13.1348-12.4512 18.7012-6.86035Q24.2676-1.26953 31.543 1.85547Q38.8184 4.98047 47.0703 4.98047ZM37.6953-52.4414Q41.0156-52.4414 43.3838-50.8057Q45.752-49.1699 47.1191-46.6797Q48.4863-49.1699 50.8545-50.8057Q53.2227-52.4414 56.4941-52.4414Q61.3281-52.4414 64.5996-49.0479Q67.8711-45.6543 67.8711-40.2832Q67.8711-36.9629 66.5771-33.8867Q65.2832-30.8105 63.1836-28.0762Q61.084-25.3418 58.5938-23.0225Q56.1035-20.7031 53.6865-18.9209Q51.2695-17.1387 49.4141-15.9668Q48.877-15.625 48.2666-15.2832Q47.6562-14.9414 47.168-14.9414Q46.7285-14.9414 46.0449-15.2832Q45.3613-15.625 44.8242-15.9668Q42.9199-17.1387 40.5029-18.9209Q38.0859-20.7031 35.6201-22.998Q33.1543-25.293 31.0303-28.0273Q28.9062-30.7617 27.6123-33.8623Q26.3184-36.9629 26.3184-40.2832Q26.3184-45.6543 29.5654-49.0479Q32.8125-52.4414 37.6953-52.4414Z"/>
  </g>
  <g id="Medium-S" transform="matrix(1 0 0 1 1699.83 696)">
   <path d="M46.7285 4.63867Q54.9316 4.63867 62.1338 1.51367Q69.3359-1.61133 74.8535-7.12891Q80.3711-12.6465 83.4961-19.8486Q86.6211-27.0508 86.6211-35.2539Q86.6211-43.4082 83.4961-50.6348Q80.3711-57.8613 74.8291-63.3789Q69.2871-68.8965 62.085-71.9971Q54.8828-75.0977 46.6797-75.0977Q38.4766-75.0977 31.2744-71.9971Q24.0723-68.8965 18.5791-63.3789Q13.0859-57.8613 9.96094-50.6348Q6.83594-43.4082 6.83594-35.2539Q6.83594-27.0508 9.96094-19.8486Q13.0859-12.6465 18.6035-7.12891Q24.1211-1.61133 31.3232 1.51367Q38.5254 4.63867 46.7285 4.63867ZM37.2559-52.5879Q40.5273-52.5879 42.9199-50.9277Q45.3125-49.2676 46.7285-46.6309Q48.1934-49.2676 50.5859-50.9277Q52.9785-52.5879 56.2012-52.5879Q61.1328-52.5879 64.4287-49.1455Q67.7246-45.7031 67.7246-40.3809Q67.7246-37.1582 66.4551-34.1553Q65.1855-31.1523 63.1592-28.418Q61.1328-25.6836 58.667-23.291Q56.2012-20.8984 53.6621-18.9941Q51.123-17.0898 48.9746-15.7227Q48.4375-15.3809 47.8516-15.0391Q47.2656-14.6973 46.8262-14.6973Q46.3867-14.6973 45.7275-15.0391Q45.0684-15.3809 44.5312-15.7227Q42.334-17.0898 39.8193-18.9941Q37.3047-20.8984 34.8389-23.2666Q32.373-25.6348 30.2979-28.3691Q28.2227-31.1035 27.002-34.1309Q25.7812-37.1582 25.7812-40.3809Q25.7812-45.7031 29.0527-49.1455Q32.3242-52.5879 37.2559-52.5879Z"/>
  </g>
  <g id="Regular-S" transform="matrix(1 0 0 1 1403.58 696)">
   <path d="M46.2402 4.15039Q54.3457 4.15039 61.4746 1.07422Q68.6035-2.00195 74.0479-7.4707Q79.4922-12.9395 82.5928-20.0684Q85.6934-27.1973 85.6934-35.2539Q85.6934-43.3105 82.5928-50.4395Q79.4922-57.5684 74.0234-63.0371Q68.5547-68.5059 61.4258-71.582Q54.2969-74.6582 46.1914-74.6582Q38.1348-74.6582 31.0059-71.582Q23.877-68.5059 18.457-63.0371Q13.0371-57.5684 9.93652-50.4395Q6.83594-43.3105 6.83594-35.2539Q6.83594-27.1973 9.93652-20.0684Q13.0371-12.9395 18.4814-7.4707Q23.9258-2.00195 31.0547 1.07422Q38.1836 4.15039 46.2402 4.15039ZM36.7188-52.7344Q39.9414-52.7344 42.3584-51.0742Q44.7754-49.4141 46.2891-46.6309Q47.8027-49.4141 50.2197-51.0742Q52.6367-52.7344 55.8105-52.7344Q60.8887-52.7344 64.1846-49.2676Q67.4805-45.8008 67.4805-40.4785Q67.4805-37.4512 66.3086-34.5215Q65.1367-31.5918 63.1836-28.8574Q61.2305-26.123 58.7646-23.6572Q56.2988-21.1914 53.6133-19.1162Q50.9277-17.041 48.4375-15.4297Q47.9004-15.0879 47.3389-14.7461Q46.7773-14.4043 46.3867-14.4043Q45.9961-14.4043 45.3613-14.7461Q44.7266-15.0879 44.1406-15.4297Q41.6016-17.041 38.9404-19.1162Q36.2793-21.1914 33.8135-23.6328Q31.3477-26.0742 29.3701-28.8086Q27.3926-31.543 26.2451-34.4971Q25.0977-37.4512 25.0977-40.4785Q25.0977-45.8008 28.3691-49.2676Q31.6406-52.7344 36.7188-52.7344Z"/>
  </g>
  <g id="Light-S" transform="matrix(1 0 0 1 1107.6 696)">
   <path d="M45.5078 3.41797Q53.4668 3.41797 60.4736 0.415039Q67.4805-2.58789 72.8271-7.95898Q78.1738-13.3301 81.2012-20.3125Q84.2285-27.2949 84.2285-35.2539Q84.2285-43.2129 81.2012-50.1953Q78.1738-57.1777 72.8027-62.5488Q67.4316-67.9199 60.4492-70.9229Q53.4668-73.9258 45.459-73.9258Q37.5488-73.9258 30.542-70.9229Q23.5352-67.9199 18.2129-62.5488Q12.8906-57.1777 9.86328-50.1953Q6.83594-43.2129 6.83594-35.2539Q6.83594-27.2949 9.86328-20.3125Q12.8906-13.3301 18.2373-7.95898Q23.584-2.58789 30.5908 0.415039Q37.5977 3.41797 45.5078 3.41797ZM36.1328-52.6855Q39.2578-52.6855 41.6748-51.001Q44.0918-49.3164 45.5566-46.7285Q47.0215-49.3164 49.4385-51.001Q51.8555-52.6855 54.9805-52.6855Q59.9609-52.6855 63.1836-49.3164Q66.4062-45.9473 66.4062-40.7715Q66.4062-37.6465 65.1855-34.668Q63.9648-31.6895 61.9141-28.9551Q59.8633-26.2207 57.373-23.7793Q54.8828-21.3379 52.2705-19.3359Q49.6582-17.334 47.4121-15.7715Q46.9238-15.4785 46.4355-15.21Q45.9473-14.9414 45.6055-14.9414Q45.2637-14.9414 44.751-15.21Q44.2383-15.4785 43.7012-15.7715Q41.3574-17.2852 38.7695-19.2871Q36.1816-21.2891 33.6914-23.7061Q31.2012-26.123 29.1504-28.8818Q27.0996-31.6406 25.9033-34.6436Q24.707-37.6465 24.707-40.7715Q24.707-45.9473 27.9297-49.3164Q31.1523-52.6855 36.1328-52.6855Z"/>
  </g>
  <g id="Thin-S" transform="matrix(1 0 0 1 811.867 696)">
   <path d="M44.5312 2.44141Q52.3438 2.44141 59.1553-0.488281Q65.9668-3.41797 71.1914-8.64258Q76.416-13.8672 79.3457-20.6787Q82.2754-27.4902 82.2754-35.2539Q82.2754-43.0176 79.3457-49.8291Q76.416-56.6406 71.1914-61.8652Q65.9668-67.0898 59.1553-70.0195Q52.3438-72.9492 44.5312-72.9492Q36.7676-72.9492 29.9316-70.0195Q23.0957-67.0898 17.9199-61.8652Q12.7441-56.6406 9.79004-49.8291Q6.83594-43.0176 6.83594-35.2539Q6.83594-27.4902 9.79004-20.6787Q12.7441-13.8672 17.9199-8.64258Q23.0957-3.41797 29.9316-0.488281Q36.7676 2.44141 44.5312 2.44141ZM35.3027-52.5391Q38.3789-52.5391 40.7959-50.8545Q43.2129-49.1699 44.5801-46.7285Q45.9473-49.1699 48.3643-50.8545Q50.7812-52.5391 53.8086-52.5391Q58.6426-52.5391 61.8164-49.292Q64.9902-46.0449 64.9902-41.1133Q64.9902-37.793 63.6719-34.7656Q62.3535-31.7383 60.2295-28.9795Q58.1055-26.2207 55.5664-23.8525Q53.0273-21.4844 50.5127-19.5557Q47.998-17.627 45.9961-16.1621Q45.6543-15.9668 45.2637-15.7715Q44.873-15.5762 44.5801-15.5762Q44.3359-15.5762 43.9209-15.7715Q43.5059-15.9668 43.1641-16.1621Q41.0645-17.5293 38.5498-19.4092Q36.0352-21.2891 33.4961-23.6816Q30.957-26.0742 28.8574-28.8574Q26.7578-31.6406 25.4639-34.7168Q24.1699-37.793 24.1699-41.1133Q24.1699-46.0449 27.3193-49.292Q30.4688-52.5391 35.3027-52.5391Z"/>
  </g>
  <g id="Ultralight-S" transform="matrix(1 0 0 1 515.644 696)">
   <path d="M44.043 1.95312Q51.7578 1.95312 58.4717-0.927734Q65.1855-3.80859 70.3369-8.95996Q75.4883-14.1113 78.3936-20.8252Q81.2988-27.5391 81.2988-35.2539Q81.2988-42.9688 78.3936-49.6826Q75.4883-56.3965 70.3369-61.5479Q65.1855-66.6992 58.4717-69.5801Q51.7578-72.4609 44.043-72.4609Q36.377-72.4609 29.6387-69.5801Q22.9004-66.6992 17.7734-61.5479Q12.6465-56.3965 9.74121-49.6826Q6.83594-42.9688 6.83594-35.2539Q6.83594-27.5391 9.74121-20.8252Q12.6465-14.1113 17.7734-8.95996Q22.9004-3.80859 29.6387-0.927734Q36.377 1.95312 44.043 1.95312ZM34.8633-52.4902Q37.8906-52.4902 40.3076-50.8057Q42.7246-49.1211 44.0918-46.8262Q45.3613-49.1211 47.8027-50.8057Q50.2441-52.4902 53.2227-52.4902Q58.0078-52.4902 61.1084-49.3164Q64.209-46.1426 64.209-41.3086Q64.209-37.9395 62.8662-34.8877Q61.5234-31.8359 59.3262-29.0771Q57.1289-26.3184 54.5898-23.9746Q52.0508-21.6309 49.585-19.7266Q47.1191-17.8223 45.2637-16.4551Q44.9707-16.2109 44.6289-16.0889Q44.2871-15.9668 44.043-15.9668Q43.7988-15.9668 43.4814-16.1133Q43.1641-16.2598 42.8223-16.4551Q40.8691-17.6758 38.4033-19.5312Q35.9375-21.3867 33.374-23.7549Q30.8105-26.123 28.6621-28.9307Q26.5137-31.7383 25.1953-34.8389Q23.877-37.9395 23.877-41.3086Q23.877-46.1426 26.9775-49.3164Q30.0781-52.4902 34.8633-52.4902Z"/>
  </g>
 </g>
</svg>
