<?xml version="1.0" encoding="UTF-8"?>
<!--Generator: Apple Native CoreSVG 149-->
<!DOCTYPE svg
PUBLIC "-//W3C//DTD SVG 1.1//EN"
       "http://www.w3.org/Graphics/SVG/1.1/DTD/svg11.dtd">
<svg version="1.1" xmlns="http://www.w3.org/2000/svg" xmlns:xlink="http://www.w3.org/1999/xlink" width="3300" height="2200">
 <!--glyph: "uni10028F.medium", point size: 100.0, font version: "17.0d9e1", template writer version: "59"-->
 <g id="Notes">
  <rect height="2200" id="artboard" style="fill:white;opacity:1" width="3300" x="0" y="0"/>
  <line style="fill:none;stroke:black;opacity:1;stroke-width:0.5;" x1="263" x2="3036" y1="292" y2="292"/>
  <text style="stroke:none;fill:black;font-family:sans-serif;font-size:13;font-weight:bold;" transform="matrix(1 0 0 1 263 322)">Weight/Scale Variations</text>
  <text style="stroke:none;fill:black;font-family:sans-serif;font-size:13;text-anchor:middle;" transform="matrix(1 0 0 1 559.711 322)">Ultralight</text>
  <text style="stroke:none;fill:black;font-family:sans-serif;font-size:13;text-anchor:middle;" transform="matrix(1 0 0 1 856.422 322)">Thin</text>
  <text style="stroke:none;fill:black;font-family:sans-serif;font-size:13;text-anchor:middle;" transform="matrix(1 0 0 1 1153.13 322)">Light</text>
  <text style="stroke:none;fill:black;font-family:sans-serif;font-size:13;text-anchor:middle;" transform="matrix(1 0 0 1 1449.84 322)">Regular</text>
  <text style="stroke:none;fill:black;font-family:sans-serif;font-size:13;text-anchor:middle;" transform="matrix(1 0 0 1 1746.56 322)">Medium</text>
  <text style="stroke:none;fill:black;font-family:sans-serif;font-size:13;text-anchor:middle;" transform="matrix(1 0 0 1 2043.27 322)">Semibold</text>
  <text style="stroke:none;fill:black;font-family:sans-serif;font-size:13;text-anchor:middle;" transform="matrix(1 0 0 1 2339.98 322)">Bold</text>
  <text style="stroke:none;fill:black;font-family:sans-serif;font-size:13;text-anchor:middle;" transform="matrix(1 0 0 1 2636.69 322)">Heavy</text>
  <text style="stroke:none;fill:black;font-family:sans-serif;font-size:13;text-anchor:middle;" transform="matrix(1 0 0 1 2933.4 322)">Black</text>
  <line style="fill:none;stroke:black;opacity:1;stroke-width:0.5;" x1="263" x2="3036" y1="1903" y2="1903"/>
  <g transform="matrix(1 0 0 1 263 1933)">
   <path d="M9.24805 0.830078Q10.8691 0.830078 12.2949 0.214844Q13.7207-0.400391 14.8096-1.49414Q15.8984-2.58789 16.5186-4.01367Q17.1387-5.43945 17.1387-7.05078Q17.1387-8.66211 16.5186-10.0879Q15.8984-11.5137 14.8047-12.6074Q13.7109-13.7012 12.2852-14.3164Q10.8594-14.9316 9.23828-14.9316Q7.62695-14.9316 6.20117-14.3164Q4.77539-13.7012 3.69141-12.6074Q2.60742-11.5137 1.9873-10.0879Q1.36719-8.66211 1.36719-7.05078Q1.36719-5.43945 1.9873-4.01367Q2.60742-2.58789 3.69629-1.49414Q4.78516-0.400391 6.21094 0.214844Q7.63672 0.830078 9.24805 0.830078ZM9.24805-0.654297Q7.91992-0.654297 6.7627-1.14746Q5.60547-1.64062 4.73145-2.51953Q3.85742-3.39844 3.36426-4.56055Q2.87109-5.72266 2.87109-7.05078Q2.87109-8.37891 3.35938-9.54102Q3.84766-10.7031 4.72168-11.582Q5.5957-12.4609 6.75293-12.9541Q7.91016-13.4473 9.23828-13.4473Q10.5762-13.4473 11.7334-12.9541Q12.8906-12.4609 13.7695-11.582Q14.6484-10.7031 15.1465-9.54102Q15.6445-8.37891 15.6445-7.05078Q15.6445-5.72266 15.1514-4.56055Q14.6582-3.39844 13.7842-2.51953Q12.9102-1.64062 11.748-1.14746Q10.5859-0.654297 9.24805-0.654297ZM5.83984-7.04102Q5.83984-6.71875 6.04492-6.51855Q6.25-6.31836 6.5918-6.31836L8.50586-6.31836L8.50586-4.39453Q8.50586-4.0625 8.70605-3.85742Q8.90625-3.65234 9.22852-3.65234Q9.56055-3.65234 9.76562-3.85742Q9.9707-4.0625 9.9707-4.39453L9.9707-6.31836L11.8945-6.31836Q12.2266-6.31836 12.4316-6.51855Q12.6367-6.71875 12.6367-7.04102Q12.6367-7.37305 12.4316-7.57812Q12.2266-7.7832 11.8945-7.7832L9.9707-7.7832L9.9707-9.69727Q9.9707-10.0391 9.76562-10.2441Q9.56055-10.4492 9.22852-10.4492Q8.90625-10.4492 8.70605-10.2441Q8.50586-10.0391 8.50586-9.69727L8.50586-7.7832L6.5918-7.7832Q6.25-7.7832 6.04492-7.57812Q5.83984-7.37305 5.83984-7.04102Z"/>
  </g>
  <g transform="matrix(1 0 0 1 281.867 1933)">
   <path d="M11.709 2.91016Q13.75 2.91016 15.5518 2.12891Q17.3535 1.34766 18.7305-0.0292969Q20.1074-1.40625 20.8887-3.20801Q21.6699-5.00977 21.6699-7.05078Q21.6699-9.0918 20.8887-10.8936Q20.1074-12.6953 18.7305-14.0723Q17.3535-15.4492 15.5469-16.2305Q13.7402-17.0117 11.6992-17.0117Q9.6582-17.0117 7.85645-16.2305Q6.05469-15.4492 4.68262-14.0723Q3.31055-12.6953 2.5293-10.8936Q1.74805-9.0918 1.74805-7.05078Q1.74805-5.00977 2.5293-3.20801Q3.31055-1.40625 4.6875-0.0292969Q6.06445 1.34766 7.86621 2.12891Q9.66797 2.91016 11.709 2.91016ZM11.709 1.25Q9.98047 1.25 8.47656 0.605469Q6.97266-0.0390625 5.83496-1.17676Q4.69727-2.31445 4.05762-3.81836Q3.41797-5.32227 3.41797-7.05078Q3.41797-8.7793 4.05762-10.2832Q4.69727-11.7871 5.83008-12.9297Q6.96289-14.0723 8.4668-14.7119Q9.9707-15.3516 11.6992-15.3516Q13.4277-15.3516 14.9316-14.7119Q16.4355-14.0723 17.5781-12.9297Q18.7207-11.7871 19.3652-10.2832Q20.0098-8.7793 20.0098-7.05078Q20.0098-5.32227 19.3701-3.81836Q18.7305-2.31445 17.5928-1.17676Q16.4551-0.0390625 14.9463 0.605469Q13.4375 1.25 11.709 1.25ZM7.39258-7.04102Q7.39258-6.68945 7.62695-6.46484Q7.86133-6.24023 8.23242-6.24023L10.8789-6.24023L10.8789-3.57422Q10.8789-3.21289 11.1035-2.9834Q11.3281-2.75391 11.6797-2.75391Q12.0508-2.75391 12.2852-2.9834Q12.5195-3.21289 12.5195-3.57422L12.5195-6.24023L15.1758-6.24023Q15.5371-6.24023 15.7715-6.46484Q16.0059-6.68945 16.0059-7.04102Q16.0059-7.41211 15.7715-7.6416Q15.5371-7.87109 15.1758-7.87109L12.5195-7.87109L12.5195-10.5176Q12.5195-10.8984 12.2852-11.1279Q12.0508-11.3574 11.6797-11.3574Q11.3281-11.3574 11.1035-11.1279Q10.8789-10.8984 10.8789-10.5176L10.8789-7.87109L8.23242-7.87109Q7.85156-7.87109 7.62207-7.6416Q7.39258-7.41211 7.39258-7.04102Z"/>
  </g>
  <g transform="matrix(1 0 0 1 305.646 1933)">
   <path d="M14.9707 5.66406Q17.0605 5.66406 18.96 5.01465Q20.8594 4.36523 22.4512 3.19336Q24.043 2.02148 25.2197 0.429688Q26.3965-1.16211 27.0459-3.06641Q27.6953-4.9707 27.6953-7.05078Q27.6953-9.14062 27.0459-11.04Q26.3965-12.9395 25.2197-14.5312Q24.043-16.123 22.4512-17.2998Q20.8594-18.4766 18.9551-19.126Q17.0508-19.7754 14.9609-19.7754Q12.8711-19.7754 10.9717-19.126Q9.07227-18.4766 7.48535-17.2998Q5.89844-16.123 4.72168-14.5312Q3.54492-12.9395 2.90039-11.04Q2.25586-9.14062 2.25586-7.05078Q2.25586-4.9707 2.90527-3.06641Q3.55469-1.16211 4.72656 0.429688Q5.89844 2.02148 7.49023 3.19336Q9.08203 4.36523 10.9814 5.01465Q12.8809 5.66406 14.9707 5.66406ZM14.9707 3.84766Q13.1641 3.84766 11.5283 3.2959Q9.89258 2.74414 8.53516 1.74805Q7.17773 0.751953 6.17676-0.610352Q5.17578-1.97266 4.62891-3.6084Q4.08203-5.24414 4.08203-7.05078Q4.08203-8.86719 4.62891-10.5029Q5.17578-12.1387 6.17188-13.501Q7.16797-14.8633 8.52539-15.8594Q9.88281-16.8555 11.5186-17.4023Q13.1543-17.9492 14.9609-17.9492Q16.7773-17.9492 18.4131-17.4023Q20.0488-16.8555 21.4111-15.8594Q22.7734-14.8633 23.7695-13.501Q24.7656-12.1387 25.3174-10.5029Q25.8691-8.86719 25.8691-7.05078Q25.8789-5.24414 25.332-3.6084Q24.7852-1.97266 23.7842-0.610352Q22.7832 0.751953 21.4209 1.74805Q20.0586 2.74414 18.4229 3.2959Q16.7871 3.84766 14.9707 3.84766ZM9.45312-7.04102Q9.45312-6.66016 9.71191-6.41113Q9.9707-6.16211 10.3711-6.16211L14.0625-6.16211L14.0625-2.46094Q14.0625-2.06055 14.3115-1.80664Q14.5605-1.55273 14.9414-1.55273Q15.3516-1.55273 15.6055-1.80664Q15.8594-2.06055 15.8594-2.46094L15.8594-6.16211L19.5605-6.16211Q19.9609-6.16211 20.2148-6.41113Q20.4688-6.66016 20.4688-7.04102Q20.4688-7.45117 20.2148-7.70508Q19.9609-7.95898 19.5605-7.95898L15.8594-7.95898L15.8594-11.6504Q15.8594-12.0605 15.6055-12.3145Q15.3516-12.5684 14.9414-12.5684Q14.5605-12.5684 14.3115-12.3096Q14.0625-12.0508 14.0625-11.6504L14.0625-7.95898L10.3711-7.95898Q9.96094-7.95898 9.70703-7.70508Q9.45312-7.45117 9.45312-7.04102Z"/>
  </g>
  <text style="stroke:none;fill:black;font-family:sans-serif;font-size:13;font-weight:bold;" transform="matrix(1 0 0 1 263 1953)">Design Variations</text>
  <text style="stroke:none;fill:black;font-family:sans-serif;font-size:13;" transform="matrix(1 0 0 1 263 1971)">Symbols are supported in up to nine weights and three scales.</text>
  <text style="stroke:none;fill:black;font-family:sans-serif;font-size:13;" transform="matrix(1 0 0 1 263 1989)">For optimal layout with text and other symbols, vertically align</text>
  <text style="stroke:none;fill:black;font-family:sans-serif;font-size:13;" transform="matrix(1 0 0 1 263 2007)">symbols with the adjacent text.</text>
  <line style="fill:none;stroke:#00AEEF;stroke-width:0.5;opacity:1.0;" x1="776" x2="776" y1="1919" y2="1933"/>
  <g transform="matrix(1 0 0 1 776 1933)">
   <path d="M3.31055 0.15625Q3.70117 0.15625 3.91602-0.00976562Q4.13086-0.175781 4.26758-0.585938L5.52734-4.0332L11.2891-4.0332L12.5488-0.585938Q12.6855-0.175781 12.9004-0.00976562Q13.1152 0.15625 13.4961 0.15625Q13.8867 0.15625 14.1162-0.0585938Q14.3457-0.273438 14.3457-0.644531Q14.3457-0.869141 14.2383-1.17188L9.6582-13.3691Q9.48242-13.8184 9.17969-14.043Q8.87695-14.2676 8.4082-14.2676Q7.5-14.2676 7.17773-13.3789L2.59766-1.16211Q2.49023-0.859375 2.49023-0.634766Q2.49023-0.263672 2.70996-0.0537109Q2.92969 0.15625 3.31055 0.15625ZM6.00586-5.51758L8.37891-12.0898L8.42773-12.0898L10.8008-5.51758Z"/>
  </g>
  <line style="fill:none;stroke:#00AEEF;stroke-width:0.5;opacity:1.0;" x1="793.197" x2="793.197" y1="1919" y2="1933"/>
  <text style="stroke:none;fill:black;font-family:sans-serif;font-size:13;font-weight:bold;" transform="matrix(1 0 0 1 776 1953)">Margins</text>
  <text style="stroke:none;fill:black;font-family:sans-serif;font-size:13;" transform="matrix(1 0 0 1 776 1971)">Leading and trailing margins on the left and right side of each symbol</text>
  <text style="stroke:none;fill:black;font-family:sans-serif;font-size:13;" transform="matrix(1 0 0 1 776 1989)">can be adjusted by modifying the x-location of the margin guidelines.</text>
  <text style="stroke:none;fill:black;font-family:sans-serif;font-size:13;" transform="matrix(1 0 0 1 776 2007)">Modifications are automatically applied proportionally to all</text>
  <text style="stroke:none;fill:black;font-family:sans-serif;font-size:13;" transform="matrix(1 0 0 1 776 2025)">scales and weights.</text>
  <g transform="matrix(1 0 0 1 1289 1933)">
   <path d="M2.8418 1.86523L4.54102 3.57422Q5.18555 4.22852 5.90332 4.17969Q6.62109 4.13086 7.31445 3.35938L18.0078-8.42773L17.041-9.4043L6.42578 2.27539Q6.16211 2.57812 5.89355 2.61719Q5.625 2.65625 5.27344 2.30469L4.10156 1.14258Q3.75 0.791016 3.79395 0.522461Q3.83789 0.253906 4.14062-0.0195312L15.6152-10.8203L14.6387-11.7871L3.04688-0.898438Q2.30469-0.214844 2.25098 0.498047Q2.19727 1.21094 2.8418 1.86523ZM9.25781-16.3281Q8.94531-16.0254 8.90625-15.6348Q8.86719-15.2441 9.04297-14.9512Q9.21875-14.6777 9.55566-14.541Q9.89258-14.4043 10.3809-14.5215Q11.4746-14.7754 12.5977-14.7314Q13.7207-14.6875 14.7949-13.9844L14.209-12.5293Q13.9551-11.9043 14.0674-11.4404Q14.1797-10.9766 14.5801-10.5664L16.875-8.25195Q17.2363-7.88086 17.5781-7.82227Q17.9199-7.76367 18.3398-7.8418L19.4043-8.03711L20.0684-7.36328L20.0293-6.80664Q20-6.43555 20.1221-6.12305Q20.2441-5.81055 20.6055-5.44922L21.3672-4.70703Q21.7285-4.3457 22.1533-4.33105Q22.5781-4.31641 22.9297-4.66797L25.8398-7.58789Q26.1914-7.93945 26.1816-8.35449Q26.1719-8.76953 25.8105-9.13086L25.0391-9.89258Q24.6875-10.2539 24.3799-10.3857Q24.0723-10.5176 23.7109-10.4883L23.1348-10.4395L22.4902-11.0742L22.7344-12.1973Q22.832-12.6172 22.6953-12.9834Q22.5586-13.3496 22.1191-13.7891L19.9219-15.9766Q18.6719-17.2168 17.2607-17.8369Q15.8496-18.457 14.4189-18.4814Q12.9883-18.5059 11.665-17.959Q10.3418-17.4121 9.25781-16.3281ZM10.752-15.957Q11.6602-16.6211 12.7002-16.9043Q13.7402-17.1875 14.8047-17.085Q15.8691-16.9824 16.8701-16.5137Q17.8711-16.0449 18.7012-15.2051L21.1328-12.793Q21.3086-12.6172 21.3525-12.4512Q21.3965-12.2852 21.3379-12.0312L21.0156-10.5469L22.5195-9.0625L23.5059-9.12109Q23.6914-9.13086 23.7891-9.09668Q23.8867-9.0625 24.0332-8.91602L24.6094-8.33984L22.168-5.89844L21.5918-6.47461Q21.4453-6.62109 21.4062-6.71875Q21.3672-6.81641 21.377-7.01172L21.4453-7.98828L19.9512-9.47266L18.4277-9.21875Q18.1836-9.16992 18.042-9.2041Q17.9004-9.23828 17.7148-9.41406L15.7129-11.416Q15.5176-11.5918 15.4932-11.7529Q15.4688-11.9141 15.5859-12.1875L16.4648-14.2773Q15.293-15.3711 13.8281-15.791Q12.3633-16.2109 10.8398-15.7617Q10.7227-15.7324 10.6885-15.8057Q10.6543-15.8789 10.752-15.957Z"/>
  </g>
  <text style="stroke:none;fill:black;font-family:sans-serif;font-size:13;font-weight:bold;" transform="matrix(1 0 0 1 1289 1953)">Exporting</text>
  <text style="stroke:none;fill:black;font-family:sans-serif;font-size:13;" transform="matrix(1 0 0 1 1289 1971)">Symbols should be outlined when exporting to ensure the</text>
  <text style="stroke:none;fill:black;font-family:sans-serif;font-size:13;" transform="matrix(1 0 0 1 1289 1989)">design is preserved when submitting to Xcode.</text>
  <text id="template-version" style="stroke:none;fill:black;font-family:sans-serif;font-size:13;text-anchor:end;" transform="matrix(1 0 0 1 3036 1933)">Template v.2.0</text>
  <text style="stroke:none;fill:black;font-family:sans-serif;font-size:13;text-anchor:end;" transform="matrix(1 0 0 1 3036 1951)">Requires Xcode 13 or greater</text>
  <text id="descriptive-name" style="stroke:none;fill:black;font-family:sans-serif;font-size:13;text-anchor:end;" transform="matrix(1 0 0 1 3036 1969)">Generated from forward.end</text>
  <text style="stroke:none;fill:black;font-family:sans-serif;font-size:13;text-anchor:end;" transform="matrix(1 0 0 1 3036 1987)">Typeset at 100 points</text>
  <text style="stroke:none;fill:black;font-family:sans-serif;font-size:13;" transform="matrix(1 0 0 1 263 726)">Small</text>
  <text style="stroke:none;fill:black;font-family:sans-serif;font-size:13;" transform="matrix(1 0 0 1 263 1156)">Medium</text>
  <text style="stroke:none;fill:black;font-family:sans-serif;font-size:13;" transform="matrix(1 0 0 1 263 1586)">Large</text>
 </g>
 <g id="Guides">
  <g id="H-reference" style="fill:#27AAE1;stroke:none;" transform="matrix(1 0 0 1 339 696)">
   <path d="M0.976562 0L3.66211 0L29.3457-67.1387L30.0293-67.1387L30.0293-70.459L28.125-70.459ZM11.6699-24.4629L46.9727-24.4629L46.2402-26.709L12.4512-26.709ZM55.127 0L57.7637 0L30.6152-70.459L29.4434-70.459L29.4434-67.1387Z"/>
  </g>
  <line id="Baseline-S" style="fill:none;stroke:#27AAE1;opacity:1;stroke-width:0.5;" x1="263" x2="3036" y1="696" y2="696"/>
  <line id="Capline-S" style="fill:none;stroke:#27AAE1;opacity:1;stroke-width:0.5;" x1="263" x2="3036" y1="625.541" y2="625.541"/>
  <g id="H-reference" style="fill:#27AAE1;stroke:none;" transform="matrix(1 0 0 1 339 1126)">
   <path d="M0.976562 0L3.66211 0L29.3457-67.1387L30.0293-67.1387L30.0293-70.459L28.125-70.459ZM11.6699-24.4629L46.9727-24.4629L46.2402-26.709L12.4512-26.709ZM55.127 0L57.7637 0L30.6152-70.459L29.4434-70.459L29.4434-67.1387Z"/>
  </g>
  <line id="Baseline-M" style="fill:none;stroke:#27AAE1;opacity:1;stroke-width:0.5;" x1="263" x2="3036" y1="1126" y2="1126"/>
  <line id="Capline-M" style="fill:none;stroke:#27AAE1;opacity:1;stroke-width:0.5;" x1="263" x2="3036" y1="1055.54" y2="1055.54"/>
  <g id="H-reference" style="fill:#27AAE1;stroke:none;" transform="matrix(1 0 0 1 339 1556)">
   <path d="M0.976562 0L3.66211 0L29.3457-67.1387L30.0293-67.1387L30.0293-70.459L28.125-70.459ZM11.6699-24.4629L46.9727-24.4629L46.2402-26.709L12.4512-26.709ZM55.127 0L57.7637 0L30.6152-70.459L29.4434-70.459L29.4434-67.1387Z"/>
  </g>
  <line id="Baseline-L" style="fill:none;stroke:#27AAE1;opacity:1;stroke-width:0.5;" x1="263" x2="3036" y1="1556" y2="1556"/>
  <line id="Capline-L" style="fill:none;stroke:#27AAE1;opacity:1;stroke-width:0.5;" x1="263" x2="3036" y1="1485.54" y2="1485.54"/>
  <line id="left-margin" style="fill:none;stroke:#00AEEF;stroke-width:0.5;opacity:1.0;" x1="1399.67" x2="1399.67" y1="1030.79" y2="1150.12"/>
  <line id="right-margin" style="fill:none;stroke:#00AEEF;stroke-width:0.5;opacity:1.0;" x1="1500.02" x2="1500.02" y1="1030.79" y2="1150.12"/>
 </g>
 <g id="Symbols">
  <g id="Black-L" transform="matrix(1 0 0 1 2855.74 1556)">
   <path d="M126.953 21.4844Q132.275 21.4844 135.767 18.0908Q139.258 14.6973 139.258 9.57031L139.258-80.0293Q139.258-85.1562 135.767-88.5254Q132.275-91.8945 126.953-91.8945Q121.631-91.8945 118.164-88.5254Q114.697-85.1562 114.697-80.0293L114.697 9.57031Q114.697 14.6973 118.164 18.0908Q121.631 21.4844 126.953 21.4844ZM29.834 19.4824Q32.4219 19.4824 34.8389 18.8477Q37.2559 18.2129 39.7461 16.748L105.273-21.4844Q109.57-24.0234 112.28-27.3438Q114.99-30.6641 114.99-35.3027Q114.99-39.9902 112.329-43.1396Q109.668-46.2891 105.273-48.877L39.7461-87.1582Q37.207-88.5742 34.7656-89.209Q32.3242-89.8438 29.6875-89.8438Q24.1211-89.8438 20.0928-85.8643Q16.0645-81.8848 16.0645-74.5605L16.0645 4.19922Q16.0645 11.4746 20.1416 15.4785Q24.2188 19.4824 29.834 19.4824ZM36.6211-4.3457Q36.2793-4.3457 36.1572-4.5166Q36.0352-4.6875 36.0352-4.98047L36.0352-65.4297Q36.0352-65.7227 36.1816-65.8936Q36.3281-66.0645 36.6699-66.0645Q36.8164-66.0645 36.9873-66.0156Q37.1582-65.9668 37.3535-65.8203L88.8672-35.9375Q89.3066-35.6934 89.3066-35.2539Q89.3066-34.7656 88.8672-34.5215L37.3535-4.54102Q37.207-4.44336 37.0117-4.39453Q36.8164-4.3457 36.6211-4.3457Z"/>
  </g>
  <g id="Heavy-L" transform="matrix(1 0 0 1 2562.45 1556)">
   <path d="M121.973 20.166Q126.465 20.166 129.443 17.2852Q132.422 14.4043 132.422 10.0098L132.422-80.4688Q132.422-84.8145 129.443-87.6953Q126.465-90.5762 121.973-90.5762Q117.432-90.5762 114.478-87.6953Q111.523-84.8145 111.523-80.4688L111.523 10.0098Q111.523 14.4043 114.478 17.2852Q117.432 20.166 121.973 20.166ZM28.5645 18.0664Q30.957 18.0664 33.2031 17.4316Q35.4492 16.7969 37.7441 15.4785L103.027-22.7051Q107.031-25.0488 109.424-28.1006Q111.816-31.1523 111.816-35.3027Q111.816-39.4531 109.448-42.3584Q107.08-45.2637 103.027-47.6562L37.7441-85.8887Q35.4004-87.1582 33.1543-87.793Q30.9082-88.4277 28.4668-88.4277Q23.3887-88.4277 19.7266-84.79Q16.0645-81.1523 16.0645-74.3652L16.0645 4.00391Q16.0645 10.7422 19.7754 14.4043Q23.4863 18.0664 28.5645 18.0664ZM34.2773-2.49023Q33.8379-2.49023 33.5938-2.73438Q33.3496-2.97852 33.3496-3.51562L33.3496-66.8945Q33.3496-67.4316 33.6182-67.6758Q33.8867-67.9199 34.3262-67.9199Q34.5215-67.9199 34.7412-67.8711Q34.9609-67.8223 35.3027-67.627L89.0625-36.2305Q89.7461-35.8398 89.7461-35.2539Q89.7461-34.5703 89.0625-34.2285L35.3027-2.7832Q35.0098-2.58789 34.7656-2.53906Q34.5215-2.49023 34.2773-2.49023Z"/>
  </g>
  <g id="Bold-L" transform="matrix(1 0 0 1 2269.54 1556)">
   <path d="M116.357 18.75Q119.971 18.75 122.388 16.4062Q124.805 14.0625 124.805 10.5469L124.805-80.957Q124.805-84.4727 122.388-86.8164Q119.971-89.1602 116.357-89.1602Q112.744-89.1602 110.352-86.8164Q107.959-84.4727 107.959-80.957L107.959 10.5469Q107.959 14.0625 110.352 16.4062Q112.744 18.75 116.357 18.75ZM27.1973 16.4551Q29.3457 16.4551 31.3721 15.8447Q33.3984 15.2344 35.498 14.0137L100.537-24.1211Q104.15-26.2695 106.201-28.9795Q108.252-31.6895 108.252-35.2539Q108.252-38.8672 106.25-41.5039Q104.248-44.1406 100.537-46.2891L35.498-84.4238Q33.3496-85.6445 31.3232-86.2549Q29.2969-86.8652 27.0996-86.8652Q22.6074-86.8652 19.3359-83.5938Q16.0645-80.3223 16.0645-74.1699L16.0645 3.80859Q16.0645 9.91211 19.3604 13.1836Q22.6562 16.4551 27.1973 16.4551ZM31.6895-0.390625Q31.1035-0.390625 30.7373-0.732422Q30.3711-1.07422 30.3711-1.85547L30.3711-68.5547Q30.3711-69.3359 30.7617-69.7021Q31.1523-70.0684 31.6895-70.0684Q31.9336-70.0684 32.251-69.9707Q32.5684-69.873 32.959-69.6289L89.2578-36.5723Q90.2344-36.0352 90.2344-35.2539Q90.2344-34.4238 89.2578-33.8867L32.959-0.78125Q32.6172-0.585938 32.2754-0.488281Q31.9336-0.390625 31.6895-0.390625Z"/>
  </g>
  <g id="Semibold-L" transform="matrix(1 0 0 1 1975.47 1556)">
   <path d="M112.5 17.7246Q115.479 17.7246 117.505 15.7715Q119.531 13.8184 119.531 10.8887L119.531-81.2988Q119.531-84.2285 117.505-86.1816Q115.479-88.1348 112.5-88.1348Q109.521-88.1348 107.495-86.1816Q105.469-84.2285 105.469-81.2988L105.469 10.8887Q105.469 13.8184 107.495 15.7715Q109.521 17.7246 112.5 17.7246ZM26.2207 15.332Q28.2227 15.332 30.1025 14.7461Q31.9824 14.1602 33.9355 13.0371L98.8281-25.0488Q102.197-27.0508 104.004-29.5654Q105.811-32.0801 105.811-35.2539Q105.811-38.4766 104.028-40.8936Q102.246-43.3105 98.8281-45.3613L33.9355-83.4473Q31.9336-84.5215 30.0537-85.1318Q28.1738-85.7422 26.1719-85.7422Q22.0703-85.7422 19.0674-82.7393Q16.0645-79.7363 16.0645-74.0234L16.0645 3.61328Q16.0645 9.32617 19.0674 12.3291Q22.0703 15.332 26.2207 15.332ZM29.8828 1.07422Q29.1992 1.07422 28.7354 0.65918Q28.2715 0.244141 28.2715-0.732422L28.2715-69.6777Q28.2715-70.6543 28.7598-71.0693Q29.248-71.4844 29.8828-71.4844Q30.1758-71.4844 30.5176-71.3623Q30.8594-71.2402 31.3477-70.9961L89.3555-36.8164Q90.5762-36.1328 90.5762-35.2051Q90.5762-34.2773 89.3555-33.6426L31.3477 0.585938Q30.9082 0.830078 30.542 0.952148Q30.1758 1.07422 29.8828 1.07422Z"/>
  </g>
  <g id="Medium-L" transform="matrix(1 0 0 1 1680.76 1556)">
   <path d="M109.57 16.9434Q112.061 16.9434 113.794 15.2832Q115.527 13.623 115.527 11.1816L115.527-81.543Q115.527-84.0332 113.794-85.6934Q112.061-87.3535 109.57-87.3535Q107.08-87.3535 105.347-85.6934Q103.613-84.0332 103.613-81.543L103.613 11.1816Q103.613 13.623 105.347 15.2832Q107.08 16.9434 109.57 16.9434ZM25.4883 14.502Q27.3926 14.502 29.1504 13.916Q30.9082 13.3301 32.7637 12.2559L97.5098-25.7812Q100.684-27.6855 102.319-30.0049Q103.955-32.3242 103.955-35.2051Q103.955-38.1348 102.344-40.4297Q100.732-42.7246 97.5098-44.6289L32.7637-82.666Q30.8594-83.7402 29.1016-84.3262Q27.3438-84.9121 25.4395-84.9121Q21.6309-84.9121 18.8477-82.1289Q16.0645-79.3457 16.0645-73.9258L16.0645 3.51562Q16.0645 8.93555 18.8721 11.7188Q21.6797 14.502 25.4883 14.502ZM28.5156 2.19727Q27.7832 2.19727 27.2461 1.70898Q26.709 1.2207 26.709 0.146484L26.709-70.5566Q26.709-71.6309 27.2461-72.1191Q27.7832-72.6074 28.5156-72.6074Q28.8086-72.6074 29.1992-72.4609Q29.5898-72.3145 30.127-72.0215L89.4531-36.9629Q90.8203-36.2305 90.8203-35.2051Q90.8203-34.1797 89.4531-33.4473L30.127 1.61133Q29.6387 1.9043 29.2236 2.05078Q28.8086 2.19727 28.5156 2.19727Z"/>
  </g>
  <g id="Regular-L" transform="matrix(1 0 0 1 1386.66 1556)">
   <path d="M105.762 15.9668Q107.617 15.9668 108.96 14.6729Q110.303 13.3789 110.303 11.5234L110.303-81.8848Q110.303-83.7891 108.96-85.083Q107.617-86.377 105.762-86.377Q103.857-86.377 102.515-85.083Q101.172-83.7891 101.172-81.8848L101.172 11.5234Q101.172 13.3789 102.515 14.6729Q103.857 15.9668 105.762 15.9668ZM24.5117 13.4277Q26.2695 13.4277 27.9053 12.8418Q29.541 12.2559 31.25 11.2793L95.8008-26.709Q98.7305-28.4668 100.122-30.5908Q101.514-32.7148 101.514-35.2051Q101.514-37.7441 100.146-39.8438Q98.7793-41.9434 95.8008-43.7012L31.25-81.6895Q29.4922-82.666 27.8809-83.252Q26.2695-83.8379 24.5117-83.8379Q21.0938-83.8379 18.5791-81.2988Q16.0645-78.7598 16.0645-73.7793L16.0645 3.36914Q16.0645 8.34961 18.5791 10.8887Q21.0938 13.4277 24.5117 13.4277ZM26.709 3.61328Q25.9277 3.61328 25.293 3.07617Q24.6582 2.53906 24.6582 1.26953L24.6582-71.6797Q24.6582-72.9492 25.293-73.4863Q25.9277-74.0234 26.709-74.0234Q27.0508-74.0234 27.4902-73.877Q27.9297-73.7305 28.5645-73.3887L89.5996-37.207Q91.1621-36.3281 91.1621-35.2051Q91.1621-34.0332 89.5996-33.2031L28.5645 2.97852Q27.9785 3.32031 27.5146 3.4668Q27.0508 3.61328 26.709 3.61328Z"/>
  </g>
  <g id="Light-L" transform="matrix(1 0 0 1 1092.05 1556)">
   <path d="M102.637 14.7949Q104.053 14.7949 105.078 13.8184Q106.104 12.8418 106.104 11.4258L106.104-81.7871Q106.104-83.2031 105.078-84.2041Q104.053-85.2051 102.637-85.2051Q101.221-85.2051 100.195-84.2041Q99.1699-83.2031 99.1699-81.7871L99.1699 11.4258Q99.1699 12.8418 100.195 13.8184Q101.221 14.7949 102.637 14.7949ZM23.6328 12.2559Q25.1953 12.2559 26.7334 11.6943Q28.2715 11.1328 29.7363 10.3027L94.7266-27.9297Q97.1191-29.3945 98.3154-31.2012Q99.5117-33.0078 99.5117-35.2539Q99.5117-37.5 98.3398-39.2578Q97.168-41.0156 94.7266-42.4805L29.7363-80.7129Q28.2227-81.543 26.709-82.1289Q25.1953-82.7148 23.6328-82.7148Q20.6543-82.7148 18.3594-80.4688Q16.0645-78.2227 16.0645-73.6328L16.0645 3.22266Q16.0645 7.76367 18.3594 10.0098Q20.6543 12.2559 23.6328 12.2559ZM25.0977 4.93164Q24.2188 4.93164 23.4131 4.27246Q22.6074 3.61328 22.6074 1.95312L22.6074-72.3633Q22.6074-74.0234 23.4131-74.6826Q24.2188-75.3418 25.0977-75.3418Q25.4883-75.3418 26.0254-75.1953Q26.5625-75.0488 27.3926-74.5605L89.9902-37.5488Q91.8457-36.5234 91.8457-35.2539Q91.8457-33.8379 89.9902-32.8613L27.3926 4.15039Q26.6113 4.58984 26.0498 4.76074Q25.4883 4.93164 25.0977 4.93164Z"/>
  </g>
  <g id="Thin-L" transform="matrix(1 0 0 1 798.121 1556)">
   <path d="M98.5352 13.2324Q99.3652 13.2324 99.9512 12.6465Q100.537 12.0605 100.537 11.2305L100.537-81.6406Q100.537-82.4707 99.9512-83.0566Q99.3652-83.6426 98.5352-83.6426Q97.7051-83.6426 97.1191-83.0566Q96.5332-82.4707 96.5332-81.6406L96.5332 11.2305Q96.5332 12.0605 97.1191 12.6465Q97.7051 13.2324 98.5352 13.2324ZM22.4609 10.7422Q23.8281 10.7422 25.2197 10.1807Q26.6113 9.61914 27.6855 8.98438L93.3105-29.5898Q94.9707-30.5664 95.9229-31.958Q96.875-33.3496 96.875-35.2539Q96.875-37.1582 95.9473-38.501Q95.0195-39.8438 93.3105-40.8691L27.6855-79.4434Q26.5625-80.0781 25.1953-80.6396Q23.8281-81.2012 22.4609-81.2012Q20.0195-81.2012 18.042-79.3213Q16.0645-77.4414 16.0645-73.4375L16.0645 2.97852Q16.0645 6.98242 18.042 8.8623Q20.0195 10.7422 22.4609 10.7422ZM22.9004 6.68945Q21.9727 6.68945 20.8984 5.83496Q19.8242 4.98047 19.8242 2.83203L19.8242-73.291Q19.8242-75.4883 20.8984-76.2939Q21.9727-77.0996 22.9004-77.0996Q23.4863-77.0996 24.1211-76.9287Q24.7559-76.7578 25.8301-76.1719L90.5273-38.0371Q92.7246-36.7676 92.7246-35.2539Q92.7246-33.5938 90.5273-32.4219L25.8301 5.71289Q24.8535 6.29883 24.1699 6.49414Q23.4863 6.68945 22.9004 6.68945Z"/>
  </g>
  <g id="Ultralight-L" transform="matrix(1 0 0 1 502.851 1556)">
   <path d="M96.4355 12.4023Q96.9238 12.4023 97.29 12.0605Q97.6562 11.7188 97.6562 11.1816L97.6562-81.543Q97.6562-82.0801 97.29-82.4463Q96.9238-82.8125 96.4355-82.8125Q95.8984-82.8125 95.5322-82.4463Q95.166-82.0801 95.166-81.543L95.166 11.1816Q95.166 11.7188 95.5322 12.0605Q95.8984 12.4023 96.4355 12.4023ZM21.875 9.91211Q23.0957 9.91211 24.4141 9.375Q25.7324 8.83789 26.6602 8.34961L92.5781-30.4199Q93.8477-31.2012 94.6777-32.373Q95.5078-33.5449 95.5078-35.3027Q95.5078-37.0117 94.7021-38.1104Q93.8965-39.209 92.5781-40.0391L26.6602-78.7598Q25.6836-79.3457 24.3896-79.8828Q23.0957-80.4199 21.875-80.4199Q19.7266-80.4199 17.8955-78.7598Q16.0645-77.0996 16.0645-73.3398L16.0645 2.88086Q16.0645 6.5918 17.8955 8.25195Q19.7266 9.91211 21.875 9.91211ZM21.8262 7.56836Q20.8008 7.56836 19.6289 6.64062Q18.457 5.71289 18.457 3.32031L18.457-73.7793Q18.457-76.2207 19.6289-77.124Q20.8008-78.0273 21.8262-78.0273Q22.4121-78.0273 23.1201-77.832Q23.8281-77.6367 25-76.9531L90.8203-38.2812Q93.1641-36.9141 93.1641-35.3027Q93.1641-33.4961 90.8203-32.2266L25 6.54297Q23.9258 7.17773 23.1689 7.37305Q22.4121 7.56836 21.8262 7.56836Z"/>
  </g>
  <g id="Black-M" transform="matrix(1 0 0 1 2871.02 1126)">
   <path d="M101.611 9.42383Q106.299 9.42383 109.302 6.46973Q112.305 3.51562 112.305-0.927734L112.305-69.5312Q112.305-73.9746 109.302-76.9287Q106.299-79.8828 101.611-79.8828Q96.9727-79.8828 93.9453-76.9287Q90.918-73.9746 90.918-69.5312L90.918-0.927734Q90.918 3.51562 93.9453 6.46973Q96.9727 9.42383 101.611 9.42383ZM23.877 8.00781Q25.9766 8.00781 28.0029 7.49512Q30.0293 6.98242 31.9824 5.85938L83.1055-23.9746Q86.5234-25.9277 88.8672-28.6377Q91.2109-31.3477 91.2109-35.3027Q91.2109-39.2578 88.9404-41.8213Q86.6699-44.3848 83.1055-46.4355L31.9824-76.2207Q29.9805-77.3926 27.9541-77.9053Q25.9277-78.418 23.7793-78.418Q19.1406-78.418 15.7959-75.1221Q12.4512-71.8262 12.4512-65.8203L12.4512-4.58984Q12.4512 1.41602 15.8447 4.71191Q19.2383 8.00781 23.877 8.00781ZM29.834-12.4512Q29.6387-12.4512 29.5654-12.5488Q29.4922-12.6465 29.4922-12.793L29.4922-57.6172Q29.4922-57.7637 29.5654-57.8613Q29.6387-57.959 29.8828-57.959Q29.9805-57.959 30.0781-57.9346Q30.1758-57.9102 30.3223-57.8125L68.8477-35.6445Q69.043-35.5469 69.043-35.2539Q69.043-34.9609 68.8477-34.8145L30.3223-12.5977Q30.2246-12.5 30.1025-12.4756Q29.9805-12.4512 29.834-12.4512Z"/>
  </g>
  <g id="Heavy-M" transform="matrix(1 0 0 1 2577.19 1126)">
   <path d="M97.4121 8.39844Q101.367 8.39844 103.955 5.85938Q106.543 3.32031 106.543-0.439453L106.543-69.9707Q106.543-73.7793 103.955-76.3184Q101.367-78.8574 97.4121-78.8574Q93.457-78.8574 90.8447-76.3184Q88.2324-73.7793 88.2324-69.9707L88.2324-0.439453Q88.2324 3.32031 90.8447 5.85938Q93.457 8.39844 97.4121 8.39844ZM22.8516 6.88477Q24.8047 6.88477 26.6602 6.37207Q28.5156 5.85938 30.3711 4.78516L81.1523-24.9023Q84.375-26.7578 86.4502-29.248Q88.5254-31.7383 88.5254-35.3027Q88.5254-38.8184 86.499-41.1865Q84.4727-43.5547 81.1523-45.5078L30.3711-75.1953Q28.4668-76.2695 26.6113-76.7822Q24.7559-77.2949 22.7539-77.2949Q18.5547-77.2949 15.5029-74.2676Q12.4512-71.2402 12.4512-65.6738L12.4512-4.73633Q12.4512 0.830078 15.5273 3.85742Q18.6035 6.88477 22.8516 6.88477ZM27.8809-10.8887Q27.6367-10.8887 27.4658-11.0596Q27.2949-11.2305 27.2949-11.5234L27.2949-58.8867Q27.2949-59.1797 27.4658-59.3506Q27.6367-59.5215 27.9297-59.5215Q28.0762-59.5215 28.2227-59.4727Q28.3691-59.4238 28.5645-59.2773L68.9453-35.8398Q69.3359-35.6445 69.3359-35.2539Q69.3359-34.8145 68.9453-34.5703L28.5645-11.1328Q28.3691-10.9863 28.2227-10.9375Q28.0762-10.8887 27.8809-10.8887Z"/>
  </g>
  <g id="Bold-M" transform="matrix(1 0 0 1 2283.7 1126)">
   <path d="M92.6758 7.27539Q95.8984 7.27539 97.998 5.22461Q100.098 3.17383 100.098 0.0976562L100.098-70.5078Q100.098-73.584 97.998-75.6592Q95.8984-77.7344 92.6758-77.7344Q89.502-77.7344 87.3779-75.6592Q85.2539-73.584 85.2539-70.5078L85.2539 0.0976562Q85.2539 3.17383 87.3779 5.22461Q89.502 7.27539 92.6758 7.27539ZM21.6797 5.61523Q23.4863 5.61523 25.1709 5.12695Q26.8555 4.63867 28.5645 3.61328L79.0039-25.9766Q81.9824-27.7344 83.7402-29.9805Q85.498-32.2266 85.498-35.2539Q85.498-38.2812 83.7891-40.4785Q82.0801-42.6758 79.0039-44.4824L28.5645-74.0234Q26.8066-75.0488 25.1465-75.5371Q23.4863-76.0254 21.6309-76.0254Q17.8711-76.0254 15.1611-73.291Q12.4512-70.5566 12.4512-65.5273L12.4512-4.93164Q12.4512 0.146484 15.1855 2.88086Q17.9199 5.61523 21.6797 5.61523ZM25.7324-9.17969Q25.3906-9.17969 25.1465-9.39941Q24.9023-9.61914 24.9023-10.0586L24.9023-60.3516Q24.9023-60.791 25.1465-61.0352Q25.3906-61.2793 25.7812-61.2793Q25.9277-61.2793 26.123-61.2061Q26.3184-61.1328 26.5625-60.9863L69.043-36.1328Q69.6777-35.791 69.6777-35.2539Q69.6777-34.7168 69.043-34.3262L26.5625-9.47266Q26.3672-9.27734 26.1475-9.22852Q25.9277-9.17969 25.7324-9.17969Z"/>
  </g>
  <g id="Semibold-M" transform="matrix(1 0 0 1 1989.21 1126)">
   <path d="M89.4043 6.49414Q92.0898 6.49414 93.8721 4.76074Q95.6543 3.02734 95.6543 0.439453L95.6543-70.8496Q95.6543-73.4375 93.8721-75.1709Q92.0898-76.9043 89.4043-76.9043Q86.7676-76.9043 84.9609-75.1709Q83.1543-73.4375 83.1543-70.8496L83.1543 0.439453Q83.1543 3.02734 84.9609 4.76074Q86.7676 6.49414 89.4043 6.49414ZM20.8984 4.6875Q22.5586 4.6875 24.1211 4.22363Q25.6836 3.75977 27.2949 2.7832L77.4902-26.6602Q80.3223-28.3691 81.8604-30.4688Q83.3984-32.5684 83.3984-35.2539Q83.3984-37.9395 81.8848-39.9902Q80.3711-42.041 77.4902-43.75L27.2949-73.1934Q25.6348-74.1699 24.0967-74.6338Q22.5586-75.0977 20.8496-75.0977Q17.4316-75.0977 14.9414-72.6074Q12.4512-70.1172 12.4512-65.3809L12.4512-5.0293Q12.4512-0.292969 14.9414 2.19727Q17.4316 4.6875 20.8984 4.6875ZM24.2188-7.95898Q23.8281-7.95898 23.5107-8.22754Q23.1934-8.49609 23.1934-9.08203L23.1934-61.3281Q23.1934-61.9141 23.5107-62.1826Q23.8281-62.4512 24.2676-62.4512Q24.4629-62.4512 24.6826-62.3779Q24.9023-62.3047 25.1953-62.1094L69.0918-36.2793Q69.873-35.8398 69.873-35.2051Q69.873-34.5703 69.0918-34.1309L25.1953-8.30078Q24.9512-8.10547 24.707-8.03223Q24.4629-7.95898 24.2188-7.95898Z"/>
  </g>
  <g id="Medium-M" transform="matrix(1 0 0 1 1694.19 1126)">
   <path d="M86.9629 5.9082Q89.209 5.9082 90.7471 4.41895Q92.2852 2.92969 92.2852 0.732422L92.2852-71.0938Q92.2852-73.3398 90.7471-74.8291Q89.209-76.3184 86.9629-76.3184Q84.668-76.3184 83.1299-74.8291Q81.5918-73.3398 81.5918-71.0938L81.5918 0.732422Q81.5918 2.92969 83.1299 4.41895Q84.668 5.9082 86.9629 5.9082ZM20.2637 4.05273Q21.875 4.05273 23.3398 3.56445Q24.8047 3.07617 26.3184 2.19727L76.3184-27.1973Q79.0527-28.8574 80.4443-30.835Q81.8359-32.8125 81.8359-35.2051Q81.8359-37.6465 80.4688-39.5996Q79.1016-41.5527 76.3184-43.2129L26.3184-72.5586Q24.7559-73.4863 23.3154-73.9746Q21.875-74.4629 20.2637-74.4629Q17.041-74.4629 14.7461-72.0947Q12.4512-69.7266 12.4512-65.2832L12.4512-5.12695Q12.4512-0.683594 14.7705 1.68457Q17.0898 4.05273 20.2637 4.05273ZM23.0957-7.03125Q22.6074-7.03125 22.2656-7.34863Q21.9238-7.66602 21.9238-8.30078L21.9238-62.1094Q21.9238-62.7441 22.2656-63.0615Q22.6074-63.3789 23.0957-63.3789Q23.3398-63.3789 23.584-63.2812Q23.8281-63.1836 24.1699-62.9883L69.1895-36.4258Q70.0684-35.8887 70.0684-35.2051Q70.0684-34.5215 69.1895-34.0332L24.1699-7.42188Q23.877-7.22656 23.6084-7.12891Q23.3398-7.03125 23.0957-7.03125Z"/>
  </g>
  <g id="Regular-M" transform="matrix(1 0 0 1 1399.67 1126)">
   <path d="M83.7402 5.12695Q85.4492 5.12695 86.6699 3.95508Q87.8906 2.7832 87.8906 1.07422L87.8906-71.4355Q87.8906-73.1934 86.6699-74.3652Q85.4492-75.5371 83.7402-75.5371Q81.9824-75.5371 80.7617-74.3652Q79.541-73.1934 79.541-71.4355L79.541 1.07422Q79.541 2.7832 80.7617 3.95508Q81.9824 5.12695 83.7402 5.12695ZM19.4824 3.17383Q20.9961 3.17383 22.3145 2.70996Q23.6328 2.24609 25.0977 1.36719L74.8535-27.9297Q77.4414-29.4922 78.6133-31.2988Q79.7852-33.1055 79.7852-35.2051Q79.7852-37.3047 78.6133-39.1113Q77.4414-40.918 74.8535-42.4805L25.0977-71.7773Q23.584-72.6562 22.29-73.1201Q20.9961-73.584 19.4824-73.584Q16.6016-73.584 14.5264-71.4355Q12.4512-69.2871 12.4512-65.1855L12.4512-5.22461Q12.4512-1.12305 14.5264 1.02539Q16.6016 3.17383 19.4824 3.17383ZM21.6309-5.85938Q21.0938-5.85938 20.6787-6.22559Q20.2637-6.5918 20.2637-7.32422L20.2637-63.0859Q20.2637-63.8184 20.6787-64.1846Q21.0938-64.5508 21.6309-64.5508Q21.875-64.5508 22.168-64.4531Q22.4609-64.3555 22.8027-64.1113L69.2383-36.5723Q70.2637-35.9863 70.2637-35.2051Q70.2637-34.4238 69.2383-33.8379L22.8027-6.29883Q22.4609-6.05469 22.168-5.95703Q21.875-5.85938 21.6309-5.85938Z"/>
  </g>
  <g id="Light-M" transform="matrix(1 0 0 1 1104.84 1126)">
   <path d="M80.957 4.05273Q82.2754 4.05273 83.2031 3.14941Q84.1309 2.24609 84.1309 0.976562L84.1309-71.3379Q84.1309-72.6562 83.2031-73.5596Q82.2754-74.4629 80.957-74.4629Q79.6387-74.4629 78.6865-73.5596Q77.7344-72.6562 77.7344-71.3379L77.7344 0.976562Q77.7344 2.24609 78.6865 3.14941Q79.6387 4.05273 80.957 4.05273ZM18.7012 2.14844Q20.0195 2.14844 21.2402 1.68457Q22.4609 1.2207 23.7305 0.488281L73.877-29.0527Q75.9766-30.2734 76.9775-31.8115Q77.9785-33.3496 77.9785-35.2051Q77.9785-37.1094 77.002-38.623Q76.0254-40.1367 73.877-41.4062L23.7305-70.8984Q22.4121-71.6797 21.2158-72.1191Q20.0195-72.5586 18.7012-72.5586Q16.2109-72.5586 14.3311-70.6787Q12.4512-68.7988 12.4512-65.0391L12.4512-5.37109Q12.4512-1.66016 14.3311 0.244141Q16.2109 2.14844 18.7012 2.14844ZM20.166-4.6875Q19.5312-4.6875 18.9697-5.15137Q18.4082-5.61523 18.4082-6.73828L18.4082-63.7207Q18.4082-64.7949 18.9697-65.2588Q19.5312-65.7227 20.166-65.7227Q20.459-65.7227 20.8496-65.625Q21.2402-65.5273 21.7285-65.1855L69.5801-36.9141Q70.8496-36.1328 70.8496-35.2051Q70.8496-34.2773 69.5801-33.5449L21.7285-5.22461Q21.2402-4.93164 20.8496-4.80957Q20.459-4.6875 20.166-4.6875Z"/>
  </g>
  <g id="Thin-M" transform="matrix(1 0 0 1 810.621 1126)">
   <path d="M77.2949 2.68555Q78.0273 2.68555 78.5889 2.14844Q79.1504 1.61133 79.1504 0.830078L79.1504-71.2402Q79.1504-72.0215 78.5889-72.5586Q78.0273-73.0957 77.2949-73.0957Q76.5137-73.0957 75.9521-72.5586Q75.3906-72.0215 75.3906-71.2402L75.3906 0.830078Q75.3906 1.61133 75.9521 2.14844Q76.5137 2.68555 77.2949 2.68555ZM17.6758 0.732422Q18.7988 0.732422 19.873 0.317383Q20.9473-0.0976562 21.875-0.683594L72.6562-30.5176Q74.0723-31.3477 74.8535-32.5195Q75.6348-33.6914 75.6348-35.2539Q75.6348-36.8164 74.8779-37.9395Q74.1211-39.0625 72.6562-39.9414L21.875-69.7754Q20.8984-70.3125 19.8486-70.752Q18.7988-71.1914 17.6758-71.1914Q15.6738-71.1914 14.0625-69.6533Q12.4512-68.1152 12.4512-64.8926L12.4512-5.56641Q12.4512-2.34375 14.0625-0.805664Q15.6738 0.732422 17.6758 0.732422ZM18.2129-3.17383Q17.5293-3.17383 16.748-3.75977Q15.9668-4.3457 15.9668-5.9082L15.9668-64.5508Q15.9668-66.1133 16.748-66.6992Q17.5293-67.2852 18.2129-67.2852Q18.6523-67.2852 19.1406-67.1631Q19.6289-67.041 20.3613-66.6016L70.0684-37.3047Q71.6797-36.377 71.6797-35.2539Q71.6797-34.0332 70.0684-33.1543L20.3613-3.85742Q19.6289-3.41797 19.1406-3.2959Q18.6523-3.17383 18.2129-3.17383Z"/>
  </g>
  <g id="Ultralight-M" transform="matrix(1 0 0 1 515.204 1126)">
   <path d="M75.3906 1.95312Q75.8789 1.95312 76.2207 1.58691Q76.5625 1.2207 76.5625 0.732422L76.5625-71.1426Q76.5625-71.6309 76.2207-71.9971Q75.8789-72.3633 75.3906-72.3633Q74.9023-72.3633 74.5361-71.9971Q74.1699-71.6309 74.1699-71.1426L74.1699 0.732422Q74.1699 1.2207 74.5361 1.58691Q74.9023 1.95312 75.3906 1.95312ZM17.1875 0.0488281Q18.1152 0.0488281 19.1406-0.366211Q20.166-0.78125 20.9473-1.26953L71.9727-31.2988Q73.0957-31.8848 73.7549-32.8857Q74.4141-33.8867 74.4141-35.2539Q74.4141-36.6699 73.7793-37.5977Q73.1445-38.5254 71.9727-39.209L20.9473-69.1895Q20.1172-69.6777 19.1162-70.0928Q18.1152-70.5078 17.1875-70.5078Q15.3809-70.5078 13.916-69.1406Q12.4512-67.7734 12.4512-64.7949L12.4512-5.66406Q12.4512-2.73438 13.916-1.34277Q15.3809 0.0488281 17.1875 0.0488281ZM17.2363-2.34375Q16.4551-2.34375 15.6006-3.00293Q14.7461-3.66211 14.7461-5.51758L14.7461-64.9414Q14.7461-66.748 15.6006-67.4316Q16.4551-68.1152 17.2363-68.1152Q17.6758-68.1152 18.2373-67.9688Q18.7988-67.8223 19.6289-67.334L70.3125-37.5488Q72.0703-36.4746 72.0703-35.2539Q72.0703-33.9355 70.3125-32.9102L19.6289-3.125Q18.8477-2.63672 18.2617-2.49023Q17.6758-2.34375 17.2363-2.34375Z"/>
  </g>
  <g id="Black-S" transform="matrix(1 0 0 1 2883.74 696)">
   <path d="M80.7617 0Q84.6191 0 87.085-2.41699Q89.5508-4.83398 89.5508-8.49609L89.5508-61.9629Q89.5508-65.625 87.085-68.042Q84.6191-70.459 80.7617-70.459Q76.9043-70.459 74.4385-68.042Q71.9727-65.625 71.9727-61.9629L71.9727-8.49609Q71.9727-4.83398 74.4385-2.41699Q76.9043 0 80.7617 0ZM18.9941-1.07422Q20.7031-1.07422 22.3145-1.46484Q23.9258-1.85547 25.4883-2.7832L65.6738-26.1719Q68.4082-27.7344 70.2881-29.9072Q72.168-32.0801 72.168-35.3027Q72.168-38.5254 70.3369-40.5518Q68.5059-42.5781 65.6738-44.2383L25.4883-67.627Q23.877-68.5547 22.2412-68.9453Q20.6055-69.3359 18.8965-69.3359Q15.1855-69.3359 12.4756-66.6992Q9.76562-64.0625 9.76562-59.2285L9.76562-11.1816Q9.76562-6.39648 12.5244-3.73535Q15.2832-1.07422 18.9941-1.07422ZM23.877-17.7734Q23.7793-17.7734 23.7305-17.8467Q23.6816-17.9199 23.6816-18.0176L23.6816-52.3926Q23.6816-52.4902 23.7305-52.5635Q23.7793-52.6367 23.9258-52.6367Q24.0234-52.6367 24.0967-52.6367Q24.1699-52.6367 24.2676-52.5391L53.9551-35.498Q54.0527-35.4492 54.0527-35.2539Q54.0527-35.0586 53.9551-34.9609L24.2676-17.8711Q24.2188-17.8223 24.0967-17.7979Q23.9746-17.7734 23.877-17.7734Z"/>
  </g>
  <g id="Heavy-S" transform="matrix(1 0 0 1 2589.25 696)">
   <path d="M77.4902-0.732422Q80.8105-0.732422 82.959-2.83203Q85.1074-4.93164 85.1074-8.10547L85.1074-62.3535Q85.1074-65.5273 82.959-67.627Q80.8105-69.7266 77.4902-69.7266Q74.1699-69.7266 72.0459-67.627Q69.9219-65.5273 69.9219-62.3535L69.9219-8.10547Q69.9219-4.93164 72.0459-2.83203Q74.1699-0.732422 77.4902-0.732422ZM18.2129-1.9043Q19.8242-1.9043 21.2891-2.29492Q22.7539-2.68555 24.2676-3.56445L64.1113-26.8555Q66.748-28.3691 68.4326-30.3955Q70.1172-32.4219 70.1172-35.3027Q70.1172-38.1348 68.4814-40.0635Q66.8457-41.9922 64.1113-43.6035L24.2676-66.8457Q22.7539-67.7246 21.2402-68.1152Q19.7266-68.5059 18.1152-68.5059Q14.7461-68.5059 12.2559-66.0645Q9.76562-63.623 9.76562-59.1309L9.76562-11.2793Q9.76562-6.83594 12.2803-4.37012Q14.7949-1.9043 18.2129-1.9043ZM22.4121-16.6016Q22.2656-16.6016 22.168-16.6992Q22.0703-16.7969 22.0703-16.9922L22.0703-53.418Q22.0703-53.6133 22.168-53.7109Q22.2656-53.8086 22.4609-53.8086Q22.5586-53.8086 22.6562-53.7842Q22.7539-53.7598 22.9004-53.6621L53.9551-35.6445Q54.248-35.498 54.248-35.2539Q54.248-34.9609 53.9551-34.8145L22.9004-16.748Q22.8027-16.6504 22.6562-16.626Q22.5098-16.6016 22.4121-16.6016Z"/>
  </g>
  <g id="Bold-S" transform="matrix(1 0 0 1 2295.03 696)">
   <path d="M73.877-1.5625Q76.5625-1.5625 78.3447-3.2959Q80.127-5.0293 80.127-7.61719L80.127-62.8418Q80.127-65.4297 78.3447-67.1631Q76.5625-68.8965 73.877-68.8965Q71.1426-68.8965 69.3604-67.1631Q67.5781-65.4297 67.5781-62.8418L67.5781-7.61719Q67.5781-5.0293 69.3604-3.2959Q71.1426-1.5625 73.877-1.5625ZM17.334-2.88086Q18.7988-2.88086 20.1416-3.24707Q21.4844-3.61328 22.9492-4.49219L62.4023-27.5879Q64.8926-29.0527 66.333-30.9082Q67.7734-32.7637 67.7734-35.2539Q67.7734-37.7441 66.3574-39.5508Q64.9414-41.3574 62.4023-42.8711L22.9492-65.9668Q21.4844-66.7969 20.1172-67.1875Q18.75-67.5781 17.2852-67.5781Q14.209-67.5781 11.9873-65.3564Q9.76562-63.1348 9.76562-59.0332L9.76562-11.4258Q9.76562-7.32422 12.0117-5.10254Q14.2578-2.88086 17.334-2.88086ZM20.752-15.2832Q20.5566-15.2832 20.4102-15.4297Q20.2637-15.5762 20.2637-15.8691L20.2637-54.5898Q20.2637-54.834 20.4102-54.9805Q20.5566-55.127 20.8008-55.127Q20.9473-55.127 21.0693-55.1025Q21.1914-55.0781 21.3379-54.9316L54.0039-35.8398Q54.4434-35.5957 54.4434-35.2539Q54.4434-34.8633 54.0039-34.6191L21.3379-15.4785Q21.1914-15.3809 21.0449-15.332Q20.8984-15.2832 20.752-15.2832Z"/>
  </g>
  <g id="Semibold-S" transform="matrix(1 0 0 1 2000.03 696)">
   <path d="M71.3379-2.09961Q73.6328-2.09961 75.1709-3.58887Q76.709-5.07812 76.709-7.27539L76.709-63.1348Q76.709-65.332 75.1709-66.8213Q73.6328-68.3105 71.3379-68.3105Q69.043-68.3105 67.5049-66.8213Q65.9668-65.332 65.9668-63.1348L65.9668-7.27539Q65.9668-5.07812 67.5049-3.58887Q69.043-2.09961 71.3379-2.09961ZM16.748-3.51562Q18.1152-3.51562 19.3604-3.88184Q20.6055-4.24805 21.9727-5.07812L61.2305-28.125Q63.623-29.4922 64.8926-31.25Q66.1621-33.0078 66.1621-35.2539Q66.1621-37.4512 64.8926-39.1602Q63.623-40.8691 61.2305-42.334L21.9727-65.332Q20.5566-66.1621 19.3115-66.5283Q18.0664-66.8945 16.6992-66.8945Q13.8672-66.8945 11.8164-64.8193Q9.76562-62.7441 9.76562-58.9355L9.76562-11.4746Q9.76562-7.66602 11.8164-5.59082Q13.8672-3.51562 16.748-3.51562ZM19.6289-14.3555Q19.3359-14.3555 19.165-14.5508Q18.9941-14.7461 18.9941-15.0391L18.9941-55.3711Q18.9941-55.6641 19.165-55.8594Q19.3359-56.0547 19.6289-56.0547Q19.7754-56.0547 19.9219-56.0059Q20.0684-55.957 20.2637-55.8105L54.0039-35.9375Q54.541-35.6445 54.541-35.2051Q54.541-34.8145 54.0039-34.4727L20.2637-14.5996Q20.0684-14.502 19.9219-14.4287Q19.7754-14.3555 19.6289-14.3555Z"/>
  </g>
  <g id="Medium-S" transform="matrix(1 0 0 1 1704.64 696)">
   <path d="M69.4336-2.53906Q71.3867-2.53906 72.7295-3.85742Q74.0723-5.17578 74.0723-7.03125L74.0723-63.3789Q74.0723-65.2832 72.7295-66.6016Q71.3867-67.9199 69.4336-67.9199Q67.4316-67.9199 66.0889-66.6016Q64.7461-65.2832 64.7461-63.3789L64.7461-7.03125Q64.7461-5.17578 66.0889-3.85742Q67.4316-2.53906 69.4336-2.53906ZM16.2598-4.00391Q17.5781-4.00391 18.75-4.37012Q19.9219-4.73633 21.2891-5.56641L60.3027-28.5156Q62.6465-29.834 63.7939-31.5186Q64.9414-33.2031 64.9414-35.2051Q64.9414-37.2559 63.7939-38.8916Q62.6465-40.5273 60.3027-41.9434L21.2891-64.8438Q19.9219-65.6738 18.75-66.04Q17.5781-66.4062 16.2598-66.4062Q13.5742-66.4062 11.6699-64.4531Q9.76562-62.5 9.76562-58.8867L9.76562-11.5234Q9.76562-7.91016 11.6943-5.95703Q13.623-4.00391 16.2598-4.00391ZM18.75-13.6719Q18.457-13.6719 18.2373-13.8672Q18.0176-14.0625 18.0176-14.4531L18.0176-55.957Q18.0176-56.3477 18.2373-56.543Q18.457-56.7383 18.75-56.7383Q18.9453-56.7383 19.0918-56.665Q19.2383-56.5918 19.4824-56.4453L54.0527-36.0352Q54.6387-35.6934 54.6387-35.2051Q54.6387-34.7168 54.0527-34.4238L19.4824-13.9648Q19.2383-13.8184 19.0918-13.7451Q18.9453-13.6719 18.75-13.6719Z"/>
  </g>
  <g id="Regular-S" transform="matrix(1 0 0 1 1409.61 696)">
   <path d="M66.9434-3.07617Q68.5059-3.07617 69.6045-4.15039Q70.7031-5.22461 70.7031-6.73828L70.7031-63.6719Q70.7031-65.1855 69.6045-66.2598Q68.5059-67.334 66.9434-67.334Q65.3809-67.334 64.2822-66.2598Q63.1836-65.1855 63.1836-63.6719L63.1836-6.73828Q63.1836-5.22461 64.2822-4.15039Q65.3809-3.07617 66.9434-3.07617ZM15.6738-4.63867Q16.8945-4.63867 17.9688-5.00488Q19.043-5.37109 20.3613-6.15234L59.1309-29.0039Q61.377-30.3223 62.3779-31.8848Q63.3789-33.4473 63.3789-35.2051Q63.3789-36.9629 62.3779-38.5254Q61.377-40.0879 59.1309-41.4551L20.3613-64.2578Q19.043-65.0391 17.9688-65.4053Q16.8945-65.7715 15.6738-65.7715Q13.2324-65.7715 11.499-63.9648Q9.76562-62.1582 9.76562-58.7891L9.76562-11.6211Q9.76562-8.25195 11.499-6.44531Q13.2324-4.63867 15.6738-4.63867ZM17.627-12.793Q17.2852-12.793 17.041-13.0127Q16.7969-13.2324 16.7969-13.6719L16.7969-56.7383Q16.7969-57.1777 17.041-57.3975Q17.2852-57.6172 17.627-57.6172Q17.8223-57.6172 17.9932-57.5439Q18.1641-57.4707 18.4082-57.3242L54.0527-36.1328Q54.7852-35.7422 54.7852-35.2051Q54.7852-34.668 54.0527-34.2773L18.4082-13.0859Q18.1641-12.9395 17.9932-12.8662Q17.8223-12.793 17.627-12.793Z"/>
  </g>
  <g id="Light-S" transform="matrix(1 0 0 1 1114.58 696)">
   <path d="M64.4531-4.00391Q65.6738-4.00391 66.5039-4.83398Q67.334-5.66406 67.334-6.83594L67.334-63.5742Q67.334-64.7461 66.5039-65.5762Q65.6738-66.4062 64.4531-66.4062Q63.2812-66.4062 62.4512-65.5762Q61.6211-64.7461 61.6211-63.5742L61.6211-6.83594Q61.6211-5.66406 62.4512-4.83398Q63.2812-4.00391 64.4531-4.00391ZM14.9902-5.56641Q16.0645-5.56641 17.0654-5.93262Q18.0664-6.29883 19.1406-6.93359L58.3008-29.9805Q60.1074-31.0547 60.9619-32.373Q61.8164-33.6914 61.8164-35.2051Q61.8164-36.7676 60.9619-38.0615Q60.1074-39.3555 58.3008-40.4785L19.1406-63.5254Q18.0176-64.1602 17.041-64.502Q16.0645-64.8438 14.9902-64.8438Q12.8906-64.8438 11.3281-63.2812Q9.76562-61.7188 9.76562-58.6914L9.76562-11.7676Q9.76562-8.74023 11.3281-7.15332Q12.8906-5.56641 14.9902-5.56641ZM16.3574-11.7676Q15.918-11.7676 15.5518-12.085Q15.1855-12.4023 15.1855-13.1348L15.1855-57.2754Q15.1855-58.0566 15.5518-58.374Q15.918-58.6914 16.3574-58.6914Q16.6016-58.6914 16.8457-58.5938Q17.0898-58.4961 17.4805-58.3008L54.3945-36.4258Q55.3223-35.8887 55.3223-35.2051Q55.3223-34.5215 54.3945-34.0332L17.4805-12.1582Q17.0898-11.9141 16.8457-11.8408Q16.6016-11.7676 16.3574-11.7676Z"/>
  </g>
  <g id="Thin-S" transform="matrix(1 0 0 1 820.07 696)">
   <path d="M61.2305-5.27344Q61.9141-5.27344 62.4268-5.76172Q62.9395-6.25 62.9395-6.93359L62.9395-63.4766Q62.9395-64.1602 62.4268-64.6484Q61.9141-65.1367 61.2305-65.1367Q60.5469-65.1367 60.0342-64.6484Q59.5215-64.1602 59.5215-63.4766L59.5215-6.93359Q59.5215-6.25 60.0342-5.76172Q60.5469-5.27344 61.2305-5.27344ZM14.0625-6.78711Q14.9414-6.78711 15.8203-7.12891Q16.6992-7.4707 17.5293-7.95898L57.1777-31.25Q58.3984-32.0312 59.0576-33.0078Q59.7168-33.9844 59.7168-35.2539Q59.7168-36.5234 59.082-37.4756Q58.4473-38.4277 57.1777-39.209L17.5293-62.5Q16.6992-62.9883 15.8203-63.3301Q14.9414-63.6719 14.0625-63.6719Q12.4023-63.6719 11.084-62.3779Q9.76562-61.084 9.76562-58.4961L9.76562-11.9141Q9.76562-9.32617 11.084-8.05664Q12.4023-6.78711 14.0625-6.78711ZM14.6484-10.4004Q14.1113-10.4004 13.5498-10.8398Q12.9883-11.2793 12.9883-12.4023L12.9883-58.0566Q12.9883-59.1797 13.5498-59.6191Q14.1113-60.0586 14.6484-60.0586Q14.9902-60.0586 15.332-59.9609Q15.6738-59.8633 16.2109-59.5215L54.7852-36.7676Q56.0059-36.084 56.0059-35.2539Q56.0059-34.3262 54.7852-33.6914L16.2109-10.8887Q15.7227-10.5957 15.3564-10.498Q14.9902-10.4004 14.6484-10.4004Z"/>
  </g>
  <g id="Ultralight-S" transform="matrix(1 0 0 1 524.506 696)">
   <path d="M59.5215-5.9082Q60.0098-5.9082 60.3271-6.22559Q60.6445-6.54297 60.6445-7.03125L60.6445-63.3789Q60.6445-63.8672 60.3271-64.1846Q60.0098-64.502 59.5215-64.502Q59.1309-64.502 58.7891-64.1846Q58.4473-63.8672 58.4473-63.3789L58.4473-7.03125Q58.4473-6.54297 58.7891-6.22559Q59.1309-5.9082 59.5215-5.9082ZM13.5742-7.42188Q14.4043-7.42188 15.2344-7.76367Q16.0645-8.10547 16.6992-8.44727L56.5918-31.9336Q57.5195-32.5195 58.0811-33.3252Q58.6426-34.1309 58.6426-35.2539Q58.6426-36.377 58.1055-37.1582Q57.5684-37.9395 56.5918-38.5254L16.6992-62.0117Q16.0156-62.3535 15.21-62.6953Q14.4043-63.0371 13.5742-63.0371Q12.1582-63.0371 10.9619-61.9141Q9.76562-60.791 9.76562-58.4473L9.76562-12.0117Q9.76562-9.66797 10.9619-8.54492Q12.1582-7.42188 13.5742-7.42188ZM13.7695-9.7168Q13.1836-9.7168 12.5488-10.2051Q11.9141-10.6934 11.9141-12.0605L11.9141-58.3984Q11.9141-59.7656 12.5488-60.2783Q13.1836-60.791 13.7695-60.791Q14.1602-60.791 14.5508-60.6689Q14.9414-60.5469 15.5762-60.2051L55.0293-36.9629Q56.3965-36.1816 56.3965-35.2539Q56.3965-34.2285 55.0293-33.4961L15.5762-10.2539Q14.9902-9.91211 14.5752-9.81445Q14.1602-9.7168 13.7695-9.7168Z"/>
  </g>
 </g>
</svg>
