<?xml version="1.0" encoding="UTF-8"?>
<!--Generator: Apple Native CoreSVG 149-->
<!DOCTYPE svg
PUBLIC "-//W3C//DTD SVG 1.1//EN"
       "http://www.w3.org/Graphics/SVG/1.1/DTD/svg11.dtd">
<svg version="1.1" xmlns="http://www.w3.org/2000/svg" xmlns:xlink="http://www.w3.org/1999/xlink" width="3300" height="2200">
 <!--glyph: "uni100286.medium", point size: 100.0, font version: "17.0d9e1", template writer version: "59"-->
 <g id="Notes">
  <rect height="2200" id="artboard" style="fill:white;opacity:1" width="3300" x="0" y="0"/>
  <line style="fill:none;stroke:black;opacity:1;stroke-width:0.5;" x1="263" x2="3036" y1="292" y2="292"/>
  <text style="stroke:none;fill:black;font-family:sans-serif;font-size:13;font-weight:bold;" transform="matrix(1 0 0 1 263 322)">Weight/Scale Variations</text>
  <text style="stroke:none;fill:black;font-family:sans-serif;font-size:13;text-anchor:middle;" transform="matrix(1 0 0 1 559.711 322)">Ultralight</text>
  <text style="stroke:none;fill:black;font-family:sans-serif;font-size:13;text-anchor:middle;" transform="matrix(1 0 0 1 856.422 322)">Thin</text>
  <text style="stroke:none;fill:black;font-family:sans-serif;font-size:13;text-anchor:middle;" transform="matrix(1 0 0 1 1153.13 322)">Light</text>
  <text style="stroke:none;fill:black;font-family:sans-serif;font-size:13;text-anchor:middle;" transform="matrix(1 0 0 1 1449.84 322)">Regular</text>
  <text style="stroke:none;fill:black;font-family:sans-serif;font-size:13;text-anchor:middle;" transform="matrix(1 0 0 1 1746.56 322)">Medium</text>
  <text style="stroke:none;fill:black;font-family:sans-serif;font-size:13;text-anchor:middle;" transform="matrix(1 0 0 1 2043.27 322)">Semibold</text>
  <text style="stroke:none;fill:black;font-family:sans-serif;font-size:13;text-anchor:middle;" transform="matrix(1 0 0 1 2339.98 322)">Bold</text>
  <text style="stroke:none;fill:black;font-family:sans-serif;font-size:13;text-anchor:middle;" transform="matrix(1 0 0 1 2636.69 322)">Heavy</text>
  <text style="stroke:none;fill:black;font-family:sans-serif;font-size:13;text-anchor:middle;" transform="matrix(1 0 0 1 2933.4 322)">Black</text>
  <line style="fill:none;stroke:black;opacity:1;stroke-width:0.5;" x1="263" x2="3036" y1="1903" y2="1903"/>
  <g transform="matrix(1 0 0 1 263 1933)">
   <path d="M9.24805 0.830078Q10.8691 0.830078 12.2949 0.214844Q13.7207-0.400391 14.8096-1.49414Q15.8984-2.58789 16.5186-4.01367Q17.1387-5.43945 17.1387-7.05078Q17.1387-8.66211 16.5186-10.0879Q15.8984-11.5137 14.8047-12.6074Q13.7109-13.7012 12.2852-14.3164Q10.8594-14.9316 9.23828-14.9316Q7.62695-14.9316 6.20117-14.3164Q4.77539-13.7012 3.69141-12.6074Q2.60742-11.5137 1.9873-10.0879Q1.36719-8.66211 1.36719-7.05078Q1.36719-5.43945 1.9873-4.01367Q2.60742-2.58789 3.69629-1.49414Q4.78516-0.400391 6.21094 0.214844Q7.63672 0.830078 9.24805 0.830078ZM9.24805-0.654297Q7.91992-0.654297 6.7627-1.14746Q5.60547-1.64062 4.73145-2.51953Q3.85742-3.39844 3.36426-4.56055Q2.87109-5.72266 2.87109-7.05078Q2.87109-8.37891 3.35938-9.54102Q3.84766-10.7031 4.72168-11.582Q5.5957-12.4609 6.75293-12.9541Q7.91016-13.4473 9.23828-13.4473Q10.5762-13.4473 11.7334-12.9541Q12.8906-12.4609 13.7695-11.582Q14.6484-10.7031 15.1465-9.54102Q15.6445-8.37891 15.6445-7.05078Q15.6445-5.72266 15.1514-4.56055Q14.6582-3.39844 13.7842-2.51953Q12.9102-1.64062 11.748-1.14746Q10.5859-0.654297 9.24805-0.654297ZM5.83984-7.04102Q5.83984-6.71875 6.04492-6.51855Q6.25-6.31836 6.5918-6.31836L8.50586-6.31836L8.50586-4.39453Q8.50586-4.0625 8.70605-3.85742Q8.90625-3.65234 9.22852-3.65234Q9.56055-3.65234 9.76562-3.85742Q9.9707-4.0625 9.9707-4.39453L9.9707-6.31836L11.8945-6.31836Q12.2266-6.31836 12.4316-6.51855Q12.6367-6.71875 12.6367-7.04102Q12.6367-7.37305 12.4316-7.57812Q12.2266-7.7832 11.8945-7.7832L9.9707-7.7832L9.9707-9.69727Q9.9707-10.0391 9.76562-10.2441Q9.56055-10.4492 9.22852-10.4492Q8.90625-10.4492 8.70605-10.2441Q8.50586-10.0391 8.50586-9.69727L8.50586-7.7832L6.5918-7.7832Q6.25-7.7832 6.04492-7.57812Q5.83984-7.37305 5.83984-7.04102Z"/>
  </g>
  <g transform="matrix(1 0 0 1 281.867 1933)">
   <path d="M11.709 2.91016Q13.75 2.91016 15.5518 2.12891Q17.3535 1.34766 18.7305-0.0292969Q20.1074-1.40625 20.8887-3.20801Q21.6699-5.00977 21.6699-7.05078Q21.6699-9.0918 20.8887-10.8936Q20.1074-12.6953 18.7305-14.0723Q17.3535-15.4492 15.5469-16.2305Q13.7402-17.0117 11.6992-17.0117Q9.6582-17.0117 7.85645-16.2305Q6.05469-15.4492 4.68262-14.0723Q3.31055-12.6953 2.5293-10.8936Q1.74805-9.0918 1.74805-7.05078Q1.74805-5.00977 2.5293-3.20801Q3.31055-1.40625 4.6875-0.0292969Q6.06445 1.34766 7.86621 2.12891Q9.66797 2.91016 11.709 2.91016ZM11.709 1.25Q9.98047 1.25 8.47656 0.605469Q6.97266-0.0390625 5.83496-1.17676Q4.69727-2.31445 4.05762-3.81836Q3.41797-5.32227 3.41797-7.05078Q3.41797-8.7793 4.05762-10.2832Q4.69727-11.7871 5.83008-12.9297Q6.96289-14.0723 8.4668-14.7119Q9.9707-15.3516 11.6992-15.3516Q13.4277-15.3516 14.9316-14.7119Q16.4355-14.0723 17.5781-12.9297Q18.7207-11.7871 19.3652-10.2832Q20.0098-8.7793 20.0098-7.05078Q20.0098-5.32227 19.3701-3.81836Q18.7305-2.31445 17.5928-1.17676Q16.4551-0.0390625 14.9463 0.605469Q13.4375 1.25 11.709 1.25ZM7.39258-7.04102Q7.39258-6.68945 7.62695-6.46484Q7.86133-6.24023 8.23242-6.24023L10.8789-6.24023L10.8789-3.57422Q10.8789-3.21289 11.1035-2.9834Q11.3281-2.75391 11.6797-2.75391Q12.0508-2.75391 12.2852-2.9834Q12.5195-3.21289 12.5195-3.57422L12.5195-6.24023L15.1758-6.24023Q15.5371-6.24023 15.7715-6.46484Q16.0059-6.68945 16.0059-7.04102Q16.0059-7.41211 15.7715-7.6416Q15.5371-7.87109 15.1758-7.87109L12.5195-7.87109L12.5195-10.5176Q12.5195-10.8984 12.2852-11.1279Q12.0508-11.3574 11.6797-11.3574Q11.3281-11.3574 11.1035-11.1279Q10.8789-10.8984 10.8789-10.5176L10.8789-7.87109L8.23242-7.87109Q7.85156-7.87109 7.62207-7.6416Q7.39258-7.41211 7.39258-7.04102Z"/>
  </g>
  <g transform="matrix(1 0 0 1 305.646 1933)">
   <path d="M14.9707 5.66406Q17.0605 5.66406 18.96 5.01465Q20.8594 4.36523 22.4512 3.19336Q24.043 2.02148 25.2197 0.429688Q26.3965-1.16211 27.0459-3.06641Q27.6953-4.9707 27.6953-7.05078Q27.6953-9.14062 27.0459-11.04Q26.3965-12.9395 25.2197-14.5312Q24.043-16.123 22.4512-17.2998Q20.8594-18.4766 18.9551-19.126Q17.0508-19.7754 14.9609-19.7754Q12.8711-19.7754 10.9717-19.126Q9.07227-18.4766 7.48535-17.2998Q5.89844-16.123 4.72168-14.5312Q3.54492-12.9395 2.90039-11.04Q2.25586-9.14062 2.25586-7.05078Q2.25586-4.9707 2.90527-3.06641Q3.55469-1.16211 4.72656 0.429688Q5.89844 2.02148 7.49023 3.19336Q9.08203 4.36523 10.9814 5.01465Q12.8809 5.66406 14.9707 5.66406ZM14.9707 3.84766Q13.1641 3.84766 11.5283 3.2959Q9.89258 2.74414 8.53516 1.74805Q7.17773 0.751953 6.17676-0.610352Q5.17578-1.97266 4.62891-3.6084Q4.08203-5.24414 4.08203-7.05078Q4.08203-8.86719 4.62891-10.5029Q5.17578-12.1387 6.17188-13.501Q7.16797-14.8633 8.52539-15.8594Q9.88281-16.8555 11.5186-17.4023Q13.1543-17.9492 14.9609-17.9492Q16.7773-17.9492 18.4131-17.4023Q20.0488-16.8555 21.4111-15.8594Q22.7734-14.8633 23.7695-13.501Q24.7656-12.1387 25.3174-10.5029Q25.8691-8.86719 25.8691-7.05078Q25.8789-5.24414 25.332-3.6084Q24.7852-1.97266 23.7842-0.610352Q22.7832 0.751953 21.4209 1.74805Q20.0586 2.74414 18.4229 3.2959Q16.7871 3.84766 14.9707 3.84766ZM9.45312-7.04102Q9.45312-6.66016 9.71191-6.41113Q9.9707-6.16211 10.3711-6.16211L14.0625-6.16211L14.0625-2.46094Q14.0625-2.06055 14.3115-1.80664Q14.5605-1.55273 14.9414-1.55273Q15.3516-1.55273 15.6055-1.80664Q15.8594-2.06055 15.8594-2.46094L15.8594-6.16211L19.5605-6.16211Q19.9609-6.16211 20.2148-6.41113Q20.4688-6.66016 20.4688-7.04102Q20.4688-7.45117 20.2148-7.70508Q19.9609-7.95898 19.5605-7.95898L15.8594-7.95898L15.8594-11.6504Q15.8594-12.0605 15.6055-12.3145Q15.3516-12.5684 14.9414-12.5684Q14.5605-12.5684 14.3115-12.3096Q14.0625-12.0508 14.0625-11.6504L14.0625-7.95898L10.3711-7.95898Q9.96094-7.95898 9.70703-7.70508Q9.45312-7.45117 9.45312-7.04102Z"/>
  </g>
  <text style="stroke:none;fill:black;font-family:sans-serif;font-size:13;font-weight:bold;" transform="matrix(1 0 0 1 263 1953)">Design Variations</text>
  <text style="stroke:none;fill:black;font-family:sans-serif;font-size:13;" transform="matrix(1 0 0 1 263 1971)">Symbols are supported in up to nine weights and three scales.</text>
  <text style="stroke:none;fill:black;font-family:sans-serif;font-size:13;" transform="matrix(1 0 0 1 263 1989)">For optimal layout with text and other symbols, vertically align</text>
  <text style="stroke:none;fill:black;font-family:sans-serif;font-size:13;" transform="matrix(1 0 0 1 263 2007)">symbols with the adjacent text.</text>
  <line style="fill:none;stroke:#00AEEF;stroke-width:0.5;opacity:1.0;" x1="776" x2="776" y1="1919" y2="1933"/>
  <g transform="matrix(1 0 0 1 776 1933)">
   <path d="M3.31055 0.15625Q3.70117 0.15625 3.91602-0.00976562Q4.13086-0.175781 4.26758-0.585938L5.52734-4.0332L11.2891-4.0332L12.5488-0.585938Q12.6855-0.175781 12.9004-0.00976562Q13.1152 0.15625 13.4961 0.15625Q13.8867 0.15625 14.1162-0.0585938Q14.3457-0.273438 14.3457-0.644531Q14.3457-0.869141 14.2383-1.17188L9.6582-13.3691Q9.48242-13.8184 9.17969-14.043Q8.87695-14.2676 8.4082-14.2676Q7.5-14.2676 7.17773-13.3789L2.59766-1.16211Q2.49023-0.859375 2.49023-0.634766Q2.49023-0.263672 2.70996-0.0537109Q2.92969 0.15625 3.31055 0.15625ZM6.00586-5.51758L8.37891-12.0898L8.42773-12.0898L10.8008-5.51758Z"/>
  </g>
  <line style="fill:none;stroke:#00AEEF;stroke-width:0.5;opacity:1.0;" x1="793.197" x2="793.197" y1="1919" y2="1933"/>
  <text style="stroke:none;fill:black;font-family:sans-serif;font-size:13;font-weight:bold;" transform="matrix(1 0 0 1 776 1953)">Margins</text>
  <text style="stroke:none;fill:black;font-family:sans-serif;font-size:13;" transform="matrix(1 0 0 1 776 1971)">Leading and trailing margins on the left and right side of each symbol</text>
  <text style="stroke:none;fill:black;font-family:sans-serif;font-size:13;" transform="matrix(1 0 0 1 776 1989)">can be adjusted by modifying the x-location of the margin guidelines.</text>
  <text style="stroke:none;fill:black;font-family:sans-serif;font-size:13;" transform="matrix(1 0 0 1 776 2007)">Modifications are automatically applied proportionally to all</text>
  <text style="stroke:none;fill:black;font-family:sans-serif;font-size:13;" transform="matrix(1 0 0 1 776 2025)">scales and weights.</text>
  <g transform="matrix(1 0 0 1 1289 1933)">
   <path d="M2.8418 1.86523L4.54102 3.57422Q5.18555 4.22852 5.90332 4.17969Q6.62109 4.13086 7.31445 3.35938L18.0078-8.42773L17.041-9.4043L6.42578 2.27539Q6.16211 2.57812 5.89355 2.61719Q5.625 2.65625 5.27344 2.30469L4.10156 1.14258Q3.75 0.791016 3.79395 0.522461Q3.83789 0.253906 4.14062-0.0195312L15.6152-10.8203L14.6387-11.7871L3.04688-0.898438Q2.30469-0.214844 2.25098 0.498047Q2.19727 1.21094 2.8418 1.86523ZM9.25781-16.3281Q8.94531-16.0254 8.90625-15.6348Q8.86719-15.2441 9.04297-14.9512Q9.21875-14.6777 9.55566-14.541Q9.89258-14.4043 10.3809-14.5215Q11.4746-14.7754 12.5977-14.7314Q13.7207-14.6875 14.7949-13.9844L14.209-12.5293Q13.9551-11.9043 14.0674-11.4404Q14.1797-10.9766 14.5801-10.5664L16.875-8.25195Q17.2363-7.88086 17.5781-7.82227Q17.9199-7.76367 18.3398-7.8418L19.4043-8.03711L20.0684-7.36328L20.0293-6.80664Q20-6.43555 20.1221-6.12305Q20.2441-5.81055 20.6055-5.44922L21.3672-4.70703Q21.7285-4.3457 22.1533-4.33105Q22.5781-4.31641 22.9297-4.66797L25.8398-7.58789Q26.1914-7.93945 26.1816-8.35449Q26.1719-8.76953 25.8105-9.13086L25.0391-9.89258Q24.6875-10.2539 24.3799-10.3857Q24.0723-10.5176 23.7109-10.4883L23.1348-10.4395L22.4902-11.0742L22.7344-12.1973Q22.832-12.6172 22.6953-12.9834Q22.5586-13.3496 22.1191-13.7891L19.9219-15.9766Q18.6719-17.2168 17.2607-17.8369Q15.8496-18.457 14.4189-18.4814Q12.9883-18.5059 11.665-17.959Q10.3418-17.4121 9.25781-16.3281ZM10.752-15.957Q11.6602-16.6211 12.7002-16.9043Q13.7402-17.1875 14.8047-17.085Q15.8691-16.9824 16.8701-16.5137Q17.8711-16.0449 18.7012-15.2051L21.1328-12.793Q21.3086-12.6172 21.3525-12.4512Q21.3965-12.2852 21.3379-12.0312L21.0156-10.5469L22.5195-9.0625L23.5059-9.12109Q23.6914-9.13086 23.7891-9.09668Q23.8867-9.0625 24.0332-8.91602L24.6094-8.33984L22.168-5.89844L21.5918-6.47461Q21.4453-6.62109 21.4062-6.71875Q21.3672-6.81641 21.377-7.01172L21.4453-7.98828L19.9512-9.47266L18.4277-9.21875Q18.1836-9.16992 18.042-9.2041Q17.9004-9.23828 17.7148-9.41406L15.7129-11.416Q15.5176-11.5918 15.4932-11.7529Q15.4688-11.9141 15.5859-12.1875L16.4648-14.2773Q15.293-15.3711 13.8281-15.791Q12.3633-16.2109 10.8398-15.7617Q10.7227-15.7324 10.6885-15.8057Q10.6543-15.8789 10.752-15.957Z"/>
  </g>
  <text style="stroke:none;fill:black;font-family:sans-serif;font-size:13;font-weight:bold;" transform="matrix(1 0 0 1 1289 1953)">Exporting</text>
  <text style="stroke:none;fill:black;font-family:sans-serif;font-size:13;" transform="matrix(1 0 0 1 1289 1971)">Symbols should be outlined when exporting to ensure the</text>
  <text style="stroke:none;fill:black;font-family:sans-serif;font-size:13;" transform="matrix(1 0 0 1 1289 1989)">design is preserved when submitting to Xcode.</text>
  <text id="template-version" style="stroke:none;fill:black;font-family:sans-serif;font-size:13;text-anchor:end;" transform="matrix(1 0 0 1 3036 1933)">Template v.2.0</text>
  <text style="stroke:none;fill:black;font-family:sans-serif;font-size:13;text-anchor:end;" transform="matrix(1 0 0 1 3036 1951)">Requires Xcode 13 or greater</text>
  <text id="descriptive-name" style="stroke:none;fill:black;font-family:sans-serif;font-size:13;text-anchor:end;" transform="matrix(1 0 0 1 3036 1969)">Generated from pause.fill</text>
  <text style="stroke:none;fill:black;font-family:sans-serif;font-size:13;text-anchor:end;" transform="matrix(1 0 0 1 3036 1987)">Typeset at 100 points</text>
  <text style="stroke:none;fill:black;font-family:sans-serif;font-size:13;" transform="matrix(1 0 0 1 263 726)">Small</text>
  <text style="stroke:none;fill:black;font-family:sans-serif;font-size:13;" transform="matrix(1 0 0 1 263 1156)">Medium</text>
  <text style="stroke:none;fill:black;font-family:sans-serif;font-size:13;" transform="matrix(1 0 0 1 263 1586)">Large</text>
 </g>
 <g id="Guides">
  <g id="H-reference" style="fill:#27AAE1;stroke:none;" transform="matrix(1 0 0 1 339 696)">
   <path d="M0.976562 0L3.66211 0L29.3457-67.1387L30.0293-67.1387L30.0293-70.459L28.125-70.459ZM11.6699-24.4629L46.9727-24.4629L46.2402-26.709L12.4512-26.709ZM55.127 0L57.7637 0L30.6152-70.459L29.4434-70.459L29.4434-67.1387Z"/>
  </g>
  <line id="Baseline-S" style="fill:none;stroke:#27AAE1;opacity:1;stroke-width:0.5;" x1="263" x2="3036" y1="696" y2="696"/>
  <line id="Capline-S" style="fill:none;stroke:#27AAE1;opacity:1;stroke-width:0.5;" x1="263" x2="3036" y1="625.541" y2="625.541"/>
  <g id="H-reference" style="fill:#27AAE1;stroke:none;" transform="matrix(1 0 0 1 339 1126)">
   <path d="M0.976562 0L3.66211 0L29.3457-67.1387L30.0293-67.1387L30.0293-70.459L28.125-70.459ZM11.6699-24.4629L46.9727-24.4629L46.2402-26.709L12.4512-26.709ZM55.127 0L57.7637 0L30.6152-70.459L29.4434-70.459L29.4434-67.1387Z"/>
  </g>
  <line id="Baseline-M" style="fill:none;stroke:#27AAE1;opacity:1;stroke-width:0.5;" x1="263" x2="3036" y1="1126" y2="1126"/>
  <line id="Capline-M" style="fill:none;stroke:#27AAE1;opacity:1;stroke-width:0.5;" x1="263" x2="3036" y1="1055.54" y2="1055.54"/>
  <g id="H-reference" style="fill:#27AAE1;stroke:none;" transform="matrix(1 0 0 1 339 1556)">
   <path d="M0.976562 0L3.66211 0L29.3457-67.1387L30.0293-67.1387L30.0293-70.459L28.125-70.459ZM11.6699-24.4629L46.9727-24.4629L46.2402-26.709L12.4512-26.709ZM55.127 0L57.7637 0L30.6152-70.459L29.4434-70.459L29.4434-67.1387Z"/>
  </g>
  <line id="Baseline-L" style="fill:none;stroke:#27AAE1;opacity:1;stroke-width:0.5;" x1="263" x2="3036" y1="1556" y2="1556"/>
  <line id="Capline-L" style="fill:none;stroke:#27AAE1;opacity:1;stroke-width:0.5;" x1="263" x2="3036" y1="1485.54" y2="1485.54"/>
  <line id="left-margin" style="fill:none;stroke:#00AEEF;stroke-width:0.5;opacity:1.0;" x1="1407.61" x2="1407.61" y1="1030.79" y2="1150.12"/>
  <line id="right-margin" style="fill:none;stroke:#00AEEF;stroke-width:0.5;opacity:1.0;" x1="1492.08" x2="1492.08" y1="1030.79" y2="1150.12"/>
 </g>
 <g id="Symbols">
  <g id="Black-L" transform="matrix(1 0 0 1 2870.7 1556)">
   <path d="M27.3438 20.752L43.6035 20.752Q49.2188 20.752 52.0508 17.9199Q54.8828 15.0879 54.8828 9.47266L54.8828-79.9316Q54.8828-85.4004 52.0508-88.208Q49.2188-91.0156 43.6035-91.2109L27.3438-91.2109Q21.7285-91.2109 18.8965-88.3789Q16.0645-85.5469 16.0645-79.9316L16.0645 9.47266Q15.918 15.0879 18.7744 17.9199Q21.6309 20.752 27.3438 20.752ZM81.7871 20.752L98.0469 20.752Q103.662 20.752 106.494 17.9199Q109.326 15.0879 109.326 9.47266L109.326-79.9316Q109.326-85.4004 106.494-88.3057Q103.662-91.2109 98.0469-91.2109L81.7871-91.2109Q76.1719-91.2109 73.3398-88.3789Q70.5078-85.5469 70.5078-79.9316L70.5078 9.47266Q70.5078 15.0879 73.291 17.9199Q76.0742 20.752 81.7871 20.752Z"/>
  </g>
  <g id="Heavy-L" transform="matrix(1 0 0 1 2576.24 1556)">
   <path d="M26.5137 19.4824L42.2852 19.4824Q47.4609 19.4824 50.0977 16.8457Q52.7344 14.209 52.7344 9.0332L52.7344-79.4922Q52.7344-84.6191 50.0977-87.207Q47.4609-89.7949 42.2852-89.9414L26.5137-89.9414Q21.3379-89.9414 18.7012-87.3291Q16.0645-84.7168 16.0645-79.4922L16.0645 9.0332Q15.9668 14.209 18.6035 16.8457Q21.2402 19.4824 26.5137 19.4824ZM78.6133 19.4824L94.3359 19.4824Q99.5605 19.4824 102.197 16.8457Q104.834 14.209 104.834 9.0332L104.834-79.4922Q104.834-84.6191 102.197-87.2803Q99.5605-89.9414 94.3359-89.9414L78.6133-89.9414Q73.3887-89.9414 70.7764-87.3291Q68.1641-84.7168 68.1641-79.4922L68.1641 9.0332Q68.1641 14.209 70.752 16.8457Q73.3398 19.4824 78.6133 19.4824Z"/>
  </g>
  <g id="Bold-L" transform="matrix(1 0 0 1 2282.04 1556)">
   <path d="M25.6348 18.0664L40.7715 18.0664Q45.5566 18.0664 47.9492 15.6738Q50.3418 13.2812 50.3418 8.49609L50.3418-79.0039Q50.3418-83.7402 47.9492-86.084Q45.5566-88.4277 40.7715-88.5254L25.6348-88.5254Q20.8496-88.5254 18.457-86.1328Q16.0645-83.7402 16.0645-79.0039L16.0645 8.49609Q16.0156 13.2812 18.4082 15.6738Q20.8008 18.0664 25.6348 18.0664ZM75.0977 18.0664L90.2344 18.0664Q95.0195 18.0664 97.4121 15.6738Q99.8047 13.2812 99.8047 8.49609L99.8047-79.0039Q99.8047-83.7402 97.4121-86.1328Q95.0195-88.5254 90.2344-88.5254L75.0977-88.5254Q70.3125-88.5254 67.9199-86.1328Q65.5273-83.7402 65.5273-79.0039L65.5273 8.49609Q65.5273 13.2812 67.8955 15.6738Q70.2637 18.0664 75.0977 18.0664Z"/>
  </g>
  <g id="Semibold-L" transform="matrix(1 0 0 1 1987.09 1556)">
   <path d="M25 17.041L39.7461 17.041Q44.1895 17.041 46.4111 14.8193Q48.6328 12.5977 48.6328 8.1543L48.6328-78.6133Q48.6328-83.1543 46.4111-85.3271Q44.1895-87.5 39.7461-87.5488L25-87.5488Q20.5078-87.5488 18.2861-85.3271Q16.0645-83.1055 16.0645-78.6133L16.0645 8.1543Q16.0156 12.5977 18.2617 14.8193Q20.5078 17.041 25 17.041ZM72.6074 17.041L87.4023 17.041Q91.8457 17.041 94.0674 14.8193Q96.2891 12.5977 96.2891 8.1543L96.2891-78.6133Q96.2891-83.1543 94.0674-85.3516Q91.8457-87.5488 87.4023-87.5488L72.6074-87.5488Q68.1641-87.5488 65.9424-85.3271Q63.7207-83.1055 63.7207-78.6133L63.7207 8.1543Q63.7207 12.5977 65.9424 14.8193Q68.1641 17.041 72.6074 17.041Z"/>
  </g>
  <g id="Medium-L" transform="matrix(1 0 0 1 1691.7 1556)">
   <path d="M24.5117 16.3086L38.9648 16.3086Q43.1641 16.3086 45.2881 14.1846Q47.4121 12.0605 47.4121 7.86133L47.4121-78.3691Q47.4121-82.666 45.2881-84.7168Q43.1641-86.7676 38.9648-86.8164L24.5117-86.8164Q20.2637-86.8164 18.1641-84.6924Q16.0645-82.5684 16.0645-78.3691L16.0645 7.86133Q16.0156 12.0605 18.1396 14.1846Q20.2637 16.3086 24.5117 16.3086ZM70.752 16.3086L85.2539 16.3086Q89.4531 16.3086 91.5527 14.1846Q93.6523 12.0605 93.6523 7.86133L93.6523-78.3691Q93.6523-82.666 91.5527-84.7412Q89.4531-86.8164 85.2539-86.8164L70.752-86.8164Q66.5527-86.8164 64.4531-84.6924Q62.3535-82.5684 62.3535-78.3691L62.3535 7.86133Q62.3535 12.0605 64.4531 14.1846Q66.5527 16.3086 70.752 16.3086Z"/>
  </g>
  <g id="Regular-L" transform="matrix(1 0 0 1 1396.7 1556)">
   <path d="M23.877 15.332L37.9395 15.332Q41.8457 15.332 43.7988 13.3789Q45.752 11.4258 45.752 7.51953L45.752-78.0273Q45.752-82.0801 43.7988-83.96Q41.8457-85.8398 37.9395-85.8398L23.877-85.8398Q19.9707-85.8398 18.0176-83.8867Q16.0645-81.9336 16.0645-78.0273L16.0645 7.51953Q16.0645 11.4258 18.0176 13.3789Q19.9707 15.332 23.877 15.332ZM68.3594 15.332L82.4219 15.332Q86.3281 15.332 88.2812 13.3789Q90.2344 11.4258 90.2344 7.51953L90.2344-78.0273Q90.2344-82.0801 88.2812-83.96Q86.3281-85.8398 82.4219-85.8398L68.3594-85.8398Q64.4531-85.8398 62.5-83.8867Q60.5469-81.9336 60.5469-78.0273L60.5469 7.51953Q60.5469 11.4258 62.5 13.3789Q64.4531 15.332 68.3594 15.332Z"/>
  </g>
  <g id="Light-L" transform="matrix(1 0 0 1 1101.86 1556)">
   <path d="M23.0469 14.3555L36.7676 14.3555Q40.3809 14.3555 42.0898 12.6221Q43.7988 10.8887 43.7988 7.32422L43.7988-77.8809Q43.7988-81.543 42.0898-83.2031Q40.3809-84.8633 36.7676-84.8633L23.0469-84.8633Q19.4824-84.8633 17.7734-83.1543Q16.0645-81.4453 16.0645-77.8809L16.0645 7.32422Q16.0645 10.8887 17.7734 12.6221Q19.4824 14.3555 23.0469 14.3555ZM65.7715 14.3555L79.4922 14.3555Q83.0566 14.3555 84.7656 12.6221Q86.4746 10.8887 86.4746 7.32422L86.4746-77.8809Q86.4746-81.543 84.7656-83.2031Q83.0566-84.8633 79.4922-84.8633L65.7715-84.8633Q62.207-84.8633 60.498-83.1543Q58.7891-81.4453 58.7891-77.8809L58.7891 7.32422Q58.7891 10.8887 60.498 12.6221Q62.207 14.3555 65.7715 14.3555Z"/>
  </g>
  <g id="Thin-L" transform="matrix(1 0 0 1 807.619 1556)">
   <path d="M21.9727 12.9883L35.2539 12.9883Q38.3789 12.9883 39.7949 11.6211Q41.2109 10.2539 41.2109 7.08008L41.2109-77.6367Q41.2109-80.7617 39.7949-82.1533Q38.3789-83.5449 35.2539-83.5449L21.9727-83.5449Q18.8477-83.5449 17.4561-82.1533Q16.0645-80.7617 16.0645-77.6367L16.0645 7.08008Q16.0645 10.2539 17.4561 11.6211Q18.8477 12.9883 21.9727 12.9883ZM62.3535 12.9883L75.6348 12.9883Q78.7598 12.9883 80.1514 11.6211Q81.543 10.2539 81.543 7.08008L81.543-77.6367Q81.543-80.7617 80.1514-82.1533Q78.7598-83.5449 75.6348-83.5449L62.3535-83.5449Q59.2285-83.5449 57.8369-82.1533Q56.4453-80.7617 56.4453-77.6367L56.4453 7.08008Q56.4453 10.2539 57.8369 11.6211Q59.2285 12.9883 62.3535 12.9883Z"/>
  </g>
  <g id="Ultralight-L" transform="matrix(1 0 0 1 512.177 1556)">
   <path d="M21.4355 12.3535L34.4727 12.3535Q37.4023 12.3535 38.6475 11.1084Q39.8926 9.86328 39.8926 6.98242L39.8926-77.5391Q39.8926-80.4199 38.6475-81.665Q37.4023-82.9102 34.4727-82.9102L21.4355-82.9102Q18.5059-82.9102 17.2852-81.665Q16.0645-80.4199 16.0645-77.5391L16.0645 6.98242Q16.0645 9.86328 17.2852 11.1084Q18.5059 12.3535 21.4355 12.3535ZM60.5957 12.3535L73.6816 12.3535Q76.5625 12.3535 77.7832 11.1084Q79.0039 9.86328 79.0039 6.98242L79.0039-77.5391Q79.0039-80.4199 77.7832-81.665Q76.5625-82.9102 73.6816-82.9102L60.5957-82.9102Q57.666-82.9102 56.4453-81.665Q55.2246-80.4199 55.2246-77.5391L55.2246 6.98242Q55.2246 9.86328 56.4453 11.1084Q57.666 12.3535 60.5957 12.3535Z"/>
  </g>
  <g id="Black-M" transform="matrix(1 0 0 1 2883.5 1126)">
   <path d="M21.6309 8.88672L34.5703 8.88672Q39.1113 8.88672 41.4062 6.5918Q43.7012 4.29688 43.7012-0.244141L43.7012-70.2148Q43.7012-74.6094 41.4062-76.9043Q39.1113-79.1992 34.5703-79.3457L21.6309-79.3457Q17.041-79.3457 14.7461-77.0508Q12.4512-74.7559 12.4512-70.2148L12.4512-0.244141Q12.3535 4.29688 14.624 6.5918Q16.8945 8.88672 21.6309 8.88672ZM65.2344 8.88672L78.1738 8.88672Q82.7637 8.88672 85.0586 6.5918Q87.3535 4.29688 87.3535-0.244141L87.3535-70.2148Q87.3535-74.6094 85.0586-76.9775Q82.7637-79.3457 78.1738-79.3457L65.2344-79.3457Q60.6445-79.3457 58.3496-77.0508Q56.0547-74.7559 56.0547-70.2148L56.0547-0.244141Q56.0547 4.29688 58.3008 6.5918Q60.5469 8.88672 65.2344 8.88672Z"/>
  </g>
  <g id="Heavy-M" transform="matrix(1 0 0 1 2588.59 1126)">
   <path d="M20.9961 7.86133L33.4961 7.86133Q37.7441 7.86133 39.8926 5.71289Q42.041 3.56445 42.041-0.634766L42.041-69.8242Q42.041-73.9746 39.8926-76.0986Q37.7441-78.2227 33.4961-78.3203L20.9961-78.3203Q16.748-78.3203 14.5996-76.1719Q12.4512-74.0234 12.4512-69.8242L12.4512-0.634766Q12.3535 3.56445 14.4775 5.71289Q16.6016 7.86133 20.9961 7.86133ZM62.6953 7.86133L75.1953 7.86133Q79.4434 7.86133 81.5918 5.71289Q83.7402 3.56445 83.7402-0.634766L83.7402-69.8242Q83.7402-73.9746 81.5918-76.1475Q79.4434-78.3203 75.1953-78.3203L62.6953-78.3203Q58.3984-78.3203 56.2744-76.1719Q54.1504-74.0234 54.1504-69.8242L54.1504-0.634766Q54.1504 3.56445 56.25 5.71289Q58.3496 7.86133 62.6953 7.86133Z"/>
  </g>
  <g id="Bold-M" transform="matrix(1 0 0 1 2293.91 1126)">
   <path d="M20.3125 6.73828L32.3242 6.73828Q36.1816 6.73828 38.1592 4.76074Q40.1367 2.7832 40.1367-1.12305L40.1367-69.3848Q40.1367-73.2422 38.1592-75.1709Q36.1816-77.0996 32.3242-77.1973L20.3125-77.1973Q16.4062-77.1973 14.4287-75.2197Q12.4512-73.2422 12.4512-69.3848L12.4512-1.12305Q12.4023 2.7832 14.3555 4.76074Q16.3086 6.73828 20.3125 6.73828ZM59.8633 6.73828L71.875 6.73828Q75.7812 6.73828 77.7344 4.76074Q79.6875 2.7832 79.6875-1.12305L79.6875-69.3848Q79.6875-73.2422 77.7344-75.2197Q75.7812-77.1973 71.875-77.1973L59.8633-77.1973Q55.957-77.1973 53.9795-75.2197Q52.002-73.2422 52.002-69.3848L52.002-1.12305Q52.002 2.7832 53.9551 4.76074Q55.9082 6.73828 59.8633 6.73828Z"/>
  </g>
  <g id="Semibold-M" transform="matrix(1 0 0 1 1998.59 1126)">
   <path d="M19.7754 5.9082L31.4941 5.9082Q35.1074 5.9082 36.9629 4.05273Q38.8184 2.19727 38.8184-1.46484L38.8184-69.043Q38.8184-72.7051 36.9629-74.5117Q35.1074-76.3184 31.4941-76.3672L19.7754-76.3672Q16.1621-76.3672 14.3066-74.5117Q12.4512-72.6562 12.4512-69.043L12.4512-1.46484Q12.4023 2.19727 14.2578 4.05273Q16.1133 5.9082 19.7754 5.9082ZM57.8613 5.9082L69.5312 5.9082Q73.1934 5.9082 75.0488 4.05273Q76.9043 2.19727 76.9043-1.46484L76.9043-69.043Q76.9043-72.7051 75.0488-74.5361Q73.1934-76.3672 69.5312-76.3672L57.8613-76.3672Q54.1992-76.3672 52.3438-74.5117Q50.4883-72.6562 50.4883-69.043L50.4883-1.46484Q50.4883 2.19727 52.3438 4.05273Q54.1992 5.9082 57.8613 5.9082Z"/>
  </g>
  <g id="Medium-M" transform="matrix(1 0 0 1 1702.93 1126)">
   <path d="M19.4336 5.32227L30.9082 5.32227Q34.3262 5.32227 36.084 3.54004Q37.8418 1.75781 37.8418-1.70898L37.8418-68.7988Q37.8418-72.3145 36.084-74.0234Q34.3262-75.7324 30.9082-75.7812L19.4336-75.7812Q15.9668-75.7812 14.209-73.999Q12.4512-72.2168 12.4512-68.7988L12.4512-1.70898Q12.4512 1.75781 14.1846 3.54004Q15.918 5.32227 19.4336 5.32227ZM56.3965 5.32227L67.8223 5.32227Q71.2891 5.32227 73.0469 3.54004Q74.8047 1.75781 74.8047-1.70898L74.8047-68.7988Q74.8047-72.3145 73.0469-74.0479Q71.2891-75.7812 67.8223-75.7812L56.3965-75.7812Q52.9297-75.7812 51.1475-73.999Q49.3652-72.2168 49.3652-68.7988L49.3652-1.70898Q49.3652 1.75781 51.123 3.54004Q52.8809 5.32227 56.3965 5.32227Z"/>
  </g>
  <g id="Regular-M" transform="matrix(1 0 0 1 1407.61 1126)">
   <path d="M18.9453 4.54102L30.0781 4.54102Q33.252 4.54102 34.9121 2.88086Q36.5723 1.2207 36.5723-2.00195L36.5723-68.5059Q36.5723-71.8262 34.9121-73.4131Q33.252-75 30.0781-75L18.9453-75Q15.7227-75 14.0869-73.3398Q12.4512-71.6797 12.4512-68.5059L12.4512-2.00195Q12.4512 1.2207 14.0869 2.88086Q15.7227 4.54102 18.9453 4.54102ZM54.4434 4.54102L65.5273 4.54102Q68.75 4.54102 70.3857 2.88086Q72.0215 1.2207 72.0215-2.00195L72.0215-68.5059Q72.0215-71.8262 70.3857-73.4131Q68.75-75 65.5273-75L54.4434-75Q51.2207-75 49.5605-73.3398Q47.9004-71.6797 47.9004-68.5059L47.9004-2.00195Q47.9004 1.2207 49.5605 2.88086Q51.2207 4.54102 54.4434 4.54102Z"/>
  </g>
  <g id="Light-M" transform="matrix(1 0 0 1 1112.58 1126)">
   <path d="M18.2129 3.61328L29.0527 3.61328Q31.9336 3.61328 33.374 2.17285Q34.8145 0.732422 34.8145-2.14844L34.8145-68.3594Q34.8145-71.3379 33.374-72.7295Q31.9336-74.1211 29.0527-74.1211L18.2129-74.1211Q15.2832-74.1211 13.8672-72.6807Q12.4512-71.2402 12.4512-68.3594L12.4512-2.14844Q12.4512 0.732422 13.8672 2.17285Q15.2832 3.61328 18.2129 3.61328ZM52.1484 3.61328L62.8906 3.61328Q65.8203 3.61328 67.2363 2.17285Q68.6523 0.732422 68.6523-2.14844L68.6523-68.3594Q68.6523-71.3379 67.2363-72.7295Q65.8203-74.1211 62.8906-74.1211L52.1484-74.1211Q49.1699-74.1211 47.7295-72.6807Q46.2891-71.2402 46.2891-68.3594L46.2891-2.14844Q46.2891 0.732422 47.7295 2.17285Q49.1699 3.61328 52.1484 3.61328Z"/>
  </g>
  <g id="Thin-M" transform="matrix(1 0 0 1 818.068 1126)">
   <path d="M17.2363 2.44141L27.6855 2.44141Q30.1758 2.44141 31.3232 1.29395Q32.4707 0.146484 32.4707-2.39258L32.4707-68.1641Q32.4707-70.7031 31.3232-71.8262Q30.1758-72.9492 27.6855-72.9492L17.2363-72.9492Q14.7461-72.9492 13.5986-71.8018Q12.4512-70.6543 12.4512-68.1641L12.4512-2.39258Q12.4512 0.146484 13.5986 1.29395Q14.7461 2.44141 17.2363 2.44141ZM49.0723 2.44141L59.4238 2.44141Q61.9629 2.44141 63.1104 1.29395Q64.2578 0.146484 64.2578-2.39258L64.2578-68.1641Q64.2578-70.7031 63.1104-71.8262Q61.9629-72.9492 59.4238-72.9492L49.0723-72.9492Q46.5332-72.9492 45.3613-71.8018Q44.1895-70.6543 44.1895-68.1641L44.1895-2.39258Q44.1895 0.146484 45.3613 1.29395Q46.5332 2.44141 49.0723 2.44141Z"/>
  </g>
  <g id="Ultralight-M" transform="matrix(1 0 0 1 522.504 1126)">
   <path d="M16.748 1.80664L27.002 1.80664Q29.2969 1.80664 30.2979 0.805664Q31.2988-0.195312 31.2988-2.49023L31.2988-68.0664Q31.2988-70.3613 30.2979-71.3623Q29.2969-72.3633 27.002-72.3633L16.748-72.3633Q14.4531-72.3633 13.4521-71.3623Q12.4512-70.3613 12.4512-68.0664L12.4512-2.49023Q12.4512-0.195312 13.4521 0.805664Q14.4531 1.80664 16.748 1.80664ZM47.5098 1.80664L57.666 1.80664Q60.0098 1.80664 60.9863 0.805664Q61.9629-0.195312 61.9629-2.49023L61.9629-68.0664Q61.9629-70.3613 60.9863-71.3623Q60.0098-72.3633 57.666-72.3633L47.5098-72.3633Q45.1172-72.3633 44.1162-71.3623Q43.1152-70.3613 43.1152-68.0664L43.1152-2.49023Q43.1152-0.195312 44.1162 0.805664Q45.1172 1.80664 47.5098 1.80664Z"/>
  </g>
  <g id="Black-S" transform="matrix(1 0 0 1 2893.85 696)">
   <path d="M17.0898-0.390625L27.3438-0.390625Q34.668-0.390625 34.668-7.71484L34.668-62.7441Q34.668-69.7754 27.3438-70.0684L17.0898-70.0684Q9.76562-70.0684 9.76562-62.7441L9.76562-7.71484Q9.57031-0.390625 17.0898-0.390625ZM51.7578-0.390625L62.0117-0.390625Q69.3359-0.390625 69.3359-7.71484L69.3359-62.7441Q69.3359-70.0684 62.0117-70.0684L51.7578-70.0684Q44.4336-70.0684 44.4336-62.7441L44.4336-7.71484Q44.4336-0.390625 51.7578-0.390625Z"/>
  </g>
  <g id="Heavy-S" transform="matrix(1 0 0 1 2598.48 696)">
   <path d="M16.6504-1.17188L26.5625-1.17188Q33.4473-1.17188 33.4473-8.05664L33.4473-62.4023Q33.4473-69.0918 26.5625-69.2871L16.6504-69.2871Q9.76562-69.2871 9.76562-62.4023L9.76562-8.05664Q9.61914-1.17188 16.6504-1.17188ZM49.9023-1.17188L59.8145-1.17188Q66.6504-1.17188 66.6504-8.05664L66.6504-62.4023Q66.6504-69.2871 59.8145-69.2871L49.9023-69.2871Q42.9688-69.2871 42.9688-62.4023L42.9688-8.05664Q42.9688-1.17188 49.9023-1.17188Z"/>
  </g>
  <g id="Bold-S" transform="matrix(1 0 0 1 2303.23 696)">
   <path d="M16.1621-2.05078L25.7324-2.05078Q32.0801-2.05078 32.0801-8.44727L32.0801-62.0605Q32.0801-68.3105 25.7324-68.457L16.1621-68.457Q9.76562-68.457 9.76562-62.0605L9.76562-8.44727Q9.66797-2.05078 16.1621-2.05078ZM47.8027-2.05078L57.3242-2.05078Q63.7207-2.05078 63.7207-8.44727L63.7207-62.0605Q63.7207-68.457 57.3242-68.457L47.8027-68.457Q41.4062-68.457 41.4062-62.0605L41.4062-8.44727Q41.4062-2.05078 47.8027-2.05078Z"/>
  </g>
  <g id="Semibold-S" transform="matrix(1 0 0 1 2007.57 696)">
   <path d="M15.8203-2.63672L25.0977-2.63672Q31.1523-2.63672 31.1523-8.69141L31.1523-61.8164Q31.1523-67.7246 25.0977-67.8223L15.8203-67.8223Q9.76562-67.8223 9.76562-61.8164L9.76562-8.69141Q9.7168-2.63672 15.8203-2.63672ZM46.3379-2.63672L55.6152-2.63672Q61.6211-2.63672 61.6211-8.69141L61.6211-61.8164Q61.6211-67.8223 55.6152-67.8223L46.3379-67.8223Q40.2832-67.8223 40.2832-61.8164L40.2832-8.69141Q40.2832-2.63672 46.3379-2.63672Z"/>
  </g>
  <g id="Medium-S" transform="matrix(1 0 0 1 1711.62 696)">
   <path d="M15.5762-3.07617L24.6582-3.07617Q30.4199-3.07617 30.4199-8.88672L30.4199-61.6211Q30.4199-67.334 24.6582-67.3828L15.5762-67.3828Q9.76562-67.3828 9.76562-61.6211L9.76562-8.88672Q9.7168-3.07617 15.5762-3.07617ZM45.2148-3.07617L54.3457-3.07617Q60.1074-3.07617 60.1074-8.88672L60.1074-61.6211Q60.1074-67.3828 54.3457-67.3828L45.2148-67.3828Q39.4043-67.3828 39.4043-61.6211L39.4043-8.88672Q39.4043-3.07617 45.2148-3.07617Z"/>
  </g>
  <g id="Regular-S" transform="matrix(1 0 0 1 1415.93 696)">
   <path d="M15.2344-3.66211L24.0723-3.66211Q29.4922-3.66211 29.4922-9.13086L29.4922-61.377Q29.4922-66.7969 24.0723-66.7969L15.2344-66.7969Q9.76562-66.7969 9.76562-61.377L9.76562-9.13086Q9.76562-3.66211 15.2344-3.66211ZM43.7988-3.66211L52.6367-3.66211Q58.0566-3.66211 58.0566-9.13086L58.0566-61.377Q58.0566-66.7969 52.6367-66.7969L43.7988-66.7969Q38.3301-66.7969 38.3301-61.377L38.3301-9.13086Q38.3301-3.66211 43.7988-3.66211Z"/>
  </g>
  <g id="Light-S" transform="matrix(1 0 0 1 1120.69 696)">
   <path d="M14.5996-4.44336L23.1445-4.44336Q27.9297-4.44336 27.9297-9.27734L27.9297-61.2305Q27.9297-66.0156 23.1445-66.0156L14.5996-66.0156Q9.76562-66.0156 9.76562-61.2305L9.76562-9.27734Q9.76562-4.44336 14.5996-4.44336ZM41.748-4.44336L50.3418-4.44336Q55.127-4.44336 55.127-9.27734L55.127-61.2305Q55.127-66.0156 50.3418-66.0156L41.748-66.0156Q36.9141-66.0156 36.9141-61.2305L36.9141-9.27734Q36.9141-4.44336 41.748-4.44336Z"/>
  </g>
  <g id="Thin-S" transform="matrix(1 0 0 1 825.929 696)">
   <path d="M13.7207-5.46875L21.9727-5.46875Q25.9277-5.46875 25.9277-9.42383L25.9277-61.084Q25.9277-64.9902 21.9727-64.9902L13.7207-64.9902Q9.76562-64.9902 9.76562-61.084L9.76562-9.42383Q9.76562-5.46875 13.7207-5.46875ZM39.0137-5.46875L47.2656-5.46875Q51.2207-5.46875 51.2207-9.42383L51.2207-61.084Q51.2207-64.9902 47.2656-64.9902L39.0137-64.9902Q35.0586-64.9902 35.0586-61.084L35.0586-9.42383Q35.0586-5.46875 39.0137-5.46875Z"/>
  </g>
  <g id="Ultralight-S" transform="matrix(1 0 0 1 530.219 696)">
   <path d="M13.2812-6.00586L21.3379-6.00586Q24.8535-6.00586 24.8535-9.52148L24.8535-60.9863Q24.8535-64.502 21.3379-64.502L13.2812-64.502Q9.76562-64.502 9.76562-60.9863L9.76562-9.52148Q9.76562-6.00586 13.2812-6.00586ZM37.6465-6.00586L45.7031-6.00586Q49.2188-6.00586 49.2188-9.52148L49.2188-60.9863Q49.2188-64.502 45.7031-64.502L37.6465-64.502Q34.1309-64.502 34.1309-60.9863L34.1309-9.52148Q34.1309-6.00586 37.6465-6.00586Z"/>
  </g>
 </g>
</svg>
