<?xml version="1.0" encoding="UTF-8"?>
<!--Generator: Apple Native CoreSVG 149-->
<!DOCTYPE svg
PUBLIC "-//W3C//DTD SVG 1.1//EN"
       "http://www.w3.org/Graphics/SVG/1.1/DTD/svg11.dtd">
<svg version="1.1" xmlns="http://www.w3.org/2000/svg" xmlns:xlink="http://www.w3.org/1999/xlink" width="3300" height="2200">
 <!--glyph: "uni1002B5.medium", point size: 100.0, font version: "17.0d9e1", template writer version: "59"-->
 <g id="Notes">
  <rect height="2200" id="artboard" style="fill:white;opacity:1" width="3300" x="0" y="0"/>
  <line style="fill:none;stroke:black;opacity:1;stroke-width:0.5;" x1="263" x2="3036" y1="292" y2="292"/>
  <text style="stroke:none;fill:black;font-family:sans-serif;font-size:13;font-weight:bold;" transform="matrix(1 0 0 1 263 322)">Weight/Scale Variations</text>
  <text style="stroke:none;fill:black;font-family:sans-serif;font-size:13;text-anchor:middle;" transform="matrix(1 0 0 1 559.711 322)">Ultralight</text>
  <text style="stroke:none;fill:black;font-family:sans-serif;font-size:13;text-anchor:middle;" transform="matrix(1 0 0 1 856.422 322)">Thin</text>
  <text style="stroke:none;fill:black;font-family:sans-serif;font-size:13;text-anchor:middle;" transform="matrix(1 0 0 1 1153.13 322)">Light</text>
  <text style="stroke:none;fill:black;font-family:sans-serif;font-size:13;text-anchor:middle;" transform="matrix(1 0 0 1 1449.84 322)">Regular</text>
  <text style="stroke:none;fill:black;font-family:sans-serif;font-size:13;text-anchor:middle;" transform="matrix(1 0 0 1 1746.56 322)">Medium</text>
  <text style="stroke:none;fill:black;font-family:sans-serif;font-size:13;text-anchor:middle;" transform="matrix(1 0 0 1 2043.27 322)">Semibold</text>
  <text style="stroke:none;fill:black;font-family:sans-serif;font-size:13;text-anchor:middle;" transform="matrix(1 0 0 1 2339.98 322)">Bold</text>
  <text style="stroke:none;fill:black;font-family:sans-serif;font-size:13;text-anchor:middle;" transform="matrix(1 0 0 1 2636.69 322)">Heavy</text>
  <text style="stroke:none;fill:black;font-family:sans-serif;font-size:13;text-anchor:middle;" transform="matrix(1 0 0 1 2933.4 322)">Black</text>
  <line style="fill:none;stroke:black;opacity:1;stroke-width:0.5;" x1="263" x2="3036" y1="1903" y2="1903"/>
  <g transform="matrix(1 0 0 1 263 1933)">
   <path d="M9.24805 0.830078Q10.8691 0.830078 12.2949 0.214844Q13.7207-0.400391 14.8096-1.49414Q15.8984-2.58789 16.5186-4.01367Q17.1387-5.43945 17.1387-7.05078Q17.1387-8.66211 16.5186-10.0879Q15.8984-11.5137 14.8047-12.6074Q13.7109-13.7012 12.2852-14.3164Q10.8594-14.9316 9.23828-14.9316Q7.62695-14.9316 6.20117-14.3164Q4.77539-13.7012 3.69141-12.6074Q2.60742-11.5137 1.9873-10.0879Q1.36719-8.66211 1.36719-7.05078Q1.36719-5.43945 1.9873-4.01367Q2.60742-2.58789 3.69629-1.49414Q4.78516-0.400391 6.21094 0.214844Q7.63672 0.830078 9.24805 0.830078ZM9.24805-0.654297Q7.91992-0.654297 6.7627-1.14746Q5.60547-1.64062 4.73145-2.51953Q3.85742-3.39844 3.36426-4.56055Q2.87109-5.72266 2.87109-7.05078Q2.87109-8.37891 3.35938-9.54102Q3.84766-10.7031 4.72168-11.582Q5.5957-12.4609 6.75293-12.9541Q7.91016-13.4473 9.23828-13.4473Q10.5762-13.4473 11.7334-12.9541Q12.8906-12.4609 13.7695-11.582Q14.6484-10.7031 15.1465-9.54102Q15.6445-8.37891 15.6445-7.05078Q15.6445-5.72266 15.1514-4.56055Q14.6582-3.39844 13.7842-2.51953Q12.9102-1.64062 11.748-1.14746Q10.5859-0.654297 9.24805-0.654297ZM5.83984-7.04102Q5.83984-6.71875 6.04492-6.51855Q6.25-6.31836 6.5918-6.31836L8.50586-6.31836L8.50586-4.39453Q8.50586-4.0625 8.70605-3.85742Q8.90625-3.65234 9.22852-3.65234Q9.56055-3.65234 9.76562-3.85742Q9.9707-4.0625 9.9707-4.39453L9.9707-6.31836L11.8945-6.31836Q12.2266-6.31836 12.4316-6.51855Q12.6367-6.71875 12.6367-7.04102Q12.6367-7.37305 12.4316-7.57812Q12.2266-7.7832 11.8945-7.7832L9.9707-7.7832L9.9707-9.69727Q9.9707-10.0391 9.76562-10.2441Q9.56055-10.4492 9.22852-10.4492Q8.90625-10.4492 8.70605-10.2441Q8.50586-10.0391 8.50586-9.69727L8.50586-7.7832L6.5918-7.7832Q6.25-7.7832 6.04492-7.57812Q5.83984-7.37305 5.83984-7.04102Z"/>
  </g>
  <g transform="matrix(1 0 0 1 281.867 1933)">
   <path d="M11.709 2.91016Q13.75 2.91016 15.5518 2.12891Q17.3535 1.34766 18.7305-0.0292969Q20.1074-1.40625 20.8887-3.20801Q21.6699-5.00977 21.6699-7.05078Q21.6699-9.0918 20.8887-10.8936Q20.1074-12.6953 18.7305-14.0723Q17.3535-15.4492 15.5469-16.2305Q13.7402-17.0117 11.6992-17.0117Q9.6582-17.0117 7.85645-16.2305Q6.05469-15.4492 4.68262-14.0723Q3.31055-12.6953 2.5293-10.8936Q1.74805-9.0918 1.74805-7.05078Q1.74805-5.00977 2.5293-3.20801Q3.31055-1.40625 4.6875-0.0292969Q6.06445 1.34766 7.86621 2.12891Q9.66797 2.91016 11.709 2.91016ZM11.709 1.25Q9.98047 1.25 8.47656 0.605469Q6.97266-0.0390625 5.83496-1.17676Q4.69727-2.31445 4.05762-3.81836Q3.41797-5.32227 3.41797-7.05078Q3.41797-8.7793 4.05762-10.2832Q4.69727-11.7871 5.83008-12.9297Q6.96289-14.0723 8.4668-14.7119Q9.9707-15.3516 11.6992-15.3516Q13.4277-15.3516 14.9316-14.7119Q16.4355-14.0723 17.5781-12.9297Q18.7207-11.7871 19.3652-10.2832Q20.0098-8.7793 20.0098-7.05078Q20.0098-5.32227 19.3701-3.81836Q18.7305-2.31445 17.5928-1.17676Q16.4551-0.0390625 14.9463 0.605469Q13.4375 1.25 11.709 1.25ZM7.39258-7.04102Q7.39258-6.68945 7.62695-6.46484Q7.86133-6.24023 8.23242-6.24023L10.8789-6.24023L10.8789-3.57422Q10.8789-3.21289 11.1035-2.9834Q11.3281-2.75391 11.6797-2.75391Q12.0508-2.75391 12.2852-2.9834Q12.5195-3.21289 12.5195-3.57422L12.5195-6.24023L15.1758-6.24023Q15.5371-6.24023 15.7715-6.46484Q16.0059-6.68945 16.0059-7.04102Q16.0059-7.41211 15.7715-7.6416Q15.5371-7.87109 15.1758-7.87109L12.5195-7.87109L12.5195-10.5176Q12.5195-10.8984 12.2852-11.1279Q12.0508-11.3574 11.6797-11.3574Q11.3281-11.3574 11.1035-11.1279Q10.8789-10.8984 10.8789-10.5176L10.8789-7.87109L8.23242-7.87109Q7.85156-7.87109 7.62207-7.6416Q7.39258-7.41211 7.39258-7.04102Z"/>
  </g>
  <g transform="matrix(1 0 0 1 305.646 1933)">
   <path d="M14.9707 5.66406Q17.0605 5.66406 18.96 5.01465Q20.8594 4.36523 22.4512 3.19336Q24.043 2.02148 25.2197 0.429688Q26.3965-1.16211 27.0459-3.06641Q27.6953-4.9707 27.6953-7.05078Q27.6953-9.14062 27.0459-11.04Q26.3965-12.9395 25.2197-14.5312Q24.043-16.123 22.4512-17.2998Q20.8594-18.4766 18.9551-19.126Q17.0508-19.7754 14.9609-19.7754Q12.8711-19.7754 10.9717-19.126Q9.07227-18.4766 7.48535-17.2998Q5.89844-16.123 4.72168-14.5312Q3.54492-12.9395 2.90039-11.04Q2.25586-9.14062 2.25586-7.05078Q2.25586-4.9707 2.90527-3.06641Q3.55469-1.16211 4.72656 0.429688Q5.89844 2.02148 7.49023 3.19336Q9.08203 4.36523 10.9814 5.01465Q12.8809 5.66406 14.9707 5.66406ZM14.9707 3.84766Q13.1641 3.84766 11.5283 3.2959Q9.89258 2.74414 8.53516 1.74805Q7.17773 0.751953 6.17676-0.610352Q5.17578-1.97266 4.62891-3.6084Q4.08203-5.24414 4.08203-7.05078Q4.08203-8.86719 4.62891-10.5029Q5.17578-12.1387 6.17188-13.501Q7.16797-14.8633 8.52539-15.8594Q9.88281-16.8555 11.5186-17.4023Q13.1543-17.9492 14.9609-17.9492Q16.7773-17.9492 18.4131-17.4023Q20.0488-16.8555 21.4111-15.8594Q22.7734-14.8633 23.7695-13.501Q24.7656-12.1387 25.3174-10.5029Q25.8691-8.86719 25.8691-7.05078Q25.8789-5.24414 25.332-3.6084Q24.7852-1.97266 23.7842-0.610352Q22.7832 0.751953 21.4209 1.74805Q20.0586 2.74414 18.4229 3.2959Q16.7871 3.84766 14.9707 3.84766ZM9.45312-7.04102Q9.45312-6.66016 9.71191-6.41113Q9.9707-6.16211 10.3711-6.16211L14.0625-6.16211L14.0625-2.46094Q14.0625-2.06055 14.3115-1.80664Q14.5605-1.55273 14.9414-1.55273Q15.3516-1.55273 15.6055-1.80664Q15.8594-2.06055 15.8594-2.46094L15.8594-6.16211L19.5605-6.16211Q19.9609-6.16211 20.2148-6.41113Q20.4688-6.66016 20.4688-7.04102Q20.4688-7.45117 20.2148-7.70508Q19.9609-7.95898 19.5605-7.95898L15.8594-7.95898L15.8594-11.6504Q15.8594-12.0605 15.6055-12.3145Q15.3516-12.5684 14.9414-12.5684Q14.5605-12.5684 14.3115-12.3096Q14.0625-12.0508 14.0625-11.6504L14.0625-7.95898L10.3711-7.95898Q9.96094-7.95898 9.70703-7.70508Q9.45312-7.45117 9.45312-7.04102Z"/>
  </g>
  <text style="stroke:none;fill:black;font-family:sans-serif;font-size:13;font-weight:bold;" transform="matrix(1 0 0 1 263 1953)">Design Variations</text>
  <text style="stroke:none;fill:black;font-family:sans-serif;font-size:13;" transform="matrix(1 0 0 1 263 1971)">Symbols are supported in up to nine weights and three scales.</text>
  <text style="stroke:none;fill:black;font-family:sans-serif;font-size:13;" transform="matrix(1 0 0 1 263 1989)">For optimal layout with text and other symbols, vertically align</text>
  <text style="stroke:none;fill:black;font-family:sans-serif;font-size:13;" transform="matrix(1 0 0 1 263 2007)">symbols with the adjacent text.</text>
  <line style="fill:none;stroke:#00AEEF;stroke-width:0.5;opacity:1.0;" x1="776" x2="776" y1="1919" y2="1933"/>
  <g transform="matrix(1 0 0 1 776 1933)">
   <path d="M3.31055 0.15625Q3.70117 0.15625 3.91602-0.00976562Q4.13086-0.175781 4.26758-0.585938L5.52734-4.0332L11.2891-4.0332L12.5488-0.585938Q12.6855-0.175781 12.9004-0.00976562Q13.1152 0.15625 13.4961 0.15625Q13.8867 0.15625 14.1162-0.0585938Q14.3457-0.273438 14.3457-0.644531Q14.3457-0.869141 14.2383-1.17188L9.6582-13.3691Q9.48242-13.8184 9.17969-14.043Q8.87695-14.2676 8.4082-14.2676Q7.5-14.2676 7.17773-13.3789L2.59766-1.16211Q2.49023-0.859375 2.49023-0.634766Q2.49023-0.263672 2.70996-0.0537109Q2.92969 0.15625 3.31055 0.15625ZM6.00586-5.51758L8.37891-12.0898L8.42773-12.0898L10.8008-5.51758Z"/>
  </g>
  <line style="fill:none;stroke:#00AEEF;stroke-width:0.5;opacity:1.0;" x1="793.197" x2="793.197" y1="1919" y2="1933"/>
  <text style="stroke:none;fill:black;font-family:sans-serif;font-size:13;font-weight:bold;" transform="matrix(1 0 0 1 776 1953)">Margins</text>
  <text style="stroke:none;fill:black;font-family:sans-serif;font-size:13;" transform="matrix(1 0 0 1 776 1971)">Leading and trailing margins on the left and right side of each symbol</text>
  <text style="stroke:none;fill:black;font-family:sans-serif;font-size:13;" transform="matrix(1 0 0 1 776 1989)">can be adjusted by modifying the x-location of the margin guidelines.</text>
  <text style="stroke:none;fill:black;font-family:sans-serif;font-size:13;" transform="matrix(1 0 0 1 776 2007)">Modifications are automatically applied proportionally to all</text>
  <text style="stroke:none;fill:black;font-family:sans-serif;font-size:13;" transform="matrix(1 0 0 1 776 2025)">scales and weights.</text>
  <g transform="matrix(1 0 0 1 1289 1933)">
   <path d="M2.8418 1.86523L4.54102 3.57422Q5.18555 4.22852 5.90332 4.17969Q6.62109 4.13086 7.31445 3.35938L18.0078-8.42773L17.041-9.4043L6.42578 2.27539Q6.16211 2.57812 5.89355 2.61719Q5.625 2.65625 5.27344 2.30469L4.10156 1.14258Q3.75 0.791016 3.79395 0.522461Q3.83789 0.253906 4.14062-0.0195312L15.6152-10.8203L14.6387-11.7871L3.04688-0.898438Q2.30469-0.214844 2.25098 0.498047Q2.19727 1.21094 2.8418 1.86523ZM9.25781-16.3281Q8.94531-16.0254 8.90625-15.6348Q8.86719-15.2441 9.04297-14.9512Q9.21875-14.6777 9.55566-14.541Q9.89258-14.4043 10.3809-14.5215Q11.4746-14.7754 12.5977-14.7314Q13.7207-14.6875 14.7949-13.9844L14.209-12.5293Q13.9551-11.9043 14.0674-11.4404Q14.1797-10.9766 14.5801-10.5664L16.875-8.25195Q17.2363-7.88086 17.5781-7.82227Q17.9199-7.76367 18.3398-7.8418L19.4043-8.03711L20.0684-7.36328L20.0293-6.80664Q20-6.43555 20.1221-6.12305Q20.2441-5.81055 20.6055-5.44922L21.3672-4.70703Q21.7285-4.3457 22.1533-4.33105Q22.5781-4.31641 22.9297-4.66797L25.8398-7.58789Q26.1914-7.93945 26.1816-8.35449Q26.1719-8.76953 25.8105-9.13086L25.0391-9.89258Q24.6875-10.2539 24.3799-10.3857Q24.0723-10.5176 23.7109-10.4883L23.1348-10.4395L22.4902-11.0742L22.7344-12.1973Q22.832-12.6172 22.6953-12.9834Q22.5586-13.3496 22.1191-13.7891L19.9219-15.9766Q18.6719-17.2168 17.2607-17.8369Q15.8496-18.457 14.4189-18.4814Q12.9883-18.5059 11.665-17.959Q10.3418-17.4121 9.25781-16.3281ZM10.752-15.957Q11.6602-16.6211 12.7002-16.9043Q13.7402-17.1875 14.8047-17.085Q15.8691-16.9824 16.8701-16.5137Q17.8711-16.0449 18.7012-15.2051L21.1328-12.793Q21.3086-12.6172 21.3525-12.4512Q21.3965-12.2852 21.3379-12.0312L21.0156-10.5469L22.5195-9.0625L23.5059-9.12109Q23.6914-9.13086 23.7891-9.09668Q23.8867-9.0625 24.0332-8.91602L24.6094-8.33984L22.168-5.89844L21.5918-6.47461Q21.4453-6.62109 21.4062-6.71875Q21.3672-6.81641 21.377-7.01172L21.4453-7.98828L19.9512-9.47266L18.4277-9.21875Q18.1836-9.16992 18.042-9.2041Q17.9004-9.23828 17.7148-9.41406L15.7129-11.416Q15.5176-11.5918 15.4932-11.7529Q15.4688-11.9141 15.5859-12.1875L16.4648-14.2773Q15.293-15.3711 13.8281-15.791Q12.3633-16.2109 10.8398-15.7617Q10.7227-15.7324 10.6885-15.8057Q10.6543-15.8789 10.752-15.957Z"/>
  </g>
  <text style="stroke:none;fill:black;font-family:sans-serif;font-size:13;font-weight:bold;" transform="matrix(1 0 0 1 1289 1953)">Exporting</text>
  <text style="stroke:none;fill:black;font-family:sans-serif;font-size:13;" transform="matrix(1 0 0 1 1289 1971)">Symbols should be outlined when exporting to ensure the</text>
  <text style="stroke:none;fill:black;font-family:sans-serif;font-size:13;" transform="matrix(1 0 0 1 1289 1989)">design is preserved when submitting to Xcode.</text>
  <text id="template-version" style="stroke:none;fill:black;font-family:sans-serif;font-size:13;text-anchor:end;" transform="matrix(1 0 0 1 3036 1933)">Template v.2.0</text>
  <text style="stroke:none;fill:black;font-family:sans-serif;font-size:13;text-anchor:end;" transform="matrix(1 0 0 1 3036 1951)">Requires Xcode 13 or greater</text>
  <text id="descriptive-name" style="stroke:none;fill:black;font-family:sans-serif;font-size:13;text-anchor:end;" transform="matrix(1 0 0 1 3036 1969)">Generated from heart.fill</text>
  <text style="stroke:none;fill:black;font-family:sans-serif;font-size:13;text-anchor:end;" transform="matrix(1 0 0 1 3036 1987)">Typeset at 100 points</text>
  <text style="stroke:none;fill:black;font-family:sans-serif;font-size:13;" transform="matrix(1 0 0 1 263 726)">Small</text>
  <text style="stroke:none;fill:black;font-family:sans-serif;font-size:13;" transform="matrix(1 0 0 1 263 1156)">Medium</text>
  <text style="stroke:none;fill:black;font-family:sans-serif;font-size:13;" transform="matrix(1 0 0 1 263 1586)">Large</text>
 </g>
 <g id="Guides">
  <g id="H-reference" style="fill:#27AAE1;stroke:none;" transform="matrix(1 0 0 1 339 696)">
   <path d="M0.976562 0L3.66211 0L29.3457-67.1387L30.0293-67.1387L30.0293-70.459L28.125-70.459ZM11.6699-24.4629L46.9727-24.4629L46.2402-26.709L12.4512-26.709ZM55.127 0L57.7637 0L30.6152-70.459L29.4434-70.459L29.4434-67.1387Z"/>
  </g>
  <line id="Baseline-S" style="fill:none;stroke:#27AAE1;opacity:1;stroke-width:0.5;" x1="263" x2="3036" y1="696" y2="696"/>
  <line id="Capline-S" style="fill:none;stroke:#27AAE1;opacity:1;stroke-width:0.5;" x1="263" x2="3036" y1="625.541" y2="625.541"/>
  <g id="H-reference" style="fill:#27AAE1;stroke:none;" transform="matrix(1 0 0 1 339 1126)">
   <path d="M0.976562 0L3.66211 0L29.3457-67.1387L30.0293-67.1387L30.0293-70.459L28.125-70.459ZM11.6699-24.4629L46.9727-24.4629L46.2402-26.709L12.4512-26.709ZM55.127 0L57.7637 0L30.6152-70.459L29.4434-70.459L29.4434-67.1387Z"/>
  </g>
  <line id="Baseline-M" style="fill:none;stroke:#27AAE1;opacity:1;stroke-width:0.5;" x1="263" x2="3036" y1="1126" y2="1126"/>
  <line id="Capline-M" style="fill:none;stroke:#27AAE1;opacity:1;stroke-width:0.5;" x1="263" x2="3036" y1="1055.54" y2="1055.54"/>
  <g id="H-reference" style="fill:#27AAE1;stroke:none;" transform="matrix(1 0 0 1 339 1556)">
   <path d="M0.976562 0L3.66211 0L29.3457-67.1387L30.0293-67.1387L30.0293-70.459L28.125-70.459ZM11.6699-24.4629L46.9727-24.4629L46.2402-26.709L12.4512-26.709ZM55.127 0L57.7637 0L30.6152-70.459L29.4434-70.459L29.4434-67.1387Z"/>
  </g>
  <line id="Baseline-L" style="fill:none;stroke:#27AAE1;opacity:1;stroke-width:0.5;" x1="263" x2="3036" y1="1556" y2="1556"/>
  <line id="Capline-L" style="fill:none;stroke:#27AAE1;opacity:1;stroke-width:0.5;" x1="263" x2="3036" y1="1485.54" y2="1485.54"/>
  <line id="left-margin" style="fill:none;stroke:#00AEEF;stroke-width:0.5;opacity:1.0;" x1="1389.3" x2="1389.3" y1="1030.79" y2="1150.12"/>
  <line id="right-margin" style="fill:none;stroke:#00AEEF;stroke-width:0.5;opacity:1.0;" x1="1510.39" x2="1510.39" y1="1030.79" y2="1150.12"/>
 </g>
 <g id="Symbols">
  <g id="Black-L" transform="matrix(1 0 0 1 2851.54 1556)">
   <path d="M81.8359 29.5898Q83.8379 29.5898 86.5967 28.1006Q89.3555 26.6113 92.1875 24.707Q105.078 16.2109 115.601 6.90918Q126.123-2.39258 133.667-12.2314Q141.211-22.0703 145.288-32.2266Q149.365-42.3828 149.365-52.5879Q149.365-62.4512 146.191-70.459Q143.018-78.4668 137.5-84.2285Q131.982-89.9902 124.854-93.0664Q117.725-96.1426 109.766-96.1426Q103.125-96.1426 97.8516-93.8965Q92.5781-91.6504 88.5986-87.7197Q84.6191-83.7891 81.8359-78.6621Q79.1504-83.7402 75.1465-87.6953Q71.1426-91.6504 65.8691-93.8965Q60.5957-96.1426 53.9551-96.1426Q45.9961-96.1426 38.8672-93.0664Q31.7383-89.9902 26.2207-84.2285Q20.7031-78.4668 17.5293-70.459Q14.3555-62.4512 14.3555-52.5879Q14.3555-42.3828 18.4326-32.2266Q22.5098-22.0703 30.0537-12.2314Q37.5977-2.39258 48.1201 6.90918Q58.6426 16.2109 71.5332 24.707Q74.3652 26.6113 77.124 28.1006Q79.8828 29.5898 81.8359 29.5898Z"/>
  </g>
  <g id="Heavy-L" transform="matrix(1 0 0 1 2555.98 1556)">
   <path d="M80.6641 28.125Q82.4219 28.125 84.8145 26.8799Q87.207 25.6348 89.5508 24.0234Q102.49 15.5762 113.037 6.32324Q123.584-2.92969 131.152-12.6709Q138.721-22.4121 142.798-32.4951Q146.875-42.5781 146.875-52.7344Q146.875-62.1582 143.823-69.8975Q140.771-77.6367 135.449-83.2275Q130.127-88.8184 123.193-91.7969Q116.26-94.7754 108.447-94.7754Q101.953-94.7754 96.7041-92.5781Q91.4551-90.3809 87.4512-86.4746Q83.4473-82.5684 80.6641-77.3926Q77.9785-82.5195 73.9502-86.4502Q69.9219-90.3809 64.6729-92.5781Q59.4238-94.7754 52.9297-94.7754Q45.166-94.7754 38.2324-91.7969Q31.2988-88.8184 25.9521-83.2275Q20.6055-77.6367 17.5781-69.8975Q14.5508-62.1582 14.5508-52.7344Q14.5508-42.5781 18.6279-32.4951Q22.7051-22.4121 30.249-12.6709Q37.793-2.92969 48.3398 6.32324Q58.8867 15.5762 71.8262 24.0234Q74.2188 25.6348 76.6113 26.8799Q79.0039 28.125 80.6641 28.125Z"/>
  </g>
  <g id="Bold-L" transform="matrix(1 0 0 1 2260.56 1556)">
   <path d="M79.3945 26.5137Q80.8594 26.5137 82.8125 25.5371Q84.7656 24.5605 86.6699 23.291Q99.6582 14.8438 110.229 5.66406Q120.801-3.51562 128.369-13.1836Q135.938-22.8516 140.015-32.8125Q144.092-42.7734 144.092-52.8809Q144.092-61.8652 141.187-69.2871Q138.281-76.709 133.179-82.1045Q128.076-87.5 121.362-90.4053Q114.648-93.3105 106.982-93.3105Q100.684-93.3105 95.459-91.1133Q90.2344-88.916 86.2061-85.0342Q82.1777-81.1523 79.3945-76.0254Q76.709-81.1523 72.6562-85.0342Q68.6035-88.916 63.3789-91.1133Q58.1543-93.3105 51.8555-93.3105Q44.1895-93.3105 37.4756-90.4053Q30.7617-87.5 25.6592-82.1045Q20.5566-76.709 17.6514-69.2871Q14.7461-61.8652 14.7461-52.8809Q14.7461-42.7734 18.8232-32.8125Q22.9004-22.8516 30.4688-13.1836Q38.0371-3.51562 48.6084 5.66406Q59.1797 14.8438 72.2168 23.291Q74.0723 24.5605 76.0254 25.5371Q77.9785 26.5137 79.3945 26.5137Z"/>
  </g>
  <g id="Semibold-L" transform="matrix(1 0 0 1 1964.75 1556)">
   <path d="M78.5156 25.3906Q79.7852 25.3906 81.4453 24.585Q83.1055 23.7793 84.6191 22.7539Q97.6562 14.3066 108.252 5.2002Q118.848-3.90625 126.416-13.501Q133.984-23.0957 138.062-33.0078Q142.139-42.9199 142.139-52.9785Q142.139-61.6699 139.355-68.8721Q136.572-76.0742 131.592-81.3232Q126.611-86.5723 120.068-89.4043Q113.525-92.2363 105.957-92.2363Q99.7559-92.2363 94.5801-90.0879Q89.4043-87.9395 85.3516-84.0576Q81.2988-80.1758 78.5156-75.0488Q75.7812-80.1758 71.7285-84.0576Q67.6758-87.9395 62.4756-90.0879Q57.2754-92.2363 51.0742-92.2363Q43.5547-92.2363 36.9873-89.4043Q30.4199-86.5723 25.4395-81.3232Q20.459-76.0742 17.6758-68.8721Q14.8926-61.6699 14.8926-52.9785Q14.8926-42.9199 18.9697-33.0078Q23.0469-23.0957 30.6152-13.501Q38.1836-3.90625 48.7793 5.2002Q59.375 14.3066 72.4121 22.7539Q73.9258 23.7793 75.6104 24.585Q77.2949 25.3906 78.5156 25.3906Z"/>
  </g>
  <g id="Medium-L" transform="matrix(1 0 0 1 1668.72 1556)">
   <path d="M77.832 24.5605Q78.9551 24.5605 80.3955 23.877Q81.8359 23.1934 83.1055 22.3633Q96.1426 13.916 106.738 4.83398Q117.334-4.24805 124.927-13.7695Q132.52-23.291 136.597-33.1543Q140.674-43.0176 140.674-53.0273Q140.674-61.4746 137.964-68.5303Q135.254-75.5859 130.396-80.7373Q125.537-85.8887 119.116-88.6719Q112.695-91.4551 105.225-91.4551Q99.0723-91.4551 93.8965-89.3066Q88.7207-87.1582 84.668-83.3008Q80.6152-79.4434 77.832-74.3164Q75.0977-79.4434 71.0449-83.3008Q66.9922-87.1582 61.792-89.3066Q56.5918-91.4551 50.4883-91.4551Q43.0176-91.4551 36.5723-88.6719Q30.127-85.8887 25.2686-80.7373Q20.4102-75.5859 17.7002-68.5303Q14.9902-61.4746 14.9902-53.0273Q14.9902-43.0176 19.0674-33.1543Q23.1445-23.291 30.7373-13.7695Q38.3301-4.24805 48.9258 4.83398Q59.5215 13.916 72.6074 22.3633Q73.8281 23.1934 75.293 23.877Q76.7578 24.5605 77.832 24.5605Z"/>
  </g>
  <g id="Regular-L" transform="matrix(1 0 0 1 1372.89 1556)">
   <path d="M76.9531 23.4375Q77.8809 23.4375 79.0283 22.9492Q80.1758 22.4609 81.1035 21.875Q94.1895 13.4277 104.81 4.39453Q115.43-4.63867 123.022-14.1113Q130.615-23.584 134.692-33.374Q138.77-43.1641 138.77-53.125Q138.77-61.2793 136.157-68.1152Q133.545-74.9512 128.833-79.9561Q124.121-84.9609 117.847-87.6953Q111.572-90.4297 104.199-90.4297Q98.1934-90.4297 93.042-88.3057Q87.8906-86.1816 83.8135-82.3486Q79.7363-78.5156 76.9531-73.3398Q74.2188-78.5156 70.1416-82.3486Q66.0645-86.1816 60.8887-88.3057Q55.7129-90.4297 49.707-90.4297Q42.3828-90.4297 36.084-87.6953Q29.7852-84.9609 25.0732-79.9561Q20.3613-74.9512 17.749-68.1152Q15.1367-61.2793 15.1367-53.125Q15.1367-43.1641 19.2139-33.374Q23.291-23.584 30.8838-14.1113Q38.4766-4.63867 49.0967 4.39453Q59.7168 13.4277 72.8516 21.875Q73.7305 22.4609 74.9023 22.9492Q76.0742 23.4375 76.9531 23.4375Z"/>
  </g>
  <g id="Light-L" transform="matrix(1 0 0 1 1077.74 1556)">
   <path d="M75.3906 21.9238Q76.2207 21.9238 77.1729 21.5332Q78.125 21.1426 78.9062 20.6055Q91.6992 12.2559 102.222 3.36914Q112.744-5.51758 120.337-14.8193Q127.93-24.1211 132.056-33.7402Q136.182-43.3594 136.182-53.125Q136.182-61.0352 133.643-67.6758Q131.104-74.3164 126.489-79.1992Q121.875-84.082 115.723-86.7432Q109.57-89.4043 102.344-89.4043Q96.582-89.4043 91.4307-87.3047Q86.2793-85.2051 82.1533-81.4453Q78.0273-77.6855 75.3906-72.5586Q72.8027-77.6855 68.6768-81.4453Q64.5508-85.2051 59.3994-87.3047Q54.248-89.4043 48.4375-89.4043Q41.2109-89.4043 35.0586-86.7432Q28.9062-84.082 24.292-79.1992Q19.6777-74.3164 17.1387-67.6758Q14.5996-61.0352 14.5996-53.125Q14.5996-43.3594 18.7256-33.7402Q22.8516-24.1211 30.4443-14.8193Q38.0371-5.51758 48.5596 3.36914Q59.082 12.2559 71.875 20.6055Q72.6562 21.1426 73.6328 21.5332Q74.6094 21.9238 75.3906 21.9238Z"/>
  </g>
  <g id="Thin-L" transform="matrix(1 0 0 1 783.082 1556)">
   <path d="M73.3398 19.9707Q73.9746 19.9707 74.7314 19.6777Q75.4883 19.3848 76.0254 18.9453Q88.4766 10.7422 98.8525 2.02637Q109.229-6.68945 116.821-15.7959Q124.414-24.9023 128.613-34.2529Q132.812-43.6035 132.812-53.125Q132.812-60.7422 130.347-67.1143Q127.881-73.4863 123.413-78.1982Q118.945-82.9102 112.964-85.498Q106.982-88.0859 99.9023-88.0859Q94.3848-88.0859 89.2334-86.0352Q84.082-83.9844 79.9316-80.2734Q75.7812-76.5625 73.3398-71.5332Q70.8984-76.5625 66.748-80.2734Q62.5977-83.9844 57.4219-86.0352Q52.2461-88.0859 46.7773-88.0859Q39.6973-88.0859 33.7158-85.498Q27.7344-82.9102 23.2666-78.1982Q18.7988-73.4863 16.333-67.1143Q13.8672-60.7422 13.8672-53.125Q13.8672-43.6035 18.042-34.2529Q22.2168-24.9023 29.834-15.7959Q37.4512-6.68945 47.8271 2.02637Q58.2031 10.7422 70.6543 18.9453Q71.1914 19.3848 71.9482 19.6777Q72.7051 19.9707 73.3398 19.9707Z"/>
  </g>
  <g id="Ultralight-L" transform="matrix(1 0 0 1 487.445 1556)">
   <path d="M72.2656 18.9453Q72.8516 18.9453 73.4619 18.7012Q74.0723 18.457 74.5605 18.1152Q86.7676 9.91211 97.0703 1.29395Q107.373-7.32422 114.99-16.2842Q122.607-25.2441 126.831-34.4971Q131.055-43.75 131.055-53.125Q131.055-60.5957 128.638-66.8457Q126.221-73.0957 121.826-77.71Q117.432-82.3242 111.523-84.8633Q105.615-87.4023 98.6816-87.4023Q93.3105-87.4023 88.1592-85.3516Q83.0078-83.3008 78.833-79.6387Q74.6582-75.9766 72.2656-70.9961Q69.9219-75.9766 65.7471-79.6387Q61.5723-83.3008 56.4209-85.3516Q51.2695-87.4023 45.9473-87.4023Q38.916-87.4023 33.0078-84.8633Q27.0996-82.3242 22.7295-77.71Q18.3594-73.0957 15.9424-66.8457Q13.5254-60.5957 13.5254-53.125Q13.5254-43.75 17.7246-34.4971Q21.9238-25.2441 29.541-16.2842Q37.1582-7.32422 47.4609 1.29395Q57.7637 9.91211 69.9707 18.1152Q70.459 18.457 71.0938 18.7012Q71.7285 18.9453 72.2656 18.9453Z"/>
  </g>
  <g id="Black-M" transform="matrix(1 0 0 1 2869.53 1126)">
   <path d="M63.8672 15.7715Q65.5762 15.7715 67.9688 14.4287Q70.3613 13.0859 72.9492 11.377Q86.0352 2.58789 95.9473-7.25098Q105.859-17.0898 111.426-27.5635Q116.992-38.0371 116.992-48.584Q116.992-56.4941 114.429-62.8906Q111.865-69.2871 107.471-73.8281Q103.076-78.3691 97.4121-80.8105Q91.748-83.252 85.5469-83.252Q77.7344-83.252 72.3633-79.4189Q66.9922-75.5859 63.8672-69.6777Q60.7422-75.5859 55.3711-79.4189Q50-83.252 42.1875-83.252Q35.9375-83.252 30.2979-80.8105Q24.6582-78.3691 20.2393-73.8281Q15.8203-69.2871 13.2812-62.8906Q10.7422-56.4941 10.7422-48.584Q10.7422-38.0371 16.2842-27.5635Q21.8262-17.0898 31.7627-7.25098Q41.6992 2.58789 54.7852 11.377Q57.3242 13.0859 59.7412 14.4287Q62.1582 15.7715 63.8672 15.7715Z"/>
  </g>
  <g id="Heavy-M" transform="matrix(1 0 0 1 2573.6 1126)">
   <path d="M63.0859 14.6484Q64.5508 14.6484 66.626 13.5254Q68.7012 12.4023 70.8496 10.9863Q84.1309 2.19727 94.0674-7.59277Q104.004-17.3828 109.57-27.7832Q115.137-38.1836 115.137-48.6816Q115.137-56.2988 112.671-62.4512Q110.205-68.6035 105.981-72.998Q101.758-77.3926 96.2646-79.7607Q90.7715-82.1289 84.668-82.1289Q77.002-82.1289 71.6309-78.3447Q66.2598-74.5605 63.0859-68.6523Q59.9121-74.5605 54.541-78.3447Q49.1699-82.1289 41.5039-82.1289Q35.3516-82.1289 29.8828-79.7607Q24.4141-77.3926 20.166-72.998Q15.918-68.6035 13.4766-62.4512Q11.0352-56.2988 11.0352-48.6816Q11.0352-38.1836 16.5771-27.7832Q22.1191-17.3828 32.1045-7.59277Q42.0898 2.19727 55.3223 10.9863Q57.4219 12.4023 59.5215 13.5254Q61.6211 14.6484 63.0859 14.6484Z"/>
  </g>
  <g id="Bold-M" transform="matrix(1 0 0 1 2277.77 1126)">
   <path d="M62.207 13.4277Q63.4766 13.4277 65.1611 12.5488Q66.8457 11.6699 68.5547 10.5957Q81.9824 1.80664 91.9678-7.95898Q101.953-17.7246 107.495-28.0518Q113.037-38.3789 113.037-48.8281Q113.037-56.0547 110.718-61.9385Q108.398-67.8223 104.346-72.0703Q100.293-76.3184 94.9951-78.6133Q89.6973-80.9082 83.6914-80.9082Q76.2207-80.9082 70.8252-77.1729Q65.4297-73.4375 62.207-67.4805Q59.0332-73.4375 53.6377-77.1729Q48.2422-80.9082 40.7227-80.9082Q34.7168-80.9082 29.4434-78.6133Q24.1699-76.3184 20.0928-72.0703Q16.0156-67.8223 13.7207-61.9385Q11.4258-56.0547 11.4258-48.8281Q11.4258-38.3789 16.9434-28.0518Q22.4609-17.7246 32.4707-7.95898Q42.4805 1.80664 55.9082 10.5957Q57.5684 11.6699 59.2773 12.5488Q60.9863 13.4277 62.207 13.4277Z"/>
  </g>
  <g id="Semibold-M" transform="matrix(1 0 0 1 1981.67 1126)">
   <path d="M61.6211 12.5977Q62.6953 12.5977 64.1357 11.8652Q65.5762 11.1328 66.9434 10.2539Q80.4688 1.46484 90.5029-8.22754Q100.537-17.9199 106.055-28.1982Q111.572-38.4766 111.572-48.9258Q111.572-55.8594 109.326-61.5723Q107.08-67.2852 103.174-71.4355Q99.2676-75.5859 94.0918-77.832Q88.916-80.0781 83.0078-80.0781Q75.6836-80.0781 70.2637-76.3672Q64.8438-72.6562 61.6211-66.6504Q58.3984-72.6074 52.9785-76.3428Q47.5586-80.0781 40.1855-80.0781Q34.2773-80.0781 29.126-77.832Q23.9746-75.5859 20.0195-71.4355Q16.0645-67.2852 13.8428-61.5723Q11.6211-55.8594 11.6211-48.9258Q11.6211-38.4766 17.1387-28.1982Q22.6562-17.9199 32.7148-8.22754Q42.7734 1.46484 56.2988 10.2539Q57.666 11.1328 59.1064 11.8652Q60.5469 12.5977 61.6211 12.5977Z"/>
  </g>
  <g id="Medium-M" transform="matrix(1 0 0 1 1685.42 1126)">
   <path d="M61.1328 11.9141Q62.1094 11.9141 63.3545 11.3281Q64.5996 10.7422 65.7227 10.0586Q79.3457 1.26953 89.4043-8.42285Q99.4629-18.1152 104.956-28.3447Q110.449-38.5742 110.449-48.9746Q110.449-55.7129 108.301-61.3037Q106.152-66.8945 102.344-70.9473Q98.5352-75 93.4326-77.1973Q88.3301-79.3945 82.5195-79.3945Q75.2441-79.3945 69.8486-75.7324Q64.4531-72.0703 61.1328-66.0156Q57.9102-72.0215 52.4902-75.708Q47.0703-79.3945 39.7949-79.3945Q33.9355-79.3945 28.8818-77.1973Q23.8281-75 19.9951-70.9473Q16.1621-66.8945 13.9893-61.3037Q11.8164-55.7129 11.8164-48.9746Q11.8164-38.5742 17.334-28.3447Q22.8516-18.1152 32.9102-8.42285Q42.9688 1.26953 56.6406 10.0586Q57.7148 10.7422 58.9844 11.3281Q60.2539 11.9141 61.1328 11.9141Z"/>
  </g>
  <g id="Regular-M" transform="matrix(1 0 0 1 1389.3 1126)">
   <path d="M60.5469 11.084Q61.3281 11.084 62.3291 10.6689Q63.3301 10.2539 64.1113 9.76562Q77.8809 0.976562 87.9639-8.66699Q98.0469-18.3105 103.54-28.4912Q109.033-38.6719 109.033-49.0723Q109.033-55.5664 106.958-60.9619Q104.883-66.3574 101.196-70.3125Q97.5098-74.2676 92.5537-76.416Q87.5977-78.5645 81.8359-78.5645Q74.707-78.5645 69.2871-74.9268Q63.8672-71.2891 60.5469-65.2344Q57.2754-71.2402 51.8555-74.9023Q46.4355-78.5645 39.2578-78.5645Q33.4961-78.5645 28.5645-76.416Q23.6328-74.2676 19.9219-70.3125Q16.2109-66.3574 14.1357-60.9619Q12.0605-55.5664 12.0605-49.0723Q12.0605-38.6719 17.5537-28.4912Q23.0469-18.3105 33.1543-8.66699Q43.2617 0.976562 57.0312 9.76562Q57.8125 10.2539 58.8135 10.6689Q59.8145 11.084 60.5469 11.084Z"/>
  </g>
  <g id="Light-M" transform="matrix(1 0 0 1 1094 1126)">
   <path d="M59.1309 9.7168Q59.8145 9.7168 60.6445 9.39941Q61.4746 9.08203 62.1582 8.64258Q75.5859-0.0488281 85.5957-9.52148Q95.6055-18.9941 101.172-28.9551Q106.738-38.916 106.738-49.0723Q106.738-55.3711 104.712-60.5957Q102.686-65.8203 99.0967-69.6533Q95.5078-73.4863 90.6494-75.5615Q85.791-77.6367 80.1758-77.6367Q73.291-77.6367 67.7734-74.0723Q62.2559-70.5078 59.1309-64.502Q56.0059-70.459 50.5127-74.0479Q45.0195-77.6367 38.1348-77.6367Q32.4707-77.6367 27.6367-75.5615Q22.8027-73.4863 19.1895-69.6533Q15.5762-65.8203 13.5742-60.5957Q11.5723-55.3711 11.5723-49.0723Q11.5723-38.916 17.1143-28.9551Q22.6562-18.9941 32.6904-9.52148Q42.7246-0.0488281 56.1523 8.64258Q56.8359 9.08203 57.666 9.39941Q58.4961 9.7168 59.1309 9.7168Z"/>
  </g>
  <g id="Thin-M" transform="matrix(1 0 0 1 799.147 1126)">
   <path d="M57.2754 7.95898Q57.8125 7.95898 58.4229 7.71484Q59.0332 7.4707 59.5215 7.12891Q72.5098-1.41602 82.4463-10.6445Q92.3828-19.873 98.0225-29.541Q103.662-39.209 103.662-49.0723Q103.662-55.0781 101.733-60.083Q99.8047-65.0879 96.3135-68.7744Q92.8223-72.4609 88.1348-74.4629Q83.4473-76.4648 77.9297-76.4648Q71.4844-76.4648 65.8203-72.9736Q60.1562-69.4824 57.2754-63.5742Q54.3457-69.4336 48.7305-72.9492Q43.1152-76.4648 36.6211-76.4648Q31.1035-76.4648 26.416-74.4629Q21.7285-72.4609 18.2373-68.7744Q14.7461-65.0879 12.8174-60.083Q10.8887-55.0781 10.8887-49.0723Q10.8887-39.209 16.5283-29.541Q22.168-19.873 32.1289-10.6445Q42.0898-1.41602 54.9805 7.12891Q55.4688 7.4707 56.1035 7.71484Q56.7383 7.95898 57.2754 7.95898Z"/>
  </g>
  <g id="Ultralight-M" transform="matrix(1 0 0 1 503.388 1126)">
   <path d="M56.3477 7.03125Q56.7871 7.03125 57.2998 6.86035Q57.8125 6.68945 58.2031 6.34766Q70.9473-2.09961 80.835-11.2061Q90.7227-20.3125 96.4111-29.834Q102.1-39.3555 102.1-49.0723Q102.1-54.9316 100.195-59.8389Q98.291-64.7461 94.873-68.335Q91.4551-71.9238 86.8408-73.877Q82.2266-75.8301 76.8066-75.8301Q70.5078-75.8301 64.7949-72.3877Q59.082-68.9453 56.3477-63.0859Q53.5156-68.9453 47.8271-72.3877Q42.1387-75.8301 35.8398-75.8301Q30.4199-75.8301 25.8057-73.877Q21.1914-71.9238 17.7734-68.335Q14.3555-64.7461 12.4512-59.8389Q10.5469-54.9316 10.5469-49.0723Q10.5469-39.3555 16.2354-29.834Q21.9238-20.3125 31.8115-11.2061Q41.6992-2.09961 54.3945 6.34766Q54.834 6.68945 55.3467 6.86035Q55.8594 7.03125 56.3477 7.03125Z"/>
  </g>
  <g id="Black-S" transform="matrix(1 0 0 1 2883.2 696)">
   <path d="M50.1953 4.98047Q51.6113 4.98047 53.5889 3.85742Q55.5664 2.73438 57.666 1.31836Q67.8711-5.56641 75.6348-13.2812Q83.3984-20.9961 87.7441-29.1992Q92.0898-37.4023 92.0898-45.6543Q92.0898-54.0527 88.5986-60.2051Q85.1074-66.3574 79.4189-69.751Q73.7305-73.1445 67.1875-73.1445Q61.0352-73.1445 56.8359-70.1416Q52.6367-67.1387 50.1953-62.5Q47.8027-67.1387 43.5791-70.1416Q39.3555-73.1445 33.2031-73.1445Q26.6602-73.1445 20.9717-69.751Q15.2832-66.3574 11.792-60.2051Q8.30078-54.0527 8.30078-45.6543Q8.30078-37.4023 12.6465-29.1992Q16.9922-20.9961 24.7559-13.2812Q32.5195-5.56641 42.7246 1.31836Q44.873 2.73438 46.8506 3.85742Q48.8281 4.98047 50.1953 4.98047Z"/>
  </g>
  <g id="Heavy-S" transform="matrix(1 0 0 1 2586.98 696)">
   <path d="M49.707 4.19922Q50.9277 4.19922 52.6367 3.27148Q54.3457 2.34375 56.1035 1.12305Q66.5039-5.76172 74.3164-13.4521Q82.1289-21.1426 86.4502-29.3213Q90.7715-37.5 90.7715-45.752Q90.7715-53.8086 87.4268-59.7656Q84.082-65.7227 78.5889-69.0186Q73.0957-72.3145 66.6504-72.3145Q60.5957-72.3145 56.3965-69.3359Q52.1973-66.3574 49.707-61.6699Q47.2656-66.3574 43.042-69.3359Q38.8184-72.3145 32.7637-72.3145Q26.3184-72.3145 20.8252-69.0186Q15.332-65.7227 11.9873-59.7656Q8.64258-53.8086 8.64258-45.752Q8.64258-37.5 12.9639-29.3213Q17.2852-21.1426 25.0977-13.4521Q32.9102-5.76172 43.2617 1.12305Q45.0684 2.34375 46.7773 3.27148Q48.4863 4.19922 49.707 4.19922Z"/>
  </g>
  <g id="Bold-S" transform="matrix(1 0 0 1 2290.83 696)">
   <path d="M49.1699 3.36914Q50.1953 3.36914 51.6113 2.6123Q53.0273 1.85547 54.3945 0.927734Q64.9902-6.00586 72.8516-13.6719Q80.7129-21.3379 85.0098-29.4922Q89.3066-37.6465 89.3066-45.8984Q89.3066-53.5156 86.1328-59.2529Q82.959-64.9902 77.6611-68.1885Q72.3633-71.3867 66.0645-71.3867Q60.1074-71.3867 55.9082-68.457Q51.709-65.5273 49.1699-60.791Q46.6309-65.4785 42.4316-68.4326Q38.2324-71.3867 32.2754-71.3867Q25.9277-71.3867 20.6543-68.1885Q15.3809-64.9902 12.1826-59.2529Q8.98438-53.5156 8.98438-45.8984Q8.98438-37.6465 13.3057-29.4922Q17.627-21.3379 25.4639-13.6719Q33.3008-6.00586 43.8965 0.927734Q45.3125 1.85547 46.7285 2.6123Q48.1445 3.36914 49.1699 3.36914Z"/>
  </g>
  <g id="Semibold-S" transform="matrix(1 0 0 1 1994.51 696)">
   <path d="M48.7793 2.73438Q49.6582 2.73438 50.8789 2.12402Q52.0996 1.51367 53.2227 0.78125Q63.9648-6.15234 71.8262-13.8184Q79.6875-21.4844 83.9844-29.5898Q88.2812-37.6953 88.2812-45.9473Q88.2812-53.3203 85.2295-58.9111Q82.1777-64.502 77.0264-67.627Q71.875-70.752 65.625-70.752Q59.7656-70.752 55.5664-67.8223Q51.3672-64.8926 48.7793-60.1562Q46.1914-64.8926 41.9922-67.8223Q37.793-70.752 31.8848-70.752Q25.6836-70.752 20.5322-67.627Q15.3809-64.502 12.3047-58.9111Q9.22852-53.3203 9.22852-45.9473Q9.22852-37.6953 13.5254-29.5898Q17.8223-21.4844 25.708-13.8184Q33.5938-6.15234 44.3359 0.78125Q45.459 1.51367 46.6797 2.12402Q47.9004 2.73438 48.7793 2.73438Z"/>
  </g>
  <g id="Medium-S" transform="matrix(1 0 0 1 1698.09 696)">
   <path d="M48.4863 2.29492Q49.2676 2.29492 50.3418 1.78223Q51.416 1.26953 52.2949 0.683594Q63.1348-6.25 71.0449-13.8916Q78.9551-21.5332 83.252-29.6387Q87.5488-37.7441 87.5488-45.9961Q87.5488-53.1738 84.5703-58.6426Q81.5918-64.1113 76.5381-67.1875Q71.4844-70.2637 65.2832-70.2637Q59.5215-70.2637 55.3223-67.3584Q51.123-64.4531 48.4863-59.7168Q45.8984-64.4043 41.6748-67.334Q37.4512-70.2637 31.6406-70.2637Q25.4395-70.2637 20.4102-67.1875Q15.3809-64.1113 12.4023-58.6426Q9.42383-53.1738 9.42383-45.9961Q9.42383-37.7441 13.7207-29.6387Q18.0176-21.5332 25.9033-13.8916Q33.7891-6.25 44.6289 0.683594Q45.6055 1.26953 46.6553 1.78223Q47.7051 2.29492 48.4863 2.29492Z"/>
  </g>
  <g id="Regular-S" transform="matrix(1 0 0 1 1401.75 696)">
   <path d="M48.0957 1.70898Q48.7305 1.70898 49.6094 1.34277Q50.4883 0.976562 51.123 0.537109Q62.1094-6.39648 70.0439-14.0381Q77.9785-21.6797 82.251-29.7607Q86.5234-37.8418 86.5234-46.0938Q86.5234-52.9785 83.667-58.3008Q80.8105-63.623 75.9033-66.626Q70.9961-69.6289 64.8926-69.6289Q59.1797-69.6289 54.9805-66.748Q50.7812-63.8672 48.0957-59.082Q45.459-63.8184 41.2598-66.7236Q37.0605-69.6289 31.2988-69.6289Q25.1953-69.6289 20.3125-66.626Q15.4297-63.623 12.5488-58.3008Q9.66797-52.9785 9.66797-46.0938Q9.66797-37.8418 13.9404-29.7607Q18.2129-21.6797 26.1475-14.0381Q34.082-6.39648 45.0684 0.537109Q45.752 0.976562 46.6064 1.34277Q47.4609 1.70898 48.0957 1.70898Z"/>
  </g>
  <g id="Light-S" transform="matrix(1 0 0 1 1106.28 696)">
   <path d="M46.875 0.537109Q47.4121 0.537109 48.1445 0.219727Q48.877-0.0976562 49.4141-0.439453Q60.0586-7.27539 67.9443-14.7705Q75.8301-22.2656 80.1514-30.1514Q84.4727-38.0371 84.4727-46.0938Q84.4727-52.7344 81.7139-57.8613Q78.9551-62.9883 74.1699-65.918Q69.3848-68.8477 63.4277-68.8477Q57.959-68.8477 53.6621-66.0156Q49.3652-63.1836 46.875-58.4473Q44.3359-63.1348 40.0635-65.9912Q35.791-68.8477 30.2734-68.8477Q24.3164-68.8477 19.5557-65.918Q14.7949-62.9883 12.0117-57.8613Q9.22852-52.7344 9.22852-46.0938Q9.22852-38.0371 13.5498-30.1514Q17.8711-22.2656 25.7568-14.7705Q33.6426-7.27539 44.3359-0.439453Q44.873-0.0976562 45.5811 0.219727Q46.2891 0.537109 46.875 0.537109Z"/>
  </g>
  <g id="Thin-S" transform="matrix(1 0 0 1 811.207 696)">
   <path d="M45.2148-1.07422Q45.6543-1.07422 46.1914-1.26953Q46.7285-1.46484 47.1191-1.75781Q57.373-8.44727 65.1855-15.7227Q72.998-22.998 77.3926-30.6396Q81.7871-38.2812 81.7871-46.0938Q81.7871-52.3926 79.126-57.2754Q76.4648-62.1582 71.875-64.9658Q67.2852-67.7734 61.4746-67.7734Q56.3477-67.7734 51.9531-65.0146Q47.5586-62.2559 45.2148-57.6172Q42.8711-62.2559 38.501-65.0146Q34.1309-67.7734 28.9551-67.7734Q23.1445-67.7734 18.5547-64.9658Q13.9648-62.1582 11.3037-57.2754Q8.64258-52.3926 8.64258-46.0938Q8.64258-38.2812 13.0371-30.6396Q17.4316-22.998 25.2441-15.7227Q33.0566-8.44727 43.3105-1.75781Q43.7012-1.46484 44.2383-1.26953Q44.7754-1.07422 45.2148-1.07422Z"/>
  </g>
  <g id="Ultralight-S" transform="matrix(1 0 0 1 515.351 696)">
   <path d="M44.3848-1.85547Q44.7266-1.85547 45.166-2.02637Q45.6055-2.19727 45.9473-2.39258Q55.957-9.08203 63.7451-16.2354Q71.5332-23.3887 75.9521-30.9082Q80.3711-38.4277 80.3711-46.0938Q80.3711-52.2461 77.7832-57.0068Q75.1953-61.7676 70.6787-64.502Q66.1621-67.2363 60.498-67.2363Q55.5176-67.2363 51.0498-64.502Q46.582-61.7676 44.3848-57.1777Q42.1387-61.7676 37.6953-64.502Q33.252-67.2363 28.2715-67.2363Q22.5586-67.2363 18.0664-64.502Q13.5742-61.7676 10.9619-57.0068Q8.34961-52.2461 8.34961-46.0938Q8.34961-38.4277 12.793-30.9082Q17.2363-23.3887 25-16.2354Q32.7637-9.08203 42.8223-2.39258Q43.1152-2.19727 43.5303-2.02637Q43.9453-1.85547 44.3848-1.85547Z"/>
  </g>
 </g>
</svg>
